<svg xmlns="http://www.w3.org/2000/svg" version="1.1" xmlns:xlink="http://www.w3.org/1999/xlink" xmlns:svgjs="http://svgjs.com/svgjs" viewBox="0 0 100 100" width="100" height="100"><g transform="matrix(1,0,0,1,0,0)"><path d="M8.500 55.045 A40.000 40.000 0 1 0 88.500 55.045 A40.000 40.000 0 1 0 8.500 55.045 Z" fill="#e8f4fa" stroke="#daedf7" stroke-linecap="round" stroke-linejoin="round"></path><path d="M33.525 88.401 A16.475 2.354 0 1 0 66.475 88.401 A16.475 2.354 0 1 0 33.525 88.401 Z" fill="#45413c" opacity=".15"></path><path d="M25.268 43.761H36.229V47.415000000000006H25.268z" fill="#debb7e" stroke="#45413c" stroke-linecap="round" stroke-linejoin="round" transform="translate(-24.157 48.613) rotate(-59.154)"></path><path d="M19.461 45.979H23.115V56.94H19.461z" fill="#debb7e" stroke="#45413c" stroke-linecap="round" stroke-linejoin="round" transform="translate(-33.027 63.753) rotate(-80.28)"></path><path d="M23.644 52.385 A3.045 3.045 0 1 0 29.734 52.385 A3.045 3.045 0 1 0 23.644 52.385 Z" fill="#87898c" stroke="#45413c" stroke-linecap="round" stroke-linejoin="round"></path><path d="M35.385 35.402H64.615V64.632H35.385z" fill="#f7e5c6"></path><path d="M61.57,45.145a3.658,3.658,0,0,0-3.654-3.653H42.084a3.654,3.654,0,1,0,0,7.307H57.916A3.658,3.658,0,0,0,61.57,45.145Z" fill="#debb7e"></path><path d="M35.385 35.402H64.615V38.447H35.385z" fill="#fff5e3"></path><path d="M35.385 35.402H64.615V64.632H35.385z" fill="none" stroke="#45413c" stroke-linecap="round" stroke-linejoin="round"></path><path d="M60.961,43.928a3.044,3.044,0,0,1-3.045,3.044H42.084a3.045,3.045,0,1,1,0-6.089H57.916A3.045,3.045,0,0,1,60.961,43.928Z" fill="#80ddff"></path><path d="M42.084,43.319H57.916a3.044,3.044,0,0,1,2.791,1.826,3.045,3.045,0,0,0-2.791-4.262H42.084a3.045,3.045,0,0,0-2.791,4.262A3.044,3.044,0,0,1,42.084,43.319Z" fill="#b8ecff"></path><path d="M60.961,43.928a3.044,3.044,0,0,1-3.045,3.044H42.084a3.045,3.045,0,1,1,0-6.089H57.916A3.045,3.045,0,0,1,60.961,43.928Z" fill="none" stroke="#45413c" stroke-linecap="round" stroke-linejoin="round"></path><path d="M35.385,46.363l-3.026-.756a2.435,2.435,0,0,1-1.845-2.363V38.522a2.435,2.435,0,0,1,1.845-2.363l3.026-.757Z" fill="#ff6242"></path><path d="M32.359,36.159a2.435,2.435,0,0,0-1.845,2.363v3.045A2.435,2.435,0,0,1,32.359,39.2l3.026-.757V35.4Z" fill="#ff866e"></path><path d="M35.385,46.363l-3.026-.756a2.435,2.435,0,0,1-1.845-2.363V38.522a2.435,2.435,0,0,1,1.845-2.363l3.026-.757Z" fill="none" stroke="#45413c" stroke-linecap="round" stroke-linejoin="round"></path><path d="M42.861,60.978a.609.609,0,0,0,.529-.911L42,57.641a.608.608,0,0,0-1.057,0L39.56,60.067a.609.609,0,0,0,.528.911Z" fill="#ffe500" stroke="#45413c" stroke-linecap="round" stroke-linejoin="round"></path><path d="M59.912,57.324a.609.609,0,0,1,.528.911l-1.386,2.427a.608.608,0,0,1-1.057,0L56.61,58.235a.609.609,0,0,1,.529-.911Z" fill="#ffe500" stroke="#45413c" stroke-linecap="round" stroke-linejoin="round"></path><path d="M14.685,50.328A3.045,3.045,0,0,1,10.16,52.45a1.218,1.218,0,0,0-1.245,2.094,5.481,5.481,0,1,0,1.732-10.111,1.218,1.218,0,0,0,.478,2.388,3.045,3.045,0,0,1,3.56,3.507Z" fill="#87898c" stroke="#45413c" stroke-linecap="round" stroke-linejoin="round"></path><path d="M67.425 40.108H71.079V51.068999999999996H67.425z" fill="#debb7e" stroke="#45413c" stroke-linecap="round" stroke-linejoin="round" transform="matrix(0.859, -0.513, 0.513, 0.859, -13.579, 41.956)"></path><path d="M73.232 49.632H84.193V53.286H73.232z" fill="#debb7e" stroke="#45413c" stroke-linecap="round" stroke-linejoin="round" transform="translate(-7.558 14.028) rotate(-9.72)"></path><path d="M70.266 52.385 A3.045 3.045 0 1 0 76.356 52.385 A3.045 3.045 0 1 0 70.266 52.385 Z" fill="#87898c" stroke="#45413c" stroke-linecap="round" stroke-linejoin="round"></path><path d="M64.615,46.363l3.026-.756a2.435,2.435,0,0,0,1.845-2.363V38.522a2.435,2.435,0,0,0-1.845-2.363L64.615,35.4Z" fill="#ff6242"></path><path d="M67.641,36.159a2.435,2.435,0,0,1,1.845,2.363v3.045A2.435,2.435,0,0,0,67.641,39.2l-3.026-.757V35.4Z" fill="#ff866e"></path><path d="M64.615,46.363l3.026-.756a2.435,2.435,0,0,0,1.845-2.363V38.522a2.435,2.435,0,0,0-1.845-2.363L64.615,35.4Z" fill="none" stroke="#45413c" stroke-linecap="round" stroke-linejoin="round"></path><path d="M85.315,50.328A3.045,3.045,0,0,0,89.84,52.45a1.218,1.218,0,0,1,1.245,2.094,5.481,5.481,0,1,1-1.732-10.111,1.218,1.218,0,0,1-.478,2.388,3.045,3.045,0,0,0-3.56,3.507Z" fill="#87898c" stroke="#45413c" stroke-linecap="round" stroke-linejoin="round"></path><path d="M44.519 31.749H55.48V35.403H44.519z" fill="#87898c"></path><path d="M44.519 31.749H55.48V33.576H44.519z" fill="#656769"></path><path d="M44.519 31.749H55.48V35.403H44.519z" fill="none" stroke="#45413c" stroke-linecap="round" stroke-linejoin="round"></path><path d="M39.648 11.044 L60.352 11.044 L60.352 31.748 L39.648 31.748 Z" fill="#f7e5c6"></path><path d="M59.175,11.044H40.825a1.177,1.177,0,0,0-1.177,1.177V14.7a1.177,1.177,0,0,1,1.177-1.177h18.35A1.177,1.177,0,0,1,60.352,14.7V12.221A1.177,1.177,0,0,0,59.175,11.044Z" fill="#fff5e3"></path><path d="M39.648 11.044 L60.352 11.044 L60.352 31.748 L39.648 31.748 Z" fill="none" stroke="#45413c" stroke-linecap="round" stroke-linejoin="round"></path><path d="M42.084 16.829 A2.740 2.740 0 1 0 47.564 16.829 A2.740 2.740 0 1 0 42.084 16.829 Z" fill="#ffe500"></path><path d="M42.886,18.767a2.74,2.74,0,1,1,3.876-3.875Z" fill="#fff48c"></path><path d="M42.084 16.829 A2.740 2.740 0 1 0 47.564 16.829 A2.740 2.740 0 1 0 42.084 16.829 Z" fill="none" stroke="#45413c" stroke-linecap="round" stroke-linejoin="round"></path><path d="M52.436 16.829 A2.740 2.740 0 1 0 57.916 16.829 A2.740 2.740 0 1 0 52.436 16.829 Z" fill="#ffe500"></path><path d="M53.238,18.767a2.74,2.74,0,0,1,3.876-3.875Z" fill="#fff48c"></path><path d="M52.436 16.829 A2.740 2.740 0 1 0 57.916 16.829 A2.740 2.740 0 1 0 52.436 16.829 Z" fill="none" stroke="#45413c" stroke-linecap="round" stroke-linejoin="round"></path><path d="M51.218,21.4a1.218,1.218,0,0,0-2.436,0v1.218h2.436Z" fill="#87898c" stroke="#45413c" stroke-linecap="round" stroke-linejoin="round"></path><path d="M39.648 22.614L37.212 21.396 37.212 16.525 39.648 15.307 39.648 22.614z" fill="#ff6242" stroke="#45413c" stroke-linecap="round" stroke-linejoin="round"></path><path d="M37.212 16.525L37.212 8.609" fill="none" stroke="#45413c" stroke-linecap="round" stroke-linejoin="round"></path><path d="M35.385 6.782 A1.827 1.827 0 1 0 39.039 6.782 A1.827 1.827 0 1 0 35.385 6.782 Z" fill="#ff6242" stroke="#45413c" stroke-linecap="round" stroke-linejoin="round"></path><path d="M60.352 22.614L62.788 21.396 62.788 16.525 60.352 15.307 60.352 22.614z" fill="#ff6242" stroke="#45413c" stroke-linecap="round" stroke-linejoin="round"></path><path d="M62.788 16.525L62.788 8.609" fill="none" stroke="#45413c" stroke-linecap="round" stroke-linejoin="round"></path><path d="M60.961 6.782 A1.827 1.827 0 1 0 64.615 6.782 A1.827 1.827 0 1 0 60.961 6.782 Z" fill="#ff6242" stroke="#45413c" stroke-linecap="round" stroke-linejoin="round"></path><path d="M54.872,11.044H45.128l.663-1.988A2.435,2.435,0,0,1,48.1,7.391h3.8a2.435,2.435,0,0,1,2.311,1.665Z" fill="#ff6242"></path><path d="M47.26,9.217h5.48a2.432,2.432,0,0,1,1.78.774l-.311-.935A2.435,2.435,0,0,0,51.9,7.391H48.1a2.436,2.436,0,0,0-2.311,1.665l-.311.935A2.432,2.432,0,0,1,47.26,9.217Z" fill="#ff866e"></path><path d="M54.872,11.044H45.128l.663-1.988A2.435,2.435,0,0,1,48.1,7.391h3.8a2.435,2.435,0,0,1,2.311,1.665Z" fill="none" stroke="#45413c" stroke-linecap="round" stroke-linejoin="round"></path><path d="M44.519 25.050 L55.480 25.050 L55.480 28.704 L44.519 28.704 Z" fill="#ffffff"></path><path d="M55.447,27.808a1.219,1.219,0,0,0-1.184-.931H45.737a1.219,1.219,0,0,0-1.184.931,1.182,1.182,0,0,1-.034-.281v-1.3A1.177,1.177,0,0,1,45.7,25.05H54.3a1.177,1.177,0,0,1,1.177,1.177v1.3A1.182,1.182,0,0,1,55.447,27.808Z" fill="#e0e0e0"></path><path d="M44.519 25.050 L55.480 25.050 L55.480 28.704 L44.519 28.704 Z" fill="none" stroke="#45413c" stroke-linecap="round" stroke-linejoin="round"></path><path d="M55.481 64.632H62.788000000000004V82.9H55.481z" fill="#f7e5c6"></path><path d="M55.481 76.811H62.788000000000004V78.638H55.481z" fill="#f0d5a8"></path><path d="M55.481,70.035a10.072,10.072,0,0,0,7.307,0v-5.4H55.481Z" fill="#f0d5a8"></path><path d="M55.481 64.632H62.788000000000004V82.9H55.481z" fill="none" stroke="#45413c" stroke-linecap="round" stroke-linejoin="round"></path><path d="M65.224,86.049A1.722,1.722,0,0,1,63.5,87.772H54.767a1.723,1.723,0,0,1-1.218-2.94L55.48,82.9h7.308l1.931,1.932A1.722,1.722,0,0,1,65.224,86.049Z" fill="#87898c"></path><path d="M63.5,85.945H54.767a1.722,1.722,0,0,1-1.46-.809,1.723,1.723,0,0,0,1.46,2.636H63.5a1.721,1.721,0,0,0,1.46-2.636A1.719,1.719,0,0,1,63.5,85.945Z" fill="#656769"></path><path d="M65.224,86.049A1.722,1.722,0,0,1,63.5,87.772H54.767a1.723,1.723,0,0,1-1.218-2.94L55.48,82.9h7.308l1.931,1.932A1.722,1.722,0,0,1,65.224,86.049Z" fill="none" stroke="#45413c" stroke-linecap="round" stroke-linejoin="round"></path><path d="M64.615,64.632c0,2.018-2.454,3.653-5.481,3.653s-5.48-1.635-5.48-3.653Z" fill="#ff6242"></path><path d="M59.134,66.459a12.54,12.54,0,0,1-5.316-.936c.6,1.587,2.751,2.762,5.316,2.762s4.719-1.175,5.316-2.762A12.536,12.536,0,0,1,59.134,66.459Z" fill="#e04122"></path><path d="M64.615,64.632c0,2.018-2.454,3.653-5.481,3.653s-5.48-1.635-5.48-3.653Z" fill="none" stroke="#45413c" stroke-linecap="round" stroke-linejoin="round"></path><path d="M54.263 73.157 L64.006 73.157 L64.006 76.811 L54.263 76.811 Z" fill="#87898c"></path><path d="M63.972,75.915a1.219,1.219,0,0,0-1.184-.931H55.481a1.22,1.22,0,0,0-1.185.931,1.181,1.181,0,0,1-.033-.281v-1.3a1.176,1.176,0,0,1,1.176-1.177h7.39a1.177,1.177,0,0,1,1.177,1.177v1.3A1.182,1.182,0,0,1,63.972,75.915Z" fill="#bdbec0"></path><path d="M54.263 73.157 L64.006 73.157 L64.006 76.811 L54.263 76.811 Z" fill="none" stroke="#45413c" stroke-linecap="round" stroke-linejoin="round"></path><path d="M37.212 64.632H44.519000000000005V82.9H37.212z" fill="#f7e5c6"></path><path d="M37.212 76.811H44.519000000000005V78.638H37.212z" fill="#f0d5a8"></path><path d="M37.212,70.035a10.072,10.072,0,0,0,7.307,0v-5.4H37.212Z" fill="#f0d5a8"></path><path d="M37.212 64.632H44.519000000000005V82.9H37.212z" fill="none" stroke="#45413c" stroke-linecap="round" stroke-linejoin="round"></path><path d="M46.955,86.049a1.722,1.722,0,0,1-1.722,1.723H36.5a1.722,1.722,0,0,1-1.218-2.94L37.212,82.9h7.307l1.932,1.932A1.721,1.721,0,0,1,46.955,86.049Z" fill="#87898c"></path><path d="M45.233,85.945H36.5a1.719,1.719,0,0,1-1.46-.809,1.721,1.721,0,0,0,1.46,2.636h8.734a1.723,1.723,0,0,0,1.46-2.636A1.722,1.722,0,0,1,45.233,85.945Z" fill="#656769"></path><path d="M46.955,86.049a1.722,1.722,0,0,1-1.722,1.723H36.5a1.722,1.722,0,0,1-1.218-2.94L37.212,82.9h7.307l1.932,1.932A1.721,1.721,0,0,1,46.955,86.049Z" fill="none" stroke="#45413c" stroke-linecap="round" stroke-linejoin="round"></path><path d="M46.346,64.632c0,2.018-2.453,3.653-5.48,3.653s-5.481-1.635-5.481-3.653Z" fill="#ff6242"></path><path d="M40.866,66.459a12.536,12.536,0,0,1-5.316-.936c.6,1.587,2.75,2.762,5.316,2.762s4.719-1.175,5.316-2.762A12.54,12.54,0,0,1,40.866,66.459Z" fill="#e04122"></path><path d="M46.346,64.632c0,2.018-2.453,3.653-5.48,3.653s-5.481-1.635-5.481-3.653Z" fill="none" stroke="#45413c" stroke-linecap="round" stroke-linejoin="round"></path><path d="M35.994 73.157 L45.737 73.157 L45.737 76.811 L35.994 76.811 Z" fill="#87898c"></path><path d="M45.7,75.915a1.22,1.22,0,0,0-1.185-.931H37.212a1.219,1.219,0,0,0-1.184.931,1.182,1.182,0,0,1-.034-.281v-1.3a1.177,1.177,0,0,1,1.177-1.177h7.39a1.176,1.176,0,0,1,1.176,1.177v1.3A1.181,1.181,0,0,1,45.7,75.915Z" fill="#bdbec0"></path><path d="M35.994 73.157 L45.737 73.157 L45.737 76.811 L35.994 76.811 Z" fill="none" stroke="#45413c" stroke-linecap="round" stroke-linejoin="round"></path></g></svg>