<svg xmlns="http://www.w3.org/2000/svg" version="1.1" xmlns:xlink="http://www.w3.org/1999/xlink" xmlns:svgjs="http://svgjs.com/svgjs" viewBox="0 0 300 300" width="300" height="300"><g transform="matrix(3,0,0,3,0,0)"><path d="M42.867,37.046a1.3,1.3,0,0,1-1.38-1.75l6.2-16.351a1.3,1.3,0,0,1,2.274-.291l10.124,14.26a1.3,1.3,0,0,1-.9,2.041Z" fill="none" stroke="#c3c3c3" stroke-linecap="round" stroke-linejoin="round"></path><path d="M49.634,25.556l0,0,0,.012,0-.014h0m0-1a1.113,1.113,0,0,0-.128.008,1.014,1.014,0,0,0-.86,1.215c.007.031-.072-.172,1.07,2.722a.3.3,0,0,0,.28.19l.038,0a.3.3,0,0,0,.261-.262c.376-3.091.351-2.872.349-2.9a1,1,0,0,0-.348-.72,1.012,1.012,0,0,0-.662-.247Z" fill="#c3c3c3"></path><path d="M50.588,31.53a.931.931,0,0,0-.129.008,1,1,0,0,0,.126,1.993.929.929,0,0,0,.128-.009,1,1,0,0,0-.125-1.992Z" fill="#c3c3c3"></path><path d="M18.227,58.988a3.51,3.51,0,0,1-5.071-2,.639.639,0,0,0-.7-.439l-1.909.291a.639.639,0,0,0-.521.794,6.712,6.712,0,0,0,7.492,4.924,6.8,6.8,0,0,0,1.189-.293" fill="none" stroke="#c3c3c3" stroke-linecap="round" stroke-linejoin="round"></path><path d="M23.181,56.526A6.708,6.708,0,0,0,16.2,49.233a.639.639,0,0,0-.6.734l.291,1.909a.637.637,0,0,0,.628.542,3.51,3.51,0,0,1,3.374,4.441" fill="none" stroke="#c3c3c3" stroke-linecap="round" stroke-linejoin="round"></path><path d="M18.053 60.129 A3.830 3.830 0 1 0 25.713 60.129 A3.830 3.830 0 1 0 18.053 60.129 Z" fill="none" stroke="#c3c3c3" stroke-linecap="round" stroke-linejoin="round"></path><path d="M81.665,60.854A3.512,3.512,0,0,0,86.9,59.327a.638.638,0,0,1,.742-.372l1.874.466a.64.64,0,0,1,.446.838,6.71,6.71,0,0,1-9.071,3.811" fill="none" stroke="#c3c3c3" stroke-linecap="round" stroke-linejoin="round"></path><path d="M76.96,57.945a6.7,6.7,0,0,1,7.625-6.617.639.639,0,0,1,.532.786l-.465,1.874a.639.639,0,0,1-.676.482,3.512,3.512,0,0,0-3.77,4.111" fill="none" stroke="#c3c3c3" stroke-linecap="round" stroke-linejoin="round"></path><path d="M74.089 61.653 A3.830 3.830 0 1 0 81.749 61.653 A3.830 3.830 0 1 0 74.089 61.653 Z" fill="none" stroke="#c3c3c3" stroke-linecap="round" stroke-linejoin="round"></path><path d="M62.602 68.179 A3.830 3.830 0 1 0 70.262 68.179 A3.830 3.830 0 1 0 62.602 68.179 Z" fill="none" stroke="#c3c3c3" stroke-linecap="round" stroke-linejoin="round"></path><path d="M53.371 41.066L53.371 46.245 48.264 46.245 48.264 41.675" fill="none" stroke="#c3c3c3" stroke-linecap="round" stroke-linejoin="round"></path><path d="M40.604 46.245 L61.030 46.245 L61.030 65.395 L40.604 65.395 Z" fill="none" stroke="#c3c3c3" stroke-linecap="round" stroke-linejoin="round"></path><path d="M46.988 65.395H54.647999999999996V73.05499999999999H46.988z" fill="none" stroke="#c3c3c3" stroke-linecap="round" stroke-linejoin="round"></path><path d="M46.988 88.629L46.988 82.525" fill="none" stroke="#c3c3c3" stroke-linecap="round" stroke-linejoin="round"></path><path d="M54.648 82.526L54.648 88.629" fill="none" stroke="#c3c3c3" stroke-linecap="round" stroke-linejoin="round"></path><path d="M55.924,55.182a2.553,2.553,0,0,1-2.553,2.553H48.264a2.553,2.553,0,0,1-2.553-2.553V46.245H55.924Z" fill="none" stroke="#c3c3c3" stroke-linecap="round" stroke-linejoin="round"></path><path d="M58.042,73.055a2.553,2.553,0,0,1,2.407,3.4,10.217,10.217,0,0,1-19.263,0,2.552,2.552,0,0,1,2.408-3.4Z" fill="none" stroke="#c3c3c3" stroke-linecap="round" stroke-linejoin="round"></path><path d="M61.332,53.153A2.128,2.128,0,0,0,62.567,55.9l2.785,1.057a3.831,3.831,0,0,0,4.94-2.223l.452-1.194A3.829,3.829,0,0,0,68.522,48.6l-2.388-.906a2.554,2.554,0,0,0-3.293,1.482Z" fill="none" stroke="#c3c3c3" stroke-linecap="round" stroke-linejoin="round"></path><path d="M39.722,53.171a2.127,2.127,0,0,1-2.58,1.548L34.252,54a3.831,3.831,0,0,1-2.787-4.645l.31-1.238a3.83,3.83,0,0,1,4.644-2.787l2.477.619a2.554,2.554,0,0,1,1.858,3.1Z" fill="none" stroke="#c3c3c3" stroke-linecap="round" stroke-linejoin="round"></path><path d="M28.697 67.132 A3.830 3.830 0 1 0 36.357 67.132 A3.830 3.830 0 1 0 28.697 67.132 Z" fill="none" stroke="#c3c3c3" stroke-linecap="round" stroke-linejoin="round"></path><path d="M31.936 12.981 L68.064 12.981 L68.064 41.367 L31.936 41.367 Z" fill="none" stroke="#c3c3c3" stroke-linecap="round" stroke-linejoin="round" transform="translate(-2.868 6.116) rotate(-6.805)"></path><path d="M28.896 68.352L22.531 63.905" fill="none" stroke="#c3c3c3" stroke-linecap="round" stroke-linejoin="round"></path><path d="M25.712 59.991L30.946 63.649" fill="none" stroke="#c3c3c3" stroke-linecap="round" stroke-linejoin="round"></path><path d="M74.12 61.162L68.532 64.343" fill="none" stroke="#c3c3c3" stroke-linecap="round" stroke-linejoin="round"></path><path d="M70.116 69.229L76.926 65.353" fill="none" stroke="#c3c3c3" stroke-linecap="round" stroke-linejoin="round"></path><path d="M63.452 56.233L63.42 65.813" fill="none" stroke="#c3c3c3" stroke-linecap="round" stroke-linejoin="round"></path><path d="M68.529 64.975L68.557 56.728" fill="none" stroke="#c3c3c3" stroke-linecap="round" stroke-linejoin="round"></path><path d="M37.87 54.773L35.844 65.215" fill="none" stroke="#c3c3c3" stroke-linecap="round" stroke-linejoin="round"></path><path d="M30.946 63.649L32.937 53.387" fill="none" stroke="#c3c3c3" stroke-linecap="round" stroke-linejoin="round"></path></g></svg>