<svg xmlns="http://www.w3.org/2000/svg" version="1.1" xmlns:xlink="http://www.w3.org/1999/xlink" xmlns:svgjs="http://svgjs.com/svgjs" viewBox="0 0 200 200" width="200" height="200"><g transform="matrix(2,0,0,2,0,0)"><path d="M10.000 50.000 A40.000 40.000 0 1 0 90.000 50.000 A40.000 40.000 0 1 0 10.000 50.000 Z" fill="#e8f4fa" stroke="#daedf7" stroke-miterlimit="10"></path><path d="M29.871 77.955 A20.102 1.775 0 1 0 70.075 77.955 A20.102 1.775 0 1 0 29.871 77.955 Z" fill="#45413c" opacity=".15"></path><path d="M74.034,71.43A3.592,3.592,0,1,1,68.967,76.5l-7.61-8.781a2.762,2.762,0,0,1,3.9-3.9Z" fill="#ff6242"></path><path d="M61.337,64.122a2.763,2.763,0,0,0,.02,3.594l7.61,8.781A3.592,3.592,0,0,0,74.8,72.355a3.289,3.289,0,0,1-.577.756,3.625,3.625,0,0,1-2.662,1.054,3.559,3.559,0,0,1-2.585-1.247Z" fill="#e04122"></path><path d="M74.034,71.43A3.592,3.592,0,1,1,68.967,76.5l-7.61-8.781a2.762,2.762,0,0,1,3.9-3.9Z" fill="none" stroke="#45413c" stroke-linecap="round" stroke-linejoin="round"></path><path d="M70.582,56.246V45.959a5.142,5.142,0,0,0-5.143-5.144H34.577a5.142,5.142,0,0,0-5.143,5.144V56.246Z" fill="#00b8f0"></path><path d="M70.582,56.246V45.959a5.142,5.142,0,0,0-5.143-5.144H34.577a5.142,5.142,0,0,0-5.143,5.144V56.246Z" fill="none" stroke="#45413c" stroke-linecap="round" stroke-linejoin="round"></path><path d="M35.22,60.441H64.8V50.154A3.857,3.857,0,0,0,60.938,46.3H39.078a3.857,3.857,0,0,0-3.858,3.857Z" fill="#009fd9"></path><path d="M29.434,56.246h0c0,11.367,9.207,16.716,20.574,16.716s20.574-5.349,20.574-16.716H29.434Z" fill="#ffffff"></path><path d="M69.876,56.246h.706c0,11.367-9.207,16.716-20.574,16.716S29.434,67.613,29.434,56.246h.721v0c2.353,7.87,10.351,11.612,19.854,11.612s17.5-3.742,19.867-11.612" fill="#daedf7"></path><path d="M29.434,56.246h0c0,11.367,9.207,16.716,20.574,16.716s20.574-5.349,20.574-16.716H29.434Z" fill="none" stroke="#45413c" stroke-linecap="round" stroke-linejoin="round"></path><path d="M63.513 49.816 A1.929 3.858 0 1 0 67.371 49.816 A1.929 3.858 0 1 0 63.513 49.816 Z" fill="#ffffff" stroke="#00658a" stroke-linecap="round" stroke-linejoin="round"></path><path d="M50.654 49.816 A2.572 3.858 0 1 0 55.798 49.816 A2.572 3.858 0 1 0 50.654 49.816 Z" fill="#ffffff" stroke="#00658a" stroke-linecap="round" stroke-linejoin="round"></path><path d="M34.577,27.317a7.085,7.085,0,0,0,7.073,7.072h5.143a1.286,1.286,0,0,1,1.286,1.286v5.144h3.858V35.675a1.286,1.286,0,0,1,1.286-1.286h5.143a7.073,7.073,0,1,0,0-14.145,6.5,6.5,0,0,0-6.082,4.205l-1.072,2.864a1.286,1.286,0,0,1-2.408,0l-1.072-2.864a6.486,6.486,0,0,0-6.082-4.205A7.078,7.078,0,0,0,34.577,27.317Zm21.217.283a2.682,2.682,0,1,1,2.688,2.674A2.7,2.7,0,0,1,55.794,27.6Zm-16.922,0a2.675,2.675,0,1,1,2.675,2.674A2.684,2.684,0,0,1,38.872,27.6Z" fill="#adc4d9"></path><path d="M41.65,22.579a6.486,6.486,0,0,1,6.082,4.2,2.43,2.43,0,0,0,4.552,0,6.5,6.5,0,0,1,6.082-4.2,7.063,7.063,0,0,1,6.968,5.9,7.028,7.028,0,0,0-6.968-8.239,6.5,6.5,0,0,0-6.082,4.205l-1.072,2.864a1.286,1.286,0,0,1-2.408,0l-1.072-2.864a6.486,6.486,0,0,0-6.082-4.205,7.028,7.028,0,0,0-6.968,8.239A7.073,7.073,0,0,1,41.65,22.579Z" fill="#daedf7"></path><path d="M34.577,27.317a7.085,7.085,0,0,0,7.073,7.072h5.143a1.286,1.286,0,0,1,1.286,1.286v5.144h3.858V35.675a1.286,1.286,0,0,1,1.286-1.286h5.143a7.073,7.073,0,1,0,0-14.145,6.5,6.5,0,0,0-6.082,4.205l-1.072,2.864a1.286,1.286,0,0,1-2.408,0l-1.072-2.864a6.486,6.486,0,0,0-6.082-4.205A7.078,7.078,0,0,0,34.577,27.317Zm21.217.283a2.682,2.682,0,1,1,2.688,2.674A2.7,2.7,0,0,1,55.794,27.6Zm-16.922,0a2.675,2.675,0,1,1,2.675,2.674A2.684,2.684,0,0,1,38.872,27.6Z" fill="none" stroke="#45413c" stroke-linecap="round" stroke-linejoin="round"></path><path d="M45.766,77.168a3.592,3.592,0,1,0,7.166,0L52.1,65.578a2.762,2.762,0,0,0-5.51,0Z" fill="#6dd627"></path><path d="M45.978,74.2l-.212,2.968a3.592,3.592,0,1,0,7.166,0L52.719,74.2a3.459,3.459,0,0,1-.746,1.222,3.58,3.58,0,0,1-5.247,0,3.442,3.442,0,0,1-.745-1.222" fill="#46b000"></path><path d="M45.766,77.168a3.592,3.592,0,1,0,7.166,0L52.1,65.578a2.762,2.762,0,0,0-5.51,0Z" fill="none" stroke="#45413c" stroke-linecap="round" stroke-linejoin="round"></path><path d="M25.913,71.3a3.592,3.592,0,1,0,5.067,5.067l7.609-8.78a2.762,2.762,0,0,0-3.9-3.9Z" fill="#ffe500"></path><path d="M38.61,63.99a2.762,2.762,0,0,1-.021,3.594l-7.609,8.78a3.592,3.592,0,0,1-5.829-4.141,3.289,3.289,0,0,0,.577.756,3.623,3.623,0,0,0,2.662,1.054,3.56,3.56,0,0,0,2.584-1.247Z" fill="#ebcb00"></path><path d="M25.913,71.3a3.592,3.592,0,1,0,5.067,5.067l7.609-8.78a2.762,2.762,0,0,0-3.9-3.9Z" fill="none" stroke="#45413c" stroke-linecap="round" stroke-linejoin="round"></path></g></svg>