<svg xmlns="http://www.w3.org/2000/svg" version="1.1" xmlns:xlink="http://www.w3.org/1999/xlink" xmlns:svgjs="http://svgjs.com/svgjs" viewBox="0 0 200 200" width="200" height="200"><g transform="matrix(2,0,0,2,0,0)"><path d="M9.694 50.000 A40.000 40.000 0 1 0 89.694 50.000 A40.000 40.000 0 1 0 9.694 50.000 Z" fill="#e8f4fa" stroke="#daedf7" stroke-miterlimit="10"></path><path d="M61.843,64.675a1.831,1.831,0,0,1-1.029.218A16.568,16.568,0,0,1,45.586,48.006a1.841,1.841,0,0,1,3.68.088A12.885,12.885,0,0,0,61.113,61.225a1.84,1.84,0,0,1,.73,3.45Z" fill="#daedf7" stroke="#45413c" stroke-linecap="round" stroke-linejoin="round"></path><path d="M38.157,64.675a1.831,1.831,0,0,0,1.029.218A16.568,16.568,0,0,0,54.414,48.006a1.841,1.841,0,1,0-3.68.088A12.885,12.885,0,0,1,38.887,61.225a1.84,1.84,0,0,0-.73,3.45Z" fill="#daedf7" stroke="#45413c" stroke-linecap="round" stroke-linejoin="round"></path><path d="M50.569,59a2.759,2.759,0,0,0-2.782-2.41" fill="#daedf7" stroke="#45413c" stroke-linecap="round" stroke-linejoin="round"></path><path d="M53.286,54.4A2.761,2.761,0,0,0,49.9,52.959" fill="#daedf7" stroke="#45413c" stroke-linecap="round" stroke-linejoin="round"></path><path d="M34.637 18.749 L65.807 18.749 L65.807 49.919 L34.637 49.919 Z" fill="#debb7e" transform="translate(-5.072 8.965) rotate(-9.713)"></path><path d="M54.859 38.465 L63.765 38.465 L63.765 44.031 L54.859 44.031 Z" fill="#f7e5c6" transform="translate(-6.109 10.598) rotate(-9.713)"></path><path d="M64.269,24.023l-.751-4.389a3.339,3.339,0,0,0-3.855-2.728l-24.14,4.132A3.339,3.339,0,0,0,32.8,24.893l.751,4.389a3.334,3.334,0,0,1,2.728-3.855L60.414,21.3A3.335,3.335,0,0,1,64.269,24.023Z" fill="#f0d5a8"></path><path d="M52.387,27.186a2.227,2.227,0,0,1-1.819,2.571l-2.194.375a2.226,2.226,0,0,1-2.57-1.819l-1.5-8.778,6.584-1.127Z" fill="#ffffff" stroke="#45413c" stroke-linecap="round" stroke-linejoin="round"></path><path d="M34.637 18.749 L65.807 18.749 L65.807 49.919 L34.637 49.919 Z" fill="none" stroke="#45413c" stroke-linecap="round" stroke-linejoin="round" transform="translate(-5.072 8.965) rotate(-9.713)"></path><path d="M8.455 72.819 A20.735 2.181 0 1 0 49.925 72.819 A20.735 2.181 0 1 0 8.455 72.819 Z" fill="#45413c" opacity=".15"></path><path d="M44.264,55.339a2.756,2.756,0,0,1,2.76,2.76v11.96H11.144V58.1a2.757,2.757,0,0,1,2.76-2.76Z" fill="#ffaa54"></path><path d="M11.144 58.099H33.224V70.059H11.144z" fill="#ff8a14"></path><path d="M30.464,55.339a2.756,2.756,0,0,1,2.76,2.76H11.144a2.757,2.757,0,0,1,2.76-2.76Z" fill="#ffaa54"></path><path d="M44.264,55.339a2.756,2.756,0,0,1,2.76,2.76v2.76a2.756,2.756,0,0,0-2.76-2.76H33.224a2.756,2.756,0,0,0-2.76-2.76Z" fill="#ffcc99"></path><path d="M44.264,55.339a2.756,2.756,0,0,1,2.76,2.76v11.96H11.144V58.1a2.757,2.757,0,0,1,2.76-2.76Z" fill="none" stroke="#45413c" stroke-linecap="round" stroke-linejoin="round"></path><path d="M11.144,58.1h14.72a2.764,2.764,0,0,0,1.952-.808l1.952-1.952" fill="none" stroke="#45413c" stroke-linecap="round" stroke-linejoin="round"></path><path d="M47.024,70.059V71.9a.923.923,0,0,1-.92.92H12.064a.923.923,0,0,1-.92-.92v-1.84Z" fill="#656769"></path><path d="M33.224,70.059v2.76H12.064a.923.923,0,0,1-.92-.92v-1.84Z" fill="#525252"></path><path d="M47.024,70.059V71.9a.923.923,0,0,1-.92.92H12.064a.923.923,0,0,1-.92-.92v-1.84Z" fill="none" stroke="#45413c" stroke-linecap="round" stroke-linejoin="round"></path><path d="M35.984 60.859 L44.264 60.859 L44.264 66.379 L35.984 66.379 Z" fill="#525252" stroke="#45413c" stroke-linecap="round" stroke-linejoin="round"></path><path d="M38.705,64.1a.92.92,0,0,1-1.3-1.3Z" fill="#6dd627" stroke="#6dd627" stroke-linecap="round" stroke-linejoin="round"></path><path d="M42.845,62.8a.92.92,0,1,1-1.3,1.3Z" fill="#6dd627" stroke="#6dd627" stroke-linecap="round" stroke-linejoin="round"></path><path d="M30.464,55.339a2.756,2.756,0,0,1,2.76,2.76v14.72" fill="none" stroke="#45413c" stroke-linecap="round" stroke-linejoin="round"></path><path d="M50.075 72.819 A20.735 2.181 0 1 0 91.545 72.819 A20.735 2.181 0 1 0 50.075 72.819 Z" fill="#45413c" opacity=".15"></path><path d="M55.736,55.339a2.756,2.756,0,0,0-2.76,2.76v11.96h35.88V58.1a2.757,2.757,0,0,0-2.76-2.76Z" fill="#ffaa54"></path><path d="M66.776 58.099H88.856V70.059H66.776z" fill="#ff8a14"></path><path d="M69.536,55.339a2.756,2.756,0,0,0-2.76,2.76h22.08a2.757,2.757,0,0,0-2.76-2.76Z" fill="#ffaa54"></path><path d="M55.736,55.339a2.756,2.756,0,0,0-2.76,2.76v2.76a2.756,2.756,0,0,1,2.76-2.76h11.04a2.756,2.756,0,0,1,2.76-2.76Z" fill="#ffcc99"></path><path d="M55.736,55.339a2.756,2.756,0,0,0-2.76,2.76v11.96h35.88V58.1a2.757,2.757,0,0,0-2.76-2.76Z" fill="none" stroke="#45413c" stroke-linecap="round" stroke-linejoin="round"></path><path d="M88.856,58.1H74.136a2.764,2.764,0,0,1-1.952-.808l-1.952-1.952" fill="none" stroke="#45413c" stroke-linecap="round" stroke-linejoin="round"></path><path d="M52.976,70.059V71.9a.923.923,0,0,0,.92.92h34.04a.923.923,0,0,0,.92-.92v-1.84Z" fill="#656769"></path><path d="M66.776,70.059v2.76h21.16a.923.923,0,0,0,.92-.92v-1.84Z" fill="#525252"></path><path d="M52.976,70.059V71.9a.923.923,0,0,0,.92.92h34.04a.923.923,0,0,0,.92-.92v-1.84Z" fill="none" stroke="#45413c" stroke-linecap="round" stroke-linejoin="round"></path><path d="M55.736 60.859 L64.016 60.859 L64.016 66.379 L55.736 66.379 Z" fill="#525252" stroke="#45413c" stroke-linecap="round" stroke-linejoin="round"></path><path d="M61.3,64.1a.92.92,0,0,0,1.3-1.3Z" fill="#ff6242" stroke="#ff6242" stroke-linecap="round" stroke-linejoin="round"></path><path d="M57.155,62.8a.92.92,0,1,0,1.3,1.3Z" fill="#ff6242" stroke="#ff6242" stroke-linecap="round" stroke-linejoin="round"></path><path d="M69.536,55.339a2.756,2.756,0,0,0-2.76,2.76v14.72" fill="none" stroke="#45413c" stroke-linecap="round" stroke-linejoin="round"></path><path d="M79.384,63.36a1.831,1.831,0,0,0,.579-.878A16.566,16.566,0,0,0,69.8,42.14,1.84,1.84,0,1,0,68.54,45.6a12.888,12.888,0,0,1,7.9,15.824,1.84,1.84,0,0,0,2.945,1.939Z" fill="#daedf7" stroke="#45413c" stroke-linecap="round" stroke-linejoin="round"></path><path d="M75.626,45.794a2.761,2.761,0,0,0-2.246,2.958" fill="#daedf7" stroke="#45413c" stroke-linecap="round" stroke-linejoin="round"></path><path d="M78.766,49.98a2.763,2.763,0,0,0-3.263,1.7" fill="#daedf7" stroke="#45413c" stroke-linecap="round" stroke-linejoin="round"></path><path d="M76.722,55.066a2.761,2.761,0,0,0,3.447-1.431" fill="none" stroke="#45413c" stroke-linecap="round" stroke-linejoin="round"></path><path d="M76.911,59.126a2.762,2.762,0,0,0,3.407-.109,2.714,2.714,0,0,0,.323-.32" fill="none" stroke="#45413c" stroke-linecap="round" stroke-linejoin="round"></path><path d="M68.707,48.052a5.921,5.921,0,0,0-4.268-10.441,1.38,1.38,0,1,0,.216,2.751,3.161,3.161,0,1,1,.25,6.312,1.38,1.38,0,0,0,0,2.76A5.929,5.929,0,0,0,68.707,48.052Z" fill="#daedf7" stroke="#45413c" stroke-linecap="round" stroke-linejoin="round"></path><path d="M67.415 43.780 A1.840 1.840 0 1 0 71.095 43.780 A1.840 1.840 0 1 0 67.415 43.780 Z" fill="#f0f0f0" stroke="#45413c" stroke-linecap="round" stroke-linejoin="round"></path><path d="M20.536,63.181a1.825,1.825,0,0,1-.5-.927A16.568,16.568,0,0,1,31.982,42.905a1.84,1.84,0,0,1,.947,3.556,12.89,12.89,0,0,0-9.287,15.052,1.839,1.839,0,0,1-3.106,1.668Z" fill="#daedf7" stroke="#45413c" stroke-linecap="round" stroke-linejoin="round"></path><path d="M25.853,46.023a2.76,2.76,0,0,1,1.972,3.147" fill="#daedf7" stroke="#45413c" stroke-linecap="round" stroke-linejoin="round"></path><path d="M22.351,49.91a2.761,2.761,0,0,1,3.1,1.99" fill="#daedf7" stroke="#45413c" stroke-linecap="round" stroke-linejoin="round"></path><path d="M23.93,55.159a2.764,2.764,0,0,1-3.3-1.735" fill="none" stroke="#45413c" stroke-linecap="round" stroke-linejoin="round"></path><path d="M23.378,59.186A2.762,2.762,0,0,1,20,58.771a2.653,2.653,0,0,1-.293-.347" fill="none" stroke="#45413c" stroke-linecap="round" stroke-linejoin="round"></path><path d="M32.542,48.891a5.92,5.92,0,0,1,5.186-10.016,1.38,1.38,0,0,1-.461,2.721,3.161,3.161,0,1,0-.815,6.264,1.38,1.38,0,0,1-.247,2.749A5.926,5.926,0,0,1,32.542,48.891Z" fill="#daedf7" stroke="#45413c" stroke-linecap="round" stroke-linejoin="round"></path><path d="M30.539 44.588 A1.840 1.840 0 1 0 34.219 44.588 A1.840 1.840 0 1 0 30.539 44.588 Z" fill="#f0f0f0" stroke="#45413c" stroke-linecap="round" stroke-linejoin="round"></path></g></svg>