<svg xmlns="http://www.w3.org/2000/svg" version="1.1" xmlns:xlink="http://www.w3.org/1999/xlink" xmlns:svgjs="http://svgjs.com/svgjs" viewBox="0 0 200 200" width="200" height="200"><g transform="matrix(2,0,0,2,0,0)"><path d="M86.449,66.5a40,40,0,1,0-72.9,0Z" fill="#c7f0ff"></path><path d="M13.551,66.5a40.017,40.017,0,0,0,72.9,0Z" fill="#e8f4fa"></path><path d="M11 66.5L89 66.5" fill="none" stroke="#45413c" stroke-linecap="round" stroke-linejoin="round"></path><path d="M6.5 66.5L9 66.5" fill="none" stroke="#45413c" stroke-linecap="round" stroke-linejoin="round"></path><path d="M91 66.5L93.5 66.5" fill="none" stroke="#45413c" stroke-linecap="round" stroke-linejoin="round"></path><path d="M61.099 37.364H65.699V41.964H61.099z" fill="#daedf7"></path><path d="M61.099 37.364H65.699V39.663999999999994H61.099z" fill="#c0dceb"></path><path d="M61.099 37.364H65.699V41.964H61.099z" fill="none" stroke="#45413c" stroke-linecap="round" stroke-linejoin="round"></path><path d="M54.199 41.964 L72.599 41.964 L72.599 59.214 L54.199 59.214 Z" fill="#ffffff" stroke="#45413c" stroke-linecap="round" stroke-linejoin="round"></path><path d="M59.949 59.214H66.849V66.114H59.949z" fill="#daedf7"></path><path d="M59.955 59.214H66.855V62.664H59.955z" fill="#c0dceb"></path><path d="M59.949 59.214H66.849V66.114H59.949z" fill="none" stroke="#45413c" stroke-linecap="round" stroke-linejoin="round"></path><path d="M68,50.014a2.3,2.3,0,0,1-2.3,2.3H61.1a2.3,2.3,0,0,1-2.3-2.3v-8.05H68Z" fill="#00b8f0"></path><path d="M66.464 41.964L58.805 49.623 58.805 41.964 66.464 41.964z" fill="#4acfff"></path><path d="M68,50.014a2.3,2.3,0,0,1-2.3,2.3H61.1a2.3,2.3,0,0,1-2.3-2.3v-8.05H68Z" fill="none" stroke="#45413c" stroke-linecap="round" stroke-linejoin="round"></path><path d="M39.517 52.202H56.767V56.802H39.517z" fill="#ffffff" transform="translate(-21.332 75.984) rotate(-65.728)"></path><path d="M53.634,47.517l-4.043-1.823-2.918,6.469a3.44,3.44,0,0,0,2.355.929H51.3l2.334-5.175Z" fill="#e0e0e0"></path><path d="M39.517 52.202H56.767V56.802H39.517z" fill="none" stroke="#45413c" stroke-linecap="round" stroke-linejoin="round" transform="translate(-21.332 75.984) rotate(-65.728)"></path><path d="M76.356 45.877H80.95599999999999V63.127H76.356z" fill="#ffffff" transform="translate(-15.451 37.151) rotate(-24.272)"></path><path d="M73.164,47.517l4.043-1.823,2.917,6.469a3.436,3.436,0,0,1-2.354.929H75.5l-2.334-5.175Z" fill="#e0e0e0"></path><path d="M76.356 45.877H80.95599999999999V63.127H76.356z" fill="none" stroke="#45413c" stroke-linecap="round" stroke-linejoin="round" transform="translate(-15.451 37.151) rotate(-24.272)"></path><path d="M54.2,50.014H49.593a3.45,3.45,0,0,1-3.45-3.45v-1.15a3.449,3.449,0,0,1,3.45-3.45h2.3a2.309,2.309,0,0,1,2.306,2.3Z" fill="#ffffff" stroke="#45413c" stroke-linecap="round" stroke-linejoin="round"></path><path d="M47.184,66.114H42.619a3.114,3.114,0,0,1-.575-.656,3.451,3.451,0,1,1,5.14.656Z" fill="#ffffff" stroke="#45413c" stroke-linecap="round" stroke-linejoin="round"></path><path d="M72.6,50.014h4.606a3.45,3.45,0,0,0,3.45-3.45v-1.15a3.45,3.45,0,0,0-3.45-3.45h-2.3a2.309,2.309,0,0,0-2.306,2.3Z" fill="#ffffff" stroke="#45413c" stroke-linecap="round" stroke-linejoin="round"></path><path d="M78.621 63.333 A3.450 3.450 0 1 0 85.521 63.333 A3.450 3.450 0 1 0 78.621 63.333 Z" fill="#ffffff" stroke="#45413c" stroke-linecap="round" stroke-linejoin="round"></path><path d="M83.752,66.813A2.3,2.3,0,0,0,79.446,65.2L77,72.009l2.122.8A2.3,2.3,0,0,0,82.1,71.429Z" fill="#ffffff" stroke="#45413c" stroke-linecap="round" stroke-linejoin="round"></path><path d="M43.045,66.813A2.3,2.3,0,0,1,47.352,65.2L49.8,72.009l-2.121.8A2.3,2.3,0,0,1,44.7,71.429Z" fill="#ffffff" stroke="#45413c" stroke-linecap="round" stroke-linejoin="round"></path><path d="M44.999 84.705 A18.4 2.3 0 1 0 81.799 84.705 A18.4 2.3 0 1 0 44.999 84.705 Z" fill="#45413c" opacity=".15"></path><path d="M44.999 68.605 L82.374 68.605 L82.374 84.130 L44.999 84.130 Z" fill="#debb7e"></path><path d="M82.374,69.755a1.15,1.15,0,0,0-1.15-1.15H46.149A1.15,1.15,0,0,0,45,69.755v3.513a1.15,1.15,0,0,1,1.15-1.15H81.224a1.15,1.15,0,0,1,1.15,1.15Z" fill="#f0d5a8"></path><path d="M44.999 68.605 L82.374 68.605 L82.374 84.130 L44.999 84.130 Z" fill="none" stroke="#45413c" stroke-linecap="round" stroke-linejoin="round"></path><path d="M67.999 72.055 L79.499 72.055 L79.499 78.955 L67.999 78.955 Z" fill="#b8ecff" stroke="#45413c" stroke-linecap="round" stroke-linejoin="round"></path><path d="M70.874 74.355L77.199 74.355" fill="none" stroke="#45413c" stroke-linecap="round" stroke-linejoin="round"></path><path d="M70.874 76.655L74.899 76.655" fill="none" stroke="#45413c" stroke-linecap="round" stroke-linejoin="round"></path><path d="M54.199 72.055L53.049 71.48 51.899 72.055 50.749 71.48 49.599 72.055 48.449 71.48 47.299 72.055 47.874 73.205 47.299 74.355 47.874 75.505 47.299 76.655 47.874 77.805 47.299 78.955 48.449 79.53 49.599 78.955 50.749 79.53 51.899 78.955 53.049 79.53 54.199 78.956 53.328 77.806 54.199 76.656 53.328 75.506 54.199 74.356 53.328 73.206 54.199 72.056 54.199 72.055z" fill="#fffce5" stroke="#45413c" stroke-linecap="round" stroke-linejoin="round"></path><path d="M63.389,76.07a4.025,4.025,0,0,0-4.025-4.025H55.339a4.025,4.025,0,0,0,0,8.05h4.025A4.025,4.025,0,0,0,63.389,76.07Z" fill="none" stroke="#ff6242" stroke-linecap="round" stroke-linejoin="round"></path><path d="M55.349 74.355L59.374 74.355" fill="none" stroke="#ff6242" stroke-linecap="round" stroke-linejoin="round"></path><path d="M57.074 76.655L59.374 76.655" fill="none" stroke="#ff6242" stroke-linecap="round" stroke-linejoin="round"></path><path d="M82.374,69.611a3.454,3.454,0,0,0-.541-1.855l-3.573-5.6a1.153,1.153,0,0,0-.968-.531l-28.319-.046a1.148,1.148,0,0,0-1.046.669l-2.612,5.672A3.45,3.45,0,0,0,45,69.36v.389a1.15,1.15,0,0,1,1.15-1.144H81.224a1.15,1.15,0,0,1,1.15,1.15Z" fill="#f0d5a8" stroke="#45413c" stroke-linecap="round" stroke-linejoin="round"></path><path d="M80.141 65.104L46.611 65.104" fill="none" stroke="#45413c" stroke-miterlimit="10"></path><path d="M47.299 12.812 L79.499 12.812 L79.499 38.112 L47.299 38.112 Z" fill="#00b8f0"></path><path d="M50.749,38.111a3.445,3.445,0,0,1-3.45-3.45v-18.4a3.445,3.445,0,0,1,3.45-3.45h25.3c.138,0,.265.012.4.023Z" fill="#4acfff"></path><path d="M47.299 12.812 L79.499 12.812 L79.499 38.112 L47.299 38.112 Z" fill="none" stroke="#45413c" stroke-linecap="round" stroke-linejoin="round"></path><path d="M59.225,29.026a1.438,1.438,0,0,1-1.437-1.437c0-1.307-.612-2.013-.863-2.013s-.862.706-.862,2.013a1.438,1.438,0,0,1-2.875,0c0-2.741,1.641-4.888,3.737-4.888s3.738,2.147,3.738,4.888A1.439,1.439,0,0,1,59.225,29.026Z" fill="#ffffff" stroke="#009fd9" stroke-miterlimit="10"></path><path d="M73.025,29.026a1.438,1.438,0,0,1-1.437-1.437c0-1.307-.612-2.013-.863-2.013s-.862.706-.862,2.013a1.438,1.438,0,0,1-2.875,0c0-2.741,1.641-4.888,3.737-4.888s3.738,2.147,3.738,4.888A1.439,1.439,0,0,1,73.025,29.026Z" fill="#ffffff" stroke="#009fd9" stroke-miterlimit="10"></path><path d="M38.66,56.374H30.237V46.043a4.211,4.211,0,0,1,4.211-4.212h0a4.212,4.212,0,0,1,4.212,4.212Z" fill="#627b8c" stroke="#45413c" stroke-linecap="round" stroke-linejoin="round"></path><path d="M41.542,51.846,30.414,55.092,27.83,47.033l11.128-3.246a1.2,1.2,0,0,1,1.492.819l1.911,5.748A1.2,1.2,0,0,1,41.542,51.846Z" fill="#debb7e" stroke="#45413c" stroke-linecap="round" stroke-linejoin="round"></path><path d="M38.864,56.374H30.237v-7.22h8.627a1,1,0,0,1,1,1v5.22A1,1,0,0,1,38.864,56.374Z" fill="#fffef2" stroke="#45413c" stroke-linecap="round" stroke-linejoin="round"></path><path d="M39.7,49.611a1,1,0,0,0-.839-.457H30.237v.8l3.685,2.457a1,1,0,0,0,1.069.025Z" fill="#fffef2" stroke="#45413c" stroke-linecap="round" stroke-linejoin="round"></path><path d="M34.448,41.831H19.407a4.814,4.814,0,0,0-4.814,4.814v8.729a1,1,0,0,0,1,1H30.237V46.043A4.211,4.211,0,0,1,34.448,41.831Z" fill="#ff6242"></path><path d="M24.22 56.374H27.83V66.5H24.22z" fill="#adc4d9"></path><path d="M24.22 56.374H27.83V59.382000000000005H24.22z" fill="#8ca4b8"></path><path d="M24.22 56.374H27.83V66.5H24.22z" fill="none" stroke="#45413c" stroke-linecap="round" stroke-linejoin="round"></path><path d="M14.593,46.645v3.008a4.813,4.813,0,0,1,4.814-4.813h11a4.215,4.215,0,0,1,4.038-3.009H19.407A4.814,4.814,0,0,0,14.593,46.645Z" fill="#ff866e"></path><path d="M34.448,41.831H19.407a4.814,4.814,0,0,0-4.814,4.814v8.729a1,1,0,0,0,1,1H30.237V46.043A4.211,4.211,0,0,1,34.448,41.831Z" fill="none" stroke="#45413c" stroke-linecap="round" stroke-linejoin="round"></path><path d="M22.415,37.619v1.2a1.2,1.2,0,0,0,1.2,1.2h1.8v6.619a1.2,1.2,0,0,0,2.407,0V37.619a1.2,1.2,0,0,0-1.2-1.2H23.618A1.2,1.2,0,0,0,22.415,37.619Z" fill="#ffffff" stroke="#45413c" stroke-linecap="round" stroke-linejoin="round"></path></g></svg>