<svg xmlns="http://www.w3.org/2000/svg" version="1.1" xmlns:xlink="http://www.w3.org/1999/xlink" xmlns:svgjs="http://svgjs.com/svgjs" viewBox="0 0 200 200" width="200" height="200"><g transform="matrix(2,0,0,2,0,0)"><path d="M12.174 52.850 A40.000 40.000 0 1 0 92.174 52.850 A40.000 40.000 0 1 0 12.174 52.850 Z" fill="#e8f4fa" stroke="#daedf7" stroke-miterlimit="10"></path><path d="M29.879 81.529 A20.089 1.817 0 1 0 70.057 81.529 A20.089 1.817 0 1 0 29.879 81.529 Z" fill="#45413c" opacity=".15"></path><path d="M53.942,15.455a4.015,4.015,0,1,0-7.086,2.584,3.565,3.565,0,0,1,.841,2.3v.47h4.461v-.47a3.562,3.562,0,0,1,.84-2.3A3.992,3.992,0,0,0,53.942,15.455Z" fill="#ffe500"></path><path d="M49.927,13.224a4.017,4.017,0,0,1,3.916,3.123,4.016,4.016,0,1,0-7.831,0A4.017,4.017,0,0,1,49.927,13.224Z" fill="#fff48c"></path><path d="M53.942,15.455a4.015,4.015,0,1,0-7.086,2.584,3.565,3.565,0,0,1,.841,2.3v.47h4.461v-.47a3.562,3.562,0,0,1,.84-2.3A3.992,3.992,0,0,0,53.942,15.455Z" fill="none" stroke="#45413c" stroke-linecap="round" stroke-linejoin="round"></path><path d="M49.927 8.257L49.927 7.15" fill="none" stroke="#45413c" stroke-linecap="round" stroke-linejoin="round"></path><path d="M55.017 10.365L55.8 9.582" fill="none" stroke="#45413c" stroke-linecap="round" stroke-linejoin="round"></path><path d="M57.125 15.455L58.232 15.455" fill="none" stroke="#45413c" stroke-linecap="round" stroke-linejoin="round"></path><path d="M44.838 10.365L44.055 9.582" fill="none" stroke="#45413c" stroke-linecap="round" stroke-linejoin="round"></path><path d="M42.73 15.455L41.622 15.455" fill="none" stroke="#45413c" stroke-linecap="round" stroke-linejoin="round"></path><path d="M82.146,38.371a.566.566,0,0,0-.839-.072,5.944,5.944,0,1,0,9.156,1.276.566.566,0,0,0-.826-.16l-1.366,1.032a.565.565,0,0,0-.158.719,3.114,3.114,0,1,1-4.98-.694.565.565,0,0,0,.045-.735Z" fill="#656769"></path><path d="M82.146,38.371a.566.566,0,0,0-.839-.072,5.944,5.944,0,1,0,9.156,1.276.566.566,0,0,0-.826-.16l-1.366,1.032a.565.565,0,0,0-.158.719,3.114,3.114,0,1,1-4.98-.694.565.565,0,0,0,.045-.735Z" fill="none" stroke="#45413c" stroke-linecap="round" stroke-linejoin="round"></path><path d="M57.844,40.6c.032.06.065.118.1.175C61.4,46.19,71.49,54.905,85,49.171a2.4,2.4,0,0,0-1.876-4.42c-13.1,5.563-20.809-6.062-21.131-6.558A2.4,2.4,0,0,0,57.844,40.6Z" fill="#c0dceb" stroke="#45413c" stroke-linecap="round" stroke-linejoin="round"></path><path d="M80.283,50.643a4.541,4.541,0,0,0-1.3-4.64" fill="none" stroke="#45413c" stroke-linecap="round" stroke-linejoin="round"></path><path d="M71.982,50.6a4.535,4.535,0,0,0,1.9-4.516" fill="none" stroke="#45413c" stroke-linecap="round" stroke-linejoin="round"></path><path d="M65,47.679a4.537,4.537,0,0,0,2.882-3.863" fill="none" stroke="#45413c" stroke-linecap="round" stroke-linejoin="round"></path><path d="M63.062,54.591H36.793V39.015a4,4,0,0,1,4-4H59.062a4,4,0,0,1,4,4Z" fill="#ffffff" stroke="#45413c" stroke-linecap="round" stroke-linejoin="round"></path><path d="M34.366 77.487 A3.300 3.300 0 1 0 40.966 77.487 A3.300 3.300 0 1 0 34.366 77.487 Z" fill="#656769" stroke="#45413c" stroke-linecap="round" stroke-linejoin="round"></path><path d="M58.888 77.487 A3.300 3.300 0 1 0 65.488 77.487 A3.300 3.300 0 1 0 58.888 77.487 Z" fill="#656769" stroke="#45413c" stroke-linecap="round" stroke-linejoin="round"></path><path d="M67.023,55.749V77.487H32.832V55.749a5,5,0,0,1,5-5H62.023A5,5,0,0,1,67.023,55.749Z" fill="#ffffff" stroke="#45413c" stroke-linecap="round" stroke-linejoin="round"></path><path d="M68.807,75.663a1.825,1.825,0,0,0-1.825-1.825H32.872a1.825,1.825,0,0,0,0,3.649h34.11A1.825,1.825,0,0,0,68.807,75.663Z" fill="#87898c" stroke="#45413c" stroke-linecap="round" stroke-linejoin="round"></path><path d="M61.062,21.944a1.536,1.536,0,0,0-1.483-1.136h-19.3a1.538,1.538,0,0,0-1.484,1.136L35.78,33.077a1.537,1.537,0,0,0,1.484,1.938H62.591a1.537,1.537,0,0,0,1.483-1.938Z" fill="#ffffff" stroke="#45413c" stroke-linecap="round" stroke-linejoin="round"></path><path d="M58.963,35.015H45.842l.922-3.356a.8.8,0,0,1,.77-.587h9.737a.8.8,0,0,1,.769.587Z" fill="#daedf7" stroke="#45413c" stroke-linecap="round" stroke-linejoin="round"></path><path d="M52.402 31.072L52.402 35.015" fill="none" stroke="#45413c" stroke-linecap="round" stroke-linejoin="round"></path><path d="M55.424 31.072L55.974 35.015" fill="none" stroke="#45413c" stroke-linecap="round" stroke-linejoin="round"></path><path d="M49.38 31.072L48.83 35.015" fill="none" stroke="#45413c" stroke-linecap="round" stroke-linejoin="round"></path><path d="M43.642 25.598 A2.200 2.200 0 1 0 48.042 25.598 A2.200 2.200 0 1 0 43.642 25.598 Z" fill="#4acfff" stroke="#45413c" stroke-linecap="round" stroke-linejoin="round"></path><path d="M55.439 25.598 A2.200 2.200 0 1 0 59.839 25.598 A2.200 2.200 0 1 0 55.439 25.598 Z" fill="#4acfff" stroke="#45413c" stroke-linecap="round" stroke-linejoin="round"></path><path d="M39.736,47.288a5.053,5.053,0,1,0-2.7-9.327,4.4,4.4,0,0,0-.246,1.454v6.928A5.029,5.029,0,0,0,39.736,47.288Z" fill="#656769" stroke="#45413c" stroke-linecap="round" stroke-linejoin="round"></path><path d="M17.942,80.141a2.125,2.125,0,0,1-1.012-4.127c3.43-.842,3.423-5.459,3-12.962-.29-5.18-.589-10.536,1.2-14.685,4.179-9.678,14.2-9.575,18.917-8.173a2.124,2.124,0,0,1-1.206,4.074h0c-.41-.12-10.1-2.825-13.809,5.782-1.394,3.23-1.123,8.077-.861,12.765C24.584,70.118,25.046,78.4,17.942,80.141Z" fill="#bdbec0" stroke="#45413c" stroke-linecap="round" stroke-linejoin="round"></path><path d="M1.43,79.717a.628.628,0,0,0,.447,1.07H18.194a.627.627,0,0,0,.616-.753l-.8-3.946a1.257,1.257,0,0,0-1.231-1.006H8.113a5.023,5.023,0,0,0-3.572,1.491Z" fill="#656769" stroke="#45413c" stroke-linecap="round" stroke-linejoin="round"></path><path d="M49.642,42.716h8.994a2,2,0,0,1,2,2v6.033H47.642V44.716A2,2,0,0,1,49.642,42.716Z" fill="#e8f4fa" stroke="#45413c" stroke-linecap="round" stroke-linejoin="round"></path><path d="M49.442,59.308a2.61,2.61,0,0,0-.647,5.139,2.61,2.61,0,0,0,2.529,4.38,2.61,2.61,0,0,0,4.38,2.528,2.61,2.61,0,0,0,5.057,0,2.61,2.61,0,0,0,4.38-2.528,2.611,2.611,0,0,0,2.529-4.38,2.61,2.61,0,0,0-.647-5.139Z" fill="#ffccdd" stroke="#45413c" stroke-linecap="round" stroke-linejoin="round"></path><path d="M67.023,61.918a8.791,8.791,0,1,1-17.581,0V56.3H67.023Z" fill="#ff87af" stroke="#45413c" stroke-linecap="round" stroke-linejoin="round"></path><path d="M32.832 56.304H49.442V60.561H32.832z" fill="#ffb0ca" stroke="#45413c" stroke-linecap="round" stroke-linejoin="round"></path><path d="M98.526,38.262a.8.8,0,0,0-.572-1.353H74.3a.8.8,0,0,0-.573,1.353l.885.913a3.3,3.3,0,0,0,2.369,1H95.273a3.3,3.3,0,0,0,2.368-1Z" fill="#e8f4fa" stroke="#45413c" stroke-linecap="round" stroke-linejoin="round"></path><path d="M74.975,36.909a11.153,11.153,0,1,1,22.305,0Z" fill="#e8f4fa"></path><path d="M86.127,25.756A11.152,11.152,0,0,0,74.975,36.909H86.127Z" fill="#ffffff"></path><path d="M74.975,36.909a11.153,11.153,0,1,1,22.305,0Z" fill="none" stroke="#45413c" stroke-linecap="round" stroke-linejoin="round"></path><path d="M84.263 23.558 A2.198 2.198 0 1 0 88.659 23.558 A2.198 2.198 0 1 0 84.263 23.558 Z" fill="#ffffff" stroke="#45413c" stroke-linecap="round" stroke-linejoin="round"></path></g></svg>