<svg xmlns="http://www.w3.org/2000/svg" version="1.1" xmlns:xlink="http://www.w3.org/1999/xlink" xmlns:svgjs="http://svgjs.com/svgjs" viewBox="0 0 200 200" width="200" height="200"><g transform="matrix(2,0,0,2,0,0)"><path d="M13.551,66.5a40.017,40.017,0,0,0,72.9,0Z" fill="#ffffff"></path><path d="M86.449,66.5a40,40,0,1,0-72.9,0Z" fill="#e8f4fa" stroke="#daedf7" stroke-miterlimit="10"></path><path d="M11 66.5L89 66.5" fill="none" stroke="#45413c" stroke-linecap="round" stroke-linejoin="round"></path><path d="M6.5 66.5L9 66.5" fill="none" stroke="#45413c" stroke-linecap="round" stroke-linejoin="round"></path><path d="M91 66.5L93.5 66.5" fill="none" stroke="#45413c" stroke-linecap="round" stroke-linejoin="round"></path><path d="M33.421,79.171l7.306-9.559a1.148,1.148,0,0,0-.857-.384H26.562a2.294,2.294,0,0,0-1.3.405l-5.105,3.505-7.793,5.353a2.3,2.3,0,0,0-.647.68Z" fill="#9ceb60" stroke="#45413c" stroke-linecap="round" stroke-linejoin="round"></path><path d="M11.371,80.377V83.31a1.151,1.151,0,0,0,1.138,1.145H32.2a2.31,2.31,0,0,0,1.226-.361V79.171H11.715A2.3,2.3,0,0,0,11.371,80.377Z" fill="#6dd627" stroke="#45413c" stroke-linecap="round" stroke-linejoin="round"></path><path d="M21.474 72.232L16.11 75.918 35.865 75.973 38.724 72.232 21.474 72.232z" fill="#f0f0f0" stroke="#45413c" stroke-linecap="round" stroke-linejoin="round"></path><path d="M11.371 81.871L24.249 81.871" fill="#f0f0f0" stroke="#45413c" stroke-linecap="round" stroke-linejoin="round"></path><path d="M63.666 82.621L49.291 82.621 52.028 70.74 60.928 70.74 63.666 82.621z" fill="#4acfff"></path><path d="M70.283,77.105a1.151,1.151,0,0,1-.391,1.512l-6.226,4L60.928,70.74,64.5,68.794a1.15,1.15,0,0,1,1.563.466Z" fill="#4acfff"></path><path d="M69.038 74.788L62.744 78.622 61.684 74.022 66.977 70.955 69.038 74.788z" fill="#f0f0f0" stroke="#45413c" stroke-linecap="round" stroke-linejoin="round"></path><path d="M42.673,77.105a1.151,1.151,0,0,0,.391,1.512l6.227,4L52.028,70.74l-3.575-1.946a1.149,1.149,0,0,0-1.562.466Z" fill="#4acfff"></path><path d="M63.666 82.621L49.291 82.621 52.028 70.74 60.928 70.74 63.666 82.621z" fill="none" stroke="#45413c" stroke-linecap="round" stroke-linejoin="round"></path><path d="M70.283,77.105a1.151,1.151,0,0,1-.391,1.512l-6.226,4L60.928,70.74,64.5,68.794a1.15,1.15,0,0,1,1.563.466Z" fill="none" stroke="#45413c" stroke-linecap="round" stroke-linejoin="round"></path><path d="M42.673,77.105a1.151,1.151,0,0,0,.391,1.512l6.227,4L52.028,70.74l-3.575-1.946a1.149,1.149,0,0,0-1.562.466Z" fill="none" stroke="#45413c" stroke-linecap="round" stroke-linejoin="round"></path><path d="M62.744 78.622L50.212 78.622 51.272 74.022 61.684 74.022 62.744 78.622z" fill="#f0f0f0" stroke="#45413c" stroke-linecap="round" stroke-linejoin="round"></path><path d="M43.919 74.788L50.212 78.622 51.272 74.022 45.984 70.945 43.919 74.788z" fill="#f0f0f0" stroke="#45413c" stroke-linecap="round" stroke-linejoin="round"></path><path d="M7.770 40.777 A14.393 14.393 0 1 0 36.556 40.777 A14.393 14.393 0 1 0 7.770 40.777 Z" fill="#f0f0f0"></path><path d="M36.243,43.776a14.394,14.394,0,1,0-28.473-3,14.515,14.515,0,0,0,.312,3,14.4,14.4,0,0,1,28.161,0Z" fill="#ffffff"></path><path d="M7.770 40.777 A14.393 14.393 0 1 0 36.556 40.777 A14.393 14.393 0 1 0 7.770 40.777 Z" fill="none" stroke="#45413c" stroke-linecap="round" stroke-linejoin="round"></path><path d="M19.464 32.916 A2.699 2.699 0 1 0 24.862 32.916 A2.699 2.699 0 1 0 19.464 32.916 Z" fill="#4acfff" stroke="#00658a" stroke-linecap="round" stroke-linejoin="round"></path><path d="M24.5,48.173a2.339,2.339,0,1,1-4.677,0v-7.82a2.339,2.339,0,1,1,4.677,0Z" fill="#4acfff" stroke="#00658a" stroke-linecap="round" stroke-linejoin="round"></path><path d="M59.724 37.797H64.324V42.397H59.724z" fill="#daedf7"></path><path d="M59.724 37.797H64.324V40.384H59.724z" fill="#c0dceb"></path><path d="M59.724 37.797H64.324V42.397H59.724z" fill="none" stroke="#45413c" stroke-linecap="round" stroke-linejoin="round"></path><path d="M52.824 42.397 L71.224 42.397 L71.224 59.647 L52.824 59.647 Z" fill="#ffffff" stroke="#45413c" stroke-linecap="round" stroke-linejoin="round"></path><path d="M58.574 59.647H65.474V66.547H58.574z" fill="#daedf7"></path><path d="M58.579 59.647H65.479V63.097H58.579z" fill="#c0dceb"></path><path d="M58.574 59.647H65.474V66.547H58.574z" fill="none" stroke="#45413c" stroke-linecap="round" stroke-linejoin="round"></path><path d="M66.624,50.447a2.3,2.3,0,0,1-2.3,2.3h-4.6a2.3,2.3,0,0,1-2.3-2.3V42.4h9.2Z" fill="#00b8f0"></path><path d="M65.088 42.397L57.429 50.055 57.429 42.397 65.088 42.397z" fill="#4acfff"></path><path d="M66.624,50.447a2.3,2.3,0,0,1-2.3,2.3h-4.6a2.3,2.3,0,0,1-2.3-2.3V42.4h9.2Z" fill="none" stroke="#45413c" stroke-linecap="round" stroke-linejoin="round"></path><path d="M38.141 52.635H55.391V57.235H38.141z" fill="#ffffff" transform="translate(-22.536 74.985) rotate(-65.728)"></path><path d="M45.717,51.666a3.439,3.439,0,0,0,2.506,1.08h2.053l2.132-4.729-4.193-1.89Z" fill="#e0e0e0"></path><path d="M38.141 52.635H55.391V57.235H38.141z" fill="none" stroke="#45413c" stroke-linecap="round" stroke-linejoin="round" transform="translate(-22.536 74.985) rotate(-65.728)"></path><path d="M52.824,50.447h-4.6A3.45,3.45,0,0,1,44.774,47v-1.15a3.449,3.449,0,0,1,3.45-3.45h2.3a2.3,2.3,0,0,1,2.3,2.3Z" fill="#ffffff" stroke="#45413c" stroke-linecap="round" stroke-linejoin="round"></path><path d="M45.809,66.547H41.243a3.2,3.2,0,0,1-.575-.656,3.451,3.451,0,1,1,5.141.656Z" fill="#f0f0f0" stroke="#45413c" stroke-linecap="round" stroke-linejoin="round"></path><path d="M74.75 46.387H79.35V63.637H74.75z" fill="#ffffff" transform="translate(-15.287 34.111) rotate(-22.772)"></path><path d="M75.833,46.169l-4.242,1.78,2.014,4.8h2.218A3.437,3.437,0,0,0,78.2,51.8Z" fill="#e0e0e0"></path><path d="M74.75 46.387H79.35V63.637H74.75z" fill="none" stroke="#45413c" stroke-linecap="round" stroke-linejoin="round" transform="translate(-15.287 34.111) rotate(-22.772)"></path><path d="M71.224,50.447h4.6A3.45,3.45,0,0,0,79.274,47v-1.15a3.45,3.45,0,0,0-3.45-3.45h-2.3a2.3,2.3,0,0,0-2.3,2.3Z" fill="#ffffff" stroke="#45413c" stroke-linecap="round" stroke-linejoin="round"></path><path d="M77.245 63.766 A3.450 3.450 0 1 0 84.145 63.766 A3.450 3.450 0 1 0 77.245 63.766 Z" fill="#f0f0f0" stroke="#45413c" stroke-linecap="round" stroke-linejoin="round"></path><path d="M82.377,67.246A2.3,2.3,0,1,0,78.07,65.63l-2.444,6.812,4.307,1.616Z" fill="#ffffff" stroke="#45413c" stroke-linecap="round" stroke-linejoin="round"></path><path d="M68.81,80.213a.575.575,0,0,1-.707-.481,6.038,6.038,0,1,1,8.03,4.869.575.575,0,0,1-.754-.4l-.414-1.689a.577.577,0,0,1,.337-.668,3.162,3.162,0,1,0-4.367-2.648.572.572,0,0,1-.436.607Z" fill="#656769"></path><path d="M68.81,80.213a.575.575,0,0,1-.707-.481,6.038,6.038,0,1,1,8.03,4.869.575.575,0,0,1-.754-.4l-.414-1.689a.577.577,0,0,1,.337-.668,3.162,3.162,0,1,0-4.367-2.648.572.572,0,0,1-.436.607Z" fill="none" stroke="#45413c" stroke-linecap="round" stroke-linejoin="round"></path><path d="M73.403 74.515 A3.450 3.450 0 1 0 80.303 74.515 A3.450 3.450 0 1 0 73.403 74.515 Z" fill="#ffffff" stroke="#45413c" stroke-linecap="round" stroke-linejoin="round"></path><path d="M45.924 13.245 L78.124 13.245 L78.124 38.545 L45.924 38.545 Z" fill="#00b8f0"></path><path d="M49.8,38.544h-.426a3.45,3.45,0,0,1-3.45-3.45v-18.4a3.45,3.45,0,0,1,3.45-3.45h25.3Z" fill="#4acfff"></path><path d="M57.675,29.07a1.439,1.439,0,0,1-1.438-1.437c0-1.307-.612-2.013-.862-2.013s-.863.706-.863,2.013a1.438,1.438,0,0,1-2.875,0c0-2.741,1.642-4.888,3.738-4.888s3.737,2.147,3.737,4.888A1.438,1.438,0,0,1,57.675,29.07Z" fill="#ffffff" stroke="#009fd9" stroke-miterlimit="10"></path><path d="M71.475,29.07a1.439,1.439,0,0,1-1.438-1.437c0-1.307-.612-2.013-.862-2.013s-.863.706-.863,2.013a1.438,1.438,0,0,1-2.875,0c0-2.741,1.642-4.888,3.738-4.888s3.737,2.147,3.737,4.888A1.438,1.438,0,0,1,71.475,29.07Z" fill="#ffffff" stroke="#009fd9" stroke-miterlimit="10"></path><path d="M45.924 13.245 L78.124 13.245 L78.124 38.545 L45.924 38.545 Z" fill="none" stroke="#45413c" stroke-linecap="round" stroke-linejoin="round"></path><path d="M33.421,84.094a2.3,2.3,0,0,0,.679-.664l5.161-7.79,1.376-2.077a2.294,2.294,0,0,0,.383-1.27V70.378a1.145,1.145,0,0,0-.293-.766l-7.306,9.559Z" fill="#6dd627" stroke="#45413c" stroke-linecap="round" stroke-linejoin="round"></path><path d="M38.724 72.232L35.865 75.973 35.865 80.766 38.724 76.451 38.724 72.232z" fill="#f0f0f0" stroke="#45413c" stroke-linecap="round" stroke-linejoin="round"></path></g></svg>