<svg xmlns="http://www.w3.org/2000/svg" version="1.1" xmlns:xlink="http://www.w3.org/1999/xlink" xmlns:svgjs="http://svgjs.com/svgjs" viewBox="0 0 200 200" width="200" height="200"><g transform="matrix(2,0,0,2,0,0)"><path d="M10.000 50.000 A40.000 40.000 0 1 0 90.000 50.000 A40.000 40.000 0 1 0 10.000 50.000 Z" fill="#e8f4fa" stroke="#daedf7" stroke-miterlimit="10"></path><path d="M25.732 19.086 L74.032 19.086 L74.032 84.186 L25.732 84.186 Z" fill="#4acfff"></path><path d="M74.032,23.286v5.25a4.2,4.2,0,0,0-4.2-4.2h-39.9a4.2,4.2,0,0,0-4.2,4.2v-5.25a4.2,4.2,0,0,1,4.2-4.2h39.9A4.2,4.2,0,0,1,74.032,23.286Z" fill="#80ddff"></path><path d="M44.283 21.026 L55.622 21.026 L55.622 36.900 L44.283 36.900 Z" fill="#00b8f0" transform="translate(20.918 78.874) rotate(-89.919)"></path><path d="M42.912,34.159a2.263,2.263,0,0,1-.892-1.806l.01-6.8A2.267,2.267,0,0,1,44.3,23.286l9.513.013Z" fill="#4acfff"></path><path d="M41.552,74.582a1.984,1.984,0,0,1-1.707-2.041,61.942,61.942,0,0,1,3.96-19.99,1.984,1.984,0,0,1,3.719,1.385A58.774,58.774,0,0,0,43.81,72.694,1.984,1.984,0,0,1,41.752,74.6C41.684,74.6,41.618,74.591,41.552,74.582Z" fill="#c0dceb"></path><path d="M43.805,52.551c-.049.134-.439,1.078-.955,2.672a6.327,6.327,0,0,0,3.288,2.846,40.983,40.983,0,0,1,1.387-4.133,1.98,1.98,0,0,0-.2-1.771l-3.317,0A2.018,2.018,0,0,0,43.805,52.551Z" fill="#adc4d9"></path><path d="M41.552,74.582a1.984,1.984,0,0,1-1.707-2.041,61.942,61.942,0,0,1,3.96-19.99,1.984,1.984,0,0,1,3.719,1.385A58.774,58.774,0,0,0,43.81,72.694,1.984,1.984,0,0,1,41.752,74.6C41.684,74.6,41.618,74.591,41.552,74.582Z" fill="none" stroke="#45413c" stroke-linecap="round" stroke-linejoin="round"></path><path d="M45.858,59.083a8.726,8.726,0,0,1-3.8-1.194" fill="none" stroke="#45413c" stroke-linecap="round" stroke-linejoin="round"></path><path d="M44.99,62.809a8.369,8.369,0,0,1-2.1-.185,8.533,8.533,0,0,1-1.8-.591" fill="none" stroke="#45413c" stroke-linecap="round" stroke-linejoin="round"></path><path d="M44.341,66.662a8.032,8.032,0,0,1-2.552-.15,8.687,8.687,0,0,1-1.382-.413" fill="none" stroke="#45413c" stroke-linecap="round" stroke-linejoin="round"></path><path d="M58.309,74.582a1.984,1.984,0,0,0,1.707-2.041,61.926,61.926,0,0,0-3.961-19.99,1.984,1.984,0,0,0-3.719,1.385,58.725,58.725,0,0,1,3.715,18.758A1.984,1.984,0,0,0,58.109,74.6C58.177,74.6,58.243,74.591,58.309,74.582Z" fill="#c0dceb"></path><path d="M56.055,52.551c.05.134.44,1.078.956,2.672a6.331,6.331,0,0,1-3.288,2.846,40.983,40.983,0,0,0-1.387-4.133,1.98,1.98,0,0,1,.2-1.771l3.316,0A1.911,1.911,0,0,1,56.055,52.551Z" fill="#adc4d9"></path><path d="M58.309,74.582a1.984,1.984,0,0,0,1.707-2.041,61.926,61.926,0,0,0-3.961-19.99,1.984,1.984,0,0,0-3.719,1.385,58.725,58.725,0,0,1,3.715,18.758A1.984,1.984,0,0,0,58.109,74.6C58.177,74.6,58.243,74.591,58.309,74.582Z" fill="none" stroke="#45413c" stroke-linecap="round" stroke-linejoin="round"></path><path d="M54,59.083a8.738,8.738,0,0,0,3.8-1.194" fill="none" stroke="#45413c" stroke-linecap="round" stroke-linejoin="round"></path><path d="M54.871,62.809a8.369,8.369,0,0,0,2.1-.185,8.533,8.533,0,0,0,1.8-.591" fill="none" stroke="#45413c" stroke-linecap="round" stroke-linejoin="round"></path><path d="M55.52,66.662a8.032,8.032,0,0,0,2.552-.15,8.718,8.718,0,0,0,1.382-.413" fill="none" stroke="#45413c" stroke-linecap="round" stroke-linejoin="round"></path><path d="M36.64,60.482a.468.468,0,0,0,.7.016,4.912,4.912,0,1,0-7.618-.587.469.469,0,0,0,.69.09l1.074-.92a.469.469,0,0,0,.094-.6,2.573,2.573,0,1,1,4.143.32.466.466,0,0,0,0,.608Z" fill="#656769"></path><path d="M36.64,60.482a.468.468,0,0,0,.7.016,4.912,4.912,0,1,0-7.618-.587.469.469,0,0,0,.69.09l1.074-.92a.469.469,0,0,0,.094-.6,2.573,2.573,0,1,1,4.143.32.466.466,0,0,0,0,.608Z" fill="none" stroke="#45413c" stroke-linecap="round" stroke-linejoin="round"></path><path d="M32.054,53.23a1.988,1.988,0,1,0,3.969.222A13.167,13.167,0,0,1,43.5,41.81a16.849,16.849,0,0,1,5.1-1.623,2,2,0,0,0,1.755-2.2,1.9,1.9,0,0,0-.5-1.095l-4.8,0c-.5.152-1.032.343-1.561.551A17.443,17.443,0,0,0,32.054,53.23Z" fill="#c0dceb" stroke="#45413c" stroke-linecap="round" stroke-linejoin="round"></path><path d="M32.689,49.2a3.75,3.75,0,0,0,3.916.73" fill="none" stroke="#45413c" stroke-linecap="round" stroke-linejoin="round"></path><path d="M35.758,43.059a3.746,3.746,0,0,0,2.654,3.056" fill="none" stroke="#45413c" stroke-linecap="round" stroke-linejoin="round"></path><path d="M40.471,38.949a3.751,3.751,0,0,0,1.81,3.548" fill="none" stroke="#45413c" stroke-linecap="round" stroke-linejoin="round"></path><path d="M63.123,60.482a.468.468,0,0,1-.7.016,4.912,4.912,0,1,1,7.619-.587.471.471,0,0,1-.325.2A.464.464,0,0,1,69.356,60l-1.075-.92a.469.469,0,0,1-.094-.6,2.573,2.573,0,1,0-4.143.32.467.467,0,0,1,0,.608Z" fill="#656769"></path><path d="M63.123,60.482a.468.468,0,0,1-.7.016,4.912,4.912,0,1,1,7.619-.587.471.471,0,0,1-.325.2A.464.464,0,0,1,69.356,60l-1.075-.92a.469.469,0,0,1-.094-.6,2.573,2.573,0,1,0-4.143.32.467.467,0,0,1,0,.608Z" fill="none" stroke="#45413c" stroke-linecap="round" stroke-linejoin="round"></path><path d="M67.709,53.23a1.988,1.988,0,1,1-3.969.222A13.165,13.165,0,0,0,56.264,41.81a16.849,16.849,0,0,0-5.1-1.623,2,2,0,0,1-1.754-2.2,1.9,1.9,0,0,1,.5-1.095l4.8.01c.5.152,1.03.329,1.559.537A17.442,17.442,0,0,1,67.709,53.23Z" fill="#c0dceb" stroke="#45413c" stroke-linecap="round" stroke-linejoin="round"></path><path d="M44.292 21.026 L55.631 21.026 L55.631 36.900 L44.292 36.900 Z" fill="none" stroke="#45413c" stroke-linecap="round" stroke-linejoin="round" transform="translate(20.928 78.884) rotate(-89.919)"></path><path d="M47.693,30.272a1.3,1.3,0,0,1-.928-.386,1.282,1.282,0,0,1-.206-.266,1.312,1.312,0,0,1-2.445-.665,2.446,2.446,0,1,1,4.892.007,1.314,1.314,0,0,1-1.312,1.31Z" fill="#ffffff" stroke="#009fd9" stroke-linecap="round" stroke-linejoin="round"></path><path d="M52.231,30.272a1.3,1.3,0,0,0,.928-.386,1.317,1.317,0,0,0,.206-.266,1.313,1.313,0,0,0,2.445-.665,2.447,2.447,0,1,0-4.893.007,1.314,1.314,0,0,0,1.312,1.31Z" fill="#ffffff" stroke="#009fd9" stroke-linecap="round" stroke-linejoin="round"></path><path d="M48.293 34.632H51.611V36.9H48.293z" fill="#87898c" stroke="#45413c" stroke-linecap="round" stroke-linejoin="round"></path><path d="M56.25,51l-12.639-.018.019-13.145a.944.944,0,0,1,.946-.943l10.749.015a.944.944,0,0,1,.943.946Z" fill="#ffffff" stroke="#45413c" stroke-linecap="round" stroke-linejoin="round"></path><path d="M56.25,51a6.32,6.32,0,0,1-12.639-.018Z" fill="#e8f4fa" stroke="#45413c" stroke-linecap="round" stroke-linejoin="round"></path><path d="M53.1,42.09a1.134,1.134,0,0,1-1.136,1.132l-4.051-.005a1.135,1.135,0,0,1-1.133-1.136l.008-5.185,6.319.009Z" fill="#4acfff"></path><path d="M46.791,36.9l-.008,5.185a1.132,1.132,0,0,0,.335.806L53.1,36.905Z" fill="#80ddff"></path><path d="M53.1,42.09a1.134,1.134,0,0,1-1.136,1.132l-4.051-.005a1.135,1.135,0,0,1-1.133-1.136l.008-5.185,6.319.009Z" fill="none" stroke="#45413c" stroke-linecap="round" stroke-linejoin="round"></path><path d="M67.074,49.2a3.749,3.749,0,0,1-3.915.73" fill="none" stroke="#45413c" stroke-linecap="round" stroke-linejoin="round"></path><path d="M64.005,43.059a3.746,3.746,0,0,1-2.654,3.056" fill="none" stroke="#45413c" stroke-linecap="round" stroke-linejoin="round"></path><path d="M59.292,38.949a3.749,3.749,0,0,1-1.81,3.548" fill="none" stroke="#45413c" stroke-linecap="round" stroke-linejoin="round"></path><path d="M22.738 84.475 A26.094 2.406 0 1 0 74.926 84.475 A26.094 2.406 0 1 0 22.738 84.475 Z" fill="#45413c" opacity=".15"></path><path d="M25.732 19.086 L74.032 19.086 L74.032 84.186 L25.732 84.186 Z" fill="none" stroke="#45413c" stroke-miterlimit="10"></path><path d="M74.032,69.486v10.5a4.2,4.2,0,0,1-4.2,4.2h-39.9a4.2,4.2,0,0,1-4.2-4.2v-10.5Z" fill="#ffffff"></path><path d="M74.032,76.836v3.15a4.2,4.2,0,0,1-4.2,4.2h-39.9a4.2,4.2,0,0,1-4.2-4.2v-3.15a4.2,4.2,0,0,0,4.2,4.2h39.9A4.2,4.2,0,0,0,74.032,76.836Z" fill="#e5f8ff"></path><path d="M74.032,69.486v10.5a4.2,4.2,0,0,1-4.2,4.2h-39.9a4.2,4.2,0,0,1-4.2-4.2v-10.5Z" fill="none" stroke="#45413c" stroke-miterlimit="10"></path><path d="M55.132,10.686h-10.5a4.2,4.2,0,0,0-4.2,4.2v4.2h18.9v-4.2A4.2,4.2,0,0,0,55.132,10.686Zm-1.05,6.3h-8.4a1.05,1.05,0,0,1,0-2.1h1.23a1.05,1.05,0,0,0,.99-.7,2.1,2.1,0,0,1,3.96,0,1.049,1.049,0,0,0,.989.7h1.231a1.05,1.05,0,0,1,0,2.1Z" fill="#f0f0f0" stroke="#45413c" stroke-linecap="round" stroke-linejoin="round"></path><path d="M35.744,73.268a.692.692,0,0,1-.68.7.71.71,0,0,1-.681-.7.681.681,0,0,1,1.361,0Zm-1.285,1.823a.608.608,0,1,1,1.209,0v3.223a.608.608,0,1,1-1.209,0Z" fill="#009fd9"></path><path d="M39.2,75.972a.493.493,0,0,1,.478.538.487.487,0,0,1-.478.52H37.407a.487.487,0,0,1-.478-.52.493.493,0,0,1,.478-.538Z" fill="#009fd9"></path><path d="M40.986,73.613a.594.594,0,0,1,.646-.655H43.11c1.293,0,2.09.579,2.09,1.9a1.629,1.629,0,0,1-1.553,1.586l1.428,1.528a.546.546,0,0,1,.167.37.636.636,0,0,1-1.116.428L42.262,76.51h-.017v1.821a.63.63,0,1,1-1.259,0Zm1.259,1.99h.865a.715.715,0,0,0,.781-.747.705.705,0,0,0-.781-.74h-.865Z" fill="#009fd9"></path><path d="M50.45,76.711a2.171,2.171,0,1,1-4.332,0,2.173,2.173,0,1,1,4.332,0Zm-3.123,0c0,.579.3,1.218.957,1.218s.957-.639.957-1.218-.293-1.234-.957-1.234S47.327,76.131,47.327,76.711Z" fill="#009fd9"></path><path d="M51.637,73.143a.608.608,0,1,1,1.209,0v1.645A1.749,1.749,0,0,1,54,74.369a2.367,2.367,0,0,1-.042,4.667,1.316,1.316,0,0,1-1.108-.553.579.579,0,0,1-.6.5.611.611,0,0,1-.6-.672ZM53.8,77.929c.629,0,.94-.655.94-1.218s-.311-1.234-.94-1.234c-.647,0-.949.6-.949,1.192S53.131,77.929,53.8,77.929Z" fill="#009fd9"></path><path d="M61.286,76.711a2.171,2.171,0,1,1-4.332,0,2.173,2.173,0,1,1,4.332,0Zm-3.123,0c0,.579.3,1.218.957,1.218s.957-.639.957-1.218-.294-1.234-.957-1.234S58.163,76.131,58.163,76.711Z" fill="#009fd9"></path><path d="M62.767,75.527H62.5A.49.49,0,0,1,61.969,75a.517.517,0,0,1,.529-.529h.269v-.722a.608.608,0,1,1,1.209,0v.722h.344a.531.531,0,1,1,0,1.058h-.344v2.787a.608.608,0,1,1-1.209,0Z" fill="#009fd9"></path><path d="M61.460 21.820 A10.268 10.268 0 1 0 81.996 21.820 A10.268 10.268 0 1 0 61.460 21.820 Z" fill="#525252"></path><path d="M64.387,29A10.268,10.268,0,1,1,79.068,14.641Z" fill="#656769"></path><path d="M70.457,17.019a1.456,1.456,0,0,0-1.33.946l-1.417,3.8-1.435-3.848a1.445,1.445,0,0,0-2.784.51,1.675,1.675,0,0,0,.121.643l2.7,6.869a1.459,1.459,0,0,0,2.8-.005l2.7-6.864a1.675,1.675,0,0,0,.121-.643A1.445,1.445,0,0,0,70.457,17.019Z" fill="#ffffff" stroke="#45413c" stroke-linecap="round" stroke-linejoin="round"></path><path d="M78.916,24.611l-1.5-1.6A2.724,2.724,0,0,0,79.242,20.4c0-2.134-1.276-3.309-3.591-3.309H73.483a1.386,1.386,0,0,0-1.473,1.486V25.5a1.449,1.449,0,1,0,2.9,0v-1.24l1.831,2.219a1.459,1.459,0,0,0,2.565-.965A1.31,1.31,0,0,0,78.916,24.611ZM76.009,20.4c0,.379-.209.571-.62.571h-.482V19.842h.482C76.009,19.842,76.009,20.249,76.009,20.4Z" fill="#ffffff" stroke="#45413c" stroke-linecap="round" stroke-linejoin="round"></path><path d="M61.460 21.820 A10.268 10.268 0 1 0 81.996 21.820 A10.268 10.268 0 1 0 61.460 21.820 Z" fill="none" stroke="#45413c" stroke-linecap="round" stroke-linejoin="round"></path></g></svg>