<svg xmlns="http://www.w3.org/2000/svg" version="1.1" xmlns:xlink="http://www.w3.org/1999/xlink" xmlns:svgjs="http://svgjs.com/svgjs" viewBox="0 0 200 200" width="200" height="200"><g transform="matrix(2,0,0,2,0,0)"><path d="M10.000 50.000 A40.000 40.000 0 1 0 90.000 50.000 A40.000 40.000 0 1 0 10.000 50.000 Z" fill="#e8f4fa" stroke="#daedf7" stroke-miterlimit="10"></path><path d="M66.446,46.45v8.8a8.8,8.8,0,0,1-8.8,8.8h-13.2a8.8,8.8,0,0,1-8.8-8.8v-8.8Z" fill="#f0f0f0"></path><path d="M66.446,49.75a8.8,8.8,0,0,1-8.8,8.8h-13.2a8.8,8.8,0,0,1-8.8-8.8v5.5a8.8,8.8,0,0,0,8.8,8.8h13.2a8.8,8.8,0,0,0,8.8-8.8Z" fill="#e0e0e0"></path><path d="M66.446,31.05a15.4,15.4,0,0,0-30.8,0v15.4h30.8Z" fill="#ffffff"></path><path d="M66.446,31.05a15.4,15.4,0,0,0-30.8,0v15.4h30.8Z" fill="none" stroke="#45413c" stroke-linecap="round" stroke-linejoin="round"></path><path d="M59.846,31.05a8.8,8.8,0,1,0-17.6,0v15.4h17.6Z" fill="#e5f8ff"></path><path d="M34.643 74.500 A17.002 1.65 0 1 0 68.647 74.500 A17.002 1.65 0 1 0 34.643 74.500 Z" fill="#45413c" opacity=".15"></path><path d="M66.446,46.45v8.8a8.8,8.8,0,0,1-8.8,8.8h-13.2a8.8,8.8,0,0,1-8.8-8.8v-8.8Z" fill="none" stroke="#45413c" stroke-linecap="round" stroke-linejoin="round"></path><path d="M55.446,54.15a2.2,2.2,0,0,1-2.2,2.2h-12.1a2.2,2.2,0,0,1-2.2-2.2v-7.7h16.5Z" fill="#00b8f0"></path><path d="M51.046 42.825L51.046 46.45" fill="none" stroke="#45413c" stroke-linecap="round" stroke-linejoin="round"></path><path d="M56.909,41.98c-1.578.911-3.35.8-3.957-.255s.179-2.644,1.757-3.556a27.514,27.514,0,0,1,5.861-1.595.654.654,0,0,1,.653,1.127A27.444,27.444,0,0,1,56.909,41.98Z" fill="#6dd627"></path><path d="M61.412,36.84a.763.763,0,0,1-.189.861,27.444,27.444,0,0,1-4.314,4.279c-1.578.911-3.35.8-3.957-.255Z" fill="#46b000"></path><path d="M56.909,41.98c-1.578.911-3.35.8-3.957-.255s.179-2.644,1.757-3.556a27.514,27.514,0,0,1,5.861-1.595.654.654,0,0,1,.653,1.127A27.444,27.444,0,0,1,56.909,41.98Z" fill="none" stroke="#45413c" stroke-linecap="round" stroke-linejoin="round"></path><path d="M52.952 41.725L51.046 42.825" fill="none" stroke="#45413c" stroke-linecap="round" stroke-linejoin="round"></path><path d="M45.183,41.98c1.579.911,3.351.8,3.958-.255s-.179-2.644-1.758-3.556a27.48,27.48,0,0,0-5.861-1.595A.654.654,0,0,0,40.87,37.7,27.487,27.487,0,0,0,45.183,41.98Z" fill="#6dd627"></path><path d="M40.681,36.84a.761.761,0,0,0,.189.861,27.487,27.487,0,0,0,4.313,4.279c1.579.911,3.351.8,3.958-.255Z" fill="#46b000"></path><path d="M45.183,41.98c1.579.911,3.351.8,3.958-.255s-.179-2.644-1.758-3.556a27.48,27.48,0,0,0-5.861-1.595A.654.654,0,0,0,40.87,37.7,27.487,27.487,0,0,0,45.183,41.98Z" fill="none" stroke="#45413c" stroke-linecap="round" stroke-linejoin="round"></path><path d="M49.141 41.725L51.046 42.825" fill="none" stroke="#45413c" stroke-linecap="round" stroke-linejoin="round"></path><path d="M62.639 69.55L56.039 64.05" fill="#ffffff" stroke="#45413c" stroke-miterlimit="10"></path><path d="M68.841 61.282L62.639 69.55" fill="#ffffff" stroke="#45413c" stroke-miterlimit="10"></path><path d="M61.264 69.550 A1.375 1.375 0 1 0 64.014 69.550 A1.375 1.375 0 1 0 61.264 69.550 Z" fill="#ffffff" stroke="#45413c" stroke-miterlimit="10"></path><path d="M38.439 69.55L45.039 64.05" fill="#ffffff" stroke="#45413c" stroke-miterlimit="10"></path><path d="M32.193 61.221L38.439 69.55" fill="#ffffff" stroke="#45413c" stroke-miterlimit="10"></path><path d="M37.064 69.550 A1.375 1.375 0 1 0 39.814 69.550 A1.375 1.375 0 1 0 37.064 69.550 Z" fill="#ffffff" stroke="#45413c" stroke-miterlimit="10"></path><path d="M50.539 68.450 A3.3 9.9 0 1 0 57.139 68.450 A3.3 9.9 0 1 0 50.539 68.450 Z" fill="#f0f0f0"></path><path d="M40.045,56.055a2.2,2.2,0,0,1-1.1-1.905v-7.7h10.7Z" fill="#4acfff"></path><path d="M47.196 50.850 A1.65 2.75 0 1 0 50.496 50.850 A1.65 2.75 0 1 0 47.196 50.850 Z" fill="#ffffff" stroke="#00658a" stroke-linecap="round" stroke-linejoin="round"></path><path d="M55.446,54.15a2.2,2.2,0,0,1-2.2,2.2h-12.1a2.2,2.2,0,0,1-2.2-2.2v-7.7h16.5Z" fill="none" stroke="#45413c" stroke-linecap="round" stroke-linejoin="round"></path><path d="M40.871 50.850 A1.65 2.75 0 1 0 44.171 50.850 A1.65 2.75 0 1 0 40.871 50.850 Z" fill="#ffffff" stroke="#00658a" stroke-linecap="round" stroke-linejoin="round"></path><path d="M56.826,64.232c-.528-3.358-1.667-5.682-2.987-5.682s-2.457,2.321-2.985,5.676c.515,3.381,1.662,5.723,2.985,5.723s2.469-2.339,2.985-5.717" fill="#ffffff"></path><path d="M50.539 68.450 A3.3 9.9 0 1 0 57.139 68.450 A3.3 9.9 0 1 0 50.539 68.450 Z" fill="none" stroke="#45413c" stroke-miterlimit="10"></path><path d="M68.729,60.771a.958.958,0,0,1,.7-1.093,1.173,1.173,0,0,1,1.338.435,23.871,23.871,0,0,1,2.8,7.405,22.918,22.918,0,0,1,.525,7.791,1.059,1.059,0,0,1-1.059.841,1.079,1.079,0,0,1-1.112-.786Z" fill="#f0f0f0"></path><path d="M70.843,70.443l-2.114-9.672a.958.958,0,0,1,.7-1.093,1.173,1.173,0,0,1,1.338.435c.086.135.173.276.258.423.108.411.206.841.3,1.271a22.694,22.694,0,0,1,.528,7.793,1.052,1.052,0,0,1-1.012.843" fill="#ffffff"></path><path d="M68.729,60.771a.958.958,0,0,1,.7-1.093,1.173,1.173,0,0,1,1.338.435,23.871,23.871,0,0,1,2.8,7.405,22.918,22.918,0,0,1,.525,7.791,1.059,1.059,0,0,1-1.059.841,1.079,1.079,0,0,1-1.112-.786Z" fill="none" stroke="#45413c" stroke-linecap="round" stroke-linejoin="round"></path><path d="M32.344,60.531a.959.959,0,0,0-.7-1.094,1.173,1.173,0,0,0-1.337.435,23.871,23.871,0,0,0-2.8,7.405,22.867,22.867,0,0,0-.525,7.791,1.058,1.058,0,0,0,1.058.841,1.078,1.078,0,0,0,1.113-.786Z" fill="#f0f0f0"></path><path d="M30.229,70.2l2.115-9.672a.959.959,0,0,0-.7-1.094,1.173,1.173,0,0,0-1.337.435c-.087.135-.173.277-.258.423-.108.412-.206.842-.3,1.272a22.689,22.689,0,0,0-.528,7.792,1.053,1.053,0,0,0,1.012.843" fill="#ffffff"></path><path d="M32.344,60.531a.959.959,0,0,0-.7-1.094,1.173,1.173,0,0,0-1.337.435,23.871,23.871,0,0,0-2.8,7.405,22.867,22.867,0,0,0-.525,7.791,1.058,1.058,0,0,0,1.058.841,1.078,1.078,0,0,0,1.113-.786Z" fill="none" stroke="#45413c" stroke-linecap="round" stroke-linejoin="round"></path></g></svg>