<svg xmlns="http://www.w3.org/2000/svg" version="1.1" xmlns:xlink="http://www.w3.org/1999/xlink" xmlns:svgjs="http://svgjs.com/svgjs" viewBox="0 0 200 200" width="200" height="200"><g transform="matrix(2,0,0,2,0,0)"><path d="M84.776,74.853a40,40,0,1,0-72.9,0Z" fill="#c7f0ff"></path><path d="M11.879,74.853a40.016,40.016,0,0,0,72.9,0Z" fill="#e8f4fa"></path><path d="M9.327 74.853L87.327 74.853" fill="none" stroke="#45413c" stroke-linecap="round" stroke-linejoin="round"></path><path d="M4.827 74.853L7.327 74.853" fill="none" stroke="#45413c" stroke-linecap="round" stroke-linejoin="round"></path><path d="M89.327 74.853L91.827 74.853" fill="none" stroke="#45413c" stroke-linecap="round" stroke-linejoin="round"></path><path d="M30.155,67.17a5.925,5.925,0,0,0,5.328-3.293l1.551-3.1A1.986,1.986,0,0,0,33.481,59l-1.55,3.1a1.973,1.973,0,0,1-1.776,1.1h-.193a1.987,1.987,0,0,1-1.985-1.985,1.986,1.986,0,1,0-3.972,0,5.964,5.964,0,0,0,5.957,5.957Z" fill="#ffda8f" stroke="#45413c" stroke-linecap="round" stroke-linejoin="round"></path><path d="M31.286 52.609 L37.243 52.609 L37.243 63.199 L31.286 63.199 Z" fill="#ffffff" stroke="#45413c" stroke-linecap="round" stroke-linejoin="round"></path><path d="M34.924,62.509a1.986,1.986,0,0,1,.667-3.915l1.525.26a1.1,1.1,0,0,1,.9,1.269l-.3,1.747a1.1,1.1,0,0,1-1.269.9Z" fill="#ffda8f" stroke="#45413c" stroke-linecap="round" stroke-linejoin="round"></path><path d="M35.043 54.809L35.043 55.909" fill="none" stroke="#45413c" stroke-linecap="round" stroke-linejoin="round"></path><path d="M6.8,59.889v1.324h3.971v8.6h14.56v-8.6H27.98V59.889a10.59,10.59,0,0,0-21.179,0Z" fill="#ffffff" stroke="#45413c" stroke-linecap="round" stroke-linejoin="round"></path><path d="M9.114,53.279A10.57,10.57,0,0,1,17.39,49.3q.331,0,.659.02v20.5H10.772V59.889L9.115,53.277" fill="#b89558"></path><path d="M18.049,49.32a10.584,10.584,0,0,1,8.575,5.386L25.33,59.889v9.928H18.049Z" fill="#b89558"></path><path d="M56.861,46.27a3.111,3.111,0,1,0,4.4,0" fill="none" stroke="#45413c" stroke-linecap="round" stroke-linejoin="round"></path><path d="M65.111,61.4a7.983,7.983,0,0,0,7.975-7.975,1.925,1.925,0,1,0-3.85,0,4.125,4.125,0,1,1-8.25,0,1.925,1.925,0,1,0-3.85,0A7.984,7.984,0,0,0,65.111,61.4Z" fill="#e0e0e0"></path><path d="M65.111,61.4a7.983,7.983,0,0,0,7.975-7.975,1.925,1.925,0,1,0-3.85,0,4.125,4.125,0,1,1-8.25,0,1.925,1.925,0,1,0-3.85,0A7.984,7.984,0,0,0,65.111,61.4Z" fill="none" stroke="#45413c" stroke-linecap="round" stroke-linejoin="round"></path><path d="M72.243,56.987a2.2,2.2,0,0,0-3.66-1.346" fill="none" stroke="#45413c" stroke-linecap="round" stroke-linejoin="round"></path><path d="M62.139,60.821a2.2,2.2,0,0,0,1.338-3.614" fill="none" stroke="#45413c" stroke-linecap="round" stroke-linejoin="round"></path><path d="M68.677,60.553a2.2,2.2,0,0,0-1.916-3.283c-.064,0-.127,0-.189.008" fill="none" stroke="#45413c" stroke-linecap="round" stroke-linejoin="round"></path><path d="M56.861 52.870 A2.200 2.200 0 1 0 61.261 52.870 A2.200 2.200 0 1 0 56.861 52.870 Z" fill="#e8f4fa" stroke="#45413c" stroke-linecap="round" stroke-linejoin="round"></path><path d="M58.039,57.105a2.2,2.2,0,0,0,3.66-1.372" fill="none" stroke="#45413c" stroke-linecap="round" stroke-linejoin="round"></path><path d="M94.261,46.27a3.111,3.111,0,1,1-4.4,0" fill="none" stroke="#45413c" stroke-linecap="round" stroke-linejoin="round"></path><path d="M74.461 75.97H77.761V87.52H74.461z" fill="#e8f4fa"></path><path d="M74.461 75.97H77.761V80.37H74.461z" fill="#daedf7"></path><path d="M74.461 75.97H77.761V87.52H74.461z" fill="none" stroke="#45413c" stroke-linecap="round" stroke-linejoin="round"></path><path d="M84.361,68.27a8.25,8.25,0,0,1-16.5,0Z" fill="#c0dceb" stroke="#45413c" stroke-linecap="round" stroke-linejoin="round"></path><path d="M67.435 90.798 A8.8 1.65 0 1 0 85.035 90.798 A8.8 1.65 0 1 0 67.435 90.798 Z" fill="#45413c" opacity=".15"></path><path d="M63.4,4.931a3.284,3.284,0,0,0-3.284-3.284H32.191a3.284,3.284,0,0,0-3.284,3.285V30.387a3.285,3.285,0,0,0,3.285,3.285h6.026a1.365,1.365,0,0,1,1.364,1.365v5.2a.683.683,0,0,0,1.165.483l6.647-6.646a1.365,1.365,0,0,1,.965-.4H60.11A3.285,3.285,0,0,0,63.4,30.387Z" fill="#ffffff" stroke="#45413c" stroke-linecap="round" stroke-linejoin="round"></path><path d="M35.732,7.395h9.853a1.643,1.643,0,0,1,1.643,1.643V26.281a1.643,1.643,0,0,1-1.643,1.643H35.731a1.642,1.642,0,0,1-1.642-1.642V9.037A1.643,1.643,0,0,1,35.732,7.395Z" fill="#ffffff" stroke="#45413c" stroke-linecap="round" stroke-linejoin="round"></path><path d="M34.089 10.68H47.227999999999994V24.639H34.089z" fill="#00b8f0"></path><path d="M34.089 19.588L42.999 10.68 34.089 10.68 34.089 19.588z" fill="#4acfff"></path><path d="M51.567,63.2h-8.6V57.68a1.1,1.1,0,0,1,1.1-1.1h3.064a2.649,2.649,0,0,1,2.459,1.665Z" fill="#e8f4fa"></path><path d="M39.654 67.170 L64.805 67.170 L64.805 70.479 L39.654 70.479 Z" fill="#adc4d9" stroke="#45413c" stroke-linecap="round" stroke-linejoin="round"></path><path d="M56.861,67.17H41.64V64.3a1.1,1.1,0,0,1,1.1-1.1h12.8a1.324,1.324,0,0,1,1.323,1.324Z" fill="#c0dceb" stroke="#45413c" stroke-linecap="round" stroke-linejoin="round"></path><path d="M48.451,59.227H42.963V57.68a1.1,1.1,0,0,1,1.1-1.1h3.064a2.646,2.646,0,0,1,2.458,1.665l.707,1.764A2.629,2.629,0,0,0,48.451,59.227Z" fill="#ffffff"></path><path d="M51.567,63.2h-8.6V57.68a1.1,1.1,0,0,1,1.1-1.1h3.064a2.649,2.649,0,0,1,2.459,1.665Z" fill="none" stroke="#45413c" stroke-linecap="round" stroke-linejoin="round"></path><path d="M63.48,70.478h-22.5L43.5,89.38a1.1,1.1,0,0,0,1.09.954H59.87a1.1,1.1,0,0,0,1.09-.955Z" fill="#daedf7"></path><path d="M63.127 73.126L63.48 70.478 40.977 70.478 41.33 73.126 63.127 73.126z" fill="#c0dceb"></path><path d="M43.007,85.7l.491,3.678a1.1,1.1,0,0,0,1.09.955H59.87a1.1,1.1,0,0,0,1.09-.955l.49-3.678Z" fill="#adc4d9" stroke="#45413c" stroke-linecap="round" stroke-linejoin="round"></path><path d="M63.48,70.478h-22.5L43.5,89.38a1.1,1.1,0,0,0,1.09.954H59.87a1.1,1.1,0,0,0,1.09-.955Z" fill="none" stroke="#45413c" stroke-linecap="round" stroke-linejoin="round"></path><path d="M44.948 52.609L44.948 56.58" fill="none" stroke="#45413c" stroke-linecap="round" stroke-linejoin="round"></path><path d="M39.654 47.314 L50.905 47.314 L50.905 52.609 L39.654 52.609 Z" fill="#00b8f0"></path><path d="M40.754,47.314a1.1,1.1,0,0,0-1.1,1.1v3.095a1.1,1.1,0,0,0,1.1,1.1h.668l5.3-5.3Z" fill="#4acfff"></path><path d="M39.654 47.314 L50.905 47.314 L50.905 52.609 L39.654 52.609 Z" fill="none" stroke="#45413c" stroke-linecap="round" stroke-linejoin="round"></path><path d="M34.089 10.68H47.227999999999994V24.639H34.089z" fill="none" stroke="#45413c" stroke-linecap="round" stroke-linejoin="round"></path><path d="M59.139,17.484a1.749,1.749,0,0,0-2.381-1.177,44.148,44.148,0,0,1-6.388,2.156,44.142,44.142,0,0,1-6.641,1.156,1.749,1.749,0,0,0-1.529,2.17l.347,1.366.933,3.674a1.745,1.745,0,0,0,1.837,1.31,43.973,43.973,0,0,0,7.206-1.207,44.039,44.039,0,0,0,6.907-2.38,1.748,1.748,0,0,0,.989-2.028l-.934-3.673Z" fill="#6dd627" stroke="#45413c" stroke-linecap="round" stroke-linejoin="round"></path><path d="M53.141,22.267A1.748,1.748,0,1,1,51.016,21,1.748,1.748,0,0,1,53.141,22.267Z" fill="#c8ffa1"></path><path d="M10.772,70.478V89.234L16,89.219l.667-13.447a1.383,1.383,0,0,1,2.763,0l.6,13.462,5.3-.015V70.478Z" fill="#00b8f0"></path><path d="M10.772,73.126a1.986,1.986,0,0,1-3.971,0V61.213h3.971Z" fill="#ffda8f" stroke="#45413c" stroke-linecap="round" stroke-linejoin="round"></path><path d="M29.675,91.073c0,.911-4.924,1.65-11,1.65s-11-.739-11-1.65,4.924-1.65,11-1.65S29.675,90.162,29.675,91.073Z" fill="#45413c" opacity=".15"></path><path d="M10.772 70.478H25.332V73.12599999999999H10.772z" fill="#009fd9" stroke="#009fd9" stroke-miterlimit="10"></path><path d="M10.772,70.478V89.234L16,89.219l.667-13.447a1.383,1.383,0,0,1,2.763,0l.6,13.462,5.3-.015V70.478Z" fill="none" stroke="#45413c" stroke-linecap="round" stroke-linejoin="round"></path><path d="M27.212,90.334c0-2.37-2.316-3.309-4.366-3.309H19.932v2.209a1.1,1.1,0,0,0,1.1,1.1Z" fill="#525252" stroke="#45413c" stroke-linecap="round" stroke-linejoin="round"></path><path d="M18.052,90.334c0-2.37-2.317-3.309-4.366-3.309H10.772v2.209a1.1,1.1,0,0,0,1.1,1.1Z" fill="#525252" stroke="#45413c" stroke-linecap="round" stroke-linejoin="round"></path><path d="M25.332 67.831L10.772 67.831" fill="#009fd9" stroke="#45413c" stroke-linecap="round" stroke-linejoin="round"></path><path d="M15.401 59.227L12.754 59.227" fill="none" stroke="#45413c" stroke-linecap="round" stroke-linejoin="round"></path><path d="M23.344 59.227L20.697 59.227" fill="none" stroke="#45413c" stroke-linecap="round" stroke-linejoin="round"></path><path d="M15.401 63.86L12.754 63.86" fill="none" stroke="#45413c" stroke-linecap="round" stroke-linejoin="round"></path><path d="M23.344 63.86L20.697 63.86" fill="none" stroke="#45413c" stroke-linecap="round" stroke-linejoin="round"></path><path d="M86.561,38.57a6.6,6.6,0,0,1-6.6,6.6h-2.2V31.97h2.2A6.6,6.6,0,0,1,86.561,38.57Z" fill="#e8f4fa"></path><path d="M86.443,39.8a6.59,6.59,0,0,0-6.482-7.831h-2.2v2.462h2.2A6.6,6.6,0,0,1,86.443,39.8Z" fill="#ffffff"></path><path d="M86.561,38.57a6.6,6.6,0,0,1-6.6,6.6h-2.2V31.97h2.2A6.6,6.6,0,0,1,86.561,38.57Z" fill="none" stroke="#45413c" stroke-linecap="round" stroke-linejoin="round"></path><path d="M66.761 31.970 L79.961 31.970 L79.961 45.170 L66.761 45.170 Z" fill="#525252"></path><path d="M79.961,34.17a2.2,2.2,0,0,0-2.2-2.2h-8.8a2.2,2.2,0,0,0-2.2,2.2v2.462a2.2,2.2,0,0,1,2.2-2.2h8.8a2.2,2.2,0,0,1,2.2,2.2Z" fill="#656769"></path><path d="M66.761 31.970 L79.961 31.970 L79.961 45.170 L66.761 45.170 Z" fill="none" stroke="#45413c" stroke-linecap="round" stroke-linejoin="round"></path><path d="M72.261,48.47a4.4,4.4,0,0,0-4.4,4.4v15.4h12.1V48.47Z" fill="#e8f4fa"></path><path d="M72.261,48.47a4.4,4.4,0,0,0-4.4,4.4v2.45a4.4,4.4,0,0,1,4.4-4.4h7.7V48.47Z" fill="#ffffff"></path><path d="M72.261,48.47a4.4,4.4,0,0,0-4.4,4.4v15.4h12.1V48.47Z" fill="none" stroke="#45413c" stroke-linecap="round" stroke-linejoin="round"></path><path d="M84.361,68.27h-8.8V52.87a4.4,4.4,0,0,1,8.8,0Z" fill="#c0dceb"></path><path d="M79.961,48.47a4.4,4.4,0,0,0-4.4,4.4v2.45a4.4,4.4,0,0,1,8.8,0V52.87A4.4,4.4,0,0,0,79.961,48.47Z" fill="#e8f4fa"></path><path d="M84.361,68.27h-8.8V52.87a4.4,4.4,0,0,1,8.8,0Z" fill="none" stroke="#45413c" stroke-linecap="round" stroke-linejoin="round"></path><path d="M68.961 38.570 A1.100 1.100 0 1 0 71.161 38.570 A1.100 1.100 0 1 0 68.961 38.570 Z" fill="#4acfff"></path><path d="M74.461 38.570 A1.100 1.100 0 1 0 76.661 38.570 A1.100 1.100 0 1 0 74.461 38.570 Z" fill="#4acfff"></path><path d="M83.894,89.053a.618.618,0,0,1-.15,1.217H68.479a.618.618,0,0,1-.15-1.217l6.132-1.533h3.3Z" fill="#656769" stroke="#45413c" stroke-linecap="round" stroke-linejoin="round"></path><path d="M86.011,61.4a7.984,7.984,0,0,1-7.975-7.975,1.925,1.925,0,1,1,3.85,0,4.125,4.125,0,0,0,8.25,0,1.925,1.925,0,1,1,3.85,0A7.983,7.983,0,0,1,86.011,61.4Z" fill="#e0e0e0"></path><path d="M86.011,61.4a7.984,7.984,0,0,1-7.975-7.975,1.925,1.925,0,1,1,3.85,0,4.125,4.125,0,0,0,8.25,0,1.925,1.925,0,1,1,3.85,0A7.983,7.983,0,0,1,86.011,61.4Z" fill="none" stroke="#45413c" stroke-linecap="round" stroke-linejoin="round"></path><path d="M78.879,56.987a2.2,2.2,0,0,1,3.661-1.346" fill="none" stroke="#45413c" stroke-linecap="round" stroke-linejoin="round"></path><path d="M88.983,60.821a2.2,2.2,0,0,1-1.337-3.614" fill="none" stroke="#45413c" stroke-linecap="round" stroke-linejoin="round"></path><path d="M82.446,60.553a2.2,2.2,0,0,1,1.915-3.283c.064,0,.128,0,.19.008" fill="none" stroke="#45413c" stroke-linecap="round" stroke-linejoin="round"></path><path d="M89.861 52.870 A2.200 2.200 0 1 0 94.261 52.870 A2.200 2.200 0 1 0 89.861 52.870 Z" fill="#e8f4fa" stroke="#45413c" stroke-linecap="round" stroke-linejoin="round"></path><path d="M93.083,57.105a2.2,2.2,0,0,1-3.659-1.372" fill="none" stroke="#45413c" stroke-linecap="round" stroke-linejoin="round"></path><path d="M74.461 45.17H77.761V48.47H74.461z" fill="#c0dceb" stroke="#45413c" stroke-linecap="round" stroke-linejoin="round"></path><path d="M6.8,59.889v1.324h3.971v8.6h14.56v-8.6H27.98V59.889a10.59,10.59,0,0,0-21.179,0Z" fill="none" stroke="#45413c" stroke-linecap="round" stroke-linejoin="round"></path><path d="M9.116,53.277a10.592,10.592,0,0,1,17.508,1.429l-.4,1.6a11.646,11.646,0,0,0-8.177-4.2c-.213-.012-.422-.037-.637-.037a11.4,11.4,0,0,0-7.807,3.167Z" fill="#debb7e"></path><path d="M18.049,49.32a10.584,10.584,0,0,1,8.575,5.386L25.33,59.889v9.928H18.049Z" fill="none" stroke="#45413c" stroke-linecap="round" stroke-linejoin="round"></path><path d="M9.114,53.279A10.57,10.57,0,0,1,17.39,49.3q.331,0,.659.02v20.5H10.772V59.889L9.115,53.277" fill="none" stroke="#45413c" stroke-linecap="round" stroke-linejoin="round"></path><path d="M10.772 67.831H25.332V70.47800000000001H10.772z" fill="#b89558" stroke="#45413c" stroke-linecap="round" stroke-linejoin="round"></path><path d="M22.607,50.672a10.618,10.618,0,0,0-9.283-.564v0l4.727,9.117L22.6,50.678" fill="#ffffff" stroke="#45413c" stroke-linecap="round" stroke-linejoin="round"></path><path d="M21.144,50a1,1,0,0,1-.654-.939l0-4.735H15.627l0,4.317a1,1,0,0,1-.767.972,10.043,10.043,0,0,0-1.533.494l1.024,1.975a6.36,6.36,0,0,0,7.579-.133l.68-1.278A9.95,9.95,0,0,0,21.144,50Z" fill="#ffda8f" stroke="#45413c" stroke-linecap="round" stroke-linejoin="round"></path><path d="M68.548,71.57a8.217,8.217,0,0,1-.687-3.3h16.5a8.223,8.223,0,0,1-.687,3.3Z" fill="#adc4d9"></path><path d="M84.361,68.27a8.25,8.25,0,0,1-16.5,0Z" fill="none" stroke="#45413c" stroke-linecap="round" stroke-linejoin="round"></path><path d="M18.061,32.406a6.618,6.618,0,0,0-6.619,6.619v1.323c-1.89,0-1.76,3.31.331,3.31l.006,0a6.6,6.6,0,0,0,12.9-1.984V39.025A6.618,6.618,0,0,0,18.061,32.406Z" fill="#ffda8f" stroke="#45413c" stroke-linecap="round" stroke-linejoin="round"></path><path d="M16.243,43.161a.83.83,0,1,1-.83-.83A.829.829,0,0,1,16.243,43.161Z" fill="#ffbe3d"></path><path d="M17.73,44.257a2.484,2.484,0,0,0,2.92.274,2.859,2.859,0,0,0,.389-.274" fill="none" stroke="#45413c" stroke-linecap="round" stroke-linejoin="round"></path><path d="M16.066,40.623a.936.936,0,0,1,1.324,0" fill="none" stroke="#45413c" stroke-linecap="round" stroke-linejoin="round"></path><path d="M21.362,40.623a.934.934,0,0,1,1.323,0" fill="none" stroke="#45413c" stroke-linecap="round" stroke-linejoin="round"></path><path d="M14.411,36.36c2.9,2.815,7.908,2.351,10.921,1.331a7.28,7.28,0,0,0-14.56.011V40s3.639-.91,3.639-3.64" fill="#614b44" stroke="#45413c" stroke-linecap="round" stroke-linejoin="round"></path><path d="M18.052,33.63a7.282,7.282,0,0,1,6.607,4.27c.226-.064.463-.138.673-.209a7.28,7.28,0,0,0-14.56.011V40l.094-.026A7.257,7.257,0,0,1,18.052,33.63Z" fill="#947063"></path><path d="M14.411,36.36c2.9,2.815,7.908,2.351,10.921,1.331a7.28,7.28,0,0,0-14.56.011V40s3.639-.91,3.639-3.64" fill="none" stroke="#45413c" stroke-linecap="round" stroke-linejoin="round"></path><path d="M14.411,36.36c-.335-.325-.384-.273-.656-.69" fill="none" stroke="#45413c" stroke-linecap="round" stroke-linejoin="round"></path></g></svg>