<svg xmlns="http://www.w3.org/2000/svg" version="1.1" xmlns:xlink="http://www.w3.org/1999/xlink" xmlns:svgjs="http://svgjs.com/svgjs" viewBox="0 0 200 200" width="200" height="200"><g transform="matrix(2,0,0,2,0,0)"><path d="M11.361 54.682 A40.000 40.000 0 1 0 91.361 54.682 A40.000 40.000 0 1 0 11.361 54.682 Z" fill="#e8f4fa" stroke="#daedf7" stroke-linecap="round" stroke-linejoin="round"></path><path d="M27.254 88.134 A27.5 2.2 0 1 0 82.254 88.134 A27.5 2.2 0 1 0 27.254 88.134 Z" fill="#45413c" opacity=".15"></path><path d="M17.578 28.751H27.721V34.718H17.578z" fill="#ffffff" transform="matrix(0.505, -0.863, 0.863, 0.505, -16.178, 35.265)"></path><path d="M22.634,25.85,20.44,29.6a5.777,5.777,0,0,0,2.742,2.9l1.914.957,2.689-4.6Z" fill="#daedf7"></path><path d="M17.578 28.751H27.721V34.718H17.578z" fill="none" stroke="#45413c" stroke-linecap="round" stroke-linejoin="round" transform="matrix(0.505, -0.863, 0.863, 0.505, -16.178, 35.265)"></path><path d="M22.363,38.133l-2.684,5.861a10.932,10.932,0,0,1-3.039,3.925l-5.15-3.012a10.924,10.924,0,0,1,1.931-4.573l3.792-5.213Z" fill="#ffffff" stroke="#45413c" stroke-linecap="round" stroke-linejoin="round"></path><path d="M22.45,36.8a1.193,1.193,0,1,1-1.2,2.06l-4.121-2.409a1.194,1.194,0,0,1,1.2-2.061Z" fill="#e0e0e0" stroke="#45413c" stroke-linecap="round" stroke-linejoin="round"></path><path d="M11.49,44.907,9.041,49.1a4.77,4.77,0,0,0-.592,3.168L9.05,56a1.189,1.189,0,0,0,2.361-.143l.157-3.991,1.506-2.575L14.1,51.959a1.073,1.073,0,0,0,2.067-.252l.473-3.788Z" fill="#ffffff" stroke="#45413c" stroke-linecap="round" stroke-linejoin="round"></path><path d="M32.857 43.982H45.984V54.125H32.857z" fill="#87898c"></path><path d="M32.857 43.982H45.984V47.562H32.857z" fill="#656769"></path><path d="M32.857 43.982H45.984V54.125H32.857z" fill="none" stroke="#45413c" stroke-linecap="round" stroke-linejoin="round"></path><path d="M30.47,17.132a2.736,2.736,0,0,1-2.387-2.984,2.736,2.736,0,0,1,2.387-2.983Z" fill="#ffffff"></path><path d="M28.282,12.955a3.636,3.636,0,0,0-.2,1.193,2.736,2.736,0,0,0,2.387,2.984V14.745A2.437,2.437,0,0,1,28.282,12.955Z" fill="#e0e0e0"></path><path d="M30.47,17.132a2.736,2.736,0,0,1-2.387-2.984,2.736,2.736,0,0,1,2.387-2.983Z" fill="none" stroke="#45413c" stroke-linecap="round" stroke-linejoin="round"></path><path d="M48.37,17.132a2.736,2.736,0,0,0,2.387-2.984,2.736,2.736,0,0,0-2.387-2.983Z" fill="#ffffff"></path><path d="M50.557,12.955a3.61,3.61,0,0,1,.2,1.193,2.736,2.736,0,0,1-2.387,2.984V14.745A2.435,2.435,0,0,0,50.557,12.955Z" fill="#e0e0e0"></path><path d="M48.37,17.132a2.736,2.736,0,0,0,2.387-2.984,2.736,2.736,0,0,0-2.387-2.983Z" fill="none" stroke="#45413c" stroke-linecap="round" stroke-linejoin="round"></path><path d="M45.983,19.518a2.387,2.387,0,0,0,2.387-2.386V10.677a4.774,4.774,0,0,0-3.745-4.663,26.149,26.149,0,0,0-5.2-.7,26.14,26.14,0,0,0-5.2.7,4.767,4.767,0,0,0-3.745,4.663v6.455a2.387,2.387,0,0,0,2.387,2.386Z" fill="#ffffff" stroke="#45413c" stroke-linecap="round" stroke-linejoin="round"></path><path d="M38.227 85.151L26.293 85.151 26.293 83.957 27.487 80.378 37.033 80.378 38.227 83.957 38.227 85.151z" fill="#ffffff" stroke="#45413c" stroke-linecap="round" stroke-linejoin="round"></path><path d="M37.033,56.511H27.487V52.738a1,1,0,0,1,1-1h7.546a1,1,0,0,1,1,1Z" fill="#656769" stroke="#45413c" stroke-linecap="round" stroke-linejoin="round"></path><path d="M26.89,31.452l-2.553-1.277a4.017,4.017,0,0,1,1.229-7.569l4.9-.7Z" fill="#ffffff" stroke="#45413c" stroke-linecap="round" stroke-linejoin="round"></path><path d="M35.437,46.965H29.083a1,1,0,0,1-1-1V43.982h8.354v1.983A1,1,0,0,1,35.437,46.965Z" fill="#f0f0f0" stroke="#45413c" stroke-linecap="round" stroke-linejoin="round"></path><path d="M35.243 46.965L34.647 51.738 29.873 51.738 29.277 46.965 35.243 46.965z" fill="#e0e0e0" stroke="#45413c" stroke-linecap="round" stroke-linejoin="round"></path><path d="M29.873 51.738 A2.387 2.387 0 1 0 34.647 51.738 A2.387 2.387 0 1 0 29.873 51.738 Z" fill="#f0f0f0" stroke="#45413c" stroke-linecap="round" stroke-linejoin="round"></path><path d="M32.26,52.335a2.388,2.388,0,0,1-2.213-1.492,2.388,2.388,0,1,0,4.425,0A2.386,2.386,0,0,1,32.26,52.335Z" fill="#bdbec0"></path><path d="M29.873 51.738 A2.387 2.387 0 1 0 34.647 51.738 A2.387 2.387 0 1 0 29.873 51.738 Z" fill="none" stroke="#45413c" stroke-linecap="round" stroke-linejoin="round"></path><path d="M36.033,66.058H28.487a1,1,0,0,1-1-1V56.511h9.546v8.547A1,1,0,0,1,36.033,66.058Z" fill="#ffffff" stroke="#45413c" stroke-linecap="round" stroke-linejoin="round"></path><path d="M37.033,80.378H27.487V69.445a1,1,0,0,1,1-1h7.546a1,1,0,0,1,1,1Z" fill="#ffffff" stroke="#45413c" stroke-linecap="round" stroke-linejoin="round"></path><path d="M29.873 80.378 A2.387 2.387 0 1 0 34.647 80.378 A2.387 2.387 0 1 0 29.873 80.378 Z" fill="#ffffff"></path><path d="M32.26,80.975a2.39,2.39,0,0,1-2.213-1.492,2.388,2.388,0,1,0,4.425,0A2.387,2.387,0,0,1,32.26,80.975Z" fill="#e0e0e0"></path><path d="M29.873 80.378 A2.387 2.387 0 1 0 34.647 80.378 A2.387 2.387 0 1 0 29.873 80.378 Z" fill="none" stroke="#45413c" stroke-linecap="round" stroke-linejoin="round"></path><path d="M28.68 66.058H32.26V68.44500000000001H28.68z" fill="#656769" stroke="#45413c" stroke-linecap="round" stroke-linejoin="round"></path><path d="M32.26 66.058H35.839999999999996V68.44500000000001H32.26z" fill="#bdbec0" stroke="#45413c" stroke-linecap="round" stroke-linejoin="round"></path><path d="M37.227,87.538H27.293a1,1,0,0,1-1-1V85.151H38.227v1.387A1,1,0,0,1,37.227,87.538Z" fill="#525252" stroke="#45413c" stroke-linecap="round" stroke-linejoin="round"></path><path d="M55.653 23.475H61.62V33.618H55.653z" fill="#ffffff" transform="translate(10.513 72.561) rotate(-68.405)"></path><path d="M55.019,23.906l4.042,1.6a5.778,5.778,0,0,1-.37,3.975l-.916,1.933-4.952-1.96Z" fill="#daedf7"></path><path d="M55.653 23.475H61.62V33.618H55.653z" fill="none" stroke="#45413c" stroke-linecap="round" stroke-linejoin="round" transform="translate(10.513 72.561) rotate(-68.405)"></path><path d="M62.809,33.407l5.728,2.957a10.918,10.918,0,0,0,4.813,1.215l2.2-5.548a10.931,10.931,0,0,0-4.341-2.408l-6.2-1.764Z" fill="#ffffff" stroke="#45413c" stroke-linecap="round" stroke-linejoin="round"></path><path d="M61.919,32.413a1.193,1.193,0,1,0,2.219.878L65.9,28.853a1.193,1.193,0,1,0-2.219-.878Z" fill="#e0e0e0" stroke="#45413c" stroke-linecap="round" stroke-linejoin="round"></path><path d="M75.546,32.031l4.51,1.785a4.781,4.781,0,0,1,2.421,2.13l1.83,3.311A1.188,1.188,0,0,1,82.361,40.6l-2.585-3.045L77,36.458l.839,2.734a1.073,1.073,0,0,1-1.782,1.076L73.35,37.579Z" fill="#ffffff" stroke="#45413c" stroke-linecap="round" stroke-linejoin="round"></path><path d="M40.613 85.151L52.546 85.151 52.546 83.957 51.353 80.378 41.807 80.378 40.613 83.957 40.613 85.151z" fill="#ffffff" stroke="#45413c" stroke-linecap="round" stroke-linejoin="round"></path><path d="M41.807,56.511h9.546V52.738a1,1,0,0,0-1-1H42.807a1,1,0,0,0-1,1Z" fill="#656769" stroke="#45413c" stroke-linecap="round" stroke-linejoin="round"></path><path d="M51.95,31.452,54.5,30.175a4.017,4.017,0,0,0-1.229-7.569l-4.9-.7Z" fill="#ffffff" stroke="#45413c" stroke-linecap="round" stroke-linejoin="round"></path><path d="M43.4,46.965h6.354a1,1,0,0,0,1-1V43.982H42.4v1.983A1,1,0,0,0,43.4,46.965Z" fill="#f0f0f0" stroke="#45413c" stroke-linecap="round" stroke-linejoin="round"></path><path d="M43.597 46.965L44.193 51.738 48.967 51.738 49.563 46.965 43.597 46.965z" fill="#e0e0e0" stroke="#45413c" stroke-linecap="round" stroke-linejoin="round"></path><path d="M44.193 51.738 A2.387 2.387 0 1 0 48.967 51.738 A2.387 2.387 0 1 0 44.193 51.738 Z" fill="#f0f0f0" stroke="#45413c" stroke-linecap="round" stroke-linejoin="round"></path><path d="M46.58,52.335a2.386,2.386,0,0,0,2.212-1.492,2.387,2.387,0,1,1-4.425,0A2.388,2.388,0,0,0,46.58,52.335Z" fill="#bdbec0"></path><path d="M44.193 51.738 A2.387 2.387 0 1 0 48.967 51.738 A2.387 2.387 0 1 0 44.193 51.738 Z" fill="none" stroke="#45413c" stroke-linecap="round" stroke-linejoin="round"></path><path d="M42.807,66.058h7.546a1,1,0,0,0,1-1V56.511H41.807v8.547A1,1,0,0,0,42.807,66.058Z" fill="#ffffff" stroke="#45413c" stroke-linecap="round" stroke-linejoin="round"></path><path d="M41.807,80.378h9.546V69.445a1,1,0,0,0-1-1H42.807a1,1,0,0,0-1,1Z" fill="#ffffff" stroke="#45413c" stroke-linecap="round" stroke-linejoin="round"></path><path d="M44.193 80.378 A2.387 2.387 0 1 0 48.967 80.378 A2.387 2.387 0 1 0 44.193 80.378 Z" fill="#ffffff"></path><path d="M46.58,80.975a2.388,2.388,0,0,0,2.212-1.492,2.387,2.387,0,1,1-4.425,0A2.388,2.388,0,0,0,46.58,80.975Z" fill="#e0e0e0"></path><path d="M44.193 80.378 A2.387 2.387 0 1 0 48.967 80.378 A2.387 2.387 0 1 0 44.193 80.378 Z" fill="none" stroke="#45413c" stroke-linecap="round" stroke-linejoin="round"></path><path d="M46.58 66.058H50.16V68.44500000000001H46.58z" fill="#656769" stroke="#45413c" stroke-linecap="round" stroke-linejoin="round"></path><path d="M43 66.058H46.58V68.44500000000001H43z" fill="#bdbec0" stroke="#45413c" stroke-linecap="round" stroke-linejoin="round"></path><path d="M41.613,87.538h9.933a1,1,0,0,0,1-1V85.151H40.613v1.387A1,1,0,0,0,41.613,87.538Z" fill="#525252" stroke="#45413c" stroke-linecap="round" stroke-linejoin="round"></path><path d="M48.37,21.905H30.47l-3.58,9.547V42.788a1.194,1.194,0,0,0,1.193,1.194H50.757a1.194,1.194,0,0,0,1.193-1.194V31.452Z" fill="#ffffff" stroke="#45413c" stroke-linecap="round" stroke-linejoin="round"></path><path d="M45.387,19.518H33.453V11.049a2.387,2.387,0,0,1,1.747-2.3,15.984,15.984,0,0,1,8.439,0,2.382,2.382,0,0,1,1.748,2.3Z" fill="#45413c"></path><path d="M44.061,8.91a2.478,2.478,0,0,0-.421-.162,16.015,16.015,0,0,0-8.44,0,2.389,2.389,0,0,0-1.747,2.3v8.469Z" fill="#656769"></path><path d="M45.387,19.518H33.453V11.049a2.387,2.387,0,0,1,1.747-2.3,15.984,15.984,0,0,1,8.439,0,2.382,2.382,0,0,1,1.748,2.3Z" fill="none" stroke="#45413c" stroke-linecap="round" stroke-linejoin="round"></path><path d="M35.243 19.518H43.596000000000004V21.905H35.243z" fill="#87898c" stroke="#45413c" stroke-linecap="round" stroke-linejoin="round"></path><path d="M40.21,26.678H38.63a1,1,0,0,1-1-1V21.905h3.58v3.773A1,1,0,0,1,40.21,26.678Z" fill="#525252"></path><path d="M37.63 21.905L37.63 25.485 41.21 21.905 37.63 21.905z" fill="#87898c"></path><path d="M40.21,26.678H38.63a1,1,0,0,1-1-1V21.905h3.58v3.773A1,1,0,0,1,40.21,26.678Z" fill="none" stroke="#45413c" stroke-linecap="round" stroke-linejoin="round"></path><path d="M44.79,31.452A1.193,1.193,0,0,1,43.6,32.645H35.243a1.194,1.194,0,0,1,0-2.387H43.6A1.194,1.194,0,0,1,44.79,31.452Z" fill="#bdbec0" stroke="#45413c" stroke-linecap="round" stroke-linejoin="round"></path><path d="M82.887,77.934a4.866,4.866,0,0,0,2.369.367,4.38,4.38,0,0,0,3.908-2.943,9.27,9.27,0,0,0,.534-2.984.894.894,0,0,1,1.782-.123,11.365,11.365,0,0,1-.049,3.739,7.324,7.324,0,0,1-1.855,3.633,7.838,7.838,0,0,1-3.658,2.106,8.643,8.643,0,0,1-4.333.05l-.043-.011A2.042,2.042,0,0,1,82.5,77.8,2.2,2.2,0,0,1,82.887,77.934Z" fill="#525252"></path><path d="M82.149,79.476a2.161,2.161,0,0,1,.387.136,4.865,4.865,0,0,0,2.369.368,4.383,4.383,0,0,0,3.908-2.944,6.617,6.617,0,0,0,.446-1.919c-.03.081-.061.162-.095.241A4.383,4.383,0,0,1,85.256,78.3a4.877,4.877,0,0,1-2.369-.368A2.2,2.2,0,0,0,82.5,77.8a2.043,2.043,0,0,0-2.468,2.445A2.042,2.042,0,0,1,82.149,79.476Z" fill="#656769"></path><path d="M82.887,77.934a4.866,4.866,0,0,0,2.369.367,4.38,4.38,0,0,0,3.908-2.943,9.27,9.27,0,0,0,.534-2.984.894.894,0,0,1,1.782-.123,11.365,11.365,0,0,1-.049,3.739,7.324,7.324,0,0,1-1.855,3.633,7.838,7.838,0,0,1-3.658,2.106,8.643,8.643,0,0,1-4.333.05l-.043-.011A2.042,2.042,0,0,1,82.5,77.8,2.2,2.2,0,0,1,82.887,77.934Z" fill="none" stroke="#45413c" stroke-linecap="round" stroke-linejoin="round"></path><path d="M67.646 60.897H71.226V72.83H67.646z" fill="#525252" stroke="#45413c" stroke-linecap="round" stroke-linejoin="round" transform="translate(-11.939 15.19) rotate(-11.503)"></path><path d="M64.275,83.957a3.151,3.151,0,0,0-3.056,2.388,1.194,1.194,0,0,0,1.194,1.193l4.774,0,0-3.58Z" fill="#525252" stroke="#45413c" stroke-linecap="round" stroke-linejoin="round"></path><path d="M81.909,82.467a5.369,5.369,0,0,0-.55-7.574,5.271,5.271,0,0,0-2.7-1.236,3.584,3.584,0,0,1-2.913-2.519,5.271,5.271,0,0,0-1.612-2.489,5.37,5.37,0,1,0-7.025,8.123,5.274,5.274,0,0,0,2.7,1.236,3.584,3.584,0,0,1,2.913,2.519,5.281,5.281,0,0,0,1.612,2.49A5.37,5.37,0,0,0,81.909,82.467Z" fill="#ffffff"></path><path d="M81.909,80.354a5.37,5.37,0,0,1-7.575.549,5.277,5.277,0,0,1-1.612-2.49A3.584,3.584,0,0,0,69.809,75.9a5.282,5.282,0,0,1-2.7-1.236,5.35,5.35,0,0,1-1.753-3.007,5.368,5.368,0,0,0,1.753,5.12,5.274,5.274,0,0,0,2.7,1.236,3.584,3.584,0,0,1,2.913,2.518,5.279,5.279,0,0,0,1.612,2.491A5.37,5.37,0,0,0,83.112,77.9,5.349,5.349,0,0,1,81.909,80.354Z" fill="#e8f4fa"></path><path d="M76,82.664a1.79,1.79,0,1,1,0-3.58h2.983a1.79,1.79,0,1,1,0,3.58Z" fill="#daedf7"></path><path d="M81.909,82.467a5.369,5.369,0,0,0-.55-7.574,5.271,5.271,0,0,0-2.7-1.236,3.584,3.584,0,0,1-2.913-2.519,5.271,5.271,0,0,0-1.612-2.489,5.37,5.37,0,1,0-7.025,8.123,5.274,5.274,0,0,0,2.7,1.236,3.584,3.584,0,0,1,2.913,2.519,5.281,5.281,0,0,0,1.612,2.49A5.37,5.37,0,0,0,81.909,82.467Z" fill="none" stroke="#45413c" stroke-linecap="round" stroke-linejoin="round"></path><path d="M65.668 74.225 L72.828 74.225 L72.828 77.805 L65.668 77.805 Z" fill="#ffffff" transform="translate(-27.557 110.689) rotate(-67.374)"></path><path d="M65.668 74.225 L72.828 74.225 L72.828 77.805 L65.668 77.805 Z" fill="none" stroke="#45413c" stroke-linecap="round" stroke-linejoin="round" transform="translate(-27.557 110.689) rotate(-67.374)"></path><path d="M69.746,84.58a2.588,2.588,0,1,1-5.123,0l.516-3.628a2.064,2.064,0,0,1,4.087,0Z" fill="#ffffff"></path><path d="M69.629,83.763a2.587,2.587,0,0,1-4.889,0l-.117.823a2.588,2.588,0,1,0,5.123,0Z" fill="#daedf7"></path><path d="M69.746,84.58a2.588,2.588,0,1,1-5.123,0l.516-3.628a2.064,2.064,0,0,1,4.087,0Z" fill="none" stroke="#45413c" stroke-linecap="round" stroke-linejoin="round"></path><path d="M76,81.064a1.79,1.79,0,0,1,0-3.58h2.983a1.79,1.79,0,0,1,0,3.58Z" fill="#ffffff"></path><path d="M78.979,79.274H76a1.787,1.787,0,0,1-1.55-.895,1.772,1.772,0,0,0-.24.895A1.79,1.79,0,0,0,76,81.064h2.983a1.79,1.79,0,0,0,1.55-2.685A1.79,1.79,0,0,1,78.979,79.274Z" fill="#daedf7"></path><path d="M76,81.064a1.79,1.79,0,0,1,0-3.58h2.983a1.79,1.79,0,0,1,0,3.58Z" fill="none" stroke="#45413c" stroke-linecap="round" stroke-linejoin="round"></path><path d="M74.874,83.957a3.15,3.15,0,0,0-3.055,2.388,1.194,1.194,0,0,0,1.194,1.193l3.972,0,0-3.58Z" fill="#525252" stroke="#45413c" stroke-linecap="round" stroke-linejoin="round"></path><path d="M79.207,83.53a2.587,2.587,0,1,1-4.643,2.164L73.5,82.187a2.064,2.064,0,0,1,3.7-1.726Z" fill="#ffffff"></path><path d="M74.564,85.694a2.587,2.587,0,1,0,4.643-2.164v0c-.007.029-.014.058-.022.086a2.587,2.587,0,0,1-4.964.04Z" fill="#daedf7"></path><path d="M79.207,83.53a2.587,2.587,0,1,1-4.643,2.164L73.5,82.187a2.064,2.064,0,0,1,3.7-1.726Z" fill="none" stroke="#45413c" stroke-linecap="round" stroke-linejoin="round"></path><path d="M60.247,52.463a2.387,2.387,0,0,0-2.622,1.41L56.5,56.511a2.387,2.387,0,0,0,1.258,3.132l10.613,4.534a2.39,2.39,0,0,0,1.827.02l1.3-.521A2.387,2.387,0,0,0,72.8,62.4l1.183-2.771a3.755,3.755,0,0,0-2.78-5.17Z" fill="#ffffff"></path><path d="M60.168,54.849l10.955,2a3.755,3.755,0,0,1,2.925,2.62A3.755,3.755,0,0,0,72,54.7a3.671,3.671,0,0,0-.8-.241l-10.954-2Z" fill="#f0f0f0"></path><path d="M60.247,52.463a2.387,2.387,0,0,0-2.622,1.41L56.5,56.511a2.387,2.387,0,0,0,1.258,3.132l10.613,4.534a2.39,2.39,0,0,0,1.827.02l1.3-.521A2.387,2.387,0,0,0,72.8,62.4l1.183-2.771a3.755,3.755,0,0,0-2.78-5.17Z" fill="none" stroke="#45413c" stroke-linecap="round" stroke-linejoin="round"></path><path d="M72,54.7a3.843,3.843,0,0,0-.8-.241L60.247,52.463a2.385,2.385,0,0,0-2.622,1.41l-.892,2.089,9.328,3.985a3.58,3.58,0,0,0,4.7-1.886l1.405-3.289Z" fill="#45413c"></path><path d="M72,54.7a3.843,3.843,0,0,0-.8-.241L60.247,52.463a2.385,2.385,0,0,0-2.622,1.41l-.892,2.089h0a2.388,2.388,0,0,1,2.575-1.3l10.955,1.995a3.819,3.819,0,0,1,.8.241c.054.023.107.048.159.073l.938-2.2Z" fill="#656769"></path><path d="M72,54.7a3.843,3.843,0,0,0-.8-.241L60.247,52.463a2.385,2.385,0,0,0-2.622,1.41l-.892,2.089,9.328,3.985a3.58,3.58,0,0,0,4.7-1.886l1.405-3.289Z" fill="none" stroke="#45413c" stroke-linecap="round" stroke-linejoin="round"></path><path d="M78.262,54.442a.954.954,0,0,1,0,.682,2.773,2.773,0,0,1-1.688,1.569,2.584,2.584,0,0,1-2.656-.253l-.215-.557a2.584,2.584,0,0,1,1.8-1.973,2.775,2.775,0,0,1,2.3.027A.957.957,0,0,1,78.262,54.442Z" fill="#525252" stroke="#45413c" stroke-linecap="round" stroke-linejoin="round"></path></g></svg>