<svg xmlns="http://www.w3.org/2000/svg" version="1.1" xmlns:xlink="http://www.w3.org/1999/xlink" xmlns:svgjs="http://svgjs.com/svgjs" viewBox="0 0 200 200" width="200" height="200"><g transform="matrix(2,0,0,2,0,0)"><path d="M10.000 50.000 A40.000 40.000 0 1 0 90.000 50.000 A40.000 40.000 0 1 0 10.000 50.000 Z" fill="#e8f4fa" stroke="#daedf7" stroke-linecap="round" stroke-linejoin="round"></path><path d="M59.45,39.4a11.475,11.475,0,0,0,0-22.95H40.55a11.475,11.475,0,1,0,0,22.95Z" fill="#ffffff"></path><path d="M70.536,30.9a11.449,11.449,0,0,1-9.061,4.45H38.525a11.449,11.449,0,0,1-9.061-4.45A11.481,11.481,0,0,0,40.55,39.4h18.9A11.481,11.481,0,0,0,70.536,30.9Z" fill="#e8f4fa"></path><path d="M59.45,39.4a11.475,11.475,0,0,0,0-22.95H40.55a11.475,11.475,0,1,0,0,22.95Z" fill="none" stroke="#45413c" stroke-linecap="round" stroke-linejoin="round"></path><path d="M84.893,46.528a11.432,11.432,0,0,1-8.708,15.3L65.314,63.745a2.025,2.025,0,1,0,.7,3.989l10.871-1.919A15.482,15.482,0,0,0,88.682,45.1Z" fill="#adc4d9" stroke="#45413c" stroke-miterlimit="10"></path><path d="M72.95,40.693a1.631,1.631,0,0,1,2.013-1.575,1.78,1.78,0,0,1,1.362,1.707A5.4,5.4,0,1,0,81.8,35.351a1.782,1.782,0,0,1-1.707-1.362,1.63,1.63,0,0,1,1.574-2.013,8.774,8.774,0,1,1-8.717,8.717Z" fill="#f0f0f0" stroke="#45413c" stroke-linecap="round" stroke-linejoin="round"></path><path d="M78.841 61.018L80.594 64.671" fill="none" stroke="#45413c" stroke-miterlimit="10"></path><path d="M73.89 62.232L74.614 66.063" fill="none" stroke="#45413c" stroke-miterlimit="10"></path><path d="M82.46 58.474L85.305 61.359" fill="none" stroke="#45413c" stroke-miterlimit="10"></path><path d="M84.867 54.678L88.582 56.299" fill="none" stroke="#45413c" stroke-miterlimit="10"></path><path d="M89.684 50.787L85.629 50.886" fill="none" stroke="#45413c" stroke-miterlimit="10"></path><path d="M15.107,46.528a11.432,11.432,0,0,0,8.708,15.3l10.871,1.918a2.025,2.025,0,1,1-.7,3.989L23.111,65.815A15.482,15.482,0,0,1,11.318,45.1Z" fill="#adc4d9" stroke="#45413c" stroke-miterlimit="10"></path><path d="M27.05,40.693a1.631,1.631,0,0,0-2.013-1.575,1.78,1.78,0,0,0-1.362,1.707A5.4,5.4,0,1,1,18.2,35.351a1.782,1.782,0,0,0,1.707-1.362,1.63,1.63,0,0,0-1.574-2.013,8.774,8.774,0,1,0,8.717,8.717Z" fill="#f0f0f0" stroke="#45413c" stroke-linecap="round" stroke-linejoin="round"></path><path d="M21.159 61.018L19.406 64.671" fill="none" stroke="#45413c" stroke-miterlimit="10"></path><path d="M26.11 62.232L25.386 66.063" fill="none" stroke="#45413c" stroke-miterlimit="10"></path><path d="M17.54 58.474L14.695 61.359" fill="none" stroke="#45413c" stroke-miterlimit="10"></path><path d="M15.133 54.678L11.418 56.299" fill="none" stroke="#45413c" stroke-miterlimit="10"></path><path d="M10.316 50.787L14.371 50.886" fill="none" stroke="#45413c" stroke-miterlimit="10"></path><path d="M33.800 27.925 A5.400 5.400 0 1 0 44.600 27.925 A5.400 5.400 0 1 0 33.800 27.925 Z" fill="#4aeff7"></path><path d="M33.800 27.925 A5.400 5.400 0 1 0 44.600 27.925 A5.400 5.400 0 1 0 33.800 27.925 Z" fill="none" stroke="#45413c" stroke-linecap="round" stroke-linejoin="round"></path><path d="M37.175 27.925 A2.025 2.025 0 1 0 41.225 27.925 A2.025 2.025 0 1 0 37.175 27.925 Z" fill="#00c9d4"></path><path d="M35.562 25.300 A1.013 1.013 0 1 0 37.588 25.300 A1.013 1.013 0 1 0 35.562 25.300 Z" fill="#a6fbff"></path><path d="M55.400 27.925 A5.400 5.400 0 1 0 66.200 27.925 A5.400 5.400 0 1 0 55.400 27.925 Z" fill="#4aeff7"></path><path d="M55.400 27.925 A5.400 5.400 0 1 0 66.200 27.925 A5.400 5.400 0 1 0 55.400 27.925 Z" fill="none" stroke="#45413c" stroke-linecap="round" stroke-linejoin="round"></path><path d="M58.775 27.925 A2.025 2.025 0 1 0 62.825 27.925 A2.025 2.025 0 1 0 58.775 27.925 Z" fill="#00c9d4"></path><path d="M57.162 25.300 A1.013 1.013 0 1 0 59.188 25.300 A1.013 1.013 0 1 0 57.162 25.300 Z" fill="#a6fbff"></path><path d="M30.425 55.600 L69.575 55.600 L69.575 76.525 L30.425 76.525 Z" fill="#ffffff"></path><path d="M64.575,72.475H35.425a5,5,0,0,1-5-5v4.05a5,5,0,0,0,5,5h29.15a5,5,0,0,0,5-5v-4.05A5,5,0,0,1,64.575,72.475Z" fill="#e8f4fa"></path><path d="M30.425 55.600 L69.575 55.600 L69.575 76.525 L30.425 76.525 Z" fill="none" stroke="#45413c" stroke-linecap="round" stroke-linejoin="round"></path><path d="M56.075,41.425A2.025,2.025,0,0,1,54.05,43.45h-8.1a2.025,2.025,0,0,1,0-4.05h8.1A2.025,2.025,0,0,1,56.075,41.425Z" fill="#adc4d9"></path><path d="M45.95,41.425h8.1A2.022,2.022,0,0,1,55.8,42.438,2.024,2.024,0,0,0,54.05,39.4h-8.1A2.024,2.024,0,0,0,44.2,42.438,2.022,2.022,0,0,1,45.95,41.425Z" fill="#8ca4b8"></path><path d="M56.075,41.425A2.025,2.025,0,0,1,54.05,43.45h-8.1a2.025,2.025,0,0,1,0-4.05h8.1A2.025,2.025,0,0,1,56.075,41.425Z" fill="none" stroke="#45413c" stroke-linecap="round" stroke-linejoin="round"></path><path d="M56.075,45.475A2.025,2.025,0,0,1,54.05,47.5h-8.1a2.025,2.025,0,0,1,0-4.05h8.1A2.025,2.025,0,0,1,56.075,45.475Z" fill="#adc4d9"></path><path d="M45.95,45.475h8.1A2.022,2.022,0,0,1,55.8,46.488,2.024,2.024,0,0,0,54.05,43.45h-8.1A2.024,2.024,0,0,0,44.2,46.488,2.022,2.022,0,0,1,45.95,45.475Z" fill="#8ca4b8"></path><path d="M56.075,45.475A2.025,2.025,0,0,1,54.05,47.5h-8.1a2.025,2.025,0,0,1,0-4.05h8.1A2.025,2.025,0,0,1,56.075,45.475Z" fill="none" stroke="#45413c" stroke-linecap="round" stroke-linejoin="round"></path><path d="M56.075,49.525A2.025,2.025,0,0,1,54.05,51.55h-8.1a2.025,2.025,0,0,1,0-4.05h8.1A2.025,2.025,0,0,1,56.075,49.525Z" fill="#adc4d9"></path><path d="M45.95,49.525h8.1A2.022,2.022,0,0,1,55.8,50.538,2.024,2.024,0,0,0,54.05,47.5h-8.1A2.024,2.024,0,0,0,44.2,50.538,2.022,2.022,0,0,1,45.95,49.525Z" fill="#8ca4b8"></path><path d="M56.075,49.525A2.025,2.025,0,0,1,54.05,51.55h-8.1a2.025,2.025,0,0,1,0-4.05h8.1A2.025,2.025,0,0,1,56.075,49.525Z" fill="none" stroke="#45413c" stroke-linecap="round" stroke-linejoin="round"></path><path d="M56.075,53.575A2.025,2.025,0,0,1,54.05,55.6h-8.1a2.025,2.025,0,0,1,0-4.05h8.1A2.025,2.025,0,0,1,56.075,53.575Z" fill="#adc4d9"></path><path d="M45.95,53.575h8.1A2.022,2.022,0,0,1,55.8,54.588,2.024,2.024,0,0,0,54.05,51.55h-8.1A2.024,2.024,0,0,0,44.2,54.588,2.022,2.022,0,0,1,45.95,53.575Z" fill="#8ca4b8"></path><path d="M56.075,53.575A2.025,2.025,0,0,1,54.05,55.6h-8.1a2.025,2.025,0,0,1,0-4.05h8.1A2.025,2.025,0,0,1,56.075,53.575Z" fill="none" stroke="#45413c" stroke-linecap="round" stroke-linejoin="round"></path><path d="M60.125,76.525H39.875V65.7a2,2,0,0,1,2-2h16.25a2,2,0,0,1,2,2Z" fill="#daedf7"></path><path d="M58.125,63.7H41.875a2,2,0,0,0-2,2v3.187a2,2,0,0,1,2-2h16.25a2,2,0,0,1,2,2V65.7A2,2,0,0,0,58.125,63.7Z" fill="#e8f4fa"></path><path d="M60.125,76.525H39.875V65.7a2,2,0,0,1,2-2h16.25a2,2,0,0,1,2,2Z" fill="none" stroke="#45413c" stroke-linecap="round" stroke-linejoin="round"></path><path d="M42.575 71.125 A2.700 2.700 0 1 0 47.975 71.125 A2.700 2.700 0 1 0 42.575 71.125 Z" fill="#00dfeb" stroke="#45413c" stroke-linecap="round" stroke-linejoin="round"></path><path d="M43.546 70.409 A1.013 1.013 0 1 0 45.572 70.409 A1.013 1.013 0 1 0 43.546 70.409 Z" fill="#a6fbff"></path><path d="M52.025 71.125 A2.700 2.700 0 1 0 57.425 71.125 A2.700 2.700 0 1 0 52.025 71.125 Z" fill="#00f5bc" stroke="#45413c" stroke-linecap="round" stroke-linejoin="round"></path><path d="M52.996 70.409 A1.013 1.013 0 1 0 55.022 70.409 A1.013 1.013 0 1 0 52.996 70.409 Z" fill="#ccfff3"></path><path d="M29.075 77.200 A20.925 1.35 0 1 0 70.925 77.200 A20.925 1.35 0 1 0 29.075 77.200 Z" fill="#45413c" opacity=".15"></path></g></svg>