<svg xmlns="http://www.w3.org/2000/svg" version="1.1" xmlns:xlink="http://www.w3.org/1999/xlink" xmlns:svgjs="http://svgjs.com/svgjs" viewBox="0 0 200 200" width="200" height="200"><g transform="matrix(2,0,0,2,0,0)"><path d="M10.981 45.045 A40.000 40.000 0 1 0 90.981 45.045 A40.000 40.000 0 1 0 10.981 45.045 Z" fill="#e8f4fa" stroke="#daedf7" stroke-miterlimit="10"></path><path d="M52.689 7.952 L92.957 7.952 L92.957 49.772 L52.689 49.772 Z" fill="#e4ffd1" stroke="#6dd627" stroke-miterlimit="10"></path><path d="M68.138,30.616v5.993a4.606,4.606,0,0,1-2.435,4.4c-1.518.63-3.036.724-4.555,2.761a.515.515,0,0,1-.726.173,1.1,1.1,0,0,1-.4-.914V33.636a9.193,9.193,0,0,1,1.112-4.6A9.658,9.658,0,0,1,63.4,26.322C65.553,24.64,68.138,27.014,68.138,30.616Z" fill="#c8ffa1" stroke="#6dd627" stroke-linecap="round" stroke-linejoin="round"></path><path d="M77.743,26.322c-2.149-1.682-4.735.692-4.735,4.294v5.993a4.607,4.607,0,0,0,2.435,4.4c1.519.63,3.037.724,4.555,2.761a.516.516,0,0,0,.726.173,1.1,1.1,0,0,0,.4-.914V33.636a9.193,9.193,0,0,0-1.112-4.6A9.657,9.657,0,0,0,77.743,26.322Z" fill="#c8ffa1" stroke="#6dd627" stroke-linecap="round" stroke-linejoin="round"></path><path d="M68.138 31.243L73.008 31.243" fill="none" stroke="#6dd627" stroke-linecap="round" stroke-linejoin="round"></path><path d="M70.573 19.214L70.573 31.243" fill="none" stroke="#6dd627" stroke-linecap="round" stroke-linejoin="round"></path><path d="M73.008,36.247a9.015,9.015,0,0,1,8.117,2.406" fill="none" stroke="#6dd627" stroke-linecap="round" stroke-linejoin="round"></path><path d="M73.008,31.243a9.015,9.015,0,0,1,8.117,2.406" fill="none" stroke="#6dd627" stroke-linecap="round" stroke-linejoin="round"></path><path d="M68.138,36.247a9.015,9.015,0,0,0-8.117,2.406" fill="none" stroke="#6dd627" stroke-linecap="round" stroke-linejoin="round"></path><path d="M68.138,31.243a9.015,9.015,0,0,0-8.117,2.406" fill="none" stroke="#6dd627" stroke-linecap="round" stroke-linejoin="round"></path><path d="M79.776 15.701L87.87 15.701" fill="none" stroke="#6dd627" stroke-linecap="round" stroke-linejoin="round"></path><path d="M79.776 19.748L87.87 19.748" fill="none" stroke="#6dd627" stroke-linecap="round" stroke-linejoin="round"></path><path d="M83.823 23.795L87.87 23.795" fill="none" stroke="#6dd627" stroke-linecap="round" stroke-linejoin="round"></path><path d="M83.436,54.912a.584.584,0,0,1,.645.581,6.129,6.129,0,1,1-7.412-6,.586.586,0,0,1,.7.51l.185,1.755a.584.584,0,0,1-.43.626,3.211,3.211,0,1,0,4.031,3.261.583.583,0,0,1,.522-.552Z" fill="#656769"></path><path d="M83.436,54.912a.584.584,0,0,1,.645.581,6.129,6.129,0,1,1-7.412-6,.586.586,0,0,1,.7.51l.185,1.755a.584.584,0,0,1-.43.626,3.211,3.211,0,1,0,4.031,3.261.583.583,0,0,1,.522-.552Z" fill="none" stroke="#45413c" stroke-linecap="round" stroke-linejoin="round"></path><path d="M53.949 54.73H58.619V72.243H53.949z" fill="#ffffff" transform="translate(-28.467 59.533) rotate(-45.771)"></path><path d="M50.3,57.078l1.337-1.373,5.778,5.624-.183.453a3.5,3.5,0,0,1-3.855,2.134l-4.194-4.082Z" fill="#e0e0e0"></path><path d="M53.949 54.73H58.619V72.243H53.949z" fill="none" stroke="#45413c" stroke-linecap="round" stroke-linejoin="round" transform="translate(-28.467 59.533) rotate(-45.771)"></path><path d="M62.293 63.246H75.17699999999999V67.916H62.293z" fill="#ffffff" transform="translate(-26.185 61.635) rotate(-41.274)"></path><path d="M69.075,62.176l2.962-2.6,3.08,3.51-2.9,2.545A3.5,3.5,0,0,1,69.075,62.176Z" fill="#e0e0e0"></path><path d="M62.293 63.246H75.17699999999999V67.916H62.293z" fill="none" stroke="#45413c" stroke-linecap="round" stroke-linejoin="round" transform="translate(-26.185 61.635) rotate(-41.274)"></path><path d="M71.322 60.239 A3.503 3.503 0 1 0 78.328 60.239 A3.503 3.503 0 1 0 71.322 60.239 Z" fill="#ffffff" stroke="#45413c" stroke-linecap="round" stroke-linejoin="round"></path><path d="M59.866 70.294 A3.503 3.503 0 1 0 66.872 70.294 A3.503 3.503 0 1 0 59.866 70.294 Z" fill="#ffffff" stroke="#45413c" stroke-linecap="round" stroke-linejoin="round"></path><path d="M34.731 47.35H39.401V52.02H34.731z" fill="#daedf7"></path><path d="M34.731 47.35H39.401V49.685H34.731z" fill="#c0dceb"></path><path d="M34.731 47.35H39.401V52.02H34.731z" fill="none" stroke="#45413c" stroke-linecap="round" stroke-linejoin="round"></path><path d="M27.726 52.020 L46.406 52.020 L46.406 69.533 L27.726 69.533 Z" fill="#ffffff" stroke="#45413c" stroke-linecap="round" stroke-linejoin="round"></path><path d="M33.563 69.533H40.568000000000005V75.479H33.563z" fill="#daedf7"></path><path d="M33.569 69.533H40.574000000000005V71.977H33.569z" fill="#c0dceb"></path><path d="M33.563 69.533H40.568000000000005V75.479H33.563z" fill="none" stroke="#45413c" stroke-linecap="round" stroke-linejoin="round"></path><path d="M41.736,60.193A2.335,2.335,0,0,1,39.4,62.528h-4.67A2.334,2.334,0,0,1,32.4,60.193V52.02h9.34Z" fill="#00b8f0"></path><path d="M40.177 52.02L32.396 59.796 32.396 52.02 40.177 52.02z" fill="#4acfff"></path><path d="M41.736,60.193A2.335,2.335,0,0,1,39.4,62.528h-4.67A2.334,2.334,0,0,1,32.4,60.193V52.02h9.34Z" fill="none" stroke="#45413c" stroke-linecap="round" stroke-linejoin="round"></path><path d="M43.75,75.479a2.335,2.335,0,0,1,2.2,3.114,9.344,9.344,0,0,1-17.617,0,2.335,2.335,0,0,1,2.2-3.114Z" fill="#ffffff" stroke="#45413c" stroke-linecap="round" stroke-linejoin="round"></path><path d="M7.744 61.897H25.257V66.567H7.744z" fill="#ffffff" transform="matrix(0.654, -0.757, 0.757, 0.654, -42.894, 34.731)"></path><path d="M22.54,57.879l1.451,1.253-5.271,6.1-.463-.156A3.5,3.5,0,0,1,15.9,61.357l3.826-4.429Z" fill="#e0e0e0"></path><path d="M7.744 61.897H25.257V66.567H7.744z" fill="none" stroke="#45413c" stroke-linecap="round" stroke-linejoin="round" transform="matrix(0.654, -0.757, 0.757, 0.654, -42.894, 34.731)"></path><path d="M27.726,60.193H23.037a3.5,3.5,0,0,1-3.5-3.5V55.523a3.5,3.5,0,0,1,3.5-3.5h2.335a2.364,2.364,0,0,1,2.354,2.335Z" fill="#ffffff" stroke="#45413c" stroke-linecap="round" stroke-linejoin="round"></path><path d="M10.987 70.934H15.657V83.818H10.987z" fill="#f0f0f0" transform="translate(-31.479 12.898) rotate(-25.023)"></path><path d="M16.5,78.655l1.667,3.571L13.931,84.2,12.3,80.7A3.5,3.5,0,0,1,16.5,78.655Z" fill="#e0e0e0"></path><path d="M10.987 70.934H15.657V83.818H10.987z" fill="none" stroke="#45413c" stroke-linecap="round" stroke-linejoin="round" transform="translate(-31.479 12.898) rotate(-25.023)"></path><path d="M19.451,94.475a.583.583,0,0,1-.738.457,6.13,6.13,0,1,1,7.831-5.438.586.586,0,0,1-.686.532l-1.738-.313a.584.584,0,0,1-.48-.589,3.211,3.211,0,1,0-4.259,2.958.583.583,0,0,1,.384.655Z" fill="#656769"></path><path d="M19.451,94.475a.583.583,0,0,1-.738.457,6.13,6.13,0,1,1,7.831-5.438.586.586,0,0,1-.686.532l-1.738-.313a.584.584,0,0,1-.48-.589,3.211,3.211,0,1,0-4.259,2.958.583.583,0,0,1,.384.655Z" fill="none" stroke="#45413c" stroke-linecap="round" stroke-linejoin="round"></path><path d="M13.244 84.718 A3.503 3.503 0 1 0 20.250 84.718 A3.503 3.503 0 1 0 13.244 84.718 Z" fill="#f0f0f0" stroke="#45413c" stroke-linecap="round" stroke-linejoin="round"></path><path d="M7.043 71.338 A3.503 3.503 0 1 0 14.049 71.338 A3.503 3.503 0 1 0 7.043 71.338 Z" fill="#f0f0f0" stroke="#45413c" stroke-linecap="round" stroke-linejoin="round"></path><path d="M46.406,60.193h4.688a3.5,3.5,0,0,0,3.5-3.5V55.523a3.5,3.5,0,0,0-3.5-3.5H48.759a2.362,2.362,0,0,0-2.353,2.335Z" fill="#ffffff" stroke="#45413c" stroke-linecap="round" stroke-linejoin="round"></path><path d="M20.990 22.614 L53.531 22.614 L53.531 48.182 L20.990 48.182 Z" fill="#00b8f0"></path><path d="M24.906,48.182h-.43A3.486,3.486,0,0,1,20.99,44.7V26.1a3.487,3.487,0,0,1,3.487-3.486H50.045Z" fill="#4acfff"></path><path d="M27.709,38.871a1.718,1.718,0,0,0,1.717-1.716,2.1,2.1,0,0,1,.645-1.775,2.494,2.494,0,0,1,.571,1.775,1.716,1.716,0,0,0,3.432,0c0-2.918-1.775-5.2-4.04-5.2s-4.041,2.285-4.041,5.2A1.718,1.718,0,0,0,27.709,38.871Z" fill="#ffffff" stroke="#009fd9" stroke-linecap="round" stroke-linejoin="round"></path><path d="M46.812,38.871A1.718,1.718,0,0,1,45.1,37.155a2.1,2.1,0,0,0-.645-1.775,2.494,2.494,0,0,0-.571,1.775,1.716,1.716,0,0,1-3.432,0c0-2.918,1.775-5.2,4.04-5.2s4.041,2.285,4.041,5.2A1.718,1.718,0,0,1,46.812,38.871Z" fill="#ffffff" stroke="#009fd9" stroke-linecap="round" stroke-linejoin="round"></path><path d="M20.990 22.614 L53.531 22.614 L53.531 48.182 L20.990 48.182 Z" fill="none" stroke="#45413c" stroke-linecap="round" stroke-linejoin="round"></path></g></svg>