<svg xmlns="http://www.w3.org/2000/svg" version="1.1" xmlns:xlink="http://www.w3.org/1999/xlink" xmlns:svgjs="http://svgjs.com/svgjs" viewBox="0 0 200 200" width="200" height="200"><g transform="matrix(2,0,0,2,0,0)"><path d="M6.205 52.008 A40.000 40.000 0 1 0 86.205 52.008 A40.000 40.000 0 1 0 6.205 52.008 Z" fill="#e8f4fa" stroke="#daedf7" stroke-miterlimit="10"></path><path d="M9.897 85.023 A22.364 2.022 0 1 0 54.625 85.023 A22.364 2.022 0 1 0 9.897 85.023 Z" fill="#45413c" opacity=".15"></path><path d="M47.319,83.585A2.888,2.888,0,0,0,49.8,80.609a90.162,90.162,0,0,0-5.806-29.092,2.889,2.889,0,0,0-5.411,2.024,85.511,85.511,0,0,1,5.445,27.3,2.889,2.889,0,0,0,3,2.771C47.128,83.607,47.224,83.6,47.319,83.585Z" fill="#daedf7" stroke="#45413c" stroke-linecap="round" stroke-linejoin="round"></path><path d="M53.842,81.536c0,2.932-2.971,2.655-6.636,2.655s-6.636.277-6.636-2.655,2.971-5.309,6.636-5.309S53.842,78.6,53.842,81.536Z" fill="#656769" stroke="#45413c" stroke-linecap="round" stroke-linejoin="round"></path><path d="M41.221,61.8a12.719,12.719,0,0,0,5.535-1.725" fill="none" stroke="#45413c" stroke-linecap="round" stroke-linejoin="round"></path><path d="M42.586,67.983a12.179,12.179,0,0,0,3.019-.276,12.356,12.356,0,0,0,2.654-.882" fill="none" stroke="#45413c" stroke-linecap="round" stroke-linejoin="round"></path><path d="M43.456,73.585a11.664,11.664,0,0,0,3.753-.22,12.685,12.685,0,0,0,1.96-.584" fill="none" stroke="#45413c" stroke-linecap="round" stroke-linejoin="round"></path><path d="M23.7,83.585a2.888,2.888,0,0,1-2.481-2.976,90.193,90.193,0,0,1,5.806-29.092,2.889,2.889,0,0,1,5.412,2.024,85.462,85.462,0,0,0-5.446,27.3,2.889,2.889,0,0,1-3,2.771C23.887,83.607,23.791,83.6,23.7,83.585Z" fill="#daedf7" stroke="#45413c" stroke-linecap="round" stroke-linejoin="round"></path><path d="M17.173,81.536c0,2.932,2.971,2.655,6.636,2.655s6.637.277,6.637-2.655-2.972-5.309-6.637-5.309S17.173,78.6,17.173,81.536Z" fill="#656769" stroke="#45413c" stroke-linecap="round" stroke-linejoin="round"></path><path d="M29.794,61.8a12.719,12.719,0,0,1-5.535-1.725" fill="none" stroke="#45413c" stroke-linecap="round" stroke-linejoin="round"></path><path d="M28.429,67.983a12.179,12.179,0,0,1-3.019-.276,12.356,12.356,0,0,1-2.654-.882" fill="none" stroke="#45413c" stroke-linecap="round" stroke-linejoin="round"></path><path d="M27.559,73.585a11.664,11.664,0,0,1-3.753-.22,12.685,12.685,0,0,1-1.96-.584" fill="none" stroke="#45413c" stroke-linecap="round" stroke-linejoin="round"></path><path d="M26.749,66.966a.631.631,0,0,0,.866-.358,6.617,6.617,0,1,0-9.707,3.42.631.631,0,0,0,.9-.264l.823-1.719a.629.629,0,0,0-.211-.792,3.466,3.466,0,1,1,5.279-1.86.629.629,0,0,0,.332.75Z" fill="#656769"></path><path d="M26.749,66.966a.631.631,0,0,0,.866-.358,6.617,6.617,0,1,0-9.707,3.42.631.631,0,0,0,.9-.264l.823-1.719a.629.629,0,0,0-.211-.792,3.466,3.466,0,1,1,5.279-1.86.629.629,0,0,0,.332.75Z" fill="none" stroke="#45413c" stroke-linecap="round" stroke-linejoin="round"></path><path d="M27.962,30.722c-.067.032-.133.067-.2.105-6.178,3.583-16.348,14.4-10.606,29.693a2.673,2.673,0,0,0,5.005-1.879C16.59,43.807,29.883,35.782,30.45,35.447a2.673,2.673,0,0,0-2.488-4.725Z" fill="#daedf7" stroke="#45413c" stroke-linecap="round" stroke-linejoin="round"></path><path d="M15.741,55.207a5.052,5.052,0,0,0,5.222-1.23" fill="none" stroke="#45413c" stroke-linecap="round" stroke-linejoin="round"></path><path d="M16.185,45.977A5.047,5.047,0,0,0,21.118,48.3" fill="none" stroke="#45413c" stroke-linecap="round" stroke-linejoin="round"></path><path d="M19.757,38.349a5.052,5.052,0,0,0,4.161,3.388" fill="none" stroke="#45413c" stroke-linecap="round" stroke-linejoin="round"></path><path d="M38.355,33.359c0,.075-.006.149-.006.226.121,7.141,4.617,21.29,20.77,23.723a2.673,2.673,0,1,0,.8-5.286C44.246,49.663,43.71,34.145,43.694,33.486a2.673,2.673,0,0,0-5.339-.127Z" fill="#daedf7" stroke="#45413c" stroke-linecap="round" stroke-linejoin="round"></path><path d="M53.79,55.956A5.053,5.053,0,0,0,55.259,50.8" fill="none" stroke="#45413c" stroke-linecap="round" stroke-linejoin="round"></path><path d="M45.944,51.074A5.049,5.049,0,0,0,50.375,47.9" fill="none" stroke="#45413c" stroke-linecap="round" stroke-linejoin="round"></path><path d="M41.021,44.239a5.049,5.049,0,0,0,4.985-1.984" fill="none" stroke="#45413c" stroke-linecap="round" stroke-linejoin="round"></path><path d="M33.565 25.444H36.866V28.744999999999997H33.565z" fill="#87898c" stroke="#45413c" stroke-linecap="round" stroke-linejoin="round"></path><path d="M44.415,49.257h-18.4V32.42a3.673,3.673,0,0,1,3.673-3.674H40.742a3.673,3.673,0,0,1,3.673,3.674Z" fill="#ffffff" stroke="#45413c" stroke-linecap="round" stroke-linejoin="round"></path><path d="M44.415,49.257a9.2,9.2,0,1,1-18.4,0Z" fill="#ffffff" stroke="#45413c" stroke-linecap="round" stroke-linejoin="round"></path><path d="M39.816,36.3a1.651,1.651,0,0,1-1.651,1.65h-5.9a1.651,1.651,0,0,1-1.651-1.65V28.746h9.2Z" fill="#4acfff" stroke="#45413c" stroke-linecap="round" stroke-linejoin="round"></path><path d="M26.016 17.191 A9.200 9.200 0 1 0 44.416 17.191 A9.200 9.200 0 1 0 26.016 17.191 Z" fill="#ffffff" stroke="#45413c" stroke-linecap="round" stroke-linejoin="round"></path><path d="M44.111,14.919c0-.029,0-.057,0-.087A9.214,9.214,0,0,0,32.961,8.27a7.557,7.557,0,1,0,11.15,6.649Z" fill="#525252" stroke="#45413c" stroke-linecap="round" stroke-linejoin="round"></path><path d="M38.349,76.179h.019c5.893-.093,7.716-8.934,9.477-17.485,1.453-7.051,3.1-15.044,6.78-15.044a6.466,6.466,0,0,1,6.38,4.52h0l2.364-.639a8.9,8.9,0,0,0-8.744-6.33c-5.676,0-7.377,8.257-9.179,17-1.493,7.251-3.187,15.469-7.116,15.53H34.639v2.5Z" fill="#656769" stroke="#45413c" stroke-linecap="round" stroke-linejoin="round"></path><path d="M78.46,82.154,60.4,48.205a.612.612,0,0,1,.253-.828l2.163-1.15a.612.612,0,0,1,.828.253l18.06,33.949Z" fill="#e8f4fa" stroke="#45413c" stroke-linecap="round" stroke-linejoin="round"></path><path d="M93.618,83.155a.612.612,0,0,1-.435,1.043H74.841a.613.613,0,0,1-.6-.734l.782-3.847a1.225,1.225,0,0,1,1.2-.98H87.1a4.9,4.9,0,0,1,3.482,1.453Z" fill="#656769" stroke="#45413c" stroke-linecap="round" stroke-linejoin="round"></path><path d="M37.534,78.183A4.9,4.9,0,0,1,32.765,84.2H17.245a7.348,7.348,0,0,1-7.013-9.54l.159-.508a8.572,8.572,0,0,1,9.593-5.9l8.465,1.413A11.23,11.23,0,0,1,37.534,78.183Z" fill="#ff6242" stroke="#45413c" stroke-linecap="round" stroke-linejoin="round"></path><path d="M8.835 78.270 A5.928 5.928 0 1 0 20.691 78.270 A5.928 5.928 0 1 0 8.835 78.270 Z" fill="#656769" stroke="#45413c" stroke-linecap="round" stroke-linejoin="round"></path><path d="M37.534,78.183a11.228,11.228,0,0,0-9.085-8.516l-3.106-.519L26.4,73.305a7.35,7.35,0,0,0,5.784,5.414l5.46,1.01A4.9,4.9,0,0,0,37.534,78.183Z" fill="#00b8f0"></path><path d="M28.585,76.935a23.084,23.084,0,0,0,5-4.985,11.211,11.211,0,0,0-5.136-2.283l-3.106-.519L26.4,73.305A7.34,7.34,0,0,0,28.585,76.935Z" fill="#4acfff"></path><path d="M37.534,78.183a11.228,11.228,0,0,0-9.085-8.516l-3.106-.519L26.4,73.305a7.35,7.35,0,0,0,5.784,5.414l5.46,1.01A4.9,4.9,0,0,0,37.534,78.183Z" fill="none" stroke="#45413c" stroke-linecap="round" stroke-linejoin="round"></path><path d="M70.05,53.416a.629.629,0,0,0,.316-.882,6.617,6.617,0,1,0-3.976,9.492.631.631,0,0,0,.407-.844l-.722-1.763a.63.63,0,0,0-.729-.375,3.466,3.466,0,1,1,2.162-5.163.63.63,0,0,0,.778.258Z" fill="#656769" stroke="#45413c" stroke-linecap="round" stroke-linejoin="round"></path><path d="M55.46,56.508a27.9,27.9,0,0,0,3.659.8,2.673,2.673,0,1,0,.8-5.286,22.8,22.8,0,0,1-2.765-.59" fill="#daedf7" stroke="#45413c" stroke-linecap="round" stroke-linejoin="round"></path><path d="M33.837 16.966 A0.82 2.051 0 1 0 35.477 16.966 A0.82 2.051 0 1 0 33.837 16.966 Z" fill="#4aeff7"></path><path d="M38.408 16.966 A0.82 2.051 0 1 0 40.048 16.966 A0.82 2.051 0 1 0 38.408 16.966 Z" fill="#4aeff7"></path></g></svg>