<svg xmlns="http://www.w3.org/2000/svg" version="1.1" xmlns:xlink="http://www.w3.org/1999/xlink" xmlns:svgjs="http://svgjs.com/svgjs" viewBox="0 0 200 200" width="200" height="200"><g transform="matrix(2,0,0,2,0,0)"><path d="M13.551,66.341a40.017,40.017,0,0,0,72.9,0Z" fill="#c0dceb"></path><path d="M86.449,66.341a40,40,0,1,0-72.9,0Z" fill="#c7f0ff"></path><path d="M11 66.341L89 66.341" fill="none" stroke="#45413c" stroke-linecap="round" stroke-linejoin="round"></path><path d="M6.5 66.341L9 66.341" fill="none" stroke="#45413c" stroke-linecap="round" stroke-linejoin="round"></path><path d="M91 66.341L93.5 66.341" fill="none" stroke="#45413c" stroke-linecap="round" stroke-linejoin="round"></path><path d="M24.542 44.276 L37.772 44.276 L37.772 60.153 L24.542 60.153 Z" fill="#ff6242"></path><path d="M37.772,46.923H24.542V45.335A1.059,1.059,0,0,1,25.6,44.276H36.714a1.058,1.058,0,0,1,1.058,1.059Z" fill="#ff866e"></path><path d="M24.542 44.276 L37.772 44.276 L37.772 60.153 L24.542 60.153 Z" fill="none" stroke="#45413c" stroke-linecap="round" stroke-linejoin="round"></path><path d="M31.951,47.981H30.363a.529.529,0,0,1-.529-.529V44.276H32.48v3.176A.529.529,0,0,1,31.951,47.981Z" fill="#f7e5c6" stroke="#45413c" stroke-linecap="round" stroke-linejoin="round"></path><path d="M24.013 17.815 L37.243 17.815 L37.243 27.341 L24.013 27.341 Z" fill="#9ceb60"></path><path d="M37.243,20.462H24.013V18.874a1.058,1.058,0,0,1,1.058-1.059H36.185a1.058,1.058,0,0,1,1.058,1.059Z" fill="#c8ffa1"></path><path d="M24.013 17.815 L37.243 17.815 L37.243 27.341 L24.013 27.341 Z" fill="none" stroke="#45413c" stroke-linecap="round" stroke-linejoin="round"></path><path d="M31.422,22.578H29.834a.529.529,0,0,1-.529-.529V17.815h2.646v4.234A.529.529,0,0,1,31.422,22.578Z" fill="#f7e5c6" stroke="#45413c" stroke-linecap="round" stroke-linejoin="round"></path><path d="M21.896 27.341 L35.126 27.341 L35.126 36.867 L21.896 36.867 Z" fill="#9ceb60"></path><path d="M35.126,29.988H21.9V28.4a1.059,1.059,0,0,1,1.058-1.059H34.068A1.058,1.058,0,0,1,35.126,28.4Z" fill="#c8ffa1"></path><path d="M21.896 27.341 L35.126 27.341 L35.126 36.867 L21.896 36.867 Z" fill="none" stroke="#45413c" stroke-linecap="round" stroke-linejoin="round"></path><path d="M29.305,32.1H27.717a.529.529,0,0,1-.529-.529V27.341h2.646v4.234A.529.529,0,0,1,29.305,32.1Z" fill="#f7e5c6" stroke="#45413c" stroke-linecap="round" stroke-linejoin="round"></path><path d="M18.191,66.341H15.545V19.668a1.323,1.323,0,0,1,2.646,0Z" fill="#c0dceb"></path><path d="M16.868,18.345a1.323,1.323,0,0,0-1.323,1.323v3.175a1.323,1.323,0,1,1,2.646,0V19.668A1.323,1.323,0,0,0,16.868,18.345Z" fill="#daedf7"></path><path d="M18.191,66.341H15.545V19.668a1.323,1.323,0,0,1,2.646,0Z" fill="none" stroke="#45413c" stroke-linecap="round" stroke-linejoin="round"></path><path d="M42.535,66.341H39.889V19.668a1.323,1.323,0,0,1,2.646,0Z" fill="#c0dceb"></path><path d="M41.212,18.345a1.323,1.323,0,0,0-1.323,1.323v3.175a1.323,1.323,0,0,1,2.646,0V19.668A1.323,1.323,0,0,0,41.212,18.345Z" fill="#daedf7"></path><path d="M42.535,66.341H39.889V19.668a1.323,1.323,0,0,1,2.646,0Z" fill="none" stroke="#45413c" stroke-linecap="round" stroke-linejoin="round"></path><path d="M18.191 36.867H39.888999999999996V39.513H18.191z" fill="#c0dceb"></path><path d="M18.191 36.867H39.888999999999996V38.19H18.191z" fill="#daedf7"></path><path d="M18.191 36.867H39.888999999999996V39.513H18.191z" fill="none" stroke="#45413c" stroke-linecap="round" stroke-linejoin="round"></path><path d="M18.191 60.153H39.888999999999996V62.799H18.191z" fill="#c0dceb"></path><path d="M18.191 60.153H39.888999999999996V61.476H18.191z" fill="#daedf7"></path><path d="M18.191 60.153H39.888999999999996V62.799H18.191z" fill="none" stroke="#45413c" stroke-linecap="round" stroke-linejoin="round"></path><path d="M20.308 50.098 L33.538 50.098 L33.538 60.153 L20.308 60.153 Z" fill="#ff6242"></path><path d="M33.538,52.744H20.308V51.156A1.058,1.058,0,0,1,21.366,50.1H32.48a1.058,1.058,0,0,1,1.058,1.058Z" fill="#ff866e"></path><path d="M20.308 50.098 L33.538 50.098 L33.538 60.153 L20.308 60.153 Z" fill="none" stroke="#45413c" stroke-linecap="round" stroke-linejoin="round"></path><path d="M27.717,54.861H26.129a.529.529,0,0,1-.529-.529V50.1h2.646v4.234A.529.529,0,0,1,27.717,54.861Z" fill="#f7e5c6" stroke="#45413c" stroke-linecap="round" stroke-linejoin="round"></path><path d="M48.886 44.276 L62.116 44.276 L62.116 60.153 L48.886 60.153 Z" fill="#debb7e"></path><path d="M62.116,46.923H48.886V45.335a1.059,1.059,0,0,1,1.058-1.059H61.058a1.058,1.058,0,0,1,1.058,1.059Z" fill="#f0d5a8"></path><path d="M48.886 44.276 L62.116 44.276 L62.116 60.153 L48.886 60.153 Z" fill="none" stroke="#45413c" stroke-linecap="round" stroke-linejoin="round"></path><path d="M56.3,47.981H54.707a.529.529,0,0,1-.529-.529V44.276h2.646v3.176A.529.529,0,0,1,56.3,47.981Z" fill="#f7e5c6" stroke="#45413c" stroke-linecap="round" stroke-linejoin="round"></path><path d="M48.357 17.815 L61.587 17.815 L61.587 27.341 L48.357 27.341 Z" fill="#debb7e"></path><path d="M61.587,20.462H48.357V18.874a1.059,1.059,0,0,1,1.058-1.059H60.529a1.058,1.058,0,0,1,1.058,1.059Z" fill="#f0d5a8"></path><path d="M48.357 17.815 L61.587 17.815 L61.587 27.341 L48.357 27.341 Z" fill="none" stroke="#45413c" stroke-linecap="round" stroke-linejoin="round"></path><path d="M55.766,22.578H54.178a.529.529,0,0,1-.529-.529V17.815H56.3v4.234A.529.529,0,0,1,55.766,22.578Z" fill="#f7e5c6" stroke="#45413c" stroke-linecap="round" stroke-linejoin="round"></path><path d="M46.240 27.341 L59.470 27.341 L59.470 36.867 L46.240 36.867 Z" fill="#debb7e"></path><path d="M59.47,29.988H46.24V28.4A1.059,1.059,0,0,1,47.3,27.341H58.412A1.058,1.058,0,0,1,59.47,28.4Z" fill="#f0d5a8"></path><path d="M46.240 27.341 L59.470 27.341 L59.470 36.867 L46.240 36.867 Z" fill="none" stroke="#45413c" stroke-linecap="round" stroke-linejoin="round"></path><path d="M53.649,32.1H52.061a.529.529,0,0,1-.529-.529V27.341h2.646v4.234A.529.529,0,0,1,53.649,32.1Z" fill="#f7e5c6" stroke="#45413c" stroke-linecap="round" stroke-linejoin="round"></path><path d="M66.879,66.341H64.233V19.668a1.323,1.323,0,0,1,2.646,0Z" fill="#c0dceb"></path><path d="M65.556,18.345a1.323,1.323,0,0,0-1.323,1.323v3.175a1.323,1.323,0,0,1,2.646,0V19.668A1.323,1.323,0,0,0,65.556,18.345Z" fill="#daedf7"></path><path d="M66.879,66.341H64.233V19.668a1.323,1.323,0,0,1,2.646,0Z" fill="none" stroke="#45413c" stroke-linecap="round" stroke-linejoin="round"></path><path d="M42.535 36.867H64.233V39.513H42.535z" fill="#c0dceb"></path><path d="M42.535 36.867H64.233V38.19H42.535z" fill="#daedf7"></path><path d="M42.535 36.867H64.233V39.513H42.535z" fill="none" stroke="#45413c" stroke-linecap="round" stroke-linejoin="round"></path><path d="M42.535 60.153H64.233V62.799H42.535z" fill="#c0dceb"></path><path d="M42.535 60.153H64.233V61.476H42.535z" fill="#daedf7"></path><path d="M42.535 60.153H64.233V62.799H42.535z" fill="none" stroke="#45413c" stroke-linecap="round" stroke-linejoin="round"></path><path d="M44.652 50.098 L57.882 50.098 L57.882 60.153 L44.652 60.153 Z" fill="#debb7e"></path><path d="M57.883,52.744H44.652V51.156A1.059,1.059,0,0,1,45.711,50.1H56.824a1.059,1.059,0,0,1,1.059,1.058Z" fill="#f0d5a8"></path><path d="M44.652 50.098 L57.882 50.098 L57.882 60.153 L44.652 60.153 Z" fill="none" stroke="#45413c" stroke-linecap="round" stroke-linejoin="round"></path><path d="M52.061,54.861H50.474a.529.529,0,0,1-.53-.529V50.1H52.59v4.234A.529.529,0,0,1,52.061,54.861Z" fill="#f7e5c6" stroke="#45413c" stroke-linecap="round" stroke-linejoin="round"></path><path d="M57.672,77.536a2.043,2.043,0,0,1-1.12-.335A18.4,18.4,0,0,1,50.7,52.641a2.043,2.043,0,0,1,3.539,2.043,14.31,14.31,0,0,0,4.559,19.1,2.043,2.043,0,0,1-1.123,3.751Z" fill="#daedf7" stroke="#45413c" stroke-linecap="round" stroke-linejoin="round"></path><path d="M53.562,67.185a3.069,3.069,0,0,1-3.915,1.242" fill="none" stroke="#45413c" stroke-linecap="round" stroke-linejoin="round"></path><path d="M56.33,71.292a3.066,3.066,0,0,1-2.978,2.336,3.2,3.2,0,0,1-.461-.034" fill="none" stroke="#45413c" stroke-linecap="round" stroke-linejoin="round"></path><path d="M55.747,56.994a6.575,6.575,0,0,1-3.461-12.037,1.533,1.533,0,1,1,1.7,2.547,3.51,3.51,0,1,0,4.122,5.675,1.532,1.532,0,1,1,1.9,2.405A6.581,6.581,0,0,1,55.747,56.994Z" fill="#daedf7" stroke="#45413c" stroke-linecap="round" stroke-linejoin="round"></path><path d="M50.288 53.647 A2.043 2.043 0 1 0 54.374 53.647 A2.043 2.043 0 1 0 50.288 53.647 Z" fill="#f0f0f0" stroke="#45413c" stroke-linecap="round" stroke-linejoin="round"></path><path d="M47.938 87.241 A20.431 2.919 0 1 0 88.800 87.241 A20.431 2.919 0 1 0 47.938 87.241 Z" fill="#45413c" opacity=".15"></path><path d="M51.487,67.5a3.061,3.061,0,0,0-3.065,3.065v13.28h39.84V70.564A3.061,3.061,0,0,0,85.2,67.5Z" fill="#ffaa54"></path><path d="M63.745 70.564H88.262V83.844H63.745z" fill="#ff8a14"></path><path d="M51.487,67.5a3.061,3.061,0,0,0-3.065,3.065v3.064a3.06,3.06,0,0,1,3.065-3.064H63.745A3.061,3.061,0,0,1,66.81,67.5Z" fill="#ffcc99"></path><path d="M51.487,67.5a3.061,3.061,0,0,0-3.065,3.065v13.28h39.84V70.564A3.061,3.061,0,0,0,85.2,67.5Z" fill="none" stroke="#45413c" stroke-linecap="round" stroke-linejoin="round"></path><path d="M88.262,70.564H71.918a3.064,3.064,0,0,1-2.167-.9L67.584,67.5" fill="none" stroke="#45413c" stroke-linecap="round" stroke-linejoin="round"></path><path d="M48.422,83.844v2.043a1.025,1.025,0,0,0,1.022,1.021h37.8a1.024,1.024,0,0,0,1.021-1.021V83.844Z" fill="#656769"></path><path d="M63.745,83.844v3.064h23.5a1.024,1.024,0,0,0,1.021-1.021V83.844Z" fill="#525252"></path><path d="M48.422,83.844v2.043a1.025,1.025,0,0,0,1.022,1.021h37.8a1.024,1.024,0,0,0,1.021-1.021V83.844Z" fill="none" stroke="#45413c" stroke-linecap="round" stroke-linejoin="round"></path><path d="M54.552 27.087 L83.155 27.087 L83.155 55.690 L54.552 55.690 Z" fill="#debb7e"></path><path d="M83.155,31.465v5.866a4.382,4.382,0,0,0-4.378-4.378H58.93a4.391,4.391,0,0,0-4.378,4.378V31.465a4.381,4.381,0,0,1,4.378-4.378H78.777A4.372,4.372,0,0,1,83.155,31.465Z" fill="#f0d5a8"></path><path d="M65.789,35.843a1.46,1.46,0,0,0,1.459,1.46h3.21a1.46,1.46,0,0,0,1.46-1.46V27.087H65.789Z" fill="#ffffff" stroke="#45413c" stroke-linecap="round" stroke-linejoin="round"></path><path d="M54.552 27.087 L83.155 27.087 L83.155 55.690 L54.552 55.690 Z" fill="none" stroke="#45413c" stroke-linecap="round" stroke-linejoin="round"></path><path d="M57.616 46.497 L65.788 46.497 L65.788 51.605 L57.616 51.605 Z" fill="#fff5e3"></path><path d="M76.792,77.536a2.043,2.043,0,0,0,1.12-.335,18.4,18.4,0,0,0,5.855-24.56,2.043,2.043,0,0,0-3.539,2.043,14.31,14.31,0,0,1-4.559,19.1,2.043,2.043,0,0,0,1.123,3.751Z" fill="#daedf7" stroke="#45413c" stroke-linecap="round" stroke-linejoin="round"></path><path d="M78.62,56.893a6.575,6.575,0,0,0,3.813-11.931,1.532,1.532,0,1,0-1.778,2.5,3.51,3.51,0,1,1-4.288,5.551A1.532,1.532,0,1,0,74.4,55.357,6.584,6.584,0,0,0,78.62,56.893Z" fill="#daedf7" stroke="#45413c" stroke-linecap="round" stroke-linejoin="round"></path><path d="M80.090 53.647 A2.043 2.043 0 1 0 84.176 53.647 A2.043 2.043 0 1 0 80.090 53.647 Z" fill="#f0f0f0" stroke="#45413c" stroke-linecap="round" stroke-linejoin="round"></path><path d="M66.81,67.5a3.061,3.061,0,0,0-3.065,3.065V86.908" fill="none" stroke="#45413c" stroke-linecap="round" stroke-linejoin="round"></path><path d="M51.487 73.628 L60.681 73.628 L60.681 79.757 L51.487 79.757 Z" fill="#525252" stroke="#45413c" stroke-linecap="round" stroke-linejoin="round"></path><path d="M54.625 76.328L54.625 77.058" fill="none" stroke="#4acfff" stroke-linecap="round" stroke-linejoin="round"></path><path d="M57.543 76.328L57.543 77.058" fill="none" stroke="#4acfff" stroke-linecap="round" stroke-linejoin="round"></path></g></svg>