<svg xmlns="http://www.w3.org/2000/svg" version="1.1" xmlns:xlink="http://www.w3.org/1999/xlink" xmlns:svgjs="http://svgjs.com/svgjs" viewBox="0 0 200 200" width="200" height="200"><g transform="matrix(2,0,0,2,0,0)"><path d="M19.320 51.693 A40.000 40.000 0 1 0 99.320 51.693 A40.000 40.000 0 1 0 19.320 51.693 Z" fill="#e8f4fa" stroke="#daedf7" stroke-miterlimit="10"></path><path d="M42.57,92.156H54.947l-.277-13.2H48.731A5.5,5.5,0,0,0,43.25,84Z" fill="#ffe500"></path><path d="M75.57,92.156H63.193l.277-13.2h5.939A5.5,5.5,0,0,1,74.89,84Z" fill="#ffe500"></path><path d="M63.470 81.706 A3.850 3.850 0 1 0 71.170 81.706 A3.850 3.850 0 1 0 63.470 81.706 Z" fill="#ebcb00"></path><path d="M46.970 81.706 A3.850 3.850 0 1 0 54.670 81.706 A3.850 3.850 0 1 0 46.970 81.706 Z" fill="#ebcb00"></path><path d="M42.57,92.156H54.947l-.277-13.2H48.731A5.5,5.5,0,0,0,43.25,84Z" fill="none" stroke="#45413c" stroke-linecap="round" stroke-linejoin="round"></path><path d="M75.57,92.156H63.193l.277-13.2h5.939A5.5,5.5,0,0,1,74.89,84Z" fill="none" stroke="#45413c" stroke-linecap="round" stroke-linejoin="round"></path><path d="M90.069,40.937a1.149,1.149,0,0,1-.031,1.626L85.9,46.551a1.151,1.151,0,0,1-1.626-.031l-3.988-4.142,5.8-5.584Z" fill="#daedf7"></path><path d="M88.179,38.973l-2.1-2.179-5.8,5.583,2.157,2.241q.38-.14.748-.312A9.709,9.709,0,0,0,88.179,38.973Z" fill="#adc4d9"></path><path d="M90.069,40.937a1.149,1.149,0,0,1-.031,1.626L85.9,46.551a1.151,1.151,0,0,1-1.626-.031l-3.988-4.142,5.8-5.584Z" fill="none" stroke="#45413c" stroke-linecap="round" stroke-linejoin="round"></path><path d="M31.14,45.012a1.152,1.152,0,0,0,.714,1.462l5.439,1.868a1.151,1.151,0,0,0,1.461-.714l1.868-5.439-7.614-2.615Z" fill="#daedf7"></path><path d="M71.588 35.444 A7.475 7.475 0 1 0 86.538 35.444 A7.475 7.475 0 1 0 71.588 35.444 Z" fill="#ffe500"></path><path d="M86.326,37.215A7.476,7.476,0,1,0,71.8,37.2a7.476,7.476,0,0,1,14.044-1.391,7.263,7.263,0,0,1,.483,1.4" fill="#fff48c"></path><path d="M71.588 35.444 A7.475 7.475 0 1 0 86.538 35.444 A7.475 7.475 0 1 0 71.588 35.444 Z" fill="none" stroke="#45413c" stroke-linecap="round" stroke-linejoin="round" stroke-width=".25"></path><path d="M31.949,42.658a9.783,9.783,0,0,0,7.65,2.51l1.023-2.979-7.613-2.615Z" fill="#adc4d9"></path><path d="M31.14,45.012a1.152,1.152,0,0,0,.714,1.462l5.439,1.868a1.151,1.151,0,0,0,1.461-.714l1.868-5.439-7.614-2.615Z" fill="none" stroke="#45413c" stroke-linecap="round" stroke-linejoin="round"></path><path d="M71.588 35.444 A7.475 7.475 0 1 0 86.538 35.444 A7.475 7.475 0 1 0 71.588 35.444 Z" fill="#ffe500"></path><path d="M86.326,37.215A7.476,7.476,0,1,0,71.8,37.2a7.476,7.476,0,0,1,14.044-1.391,7.263,7.263,0,0,1,.483,1.4" fill="#fff48c"></path><path d="M71.588 35.444 A7.475 7.475 0 1 0 86.538 35.444 A7.475 7.475 0 1 0 71.588 35.444 Z" fill="none" stroke="#45413c" stroke-linecap="round" stroke-linejoin="round"></path><path d="M31.078 35.444 A7.475 7.475 0 1 0 46.028 35.444 A7.475 7.475 0 1 0 31.078 35.444 Z" fill="#ffe500"></path><path d="M45.815,37.215A7.476,7.476,0,1,0,31.286,37.2a7.477,7.477,0,0,1,14.045-1.391,7.259,7.259,0,0,1,.482,1.4" fill="#fff48c"></path><path d="M31.078 35.444 A7.475 7.475 0 1 0 46.028 35.444 A7.475 7.475 0 1 0 31.078 35.444 Z" fill="none" stroke="#45413c" stroke-linecap="round" stroke-linejoin="round"></path><path d="M71.458 79.144L63.408 79.144 62.488 71.83 61.108 60.744 69.158 60.744 69.963 67.149 71.458 79.144z" fill="#daedf7"></path><path d="M56.508 60.744L55.128 71.83 54.208 79.144 46.158 79.144 47.653 67.149 48.458 60.744 56.508 60.744z" fill="#daedf7"></path><path d="M48.458,60.744h8.05L55.128,71.83a14.593,14.593,0,0,1-6.693-3.841c-.276-.265-.529-.552-.782-.84Z" fill="#adc4d9"></path><path d="M69.963,67.149a14.689,14.689,0,0,1-7.475,4.681l-1.38-11.086h8.05Z" fill="#adc4d9"></path><path d="M71.458 79.144L63.408 79.144 62.488 71.83 61.108 60.744 69.158 60.744 69.963 67.149 71.458 79.144z" fill="none" stroke="#45413c" stroke-linecap="round" stroke-linejoin="round"></path><path d="M56.508 60.744L55.128 71.83 54.208 79.144 46.158 79.144 47.653 67.149 48.458 60.744 56.508 60.744z" fill="none" stroke="#45413c" stroke-linecap="round" stroke-linejoin="round"></path><path d="M66.832,71.968a1.725,1.725,0,0,1,2.4-2.477,4.4,4.4,0,1,0-.1-6.227,1.725,1.725,0,1,1-2.477-2.4,7.854,7.854,0,1,1,.171,11.106Z" fill="#656769" stroke="#45413c" stroke-linecap="round" stroke-linejoin="round"></path><path d="M73.598 61.143 A4.676 4.676 0 1 0 82.950 61.143 A4.676 4.676 0 1 0 73.598 61.143 Z" fill="#daedf7" stroke="#45413c" stroke-linecap="round" stroke-linejoin="round"></path><path d="M93.088,45.73A3.45,3.45,0,0,1,93,50.609L91.339,52.2,85.9,46.551l4.142-3.988Z" fill="#adc4d9" stroke="#45413c" stroke-linecap="round" stroke-linejoin="round"></path><path d="M87.644,62.219,76.911,51.812l8.895-6.364a2.3,2.3,0,0,1,2.94.219L93.42,50.2a2.3,2.3,0,0,1,.31,2.931Z" fill="#ffe500" stroke="#45413c" stroke-linecap="round" stroke-linejoin="round"></path><path d="M74.755,55.156a2.3,2.3,0,0,0,.332,2.9l6.375,6.181a2.3,2.3,0,0,0,2.906.242l3.276-2.257L76.911,51.812Z" fill="#ffe500" stroke="#45413c" stroke-linecap="round" stroke-linejoin="round"></path><path d="M29.7,52.759l2.176.747a3.449,3.449,0,0,0,4.383-2.142l1.039-3.022-5.439-1.868Z" fill="#adc4d9" stroke="#45413c" stroke-linecap="round" stroke-linejoin="round"></path><path d="M48.458 17.044 L69.158 17.044 L69.158 31.994 L48.458 31.994 Z" fill="#00b8f0"></path><path d="M70.892,45.367a3.449,3.449,0,0,1-3.373,2.727H50.1a3.45,3.45,0,0,1-3.373-2.727l-2.27-10.591A2.3,2.3,0,0,1,46.7,31.994h24.21a2.3,2.3,0,0,1,2.249,2.782Z" fill="#c0dceb" stroke="#45413c" stroke-linecap="round" stroke-linejoin="round"></path><path d="M73.16,34.777l-1.069,4.979-.058.288H45.583l-1.127-5.267a2.323,2.323,0,0,1,.437-1.909l.023-.023a2.291,2.291,0,0,1,1.783-.851H70.918a2.3,2.3,0,0,1,2.242,2.783Z" fill="#ffe500" stroke="#45413c" stroke-linecap="round" stroke-linejoin="round"></path><path d="M58.578,40.044H52.069l-7.176-7.176.023-.023a2.291,2.291,0,0,1,1.783-.851h3.829Z" fill="#656769" stroke="#45413c" stroke-linecap="round" stroke-linejoin="round"></path><path d="M72.091 39.756L72.033 40.044 65.869 40.044 57.819 31.994 64.328 31.994 72.091 39.756z" fill="#656769" stroke="#45413c" stroke-linecap="round" stroke-linejoin="round"></path><path d="M54.208 48.094H63.408V56.144000000000005H54.208z" fill="#daedf7"></path><path d="M54.208 48.094H63.408V52.204H54.208z" fill="#adc4d9"></path><path d="M54.208 48.094H63.408V56.144000000000005H54.208z" fill="none" stroke="#45413c" stroke-linecap="round" stroke-linejoin="round"></path><path d="M68.008,17.044a6.026,6.026,0,0,1-.046.793v.046a3.449,3.449,0,0,0-2.254-.839h-13.8a3.451,3.451,0,0,0-2.254.839v-.046a6.2,6.2,0,0,1-.046-.793c0-4.451,4.117-8.05,9.2-8.05S68.008,12.593,68.008,17.044Z" fill="#ffe500"></path><path d="M49.654,17.883c.056-.048.114-.094.174-.139.914-3.6,4.586-6.295,8.98-6.295s8.066,2.691,8.981,6.3c.059.045.117.091.173.139v-.046a6.026,6.026,0,0,0,.046-.793c0-4.451-4.117-8.05-9.2-8.05s-9.2,3.6-9.2,8.05a6.2,6.2,0,0,0,.046.793Z" fill="#fff48c"></path><path d="M68.008,17.044a6.026,6.026,0,0,1-.046.793v.046a3.449,3.449,0,0,0-2.254-.839h-13.8a3.451,3.451,0,0,0-2.254.839v-.046a6.2,6.2,0,0,1-.046-.793c0-4.451,4.117-8.05,9.2-8.05S68.008,12.593,68.008,17.044Z" fill="none" stroke="#45413c" stroke-linecap="round" stroke-linejoin="round"></path><path d="M56.508 7.844 L61.108 7.844 L61.108 15.894 L56.508 15.894 Z" fill="#ffe500"></path><path d="M59.958,7.844h-2.3a1.15,1.15,0,0,0-1.15,1.15v2.212a1.15,1.15,0,0,1,1.15-1.15h2.3a1.15,1.15,0,0,1,1.15,1.15V8.994A1.15,1.15,0,0,0,59.958,7.844Z" fill="#fff48c"></path><path d="M56.508 7.844 L61.108 7.844 L61.108 15.894 L56.508 15.894 Z" fill="none" stroke="#45413c" stroke-linecap="round" stroke-linejoin="round"></path><path d="M67.962,17.837v.046a3.449,3.449,0,0,0-2.254-.839h-13.8a3.451,3.451,0,0,0-2.254.839v-.046c.472-1.736,4.393-3.093,9.154-3.093S67.491,16.1,67.962,17.837Z" fill="#ffe500" stroke="#45413c" stroke-linecap="round" stroke-linejoin="round"></path><path d="M54.208 12.444L51.908 8.994" fill="#00b8f0" stroke="#45413c" stroke-linecap="round" stroke-linejoin="round"></path><path d="M63.408 12.444L65.708 8.994" fill="#00b8f0" stroke="#45413c" stroke-linecap="round" stroke-linejoin="round"></path><path d="M70.308,57.294a11.5,11.5,0,0,1-11.5,11.5h0a11.5,11.5,0,0,1-11.5-11.5,1.15,1.15,0,0,1,1.15-1.15h20.7A1.15,1.15,0,0,1,70.308,57.294Z" fill="#daedf7" stroke="#45413c" stroke-linecap="round" stroke-linejoin="round"></path><path d="M69.158,56.144a1.153,1.153,0,0,1,1.15,1.15,11.4,11.4,0,0,1-.529,3.45H47.837a11.4,11.4,0,0,1-.529-3.45,1.153,1.153,0,0,1,1.15-1.15Z" fill="#ffe500" stroke="#45413c" stroke-linecap="round" stroke-linejoin="round"></path><path d="M57.543 60.744L53.058 60.744 48.458 56.144 52.943 56.144 57.543 60.744z" fill="#656769" stroke="#45413c" stroke-linecap="round" stroke-linejoin="round"></path><path d="M68.296 60.744L63.811 60.744 59.211 56.144 63.696 56.144 68.296 60.744z" fill="#656769" stroke="#45413c" stroke-linecap="round" stroke-linejoin="round"></path><path d="M63.408 79.144 A4.025 4.025 0 1 0 71.458 79.144 A4.025 4.025 0 1 0 63.408 79.144 Z" fill="#ffe500"></path><path d="M67.433,77.728a4.028,4.028,0,0,1,3.809,2.72,4.026,4.026,0,1,0-7.617,0A4.025,4.025,0,0,1,67.433,77.728Z" fill="#fff48c"></path><path d="M63.408 79.144 A4.025 4.025 0 1 0 71.458 79.144 A4.025 4.025 0 1 0 63.408 79.144 Z" fill="none" stroke="#45413c" stroke-linecap="round" stroke-linejoin="round"></path><path d="M46.158 79.144 A4.025 4.025 0 1 0 54.208 79.144 A4.025 4.025 0 1 0 46.158 79.144 Z" fill="#ffe500"></path><path d="M50.183,77.728a4.028,4.028,0,0,1,3.809,2.72,4.026,4.026,0,1,0-7.617,0A4.025,4.025,0,0,1,50.183,77.728Z" fill="#fff48c"></path><path d="M46.158 79.144 A4.025 4.025 0 1 0 54.208 79.144 A4.025 4.025 0 1 0 46.158 79.144 Z" fill="none" stroke="#45413c" stroke-linecap="round" stroke-linejoin="round"></path><path d="M23.522,40.009l-4.964,14.1,10.8,1.728a2.3,2.3,0,0,0,2.533-1.507l2.162-6.142a2.3,2.3,0,0,0-1.03-2.761Z" fill="#ffe500" stroke="#45413c" stroke-linecap="round" stroke-linejoin="round"></path><path d="M15.137,52.079a2.3,2.3,0,0,1-1-2.741l2.948-8.375a2.3,2.3,0,0,1,2.493-1.514l3.939.56-4.964,14.1Z" fill="#ffe500" stroke="#45413c" stroke-linecap="round" stroke-linejoin="round"></path><path d="M17.09,40.963,1.967,39.156a1.15,1.15,0,0,0-.746,2.117l12.921,8.065Z" fill="#c0dceb"></path><path d="M17.086,40.964,16.12,43.7,2.493,42.068l-1.277-.794a1.168,1.168,0,0,1-.471-1.357,1.149,1.149,0,0,1,1.219-.759Z" fill="#e8f4fa"></path><path d="M17.09,40.963,1.967,39.156a1.15,1.15,0,0,0-.746,2.117l12.921,8.065Z" fill="none" stroke="#45413c" stroke-linecap="round" stroke-linejoin="round"></path><path d="M12.846 40.456L13.525 48.953" fill="none" stroke="#45413c" stroke-linecap="round" stroke-linejoin="round"></path><path d="M8.588 39.947L9.087 46.182" fill="none" stroke="#45413c" stroke-linecap="round" stroke-linejoin="round"></path><path d="M4.331 39.438L4.648 43.412" fill="none" stroke="#45413c" stroke-linecap="round" stroke-linejoin="round"></path><path d="M50.333,31.614a3.449,3.449,0,0,1-1.875-3.07v-8.05a3.45,3.45,0,0,1,3.45-3.45h13Z" fill="#4acfff"></path><path d="M48.458 17.044 L69.158 17.044 L69.158 31.994 L48.458 31.994 Z" fill="none" stroke="#45413c" stroke-linecap="round" stroke-linejoin="round"></path><path d="M52.555 23.552 A2.012 3.019 0 1 0 56.579 23.552 A2.012 3.019 0 1 0 52.555 23.552 Z" fill="#ffffff" stroke="#009fd9" stroke-miterlimit="10"></path><path d="M61.036 23.552 A2.013 3.019 0 1 0 65.062 23.552 A2.013 3.019 0 1 0 61.036 23.552 Z" fill="#ffffff" stroke="#009fd9" stroke-miterlimit="10"></path><path d="M42.25,89.57a2.053,2.053,0,0,0,1.7.922l6.008.03a2.053,2.053,0,0,0,1.711-.905l1.453-2.156L40.818,87.4Z" fill="#ffe500" stroke="#45413c" stroke-linecap="round" stroke-linejoin="round"></path><path d="M42.718,94.156a1.041,1.041,0,0,1-1.007-1.3,5.2,5.2,0,0,1,10.063,0,1.039,1.039,0,0,1-1.007,1.3Z" fill="#87898c" stroke="#45413c" stroke-linecap="round" stroke-linejoin="round"></path><path d="M62.93,89.549a2.048,2.048,0,0,0,1.7.922l6.008.03a2.051,2.051,0,0,0,1.711-.905L73.8,87.44,61.5,87.379Z" fill="#ffe500" stroke="#45413c" stroke-linecap="round" stroke-linejoin="round"></path><path d="M63.4,94.135a1.04,1.04,0,0,1-1.007-1.3,5.2,5.2,0,0,1,10.063,0,1.039,1.039,0,0,1-1.007,1.3Z" fill="#87898c" stroke="#45413c" stroke-linecap="round" stroke-linejoin="round"></path></g></svg>