<svg xmlns="http://www.w3.org/2000/svg" version="1.1" xmlns:xlink="http://www.w3.org/1999/xlink" xmlns:svgjs="http://svgjs.com/svgjs" viewBox="0 0 200 200" width="200" height="200"><g transform="matrix(2,0,0,2,0,0)"><path d="M2.528 54.861 A40.000 40.000 0 1 0 82.528 54.861 A40.000 40.000 0 1 0 2.528 54.861 Z" fill="#e8f4fa" stroke="#daedf7" stroke-miterlimit="10"></path><path d="M50.385 32.516H55.385V36.650999999999996H50.385z" fill="#daedf7"></path><path d="M50.385 32.516H55.385V34.150999999999996H50.385z" fill="#c0dceb"></path><path d="M50.385 32.516H55.385V36.650999999999996H50.385z" fill="none" stroke="#45413c" stroke-linecap="round" stroke-linejoin="round"></path><path d="M42.885 36.651 L62.886 36.651 L62.886 55.402 L42.885 55.402 Z" fill="#f0f0f0" stroke="#45413c" stroke-linecap="round" stroke-linejoin="round"></path><path d="M49.135 55.402H56.635V61.769H49.135z" fill="#daedf7"></path><path d="M49.135 55.402H56.635V58.019H49.135z" fill="#c0dceb"></path><path d="M49.135 55.402H56.635V61.769H49.135z" fill="none" stroke="#45413c" stroke-linecap="round" stroke-linejoin="round"></path><path d="M60.042,61.769A2.5,2.5,0,0,1,62.4,65.1a10,10,0,0,1-18.863,0,2.5,2.5,0,0,1,2.358-3.334Z" fill="#f0f0f0" stroke="#45413c" stroke-linecap="round" stroke-linejoin="round"></path><path d="M42.885,49.049a1.722,1.722,0,0,1,.943-1.575,2.221,2.221,0,0,0,1.279-2.012V36.976a3.727,3.727,0,0,1,1.528-.325h1.929l.79,8.828a2.421,2.421,0,0,0,2.411,2.2h2.241a2.423,2.423,0,0,0,2.411-2.2l.79-8.828h1.929a3.731,3.731,0,0,1,1.528.325v8.486a2.221,2.221,0,0,0,1.279,2.012,1.722,1.722,0,0,1,.943,1.575V72.936a1.852,1.852,0,0,1-1.852,1.848h-16.3a1.852,1.852,0,0,1-1.852-1.852Z" fill="#6dd627" stroke="#45413c" stroke-linecap="round" stroke-linejoin="round"></path><path d="M23.831 42.356H42.582V47.356H23.831z" fill="#f0f0f0" stroke="#45413c" stroke-linecap="round" stroke-linejoin="round" transform="translate(-20.269 28.886) rotate(-36.86)"></path><path d="M42.885,45.4h-5a3.75,3.75,0,0,1-3.75-3.751V40.4a3.75,3.75,0,0,1,3.75-3.75h2.5a2.5,2.5,0,0,1,2.5,2.5Z" fill="#f0f0f0" stroke="#45413c" stroke-linecap="round" stroke-linejoin="round"></path><path d="M28.075 49.735H33.075V63.53H28.075z" fill="#f0f0f0" stroke="#45413c" stroke-linecap="round" stroke-linejoin="round" transform="translate(-32.232 42.586) rotate(-49.029)"></path><path d="M21.639 51.750 A3.750 3.750 0 1 0 29.139 51.750 A3.750 3.750 0 1 0 21.639 51.750 Z" fill="#f0f0f0" stroke="#45413c" stroke-linecap="round" stroke-linejoin="round"></path><path d="M70.853 34.032H75.853V52.783H70.853z" fill="#f0f0f0" stroke="#45413c" stroke-linecap="round" stroke-linejoin="round" transform="translate(5.291 94.715) rotate(-67.626)"></path><path d="M62.886,45.4h5a3.751,3.751,0,0,0,3.751-3.751V40.4a3.751,3.751,0,0,0-3.751-3.75h-2.5a2.5,2.5,0,0,0-2.5,2.5Z" fill="#f0f0f0" stroke="#45413c" stroke-linecap="round" stroke-linejoin="round"></path><path d="M77.876 38.829H91.671V43.829H77.876z" fill="#f0f0f0" stroke="#45413c" stroke-linecap="round" stroke-linejoin="round" transform="translate(17.325 107.249) rotate(-70.334)"></path><path d="M89.422,22.4a.625.625,0,0,0-.825-.428,6.563,6.563,0,1,0,8.8,5.169.627.627,0,0,0-.776-.512l-1.829.476a.624.624,0,0,0-.465.667,3.438,3.438,0,1,1-4.787-2.812.624.624,0,0,0,.356-.73Z" fill="#656769"></path><path d="M89.422,22.4a.625.625,0,0,0-.825-.428,6.563,6.563,0,1,0,8.8,5.169.627.627,0,0,0-.776-.512l-1.829.476a.624.624,0,0,0-.465.667,3.438,3.438,0,1,1-4.787-2.812.624.624,0,0,0,.356-.73Z" fill="none" stroke="#45413c" stroke-linecap="round" stroke-linejoin="round"></path><path d="M83.578 33.040 A3.750 3.750 0 1 0 91.078 33.040 A3.750 3.750 0 1 0 83.578 33.040 Z" fill="#f0f0f0" stroke="#45413c" stroke-linecap="round" stroke-linejoin="round"></path><path d="M78.897 48.128 A3.750 3.750 0 1 0 86.397 48.128 A3.750 3.750 0 1 0 78.897 48.128 Z" fill="#f0f0f0" stroke="#45413c" stroke-linecap="round" stroke-linejoin="round"></path><path d="M35.464 5.140 L70.306 5.140 L70.306 32.516 L35.464 32.516 Z" fill="#00b8f0"></path><path d="M39.658,32.514,66.938,5.236a4.3,4.3,0,0,0-.9-.1h-26.3a4.273,4.273,0,0,0-4.273,4.272V28.243A4.272,4.272,0,0,0,39.658,32.514Z" fill="#4acfff"></path><path d="M35.464 5.140 L70.306 5.140 L70.306 32.516 L35.464 32.516 Z" fill="none" stroke="#45413c" stroke-linecap="round" stroke-linejoin="round"></path><path d="M47.638,22.006a1.3,1.3,0,0,1-1.3-1.3c0-1.573-.784-2.432-1.188-2.432s-1.188.859-1.188,2.432a1.3,1.3,0,1,1-2.6,0c0-2.823,1.665-5.034,3.79-5.034s3.789,2.211,3.789,5.034A1.3,1.3,0,0,1,47.638,22.006Z" fill="#ffffff"></path><path d="M45.149,16.171c1.845,0,3.29,1.992,3.29,4.534a.8.8,0,1,1-1.6,0c0-1.728-.89-2.932-1.688-2.932s-1.688,1.2-1.688,2.932a.8.8,0,0,1-1.6,0c0-2.542,1.445-4.534,3.29-4.534m0-1c-2.406,0-4.29,2.431-4.29,5.534a1.8,1.8,0,1,0,3.6,0,2.39,2.39,0,0,1,.688-1.919,2.39,2.39,0,0,1,.688,1.919,1.8,1.8,0,0,0,3.6,0c0-3.1-1.885-5.534-4.29-5.534Z" fill="#00658a"></path><path d="M62.57,22.006a1.3,1.3,0,0,1-1.3-1.3c0-1.573-.785-2.432-1.188-2.432s-1.187.859-1.187,2.432a1.3,1.3,0,0,1-2.6,0c0-2.823,1.665-5.034,3.79-5.034s3.79,2.211,3.79,5.034A1.3,1.3,0,0,1,62.57,22.006Z" fill="#ffffff"></path><path d="M60.081,16.171c1.845,0,3.29,1.992,3.29,4.534a.8.8,0,1,1-1.6,0c0-1.728-.89-2.932-1.688-2.932s-1.687,1.2-1.687,2.932a.8.8,0,1,1-1.6,0c0-2.542,1.444-4.534,3.289-4.534m0-1c-2.405,0-4.289,2.431-4.289,5.534a1.8,1.8,0,0,0,3.6,0,2.39,2.39,0,0,1,.687-1.919,2.39,2.39,0,0,1,.688,1.919,1.8,1.8,0,0,0,3.6,0c0-3.1-1.884-5.534-4.29-5.534Z" fill="#00658a"></path><path d="M58.746,39.788a1.068,1.068,0,0,1-1.455,1l-4.406-1.4V36.73l4.406-1.4a1.068,1.068,0,0,1,1.455.995Z" fill="#ff866e" stroke="#45413c" stroke-linecap="round" stroke-linejoin="round"></path><path d="M47.025,39.788a1.068,1.068,0,0,0,1.455,1l4.405-1.4V36.73l-4.405-1.4a1.068,1.068,0,0,0-1.455.995Z" fill="#ff866e" stroke="#45413c" stroke-linecap="round" stroke-linejoin="round"></path><path d="M50.788 38.055 A2.097 2.097 0 1 0 54.982 38.055 A2.097 2.097 0 1 0 50.788 38.055 Z" fill="#ff866e" stroke="#45413c" stroke-linecap="round" stroke-linejoin="round"></path><path d="M39.541,58.681H5.528v2.8a1,1,0,0,0,1,1H38.541a1,1,0,0,0,1-1Z" fill="#525252" stroke="#45413c" stroke-linecap="round" stroke-linejoin="round"></path><path d="M6.383,40.986a.855.855,0,0,0-.855.855v16.84h2.4V40.986Z" fill="#525252" stroke="#45413c" stroke-linecap="round" stroke-linejoin="round"></path><path d="M38.686,40.986H37.145v17.7h2.4V41.841A.855.855,0,0,0,38.686,40.986Z" fill="#525252" stroke="#45413c" stroke-linecap="round" stroke-linejoin="round"></path><path d="M7.924 40.986H37.146V58.681H7.924z" fill="#e8f4fa" stroke="#45413c" stroke-linecap="round" stroke-linejoin="round"></path><path d="M6.81 62.483H10.866V64.691H6.81z" fill="#f0f0f0" stroke="#45413c" stroke-linecap="round" stroke-linejoin="round"></path><path d="M10.867,64.691H6.81v.947a1,1,0,0,0,1,1H9.867a1,1,0,0,0,1-1Z" fill="#525252" stroke="#45413c" stroke-linecap="round" stroke-linejoin="round"></path><path d="M34.203 62.483H38.259V64.691H34.203z" fill="#f0f0f0" stroke="#45413c" stroke-linecap="round" stroke-linejoin="round"></path><path d="M38.259,64.691H34.2v.947a1,1,0,0,0,1,1h2.056a1,1,0,0,0,1-1Z" fill="#525252" stroke="#45413c" stroke-linecap="round" stroke-linejoin="round"></path><path d="M10.867 44.917L34.203 44.917" fill="none" stroke="#45413c" stroke-linecap="round" stroke-linejoin="round"></path><path d="M33.2,38.194H11.867a1,1,0,0,0-1,1v1.792H34.2V39.194A1,1,0,0,0,33.2,38.194Z" fill="none" stroke="#45413c" stroke-linecap="round" stroke-linejoin="round"></path><path d="M82.528 94.861L82.528 66.638 2.528 66.638 2.528 94.861" fill="#dea47a"></path><path d="M2.528 66.638H82.528V70.539H2.528z" fill="#f0c2a1"></path><path d="M82.528 94.861L82.528 66.638 2.528 66.638 2.528 94.861" fill="none" stroke="#45413c" stroke-linecap="round" stroke-linejoin="round"></path><path d="M75.117,66.638h-4.5a1.082,1.082,0,0,1-1.079-.992l-1-11.993h8.657l-1,11.993A1.081,1.081,0,0,1,75.117,66.638Z" fill="#fffce5" stroke="#45413c" stroke-linecap="round" stroke-linejoin="round"></path><path d="M77.736,53.653H68a.541.541,0,0,1-.541-.541V52.57a1.082,1.082,0,0,1,1.082-1.082h8.657a1.082,1.082,0,0,1,1.082,1.082v.542A.541.541,0,0,1,77.736,53.653Z" fill="#fffce5" stroke="#45413c" stroke-linecap="round" stroke-linejoin="round"></path><path d="M77.195,51.488H68.538l.783-1.566a1.083,1.083,0,0,1,.968-.6h5.155a1.083,1.083,0,0,1,.968.6Z" fill="#fffce5" stroke="#45413c" stroke-linecap="round" stroke-linejoin="round"></path><path d="M70.702 59.063 A2.164 2.164 0 1 0 75.030 59.063 A2.164 2.164 0 1 0 70.702 59.063 Z" fill="#6dd627" stroke="#45413c" stroke-linecap="round" stroke-linejoin="round"></path></g></svg>