<svg xmlns="http://www.w3.org/2000/svg" version="1.1" xmlns:xlink="http://www.w3.org/1999/xlink" xmlns:svgjs="http://svgjs.com/svgjs" viewBox="0 0 200 200" width="200" height="200"><g transform="matrix(2,0,0,2,0,0)"><path d="M90,52.194a40,40,0,1,0-76.436,16.5H86.436A39.844,39.844,0,0,0,90,52.194Z" fill="#c7f0ff"></path><path d="M13.564,68.694a40,40,0,0,0,72.872,0Z" fill="#e8f4fa"></path><path d="M11 68.694L89 68.694" fill="none" stroke="#45413c" stroke-linecap="round" stroke-linejoin="round"></path><path d="M6.5 68.694L9 68.694" fill="none" stroke="#45413c" stroke-linecap="round" stroke-linejoin="round"></path><path d="M91 68.694L93.5 68.694" fill="none" stroke="#45413c" stroke-linecap="round" stroke-linejoin="round"></path><path d="M85.539,89.652c0,1.316-15.511,2.383-37.274,2.383s-33.013-1.067-33.013-2.383S26.5,87.268,48.265,87.268,85.539,88.335,85.539,89.652Z" fill="#45413c" opacity=".15"></path><path d="M47.615 37.307H52.999V41.759H47.615z" fill="#daedf7"></path><path d="M47.615 37.307H52.999V39.067H47.615z" fill="#c0dceb"></path><path d="M47.615 37.307H52.999V41.759H47.615z" fill="none" stroke="#45413c" stroke-linecap="round" stroke-linejoin="round"></path><path d="M39.539 41.759 L61.074 41.759 L61.074 61.948 L39.539 61.948 Z" fill="#ffffff" stroke="#45413c" stroke-linecap="round" stroke-linejoin="round"></path><path d="M46.269 61.948H54.345V68.803H46.269z" fill="#daedf7"></path><path d="M46.269 61.948H54.345V64.765H46.269z" fill="#c0dceb"></path><path d="M46.269 61.948H54.345V68.803H46.269z" fill="none" stroke="#45413c" stroke-linecap="round" stroke-linejoin="round"></path><path d="M55.69,51.181A2.691,2.691,0,0,1,53,53.872H47.615a2.691,2.691,0,0,1-2.692-2.691V41.759H55.69Z" fill="#e8f4fa"></path><path d="M55.69,51.181A2.691,2.691,0,0,1,53,53.872H47.615a2.691,2.691,0,0,1-2.692-2.691V41.759H55.69Z" fill="none" stroke="#45413c" stroke-linecap="round" stroke-linejoin="round"></path><path d="M43.849,76.685H56.942a10.976,10.976,0,0,0,2.516-4.292,2.968,2.968,0,0,0-.3-2.452A2.338,2.338,0,0,0,57.193,68.8H43.6a2.336,2.336,0,0,0-1.962,1.137,2.967,2.967,0,0,0-.3,2.452A10.952,10.952,0,0,0,43.849,76.685Z" fill="#ffffff" stroke="#45413c" stroke-linecap="round" stroke-linejoin="round"></path><path d="M19.923 48.921H40.111999999999995V54.305H19.923z" fill="#ffffff" stroke="#45413c" stroke-linecap="round" stroke-linejoin="round" transform="translate(-28.412 39.325) rotate(-47.941)"></path><path d="M39.539,51.181H34.155a4.038,4.038,0,0,1-4.038-4.038V45.8a4.038,4.038,0,0,1,4.038-4.038h2.692a2.692,2.692,0,0,1,2.692,2.692Z" fill="#ffffff" stroke="#45413c" stroke-linecap="round" stroke-linejoin="round"></path><path d="M26.839 57.394H32.223V72.247H26.839z" fill="#ffffff" stroke="#45413c" stroke-linecap="round" stroke-linejoin="round" transform="translate(-41.114 55.698) rotate(-58.149)"></path><path d="M34.848,79.366a.673.673,0,0,1-1,.077,7.066,7.066,0,1,1,10.9-1.429.674.674,0,0,1-.984.183l-1.614-1.24a.674.674,0,0,1-.181-.857,3.7,3.7,0,1,0-5.927.777.671.671,0,0,1,.047.874Z" fill="#c0dceb" stroke="#45413c" stroke-linecap="round" stroke-linejoin="round"></path><path d="M33.199 70.096 A4.038 4.038 0 1 0 41.275 70.096 A4.038 4.038 0 1 0 33.199 70.096 Z" fill="#ffffff" stroke="#45413c" stroke-linecap="round" stroke-linejoin="round"></path><path d="M19.146 60.516 A4.038 4.038 0 1 0 27.222 60.516 A4.038 4.038 0 1 0 19.146 60.516 Z" fill="#ffffff" stroke="#45413c" stroke-linecap="round" stroke-linejoin="round"></path><path d="M67.903 41.519H73.287V61.708H67.903z" fill="#ffffff" stroke="#45413c" stroke-linecap="round" stroke-linejoin="round" transform="translate(-16.394 60.584) rotate(-42.059)"></path><path d="M61.074,51.181h5.384A4.038,4.038,0,0,0,70.5,47.143V45.8a4.038,4.038,0,0,0-4.038-4.038H63.766a2.692,2.692,0,0,0-2.692,2.692Z" fill="#ffffff" stroke="#45413c" stroke-linecap="round" stroke-linejoin="round"></path><path d="M63.655 62.129H78.508V67.513H63.655z" fill="#ffffff" stroke="#45413c" stroke-linecap="round" stroke-linejoin="round" transform="translate(-23.504 47.272) rotate(-31.851)"></path><path d="M65.765,80.056a.674.674,0,0,0,1,.078,7.066,7.066,0,1,0-10.9-1.429.674.674,0,0,0,.984.183l1.614-1.24a.674.674,0,0,0,.181-.857,3.7,3.7,0,1,1,5.927.777.671.671,0,0,0-.047.874Z" fill="#c0dceb" stroke="#45413c" stroke-linecap="round" stroke-linejoin="round"></path><path d="M59.337 70.096 A4.038 4.038 0 1 0 67.413 70.096 A4.038 4.038 0 1 0 59.337 70.096 Z" fill="#ffffff" stroke="#45413c" stroke-linecap="round" stroke-linejoin="round"></path><path d="M73.391 60.516 A4.038 4.038 0 1 0 81.467 60.516 A4.038 4.038 0 1 0 73.391 60.516 Z" fill="#ffffff" stroke="#45413c" stroke-linecap="round" stroke-linejoin="round"></path><path d="M31.638 7.806 L69.153 7.806 L69.153 37.282 L31.638 37.282 Z" fill="#00c798"></path><path d="M31.638 7.806 L69.153 7.806 L69.153 37.282 L31.638 37.282 Z" fill="#009fd9"></path><path d="M36.154,37.281,65.526,7.91a4.627,4.627,0,0,0-.97-.1H36.238a4.6,4.6,0,0,0-4.6,4.6V32.682A4.6,4.6,0,0,0,36.154,37.281Z" fill="#00b8f0"></path><path d="M31.638 7.806 L69.153 7.806 L69.153 37.282 L31.638 37.282 Z" fill="none" stroke="#45413c" stroke-linecap="round" stroke-linejoin="round"></path><path d="M37.266,14.39a.5.5,0,0,1,.493-.548.472.472,0,0,1,.492.411,1.093,1.093,0,0,1,.938-.452,1.744,1.744,0,0,1,1.588,1.95,1.743,1.743,0,0,1-1.622,1.855,1.405,1.405,0,0,1-.9-.342v1.205a.5.5,0,1,1-.985,0ZM39.025,16.7c.513,0,.766-.534.766-.993s-.253-1.005-.766-1.005-.774.492-.774.971S38.485,16.7,39.025,16.7Z" fill="#e5fff9"></path><path d="M41.178,14.335a.484.484,0,0,1,.506-.493c.26,0,.479.1.479.411h.013a.779.779,0,0,1,.692-.411.481.481,0,0,1,.478.528c0,.321-.294.342-.588.479s-.6.266-.6.657v1.512a.5.5,0,1,1-.985,0Z" fill="#e5fff9"></path><path d="M44.5,12.905a.564.564,0,0,1-.555.568.578.578,0,0,1-.554-.568.555.555,0,0,1,1.109,0ZM43.455,14.39a.5.5,0,1,1,.985,0v2.628a.5.5,0,1,1-.985,0Z" fill="#e5fff9"></path><path d="M44.986,14.39a.5.5,0,0,1,.493-.548.415.415,0,0,1,.451.363,1.064,1.064,0,0,1,.952-.4,1.262,1.262,0,0,1,1.347,1.328v1.889a.5.5,0,1,1-.985,0V15.3a.638.638,0,1,0-1.273,0v1.718a.5.5,0,1,1-.985,0Z" fill="#e5fff9"></path><path d="M49.028,14.746h-.219a.4.4,0,0,1-.432-.431.422.422,0,0,1,.432-.432h.219V13.3a.5.5,0,1,1,.986,0v.588h.279a.433.433,0,1,1,0,.863h-.279v2.272a.5.5,0,1,1-.986,0Z" fill="#e5fff9"></path><path d="M37.9,21.293a.486.486,0,0,1-.391.233.467.467,0,0,1-.465-.452.649.649,0,0,1,.082-.273l.568-1.027a.505.505,0,0,1,.4-.233.475.475,0,0,1,.473.452.682.682,0,0,1-.09.274Zm1.4,0a.485.485,0,0,1-.391.233.467.467,0,0,1-.465-.452.679.679,0,0,1,.082-.273l.568-1.027a.505.505,0,0,1,.4-.233.474.474,0,0,1,.472.452.694.694,0,0,1-.088.274Z" fill="#e5fff9"></path><path d="M40.329,20.116a.513.513,0,1,1,1.026,0v1.451h2.15V20.116a.513.513,0,1,1,1.026,0V24a.513.513,0,1,1-1.026,0V22.512h-2.15V24a.513.513,0,1,1-1.026,0Z" fill="#e5fff9"></path><path d="M45.91,23a.851.851,0,0,0,.93.712c.507,0,.856-.4,1.116-.4a.436.436,0,0,1,.4.424c0,.425-.875.835-1.608.835a1.8,1.8,0,0,1-1.847-1.9,1.771,1.771,0,1,1,3.537-.116c0,.294-.129.438-.43.438Zm1.547-.657a.781.781,0,0,0-.788-.753.793.793,0,0,0-.78.753Z" fill="#e5fff9"></path><path d="M48.775,19.774a.5.5,0,1,1,.985,0V23.99a.5.5,0,1,1-.985,0Z" fill="#e5fff9"></path><path d="M50.292,19.774a.5.5,0,1,1,.985,0V23.99a.5.5,0,1,1-.985,0Z" fill="#e5fff9"></path><path d="M55.211,22.682a1.77,1.77,0,1,1-3.531,0,1.771,1.771,0,1,1,3.531,0Zm-2.546,0c0,.473.247.993.781.993s.78-.52.78-.993-.24-1-.78-1S52.665,22.21,52.665,22.682Z" fill="#e5fff9"></path><path d="M37.067,27.239a.888.888,0,0,1-.027-.232.468.468,0,0,1,.485-.452.526.526,0,0,1,.549.493l.581,2.908h.014l.889-3a.555.555,0,0,1,1.068,0l.89,3h.013l.582-2.908a.526.526,0,0,1,.548-.493.468.468,0,0,1,.485.452.888.888,0,0,1-.027.232l-.869,3.737a.667.667,0,0,1-.677.534.7.7,0,0,1-.678-.5L40.1,28.368h-.014l-.793,2.642a.7.7,0,0,1-.678.5.669.669,0,0,1-.678-.534Z" fill="#e5fff9"></path><path d="M46.609,29.655a1.77,1.77,0,1,1-3.531,0,1.771,1.771,0,1,1,3.531,0Zm-2.546,0c0,.472.247.992.78.992s.781-.52.781-.992-.241-1.006-.781-1.006S44.063,29.183,44.063,29.655Z" fill="#e5fff9"></path><path d="M47.011,28.28a.483.483,0,0,1,.506-.493c.26,0,.479.1.479.41h.013a.78.78,0,0,1,.692-.41.48.48,0,0,1,.478.527c0,.321-.294.342-.588.479S48,29.06,48,29.45v1.512a.5.5,0,1,1-.985,0Z" fill="#e5fff9"></path><path d="M49.287,26.747a.5.5,0,1,1,.985,0v4.215a.5.5,0,1,1-.985,0Z" fill="#e5fff9"></path><path d="M54.186,30.962a.5.5,0,0,1-.493.548A.472.472,0,0,1,53.2,31.1a1.07,1.07,0,0,1-.9.451A1.742,1.742,0,0,1,50.675,29.7a1.744,1.744,0,0,1,1.588-1.95,1.425,1.425,0,0,1,.937.342V26.747a.5.5,0,1,1,.986,0Zm-1.759-2.313c-.513,0-.767.541-.767,1.006s.254.992.767.992c.54,0,.773-.547.773-1.026S52.954,28.649,52.427,28.649Z" fill="#e5fff9"></path><path d="M57.214,28.286a.534.534,0,1,1-.535.534A.534.534,0,0,1,57.214,28.286Zm0,2.2a.534.534,0,1,1-.535.534A.534.534,0,0,1,57.214,30.483Z" fill="#e5fff9"></path><path d="M60.189,29.053a.433.433,0,0,1,0,.862H58.731a.433.433,0,0,1,0-.862Z" fill="#e5fff9"></path><path d="M60.822,32.125a2.342,2.342,0,0,1,.13-.451,7,7,0,0,0,.356-2.156,6.363,6.363,0,0,0-.314-2.026,3.924,3.924,0,0,1-.172-.54.417.417,0,0,1,.438-.438.423.423,0,0,1,.356.26,7.069,7.069,0,0,1,.555,2.744,6.187,6.187,0,0,1-.684,2.915.317.317,0,0,1-.227.089A.415.415,0,0,1,60.822,32.125Z" fill="#e5fff9"></path><path d="M36.237,34.407a1.727,1.727,0,0,1-1.725-1.725V12.406a1.727,1.727,0,0,1,1.725-1.725H64.553a1.727,1.727,0,0,1,1.725,1.725V32.683a1.727,1.727,0,0,1-1.725,1.725H36.237Z" fill="none" stroke="#4acfff" stroke-linecap="round" stroke-linejoin="round"></path><path d="M20.129,85.83S10.381,85,10.381,64.821,31.549,39.533,31.549,28.744" fill="none" stroke="#45413c" stroke-linecap="round" stroke-linejoin="round"></path><path d="M80.617,83.4a1.15,1.15,0,0,0-1.14-1H21.136a1.149,1.149,0,0,0-1.14,1l-.49,3.681a1.15,1.15,0,0,0,1.14,1.3H79.967a1.15,1.15,0,0,0,1.14-1.3Z" fill="#e0e0e0" stroke="#45413c" stroke-linecap="round" stroke-linejoin="round"></path><path d="M26.767,80.364a1.149,1.149,0,0,0-1.134-.956H23.327a1.15,1.15,0,0,0-1.134.956l-.349,2.041h5.272Z" fill="#ffffff" stroke="#45413c" stroke-linecap="round" stroke-linejoin="round"></path><path d="M34.146,80.364a1.15,1.15,0,0,0-1.134-.956H30.706a1.15,1.15,0,0,0-1.134.956l-.349,2.041h5.272Z" fill="#ffffff" stroke="#45413c" stroke-linecap="round" stroke-linejoin="round"></path><path d="M41.525,80.364a1.15,1.15,0,0,0-1.134-.956H38.085a1.15,1.15,0,0,0-1.134.956L36.6,82.405h5.272Z" fill="#ffffff" stroke="#45413c" stroke-linecap="round" stroke-linejoin="round"></path><path d="M48.9,80.364a1.15,1.15,0,0,0-1.134-.956H45.464a1.15,1.15,0,0,0-1.134.956l-.349,2.041h5.272Z" fill="#ffffff" stroke="#45413c" stroke-linecap="round" stroke-linejoin="round"></path><path d="M56.283,80.364a1.15,1.15,0,0,0-1.134-.956H52.843a1.15,1.15,0,0,0-1.134.956l-.349,2.041h5.272Z" fill="#ffffff" stroke="#45413c" stroke-linecap="round" stroke-linejoin="round"></path><path d="M63.662,80.364a1.15,1.15,0,0,0-1.134-.956H60.222a1.149,1.149,0,0,0-1.134.956l-.349,2.041h5.272Z" fill="#ffffff" stroke="#45413c" stroke-linecap="round" stroke-linejoin="round"></path><path d="M71.041,80.364a1.15,1.15,0,0,0-1.134-.956H67.6a1.149,1.149,0,0,0-1.133.956l-.349,2.041H71.39Z" fill="#ffffff" stroke="#45413c" stroke-linecap="round" stroke-linejoin="round"></path><path d="M78.42,80.364a1.15,1.15,0,0,0-1.134-.956H74.979a1.149,1.149,0,0,0-1.133.956L73.5,82.405h5.272Z" fill="#ffffff" stroke="#45413c" stroke-linecap="round" stroke-linejoin="round"></path></g></svg>