<svg xmlns="http://www.w3.org/2000/svg" version="1.1" xmlns:xlink="http://www.w3.org/1999/xlink" xmlns:svgjs="http://svgjs.com/svgjs" viewBox="0 0 200 200" width="200" height="200"><g transform="matrix(2,0,0,2,0,0)"><path d="M90,56.161a40,40,0,1,0-76.436,16.5H86.436A39.844,39.844,0,0,0,90,56.161Z" fill="#c7f0ff"></path><path d="M13.564,72.661a40,40,0,0,0,72.872,0Z" fill="#e8f4fa"></path><path d="M11 72.661L89 72.661" fill="none" stroke="#45413c" stroke-linecap="round" stroke-linejoin="round"></path><path d="M6.5 72.661L9 72.661" fill="none" stroke="#45413c" stroke-linecap="round" stroke-linejoin="round"></path><path d="M91 72.661L93.5 72.661" fill="none" stroke="#45413c" stroke-linecap="round" stroke-linejoin="round"></path><path d="M31.797 81.102 A30.011 2.43 0 1 0 91.819 81.102 A30.011 2.43 0 1 0 31.797 81.102 Z" fill="#45413c" opacity=".15"></path><path d="M32.536,72.694H47.207A10.76,10.76,0,0,0,50.026,68.4a2.692,2.692,0,0,0-2.538-3.59H32.255A2.691,2.691,0,0,0,29.717,68.4,10.757,10.757,0,0,0,32.536,72.694Z" fill="#ffffff" stroke="#45413c" stroke-linecap="round" stroke-linejoin="round"></path><path d="M42.153 48.015H62.342V53.399H42.153z" fill="#ffffff" stroke="#45413c" stroke-linecap="round" stroke-linejoin="round" transform="translate(-11.071 86.648) rotate(-73.723)"></path><path d="M50.55,47.19h5.384a4.038,4.038,0,0,0,4.038-4.038V41.806a4.038,4.038,0,0,0-4.038-4.038H53.242A2.692,2.692,0,0,0,50.55,40.46Z" fill="#ffffff" stroke="#45413c" stroke-linecap="round" stroke-linejoin="round"></path><path d="M50.101 57.723H64.954V63.107H50.101z" fill="#ffffff" stroke="#45413c" stroke-linecap="round" stroke-linejoin="round" transform="translate(-11.23 13.173) rotate(-11.91)"></path><path d="M67.766,70.523a.674.674,0,0,1-.933.363,7.066,7.066,0,1,1,10.016-4.525.675.675,0,0,1-.889.46l-1.9-.719a.673.673,0,0,1-.421-.768A3.7,3.7,0,1,0,68.187,67.8a.673.673,0,0,1,.3.823Z" fill="#656769"></path><path d="M67.766,70.523a.674.674,0,0,1-.933.363,7.066,7.066,0,1,1,10.016-4.525.675.675,0,0,1-.889.46l-1.9-.719a.673.673,0,0,1-.421-.768A3.7,3.7,0,1,0,68.187,67.8a.673.673,0,0,1,.3.823Z" fill="#c0dceb" stroke="#45413c" stroke-linecap="round" stroke-linejoin="round"></path><path d="M62.705 58.895 A4.038 4.038 0 1 0 70.781 58.895 A4.038 4.038 0 1 0 62.705 58.895 Z" fill="#ffffff" stroke="#45413c" stroke-linecap="round" stroke-linejoin="round"></path><path d="M45.928 61.696 A4.038 4.038 0 1 0 54.004 61.696 A4.038 4.038 0 1 0 45.928 61.696 Z" fill="#ffffff" stroke="#45413c" stroke-linecap="round" stroke-linejoin="round"></path><path d="M37.091 33.316H42.475V37.768H37.091z" fill="#daedf7"></path><path d="M37.091 33.316H42.475V35.076H37.091z" fill="#c0dceb"></path><path d="M37.091 33.316H42.475V37.768H37.091z" fill="none" stroke="#45413c" stroke-linecap="round" stroke-linejoin="round"></path><path d="M29.015 37.768 L50.550 37.768 L50.550 57.957 L29.015 57.957 Z" fill="#ffffff" stroke="#45413c" stroke-linecap="round" stroke-linejoin="round"></path><path d="M35.745 57.958H43.821V64.813H35.745z" fill="#daedf7"></path><path d="M35.745 57.958H43.821V60.775H35.745z" fill="#c0dceb"></path><path d="M35.745 57.958H43.821V64.813H35.745z" fill="none" stroke="#45413c" stroke-linecap="round" stroke-linejoin="round"></path><path d="M45.166,47.19a2.691,2.691,0,0,1-2.691,2.692H37.091A2.692,2.692,0,0,1,34.4,47.19V37.768H45.166Z" fill="#e8f4fa"></path><path d="M45.166,47.19a2.691,2.691,0,0,1-2.691,2.692H37.091A2.692,2.692,0,0,1,34.4,47.19V37.768H45.166Z" fill="none" stroke="#45413c" stroke-linecap="round" stroke-linejoin="round"></path><path d="M13.07 46.934H33.259V52.318H13.07z" fill="#ffffff" stroke="#45413c" stroke-linecap="round" stroke-linejoin="round" transform="translate(-29.78 63.632) rotate(-79.795)"></path><path d="M29.015,47.19H23.631a4.038,4.038,0,0,1-4.038-4.038V41.806a4.038,4.038,0,0,1,4.038-4.038h2.692a2.692,2.692,0,0,1,2.692,2.692Z" fill="#ffffff" stroke="#45413c" stroke-linecap="round" stroke-linejoin="round"></path><path d="M22.3 57.988H37.153V63.372H22.3z" fill="#ffffff" stroke="#45413c" stroke-linecap="round" stroke-linejoin="round" transform="translate(-3.296 1.729) rotate(-3.156)"></path><path d="M41.623,70.157a.671.671,0,0,1-.316.447.678.678,0,0,1-.544.064,7.066,7.066,0,1,1,9.141-6.1.676.676,0,0,1-.8.6l-2-.4a.673.673,0,0,1-.541-.688A3.7,3.7,0,1,0,41.593,67.4a.672.672,0,0,1,.428.764Z" fill="#c0dceb" stroke="#45413c" stroke-linecap="round" stroke-linejoin="round"></path><path d="M35.184 61.151 A4.599 4.599 0 1 0 44.382 61.151 A4.599 4.599 0 1 0 35.184 61.151 Z" fill="#ffffff" stroke="#45413c" stroke-linecap="round" stroke-linejoin="round"></path><path d="M18.021 60.795 A4.038 4.038 0 1 0 26.097 60.795 A4.038 4.038 0 1 0 18.021 60.795 Z" fill="#ffffff" stroke="#45413c" stroke-linecap="round" stroke-linejoin="round"></path><path d="M32.587,33.316H25.6a4,4,0,0,1-4-4V7.84a4,4,0,0,1,4-4h6.987Z" fill="#e8f4fa" stroke="#45413c" stroke-linecap="round" stroke-linejoin="round"></path><path d="M26.775 3.840 L59.690 3.840 L59.690 33.316 L26.775 33.316 Z" fill="#00c798"></path><path d="M26.775 3.840 L59.690 3.840 L59.690 33.316 L26.775 33.316 Z" fill="#009fd9"></path><path d="M58.561,5.421A4.592,4.592,0,0,0,55.09,3.84H31.376a4.6,4.6,0,0,0-4.6,4.6V28.715a4.6,4.6,0,0,0,3.939,4.553Z" fill="#00b8f0"></path><path d="M26.775 3.840 L59.690 3.840 L59.690 33.316 L26.775 33.316 Z" fill="none" stroke="#45413c" stroke-linecap="round" stroke-linejoin="round"></path><path d="M31.375,30.44a1.727,1.727,0,0,1-1.725-1.725V8.439a1.727,1.727,0,0,1,1.725-1.725H55.09a1.727,1.727,0,0,1,1.725,1.726V28.716a1.727,1.727,0,0,1-1.725,1.725H31.375Z" fill="none" stroke="#4acfff" stroke-linecap="round" stroke-linejoin="round"></path><path d="M34.659,12.935a.29.29,0,0,1,.2.289c0,.238-.13.357-.272.357a.64.64,0,0,1-.283-.079l-2.239-1.031a.355.355,0,0,1,0-.647L34.307,10.8a.606.606,0,0,1,.283-.084c.142,0,.272.119.272.356a.29.29,0,0,1-.2.289l-1.888.788Z" fill="#e5fff9"></path><path d="M37.013,11.45c-.153,0-.465-.238-.731-.238-.148,0-.278.068-.278.227,0,.38,1.417.323,1.417,1.252a1.029,1.029,0,0,1-1.162.958c-.459,0-1.14-.26-1.14-.629a.386.386,0,0,1,.352-.362c.318,0,.459.277.844.277.25,0,.324-.079.324-.232,0-.374-1.418-.318-1.418-1.253a.991.991,0,0,1,1.106-.952c.4,0,1.02.187,1.02.59A.351.351,0,0,1,37.013,11.45Z" fill="#e5fff9"></path><path d="M39.741,11.405c-.2,0-.386-.159-.647-.159-.464,0-.685.414-.685.833a.751.751,0,0,0,.685.822,4.421,4.421,0,0,0,.606-.17.359.359,0,0,1,.352.357c0,.42-.7.561-1,.561a1.485,1.485,0,0,1-1.462-1.57A1.519,1.519,0,0,1,39.054,10.5c.324,0,1,.119,1,.516C40.052,11.184,39.933,11.405,39.741,11.405Z" fill="#e5fff9"></path><path d="M40.325,10.94a.4.4,0,0,1,.418-.408c.216,0,.4.079.4.34h.011a.643.643,0,0,1,.572-.34.4.4,0,0,1,.4.437c0,.266-.243.283-.487.4s-.493.221-.493.544v1.253a.41.41,0,1,1-.816,0Z" fill="#e5fff9"></path><path d="M43.081,9.756a.467.467,0,0,1-.46.47.478.478,0,0,1-.459-.47.46.46,0,0,1,.919,0Zm-.867,1.229a.41.41,0,1,1,.816,0v2.177a.41.41,0,1,1-.816,0Z" fill="#e5fff9"></path><path d="M43.484,10.985a.412.412,0,0,1,.407-.453.392.392,0,0,1,.409.34.906.906,0,0,1,.776-.374,1.445,1.445,0,0,1,1.315,1.616,1.443,1.443,0,0,1-1.343,1.535,1.162,1.162,0,0,1-.748-.283v1a.41.41,0,1,1-.816,0ZM44.94,12.9c.425,0,.635-.442.635-.822s-.21-.833-.635-.833-.64.408-.64.8S44.492,12.9,44.94,12.9Z" fill="#e5fff9"></path><path d="M46.937,11.28h-.182a.33.33,0,0,1-.357-.357.349.349,0,0,1,.357-.357h.182v-.487a.41.41,0,1,1,.815,0v.487h.233a.358.358,0,1,1,0,.714h-.233v1.882a.41.41,0,1,1-.815,0Z" fill="#e5fff9"></path><path d="M50.475,12.147l-1.888-.788a.288.288,0,0,1-.2-.289c0-.237.13-.356.271-.356a.6.6,0,0,1,.283.084l2.24,1.026a.355.355,0,0,1,0,.647L48.938,13.5a.637.637,0,0,1-.283.079c-.141,0-.271-.119-.271-.357a.288.288,0,0,1,.2-.289Z" fill="#e5fff9"></path><path d="M31.705,17.433a.607.607,0,0,1-.05-.238.393.393,0,0,1,.424-.4.371.371,0,0,1,.363.289l.522,1.609h.011l.521-1.609a.373.373,0,0,1,.363-.289.4.4,0,0,1,.426.4.58.58,0,0,1-.052.238l-.822,2.109c-.079.209-.164.34-.441.34s-.363-.131-.443-.34Z" fill="#e5fff9"></path><path d="M37.3,19.349c0,.21,0,.533-.391.533-.238,0-.334-.131-.39-.346a.976.976,0,0,1-.777.38,1.429,1.429,0,0,1-1.349-1.57,1.463,1.463,0,0,1,1.349-1.581.934.934,0,0,1,.777.374.386.386,0,0,1,.39-.34c.391,0,.391.323.391.532Zm-1.445-.181c.426,0,.629-.431.629-.822s-.2-.833-.629-.833c-.448,0-.646.442-.646.833S35.413,19.168,35.856,19.168Z" fill="#e5fff9"></path><path d="M37.756,17.207a.4.4,0,0,1,.419-.408c.216,0,.4.079.4.34h.011a.642.642,0,0,1,.571-.34.4.4,0,0,1,.4.436c0,.266-.244.283-.487.4s-.493.221-.493.544v1.253a.411.411,0,1,1-.817,0Z" fill="#e5fff9"></path><path d="M42.032,16.022a.467.467,0,0,1-.46.47.478.478,0,0,1-.459-.47.46.46,0,0,1,.919,0Zm-.867,1.23a.41.41,0,1,1,.816,0v2.177a.41.41,0,1,1-.816,0Z" fill="#e5fff9"></path><path d="M46.584,17.439a.34.34,0,0,1,0,.68H44.26a.34.34,0,0,1,0-.68Zm0,1.27a.34.34,0,1,1,0,.68H44.26a.34.34,0,0,1,0-.68Z" fill="#e5fff9"></path><path d="M49.5,16.594H49.17a.366.366,0,0,1-.386-.39.38.38,0,0,1,.386-.392h.8a.369.369,0,0,1,.379.4V19.44a.425.425,0,1,1-.85,0Z" fill="#e5fff9"></path><path d="M50.867,17.83c0-.924.357-2.086,1.5-2.086s1.5,1.162,1.5,2.086-.357,2.086-1.5,2.086S50.867,18.754,50.867,17.83Zm2.12,0c0-.43-.041-1.315-.619-1.315s-.618.885-.618,1.315c0,.4.041,1.315.618,1.315S52.987,18.232,52.987,17.83Z" fill="#e5fff9"></path><path d="M55.2,19.338a.543.543,0,0,1-.074.226l-.476.851a.4.4,0,0,1-.322.193.387.387,0,0,1-.386-.375.548.548,0,0,1,.068-.226l.47-.85a.418.418,0,0,1,.329-.193A.392.392,0,0,1,55.2,19.338Zm-.442-2.126a.443.443,0,1,1-.442.443A.444.444,0,0,1,54.756,17.212Z" fill="#e5fff9"></path><path d="M34.659,25.469a.29.29,0,0,1,.2.289c0,.238-.13.357-.272.357a.64.64,0,0,1-.283-.079L32.068,25a.354.354,0,0,1,0-.646l2.239-1.026a.613.613,0,0,1,.283-.085c.142,0,.272.119.272.357a.29.29,0,0,1-.2.289l-1.888.788Z" fill="#e5fff9"></path><path d="M36.672,22.222a.307.307,0,0,1,.318-.21.32.32,0,0,1,.335.311.593.593,0,0,1-.052.159l-1.507,3.492a.311.311,0,0,1-.318.209.326.326,0,0,1-.34-.312.661.661,0,0,1,.052-.158Z" fill="#e5fff9"></path><path d="M39.321,23.984c-.153,0-.465-.238-.732-.238-.147,0-.277.068-.277.227,0,.38,1.416.323,1.416,1.252a1.028,1.028,0,0,1-1.161.958c-.459,0-1.14-.26-1.14-.629a.386.386,0,0,1,.352-.363c.317,0,.459.278.844.278.249,0,.324-.079.324-.233,0-.374-1.418-.317-1.418-1.252a.991.991,0,0,1,1.1-.952c.4,0,1.021.187,1.021.589A.352.352,0,0,1,39.321,23.984Z" fill="#e5fff9"></path><path d="M42.048,23.939c-.2,0-.385-.159-.646-.159-.464,0-.685.414-.685.833a.751.751,0,0,0,.685.822,4.421,4.421,0,0,0,.606-.17.359.359,0,0,1,.352.357c0,.42-.7.561-1,.561a1.485,1.485,0,0,1-1.462-1.57,1.518,1.518,0,0,1,1.462-1.581c.324,0,1,.119,1,.516C42.36,23.717,42.24,23.939,42.048,23.939Z" fill="#e5fff9"></path><path d="M42.634,23.474a.4.4,0,0,1,.418-.408c.216,0,.4.079.4.34h.011a.643.643,0,0,1,.572-.34.4.4,0,0,1,.4.436c0,.267-.243.283-.487.4s-.493.221-.493.544V25.7a.41.41,0,1,1-.816,0Z" fill="#e5fff9"></path><path d="M45.388,22.289a.467.467,0,0,1-.459.471.478.478,0,0,1-.459-.471.459.459,0,0,1,.918,0Zm-.867,1.23a.411.411,0,1,1,.817,0V25.7a.411.411,0,1,1-.817,0Z" fill="#e5fff9"></path><path d="M45.792,23.519a.411.411,0,0,1,.407-.453.392.392,0,0,1,.409.34.9.9,0,0,1,.776-.374A1.445,1.445,0,0,1,48.7,24.647a1.443,1.443,0,0,1-1.343,1.536,1.162,1.162,0,0,1-.748-.283v1a.41.41,0,1,1-.816,0Zm1.456,1.916c.425,0,.635-.442.635-.822s-.21-.833-.635-.833-.64.408-.64.8S46.8,25.435,47.248,25.435Z" fill="#e5fff9"></path><path d="M49.245,23.814h-.182a.33.33,0,0,1-.357-.357.349.349,0,0,1,.357-.357h.182v-.488a.41.41,0,1,1,.815,0V23.1h.233c.21,0,.391.1.391.357a.345.345,0,0,1-.391.357H50.06V25.7a.41.41,0,1,1-.815,0Z" fill="#e5fff9"></path><path d="M52.783,24.681,50.9,23.893a.289.289,0,0,1-.2-.289c0-.238.131-.357.272-.357a.61.61,0,0,1,.283.085l2.24,1.026a.355.355,0,0,1,0,.646l-2.24,1.032a.637.637,0,0,1-.283.079c-.141,0-.272-.119-.272-.357a.289.289,0,0,1,.2-.289Z" fill="#e5fff9"></path><path d="M89.206,78.489a1.149,1.149,0,0,1-1.123,1.4H47.941l-.575-5.245H87.437a1.15,1.15,0,0,1,1.123.9Z" fill="#f0f0f0" stroke="#45413c" stroke-linecap="round" stroke-linejoin="round"></path><path d="M47.941,79.885H36.378a1.149,1.149,0,0,1-1.123-1.4l.646-2.945a1.15,1.15,0,0,1,1.123-.9H47.366Z" fill="#bdbec0" stroke="#45413c" stroke-linecap="round" stroke-linejoin="round"></path><path d="M85.709,72.6a1.151,1.151,0,0,0-1.134-.956H82.269a1.151,1.151,0,0,0-1.134.956l-.349,2.041h5.272Z" fill="#ffffff" stroke="#45413c" stroke-linecap="round" stroke-linejoin="round"></path><path d="M77.9,72.6a1.151,1.151,0,0,0-1.134-.956H74.46a1.15,1.15,0,0,0-1.134.956l-.349,2.041h5.272Z" fill="#ffffff" stroke="#45413c" stroke-linecap="round" stroke-linejoin="round"></path><path d="M70.091,72.6a1.151,1.151,0,0,0-1.134-.956H66.65a1.149,1.149,0,0,0-1.133.956l-.349,2.041H70.44Z" fill="#ffffff" stroke="#45413c" stroke-linecap="round" stroke-linejoin="round"></path><path d="M62.282,72.6a1.151,1.151,0,0,0-1.134-.956H58.841a1.149,1.149,0,0,0-1.133.956l-.349,2.041h5.272Z" fill="#ffffff" stroke="#45413c" stroke-linecap="round" stroke-linejoin="round"></path><path d="M54.472,72.6a1.149,1.149,0,0,0-1.133-.956H51.032A1.149,1.149,0,0,0,49.9,72.6L49.55,74.64h5.272Z" fill="#ffffff" stroke="#45413c" stroke-linecap="round" stroke-linejoin="round"></path><path d="M45.153,72.6a1.149,1.149,0,0,0-1.133-.956H41.713a1.149,1.149,0,0,0-1.133.956l-.35,2.041H45.5Z" fill="#ffffff" stroke="#45413c" stroke-linecap="round" stroke-linejoin="round"></path><path d="M24.3,25.113c3.61,37.821-21.183,54.772,20.862,52.15" fill="none" stroke="#45413c" stroke-linecap="round" stroke-linejoin="round"></path></g></svg>