<svg xmlns="http://www.w3.org/2000/svg" version="1.1" xmlns:xlink="http://www.w3.org/1999/xlink" xmlns:svgjs="http://svgjs.com/svgjs" viewBox="0 0 200 200" width="200" height="200"><g transform="matrix(2,0,0,2,0,0)"><path d="M9.939 50.000 A40.000 40.000 0 1 0 89.939 50.000 A40.000 40.000 0 1 0 9.939 50.000 Z" fill="#e8f4fa" stroke="#daedf7" stroke-miterlimit="10"></path><path d="M15.259 47.225 L44.939 47.225 L44.939 73.195 L15.259 73.195 Z" fill="#45413c" opacity=".15" transform="translate(-33.759 38.918) rotate(-45)"></path><path d="M16.127 41.097 L45.807 41.097 L45.807 67.067 L16.127 67.067 Z" fill="#ff8a14" transform="translate(-29.171 37.737) rotate(-45)"></path><path d="M44.52,58.891l3.5-3.5a3.71,3.71,0,0,0,0-5.247L34.9,37.03a3.71,3.71,0,0,0-5.247,0l-3.5,3.5,0,0a3.712,3.712,0,0,1,5.246,0L44.517,53.641a3.705,3.705,0,0,1,0,5.246" fill="#ffaa54"></path><path d="M43.647,49.273a1.237,1.237,0,0,1-1.749,0l-6.121-6.121a1.237,1.237,0,0,1,0-1.749l1.749-1.749,7.87,7.87Z" fill="#525252"></path><path d="M40.661 46.649 A1.237 1.237 0 1 0 43.135 46.649 A1.237 1.237 0 1 0 40.661 46.649 Z" fill="#4acfff"></path><path d="M37.163 43.152 A1.237 1.237 0 1 0 39.637 43.152 A1.237 1.237 0 1 0 37.163 43.152 Z" fill="#4acfff"></path><path d="M16.127 41.097 L45.807 41.097 L45.807 67.067 L16.127 67.067 Z" fill="none" stroke="#45413c" stroke-linecap="round" stroke-linejoin="round" transform="translate(-29.171 37.737) rotate(-45)"></path><path d="M47.379,42.917a3.709,3.709,0,0,0,1.087-2.623V29.739a2.473,2.473,0,0,1,.724-1.749L57,20.182l1.673,1.672a.618.618,0,0,0,1.054-.389l.716-9.309a.619.619,0,0,0-.664-.663l-9.308.716a.618.618,0,0,0-.39,1.053l1.673,1.673-3.5,3.5a1.237,1.237,0,0,1-1.749,0L42.32,14.248l1.673-1.673a.618.618,0,0,0-.39-1.053L34.3,10.806a.617.617,0,0,0-.664.663l.716,9.309a.618.618,0,0,0,1.054.389L37.073,19.5l4.3,4.3a1.235,1.235,0,0,1,.191,1.5,3.651,3.651,0,0,0-.515,1.884V37.732a2.473,2.473,0,0,1-.724,1.749l-1.484,1.485,5.246,5.246Z" fill="#6dd627" stroke="#46b000" stroke-linecap="round" stroke-linejoin="round"></path><path d="M56.651 36.436 L86.331 36.436 L86.331 62.406 L56.651 62.406 Z" fill="#45413c" opacity=".15" transform="translate(-14.007 65.027) rotate(-45)"></path><path d="M55.443,55.7a3.708,3.708,0,0,0-1.086,2.623V68.882a2.477,2.477,0,0,1-.724,1.749l-7.809,7.808-1.672-1.672a.618.618,0,0,0-1.054.389l-.716,9.308a.618.618,0,0,0,.664.664l9.308-.716a.618.618,0,0,0,.39-1.053l-1.673-1.673,3.5-3.5a1.237,1.237,0,0,1,1.749,0L60.5,84.373,58.83,86.046a.618.618,0,0,0,.39,1.053l9.308.716a.614.614,0,0,0,.484-.179.622.622,0,0,0,.18-.485l-.716-9.308a.618.618,0,0,0-1.054-.389l-1.673,1.672-4.3-4.3a1.237,1.237,0,0,1-.192-1.5,3.651,3.651,0,0,0,.515-1.884V60.889A2.474,2.474,0,0,1,62.5,59.14l1.484-1.485-5.247-5.246Z" fill="#ff6242" stroke="#e04122" stroke-linecap="round" stroke-linejoin="round"></path><path d="M43.647,49.273a1.237,1.237,0,0,1-1.749,0l-6.121-6.121a1.237,1.237,0,0,1,0-1.749l1.749-1.749,7.87,7.87Z" fill="none" stroke="#45413c" stroke-linecap="round" stroke-linejoin="round"></path><path d="M57.083 31.622 L86.763 31.622 L86.763 57.592 L57.083 57.592 Z" fill="#ff8a14" transform="translate(-10.476 63.922) rotate(-45)"></path><path d="M59.243,49.416a1.237,1.237,0,0,1,1.749,0l6.121,6.121a1.237,1.237,0,0,1,0,1.749l-1.749,1.749-7.87-7.87Z" fill="#525252"></path><path d="M59.755 52.039 A1.237 1.237 0 1 0 62.229 52.039 A1.237 1.237 0 1 0 59.755 52.039 Z" fill="#4acfff"></path><path d="M63.253 55.537 A1.237 1.237 0 1 0 65.727 55.537 A1.237 1.237 0 1 0 63.253 55.537 Z" fill="#4acfff"></path><path d="M59.243,49.416a1.237,1.237,0,0,1,1.749,0l6.121,6.121a1.237,1.237,0,0,1,0,1.749l-1.749,1.749-7.87-7.87Z" fill="none" stroke="#45413c" stroke-linecap="round" stroke-linejoin="round"></path><path d="M85.477,49.416l3.5-3.5a3.71,3.71,0,0,0,0-5.247L75.858,27.555a3.71,3.71,0,0,0-5.247,0l-3.5,3.5,0,0a3.712,3.712,0,0,1,5.246,0L85.473,44.166a3.7,3.7,0,0,1,0,5.246" fill="#ffaa54"></path><path d="M57.083 31.622 L86.763 31.622 L86.763 57.592 L57.083 57.592 Z" fill="none" stroke="#45413c" stroke-linecap="round" stroke-linejoin="round" transform="translate(-10.476 63.922) rotate(-45)"></path><path d="M83.726,46.792l2.623-2.623a1.237,1.237,0,0,0,0-1.749L74.107,30.178a1.237,1.237,0,0,0-1.749,0L69.735,32.8a1.24,1.24,0,0,1,1.749,0L83.726,45.044A1.232,1.232,0,0,1,83.726,46.792Z" fill="#eb6d00"></path><path d="M65.972 32.311 L82.674 32.311 L82.674 52.097 L65.972 52.097 Z" fill="none" stroke="#45413c" stroke-linecap="round" stroke-linejoin="round" transform="translate(-8.074 64.916) rotate(-45)"></path><path d="M37.991,61.094l2.623-2.623a1.237,1.237,0,0,0,0-1.749L28.372,44.48a1.237,1.237,0,0,0-1.749,0L24,47.1a1.24,1.24,0,0,1,1.749,0L37.991,59.345A1.232,1.232,0,0,1,37.991,61.094Z" fill="#eb6d00"></path><path d="M20.238 46.613 L36.940 46.613 L36.940 66.399 L20.238 66.399 Z" fill="none" stroke="#45413c" stroke-linecap="round" stroke-linejoin="round" transform="translate(-31.582 36.765) rotate(-45)"></path></g></svg>