<svg xmlns="http://www.w3.org/2000/svg" version="1.1" xmlns:xlink="http://www.w3.org/1999/xlink" xmlns:svgjs="http://svgjs.com/svgjs" viewBox="0 0 200 200" width="200" height="200"><g transform="matrix(2,0,0,2,0,0)"><path d="M8.711 50.000 A40.000 40.000 0 1 0 88.711 50.000 A40.000 40.000 0 1 0 8.711 50.000 Z" fill="#e8f4fa" stroke="#daedf7" stroke-miterlimit="10"></path><path d="M33.048,24.763a7.646,7.646,0,0,0,7.979,7.3l2.546-.114L42.891,16.67l-2.546.114A7.645,7.645,0,0,0,33.048,24.763Z" fill="#e8f4fa" stroke="#45413c" stroke-linecap="round" stroke-linejoin="round"></path><path d="M37.725,31.473a7.648,7.648,0,0,1,5.229-13.389l-.063-1.414-2.546.114a7.647,7.647,0,0,0-2.62,14.689Z" fill="#ffffff"></path><path d="M33.048,24.763a7.646,7.646,0,0,0,7.979,7.3l2.546-.114L42.891,16.67l-2.546.114A7.645,7.645,0,0,0,33.048,24.763Z" fill="none" stroke="#45413c" stroke-linecap="round" stroke-linejoin="round"></path><path d="M72.086,22.093a6.3,6.3,0,0,1,3.506-3.4,1.294,1.294,0,0,1,1.672.716,1.265,1.265,0,0,1-.71,1.656,3.891,3.891,0,0,0-2.129,4.97,3.84,3.84,0,1,0,7.144-2.821,1.266,1.266,0,0,1,.71-1.656,1.294,1.294,0,0,1,1.672.716A6.329,6.329,0,0,1,80.4,30.557a6.471,6.471,0,0,1-8.358-3.581A6.3,6.3,0,0,1,72.086,22.093Z" fill="#656769" stroke="#45413c" stroke-linecap="round" stroke-linejoin="round"></path><path d="M56.235,44.548a16.6,16.6,0,0,1-5.158-.83,2.549,2.549,0,0,1,1.575-4.849c10.985,3.574,20.474-11.05,20.568-11.2a2.548,2.548,0,1,1,4.3,2.742C77.1,31.063,68.333,44.548,56.235,44.548Z" fill="#daedf7" stroke="#45413c" stroke-linecap="round" stroke-linejoin="round"></path><path d="M72.007,20.171a1.972,1.972,0,0,1-.937-2.626l2.882-6.082a1.97,1.97,0,0,1,2.625-.937l13.584,6.436a1.971,1.971,0,0,1,.937,2.626L88.216,25.67a1.97,1.97,0,0,1-2.625.937Z" fill="#ffffff" stroke="#45413c" stroke-linecap="round" stroke-linejoin="round"></path><path d="M91.077,17.867l-9.278.649a1.272,1.272,0,0,1-1.129-.535L75.3,10.389" fill="none" stroke="#45413c" stroke-linecap="round" stroke-linejoin="round"></path><path d="M57.373,39.37a5.527,5.527,0,0,1,.515,5.094" fill="none" stroke="#45413c" stroke-linecap="round" stroke-linejoin="round"></path><path d="M62.779,37.623a5.518,5.518,0,0,1,2.492,4.459" fill="none" stroke="#45413c" stroke-linecap="round" stroke-linejoin="round"></path><path d="M67.241,34.473a5.534,5.534,0,0,1,3.725,3.516" fill="none" stroke="#45413c" stroke-linecap="round" stroke-linejoin="round"></path><path d="M71.279,30.54a5.525,5.525,0,0,1,3.96,2.95" fill="none" stroke="#45413c" stroke-linecap="round" stroke-linejoin="round"></path><path d="M40.621 35.243L44.396 35.849 45.098 31.478 41.226 31.478 40.621 35.243z" fill="#c0dceb" stroke="#45413c" stroke-linecap="round" stroke-linejoin="round"></path><path d="M47.72,36.383a5.1,5.1,0,0,1,4.224,5.841l-2.192,13.8-5.033-.808-5.033-.808L35.912,53.8l3-18.833Z" fill="#e8f4fa"></path><path d="M51.673,43.933l.271-1.709a5.1,5.1,0,0,0-4.224-5.841l-8.808-1.414-.619,3.892,9.048,1.453A5.515,5.515,0,0,1,51.673,43.933Z" fill="#ffffff"></path><path d="M47.72,36.383a5.1,5.1,0,0,1,4.224,5.841l-2.192,13.8-5.033-.808-5.033-.808L35.912,53.8l3-18.833Z" fill="none" stroke="#45413c" stroke-linecap="round" stroke-linejoin="round"></path><path d="M40.679 16.435 L55.971 16.435 L55.971 31.727 L40.679 31.727 Z" fill="#525252" stroke="#45413c" stroke-linecap="round" stroke-linejoin="round" transform="translate(-1.026 2.18) rotate(-2.557)"></path><path d="M30.879,52.994,40.944,54.61l2.193-13.8a5.1,5.1,0,0,0-10.065-1.617Z" fill="#e8f4fa"></path><path d="M50.551 23.910 A1.274 1.274 0 1 0 53.099 23.910 A1.274 1.274 0 1 0 50.551 23.910 Z" fill="#4acfff" stroke="#4acfff" stroke-miterlimit="10"></path><path d="M44.186 24.194 A1.274 1.274 0 1 0 46.734 24.194 A1.274 1.274 0 1 0 44.186 24.194 Z" fill="#4acfff" stroke="#4acfff" stroke-miterlimit="10"></path><path d="M32.851,40.584l.221-1.391A5.1,5.1,0,0,1,43.137,40.81l-.269,1.7a6.509,6.509,0,0,0-10.017-1.921Z" fill="#ffffff"></path><path d="M30.879,52.994,40.944,54.61l2.193-13.8a5.1,5.1,0,0,0-10.065-1.617Z" fill="none" stroke="#45413c" stroke-linecap="round" stroke-linejoin="round"></path><path d="M9.843 65.311 A7.646 3.823 0 1 0 25.135 65.311 A7.646 3.823 0 1 0 9.843 65.311 Z" fill="#656769" stroke="#45413c" stroke-linecap="round" stroke-linejoin="round" transform="translate(-42.401 33.932) rotate(-47.357)"></path><path d="M55.864,84.837a2.548,2.548,0,0,1-2.534-2.311C51.95,67.837,40.97,62.189,40.5,61.956a2.549,2.549,0,0,1,2.251-4.573c.572.28,14,7.052,15.651,24.667a2.549,2.549,0,0,1-2.3,2.775C56.025,84.833,55.944,84.837,55.864,84.837Z" fill="#daedf7" stroke="#45413c" stroke-linecap="round" stroke-linejoin="round"></path><path d="M24.891 84.435 A19.921 1.759 0 1 0 64.733 84.435 A19.921 1.759 0 1 0 24.891 84.435 Z" fill="#45413c" opacity=".15"></path><path d="M30.841,53a9.557,9.557,0,1,0,18.873,3.028Z" fill="#e8f4fa" stroke="#45413c" stroke-linecap="round" stroke-linejoin="round"></path><path d="M30.841,53a9.342,9.342,0,0,0,.187,3.9l17.288,2.774a9.338,9.338,0,0,0,1.4-3.648Z" fill="#daedf7"></path><path d="M30.841,53a9.557,9.557,0,1,0,18.873,3.028Z" fill="none" stroke="#45413c" stroke-linecap="round" stroke-linejoin="round"></path><path d="M27.9,70.964a7.461,7.461,0,0,1-.868.053c-3.056,0-5.982-1.976-8.711-5.887a2.549,2.549,0,0,1,4.18-2.917c1.77,2.537,3.482,3.857,4.782,3.691,2.182-.259,4.361-4.113,5.074-5.939A2.548,2.548,0,0,1,37.1,61.8C36.772,62.668,33.682,70.263,27.9,70.964Z" fill="#daedf7" stroke="#45413c" stroke-linecap="round" stroke-linejoin="round"></path><path d="M55.562 85.236 A7.646 3.823 -36.582456187047846 1 0 67.841 76.122 A7.646 3.823 -36.582456187047846 1 0 55.562 85.236 Z" fill="#656769" stroke="#45413c" stroke-linecap="round" stroke-linejoin="round" transform="matrix(0.803, -0.596, 0.596, 0.803, -35.923, 52.65)"></path><path d="M47.869,68.363a5.536,5.536,0,0,1,3.663-3.577" fill="none" stroke="#45413c" stroke-linecap="round" stroke-linejoin="round"></path><path d="M26.332,70.983a5.529,5.529,0,0,1-.283-5.3" fill="none" stroke="#45413c" stroke-linecap="round" stroke-linejoin="round"></path><path d="M21,68.294a5.525,5.525,0,0,1,3.039-4.159" fill="none" stroke="#45413c" stroke-linecap="round" stroke-linejoin="round"></path><path d="M50.948,73.446a5.508,5.508,0,0,1,4.2-1.942c.178,0,.355.009.528.025" fill="none" stroke="#45413c" stroke-linecap="round" stroke-linejoin="round"></path><path d="M18.534 48.742 L32.499 48.742 L32.499 65.034 L18.534 65.034 Z" fill="#4acfff" transform="translate(-34.664 40.587) rotate(-50.686)"></path><path d="M33.541,54.435l-7.2-5.9a3.489,3.489,0,0,0-4.912.489l-2.212,2.7a3.487,3.487,0,0,1,4.913-.489l4.5,3.686A3.486,3.486,0,0,1,33.541,54.435Z" fill="#80ddff"></path><path d="M18.534 48.742 L32.499 48.742 L32.499 65.034 L18.534 65.034 Z" fill="none" stroke="#45413c" stroke-linecap="round" stroke-linejoin="round" transform="translate(-34.664 40.587) rotate(-50.686)"></path><path d="M34.031,59.348l-5.4-4.424a3.492,3.492,0,0,1,5.4,4.424Z" fill="#009fd9" stroke="#45413c" stroke-linecap="round" stroke-linejoin="round"></path><path d="M34.031,59.348l-4.424,5.4a3.491,3.491,0,1,1-5.4-4.423l4.423-5.4Z" fill="none" stroke="#45413c" stroke-linecap="round" stroke-linejoin="round"></path><path d="M28.628,54.924l-.737.9a3.487,3.487,0,0,1-4.913.489l-1.8-1.475a3.487,3.487,0,0,1-.489-4.913l.738-.9" fill="none" stroke="#45413c" stroke-linecap="round" stroke-linejoin="round"></path><path d="M49.31,35.447a1.164,1.164,0,0,1,.287,1.734L28.065,63.165a1.164,1.164,0,0,1-1.8-1.475L47.805,35.7A1.164,1.164,0,0,1,49.31,35.447Z" fill="#4acfff" stroke="#45413c" stroke-linecap="round" stroke-linejoin="round"></path><path d="M28.239,51.1a6.3,6.3,0,0,1-2.659,4.1,1.294,1.294,0,0,1-1.789-.325,1.264,1.264,0,0,1,.322-1.773,3.89,3.89,0,0,0,.966-5.319,3.884,3.884,0,0,0-5.368-.976,3.89,3.89,0,0,0-.966,5.319,1.265,1.265,0,0,1-.323,1.773,1.293,1.293,0,0,1-1.789-.325A6.329,6.329,0,0,1,18.244,44.7a6.472,6.472,0,0,1,8.947,1.626A6.3,6.3,0,0,1,28.239,51.1Z" fill="#656769" stroke="#45413c" stroke-linecap="round" stroke-linejoin="round"></path><path d="M22.781,46.535a2.552,2.552,0,0,1-2.179-3.07,10.879,10.879,0,0,1,5.436-6.9c3.415-1.679,7.692-1.345,12.712,1a2.549,2.549,0,0,1-2.156,4.62c-3.476-1.624-6.333-1.991-8.262-1.065a5.722,5.722,0,0,0-2.76,3.48A2.565,2.565,0,0,1,22.781,46.535Z" fill="#daedf7" stroke="#45413c" stroke-linecap="round" stroke-linejoin="round"></path><path d="M23.163,38.733a5.53,5.53,0,0,1,3.8,3.392" fill="none" stroke="#45413c" stroke-linecap="round" stroke-linejoin="round"></path><path d="M30.341,35.522a5.534,5.534,0,0,1,.46,5.1" fill="none" stroke="#45413c" stroke-linecap="round" stroke-linejoin="round"></path><path d="M35.8,36.39a5.527,5.527,0,0,1-1.054,5.027" fill="none" stroke="#45413c" stroke-linecap="round" stroke-linejoin="round"></path></g></svg>