<svg xmlns="http://www.w3.org/2000/svg" version="1.1" xmlns:xlink="http://www.w3.org/1999/xlink" xmlns:svgjs="http://svgjs.com/svgjs" viewBox="0 0 200 200" width="200" height="200"><g transform="matrix(2,0,0,2,0,0)"><path d="M12.765,68.041a40.017,40.017,0,0,0,72.9,0Z" fill="#daf7c6"></path><path d="M85.663,68.041a40,40,0,1,0-72.9,0Z" fill="#c7f0ff"></path><path d="M10.214 68.041L88.214 68.041" fill="none" stroke="#45413c" stroke-linecap="round" stroke-linejoin="round"></path><path d="M5.714 68.041L8.214 68.041" fill="none" stroke="#45413c" stroke-linecap="round" stroke-linejoin="round"></path><path d="M90.214 68.041L92.714 68.041" fill="none" stroke="#45413c" stroke-linecap="round" stroke-linejoin="round"></path><path d="M50.258 85.010 A23.758 1.666 0 1 0 97.774 85.010 A23.758 1.666 0 1 0 50.258 85.010 Z" fill="#45413c" opacity=".15"></path><path d="M45.429 72.476 L64.749 72.476 L64.749 84.551 L45.429 84.551 Z" fill="#87898c" stroke="#45413c" stroke-linecap="round" stroke-linejoin="round"></path><path d="M53.881 72.476 L73.201 72.476 L73.201 84.551 L53.881 84.551 Z" fill="#525252" stroke="#45413c" stroke-linecap="round" stroke-linejoin="round"></path><path d="M75.616,84.551H61.126A3.622,3.622,0,0,1,57.5,80.929V73.684a3.622,3.622,0,0,1,3.622-3.623h14.49Z" fill="#ffe500"></path><path d="M75.616,74.891v-4.83H61.126A3.622,3.622,0,0,0,57.5,73.684v4.83a3.618,3.618,0,0,1,3.622-3.623Z" fill="#fff48c"></path><path d="M73.202 44.704 A6.037 6.037 0 1 0 85.276 44.704 A6.037 6.037 0 1 0 73.202 44.704 Z" fill="#ebcb00" stroke="#45413c" stroke-linecap="round" stroke-linejoin="round"></path><path d="M79.239,38.666a6.022,6.022,0,0,1,4.566,2.088h0a7.928,7.928,0,0,0,.266-2.089,8.453,8.453,0,0,0-16.9,0H79.239a1.872,1.872,0,0,1,.265.012" fill="#ffffff" stroke="#45413c" stroke-linecap="round" stroke-linejoin="round"></path><path d="M17.656 85.010 A10.052 1.666 0 1 0 37.760 85.010 A10.052 1.666 0 1 0 17.656 85.010 Z" fill="#45413c" opacity=".15"></path><path d="M1.535 83.803 A4.438 1.666 0 1 0 10.411 83.803 A4.438 1.666 0 1 0 1.535 83.803 Z" fill="#45413c" opacity=".15"></path><path d="M31.875,51.785A1.66,1.66,0,0,1,30.7,48.952a4.789,4.789,0,1,0-6.772,0A1.659,1.659,0,1,1,21.584,51.3a8.107,8.107,0,1,1,11.464,0A1.653,1.653,0,0,1,31.875,51.785Z" fill="#e0e0e0"></path><path d="M33.048,39.833a8.107,8.107,0,0,0-11.464,0c-.053.054-.106.108-.158.163a6.037,6.037,0,0,0,1.79,3.1,4.787,4.787,0,0,1,8.2,0,6.036,6.036,0,0,0,1.79-3.1C33.154,39.94,33.1,39.887,33.048,39.833Z" fill="#bdbec0"></path><path d="M31.875,51.785A1.66,1.66,0,0,1,30.7,48.952a4.789,4.789,0,1,0-6.772,0A1.659,1.659,0,1,1,21.584,51.3a8.107,8.107,0,1,1,11.464,0A1.653,1.653,0,0,1,31.875,51.785Z" fill="none" stroke="#45413c" stroke-linecap="round" stroke-linejoin="round"></path><path d="M73.2,57.986h-9.66L26.307,14.4a3.6,3.6,0,0,1,5.475-4.688Z" fill="#ffe500" stroke="#45413c" stroke-linecap="round" stroke-linejoin="round"></path><path d="M63.541 57.986H70.786V70.06099999999999H63.541z" fill="#87898c" stroke="#45413c" stroke-linecap="round" stroke-linejoin="round"></path><path d="M75.616,84.551H61.126A3.622,3.622,0,0,1,57.5,80.929V73.684a3.622,3.622,0,0,1,3.622-3.623h14.49Z" fill="none" stroke="#45413c" stroke-linecap="round" stroke-linejoin="round"></path><path d="M75.616,70.061H88.9a3.623,3.623,0,0,1,3.623,3.623v7.245A3.622,3.622,0,0,1,88.9,84.551H75.616a3.622,3.622,0,0,1-3.622-3.622V73.684A3.622,3.622,0,0,1,75.616,70.061Z" fill="#ebcb00" stroke="#45413c" stroke-linecap="round" stroke-linejoin="round"></path><path d="M27.915,66.16a1.207,1.207,0,0,0-1.266,0l-8.2,5.046v12.8H36.114v-12.8Z" fill="#ffffff"></path><path d="M27.915,66.16a1.207,1.207,0,0,0-1.266,0l-8.2,5.046v3.821l8.2-5.046a1.207,1.207,0,0,1,1.266,0l8.2,5.046V71.206Z" fill="#f0f0f0"></path><path d="M27.915,66.16a1.207,1.207,0,0,0-1.266,0l-8.2,5.046v12.8H36.114v-12.8Z" fill="none" stroke="#45413c" stroke-linecap="round" stroke-linejoin="round"></path><path d="M38.763,58.5a1.76,1.76,0,0,1-.925-.262l-9.923-6.107a1.207,1.207,0,0,0-1.266,0l-9.923,6.107a1.767,1.767,0,1,1-1.853-3.009l11.483-7.066a1.773,1.773,0,0,1,1.852,0l11.483,7.066a1.767,1.767,0,0,1-.928,3.271Z" fill="#ff6242" stroke="#45413c" stroke-linejoin="round"></path><path d="M29.932,84.011h-5.3V77.829a2.65,2.65,0,0,1,5.3,0Z" fill="#bf8256" stroke="#45413c" stroke-linecap="round" stroke-linejoin="round"></path><path d="M69.579 53.76L69.579 57.986 65.956 57.986 65.956 49.546 69.579 53.76z" fill="#656769" stroke="#45413c" stroke-linecap="round" stroke-linejoin="round"></path><path d="M10.135,74.021a4.347,4.347,0,0,1-8.694,0c0-2.4,4.347-15.939,4.347-15.939S10.135,71.62,10.135,74.021Z" fill="#6dd627"></path><path d="M10.135,74.021a4.347,4.347,0,0,1-8.694,0c0-2.4,4.347-15.939,4.347-15.939S10.135,71.62,10.135,74.021Z" fill="none" stroke="#45413c" stroke-linecap="round" stroke-linejoin="round"></path><path d="M5.788 82.715L5.788 78.368" fill="none" stroke="#45413c" stroke-linecap="round" stroke-linejoin="round"></path><path d="M79.239,70.061H68.371V56.779a3.623,3.623,0,0,1,3.623-3.623h7.245Z" fill="#ffe500"></path><path d="M67.164 38.666 L81.654 38.666 L81.654 50.741 L67.164 50.741 Z" fill="#00b8f0"></path><path d="M78.031,33.836s2.415-2.415,4.83-1.207" fill="none" stroke="#45413c" stroke-linecap="round" stroke-linejoin="round"></path><path d="M79.011,29.6a.3.3,0,0,1,.227.269.3.3,0,0,1-.183.3,9.245,9.245,0,0,0-6.032,8.5H70.608V36.251s-.685-2.044,1.023-5.1a3.615,3.615,0,0,1,2.039-1.677A9.666,9.666,0,0,1,79.011,29.6Z" fill="#ffffff" stroke="#45413c" stroke-linecap="round" stroke-linejoin="round"></path><path d="M64.749,38.666h14.49s-1.208-2.415-9.66-2.415C69.579,36.251,65.956,36.251,64.749,38.666Z" fill="#ffffff" stroke="#45413c" stroke-linecap="round" stroke-linejoin="round"></path><path d="M27.316 15.586L27.316 35.044" fill="#ffffff" stroke="#45413c" stroke-linecap="round" stroke-linejoin="round"></path><path d="M58.712 77.306 A1.207 2.415 0 1 0 61.126 77.306 A1.207 2.415 0 1 0 58.712 77.306 Z" fill="#ffffff" stroke="#45413c" stroke-linecap="round" stroke-linejoin="round"></path><path d="M65.957 77.306 A1.207 2.415 0 1 0 68.371 77.306 A1.207 2.415 0 1 0 65.957 77.306 Z" fill="#ffffff" stroke="#45413c" stroke-linecap="round" stroke-linejoin="round"></path><path d="M68.371 72.476 L90.106 72.476 L90.106 84.551 L68.371 84.551 Z" fill="#87898c" stroke="#45413c" stroke-linecap="round" stroke-linejoin="round"></path><path d="M76.824 72.476 L98.559 72.476 L98.559 84.551 L76.824 84.551 Z" fill="#525252" stroke="#45413c" stroke-linecap="round" stroke-linejoin="round"></path><path d="M79.239 78.514 A2.415 3.622 0 1 0 84.069 78.514 A2.415 3.622 0 1 0 79.239 78.514 Z" fill="#adc4d9" stroke="#45413c" stroke-linecap="round" stroke-linejoin="round"></path><path d="M91.314 78.514 A2.415 3.622 0 1 0 96.144 78.514 A2.415 3.622 0 1 0 91.314 78.514 Z" fill="#adc4d9" stroke="#45413c" stroke-linecap="round" stroke-linejoin="round"></path><path d="M93.125,78.514a2.415,2.415,0,0,1-2.415,2.415H84.672a2.415,2.415,0,0,1-2.415-2.415V72.476H93.125Z" fill="#f0f0f0"></path><path d="M82.257 72.476H93.12400000000001V74.891H82.257z" fill="#ffffff"></path><path d="M93.125,78.514a2.415,2.415,0,0,1-2.415,2.415H84.672a2.415,2.415,0,0,1-2.415-2.415V72.476H93.125Z" fill="none" stroke="#45413c" stroke-linecap="round" stroke-linejoin="round"></path><path d="M35.769 14.359L35.769 25.48 32.146 21.242 32.146 10.133 35.769 14.359z" fill="#656769" stroke="#45413c" stroke-linecap="round" stroke-linejoin="round"></path><path d="M44.221 24.213L44.221 35.382 40.599 31.144 40.599 19.986 44.221 24.213z" fill="#656769" stroke="#45413c" stroke-linecap="round" stroke-linejoin="round"></path><path d="M52.674 34.054L52.674 45.271 49.051 41.033 49.051 29.839 52.674 34.054z" fill="#656769" stroke="#45413c" stroke-linecap="round" stroke-linejoin="round"></path><path d="M61.126 43.907L61.126 55.161 57.504 50.922 57.504 39.693 61.126 43.907z" fill="#656769" stroke="#45413c" stroke-linecap="round" stroke-linejoin="round"></path><path d="M23.694 38.666 A3.622 3.622 0 1 0 30.938 38.666 A3.622 3.622 0 1 0 23.694 38.666 Z" fill="#656769"></path><path d="M27.316,37.892a3.625,3.625,0,0,1,3.332,2.2,3.623,3.623,0,1,0-6.664,0A3.625,3.625,0,0,1,27.316,37.892Z" fill="#87898c"></path><path d="M23.694 38.666 A3.622 3.622 0 1 0 30.938 38.666 A3.622 3.622 0 1 0 23.694 38.666 Z" fill="none" stroke="#45413c" stroke-linecap="round" stroke-linejoin="round"></path><path d="M67.267,49.028a2.428,2.428,0,0,1-.1-.7V41.081a2.415,2.415,0,0,1,2.415-2.415h8.053Z" fill="#4acfff"></path><path d="M70.786,42.289A1.207,1.207,0,0,0,69.578,43.5v2.415a1.208,1.208,0,1,0,2.415,0V43.5A1.206,1.206,0,0,0,70.786,42.289Z" fill="#ffffff" stroke="#009fd9" stroke-miterlimit="10"></path><path d="M76.781,42.289A1.208,1.208,0,0,0,75.573,43.5v2.415a1.208,1.208,0,1,0,2.415,0V43.5A1.206,1.206,0,0,0,76.781,42.289Z" fill="#ffffff" stroke="#009fd9" stroke-miterlimit="10"></path><path d="M67.164 38.666 L81.654 38.666 L81.654 50.741 L67.164 50.741 Z" fill="none" stroke="#45413c" stroke-linecap="round" stroke-linejoin="round"></path><path d="M79.239,56.779V53.156H71.994a3.623,3.623,0,0,0-3.623,3.623V60.4a3.618,3.618,0,0,1,3.623-3.622Z" fill="#fff48c"></path><path d="M79.239,70.061H68.371V56.779a3.623,3.623,0,0,1,3.623-3.623h7.245Z" fill="none" stroke="#45413c" stroke-linecap="round" stroke-linejoin="round"></path><path d="M82.861,70.061H75.616V56.779a3.623,3.623,0,1,1,7.245,0Z" fill="#ebcb00"></path><path d="M75.616,56.779a3.623,3.623,0,1,1,7.245,0Z" fill="#ffe500"></path><path d="M82.861,70.061H75.616V56.779a3.623,3.623,0,1,1,7.245,0Z" fill="none" stroke="#45413c" stroke-linecap="round" stroke-linejoin="round"></path></g></svg>