<svg xmlns="http://www.w3.org/2000/svg" version="1.1" xmlns:xlink="http://www.w3.org/1999/xlink" xmlns:svgjs="http://svgjs.com/svgjs" viewBox="0 0 200 200" width="200" height="200"><g transform="matrix(2,0,0,2,0,0)"><path d="M5.667 53.809 A40.000 40.000 0 1 0 85.667 53.809 A40.000 40.000 0 1 0 5.667 53.809 Z" fill="#e8f4fa" stroke="#daedf7" stroke-miterlimit="10"></path><path d="M97.5,65.661a.553.553,0,0,1,.612.551,5.816,5.816,0,1,1-7.033-5.689.556.556,0,0,1,.667.484l.176,1.666a.553.553,0,0,1-.408.593,3.047,3.047,0,1,0,3.825,3.1.553.553,0,0,1,.495-.524Z" fill="#656769"></path><path d="M97.5,65.661a.553.553,0,0,1,.612.551,5.816,5.816,0,1,1-7.033-5.689.556.556,0,0,1,.667.484l.176,1.666a.553.553,0,0,1-.408.593,3.047,3.047,0,1,0,3.825,3.1.553.553,0,0,1,.495-.524Z" fill="none" stroke="#45413c" stroke-linecap="round" stroke-linejoin="round"></path><path d="M77.434 73.569H89.65899999999999V78H77.434z" fill="#ffffff" transform="translate(-29.236 73.94) rotate(-41.274)"></path><path d="M83.869,72.554l2.81-2.467L89.6,73.418,86.85,75.833A3.321,3.321,0,0,1,83.869,72.554Z" fill="#e0e0e0"></path><path d="M77.434 73.569H89.65899999999999V78H77.434z" fill="none" stroke="#45413c" stroke-linecap="round" stroke-linejoin="round" transform="translate(-29.236 73.94) rotate(-41.274)"></path><path d="M86.002 70.716 A3.323 3.323 0 1 0 92.648 70.716 A3.323 3.323 0 1 0 86.002 70.716 Z" fill="#ffffff" stroke="#45413c" stroke-linecap="round" stroke-linejoin="round"></path><path d="M34.261 69.975H51.307V74.521H34.261z" fill="#ffffff" transform="translate(-41.181 72.019) rotate(-59.211)"></path><path d="M41.835,69.4a3.4,3.4,0,0,0,2.749,1.408h1.7L49.1,66.089l-3.9-2.327Z" fill="#e0e0e0"></path><path d="M34.261 69.975H51.307V74.521H34.261z" fill="none" stroke="#45413c" stroke-linecap="round" stroke-linejoin="round" transform="translate(-41.181 72.019) rotate(-59.211)"></path><path d="M72.313 63.724H76.85900000000001V80.77H72.313z" fill="#ffffff" transform="translate(-26.47 48.362) rotate(-30.789)"></path><path d="M75.535,69.4a3.4,3.4,0,0,1-2.749,1.408h-1.7l-2.811-4.719,3.905-2.327Z" fill="#e0e0e0"></path><path d="M72.313 63.724H76.85900000000001V80.77H72.313z" fill="none" stroke="#45413c" stroke-linecap="round" stroke-linejoin="round" transform="translate(-26.47 48.362) rotate(-30.789)"></path><path d="M27.646 70.878H32.192V83.419H27.646z" fill="#ffffff" transform="translate(-51.671 63.36) rotate(-59.211)"></path><path d="M25.7,71.987l-2.327,3.905,2.926,1.743a5.447,5.447,0,0,0,2.6-3.743Z" fill="#e0e0e0"></path><path d="M27.646 70.878H32.192V83.419H27.646z" fill="none" stroke="#45413c" stroke-linecap="round" stroke-linejoin="round" transform="translate(-51.671 63.36) rotate(-59.211)"></path><path d="M26.065,62.005a.568.568,0,0,1,.841.081,5.966,5.966,0,1,1-9.271-.405.569.569,0,0,1,.845-.008l1.161,1.267a.569.569,0,0,1,.025.739,3.126,3.126,0,1,0,5.042.22.567.567,0,0,1,.089-.733Z" fill="#656769"></path><path d="M26.065,62.005a.568.568,0,0,1,.841.081,5.966,5.966,0,1,1-9.271-.405.569.569,0,0,1,.845-.008l1.161,1.267a.569.569,0,0,1,.025.739,3.126,3.126,0,1,0,5.042.22.567.567,0,0,1,.089-.733Z" fill="none" stroke="#45413c" stroke-linecap="round" stroke-linejoin="round"></path><path d="M56.412 55.807H60.958V60.353H56.412z" fill="#daedf7"></path><path d="M56.412 55.807H60.958V58.080000000000005H56.412z" fill="#c0dceb"></path><path d="M56.412 55.807H60.958V60.353H56.412z" fill="none" stroke="#45413c" stroke-linecap="round" stroke-linejoin="round"></path><path d="M49.594 60.353 L67.777 60.353 L67.777 77.399 L49.594 77.399 Z" fill="#ffffff" stroke="#45413c" stroke-linecap="round" stroke-linejoin="round"></path><path d="M49.594,68.308H45.048A3.409,3.409,0,0,1,41.639,64.9V63.762a3.409,3.409,0,0,1,3.409-3.409h2.273a2.273,2.273,0,0,1,2.273,2.273Z" fill="#ffffff" stroke="#45413c" stroke-linecap="round" stroke-linejoin="round"></path><path d="M55.276 77.399H62.094V84.217H55.276z" fill="#daedf7"></path><path d="M55.276 77.399H62.094V80.808H55.276z" fill="#c0dceb"></path><path d="M55.276 77.399H62.094V84.217H55.276z" fill="none" stroke="#45413c" stroke-linecap="round" stroke-linejoin="round"></path><path d="M63.231,68.308a2.273,2.273,0,0,1-2.273,2.273H56.412a2.273,2.273,0,0,1-2.273-2.273V60.353h9.092Z" fill="#00b8f0"></path><path d="M61.714 60.353L54.139 67.921 54.139 60.353 61.714 60.353z" fill="#4acfff"></path><path d="M63.231,68.308a2.273,2.273,0,0,1-2.273,2.273H56.412a2.273,2.273,0,0,1-2.273-2.273V60.353h9.092Z" fill="none" stroke="#45413c" stroke-linecap="round" stroke-linejoin="round"></path><path d="M33.727 81.043 A3.409 3.409 0 1 0 40.545 81.043 A3.409 3.409 0 1 0 33.727 81.043 Z" fill="#ffffff" stroke="#45413c" stroke-linecap="round" stroke-linejoin="round"></path><path d="M75.171 79.432 A3.409 3.409 0 1 0 81.989 79.432 A3.409 3.409 0 1 0 75.171 79.432 Z" fill="#ffffff" stroke="#45413c" stroke-linecap="round" stroke-linejoin="round"></path><path d="M19.921 72.816 A3.409 3.409 0 1 0 26.739 72.816 A3.409 3.409 0 1 0 19.921 72.816 Z" fill="#ffffff" stroke="#45413c" stroke-linecap="round" stroke-linejoin="round"></path><path d="M65.191,84.218a2.273,2.273,0,0,1,2.143,3.031,9.1,9.1,0,0,1-17.148,0,2.272,2.272,0,0,1,2.143-3.03Z" fill="#ffffff" stroke="#45413c" stroke-linecap="round" stroke-linejoin="round"></path><path d="M67.776,68.308H72.34A3.409,3.409,0,0,0,75.749,64.9V63.762a3.409,3.409,0,0,0-3.409-3.409H70.067a2.3,2.3,0,0,0-2.291,2.273Z" fill="#ffffff" stroke="#45413c" stroke-linecap="round" stroke-linejoin="round"></path><path d="M42.775 30.806 L74.595 30.806 L74.595 55.807 L42.775 55.807 Z" fill="#00b8f0"></path><path d="M71.583,30.829,46.605,55.807h-.421A3.4,3.4,0,0,1,42.775,52.4V34.215a3.4,3.4,0,0,1,3.409-3.409h25C71.322,30.806,71.447,30.818,71.583,30.829Z" fill="#4acfff"></path><path d="M54.139,45.864a1.422,1.422,0,0,1-1.42-1.421c0-1.292-.605-1.989-.853-1.989s-.852.7-.852,1.989a1.421,1.421,0,1,1-2.841,0c0-2.708,1.622-4.83,3.693-4.83s3.694,2.122,3.694,4.83A1.423,1.423,0,0,1,54.139,45.864Z" fill="#ffffff" stroke="#009fd9" stroke-miterlimit="10"></path><path d="M67.776,45.864a1.422,1.422,0,0,1-1.42-1.421c0-1.292-.6-1.989-.853-1.989s-.852.7-.852,1.989a1.421,1.421,0,1,1-2.841,0c0-2.708,1.622-4.83,3.693-4.83s3.694,2.122,3.694,4.83A1.423,1.423,0,0,1,67.776,45.864Z" fill="#ffffff" stroke="#009fd9" stroke-miterlimit="10"></path><path d="M42.775 30.806 L74.595 30.806 L74.595 55.807 L42.775 55.807 Z" fill="none" stroke="#45413c" stroke-linecap="round" stroke-linejoin="round"></path><path d="M35.393,60.391a.568.568,0,0,1,.534.762,2.234,2.234,0,0,1-2.1,1.473H6.459a2.237,2.237,0,0,1-2.1-1.473.568.568,0,0,1,.535-.762Z" fill="#e8f4fa" stroke="#45413c" stroke-linecap="round" stroke-linejoin="round"></path><path d="M14.393,56.143a1.428,1.428,0,0,1,1.428-1.428H30.1a1.428,1.428,0,1,1,0,2.856H15.821A1.428,1.428,0,0,1,14.393,56.143Z" fill="#915e3a"></path><path d="M15.345,54.715c0-4.206,3.41-6.664,7.616-6.664s7.616,2.458,7.616,6.664Z" fill="#ffaa54"></path><path d="M22.961,50.431c3.334,0,6.16,1.549,7.192,4.284h.424c0-4.207-3.41-6.664-7.616-6.664s-7.616,2.457-7.616,6.664h.424C16.8,51.98,19.627,50.431,22.961,50.431Z" fill="#ffcc99"></path><path d="M20.105 50.907L20.105 51.859" fill="none" stroke="#45413c" stroke-linecap="round" stroke-linejoin="round"></path><path d="M22.961 49.955L22.961 50.907" fill="none" stroke="#45413c" stroke-linecap="round" stroke-linejoin="round"></path><path d="M25.817 50.907L25.817 51.859" fill="none" stroke="#45413c" stroke-linecap="round" stroke-linejoin="round"></path><path d="M15.345,54.715c0-4.206,3.41-6.664,7.616-6.664s7.616,2.458,7.616,6.664Z" fill="none" stroke="#45413c" stroke-linecap="round" stroke-linejoin="round"></path><path d="M30.577,57.535H15.345v1.72a1.136,1.136,0,0,0,1.136,1.136H29.44a1.136,1.136,0,0,0,1.137-1.136Z" fill="#ffaa54" stroke="#45413c" stroke-linecap="round" stroke-linejoin="round"></path><path d="M31.529,56.142A1.428,1.428,0,0,0,30.1,54.715H15.821a1.427,1.427,0,0,0-1.428,1.427Z" fill="#bf8256"></path><path d="M14.393,56.143a1.428,1.428,0,0,1,1.428-1.428H30.1a1.428,1.428,0,1,1,0,2.856H15.821A1.428,1.428,0,0,1,14.393,56.143Z" fill="none" stroke="#45413c" stroke-linecap="round" stroke-linejoin="round"></path><path d="M4.475,42.3H16.85l-.857,16.283a1.9,1.9,0,0,1-1.9,1.8H7.233a1.9,1.9,0,0,1-1.9-1.8Z" fill="#ff6242"></path><path d="M16.7 45.157L16.85 42.301 4.475 42.301 4.625 45.157 16.7 45.157z" fill="#e04122"></path><path d="M4.475,42.3H16.85l-.857,16.283a1.9,1.9,0,0,1-1.9,1.8H7.233a1.9,1.9,0,0,1-1.9-1.8Z" fill="none" stroke="#45413c" stroke-linecap="round" stroke-linejoin="round"></path><path d="M8.032,43.029a1.135,1.135,0,0,1-1.394-.8L4.381,33.907a.569.569,0,0,1,.4-.7l1.1-.3a.569.569,0,0,1,.431.056.561.561,0,0,1,.266.344l2.257,8.323A1.136,1.136,0,0,1,8.032,43.029Z" fill="#ffe500" stroke="#45413c" stroke-linecap="round" stroke-linejoin="round"></path><path d="M19.275,41.869A1.472,1.472,0,0,0,17.8,40.4H3.365a1.473,1.473,0,0,0,0,2.945H17.8A1.473,1.473,0,0,0,19.275,41.869Z" fill="#f0f0f0" stroke="#45413c" stroke-linecap="round" stroke-linejoin="round"></path><path d="M50.099 25.816H67.271V30.721999999999998H50.099z" fill="#f0f0f0" stroke="#45413c" stroke-linecap="round" stroke-linejoin="round"></path><path d="M73.4,14.777a6.133,6.133,0,0,0-6.133-6.133,5.99,5.99,0,0,0-2.648.623.613.613,0,0,1-.787-.223,6.077,6.077,0,0,0-10.3,0,.612.612,0,0,1-.786.223A5.993,5.993,0,0,0,50.1,8.644a6.134,6.134,0,0,0-1.024,12.181A1.227,1.227,0,0,1,50.1,22.033v3.783H67.271V22.033A1.224,1.224,0,0,1,68.3,20.825,6.134,6.134,0,0,0,73.4,14.777Z" fill="#e8f4fa" stroke="#e8f4fa" stroke-miterlimit="10"></path><path d="M53.779 19.684L53.779 22.137" fill="#f0f0f0" stroke="#45413c" stroke-linecap="round" stroke-linejoin="round"></path><path d="M58.685 19.684L58.685 22.137" fill="#f0f0f0" stroke="#45413c" stroke-linecap="round" stroke-linejoin="round"></path><path d="M63.591 19.684L63.591 22.137" fill="#f0f0f0" stroke="#45413c" stroke-linecap="round" stroke-linejoin="round"></path><path d="M44.472,17.222A6.138,6.138,0,0,1,50.1,8.644a5.993,5.993,0,0,1,2.648.623.612.612,0,0,0,.786-.223,6.077,6.077,0,0,1,10.3,0,.614.614,0,0,0,.787.223,5.99,5.99,0,0,1,2.648-.623A6.136,6.136,0,0,1,72.9,17.222a6.166,6.166,0,0,0-5.626-3.671,6,6,0,0,0-2.244.442,1.226,1.226,0,0,1-1.444-.408,6.065,6.065,0,0,0-9.8,0,1.226,1.226,0,0,1-1.444.408,6,6,0,0,0-2.244-.442A6.169,6.169,0,0,0,44.472,17.222Z" fill="#ffffff"></path><path d="M73.4,14.777a6.133,6.133,0,0,0-6.133-6.133,5.99,5.99,0,0,0-2.648.623.613.613,0,0,1-.787-.223,6.077,6.077,0,0,0-10.3,0,.612.612,0,0,1-.786.223A5.993,5.993,0,0,0,50.1,8.644a6.134,6.134,0,0,0-1.024,12.181A1.227,1.227,0,0,1,50.1,22.033v3.783H67.271V22.033A1.224,1.224,0,0,1,68.3,20.825,6.134,6.134,0,0,0,73.4,14.777Z" fill="none" stroke="#45413c" stroke-linecap="round" stroke-linejoin="round"></path></g></svg>