<svg xmlns="http://www.w3.org/2000/svg" version="1.1" xmlns:xlink="http://www.w3.org/1999/xlink" xmlns:svgjs="http://svgjs.com/svgjs" viewBox="0 0 200 200" width="200" height="200"><g transform="matrix(2,0,0,2,0,0)"><path d="M8.615 50.000 A40.000 40.000 0 1 0 88.615 50.000 A40.000 40.000 0 1 0 8.615 50.000 Z" fill="#e8f4fa" stroke="#daedf7" stroke-miterlimit="10"></path><path d="M67.207 49.79H72.25699999999999V68.727H67.207z" fill="#ffffff" stroke="#45413c" stroke-linecap="round" stroke-linejoin="round" transform="translate(-17.176 87.914) rotate(-58.606)"></path><path d="M20.02 57.882H38.957V62.931999999999995H20.02z" fill="#ffffff" stroke="#45413c" stroke-linecap="round" stroke-linejoin="round" transform="translate(-33.655 37.354) rotate(-43.923)"></path><path d="M34.557 52.02L38.06 55.657 32.789 60.734 29.128 57.248 34.557 52.02z" fill="#e0e0e0"></path><path d="M60.335 56.482L62.965 52.171 70.487 56.761 68.078 61.208 60.335 56.482z" fill="#e0e0e0"></path><path d="M67.207 49.79H72.25699999999999V68.727H67.207z" fill="none" stroke="#45413c" stroke-linecap="round" stroke-linejoin="round" transform="translate(-17.176 87.914) rotate(-58.606)"></path><path d="M20.02 57.882H38.957V62.931999999999995H20.02z" fill="none" stroke="#45413c" stroke-linecap="round" stroke-linejoin="round" transform="translate(-33.655 37.354) rotate(-43.923)"></path><path d="M46.606 43.804H51.656V48.854H46.606z" fill="#daedf7" transform="translate(2.732 95.393) rotate(-89.919)"></path><path d="M47.87 42.541H50.394999999999996V47.590999999999994H47.87z" fill="#c0dceb" transform="translate(3.996 94.134) rotate(-89.919)"></path><path d="M46.606 43.804H51.656V48.854H46.606z" fill="none" stroke="#45413c" stroke-linecap="round" stroke-linejoin="round" transform="translate(2.732 95.393) rotate(-89.919)"></path><path d="M39.645 48.222 L58.582 48.222 L58.582 68.422 L39.645 68.422 Z" fill="#ffffff" stroke="#45413c" stroke-linecap="round" stroke-linejoin="round" transform="translate(-9.278 107.353) rotate(-89.919)"></path><path d="M45.307 67.791H52.882000000000005V75.366H45.307z" fill="#daedf7" transform="translate(-22.553 120.571) rotate(-89.919)"></path><path d="M47.21 65.897H50.997V73.47200000000001H47.21z" fill="#c0dceb" transform="translate(-20.651 118.689) rotate(-89.919)"></path><path d="M45.307 67.791H52.882000000000005V75.366H45.307z" fill="none" stroke="#45413c" stroke-linecap="round" stroke-linejoin="round" transform="translate(-22.553 120.571) rotate(-89.919)"></path><path d="M54.164,57.7a2.526,2.526,0,0,1-2.528,2.522l-5.05-.008a2.524,2.524,0,0,1-2.521-2.528l.012-8.838,10.1.015Z" fill="#00b8f0"></path><path d="M52.492 48.858L44.065 57.248 44.077 48.84 52.492 48.858z" fill="#4acfff"></path><path d="M54.164,57.7a2.526,2.526,0,0,1-2.528,2.522l-5.05-.008a2.524,2.524,0,0,1-2.521-2.528l.012-8.838,10.1.015Z" fill="none" stroke="#45413c" stroke-linecap="round" stroke-linejoin="round"></path><path d="M56.317,75.376a2.525,2.525,0,0,1,2.376,3.37,10.1,10.1,0,0,1-19.05-.027,2.524,2.524,0,0,1,2.386-3.363Z" fill="#ffffff" stroke="#45413c" stroke-linecap="round" stroke-linejoin="round"></path><path d="M59.234,57.705l5.05.008a3.789,3.789,0,0,0,3.793-3.783V52.668A3.787,3.787,0,0,0,64.3,48.875l-2.525,0a2.524,2.524,0,0,0-2.528,2.521Z" fill="#ffffff" stroke="#45413c" stroke-linecap="round" stroke-linejoin="round"></path><path d="M74.437 54.983H88.369V60.032999999999994H74.437z" fill="#ffffff" stroke="#45413c" stroke-linecap="round" stroke-linejoin="round" transform="translate(-14.251 85.507) rotate(-51.555)"></path><path d="M95.927,51.252a6.6,6.6,0,0,1-6.6,1.986,6.426,6.426,0,0,1-2.763-1.48,6.621,6.621,0,0,1-.944-8.812.609.609,0,0,1,.435-.262.676.676,0,0,1,.5.163l1.412,1.269a.633.633,0,0,1,.113.816,3.473,3.473,0,0,0,.369,4.26,3.023,3.023,0,0,0,.217.224,3.472,3.472,0,0,0,5.008-4.781.632.632,0,0,1,.028-.821l1.267-1.424a.651.651,0,0,1,.472-.206.642.642,0,0,1,.472.207A6.634,6.634,0,0,1,95.927,51.252Z" fill="#656769"></path><path d="M94.974,42.391a.633.633,0,0,1,.939,0,6.628,6.628,0,1,1-10.294.555.634.634,0,0,1,.934-.1l1.42,1.275a.63.63,0,0,1,.108.814,3.472,3.472,0,1,0,5.6-.3.63.63,0,0,1,.019-.821Z" fill="none" stroke="#45413c" stroke-linecap="round" stroke-linejoin="round"></path><path d="M72.725 62.922 A3.787 3.787 0 1 0 80.299 62.922 A3.787 3.787 0 1 0 72.725 62.922 Z" fill="#ffffff" stroke="#45413c" stroke-linecap="round" stroke-linejoin="round"></path><path d="M24.986 63.915L20.586 66.392 16.891 55.915 21.292 53.438 24.986 63.915z" fill="#ffffff" stroke="#45413c" stroke-linecap="round" stroke-linejoin="round"></path><path d="M12.235,43.315a.63.63,0,0,0-.92.185,6.628,6.628,0,1,0,10.2-1.5.632.632,0,0,0-.934.087l-1.14,1.532a.631.631,0,0,0,.056.819,3.472,3.472,0,1,1-5.548.814.63.63,0,0,0-.181-.8Z" fill="#656769" stroke="#45413c" stroke-linecap="round" stroke-linejoin="round"></path><path d="M39.015,57.677l-5.05-.008a3.787,3.787,0,0,1-3.782-3.792V52.614a3.788,3.788,0,0,1,3.793-3.782l2.525,0a2.525,2.525,0,0,1,2.522,2.528Z" fill="#ffffff" stroke="#45413c" stroke-linecap="round" stroke-linejoin="round"></path><path d="M19.527 66.169 A3.787 3.787 0 1 0 27.101 66.169 A3.787 3.787 0 1 0 19.527 66.169 Z" fill="#ffffff" stroke="#45413c" stroke-linecap="round" stroke-linejoin="round"></path><path d="M14.572 53.119 A3.787 3.787 0 1 0 22.146 53.119 A3.787 3.787 0 1 0 14.572 53.119 Z" fill="#ffffff" stroke="#45413c" stroke-linecap="round" stroke-linejoin="round"></path><path d="M77.243,24.67a3.789,3.789,0,0,0-2.756,3.641v1.314l24.143-6.834-.984-3.478a.4.4,0,0,0-.5-.278Z" fill="#656769" stroke="#45413c" stroke-linecap="round" stroke-linejoin="round"></path><path d="M91.811 20.546L96.375 19.254 95.15 23.776 90.586 25.068 91.811 20.546z" fill="#ffffff" stroke="#45413c" stroke-linecap="round" stroke-linejoin="round"></path><path d="M82.427 23.203L86.992 21.911 85.767 26.432 81.202 27.724 82.427 23.203z" fill="#ffffff" stroke="#45413c" stroke-linecap="round" stroke-linejoin="round"></path><path d="M96.749,47.232H75.287a2.525,2.525,0,0,1-2.525-2.525V33.574H99.274V44.707A2.525,2.525,0,0,1,96.749,47.232Z" fill="#e8f4fa"></path><path d="M72.762 44.329L83.517 33.574 72.762 33.574 72.762 44.329z" fill="#ffffff"></path><path d="M96.749,47.232H75.287a2.525,2.525,0,0,1-2.525-2.525V33.574H99.274V44.707A2.525,2.525,0,0,1,96.749,47.232Z" fill="none" stroke="#45413c" stroke-linecap="round" stroke-linejoin="round"></path><path d="M78.787,29.557,80.8,33.574H99.274V29.959a.4.4,0,0,0-.4-.4Z" fill="#656769" stroke="#45413c" stroke-linecap="round" stroke-linejoin="round"></path><path d="M80.8,33.574H72.762V27.146a1.606,1.606,0,0,1,1.607-1.606h2a.668.668,0,0,1,.6.37Z" fill="#656769" stroke="#45413c" stroke-linecap="round" stroke-linejoin="round"></path><path d="M72.762 37.591L99.274 37.591" fill="none" stroke="#45413c" stroke-linecap="round" stroke-linejoin="round"></path><path d="M85.616 37.591L85.616 47.232" fill="none" stroke="#45413c" stroke-linecap="round" stroke-linejoin="round"></path><path d="M93.325 29.557L98.069 29.557 95.659 33.574 90.915 33.574 93.325 29.557z" fill="#ffffff" stroke="#45413c" stroke-linecap="round" stroke-linejoin="round"></path><path d="M83.573 29.557L88.316 29.557 85.906 33.574 81.162 33.574 83.573 29.557z" fill="#ffffff" stroke="#45413c" stroke-linecap="round" stroke-linejoin="round"></path><path d="M95.929,51.246a6.62,6.62,0,0,1-6.6,1.995,1.164,1.164,0,0,1-.189-.063V49.769a3.476,3.476,0,0,0,4.545-5.138.617.617,0,0,1,.025-.821l1.262-1.426a.667.667,0,0,1,.48-.2.6.6,0,0,1,.467.214A6.623,6.623,0,0,1,95.929,51.246Z" fill="#656769" stroke="#45413c" stroke-linecap="round" stroke-linejoin="round"></path><path d="M82.929 51.131 A3.787 3.787 0 1 0 90.503 51.131 A3.787 3.787 0 1 0 82.929 51.131 Z" fill="#ffffff" stroke="#45413c" stroke-linecap="round" stroke-linejoin="round"></path><path d="M31.694 16.276 L67.043 16.276 L67.043 44.050 L31.694 44.050 Z" fill="#00b8f0"></path><path d="M35.948,44.05h-.467a3.787,3.787,0,0,1-3.787-3.788v-20.2a3.788,3.788,0,0,1,3.788-3.788H63.256Z" fill="#4acfff"></path><path d="M31.694 16.276 L67.043 16.276 L67.043 44.050 L31.694 44.050 Z" fill="none" stroke="#45413c" stroke-linecap="round" stroke-linejoin="round"></path><path d="M44.591,33.884a1.85,1.85,0,0,1-1.847-1.85,3.1,3.1,0,0,0-.427-1.654.82.82,0,0,0-.279-.289c.026.016-.086.093-.217.289a3.11,3.11,0,0,0-.432,1.652,1.848,1.848,0,0,1-3.695,0,6.73,6.73,0,0,1,1.056-3.7,3.823,3.823,0,0,1,6.645.009,6.735,6.735,0,0,1,1.044,3.7,1.849,1.849,0,0,1-1.847,1.845Z" fill="#ffffff" stroke="#009fd9" stroke-linecap="round" stroke-linejoin="round"></path><path d="M59.741,33.884a1.85,1.85,0,0,1-1.847-1.85,3.11,3.11,0,0,0-.427-1.654.82.82,0,0,0-.279-.289c.026.016-.087.093-.217.289a3.1,3.1,0,0,0-.432,1.652,1.848,1.848,0,0,1-3.695,0,6.73,6.73,0,0,1,1.055-3.7,3.824,3.824,0,0,1,6.646.009,6.735,6.735,0,0,1,1.044,3.7,1.851,1.851,0,0,1-1.847,1.845Z" fill="#ffffff" stroke="#009fd9" stroke-linecap="round" stroke-linejoin="round"></path><path d="M15.876,45.969a7.575,7.575,0,1,1,7.575-7.575A7.583,7.583,0,0,1,15.876,45.969Zm0-12.625a5.05,5.05,0,1,0,5.05,5.05A5.055,5.055,0,0,0,15.876,33.344Z" fill="#ff6242" stroke="#45413c" stroke-linecap="round" stroke-linejoin="round"></path><path d="M25.976 37.132L0.726 43.444 0.726 25.769 25.976 32.082 25.976 37.132z" fill="#ff6242"></path><path d="M25.976 32.082L25.976 35.869 0.726 29.557 0.726 25.769 25.976 32.082z" fill="#ff866e"></path><path d="M25.976 37.132L0.726 43.444 0.726 25.769 25.976 32.082 25.976 37.132z" fill="none" stroke="#45413c" stroke-linecap="round" stroke-linejoin="round"></path><path d="M0.726 24.507L0.726 44.707" fill="none" stroke="#45413c" stroke-linecap="round" stroke-linejoin="round"></path><path d="M25.976 30.819L25.976 38.394" fill="none" stroke="#45413c" stroke-linecap="round" stroke-linejoin="round"></path></g></svg>