<svg xmlns="http://www.w3.org/2000/svg" version="1.1" xmlns:xlink="http://www.w3.org/1999/xlink" xmlns:svgjs="http://svgjs.com/svgjs" viewBox="0 0 200 200" width="200" height="200"><g transform="matrix(2,0,0,2,0,0)"><path d="M10.000 50.000 A40.000 40.000 0 1 0 90.000 50.000 A40.000 40.000 0 1 0 10.000 50.000 Z" fill="#e8f4fa" stroke="#daedf7" stroke-miterlimit="10"></path><path d="M49,19.11l.6-.36a13.278,13.278,0,0,1,17.7,3.815,12.839,12.839,0,0,1,2.314,7.521A14.273,14.273,0,0,1,64.5,41.059a6.048,6.048,0,0,0-2.273,4.581,2.825,2.825,0,0,1-2.8,2.83,2.771,2.771,0,0,1-2.8-2.766V45.64a11.617,11.617,0,0,1,4.276-8.869,8.692,8.692,0,0,0,3.119-6.677,7.291,7.291,0,0,0-1.272-4.276,7.717,7.717,0,0,0-10.28-2.264l-.6.361Z" fill="#c0dceb"></path><path d="M67.306,25.045a12.614,12.614,0,0,1,2.26,6.283c.035-.411.054-.825.054-1.242a12.837,12.837,0,0,0-2.314-7.521A13.277,13.277,0,0,0,49.6,18.75l-.6.359,1.1,1.841A13.28,13.28,0,0,1,67.306,25.045Z" fill="#e8f4fa"></path><path d="M49,19.11l.6-.36a13.278,13.278,0,0,1,17.7,3.815,12.839,12.839,0,0,1,2.314,7.521A14.273,14.273,0,0,1,64.5,41.059a6.048,6.048,0,0,0-2.273,4.581,2.825,2.825,0,0,1-2.8,2.83,2.771,2.771,0,0,1-2.8-2.766V45.64a11.617,11.617,0,0,1,4.276-8.869,8.692,8.692,0,0,0,3.119-6.677,7.291,7.291,0,0,0-1.272-4.276,7.717,7.717,0,0,0-10.28-2.264l-.6.361Z" fill="none" stroke="#45413c" stroke-linecap="round" stroke-linejoin="round"></path><path d="M57.8,16.867a4.476,4.476,0,0,1,.335,5.812" fill="none" stroke="#45413c" stroke-linecap="round" stroke-linejoin="round"></path><path d="M66.157,21.158A4.479,4.479,0,0,1,62.4,25.352" fill="none" stroke="#45413c" stroke-linecap="round" stroke-linejoin="round"></path><path d="M69.561,31.39a4.475,4.475,0,0,1-5.6-.205" fill="none" stroke="#45413c" stroke-linecap="round" stroke-linejoin="round"></path><path d="M64.811,40.789a6.765,6.765,0,0,1-2.245-1.275A6.4,6.4,0,0,1,60.685,37" fill="none" stroke="#45413c" stroke-linecap="round" stroke-linejoin="round"></path><path d="M74.709,45.623a1.119,1.119,0,0,1,1.119,1.119v7.832a8.951,8.951,0,0,1-8.951,8.952H53.449A8.952,8.952,0,0,1,44.5,54.574V46.742a1.119,1.119,0,0,1,1.119-1.119Z" fill="#f0f0f0"></path><path d="M75.828,48.98a8.948,8.948,0,0,1-8.951,8.951H53.449A8.949,8.949,0,0,1,44.5,48.98v5.594a8.952,8.952,0,0,0,8.951,8.952H66.877a8.951,8.951,0,0,0,8.951-8.952Z" fill="#e0e0e0"></path><path d="M43.478 74.156 A17.294 1.678 0 1 0 78.066 74.156 A17.294 1.678 0 1 0 43.478 74.156 Z" fill="#45413c" opacity=".15"></path><path d="M74.709,45.623a1.119,1.119,0,0,1,1.119,1.119v7.832a8.951,8.951,0,0,1-8.951,8.952H53.449A8.952,8.952,0,0,1,44.5,54.574V46.742a1.119,1.119,0,0,1,1.119-1.119Z" fill="none" stroke="#45413c" stroke-linecap="round" stroke-linejoin="round"></path><path d="M64.639,53.455A2.238,2.238,0,0,1,62.4,55.693H50.092a2.238,2.238,0,0,1-2.237-2.238V45.623H64.639Z" fill="#00b8f0"></path><path d="M71.956 69.121L65.242 63.526" fill="#ffffff" stroke="#45413c" stroke-linecap="round" stroke-linejoin="round"></path><path d="M78.264 60.71L71.956 69.121" fill="#ffffff" stroke="#45413c" stroke-linecap="round" stroke-linejoin="round"></path><path d="M70.278 69.121 A1.678 1.678 0 1 0 73.634 69.121 A1.678 1.678 0 1 0 70.278 69.121 Z" fill="#ffffff" stroke="#45413c" stroke-linecap="round" stroke-linejoin="round"></path><path d="M47.339 69.121L54.053 63.526" fill="#ffffff" stroke="#45413c" stroke-linecap="round" stroke-linejoin="round"></path><path d="M40.985 60.648L47.339 69.121" fill="#ffffff" stroke="#45413c" stroke-linecap="round" stroke-linejoin="round"></path><path d="M45.661 69.121 A1.678 1.678 0 1 0 49.017 69.121 A1.678 1.678 0 1 0 45.661 69.121 Z" fill="#ffffff" stroke="#45413c" stroke-linecap="round" stroke-linejoin="round"></path><path d="M59.647 68.002 A3.357 10.071 0 1 0 66.361 68.002 A3.357 10.071 0 1 0 59.647 68.002 Z" fill="#f0f0f0"></path><path d="M48.972,55.393a2.237,2.237,0,0,1-1.117-1.938V45.623H58.742Z" fill="#4acfff"></path><path d="M64.639,53.455A2.238,2.238,0,0,1,62.4,55.693H50.092a2.238,2.238,0,0,1-2.237-2.238V45.623H64.639Z" fill="none" stroke="#45413c" stroke-linecap="round" stroke-linejoin="round"></path><path d="M66.042,63.711c-.537-3.416-1.7-5.78-3.038-5.78s-2.5,2.361-3.037,5.774c.524,3.439,1.691,5.822,3.037,5.822s2.512-2.38,3.036-5.816" fill="#ffffff"></path><path d="M59.647 68.002 A3.357 10.071 0 1 0 66.361 68.002 A3.357 10.071 0 1 0 59.647 68.002 Z" fill="none" stroke="#45413c" stroke-linecap="round" stroke-linejoin="round"></path><path d="M78.15,60.191a.974.974,0,0,1,.714-1.112,1.19,1.19,0,0,1,1.36.442,24.262,24.262,0,0,1,2.845,7.532,23.3,23.3,0,0,1,.535,7.925,1.078,1.078,0,0,1-1.077.856,1.1,1.1,0,0,1-1.132-.8Z" fill="#f0f0f0"></path><path d="M80.3,70.029,78.15,60.191a.974.974,0,0,1,.714-1.112,1.19,1.19,0,0,1,1.36.442c.088.137.176.281.263.43.11.419.209.856.309,1.293a23.1,23.1,0,0,1,.537,7.927,1.072,1.072,0,0,1-1.03.858" fill="#ffffff"></path><path d="M78.15,60.191a.974.974,0,0,1,.714-1.112,1.19,1.19,0,0,1,1.36.442,24.262,24.262,0,0,1,2.845,7.532,23.3,23.3,0,0,1,.535,7.925,1.078,1.078,0,0,1-1.077.856,1.1,1.1,0,0,1-1.132-.8Z" fill="none" stroke="#45413c" stroke-linecap="round" stroke-linejoin="round"></path><path d="M41.138,59.946a.973.973,0,0,0-.713-1.112,1.193,1.193,0,0,0-1.361.442,24.286,24.286,0,0,0-2.844,7.533,23.276,23.276,0,0,0-.535,7.925,1.076,1.076,0,0,0,1.077.855,1.1,1.1,0,0,0,1.131-.8Z" fill="#f0f0f0"></path><path d="M38.987,69.785l2.151-9.839a.973.973,0,0,0-.713-1.112,1.193,1.193,0,0,0-1.361.442c-.088.138-.175.281-.262.431-.11.418-.21.855-.309,1.293a23.1,23.1,0,0,0-.537,7.926,1.071,1.071,0,0,0,1.029.858" fill="#ffffff"></path><path d="M41.138,59.946a.973.973,0,0,0-.713-1.112,1.193,1.193,0,0,0-1.361.442,24.286,24.286,0,0,0-2.844,7.533,23.276,23.276,0,0,0-.535,7.925,1.076,1.076,0,0,0,1.077.855,1.1,1.1,0,0,0,1.131-.8Z" fill="none" stroke="#45413c" stroke-linecap="round" stroke-linejoin="round"></path><path d="M12.089 81.339 A8.952 1.678 0 1 0 29.993 81.339 A8.952 1.678 0 1 0 12.089 81.339 Z" fill="#45413c" opacity=".15"></path><path d="M21.007 69.819L21.007 75.185" fill="none" stroke="#45413c" stroke-linecap="round" stroke-linejoin="round"></path><path d="M26.971,68.959c-1.606.927-3.408.811-4.026-.259s.182-2.69,1.788-3.617A27.943,27.943,0,0,1,30.7,63.46a.665.665,0,0,1,.663,1.147A27.941,27.941,0,0,1,26.971,68.959Z" fill="#6dd627"></path><path d="M31.55,63.731a.774.774,0,0,1-.192.876,27.941,27.941,0,0,1-4.387,4.352c-1.606.927-3.408.811-4.026-.259Z" fill="#46b000"></path><path d="M26.971,68.959c-1.606.927-3.408.811-4.026-.259s.182-2.69,1.788-3.617A27.943,27.943,0,0,1,30.7,63.46a.665.665,0,0,1,.663,1.147A27.941,27.941,0,0,1,26.971,68.959Z" fill="none" stroke="#45413c" stroke-linecap="round" stroke-linejoin="round"></path><path d="M22.945 68.7L21.007 69.819" fill="none" stroke="#45413c" stroke-linecap="round" stroke-linejoin="round"></path><path d="M15.042,68.959c1.606.927,3.409.811,4.027-.259s-.183-2.69-1.789-3.617a27.926,27.926,0,0,0-5.962-1.623.665.665,0,0,0-.663,1.147A27.984,27.984,0,0,0,15.042,68.959Z" fill="#6dd627"></path><path d="M10.463,63.731a.774.774,0,0,0,.192.876,27.984,27.984,0,0,0,4.387,4.352c1.606.927,3.409.811,4.027-.259Z" fill="#46b000"></path><path d="M15.042,68.959c1.606.927,3.409.811,4.027-.259s-.183-2.69-1.789-3.617a27.926,27.926,0,0,0-5.962-1.623.665.665,0,0,0-.663,1.147A27.984,27.984,0,0,0,15.042,68.959Z" fill="none" stroke="#45413c" stroke-linecap="round" stroke-linejoin="round"></path><path d="M19.069 68.7L21.007 69.819" fill="none" stroke="#45413c" stroke-linecap="round" stroke-linejoin="round"></path><path d="M14.229,80.779a.559.559,0,0,1-.463-.873c4.279-6.3,10.271-6.3,14.549,0a.559.559,0,0,1-.462.874Z" fill="#debb7e" stroke="#45413c" stroke-linecap="round" stroke-linejoin="round"></path><path d="M34.845,42.813h0a2.562,2.562,0,0,1-3.451-1.1h0a2.561,2.561,0,0,1,.324-2.831l3.111-3.667a.559.559,0,0,1,.984.314l.41,4.792A2.561,2.561,0,0,1,34.845,42.813Z" fill="#4acfff"></path><path d="M36.161,39.6a.42.42,0,0,1-.113.077A2.554,2.554,0,0,1,32.6,38.573a2.086,2.086,0,0,1-.2-.5l-.684.807a2.561,2.561,0,0,0-.324,2.831h0a2.562,2.562,0,0,0,3.451,1.1h0a2.561,2.561,0,0,0,1.378-2.494Z" fill="#00b8f0"></path><path d="M34.845,42.813h0a2.562,2.562,0,0,1-3.451-1.1h0a2.561,2.561,0,0,1,.324-2.831l3.111-3.667a.559.559,0,0,1,.984.314l.41,4.792A2.561,2.561,0,0,1,34.845,42.813Z" fill="none" stroke="#45413c" stroke-linecap="round" stroke-linejoin="round"></path><path d="M44.983,17.976A5.595,5.595,0,0,1,49.31,28.3a25.55,25.55,0,0,1-10.416,1.2l-2.068-4.933A25.569,25.569,0,0,1,44.983,17.976Z" fill="#e8f4fa"></path><path d="M39.591 31.158L36.129 22.903" fill="none" stroke="#45413c" stroke-linecap="round" stroke-linejoin="round"></path><path d="M50.522,18.674a5.586,5.586,0,0,1-3.282,6.453A25.757,25.757,0,0,1,37.6,26.414L38.894,29.5A25.55,25.55,0,0,0,49.31,28.3a5.594,5.594,0,0,0,1.212-9.621Z" fill="#c0dceb"></path><path d="M44.983,17.976A5.595,5.595,0,0,1,49.31,28.3a25.55,25.55,0,0,1-10.416,1.2l-2.068-4.933A25.569,25.569,0,0,1,44.983,17.976Z" fill="none" stroke="#45413c" stroke-linecap="round" stroke-linejoin="round"></path><path d="M22.981,53.9h0a2.561,2.561,0,0,1-3.361-1.35h0a2.562,2.562,0,0,1,.529-2.8l3.37-3.43a.559.559,0,0,1,.958.385l.06,4.809A2.561,2.561,0,0,1,22.981,53.9Z" fill="#4acfff"></path><path d="M24.528,50.8a.407.407,0,0,1-.119.068,2.553,2.553,0,0,1-3.357-1.353A2.088,2.088,0,0,1,20.89,49l-.741.754a2.562,2.562,0,0,0-.529,2.8h0a2.561,2.561,0,0,0,3.361,1.35h0a2.561,2.561,0,0,0,1.556-2.387Z" fill="#00b8f0"></path><path d="M22.981,53.9h0a2.561,2.561,0,0,1-3.361-1.35h0a2.562,2.562,0,0,1,.529-2.8l3.37-3.43a.559.559,0,0,1,.958.385l.06,4.809A2.561,2.561,0,0,1,22.981,53.9Z" fill="none" stroke="#45413c" stroke-linecap="round" stroke-linejoin="round"></path><path d="M19.055,38.916h0a2.561,2.561,0,0,1-2.477-2.643h0a2.564,2.564,0,0,1,1.661-2.316l4.5-1.687a.559.559,0,0,1,.706.754l-1.976,4.384A2.562,2.562,0,0,1,19.055,38.916Z" fill="#4acfff"></path><path d="M21.769,36.752a.427.427,0,0,1-.137.012,2.554,2.554,0,0,1-2.472-2.645,2.1,2.1,0,0,1,.07-.533l-.991.371a2.564,2.564,0,0,0-1.661,2.316h0a2.561,2.561,0,0,0,2.477,2.643h0a2.562,2.562,0,0,0,2.418-1.508Z" fill="#00b8f0"></path><path d="M19.055,38.916h0a2.561,2.561,0,0,1-2.477-2.643h0a2.564,2.564,0,0,1,1.661-2.316l4.5-1.687a.559.559,0,0,1,.706.754l-1.976,4.384A2.562,2.562,0,0,1,19.055,38.916Z" fill="none" stroke="#45413c" stroke-linecap="round" stroke-linejoin="round"></path><path d="M51.267 50.407 A1.423 2.134 0 1 0 54.113 50.407 A1.423 2.134 0 1 0 51.267 50.407 Z" fill="#ffffff" stroke="#009fd9" stroke-miterlimit="10"></path><path d="M57.925 50.407 A1.423 2.134 0 1 0 60.771 50.407 A1.423 2.134 0 1 0 57.925 50.407 Z" fill="#ffffff" stroke="#009fd9" stroke-miterlimit="10"></path></g></svg>