<svg xmlns="http://www.w3.org/2000/svg" version="1.1" xmlns:xlink="http://www.w3.org/1999/xlink" xmlns:svgjs="http://svgjs.com/svgjs" viewBox="0 0 200 200" width="200" height="200"><g transform="matrix(2,0,0,2,0,0)"><path d="M10.000 51.673 A40.000 40.000 0 1 0 90.000 51.673 A40.000 40.000 0 1 0 10.000 51.673 Z" fill="#e8f4fa" stroke="#daedf7" stroke-miterlimit="10"></path><path d="M37.165,52.806c-2.394-3.332-3.448-10.412-2.384-18.346a42.237,42.237,0,0,1,2.438-9.707,1.151,1.151,0,0,0-.1-1.04L35.785,21.63a1.148,1.148,0,0,0-2.03.181C28.625,34.2,27.942,51.1,33.9,59.794Z" fill="#b8ecff"></path><path d="M35.785,21.63a1.149,1.149,0,0,0-2.03.18c-.558,1.347-1.063,2.747-1.512,4.183a3.9,3.9,0,0,1,4.447.2q.254-.737.529-1.443a1.151,1.151,0,0,0-.1-1.04Z" fill="#ffffff"></path><path d="M37.165,52.806c-2.394-3.332-3.448-10.412-2.384-18.346a42.237,42.237,0,0,1,2.438-9.707,1.151,1.151,0,0,0-.1-1.04L35.785,21.63a1.148,1.148,0,0,0-2.03.181C28.625,34.2,27.942,51.1,33.9,59.794Z" fill="none" stroke="#45413c" stroke-linecap="round" stroke-linejoin="round"></path><path d="M32.541,39.615a1.15,1.15,0,0,0,1.15,1.15H43.783v-5.19H33.691a1.15,1.15,0,0,0-1.15,1.15Z" fill="#8ca4b8"></path><path d="M33.69,35.575a1.15,1.15,0,0,0-1.15,1.15V38.2H43.783V35.575Z" fill="#adc4d9"></path><path d="M32.541,39.615a1.15,1.15,0,0,0,1.15,1.15H43.783v-5.19H33.691a1.15,1.15,0,0,0-1.15,1.15Z" fill="none" stroke="#45413c" stroke-linecap="round" stroke-linejoin="round"></path><path d="M33.148 34.277 A2.595 2.595 0 1 0 38.338 34.277 A2.595 2.595 0 1 0 33.148 34.277 Z" fill="#8ca4b8"></path><path d="M37.987,35.575a2.59,2.59,0,0,0-4.489,0h0a2.6,2.6,0,1,1,4.494,0" fill="#adc4d9"></path><path d="M33.148 34.277 A2.595 2.595 0 1 0 38.338 34.277 A2.595 2.595 0 1 0 33.148 34.277 Z" fill="none" stroke="#45413c" stroke-linecap="round" stroke-linejoin="round"></path><path d="M34.770 34.277 A0.973 0.973 0 1 0 36.716 34.277 A0.973 0.973 0 1 0 34.770 34.277 Z" fill="#45413c"></path><path d="M33.148 42.062 A2.595 2.595 0 1 0 38.338 42.062 A2.595 2.595 0 1 0 33.148 42.062 Z" fill="#8ca4b8"></path><path d="M37.987,43.36a2.59,2.59,0,0,0-4.489,0h0a2.6,2.6,0,1,1,4.494,0" fill="#adc4d9"></path><path d="M33.148 42.062 A2.595 2.595 0 1 0 38.338 42.062 A2.595 2.595 0 1 0 33.148 42.062 Z" fill="none" stroke="#45413c" stroke-linecap="round" stroke-linejoin="round"></path><path d="M34.770 42.062 A0.973 0.973 0 1 0 36.716 42.062 A0.973 0.973 0 1 0 34.770 42.062 Z" fill="#45413c"></path><path d="M63.975,52.806c2.394-3.332,3.448-10.412,2.385-18.346a42.288,42.288,0,0,0-2.439-9.707,1.151,1.151,0,0,1,.1-1.04l1.332-2.083a1.149,1.149,0,0,1,2.031.181C72.516,34.2,73.2,51.1,67.245,59.794Z" fill="#b8ecff"></path><path d="M65.355,21.63a1.15,1.15,0,0,1,2.031.18c.557,1.347,1.062,2.747,1.512,4.183a3.9,3.9,0,0,0-4.448.2q-.253-.737-.529-1.443a1.148,1.148,0,0,1,.1-1.04Z" fill="#ffffff"></path><path d="M63.975,52.806c2.394-3.332,3.448-10.412,2.385-18.346a42.288,42.288,0,0,0-2.439-9.707,1.151,1.151,0,0,1,.1-1.04l1.332-2.083a1.149,1.149,0,0,1,2.031.181C72.516,34.2,73.2,51.1,67.245,59.794Z" fill="none" stroke="#45413c" stroke-linecap="round" stroke-linejoin="round"></path><path d="M68.6,39.615a1.15,1.15,0,0,1-1.15,1.15H57.357v-5.19H67.45a1.15,1.15,0,0,1,1.15,1.15Z" fill="#8ca4b8"></path><path d="M67.45,35.575a1.15,1.15,0,0,1,1.15,1.15V38.2H57.358V35.575Z" fill="#adc4d9"></path><path d="M68.6,39.615a1.15,1.15,0,0,1-1.15,1.15H57.357v-5.19H67.45a1.15,1.15,0,0,1,1.15,1.15Z" fill="none" stroke="#45413c" stroke-linecap="round" stroke-linejoin="round"></path><path d="M62.803 34.277 A2.595 2.595 0 1 0 67.993 34.277 A2.595 2.595 0 1 0 62.803 34.277 Z" fill="#8ca4b8"></path><path d="M63.153,35.575a2.59,2.59,0,0,1,4.489,0h0a2.6,2.6,0,1,0-4.494,0" fill="#adc4d9"></path><path d="M62.803 34.277 A2.595 2.595 0 1 0 67.993 34.277 A2.595 2.595 0 1 0 62.803 34.277 Z" fill="none" stroke="#45413c" stroke-linecap="round" stroke-linejoin="round"></path><path d="M64.425 34.277 A0.973 0.973 0 1 0 66.371 34.277 A0.973 0.973 0 1 0 64.425 34.277 Z" fill="#45413c"></path><path d="M62.803 42.062 A2.595 2.595 0 1 0 67.993 42.062 A2.595 2.595 0 1 0 62.803 42.062 Z" fill="#8ca4b8"></path><path d="M63.153,43.36a2.59,2.59,0,0,1,4.489,0h0a2.6,2.6,0,1,0-4.494,0" fill="#adc4d9"></path><path d="M62.803 42.062 A2.595 2.595 0 1 0 67.993 42.062 A2.595 2.595 0 1 0 62.803 42.062 Z" fill="none" stroke="#45413c" stroke-linecap="round" stroke-linejoin="round"></path><path d="M64.425 42.062 A0.973 0.973 0 1 0 66.371 42.062 A0.973 0.973 0 1 0 64.425 42.062 Z" fill="#45413c"></path><path d="M53.165,72.511a2.3,2.3,0,0,1-.243,1.029L51.6,76.187a1.15,1.15,0,0,1-2.057,0L48.218,73.54a2.3,2.3,0,0,1-.243-1.029V52.442h5.19Z" fill="#656769"></path><path d="M47.975 52.442H53.165V61.524H47.975z" fill="#525252"></path><path d="M53.165,72.511a2.3,2.3,0,0,1-.243,1.029L51.6,76.187a1.15,1.15,0,0,1-2.057,0L48.218,73.54a2.3,2.3,0,0,1-.243-1.029V52.442h5.19Z" fill="none" stroke="#45413c" stroke-linecap="round" stroke-linejoin="round"></path><path d="M57.7,25.852A1.3,1.3,0,0,0,57.427,27a42.306,42.306,0,0,1,1.11,9.874c0,10.743-3.568,19.463-7.967,19.463S42.6,47.615,42.6,36.872A42.306,42.306,0,0,1,43.714,27a1.3,1.3,0,0,0-.27-1.146l-2.5-2.955a1.3,1.3,0,0,1-.267-1.157,37.8,37.8,0,0,1,1.358-4.33c2.128-5.592,5.164-9.083,8.537-9.083s6.41,3.491,8.538,9.083a38.2,38.2,0,0,1,1.358,4.33A1.3,1.3,0,0,1,60.2,22.9Z" fill="#b8ecff" stroke="#45413c" stroke-linecap="round" stroke-linejoin="round"></path><path d="M42.681,24.948c2.063-4.684,4.84-7.538,7.889-7.538s5.827,2.855,7.89,7.541L60.2,22.9a1.3,1.3,0,0,0,.268-1.157,38.2,38.2,0,0,0-1.358-4.33c-2.128-5.592-5.164-9.083-8.538-9.083s-6.409,3.491-8.537,9.083a37.8,37.8,0,0,0-1.358,4.33,1.3,1.3,0,0,0,.267,1.157L42.68,24.95" fill="#ffffff"></path><path d="M57.2,56.055a5.715,5.715,0,0,1-4.031-.783" fill="none" stroke="#45413c" stroke-linecap="round" stroke-linejoin="round"></path><path d="M43.942,56.055a5.716,5.716,0,0,0,4.033-.783" fill="none" stroke="#45413c" stroke-linecap="round" stroke-linejoin="round"></path><path d="M57.7,25.852A1.3,1.3,0,0,0,57.427,27a42.306,42.306,0,0,1,1.11,9.874c0,10.743-3.568,19.463-7.967,19.463S42.6,47.615,42.6,36.872A42.306,42.306,0,0,1,43.714,27a1.3,1.3,0,0,0-.27-1.146l-2.5-2.955a1.3,1.3,0,0,1-.267-1.157,37.8,37.8,0,0,1,1.358-4.33c2.128-5.592,5.164-9.083,8.537-9.083s6.41,3.491,8.538,9.083a38.2,38.2,0,0,1,1.358,4.33A1.3,1.3,0,0,1,60.2,22.9Z" fill="none" stroke="#45413c" stroke-linecap="round" stroke-linejoin="round"></path><path d="M50.57 8.327L50.57 56.335" fill="none" stroke="#45413c" stroke-linecap="round" stroke-linejoin="round"></path><path d="M29.368 79.041 A21.075 2.3 0 1 0 71.518 79.041 A21.075 2.3 0 1 0 29.368 79.041 Z" fill="#45413c" opacity=".15"></path><path d="M29,74.019a3.454,3.454,0,0,0-.2,1.573l.288,2.673a1.15,1.15,0,0,0,1.928.717l1.965-1.834a3.445,3.445,0,0,0,.88-1.319l6.5-17.477-4.864-1.81Z" fill="#656769"></path><path d="M31.814 59.108H40.896V64.298H31.814z" fill="#525252" transform="translate(-34.154 74.254) rotate(-69.587)"></path><path d="M29,74.019a3.454,3.454,0,0,0-.2,1.573l.288,2.673a1.15,1.15,0,0,0,1.928.717l1.965-1.834a3.445,3.445,0,0,0,.88-1.319l6.5-17.477-4.864-1.81Z" fill="none" stroke="#45413c" stroke-linecap="round" stroke-linejoin="round"></path><path d="M33.157,59.349a1.3,1.3,0,0,0,.972,1.556l5.367,1.24a1.3,1.3,0,0,0,1.428-.636l3.266-5.9a1.3,1.3,0,0,0-.843-1.893l-7.173-1.657a1.3,1.3,0,0,0-1.557.972Z" fill="#b8ecff" stroke="#45413c" stroke-linecap="round" stroke-linejoin="round"></path><path d="M33.8,56.594a1.293,1.293,0,0,1,1.556-.972l7.168,1.656a1.183,1.183,0,0,1,.569.3h0l1.095-1.978a1.3,1.3,0,0,0-.843-1.893l-7.173-1.657a1.3,1.3,0,0,0-1.557.972l-.823,3.565" fill="#ffffff"></path><path d="M33.157,59.349a1.3,1.3,0,0,0,.972,1.556l5.367,1.24a1.3,1.3,0,0,0,1.428-.636l3.266-5.9a1.3,1.3,0,0,0-.843-1.893l-7.173-1.657a1.3,1.3,0,0,0-1.557.972Z" fill="none" stroke="#45413c" stroke-linecap="round" stroke-linejoin="round"></path><path d="M44.904 36.872 A5.666 5.666 0 1 0 56.236 36.872 A5.666 5.666 0 1 0 44.904 36.872 Z" fill="#ff6242"></path><path d="M45.165,38.572a5.667,5.667,0,0,1,10.812,0,5.667,5.667,0,1,0-11.073-1.7A5.613,5.613,0,0,0,45.165,38.572Z" fill="#e04122"></path><path d="M44.904 36.872 A5.666 5.666 0 1 0 56.236 36.872 A5.666 5.666 0 1 0 44.904 36.872 Z" fill="none" stroke="#45413c" stroke-linecap="round" stroke-linejoin="round"></path><path d="M50.57,40.116a3.244,3.244,0,1,1,3.244-3.244A3.248,3.248,0,0,1,50.57,40.116Z" fill="#ff866e"></path><path d="M48.624 36.872 A1.946 1.946 0 1 0 52.516 36.872 A1.946 1.946 0 1 0 48.624 36.872 Z" fill="#45413c"></path><path d="M72.137,74.019a3.44,3.44,0,0,1,.2,1.573l-.288,2.673a1.15,1.15,0,0,1-1.928.717l-1.965-1.834a3.445,3.445,0,0,1-.88-1.319l-6.5-17.477,4.864-1.81Z" fill="#656769"></path><path d="M62.19 57.162H67.38V66.244H62.19z" fill="#525252" transform="translate(-17.453 26.471) rotate(-20.413)"></path><path d="M72.137,74.019a3.44,3.44,0,0,1,.2,1.573l-.288,2.673a1.15,1.15,0,0,1-1.928.717l-1.965-1.834a3.445,3.445,0,0,1-.88-1.319l-6.5-17.477,4.864-1.81Z" fill="none" stroke="#45413c" stroke-linecap="round" stroke-linejoin="round"></path><path d="M67.983,59.349a1.3,1.3,0,0,1-.972,1.556l-5.367,1.24a1.3,1.3,0,0,1-1.427-.636l-3.267-5.9a1.3,1.3,0,0,1,.843-1.893l7.174-1.657a1.3,1.3,0,0,1,1.556.972Z" fill="#b8ecff" stroke="#45413c" stroke-linecap="round" stroke-linejoin="round"></path><path d="M67.341,56.594a1.293,1.293,0,0,0-1.556-.972l-7.168,1.656a1.183,1.183,0,0,0-.569.3h0L56.95,55.606a1.3,1.3,0,0,1,.843-1.893l7.174-1.657a1.3,1.3,0,0,1,1.556.972l.824,3.565" fill="#ffffff"></path><path d="M67.983,59.349a1.3,1.3,0,0,1-.972,1.556l-5.367,1.24a1.3,1.3,0,0,1-1.427-.636l-3.267-5.9a1.3,1.3,0,0,1,.843-1.893l7.174-1.657a1.3,1.3,0,0,1,1.556.972Z" fill="none" stroke="#45413c" stroke-linecap="round" stroke-linejoin="round"></path></g></svg>