<svg xmlns="http://www.w3.org/2000/svg" version="1.1" xmlns:xlink="http://www.w3.org/1999/xlink" xmlns:svgjs="http://svgjs.com/svgjs" viewBox="0 0 200 200" width="200" height="200"><g transform="matrix(2,0,0,2,0,0)"><path d="M10.000 53.513 A40.000 40.000 0 1 0 90.000 53.513 A40.000 40.000 0 1 0 10.000 53.513 Z" fill="#e8f4fa" stroke="#daedf7" stroke-miterlimit="10"></path><path d="M37.051 23.037 L59.080 23.037 L59.080 31.849 L37.051 31.849 Z" fill="#87898c"></path><path d="M39.988,28.177H56.142a2.937,2.937,0,0,0,2.914-2.568,2.948,2.948,0,0,0-2.914-2.572H39.988a2.948,2.948,0,0,0-2.914,2.572A2.937,2.937,0,0,0,39.988,28.177Z" fill="#656769"></path><path d="M37.051 23.037 L59.080 23.037 L59.080 31.849 L37.051 31.849 Z" fill="none" stroke="#45413c" stroke-linecap="round" stroke-linejoin="round"></path><path d="M59.08,25.975v2.937a2.946,2.946,0,0,1-2.938,2.937H50.268V23.037h5.874A2.947,2.947,0,0,1,59.08,25.975Z" fill="#daedf7"></path><path d="M56.142,28.177a2.937,2.937,0,0,0,2.914-2.568,2.948,2.948,0,0,0-2.914-2.572H50.268v5.14Z" fill="#c0dceb"></path><path d="M59.08,25.975v2.937a2.946,2.946,0,0,1-2.938,2.937H50.268V23.037h5.874A2.947,2.947,0,0,1,59.08,25.975Z" fill="none" stroke="#45413c" stroke-linecap="round" stroke-linejoin="round"></path><path d="M29.956 22.816 L46.111 22.816 L46.111 31.628 L29.956 31.628 Z" fill="#ffffff" transform="translate(-4.952 45.655) rotate(-58.803)"></path><path d="M35.406,23.055V25.24a2.945,2.945,0,0,0,2.937,2.937h4.262l1.859-3.07a2.936,2.936,0,0,0-.991-4.034l-2.512-1.521a2.937,2.937,0,0,0-4.034.991L35.4,23.064" fill="#daedf7"></path><path d="M59.08,23.037A2.936,2.936,0,0,1,62.017,20.1H78.171a2.937,2.937,0,0,1,2.938,2.937V20.1a2.937,2.937,0,0,0-2.938-2.937H62.017A2.937,2.937,0,0,0,59.08,20.1Z" fill="#ffffff"></path><path d="M22.365,51.675a2.938,2.938,0,0,1-5.875,0V28.912a1.469,1.469,0,0,1,1.469-1.469H20.9a1.469,1.469,0,0,1,1.469,1.469Z" fill="#a6fbff" stroke="#45413c" stroke-linecap="round" stroke-linejoin="round"></path><path d="M22.365,51.675a2.938,2.938,0,0,1-5.875,0V36.989h5.875Z" fill="#ff6242"></path><path d="M16.49 42.863H22.363999999999997V49.472H16.49z" fill="#e04122"></path><path d="M22.365,49.472v2.2a2.938,2.938,0,0,1-5.875,0v-2.2Z" fill="#ff6242"></path><path d="M22.365,51.675a2.938,2.938,0,0,1-5.875,0V36.989h5.875Z" fill="none" stroke="#45413c" stroke-linecap="round" stroke-linejoin="round"></path><path d="M81.109,28.266a2.936,2.936,0,0,1-3.514,2.88L61.441,27.915a2.936,2.936,0,0,1-2.361-2.88V20.1a2.937,2.937,0,0,1,2.937-2.937H78.171A2.937,2.937,0,0,1,81.109,20.1Z" fill="none" stroke="#45413c" stroke-miterlimit="10"></path><path d="M56.533 41.602 L80.031 41.602 L80.031 53.351 L56.533 53.351 Z" fill="#c0dceb" stroke="#45413c" stroke-miterlimit="10" transform="translate(-13.652 61.732) rotate(-44.681)"></path><path d="M50.278 78.344 A16.884 2 0 1 0 84.046 78.344 A16.884 2 0 1 0 50.278 78.344 Z" fill="#45413c" opacity=".15"></path><path d="M84.756,74.438a2.938,2.938,0,0,1-2.937,2.938H53.205a2.938,2.938,0,0,1-2.937-2.938V71.5a5.874,5.874,0,0,1,5.874-5.874H78.881A5.874,5.874,0,0,1,84.756,71.5Z" fill="#e8f4fa"></path><path d="M67.891,65.627H56.142V50.735A2.937,2.937,0,0,1,59.08,47.8h5.874a2.937,2.937,0,0,1,2.937,2.937Z" fill="#e8f4fa"></path><path d="M54.674 61.221L69.36 61.221" fill="none" stroke="#45413c" stroke-linecap="round" stroke-linejoin="round"></path><path d="M56.142 61.221H67.891V65.627H56.142z" fill="#656769" stroke="#45413c" stroke-linecap="round" stroke-linejoin="round"></path><path d="M69.360 23.037 L81.109 23.037 L81.109 45.066 L69.360 45.066 Z" fill="#e8f4fa"></path><path d="M73.765 40.661 A1.469 1.469 0 1 0 76.703 40.661 A1.469 1.469 0 1 0 73.765 40.661 Z" fill="#45413c"></path><path d="M29.956 22.816 L46.111 22.816 L46.111 31.628 L29.956 31.628 Z" fill="none" stroke="#45413c" stroke-miterlimit="10" transform="translate(-4.952 45.655) rotate(-58.803)"></path><path d="M37.051 17.163 L59.080 17.163 L59.080 25.975 L37.051 25.975 Z" fill="#e8f4fa"></path><path d="M30.943,41.84a1.585,1.585,0,1,1-2.706-1.653l4.231-6.926a1.586,1.586,0,1,1,2.706,1.654Z" fill="#e0e0e0" stroke="#45413c" stroke-linecap="round" stroke-linejoin="round"></path><path d="M26.77,42.863a2.2,2.2,0,0,1-2.2,2.2H15.756a2.2,2.2,0,1,1,0-4.405h8.812A2.2,2.2,0,0,1,26.77,42.863Z" fill="#656769"></path><path d="M13.553,42.863a2.2,2.2,0,0,1,2.2-2.2h8.812a2.2,2.2,0,0,1,2.2,2.2Z" fill="#87898c"></path><path d="M26.77,42.863a2.2,2.2,0,0,1-2.2,2.2H15.756a2.2,2.2,0,1,1,0-4.405h8.812A2.2,2.2,0,0,1,26.77,42.863Z" fill="none" stroke="#45413c" stroke-linecap="round" stroke-linejoin="round"></path><path d="M23.834 42.863 A3.671 3.671 0 1 0 31.176 42.863 A3.671 3.671 0 1 0 23.834 42.863 Z" fill="#f0f0f0" stroke="#45413c" stroke-linecap="round" stroke-linejoin="round"></path><path d="M81.109,28.815v-2.84a2.938,2.938,0,0,0-2.938-2.938H72.3a2.937,2.937,0,0,0-2.937,2.938v2.84A2.945,2.945,0,0,1,72.3,25.878h5.874A2.946,2.946,0,0,1,81.109,28.815Z" fill="#ffffff"></path><path d="M69.360 23.037 L81.109 23.037 L81.109 45.066 L69.360 45.066 Z" fill="none" stroke="#45413c" stroke-miterlimit="10"></path><path d="M73.765 27.443 A1.469 1.469 0 1 0 76.703 27.443 A1.469 1.469 0 1 0 73.765 27.443 Z" fill="#45413c"></path><path d="M56.142,54.318a2.937,2.937,0,0,1,2.938-2.937h5.874a2.936,2.936,0,0,1,2.937,2.937V50.735A2.937,2.937,0,0,0,64.954,47.8H59.08a2.937,2.937,0,0,0-2.938,2.937Z" fill="#ffffff"></path><path d="M67.891,65.627H56.142V50.735A2.937,2.937,0,0,1,59.08,47.8h5.874a2.937,2.937,0,0,1,2.937,2.937Z" fill="none" stroke="#45413c" stroke-miterlimit="10"></path><path d="M60.548 53.672 A1.469 1.469 0 1 0 63.486 53.672 A1.469 1.469 0 1 0 60.548 53.672 Z" fill="#45413c"></path><path d="M50.283,74.717a5.861,5.861,0,0,1,5.859-5.58H78.876a5.861,5.861,0,0,1,5.862,5.626,2.909,2.909,0,0,0,.018-.325V71.5a5.874,5.874,0,0,0-5.875-5.874H56.142A5.874,5.874,0,0,0,50.268,71.5v2.937c0,.094,0,.188.013.279" fill="#ffffff"></path><path d="M84.756,74.438a2.938,2.938,0,0,1-2.937,2.938H53.205a2.938,2.938,0,0,1-2.937-2.938V71.5a5.874,5.874,0,0,1,5.874-5.874H78.881A5.874,5.874,0,0,1,84.756,71.5Z" fill="none" stroke="#45413c" stroke-miterlimit="10"></path><path d="M37.051,22.714a2.945,2.945,0,0,1,2.937-2.937H56.142a2.946,2.946,0,0,1,2.938,2.937V20.1a2.937,2.937,0,0,0-2.938-2.937H39.988A2.937,2.937,0,0,0,37.051,20.1Z" fill="#ffffff"></path><path d="M37.051 17.163 L59.080 17.163 L59.080 25.975 L37.051 25.975 Z" fill="none" stroke="#45413c" stroke-miterlimit="10"></path><path d="M26.281,72.266a2.3,2.3,0,0,0,4.6,0V54.441a1.15,1.15,0,0,0-1.15-1.15h-2.3a1.15,1.15,0,0,0-1.15,1.15Z" fill="#a6fbff" stroke="#45413c" stroke-linecap="round" stroke-linejoin="round"></path><path d="M26.281,72.266a2.3,2.3,0,0,0,4.6,0v-11.5h-4.6Z" fill="#ffe500"></path><path d="M26.281 65.366H30.881V68.816H26.281z" fill="#ebcb00"></path><path d="M26.281,70.541v1.725a2.3,2.3,0,0,0,4.6,0V70.541Z" fill="#ffe500"></path><path d="M26.281,72.266a2.3,2.3,0,0,0,4.6,0v-11.5h-4.6Z" fill="none" stroke="#45413c" stroke-linecap="round" stroke-linejoin="round"></path><path d="M34.312,72.266a2.3,2.3,0,1,0,4.6,0V54.441a1.15,1.15,0,0,0-1.15-1.15h-2.3a1.15,1.15,0,0,0-1.15,1.15Z" fill="#a6fbff" stroke="#45413c" stroke-linecap="round" stroke-linejoin="round"></path><path d="M34.312,72.266a2.3,2.3,0,1,0,4.6,0v-11.5h-4.6Z" fill="#6dd627"></path><path d="M34.312 65.366H38.912V68.816H34.312z" fill="#46b000"></path><path d="M34.312,70.541v1.725a2.3,2.3,0,1,0,4.6,0V70.541Z" fill="#6dd627"></path><path d="M34.312,72.266a2.3,2.3,0,1,0,4.6,0v-11.5h-4.6Z" fill="none" stroke="#45413c" stroke-linecap="round" stroke-linejoin="round"></path><path d="M11.312 78.591 A17.25 1.725 0 1 0 45.812 78.591 A17.25 1.725 0 1 0 11.312 78.591 Z" fill="#45413c" opacity=".15"></path><path d="M15.337 74.566H41.787V77.441H15.337z" fill="#debb7e" stroke="#45413c" stroke-linecap="round" stroke-linejoin="round"></path><path d="M15.337 63.641H41.787V65.941H15.337z" fill="#debb7e" stroke="#45413c" stroke-linecap="round" stroke-linejoin="round"></path><path d="M41.787,77.441h1.725a1.15,1.15,0,0,0,1.15-1.15V61.916a1.15,1.15,0,0,0-1.15-1.15h-.575a1.15,1.15,0,0,0-1.15,1.15Z" fill="#debb7e"></path><path d="M44.662,65.584a1.154,1.154,0,0,0-1.15-1.15h-.575a1.153,1.153,0,0,0-1.15,1.15V61.916a1.15,1.15,0,0,1,1.15-1.15h.575a1.15,1.15,0,0,1,1.15,1.15Z" fill="#f0d5a8"></path><path d="M41.787,77.441h1.725a1.15,1.15,0,0,0,1.15-1.15V61.916a1.15,1.15,0,0,0-1.15-1.15h-.575a1.15,1.15,0,0,0-1.15,1.15Z" fill="none" stroke="#45413c" stroke-linecap="round" stroke-linejoin="round"></path><path d="M15.337,77.441H13.612a1.15,1.15,0,0,1-1.15-1.15V61.916a1.15,1.15,0,0,1,1.15-1.15h.575a1.15,1.15,0,0,1,1.15,1.15Z" fill="#debb7e"></path><path d="M12.462,65.584a1.153,1.153,0,0,1,1.15-1.15h.575a1.154,1.154,0,0,1,1.15,1.15V61.916a1.15,1.15,0,0,0-1.15-1.15h-.575a1.15,1.15,0,0,0-1.15,1.15Z" fill="#f0d5a8"></path><path d="M15.337,77.441H13.612a1.15,1.15,0,0,1-1.15-1.15V61.916a1.15,1.15,0,0,1,1.15-1.15h.575a1.15,1.15,0,0,1,1.15,1.15Z" fill="none" stroke="#45413c" stroke-linecap="round" stroke-linejoin="round"></path><path d="M13.625 21.230 A2.203 2.203 0 1 0 18.031 21.230 A2.203 2.203 0 1 0 13.625 21.230 Z" fill="#ff6242" stroke="#45413c" stroke-linecap="round" stroke-linejoin="round"></path><path d="M16.785 8.323 A1.836 1.836 0 1 0 20.457 8.323 A1.836 1.836 0 1 0 16.785 8.323 Z" fill="#ff6242" stroke="#45413c" stroke-linecap="round" stroke-linejoin="round"></path><path d="M20.089 16.090 A2.937 2.937 0 1 0 25.963 16.090 A2.937 2.937 0 1 0 20.089 16.090 Z" fill="#ff6242" stroke="#45413c" stroke-linecap="round" stroke-linejoin="round"></path></g></svg>