<svg xmlns="http://www.w3.org/2000/svg" version="1.1" xmlns:xlink="http://www.w3.org/1999/xlink" xmlns:svgjs="http://svgjs.com/svgjs" viewBox="0 0 200 200" width="200" height="200"><g transform="matrix(2,0,0,2,0,0)"><path d="M7.674 53.554 A40.000 40.000 0 1 0 87.674 53.554 A40.000 40.000 0 1 0 7.674 53.554 Z" fill="#e8f4fa" stroke="#daedf7" stroke-miterlimit="10"></path><path d="M45,55.353v8.085a5.776,5.776,0,0,1-5.775,5.775h0a5.775,5.775,0,0,1-5.774-5.775V62.273" fill="none" stroke="#45413c" stroke-linecap="round" stroke-linejoin="round"></path><path d="M47.314,53.043a2.31,2.31,0,0,1-4.62,0V49.578a2.31,2.31,0,1,1,4.62,0Z" fill="#87898c"></path><path d="M45,47.268a2.31,2.31,0,0,0-2.31,2.31V52.3a2.31,2.31,0,0,1,4.62,0V49.578A2.31,2.31,0,0,0,45,47.268Z" fill="#bdbec0"></path><path d="M47.314,53.043a2.31,2.31,0,0,1-4.62,0V49.578a2.31,2.31,0,1,1,4.62,0Z" fill="none" stroke="#45413c" stroke-linecap="round" stroke-linejoin="round"></path><path d="M45.004 46.113L45.004 47.268" fill="none" stroke="#45413c" stroke-linecap="round" stroke-linejoin="round"></path><path d="M8.217 82.136 A15.015 1.733 0 1 0 38.247 82.136 A15.015 1.733 0 1 0 8.217 82.136 Z" fill="#45413c" opacity=".15"></path><path d="M39.826,37.648a1.894,1.894,0,0,0-1.894-1.894H33.2V38.6h2.841V59.431h1.9a1.894,1.894,0,0,0,1.894-1.894Z" fill="#dea47a"></path><path d="M33.2,38.6h4.736a1.9,1.9,0,0,1,1.894,1.894V37.648a1.894,1.894,0,0,0-1.894-1.894H33.2Z" fill="#f0c2a1"></path><path d="M39.826,37.648a1.894,1.894,0,0,0-1.894-1.894H33.2V38.6h2.841V59.431h1.9a1.894,1.894,0,0,0,1.894-1.894Z" fill="none" stroke="#45413c" stroke-linecap="round" stroke-linejoin="round"></path><path d="M36.037,39.542H21.831v-2.21a1.579,1.579,0,0,1,1.578-1.578h11.05a1.578,1.578,0,0,1,1.578,1.578Z" fill="#bf8256"></path><path d="M27.513,35.754a1.9,1.9,0,0,0-1.894,1.894v1.894H36.037v-2.21a1.578,1.578,0,0,0-1.578-1.578Z" fill="#915e3a"></path><path d="M11.755,80.683a1.421,1.421,0,0,1-2.4-1.519l8.6-13.608a1.421,1.421,0,0,1,2.4,1.518Z" fill="#8ca4b8"></path><path d="M15.244,69.847l2.713-4.291a1.421,1.421,0,0,1,2.4,1.518L18.6,69.849Z" fill="#627b8c"></path><path d="M11.755,80.683a1.421,1.421,0,0,1-2.4-1.519l8.6-13.608a1.421,1.421,0,0,1,2.4,1.518Z" fill="none" stroke="#45413c" stroke-linecap="round" stroke-linejoin="round"></path><path d="M34.445,80.683a1.421,1.421,0,0,0,2.4-1.519l-8.6-13.608a1.421,1.421,0,0,0-2.4,1.518Z" fill="#8ca4b8"></path><path d="M30.956,69.847l-2.713-4.291a1.421,1.421,0,0,0-2.4,1.518L27.6,69.849Z" fill="#627b8c"></path><path d="M34.445,80.683a1.421,1.421,0,0,0,2.4-1.519l-8.6-13.608a1.421,1.421,0,0,0-2.4,1.518Z" fill="none" stroke="#45413c" stroke-linecap="round" stroke-linejoin="round"></path><path d="M28.461,62.273a5.683,5.683,0,0,1-11.366,0Z" fill="#bf8256"></path><path d="M27.994,64.531a5.669,5.669,0,0,0,.467-2.258H17.1a5.668,5.668,0,0,0,.466,2.258Z" fill="#915e3a"></path><path d="M36.037,39.542H21.831v-2.21a1.579,1.579,0,0,1,1.578-1.578h11.05a1.578,1.578,0,0,1,1.578,1.578Z" fill="none" stroke="#45413c" stroke-linecap="round" stroke-linejoin="round"></path><path d="M15.2,42.384a1.894,1.894,0,0,1,1.894-1.9h2.842a.947.947,0,0,1,.947-.947h3.788a.947.947,0,0,1,.947-.947H36.037V59.431H15.2Z" fill="#656769"></path><path d="M36.037,38.6v1.894H30.828a.474.474,0,0,0-.473.474.474.474,0,0,1-.474.474H26.093a.474.474,0,0,0-.474.473.474.474,0,0,1-.473.474H15.2a1.894,1.894,0,0,1,1.894-1.9h2.842a.947.947,0,0,1,.947-.947h3.788a.947.947,0,0,1,.947-.947Z" fill="#87898c"></path><path d="M15.2,42.384a1.894,1.894,0,0,1,1.894-1.9h2.842a.947.947,0,0,1,.947-.947h3.788a.947.947,0,0,1,.947-.947H36.037V59.431H15.2Z" fill="none" stroke="#45413c" stroke-linecap="round" stroke-linejoin="round"></path><path d="M19.937,57.853a1.578,1.578,0,0,1-1.579,1.578H11.251A1.731,1.731,0,0,1,9.519,57.7V43.962A1.577,1.577,0,0,1,11.1,42.384h7.261a1.578,1.578,0,0,1,1.579,1.578Z" fill="#dea47a"></path><path d="M9.519,47.375a1.887,1.887,0,0,1,.947-.256h5.682a1.9,1.9,0,0,1,1.894,1.894v8.524a1.9,1.9,0,0,1-1.894,1.894h-4.9A1.731,1.731,0,0,1,9.519,57.7Z" fill="#bf8256"></path><path d="M19.937,57.853a1.578,1.578,0,0,1-1.579,1.578H11.251A1.731,1.731,0,0,1,9.519,57.7V43.962A1.577,1.577,0,0,1,11.1,42.384h7.261a1.578,1.578,0,0,1,1.579,1.578Z" fill="none" stroke="#45413c" stroke-linecap="round" stroke-linejoin="round"></path><path d="M8.256,45.225H14.57A1.578,1.578,0,0,1,16.148,46.8v8.208A1.579,1.579,0,0,1,14.57,56.59H8.256a1.579,1.579,0,0,1-1.579-1.579V46.8A1.578,1.578,0,0,1,8.256,45.225Z" fill="#dea47a"></path><path d="M32.249 59.431L32.249 43.331" fill="#ffffff" stroke="#45413c" stroke-linecap="round" stroke-linejoin="round"></path><path d="M28.461 59.431L28.461 46.172" fill="#ffffff" stroke="#45413c" stroke-linecap="round" stroke-linejoin="round"></path><path d="M24.672 59.431L24.672 49.013" fill="#ffffff" stroke="#45413c" stroke-linecap="round" stroke-linejoin="round"></path><path d="M28.461,62.273a5.683,5.683,0,0,1-11.366,0Z" fill="none" stroke="#45413c" stroke-linecap="round" stroke-linejoin="round"></path><path d="M31.766,60.03a1.421,1.421,0,0,1-2.01-2.009l6.7-6.7a1.421,1.421,0,0,1,2.01,2.009Z" fill="#ebcb00"></path><path d="M21.357,59.431a1.421,1.421,0,1,1,0,2.842H8.1a1.421,1.421,0,1,1,0-2.842Z" fill="#dea47a" stroke="#45413c" stroke-linecap="round" stroke-linejoin="round"></path><path d="M23.928,59.962a1.421,1.421,0,0,0,2.009-2.009l-4.106-4.377a1.421,1.421,0,0,0-2.009,2.01Z" fill="#ebcb00"></path><path d="M24.672,81.688a1.421,1.421,0,1,1-2.841,0V66.535a1.421,1.421,0,1,1,2.841,0Z" fill="#8ca4b8"></path><path d="M21.831,71.27a1.421,1.421,0,0,1,2.841,0V66.535a1.421,1.421,0,1,0-2.841,0Z" fill="#627b8c"></path><path d="M24.672,81.688a1.421,1.421,0,1,1-2.841,0V66.535a1.421,1.421,0,1,1,2.841,0Z" fill="none" stroke="#45413c" stroke-linecap="round" stroke-linejoin="round"></path><path d="M19.773,55.535a.23.23,0,0,1,.05-.063,1.414,1.414,0,0,1,2.008,0L25.993,59.9a1.42,1.42,0,0,0-.056-1.95l-4.106-4.377a1.421,1.421,0,0,0-2.058,1.959Z" fill="#ffe500"></path><path d="M23.928,59.962a1.421,1.421,0,0,0,2.009-2.009l-4.106-4.377a1.421,1.421,0,0,0-2.009,2.01Z" fill="none" stroke="#45413c" stroke-linecap="round" stroke-linejoin="round"></path><path d="M29.708,59.978a.211.211,0,0,1,.05-.064l6.7-6.7a1.414,1.414,0,0,1,2.008,0,.212.212,0,0,1,.05.063,1.421,1.421,0,0,0-2.059-1.957l-6.7,6.7A1.419,1.419,0,0,0,29.708,59.978Z" fill="#ffe500"></path><path d="M31.766,60.03a1.421,1.421,0,0,1-2.01-2.009l6.7-6.7a1.421,1.421,0,0,1,2.01,2.009Z" fill="none" stroke="#45413c" stroke-linecap="round" stroke-linejoin="round"></path><path d="M34.617,59.431a1.421,1.421,0,0,1,0,2.842H21.357a1.421,1.421,0,0,1,0-2.842Z" fill="#bf8256" stroke="#45413c" stroke-linecap="round" stroke-linejoin="round"></path><path d="M6.677,49.96a1.9,1.9,0,0,1,1.894-1.894h5.683a1.9,1.9,0,0,1,1.894,1.894V46.8a1.578,1.578,0,0,0-1.578-1.578H8.256A1.579,1.579,0,0,0,6.677,46.8Z" fill="#f0c2a1"></path><path d="M8.256,45.225H14.57A1.578,1.578,0,0,1,16.148,46.8v8.208A1.579,1.579,0,0,1,14.57,56.59H8.256a1.579,1.579,0,0,1-1.579-1.579V46.8A1.578,1.578,0,0,1,8.256,45.225Z" fill="none" stroke="#45413c" stroke-linecap="round" stroke-linejoin="round"></path><path d="M13.677,50.908a2.838,2.838,0,0,1-2.842,2.841h-4V48.066h4A2.838,2.838,0,0,1,13.677,50.908Z" fill="#ffe500"></path><path d="M13.677,50.908a2.838,2.838,0,0,0-2.842-2.842h-4v2.842Z" fill="#fff48c"></path><path d="M13.677,50.908a2.838,2.838,0,0,1-2.842,2.841h-4V48.066h4A2.838,2.838,0,0,1,13.677,50.908Z" fill="none" stroke="#45413c" stroke-linecap="round" stroke-linejoin="round"></path><path d="M3.998 50.908 A2.841 2.841 0 1 0 9.680 50.908 A2.841 2.841 0 1 0 3.998 50.908 Z" fill="#00b8f0"></path><path d="M6.839,48.066A2.842,2.842,0,0,0,4.83,52.917L8.848,48.9A2.832,2.832,0,0,0,6.839,48.066Z" fill="#4acfff"></path><path d="M3.998 50.908 A2.841 2.841 0 1 0 9.680 50.908 A2.841 2.841 0 1 0 3.998 50.908 Z" fill="none" stroke="#45413c" stroke-linecap="round" stroke-linejoin="round"></path><path d="M50.725,43.557a7,7,0,0,0-5.428-.011,1.439,1.439,0,0,0-.784,1.864,1.407,1.407,0,0,0,1.846.777,4.249,4.249,0,0,1,5.512,5.607,4.28,4.28,0,0,1-2.323,2.314,4.325,4.325,0,0,1-5.54-2.33A1.407,1.407,0,0,0,42.161,51a1.438,1.438,0,0,0-.783,1.864,7.035,7.035,0,0,0,9.233,3.883,7.195,7.195,0,0,0,3.919-9.319A7.008,7.008,0,0,0,50.725,43.557Z" fill="#656769" stroke="#45413c" stroke-linecap="round" stroke-linejoin="round"></path><path d="M54.219,55.686a7.077,7.077,0,0,0,3.019-.46c3.457-1.349,5.28-5.142,6.2-8.087a.349.349,0,0,1,.358-.248l.493.03a2.479,2.479,0,1,0,.3-4.949l-.492-.03a5.3,5.3,0,0,0-5.392,3.716c-.819,2.619-2.041,4.468-3.27,4.948-.292.114-1.176.458-3-.6A2.479,2.479,0,1,0,49.957,54.3,9.659,9.659,0,0,0,54.219,55.686Z" fill="#daedf7" stroke="#45413c" stroke-linecap="round" stroke-linejoin="round"></path><path d="M55.656,50.506a4.25,4.25,0,0,0,3.591,3.544" fill="none" stroke="#45413c" stroke-linecap="round" stroke-linejoin="round"></path><path d="M58.864,45.223a4.253,4.253,0,0,0,4.059,3.386" fill="none" stroke="#45413c" stroke-linecap="round" stroke-linejoin="round"></path><path d="M64.372,27.72A5.666,5.666,0,0,0,58.72,33.4l.048,19.833,5.667-.014,5.666-.014,4.25-.01-.063-25.5Z" fill="#e8f4fa"></path><path d="M58.724,35.317A6.135,6.135,0,0,1,64.106,32.1L74.3,32.077,74.288,27.7l-9.916.024A5.666,5.666,0,0,0,58.72,33.4l0,1.76" fill="#ffffff"></path><path d="M67.496 63.256H71.746V78.839H67.496z" fill="#e8f4fa"></path><path d="M67.496 63.256H71.746V68.922H67.496z" fill="#c0dceb"></path><path d="M67.496 63.256H71.746V78.839H67.496z" fill="none" stroke="#45413c" stroke-linecap="round" stroke-linejoin="round"></path><path d="M80.018,53.184a10.625,10.625,0,0,1-21.25.049Z" fill="#e8f4fa" stroke="#45413c" stroke-linecap="round" stroke-linejoin="round"></path><path d="M82.756,14.925a8.5,8.5,0,0,1-8.478,8.521l-2.833.007-.042-17,2.833-.007A8.5,8.5,0,0,1,82.756,14.925Z" fill="#e8f4fa"></path><path d="M74.236,10.02a8.5,8.5,0,0,1,8.332,6.713,8.618,8.618,0,0,0,.189-1.808,8.5,8.5,0,0,0-8.521-8.479L71.4,6.453l.009,3.574Z" fill="#ffffff"></path><path d="M82.756,14.925a8.5,8.5,0,0,1-8.478,8.521l-2.833.007-.042-17,2.833-.007A8.5,8.5,0,0,1,82.756,14.925Z" fill="none" stroke="#45413c" stroke-linecap="round" stroke-linejoin="round"></path><path d="M57.257 6.467 L74.256 6.467 L74.256 23.466 L57.257 23.466 Z" fill="#00b8f0" transform="translate(-0.037 0.162) rotate(-0.141)"></path><path d="M60.069,10.055,71.4,10.027a2.831,2.831,0,0,1,2.84,2.826l.021,7.973c0-.07.008-.142.008-.213L74.242,9.28A2.833,2.833,0,0,0,71.4,6.453l-11.333.029a2.832,2.832,0,0,0-2.825,2.84l.008,3.359A2.831,2.831,0,0,1,60.069,10.055Z" fill="#4acfff"></path><path d="M57.257 6.467 L74.256 6.467 L74.256 23.466 L57.257 23.466 Z" fill="none" stroke="#45413c" stroke-linecap="round" stroke-linejoin="round" transform="translate(-0.037 0.162) rotate(-0.141)"></path><path d="M64.372,27.72A5.666,5.666,0,0,0,58.72,33.4l.048,19.833,5.667-.014,5.666-.014,4.25-.01-.063-25.5Z" fill="none" stroke="#45413c" stroke-linecap="round" stroke-linejoin="round"></path><path d="M80.018,53.181l-11.333.028-.049-19.833a5.667,5.667,0,0,1,11.333-.028Z" fill="#c0dceb"></path><path d="M60.093,16.425a1.447,1.447,0,0,1-1.446-1.44,2.861,2.861,0,0,1,5.721-.015,1.444,1.444,0,0,1-2.884.1A1.371,1.371,0,0,1,60.1,16.425Z" fill="#ffffff" stroke="#009fd9" stroke-linecap="round" stroke-linejoin="round"></path><path d="M67.672,16.425a1.448,1.448,0,0,1-1.446-1.441,2.861,2.861,0,0,1,5.721-.014,1.444,1.444,0,0,1-1.44,1.448,1.448,1.448,0,0,1-1.444-1.344,1.371,1.371,0,0,1-1.39,1.351Z" fill="#ffffff" stroke="#009fd9" stroke-linecap="round" stroke-linejoin="round"></path><path d="M68.109 23.467H72.359V27.717H68.109z" fill="#bdbec0" stroke="#45413c" stroke-linecap="round" stroke-linejoin="round" transform="translate(-0.063 0.173) rotate(-0.141)"></path><path d="M56.879 82.773 A12.75 2.125 0 1 0 82.379 82.773 A12.75 2.125 0 1 0 56.879 82.773 Z" fill="#45413c" opacity=".15"></path><path d="M79.973,34.916a7.238,7.238,0,0,0-11.333.365l0-1.905a5.667,5.667,0,0,1,11.333-.028Z" fill="#e8f4fa"></path><path d="M80.018,53.181l-11.333.028-.049-19.833a5.667,5.667,0,0,1,11.333-.028Z" fill="none" stroke="#45413c" stroke-linecap="round" stroke-linejoin="round"></path><path d="M81.705,58.952a7,7,0,0,0,2.158,4.981,1.439,1.439,0,0,0,2.022-.026,1.407,1.407,0,0,0-.026-2,4.324,4.324,0,0,1-.076-6.009,4.319,4.319,0,0,1,6.065-.078,4.325,4.325,0,0,1,.076,6.01,1.407,1.407,0,0,0,.026,2,1.438,1.438,0,0,0,2.021-.025,7.035,7.035,0,0,0-.127-10.016,7.2,7.2,0,0,0-10.108.128A7.006,7.006,0,0,0,81.705,58.952Z" fill="#656769" stroke="#45413c" stroke-linecap="round" stroke-linejoin="round"></path><path d="M88.919,55.338a2.479,2.479,0,0,1-2.479-2.479c0-7.021-1.593-12.024-4.735-14.867a9.678,9.678,0,0,0-6.7-2.5,2.479,2.479,0,0,1-.494-4.934,14.613,14.613,0,0,1,10.527,3.758C89.257,38.139,91.4,44.378,91.4,52.859A2.479,2.479,0,0,1,88.919,55.338Z" fill="#daedf7" stroke="#45413c" stroke-linecap="round" stroke-linejoin="round"></path><path d="M79,36.266a4.25,4.25,0,0,1,2.912-4.106" fill="none" stroke="#45413c" stroke-linecap="round" stroke-linejoin="round"></path><path d="M83.581,40.222a4.25,4.25,0,0,1,3.922-2.61c.1,0,.2,0,.3.01" fill="none" stroke="#45413c" stroke-linecap="round" stroke-linejoin="round"></path><path d="M85.817,46.04a4.256,4.256,0,0,1,4.858-.967" fill="none" stroke="#45413c" stroke-linecap="round" stroke-linejoin="round"></path><path d="M59.754,57.684a10.6,10.6,0,0,1-.986-4.451l21.25-.049a10.608,10.608,0,0,1-.876,4.255Z" fill="#c0dceb"></path><path d="M80.018,53.184a10.625,10.625,0,0,1-21.25.049Z" fill="none" stroke="#45413c" stroke-linecap="round" stroke-linejoin="round"></path><path d="M79.643,80.813a.8.8,0,0,1-.193,1.567H59.792a.8.8,0,0,1-.193-1.567l7.9-1.974h4.25Z" fill="#656769" stroke="#45413c" stroke-linecap="round" stroke-linejoin="round"></path></g></svg>