<svg xmlns="http://www.w3.org/2000/svg" version="1.1" xmlns:xlink="http://www.w3.org/1999/xlink" xmlns:svgjs="http://svgjs.com/svgjs" viewBox="0 0 200 200" width="200" height="200"><g transform="matrix(2,0,0,2,0,0)"><path d="M86.436,75.156a40,40,0,1,0-72.872,0Z" fill="#009fd9"></path><path d="M13.564,75.156a40,40,0,0,0,72.872,0Z" fill="#adc4d9"></path><path d="M11 75.156L89 75.156" fill="none" stroke="#45413c" stroke-linecap="round" stroke-linejoin="round"></path><path d="M6.5 75.156L9 75.156" fill="none" stroke="#45413c" stroke-linecap="round" stroke-linejoin="round"></path><path d="M91 75.156L93.5 75.156" fill="none" stroke="#45413c" stroke-linecap="round" stroke-linejoin="round"></path><path d="M64 85.656L71.157 85.656" fill="none" stroke="#c0dceb" stroke-linecap="round" stroke-miterlimit="10"></path><path d="M59.825 85.656L61.614 85.656" fill="none" stroke="#c0dceb" stroke-linecap="round" stroke-miterlimit="10"></path><path d="M56.843 85.656L57.44 85.656" fill="none" stroke="#c0dceb" stroke-linecap="round" stroke-miterlimit="10"></path><path d="M34.157 82.156L41.313 82.156" fill="none" stroke="#c0dceb" stroke-linecap="round" stroke-miterlimit="10"></path><path d="M29.982 82.156L31.771 82.156" fill="none" stroke="#c0dceb" stroke-linecap="round" stroke-miterlimit="10"></path><path d="M27 82.156L27.596 82.156" fill="none" stroke="#c0dceb" stroke-linecap="round" stroke-miterlimit="10"></path><path d="M45.343 93.156L52.5 93.156" fill="none" stroke="#c0dceb" stroke-linecap="round" stroke-miterlimit="10"></path><path d="M41.169 93.156L42.958 93.156" fill="none" stroke="#c0dceb" stroke-linecap="round" stroke-miterlimit="10"></path><path d="M38.187 93.156L38.783 93.156" fill="none" stroke="#c0dceb" stroke-linecap="round" stroke-miterlimit="10"></path><path d="M56.587,90.238a2.1,2.1,0,0,0,1.8-2.163,65.539,65.539,0,0,0-4.222-21.151A2.1,2.1,0,0,0,50.236,68.4,62.208,62.208,0,0,1,54.2,88.243a2.1,2.1,0,0,0,2.181,2.014A2.067,2.067,0,0,0,56.587,90.238Z" fill="#c0dceb" stroke="#45413c" stroke-linecap="round" stroke-linejoin="round"></path><path d="M52.154,74.4a8.861,8.861,0,0,0,2.148-.416,8.979,8.979,0,0,0,1.876-.838" fill="none" stroke="#45413c" stroke-linecap="round" stroke-linejoin="round"></path><path d="M53.146,78.9a8.889,8.889,0,0,0,2.2-.2,9.041,9.041,0,0,0,1.929-.641" fill="none" stroke="#45413c" stroke-linecap="round" stroke-linejoin="round"></path><path d="M53.779,82.968a8.488,8.488,0,0,0,2.728-.16,9.2,9.2,0,0,0,1.425-.424" fill="none" stroke="#45413c" stroke-linecap="round" stroke-linejoin="round"></path><path d="M51.707,72.762A43.352,43.352,0,0,0,50.236,68.4a2.1,2.1,0,0,1,3.933-1.472c.055.147.5,1.2,1.075,3.006A6.7,6.7,0,0,1,51.707,72.762Z" fill="#adc4d9"></path><path d="M56.587,90.238a2.1,2.1,0,0,0,1.8-2.163,65.539,65.539,0,0,0-4.222-21.151A2.1,2.1,0,0,0,50.236,68.4,62.208,62.208,0,0,1,54.2,88.243a2.1,2.1,0,0,0,2.181,2.014A2.067,2.067,0,0,0,56.587,90.238Z" fill="none" stroke="#45413c" stroke-linecap="round" stroke-linejoin="round"></path><path d="M39.413,90.238a2.1,2.1,0,0,1-1.8-2.163,65.539,65.539,0,0,1,4.222-21.151A2.1,2.1,0,0,1,45.764,68.4a62.208,62.208,0,0,0-3.959,19.847,2.1,2.1,0,0,1-2.181,2.014A2.067,2.067,0,0,1,39.413,90.238Z" fill="#c0dceb" stroke="#45413c" stroke-linecap="round" stroke-linejoin="round"></path><path d="M43.846,74.4a8.861,8.861,0,0,1-2.148-.416,8.979,8.979,0,0,1-1.876-.838" fill="none" stroke="#45413c" stroke-linecap="round" stroke-linejoin="round"></path><path d="M42.854,78.9a8.889,8.889,0,0,1-2.2-.2,9.041,9.041,0,0,1-1.929-.641" fill="none" stroke="#45413c" stroke-linecap="round" stroke-linejoin="round"></path><path d="M42.221,82.968a8.488,8.488,0,0,1-2.728-.16,9.2,9.2,0,0,1-1.425-.424" fill="none" stroke="#45413c" stroke-linecap="round" stroke-linejoin="round"></path><path d="M44.309,72.7A43.492,43.492,0,0,1,45.764,68.4a2.1,2.1,0,0,0-3.933-1.472c-.053.142-.464,1.126-1.012,2.81A6.711,6.711,0,0,0,44.309,72.7Z" fill="#adc4d9"></path><path d="M39.413,90.238a2.1,2.1,0,0,1-1.8-2.163,65.539,65.539,0,0,1,4.222-21.151A2.1,2.1,0,0,1,45.764,68.4a62.208,62.208,0,0,0-3.959,19.847,2.1,2.1,0,0,1-2.181,2.014A2.067,2.067,0,0,1,39.413,90.238Z" fill="none" stroke="#45413c" stroke-linecap="round" stroke-linejoin="round"></path><path d="M61.764,75.307a.494.494,0,0,1-.736.019,5.2,5.2,0,1,1,8.062-.633.5.5,0,0,1-.73.1l-1.139-.972a.5.5,0,0,1-.1-.637,2.723,2.723,0,1,0-4.384.345.494.494,0,0,1,0,.644Z" fill="#656769"></path><path d="M61.764,75.307a.494.494,0,0,1-.736.019,5.2,5.2,0,1,1,8.062-.633.5.5,0,0,1-.73.1l-1.139-.972a.5.5,0,0,1-.1-.637,2.723,2.723,0,1,0-4.384.345.494.494,0,0,1,0,.644Z" fill="none" stroke="#45413c" stroke-linecap="round" stroke-linejoin="round"></path><path d="M49.356,49.657c.059,0,.118.005.177.011,5.579.608,16.328,5.141,17.071,17.955a2.1,2.1,0,1,1-4.193.244C61.69,55.437,49.587,53.9,49.073,53.843a2.1,2.1,0,0,1,.283-4.186Z" fill="#c0dceb" stroke="#45413c" stroke-linecap="round" stroke-linejoin="round"></path><path d="M65.929,63.356a3.968,3.968,0,0,1-4.142.779" fill="none" stroke="#45413c" stroke-linecap="round" stroke-linejoin="round"></path><path d="M62.672,56.867a3.966,3.966,0,0,1-2.8,3.238" fill="none" stroke="#45413c" stroke-linecap="round" stroke-linejoin="round"></path><path d="M40.833,50.37a3,3,0,0,1-2.384-1.179,11.747,11.747,0,1,1,18.676,0,3,3,0,0,1-2.384,1.177Z" fill="#daedf7"></path><path d="M38.866,49.635a3.083,3.083,0,0,1-.417-.444,11.748,11.748,0,0,1,16.945-16.08Z" fill="#ffffff"></path><path d="M68.500 46.102 A5.946 5.946 0 1 0 80.392 46.102 A5.946 5.946 0 1 0 68.500 46.102 Z" fill="#80ddff"></path><path d="M68.500 46.102 A5.946 5.946 0 1 0 80.392 46.102 A5.946 5.946 0 1 0 68.500 46.102 Z" fill="none" stroke="#45413c" stroke-linecap="round" stroke-linejoin="round"></path><path d="M73.786,44.12h0A1.321,1.321,0,0,0,72.464,42.8H69.5a5.939,5.939,0,0,0,1.639,8.245V46.763a1.321,1.321,0,0,1,1.321-1.321h0A1.322,1.322,0,0,0,73.786,44.12Z" fill="#6dd627"></path><path d="M73.786,44.12h0A1.321,1.321,0,0,0,72.464,42.8H69.5a5.939,5.939,0,0,0,1.639,8.245V46.763a1.321,1.321,0,0,1,1.321-1.321h0A1.322,1.322,0,0,0,73.786,44.12Z" fill="none" stroke="#45413c" stroke-linecap="round" stroke-linejoin="round"></path><path d="M80.392,46.1A5.937,5.937,0,0,0,77.75,41.16v2.019a.941.941,0,0,1-.941.941h0a.941.941,0,0,0-.941.941v3.4a.941.941,0,0,0,.941.941.94.94,0,0,1,.941.94v.7A5.937,5.937,0,0,0,80.392,46.1Z" fill="#6dd627"></path><path d="M80.392,46.1A5.937,5.937,0,0,0,77.75,41.16v2.019a.941.941,0,0,1-.941.941h0a.941.941,0,0,0-.941.941v3.4a.941.941,0,0,0,.941.941.94.94,0,0,1,.941.94v.7A5.937,5.937,0,0,0,80.392,46.1Z" fill="none" stroke="#45413c" stroke-linecap="round" stroke-linejoin="round"></path><path d="M64,88.749c0,2.131-2.16,1.929-4.825,1.929s-4.824.2-4.824-1.929,2.16-3.86,4.824-3.86S64,86.617,64,88.749Z" fill="#656769" stroke="#45413c" stroke-linecap="round" stroke-linejoin="round"></path><path d="M35.993 90.856 A11.422 1.8 0 1 0 58.837 90.856 A11.422 1.8 0 1 0 35.993 90.856 Z" fill="#45413c" opacity=".15"></path><path d="M28.351,29.541a.5.5,0,0,1,.736-.038,5.2,5.2,0,1,1-8.044.837.5.5,0,0,1,.728-.115l1.163.944a.5.5,0,0,1,.116.633,2.723,2.723,0,1,0,4.374-.455.5.5,0,0,1-.017-.644Z" fill="#656769"></path><path d="M28.351,29.541a.5.5,0,0,1,.736-.038,5.2,5.2,0,1,1-8.044.837.5.5,0,0,1,.728-.115l1.163.944a.5.5,0,0,1,.116.633,2.723,2.723,0,1,0,4.374-.455.5.5,0,0,1-.017-.644Z" fill="none" stroke="#45413c" stroke-linecap="round" stroke-linejoin="round"></path><path d="M40.833,50.37a3,3,0,0,1-2.384-1.179,11.747,11.747,0,1,1,18.676,0,3,3,0,0,1-2.384,1.177Z" fill="none" stroke="#45413c" stroke-linecap="round" stroke-linejoin="round"></path><path d="M41.4,54.87c-.058,0-.117,0-.177-.007-5.592-.467-16.452-4.728-17.518-17.519a2.1,2.1,0,0,1,4.186-.349C28.927,49.4,41.065,50.631,41.58,50.678A2.1,2.1,0,0,1,41.4,54.87Z" fill="#c0dceb" stroke="#45413c" stroke-linecap="round" stroke-linejoin="round"></path><path d="M39.388 35.970 L56.188 35.970 L56.188 47.970 L39.388 47.970 Z" fill="#00b8f0"></path><path d="M46.588 47.97H48.988V50.37H46.588z" fill="#87898c" stroke="#45413c" stroke-linecap="round" stroke-linejoin="round"></path><path d="M41.1 50.37H54.476V65.282H41.1z" fill="#ffffff" stroke="#45413c" stroke-miterlimit="10"></path><path d="M54.476,65.282a6.688,6.688,0,0,1-13.376,0Z" fill="#ffffff" stroke="#45413c" stroke-miterlimit="10"></path><path d="M51.132,55.858a1.2,1.2,0,0,1-1.2,1.2H45.644a1.2,1.2,0,0,1-1.2-1.2V50.37h6.688Z" fill="#00b8f0"></path><path d="M32,88.749c0,2.131,2.16,1.929,4.825,1.929s4.824.2,4.824-1.929-2.16-3.86-4.824-3.86S32,86.617,32,88.749Z" fill="#656769" stroke="#45413c" stroke-linecap="round" stroke-linejoin="round"></path><path d="M24.548,41.786a3.956,3.956,0,0,1,3.017-1.393,4.005,4.005,0,0,1,.986.123" fill="none" stroke="#45413c" stroke-linecap="round" stroke-linejoin="round"></path><path d="M27.638,47.668a3.973,3.973,0,0,1,2.955-2.732" fill="none" stroke="#45413c" stroke-linecap="round" stroke-linejoin="round"></path><path d="M32.182,51.713a3.97,3.97,0,0,1,2.9-3.174" fill="none" stroke="#45413c" stroke-linecap="round" stroke-linejoin="round"></path><path d="M38.026,54.282a3.97,3.97,0,0,1,.482-4.261" fill="none" stroke="#45413c" stroke-linecap="round" stroke-linejoin="round"></path><path d="M57.678,52.524a3.969,3.969,0,0,1-1.91,3.758" fill="none" stroke="#45413c" stroke-linecap="round" stroke-linejoin="round"></path><path d="M40.335,47.48a2.4,2.4,0,0,1-.947-1.91v-7.2a2.4,2.4,0,0,1,2.4-2.4H51.856Z" fill="#4acfff"></path><path d="M39.388 35.970 L56.188 35.970 L56.188 47.970 L39.388 47.970 Z" fill="none" stroke="#45413c" stroke-linecap="round" stroke-linejoin="round"></path><path d="M45.388,43.22a1.251,1.251,0,0,1-1.238-1.08,1.126,1.126,0,0,1-1.162,1.08,1.252,1.252,0,0,1-1.25-1.25,2.45,2.45,0,0,1,4.9,0A1.252,1.252,0,0,1,45.388,43.22Z" fill="#ffffff" stroke="#009fd9" stroke-linecap="round" stroke-linejoin="round"></path><path d="M50.188,43.22a1.251,1.251,0,0,0,1.238-1.08,1.126,1.126,0,0,0,1.162,1.08,1.252,1.252,0,0,0,1.25-1.25,2.45,2.45,0,0,0-4.9,0A1.252,1.252,0,0,0,50.188,43.22Z" fill="#ffffff" stroke="#009fd9" stroke-linecap="round" stroke-linejoin="round"></path><path d="M27.784,19.347A1.127,1.127,0,0,0,28.932,20.7a25.071,25.071,0,0,1,5.948.414c3.574.753,8.442,4.267,12.019,5.02a22.559,22.559,0,0,0,7.286-.016,1.219,1.219,0,0,0,1.011-.955L58.678,8.62a1.22,1.22,0,0,0-1.337-1.461,21.178,21.178,0,0,1-6.428-.1c-3.577-.753-8.445-4.267-12.019-5.02a25.82,25.82,0,0,0-6.546-.383,1.124,1.124,0,0,0-1.029.892Z" fill="#ff6242"></path><path d="M30.522,6.339c6.546-.756,10.113,1.2,11.514,1.882,5.491,2.632,6.785,3.75,11.121,3.749a28.169,28.169,0,0,0,4.913-.455l.5-2.389a28.183,28.183,0,0,1-4.913.455c-4.31,0-5.6-1.1-11.121-3.748-1.4-.683-4.963-2.64-11.515-1.883Z" fill="#ffffff"></path><path d="M57.183,15.731a28.069,28.069,0,0,1-4.913.455c-8.817,0-10.832-6.994-22.635-5.631l.5-2.388c6.546-.756,10.113,1.2,11.514,1.882,5.492,2.632,6.785,3.75,11.122,3.749a28.313,28.313,0,0,0,4.913-.455Z" fill="#ffffff"></path><path d="M28.708,14.959c6.546-.756,10.113,1.2,11.514,1.883,5.492,2.631,6.785,3.749,11.122,3.748a28.164,28.164,0,0,0,4.912-.455l.5-2.389a28.183,28.183,0,0,1-4.913.455c-4.31,0-5.6-1.1-11.121-3.748-1.4-.682-4.963-2.64-11.514-1.883Z" fill="#ffffff"></path><path d="M55.369,24.351a28.11,28.11,0,0,1-4.913.456c-4.31,0-5.6-1.1-11.121-3.749-1.4-.682-4.963-2.639-11.514-1.882l.5-2.389c6.546-.756,10.113,1.2,11.514,1.882,5.492,2.632,6.785,3.75,11.122,3.749a28.3,28.3,0,0,0,4.913-.455Z" fill="#ffffff"></path><path d="M48.41,6.228a14.265,14.265,0,0,0,2.5.832" fill="#ffffff"></path><path d="M38.893,2.041a19.137,19.137,0,0,1,4.114,1.567" fill="#ffffff"></path><path d="M20.051,56.1a1,1,0,1,1-1.957-.411L29.362,2.138a1,1,0,1,1,1.957.412Z" fill="#c0dceb" stroke="#45413c" stroke-linecap="round" stroke-linejoin="round"></path><path d="M44.746,4.472l-1.557,7.4a1.126,1.126,0,0,1-1.595.779,18.969,18.969,0,0,0-11.958-2.1l1.685-8a1.12,1.12,0,0,1,1.027-.893,25.876,25.876,0,0,1,6.547.383A26.6,26.6,0,0,1,44.746,4.472Z" fill="#00b8f0"></path><path d="M27.784,19.347A1.127,1.127,0,0,0,28.932,20.7a25.071,25.071,0,0,1,5.948.414c3.574.753,8.442,4.267,12.019,5.02a22.559,22.559,0,0,0,7.286-.016,1.219,1.219,0,0,0,1.011-.955L58.678,8.62a1.22,1.22,0,0,0-1.337-1.461,21.178,21.178,0,0,1-6.428-.1c-3.577-.753-8.445-4.267-12.019-5.02a25.82,25.82,0,0,0-6.546-.383,1.124,1.124,0,0,0-1.029.892Z" fill="none" stroke="#45413c" stroke-linecap="round" stroke-linejoin="round"></path><path d="M45,56.869a1.2,1.2,0,0,1-.553-1.011V50.37h5.744Z" fill="#4acfff"></path><path d="M51.132,55.858a1.2,1.2,0,0,1-1.2,1.2H45.644a1.2,1.2,0,0,1-1.2-1.2V50.37h6.688Z" fill="none" stroke="#45413c" stroke-linecap="round" stroke-linejoin="round"></path></g></svg>