<svg xmlns="http://www.w3.org/2000/svg" version="1.1" xmlns:xlink="http://www.w3.org/1999/xlink" xmlns:svgjs="http://svgjs.com/svgjs" viewBox="0 0 200 200" width="200" height="200"><g transform="matrix(2,0,0,2,0,0)"><path d="M90,53.486a40,40,0,1,0-76.436,16.5H86.436A39.825,39.825,0,0,0,90,53.486Z" fill="#c7f0ff"></path><path d="M13.564,69.986a40,40,0,0,0,72.872,0Z" fill="#e8f4fa"></path><path d="M11 69.986L89 69.986" fill="none" stroke="#45413c" stroke-linecap="round" stroke-linejoin="round"></path><path d="M6.5 69.986L9 69.986" fill="none" stroke="#45413c" stroke-linecap="round" stroke-linejoin="round"></path><path d="M91 69.986L93.5 69.986" fill="none" stroke="#45413c" stroke-linecap="round" stroke-linejoin="round"></path><path d="M75.169,83.4c0,1.259-11.072,2.28-26.6,2.28S25,84.662,25,83.4s8.031-2.281,23.563-2.281S75.169,82.143,75.169,83.4Z" fill="#45413c" opacity=".15"></path><path d="M47.426 34.709H52.576V38.968H47.426z" fill="#daedf7"></path><path d="M47.426 34.709H52.576V36.393H47.426z" fill="#c0dceb"></path><path d="M47.426 34.709H52.576V38.968H47.426z" fill="none" stroke="#45413c" stroke-linecap="round" stroke-linejoin="round"></path><path d="M39.701 38.967 L60.300 38.967 L60.300 58.279 L39.701 58.279 Z" fill="#ffffff" stroke="#45413c" stroke-linecap="round" stroke-linejoin="round"></path><path d="M46.138 58.279H53.863V64.836H46.138z" fill="#daedf7"></path><path d="M46.138 58.279H53.863V60.974000000000004H46.138z" fill="#c0dceb"></path><path d="M46.138 58.279H53.863V64.836H46.138z" fill="none" stroke="#45413c" stroke-linecap="round" stroke-linejoin="round"></path><path d="M55.15,47.979a2.575,2.575,0,0,1-2.575,2.575H47.426a2.574,2.574,0,0,1-2.575-2.575V38.967h10.3Z" fill="#e8f4fa"></path><path d="M55.15,47.979a2.575,2.575,0,0,1-2.575,2.575H47.426a2.574,2.574,0,0,1-2.575-2.575V38.967h10.3Z" fill="none" stroke="#45413c" stroke-linecap="round" stroke-linejoin="round"></path><path d="M57.371,64.836A2.576,2.576,0,0,1,59.8,68.27a10.3,10.3,0,0,1-19.427,0A2.575,2.575,0,0,1,42.8,64.836Z" fill="#f0f0f0" stroke="#45413c" stroke-linecap="round" stroke-linejoin="round"></path><path d="M20.938 45.818H40.25V50.967999999999996H20.938z" fill="#ffffff" stroke="#45413c" stroke-linecap="round" stroke-linejoin="round" transform="translate(-25.831 38.69) rotate(-47.941)"></path><path d="M39.7,47.979h-5.15a3.862,3.862,0,0,1-3.862-3.862V42.83a3.863,3.863,0,0,1,3.862-3.863h2.575A2.575,2.575,0,0,1,39.7,41.542Z" fill="#ffffff" stroke="#45413c" stroke-linecap="round" stroke-linejoin="round"></path><path d="M26.406 55.243H31.555999999999997V69.45100000000001H26.406z" fill="#f0f0f0" stroke="#45413c" stroke-linecap="round" stroke-linejoin="round" transform="translate(-35.372 38.145) rotate(-44.459)"></path><path d="M40.933,78.42a.644.644,0,0,1-.632.719,6.759,6.759,0,1,1,6.516-8.249.644.644,0,0,1-.553.781l-1.933.227a.643.643,0,0,1-.7-.466,3.541,3.541,0,1,0-3.545,4.486.643.643,0,0,1,.615.569Z" fill="#656769"></path><path d="M40.933,78.42a.644.644,0,0,1-.632.719,6.759,6.759,0,1,1,6.516-8.249.644.644,0,0,1-.553.781l-1.933.227a.643.643,0,0,1-.7-.466,3.541,3.541,0,1,0-3.545,4.486.643.643,0,0,1,.615.569Z" fill="none" stroke="#45413c" stroke-linecap="round" stroke-linejoin="round"></path><path d="M31.087 68.994 A3.862 3.862 0 1 0 38.811 68.994 A3.862 3.862 0 1 0 31.087 68.994 Z" fill="#f0f0f0" stroke="#45413c" stroke-linecap="round" stroke-linejoin="round"></path><path d="M19.383 56.909 A4.674 4.674 0 1 0 28.731 56.909 A4.674 4.674 0 1 0 19.383 56.909 Z" fill="#ffffff" stroke="#45413c" stroke-linecap="round" stroke-linejoin="round"></path><path d="M66.832 38.738H71.982V58.05H66.832z" fill="#ffffff" stroke="#45413c" stroke-linecap="round" stroke-linejoin="round" transform="translate(-14.543 58.959) rotate(-42.059)"></path><path d="M60.3,47.979h5.15a3.862,3.862,0,0,0,3.862-3.862V42.83a3.863,3.863,0,0,0-3.862-3.863H62.875A2.575,2.575,0,0,0,60.3,41.542Z" fill="#ffffff" stroke="#45413c" stroke-linecap="round" stroke-linejoin="round"></path><path d="M63.916 59.772H78.124V64.922H63.916z" fill="#f0f0f0" stroke="#45413c" stroke-linecap="round" stroke-linejoin="round" transform="translate(-23.222 69.369) rotate(-45.541)"></path><path d="M59.068,78.42a.644.644,0,0,0,.632.719,6.759,6.759,0,1,0-6.517-8.249.645.645,0,0,0,.553.781l1.934.227a.644.644,0,0,0,.7-.466,3.541,3.541,0,1,1,3.544,4.486.643.643,0,0,0-.614.569Z" fill="#656769"></path><path d="M59.068,78.42a.644.644,0,0,0,.632.719,6.759,6.759,0,1,0-6.517-8.249.645.645,0,0,0,.553.781l1.934.227a.644.644,0,0,0,.7-.466,3.541,3.541,0,1,1,3.544,4.486.643.643,0,0,0-.614.569Z" fill="none" stroke="#45413c" stroke-linecap="round" stroke-linejoin="round"></path><path d="M61.190 68.994 A3.862 3.862 0 1 0 68.914 68.994 A3.862 3.862 0 1 0 61.190 68.994 Z" fill="#f0f0f0" stroke="#45413c" stroke-linecap="round" stroke-linejoin="round"></path><path d="M71.270 56.909 A4.674 4.674 0 1 0 80.618 56.909 A4.674 4.674 0 1 0 71.270 56.909 Z" fill="#ffffff" stroke="#45413c" stroke-linecap="round" stroke-linejoin="round"></path><path d="M32.059 6.514 L67.942 6.514 L67.942 34.708 L32.059 34.708 Z" fill="#009fd9"></path><path d="M36.378,34.707l28.1-28.093a4.359,4.359,0,0,0-.927-.1H36.459a4.4,4.4,0,0,0-4.4,4.4V30.308A4.4,4.4,0,0,0,36.378,34.707Z" fill="#00b8f0"></path><path d="M32.059 6.514 L67.942 6.514 L67.942 34.708 L32.059 34.708 Z" fill="none" stroke="#45413c" stroke-linecap="round" stroke-linejoin="round"></path><path d="M35.594 9.379 L58.518 9.379 L58.518 31.523 L35.594 31.523 Z" fill="#b8ecff" stroke="#45413c" stroke-linecap="round" stroke-linejoin="round"></path><path d="M65.3,15.476H61.448V12.625a1,1,0,0,1,1-1H64.3a1,1,0,0,1,1,1Z" fill="#ff4064" stroke="#45413c" stroke-linecap="round" stroke-linejoin="round"></path><path d="M61.448 15.476H65.299V19.327H61.448z" fill="#ffb700" stroke="#45413c" stroke-linecap="round" stroke-linejoin="round"></path><path d="M61.448 19.328H65.299V23.179H61.448z" fill="#48cf3e" stroke="#45413c" stroke-linecap="round" stroke-linejoin="round"></path><path d="M64.3,27.03H62.448a1,1,0,0,1-1-1V23.179H65.3V26.03A1,1,0,0,1,64.3,27.03Z" fill="#00aed9" stroke="#45413c" stroke-linecap="round" stroke-linejoin="round"></path><path d="M40.7,15.137a6.337,6.337,0,1,0,12.673,0" fill="none" stroke="#45413c" stroke-linecap="round" stroke-linejoin="round"></path><path d="M40.422 22.948L53.654 22.948" fill="none" stroke="#45413c" stroke-linecap="round" stroke-linejoin="round"></path><path d="M48.513,21.474H45.564v1.948a1,1,0,0,0,1,1h.949a1,1,0,0,0,1-1Z" fill="#b8ecff" stroke="#45413c" stroke-linecap="round" stroke-linejoin="round"></path><path d="M39.010 22.948 A1.544 1.544 0 1 0 42.098 22.948 A1.544 1.544 0 1 0 39.010 22.948 Z" fill="#ffffff" stroke="#45413c" stroke-linecap="round" stroke-linejoin="round"></path><path d="M52.242 22.948 A1.544 1.544 0 1 0 55.330 22.948 A1.544 1.544 0 1 0 52.242 22.948 Z" fill="#ffffff" stroke="#45413c" stroke-linecap="round" stroke-linejoin="round"></path><path d="M70.128,81.883H30.021a2,2,0,0,1-2-2v-1.8H72.128v1.8A2,2,0,0,1,70.128,81.883Z" fill="#adc4d9" stroke="#45413c" stroke-linecap="round" stroke-linejoin="round"></path><path d="M72.128,78.082H28.021L25.784,57.925A3.041,3.041,0,0,1,28.8,54.519H71.368a3.039,3.039,0,0,1,3.018,3.406Z" fill="#c0dceb"></path><path d="M26.113,60.882a2.786,2.786,0,0,1,.414-.778A3.039,3.039,0,0,1,28.8,59.08H71.368A3.037,3.037,0,0,1,73.643,60.1a2.778,2.778,0,0,1,.412.773l.331-2.952a3.041,3.041,0,0,0-3.018-3.406H28.8a3.039,3.039,0,0,0-3.018,3.406Z" fill="#daedf7"></path><path d="M72.128,78.082H28.021L25.784,57.925A3.041,3.041,0,0,1,28.8,54.519H71.368a3.039,3.039,0,0,1,3.018,3.406Z" fill="none" stroke="#45413c" stroke-linecap="round" stroke-linejoin="round"></path><path d="M52.529,66.47a2.339,2.339,0,0,1,1.117-1.97,2.419,2.419,0,0,0-1.892-1.024c-.8-.082-1.571.474-1.98.474s-1.039-.462-1.706-.451a2.536,2.536,0,0,0-2.141,1.3c-.912,1.583-.232,3.928.657,5.212.433.628.952,1.333,1.632,1.307.655-.025.9-.423,1.694-.423s1.014.423,1.707.411,1.152-.64,1.583-1.271a5.672,5.672,0,0,0,.716-1.471A2.281,2.281,0,0,1,52.529,66.47Z" fill="#f0f0f0" stroke="#45413c" stroke-linecap="round" stroke-linejoin="round"></path><path d="M50.758 60.789L51.707 59.84" fill="none" stroke="#45413c" stroke-linecap="round" stroke-linejoin="round"></path></g></svg>