<svg xmlns="http://www.w3.org/2000/svg" version="1.1" xmlns:xlink="http://www.w3.org/1999/xlink" xmlns:svgjs="http://svgjs.com/svgjs" viewBox="0 0 200 200" width="200" height="200"><g transform="matrix(2,0,0,2,0,0)"><path d="M10.000 53.348 A40.000 40.000 0 1 0 90.000 53.348 A40.000 40.000 0 1 0 10.000 53.348 Z" fill="#e8f4fa" stroke="#daedf7" stroke-linecap="round" stroke-linejoin="round"></path><path d="M33.354 89.325 A16.646 2.219 0 1 0 66.646 89.325 A16.646 2.219 0 1 0 33.354 89.325 Z" fill="#45413c" opacity=".15"></path><path d="M35.959,42.763l-8.936-1.577a8.865,8.865,0,0,1-6.539-12.352l-4.153-1.57a13.3,13.3,0,0,0,9.921,18.293l8.935,1.576a2.219,2.219,0,1,0,.772-4.37Z" fill="#c0dceb" stroke="#45413c" stroke-linecap="round" stroke-linejoin="round"></path><path d="M27.8,22.526a2.018,2.018,0,0,0-1.544,1.935,3.884,3.884,0,1,1-3.938-3.938,1.977,1.977,0,0,0,1.586-3.155,1.877,1.877,0,0,0-1.481-.729h-.053a7.767,7.767,0,1,0,7.77,7.717A1.9,1.9,0,0,0,27.8,22.526Z" fill="#ffffff" stroke="#45413c" stroke-linecap="round" stroke-linejoin="round"></path><path d="M24.984 40.567L23.063 44.571" fill="none" stroke="#45413c" stroke-miterlimit="10"></path><path d="M28.916 41.52L28.092 45.881" fill="none" stroke="#45413c" stroke-miterlimit="10"></path><path d="M22.158 38.58L19.041 41.743" fill="none" stroke="#45413c" stroke-miterlimit="10"></path><path d="M20.292 35.637L16.221 37.412" fill="none" stroke="#45413c" stroke-miterlimit="10"></path><path d="M15.301 33.285L19.746 33.285" fill="none" stroke="#45413c" stroke-miterlimit="10"></path><path d="M64.041,42.763l8.936-1.577a8.865,8.865,0,0,0,6.539-12.352l4.153-1.57a13.3,13.3,0,0,1-9.921,18.293l-8.935,1.576a2.219,2.219,0,1,1-.772-4.37Z" fill="#c0dceb" stroke="#45413c" stroke-linecap="round" stroke-linejoin="round"></path><path d="M72.2,22.526a2.018,2.018,0,0,1,1.544,1.935,3.884,3.884,0,1,0,3.938-3.938A1.977,1.977,0,0,1,76.1,17.368a1.877,1.877,0,0,1,1.481-.729h.053a7.767,7.767,0,1,1-7.77,7.717A1.9,1.9,0,0,1,72.2,22.526Z" fill="#ffffff" stroke="#45413c" stroke-linecap="round" stroke-linejoin="round"></path><path d="M75.016 40.567L76.937 44.571" fill="none" stroke="#45413c" stroke-miterlimit="10"></path><path d="M71.084 41.52L71.908 45.881" fill="none" stroke="#45413c" stroke-miterlimit="10"></path><path d="M77.842 38.58L80.959 41.743" fill="none" stroke="#45413c" stroke-miterlimit="10"></path><path d="M79.708 35.637L83.779 37.412" fill="none" stroke="#45413c" stroke-miterlimit="10"></path><path d="M84.699 33.285L80.254 33.285" fill="none" stroke="#45413c" stroke-miterlimit="10"></path><path d="M32.245 36.614 L67.756 36.614 L67.756 65.466 L32.245 65.466 Z" fill="#00b8f0"></path><path d="M63.316,36.614H36.684a4.438,4.438,0,0,0-4.439,4.439v2.774a4.438,4.438,0,0,1,4.439-4.439H63.316a4.438,4.438,0,0,1,4.439,4.439V41.053A4.438,4.438,0,0,0,63.316,36.614Z" fill="#4acfff"></path><path d="M32.245 36.614 L67.756 36.614 L67.756 65.466 L32.245 65.466 Z" fill="none" stroke="#45413c" stroke-linecap="round" stroke-linejoin="round"></path><path d="M60.542,36.614H39.458V17.53a2,2,0,0,1,2-2H58.542a2,2,0,0,1,2,2Z" fill="#00b8f0"></path><path d="M58.323,15.53H41.677a2.218,2.218,0,0,0-2.219,2.219v1.664a2.219,2.219,0,0,1,2.219-2.219H58.323a2.219,2.219,0,0,1,2.219,2.219V17.749A2.218,2.218,0,0,0,58.323,15.53Z" fill="#4acfff"></path><path d="M60.542,36.614H39.458V17.53a2,2,0,0,1,2-2H58.542a2,2,0,0,1,2,2Z" fill="none" stroke="#45413c" stroke-linecap="round" stroke-linejoin="round"></path><path d="M56.1,15.53H43.9L44.763,8.6a2.219,2.219,0,0,1,2.2-1.944h6.068a2.219,2.219,0,0,1,2.2,1.944Z" fill="#ff6242"></path><path d="M47.75,9.426h4.5a4.438,4.438,0,0,1,3.27,1.437L55.237,8.6a2.219,2.219,0,0,0-2.2-1.944H46.966a2.219,2.219,0,0,0-2.2,1.944l-.283,2.267A4.438,4.438,0,0,1,47.75,9.426Z" fill="#ff866e"></path><path d="M56.1,15.53H43.9L44.763,8.6a2.219,2.219,0,0,1,2.2-1.944h6.068a2.219,2.219,0,0,1,2.2,1.944Z" fill="none" stroke="#45413c" stroke-linejoin="round"></path><path d="M41.677 29.401 L58.323 29.401 L58.323 33.840 L41.677 33.840 Z" fill="#c0dceb"></path><path d="M57.213,29.4H42.787a1.11,1.11,0,0,0-1.11,1.11v1.664a1.11,1.11,0,0,1,1.11-1.11H57.213a1.11,1.11,0,0,1,1.11,1.11V30.511A1.11,1.11,0,0,0,57.213,29.4Z" fill="#adc4d9"></path><path d="M41.677 29.401 L58.323 29.401 L58.323 33.840 L41.677 33.840 Z" fill="none" stroke="#45413c" stroke-linecap="round" stroke-linejoin="round"></path><path d="M45.006 29.401L45.006 33.84" fill="none" stroke="#45413c" stroke-linecap="round" stroke-linejoin="round"></path><path d="M48.335 29.401L48.335 33.84" fill="none" stroke="#45413c" stroke-linecap="round" stroke-linejoin="round"></path><path d="M51.665 29.401L51.665 33.84" fill="none" stroke="#45413c" stroke-linecap="round" stroke-linejoin="round"></path><path d="M54.994 29.401L54.994 33.84" fill="none" stroke="#45413c" stroke-linecap="round" stroke-linejoin="round"></path><path d="M39.458,28.846H38.9a3.884,3.884,0,0,1,0-7.768h.555Z" fill="#daedf7"></path><path d="M38.9,21.078a3.887,3.887,0,0,0-3.723,4.994A3.886,3.886,0,0,1,38.9,23.3h.555V21.078Z" fill="#ffffff"></path><path d="M39.458,28.846H38.9a3.884,3.884,0,0,1,0-7.768h.555Z" fill="none" stroke="#45413c" stroke-linecap="round" stroke-linejoin="round"></path><path d="M60.542,28.846H61.1a3.884,3.884,0,0,0,0-7.768h-.555Z" fill="#daedf7"></path><path d="M61.1,21.078a3.887,3.887,0,0,1,3.723,4.994A3.886,3.886,0,0,0,61.1,23.3h-.555V21.078Z" fill="#ffffff"></path><path d="M60.542,28.846H61.1a3.884,3.884,0,0,0,0-7.768h-.555Z" fill="none" stroke="#45413c" stroke-linecap="round" stroke-linejoin="round"></path><path d="M42.232 24.407 A2.219 2.219 0 1 0 46.670 24.407 A2.219 2.219 0 1 0 42.232 24.407 Z" fill="#ebcb00"></path><path d="M42.882,25.977a2.22,2.22,0,1,1,3.139-3.139Z" fill="#ffe500"></path><path d="M42.232 24.407 A2.219 2.219 0 1 0 46.670 24.407 A2.219 2.219 0 1 0 42.232 24.407 Z" fill="none" stroke="#45413c" stroke-linejoin="round"></path><path d="M53.330 24.407 A2.219 2.219 0 1 0 57.768 24.407 A2.219 2.219 0 1 0 53.330 24.407 Z" fill="#ebcb00"></path><path d="M53.979,25.977a2.22,2.22,0,0,1,3.139-3.139Z" fill="#ffe500"></path><path d="M53.330 24.407 A2.219 2.219 0 1 0 57.768 24.407 A2.219 2.219 0 1 0 53.330 24.407 Z" fill="none" stroke="#45413c" stroke-linejoin="round"></path><path d="M55.549,17.749A6.652,6.652,0,0,0,50,20.726a6.652,6.652,0,0,0-5.549-2.977H42.787a1.11,1.11,0,1,0,0,2.219h1.664a4.439,4.439,0,0,1,4.439,4.439v1.11a1.11,1.11,0,0,0,2.22,0v-1.11a4.439,4.439,0,0,1,4.439-4.439h1.664a1.11,1.11,0,1,0,0-2.219Z" fill="#bdbec0"></path><path d="M55.549,17.749A6.652,6.652,0,0,0,50,20.726a6.652,6.652,0,0,0-5.549-2.977H42.787a1.11,1.11,0,1,0,0,2.219h1.664a4.439,4.439,0,0,1,4.439,4.439v1.11a1.11,1.11,0,0,0,2.22,0v-1.11a4.439,4.439,0,0,1,4.439-4.439h1.664a1.11,1.11,0,1,0,0-2.219Z" fill="none" stroke="#45413c" stroke-linecap="round" stroke-linejoin="round"></path><path d="M50,42.162A20.443,20.443,0,0,0,36.768,47a1.11,1.11,0,0,0-.092,1.611l5.353,5.659a1.11,1.11,0,0,0,1.488.113,10.542,10.542,0,0,1,12.966,0,1.108,1.108,0,0,0,1.488-.113l5.352-5.658A1.111,1.111,0,0,0,63.233,47,20.446,20.446,0,0,0,50,42.162Z" fill="#ffe500"></path><path d="M37.417,49.39a18.312,18.312,0,0,1,25.166,0l.74-.782A1.111,1.111,0,0,0,63.233,47a20.528,20.528,0,0,0-26.465,0,1.11,1.11,0,0,0-.092,1.611Z" fill="#ebcb00"></path><path d="M50,42.162A20.443,20.443,0,0,0,36.768,47a1.11,1.11,0,0,0-.092,1.611l5.353,5.659a1.11,1.11,0,0,0,1.488.113,10.542,10.542,0,0,1,12.966,0,1.108,1.108,0,0,0,1.488-.113l5.352-5.658A1.111,1.111,0,0,0,63.233,47,20.446,20.446,0,0,0,50,42.162Z" fill="none" stroke="#45413c" stroke-linejoin="round"></path><path d="M50 45.492L50 48.821" fill="none" stroke="#ffffff" stroke-linecap="round" stroke-linejoin="round"></path><path d="M45.666 46.046L46.505 49.268" fill="none" stroke="#ffffff" stroke-linecap="round" stroke-linejoin="round"></path><path d="M41.613 47.675L43.236 50.582" fill="none" stroke="#ffffff" stroke-linecap="round" stroke-linejoin="round"></path><path d="M54.334 46.046L53.495 49.268" fill="none" stroke="#ffffff" stroke-linecap="round" stroke-linejoin="round"></path><path d="M58.387 47.675L56.764 50.582" fill="none" stroke="#ffffff" stroke-linecap="round" stroke-linejoin="round"></path><path d="M54.439,60.473a1.664,1.664,0,0,1-1.665,1.664H47.226a1.665,1.665,0,1,1,0-3.329h5.548A1.664,1.664,0,0,1,54.439,60.473Z" fill="#bdbec0"></path><path d="M47.226,60.473h5.548a1.663,1.663,0,0,1,1.442.832,1.665,1.665,0,0,0-1.442-2.5H47.226a1.665,1.665,0,0,0-1.442,2.5A1.663,1.663,0,0,1,47.226,60.473Z" fill="#f0f0f0"></path><path d="M54.439,60.473a1.664,1.664,0,0,1-1.665,1.664H47.226a1.665,1.665,0,1,1,0-3.329h5.548A1.664,1.664,0,0,1,54.439,60.473Z" fill="none" stroke="#45413c" stroke-linecap="round" stroke-linejoin="round"></path><path d="M43.9,73.789H38.348L36.9,69.916a3.313,3.313,0,0,1-.212-1.169V65.466h8.877v3.281a3.335,3.335,0,0,1-.212,1.169Z" fill="#00b8f0"></path><path d="M36.684 65.466H45.562V67.68499999999999H36.684z" fill="#009fd9"></path><path d="M43.9,73.789H38.348L36.9,69.916a3.313,3.313,0,0,1-.212-1.169V65.466h8.877v3.281a3.335,3.335,0,0,1-.212,1.169Z" fill="none" stroke="#45413c" stroke-linecap="round" stroke-linejoin="round"></path><path d="M43.9,73.789H38.348L36.9,77.662a3.313,3.313,0,0,0-.212,1.169v3.281h8.877V78.831a3.335,3.335,0,0,0-.212-1.169Z" fill="#00b8f0"></path><path d="M45.349,77.662,43.9,73.789H38.348L36.9,77.662a3.481,3.481,0,0,0-.124.408,6.1,6.1,0,0,0,8.7,0A3.3,3.3,0,0,0,45.349,77.662Z" fill="#009fd9"></path><path d="M43.9,73.789H38.348L36.9,77.662a3.313,3.313,0,0,0-.212,1.169v3.281h8.877V78.831a3.335,3.335,0,0,0-.212-1.169Z" fill="none" stroke="#45413c" stroke-linecap="round" stroke-linejoin="round"></path><path d="M46.781,88.77H35.464a1,1,0,0,1-1-1V84.112a2,2,0,0,1,2-2h9.317a2,2,0,0,1,2,2V87.77A1,1,0,0,1,46.781,88.77Z" fill="#ff6242"></path><path d="M47.781,84.331a2.22,2.22,0,0,0-2.22-2.219H36.684a2.22,2.22,0,0,0-2.22,2.219v2.22a2.22,2.22,0,0,1,2.22-2.22h8.877a2.22,2.22,0,0,1,2.22,2.22Z" fill="#ff866e"></path><path d="M46.781,88.77H35.464a1,1,0,0,1-1-1V84.112a2,2,0,0,1,2-2h9.317a2,2,0,0,1,2,2V87.77A1,1,0,0,1,46.781,88.77Z" fill="none" stroke="#45413c" stroke-linejoin="round"></path><path d="M36.683 73.789 A4.439 4.439 0 1 0 45.561 73.789 A4.439 4.439 0 1 0 36.683 73.789 Z" fill="#ff6242"></path><path d="M41.122,71.57a4.439,4.439,0,0,1,4.3,3.329,4.439,4.439,0,1,0-8.737-1.11,4.465,4.465,0,0,0,.139,1.11A4.441,4.441,0,0,1,41.122,71.57Z" fill="#ff866e"></path><path d="M36.683 73.789 A4.439 4.439 0 1 0 45.561 73.789 A4.439 4.439 0 1 0 36.683 73.789 Z" fill="none" stroke="#45413c" stroke-linejoin="round"></path><path d="M56.1,73.789h5.549L63.1,69.916a3.313,3.313,0,0,0,.212-1.169V65.466H54.439v3.281a3.335,3.335,0,0,0,.212,1.169Z" fill="#00b8f0"></path><path d="M54.439 65.466H63.317V67.68499999999999H54.439z" fill="#009fd9"></path><path d="M56.1,73.789h5.549L63.1,69.916a3.313,3.313,0,0,0,.212-1.169V65.466H54.439v3.281a3.335,3.335,0,0,0,.212,1.169Z" fill="none" stroke="#45413c" stroke-linecap="round" stroke-linejoin="round"></path><path d="M56.1,73.789h5.549L63.1,77.662a3.313,3.313,0,0,1,.212,1.169v3.281H54.439V78.831a3.335,3.335,0,0,1,.212-1.169Z" fill="#00b8f0"></path><path d="M54.651,77.662,56.1,73.789h5.549L63.1,77.662a3.481,3.481,0,0,1,.124.408,6.1,6.1,0,0,1-8.7,0A3.3,3.3,0,0,1,54.651,77.662Z" fill="#009fd9"></path><path d="M56.1,73.789h5.549L63.1,77.662a3.313,3.313,0,0,1,.212,1.169v3.281H54.439V78.831a3.335,3.335,0,0,1,.212-1.169Z" fill="none" stroke="#45413c" stroke-linecap="round" stroke-linejoin="round"></path><path d="M53.219,88.77H64.536a1,1,0,0,0,1-1V84.112a2,2,0,0,0-2-2H54.219a2,2,0,0,0-2,2V87.77A1,1,0,0,0,53.219,88.77Z" fill="#ff6242"></path><path d="M54.439,82.112h8.877a2.22,2.22,0,0,1,2.22,2.219v2.22a2.22,2.22,0,0,0-2.22-2.22H54.439a2.22,2.22,0,0,0-2.22,2.22v-2.22A2.22,2.22,0,0,1,54.439,82.112Z" fill="#ff866e"></path><path d="M53.219,88.77H64.536a1,1,0,0,0,1-1V84.112a2,2,0,0,0-2-2H54.219a2,2,0,0,0-2,2V87.77A1,1,0,0,0,53.219,88.77Z" fill="none" stroke="#45413c" stroke-linejoin="round"></path><path d="M54.439 73.789 A4.439 4.439 0 1 0 63.317 73.789 A4.439 4.439 0 1 0 54.439 73.789 Z" fill="#ff6242"></path><path d="M58.878,71.57a4.439,4.439,0,0,0-4.3,3.329,4.439,4.439,0,1,1,8.737-1.11,4.465,4.465,0,0,1-.139,1.11A4.441,4.441,0,0,0,58.878,71.57Z" fill="#ff866e"></path><path d="M54.439 73.789 A4.439 4.439 0 1 0 63.317 73.789 A4.439 4.439 0 1 0 54.439 73.789 Z" fill="none" stroke="#45413c" stroke-linejoin="round"></path></g></svg>