<svg xmlns="http://www.w3.org/2000/svg" version="1.1" xmlns:xlink="http://www.w3.org/1999/xlink" xmlns:svgjs="http://svgjs.com/svgjs" viewBox="0 0 200 200" width="200" height="200"><g transform="matrix(2,0,0,2,0,0)"><path d="M12.278 49.147 A40.000 40.000 0 1 0 92.278 49.147 A40.000 40.000 0 1 0 12.278 49.147 Z" fill="#e8f4fa" stroke="#daedf7" stroke-miterlimit="10"></path><path d="M75.206,61.341l-1.228-5.665a1.8,1.8,0,0,1,1.839-2.18l4.862.213A1.8,1.8,0,0,1,82.4,55.587l-.293,6.686a1.818,1.818,0,0,0-1.431-.812l-4.855-.206A1.433,1.433,0,0,0,75.206,61.341Z" fill="#ffffff"></path><path d="M27.885,39.4a1.8,1.8,0,0,1,2.546.071l3.343,3.537a1.8,1.8,0,0,1-.446,2.817L16.545,54.994a1.8,1.8,0,0,1-2.1-2.888Z" fill="#f0f0f0"></path><path d="M19.147,47.662,27.885,39.4a1.8,1.8,0,0,1,2.546.071l1.488,1.575Z" fill="#ffffff"></path><path d="M72.625,40.8A18.7,18.7,0,1,1,35.4,37.166Z" fill="#ffffff"></path><path d="M35.4,37.166A18.7,18.7,0,1,0,72.625,40.8l-1.185-.115V40.68a18.7,18.7,0,0,1-35.826-3.493" fill="#f0f0f0"></path><path d="M72.625,40.8,35.4,37.166A18.7,18.7,0,0,1,72.625,40.8Z" fill="#4acfff"></path><path d="M40.485,37.663a13.6,13.6,0,1,1,27.063,2.644Z" fill="#00b8f0"></path><path d="M71.781 44.832L35.459 41.282" fill="none" stroke="#bdbec0" stroke-miterlimit="10"></path><path d="M72.625,40.8A18.7,18.7,0,1,1,35.4,37.166Z" fill="none" stroke="#45413c" stroke-linecap="round" stroke-linejoin="round"></path><path d="M72.625,40.8,35.4,37.166A18.7,18.7,0,0,1,72.625,40.8Z" fill="none" stroke="#45413c" stroke-linecap="round" stroke-linejoin="round"></path><path d="M58.518,34.064A1.523,1.523,0,0,1,57.152,32.4a2.526,2.526,0,0,0-.3-1.526c-.076-.125-.279-.416-.545-.442h0c-.443,0-1.093.63-1.2,1.768A1.514,1.514,0,0,1,53.6,33.576c-.051,0-.1,0-.155-.008a1.522,1.522,0,0,1-1.366-1.663c.252-2.576,2.051-4.518,4.185-4.518.115,0,.23,0,.346.016a3.8,3.8,0,0,1,2.85,1.891,5.542,5.542,0,0,1,.724,3.4,1.516,1.516,0,0,1-1.514,1.374Z" fill="#ffffff" stroke="#009fd9" stroke-miterlimit="10"></path><path d="M48.339,33.15a1.521,1.521,0,0,1-1.366-1.662,2.519,2.519,0,0,0-.3-1.526c-.075-.125-.279-.416-.544-.442h0c-.444,0-1.093.63-1.2,1.768a1.514,1.514,0,0,1-1.509,1.375c-.051,0-.1,0-.155-.008A1.522,1.522,0,0,1,41.9,30.992c.252-2.576,2.051-4.519,4.185-4.519.115,0,.23.006.346.017a3.8,3.8,0,0,1,2.85,1.89,5.545,5.545,0,0,1,.724,3.4,1.517,1.517,0,0,1-1.514,1.374Z" fill="#ffffff" stroke="#009fd9" stroke-miterlimit="10"></path><path d="M74.017 55.855L67.722 51.708" fill="none" stroke="#45413c" stroke-linecap="round" stroke-linejoin="round"></path><path d="M31.659 46.74L38.392 49.265" fill="none" stroke="#45413c" stroke-linecap="round" stroke-linejoin="round"></path><path d="M45.616,48.646a3.887,3.887,0,0,1,3.532-4.794l2.389-.151a3.886,3.886,0,0,1,4.107,4.311L53.652,65.8a1.943,1.943,0,0,1-3.819.242Z" fill="#ffffff"></path><path d="M27.885,39.4a1.8,1.8,0,0,1,2.546.071l3.343,3.537a1.8,1.8,0,0,1-.446,2.817L16.545,54.994a1.8,1.8,0,0,1-2.1-2.888Z" fill="none" stroke="#45413c" stroke-linecap="round" stroke-linejoin="round"></path><path d="M47.836,57.806l2,8.236a1.943,1.943,0,0,0,3.819-.242l.966-8.622a3.644,3.644,0,0,1-6.812.492" fill="#f0f0f0"></path><path d="M45.616,48.646a3.887,3.887,0,0,1,3.532-4.794l2.389-.151a3.886,3.886,0,0,1,4.107,4.311L53.652,65.8a1.943,1.943,0,0,1-3.819.242Z" fill="none" stroke="#45413c" stroke-linecap="round" stroke-linejoin="round"></path><path d="M15.813,55.583l18.423,8.106a5.006,5.006,0,0,1,1.783,1.323L39.863,69.5a5,5,0,0,0,3.588,1.742l20.972.874a4.993,4.993,0,0,1,1.649.353l7,2.8a5,5,0,0,0,4.285-.272L86.7,69.8a5.894,5.894,0,0,1,8.551,3.607l1.97,7.246-4.943,10.2L19.147,88.359,2.779,71.344l5.205-12.6A5.9,5.9,0,0,1,15.813,55.583Z" fill="#bf8256"></path><path d="M86.7,69.8l-9.344,5.191a5,5,0,0,1-4.285.271l-7-2.8a4.993,4.993,0,0,0-1.649-.353l-1.044-.044a.369.369,0,0,1-.177.143l.156-.144h0c-2.57,2.431-7.47,4.08-13.08,4.08-8.28,0-15-3.58-15-8a4.828,4.828,0,0,1,.988-2.847h0l-.246-.287a5.012,5.012,0,0,0-1.784-1.324L15.813,55.583a5.9,5.9,0,0,0-7.829,3.159l-.133.325,25.057,11.39a5.069,5.069,0,0,1,1.82,1.35l3.93,4.58a5.142,5.142,0,0,0,3.67,1.79l21.45.89a4.814,4.814,0,0,1,1.68.36l7.16,2.86a5.1,5.1,0,0,0,4.38-.28l18.253-8.6h0A5.894,5.894,0,0,0,86.7,69.8Z" fill="#dea47a"></path><path d="M2.779,71.344l5.205-12.6a5.9,5.9,0,0,1,7.829-3.159l18.423,8.106a5.006,5.006,0,0,1,1.783,1.323L39.863,69.5a5,5,0,0,0,3.588,1.742l20.972.874a4.993,4.993,0,0,1,1.649.353l7,2.8a5,5,0,0,0,4.285-.272L86.7,69.8a5.894,5.894,0,0,1,8.551,3.607l1.97,7.246-4.943,10.2" fill="none" stroke="#915e3a" stroke-linecap="round" stroke-linejoin="round"></path><path d="M82.4,56.2a1.8,1.8,0,0,0-1.719-1.878L75.817,54.1a1.8,1.8,0,0,0-1.839,2.181l4.051,18.688a1.8,1.8,0,0,0,3.558-.3Z" fill="#f0f0f0"></path><path d="M82.4,56.2a1.8,1.8,0,0,0-1.719-1.878L75.817,54.1a1.8,1.8,0,0,0-1.839,2.181l4.051,18.688a1.8,1.8,0,0,0,3.558-.3Z" fill="none" stroke="#45413c" stroke-linecap="round" stroke-linejoin="round"></path></g></svg>