<svg xmlns="http://www.w3.org/2000/svg" version="1.1" xmlns:xlink="http://www.w3.org/1999/xlink" xmlns:svgjs="http://svgjs.com/svgjs" viewBox="0 0 200 200" width="200" height="200"><g transform="matrix(2,0,0,2,0,0)"><path d="M91.084,66.5a40,40,0,1,0-72.9,0Z" fill="#c7f0ff"></path><path d="M18.186,66.5a40.017,40.017,0,0,0,72.9,0Z" fill="#e8f4fa"></path><path d="M15.635 66.5L93.635 66.5" fill="none" stroke="#45413c" stroke-linecap="round" stroke-linejoin="round"></path><path d="M11.135 66.5L13.635 66.5" fill="none" stroke="#45413c" stroke-linecap="round" stroke-linejoin="round"></path><path d="M95.635 66.5L98.135 66.5" fill="none" stroke="#45413c" stroke-linecap="round" stroke-linejoin="round"></path><path d="M59.337 78.470 A16.828 1.587 0 1 0 92.993 78.470 A16.828 1.587 0 1 0 59.337 78.470 Z" fill="#45413c" opacity=".15"></path><path d="M97.881,57.259,87.219,61.64a6.74,6.74,0,0,1-2.561.506H67.533a6.743,6.743,0,0,0-1.8.246l-11.57,3.214-.417-2.057a1.151,1.151,0,0,1,.8-1.332l11.141-3.26a6.761,6.761,0,0,1,1.892-.271H84.693a6.742,6.742,0,0,0,2.5-.48l6.432-2.567A3.366,3.366,0,0,1,97.881,57.259Z" fill="#00dba8" stroke="#45413c" stroke-linecap="round" stroke-linejoin="round"></path><path d="M98.6,58.739a1.383,1.383,0,0,1-.682,1.871l-9.933,4.415a6.739,6.739,0,0,1-2.737.581H68.225a6.7,6.7,0,0,0-1.8.246L56.287,68.667a1.385,1.385,0,0,1-1.728-1.062l-.4-2,11.57-3.214a6.743,6.743,0,0,1,1.8-.246H84.658a6.74,6.74,0,0,0,2.561-.506l10.662-4.381Z" fill="#e8f4fa" stroke="#45413c" stroke-linecap="round" stroke-linejoin="round"></path><path d="M81.145,76.883A1.15,1.15,0,0,1,80,78.033H72.608a1.15,1.15,0,0,1-1.15-1.15V70.23h9.687Z" fill="#f0f0f0"></path><path d="M71.458 70.23H81.145V72.498H71.458z" fill="#bdbec0"></path><path d="M81.145,76.883A1.15,1.15,0,0,1,80,78.033H72.608a1.15,1.15,0,0,1-1.15-1.15V70.23h9.687Z" fill="none" stroke="#45413c" stroke-linecap="round" stroke-linejoin="round"></path><path d="M75.146,71.806a1.038,1.038,0,0,0-1.038,1.037v2.076a1.038,1.038,0,1,0,2.076,0V72.843A1.038,1.038,0,0,0,75.146,71.806Z" fill="#6dd627" stroke="#45413c" stroke-linecap="round" stroke-linejoin="round"></path><path d="M82.07,67.93H70.532a1.15,1.15,0,1,0,0,2.3H82.07a1.15,1.15,0,1,0,0-2.3Z" fill="#627b8c" stroke="#45413c" stroke-linecap="round" stroke-linejoin="round"></path><path d="M82.07,65.63H70.532a1.15,1.15,0,1,0,0,2.3H82.07a1.15,1.15,0,0,0,0-2.3Z" fill="#627b8c" stroke="#45413c" stroke-linecap="round" stroke-linejoin="round"></path><path d="M33.801 31.919H73.299V40.269H33.801z" fill="#ffffff" stroke="#45413c" stroke-linecap="round" stroke-linejoin="round" transform="translate(0.123 72.369) rotate(-68.155)"></path><path d="M15.31 68.467L11.573 66.606 19.487 52.464 23.224 54.325 15.31 68.467z" fill="#ffffff" stroke="#45413c" stroke-linecap="round" stroke-linejoin="round"></path><path d="M20.465,59.255a3.479,3.479,0,0,1-3.611-1.468c-.065-.1-.125-.2-.179-.3l2.812-5.025,3.737,1.861Z" fill="#e0e0e0"></path><path d="M15.31 68.467L11.573 66.606 19.487 52.464 23.224 54.325 15.31 68.467z" fill="none" stroke="#45413c" stroke-linecap="round" stroke-linejoin="round"></path><path d="M87.339,17.763a4.175,4.175,0,0,1-4.175,4.175H60.9v-8.35H83.164a4.175,4.175,0,0,1,4.175,4.175Z" fill="#e8f4fa"></path><path d="M60.9,17.763H83.164a4.171,4.171,0,0,1,3.618,2.085,4.159,4.159,0,0,0,.557-2.085h0a4.175,4.175,0,0,0-4.175-4.175H60.9V18.02" fill="#ffffff"></path><path d="M17.956 53.201 A3.479 3.479 0 1 0 24.914 53.201 A3.479 3.479 0 1 0 17.956 53.201 Z" fill="#ffffff" stroke="#45413c" stroke-linecap="round" stroke-linejoin="round"></path><path d="M7.878,56.686h0a2.087,2.087,0,0,1,2.847.779L15.9,66.53,12.271,68.6,7.1,59.534A2.088,2.088,0,0,1,7.878,56.686Z" fill="#ffffff" stroke="#45413c" stroke-linecap="round" stroke-linejoin="round"></path><path d="M10.209 66.870 A3.479 3.479 0 1 0 17.167 66.870 A3.479 3.479 0 1 0 10.209 66.870 Z" fill="#ffffff" stroke="#45413c" stroke-linecap="round" stroke-linejoin="round"></path><path d="M19.348 82.305 A13.916 1.92 0 1 0 47.180 82.305 A13.916 1.92 0 1 0 19.348 82.305 Z" fill="#45413c" opacity=".15"></path><path d="M88.731 39.678L83.164 41.07" fill="none" stroke="#45413c" stroke-linecap="round" stroke-linejoin="round"></path><path d="M77.6,42.812h0a1.392,1.392,0,0,1-1.392-1.392V34.462h2.783V41.42A1.392,1.392,0,0,1,77.6,42.812Z" fill="#f0f0f0" stroke="#45413c" stroke-linecap="round" stroke-linejoin="round"></path><path d="M68.186,39.9h0a1.391,1.391,0,0,1-1.593,1.155L58.5,39.647,58.94,36.9l8.091,1.409A1.391,1.391,0,0,1,68.186,39.9Z" fill="#f0f0f0" stroke="#45413c" stroke-linecap="round" stroke-linejoin="round"></path><path d="M87.339,17.763a4.175,4.175,0,0,1-4.175,4.175H60.9v-8.35H83.164a4.175,4.175,0,0,1,4.175,4.175Z" fill="none" stroke="#45413c" stroke-linecap="round" stroke-linejoin="round"></path><path d="M74.815 21.938H80.381V24.721H74.815z" fill="#8ca4b8" stroke="#45413c" stroke-linecap="round" stroke-linejoin="round"></path><path d="M65.074 24.721 L90.123 24.721 L90.123 28.896 L65.074 28.896 Z" fill="#e8f4fa"></path><path d="M58.9,40.028h0a1.476,1.476,0,0,1-1.044-2.519L66.465,28.9H70.64l-10.7,10.7A1.473,1.473,0,0,1,58.9,40.028Z" fill="#e8f4fa" stroke="#45413c" stroke-linecap="round" stroke-linejoin="round"></path><path d="M68.186,39.9l3.546.531a1.391,1.391,0,0,1,1.185,1.376v1.565" fill="none" stroke="#45413c" stroke-linecap="round" stroke-linejoin="round"></path><path d="M88.165,38.307A1.392,1.392,0,0,0,87.009,39.9h0A1.391,1.391,0,0,0,88.6,41.055l8.091-1.408L96.256,36.9Z" fill="#f0f0f0" stroke="#45413c" stroke-linecap="round" stroke-linejoin="round"></path><path d="M95.256,39.6a1.477,1.477,0,0,0,1.044.432h0a1.476,1.476,0,0,0,1.044-2.519L88.731,28.9H84.556Z" fill="#e8f4fa" stroke="#45413c" stroke-linecap="round" stroke-linejoin="round"></path><path d="M80.381,35.854A2.783,2.783,0,0,1,77.6,38.637h0a2.783,2.783,0,0,1-2.783-2.783V28.9h5.566Z" fill="#e8f4fa" stroke="#45413c" stroke-linecap="round" stroke-linejoin="round"></path><path d="M77.598 42.812L77.598 45.595" fill="#e0e0e0" stroke="#45413c" stroke-linecap="round" stroke-linejoin="round"></path><path d="M74.815,48.378a2.783,2.783,0,0,1,5.566,0" fill="none" stroke="#45413c" stroke-linecap="round" stroke-linejoin="round"></path><path d="M56.724 17.763 A4.175 4.175 0 1 0 65.074 17.763 A4.175 4.175 0 1 0 56.724 17.763 Z" fill="#ffffff" stroke="#45413c" stroke-linecap="round" stroke-linejoin="round"></path><path d="M40.155 54.424 A6.047 6.047 0 1 0 52.249 54.424 A6.047 6.047 0 1 0 40.155 54.424 Z" fill="#ffffff" stroke="#45413c" stroke-linecap="round" stroke-linejoin="round"></path><path d="M44.4,65.077a2.783,2.783,0,0,1-2.783,2.783h-16.7a2.783,2.783,0,0,1-2.784-2.783V53.944a4.176,4.176,0,0,1,4.175-4.175H40.222A4.175,4.175,0,0,1,44.4,53.944Z" fill="#ffffff" stroke="#45413c" stroke-linecap="round" stroke-linejoin="round"></path><path d="M30.481 67.86H36.047000000000004V70.643H30.481z" fill="#656769" stroke="#45413c" stroke-linecap="round" stroke-linejoin="round"></path><path d="M30.481 45.595H36.047000000000004V49.769999999999996H30.481z" fill="#656769" stroke="#45413c" stroke-linecap="round" stroke-linejoin="round"></path><path d="M36.047,70.643H30.481a9.742,9.742,0,0,0-9.741,9.742c0,.768,5.607,1.391,12.524,1.391s12.525-.623,12.525-1.391A9.742,9.742,0,0,0,36.047,70.643Z" fill="#ffffff" stroke="#45413c" stroke-linecap="round" stroke-linejoin="round"></path><path d="M21.787 40.028 A6.958 6.958 0 1 0 35.703 40.028 A6.958 6.958 0 1 0 21.787 40.028 Z" fill="#e8f4fa" stroke="#45413c" stroke-linecap="round" stroke-linejoin="round"></path><path d="M25.962 33.070 L42.661 33.070 L42.661 46.986 L25.962 46.986 Z" fill="#00b8f0"></path><path d="M38.831,49.769v8.35A2.784,2.784,0,0,1,36.047,60.9H30.481A2.783,2.783,0,0,1,27.7,58.119v-8.35Z" fill="#00b8f0"></path><path d="M37.536,49.769l-9.56,9.561a2.714,2.714,0,0,1-.278-1.211v-8.35Z" fill="#4acfff"></path><path d="M38.831,49.769v8.35A2.784,2.784,0,0,1,36.047,60.9H30.481A2.783,2.783,0,0,1,27.7,58.119v-8.35Z" fill="none" stroke="#45413c" stroke-linecap="round" stroke-linejoin="round"></path><path d="M5.035 42.223 L18.584 42.223 L18.584 58.163 L5.035 58.163 Z" fill="#dea47a"></path><path d="M5.035 42.223 L18.584 42.223 L18.584 58.163 L5.035 58.163 Z" fill="none" stroke="#45413c" stroke-linecap="round" stroke-linejoin="round"></path><path d="M15,41.825a1.811,1.811,0,0,1-.721-.148.423.423,0,0,1-.1-.34,2.1,2.1,0,0,0,.023-.309,2.391,2.391,0,0,0-4.782,0,2.1,2.1,0,0,0,.023.309.424.424,0,0,1-.1.34,1.806,1.806,0,0,1-.72.148.8.8,0,0,0-.8.8v1.594a.8.8,0,0,0,.8.8H15a.8.8,0,0,0,.8-.8V42.622A.8.8,0,0,0,15,41.825Z" fill="#c0dceb"></path><path d="M15,41.825a1.811,1.811,0,0,1-.721-.148.423.423,0,0,1-.1-.34,2.1,2.1,0,0,0,.023-.309,2.391,2.391,0,0,0-4.782,0,2.1,2.1,0,0,0,.023.309.424.424,0,0,1-.1.34,1.806,1.806,0,0,1-.72.148.8.8,0,0,0-.8.8v1.594a.8.8,0,0,0,.8.8H15a.8.8,0,0,0,.8-.8V42.622A.8.8,0,0,0,15,41.825Z" fill="none" stroke="#45413c" stroke-linecap="round" stroke-linejoin="round"></path><path d="M9.607,53.944a4.175,4.175,0,0,1-4.175,4.175H4.041a2.784,2.784,0,0,1-2.784-2.783V52.553a2.785,2.785,0,0,1,2.784-2.784H5.432A4.175,4.175,0,0,1,9.607,53.944Z" fill="#656769" stroke="#45413c" stroke-linecap="round" stroke-linejoin="round"></path><path d="M38.027,33.07H28.745a2.783,2.783,0,0,0-2.783,2.784V44.2a2.807,2.807,0,0,0,.119.809Z" fill="#4acfff"></path><path d="M25.962 33.070 L42.661 33.070 L42.661 46.986 L25.962 46.986 Z" fill="none" stroke="#45413c" stroke-linecap="round" stroke-linejoin="round"></path><path d="M38.487 38.637L38.487 41.42" fill="#009fd9" stroke="#ffffff" stroke-linecap="round" stroke-linejoin="round"></path><path d="M31.578 38.637L31.578 41.42" fill="#009fd9" stroke="#ffffff" stroke-linecap="round" stroke-linejoin="round"></path><path d="M65.124,27.876a1.373,1.373,0,0,1,1.341-1.068H88.731a1.375,1.375,0,0,1,1.341,1.068,1.38,1.38,0,0,0,.05-.372V26.112a1.391,1.391,0,0,0-1.391-1.391H66.465a1.391,1.391,0,0,0-1.391,1.391V27.5A1.38,1.38,0,0,0,65.124,27.876Z" fill="#c0dceb"></path><path d="M65.074 24.721 L90.123 24.721 L90.123 28.896 L65.074 28.896 Z" fill="none" stroke="#45413c" stroke-linecap="round" stroke-linejoin="round"></path></g></svg>