<svg xmlns="http://www.w3.org/2000/svg" version="1.1" xmlns:xlink="http://www.w3.org/1999/xlink" xmlns:svgjs="http://svgjs.com/svgjs" viewBox="0 0 200 200" width="200" height="200"><g transform="matrix(2,0,0,2,0,0)"><path d="M10.000 50.000 A40.000 40.000 0 1 0 90.000 50.000 A40.000 40.000 0 1 0 10.000 50.000 Z" fill="#e8f4fa" stroke="#daedf7" stroke-miterlimit="10"></path><path d="M32.92,23.76a6.061,6.061,0,0,0,6.05,6.05h4.4a1.1,1.1,0,0,1,1.1,1.1v4.4h3.3v-4.4a1.1,1.1,0,0,1,1.1-1.1h4.4a6.05,6.05,0,0,0,0-12.1,5.558,5.558,0,0,0-5.2,3.6l-.917,2.45a1.1,1.1,0,0,1-2.06,0l-.917-2.45a5.548,5.548,0,0,0-5.2-3.6A6.054,6.054,0,0,0,32.92,23.76ZM51.07,24a2.294,2.294,0,1,1,2.3,2.288A2.305,2.305,0,0,1,51.07,24ZM36.594,24a2.288,2.288,0,1,1,2.288,2.288A2.3,2.3,0,0,1,36.594,24Z" fill="#adc4d9"></path><path d="M38.97,19.707a5.548,5.548,0,0,1,5.2,3.6,2.079,2.079,0,0,0,3.894,0,5.558,5.558,0,0,1,5.2-3.6,6.043,6.043,0,0,1,5.961,5.05A6.016,6.016,0,0,0,53.27,17.71a5.558,5.558,0,0,0-5.2,3.6l-.917,2.449a1.1,1.1,0,0,1-2.06,0l-.917-2.449a5.548,5.548,0,0,0-5.2-3.6,6.054,6.054,0,0,0-6.05,6.05,5.962,5.962,0,0,0,.09,1A6.05,6.05,0,0,1,38.97,19.707Z" fill="#daedf7"></path><path d="M32.92,23.76a6.061,6.061,0,0,0,6.05,6.05h4.4a1.1,1.1,0,0,1,1.1,1.1v4.4h3.3v-4.4a1.1,1.1,0,0,1,1.1-1.1h4.4a6.05,6.05,0,0,0,0-12.1,5.558,5.558,0,0,0-5.2,3.6l-.917,2.45a1.1,1.1,0,0,1-2.06,0l-.917-2.45a5.548,5.548,0,0,0-5.2-3.6A6.054,6.054,0,0,0,32.92,23.76ZM51.07,24a2.294,2.294,0,1,1,2.3,2.288A2.305,2.305,0,0,1,51.07,24ZM36.594,24a2.288,2.288,0,1,1,2.288,2.288A2.3,2.3,0,0,1,36.594,24Z" fill="none" stroke="#45413c" stroke-linecap="round" stroke-linejoin="round"></path><path d="M47.585,66.756a1.983,1.983,0,0,0-2.763.46l-5.07,7.1a1.1,1.1,0,0,1-1.387.344L35.439,73.2a1.98,1.98,0,0,0-1.771,3.543l7.92,3.96a1.98,1.98,0,1,0,1.771-3.543.542.542,0,0,1-.2-.8l4.884-6.838A1.982,1.982,0,0,0,47.585,66.756Z" fill="#ffcc99" stroke="#45413c" stroke-linecap="round" stroke-linejoin="round"></path><path d="M40.475,73.307a17.909,17.909,0,0,0,3.332,2.144l4.238-5.932a1.981,1.981,0,0,0-3.223-2.3l-4.349,6.089" fill="#ffaa54"></path><path d="M47.585,66.756a1.983,1.983,0,0,0-2.763.46l-5.07,7.1a1.1,1.1,0,0,1-1.387.344L35.439,73.2a1.98,1.98,0,0,0-1.771,3.543l7.92,3.96a1.98,1.98,0,1,0,1.771-3.543.542.542,0,0,1-.2-.8l4.884-6.838A1.982,1.982,0,0,0,47.585,66.756Z" fill="none" stroke="#45413c" stroke-linecap="round" stroke-linejoin="round"></path><path d="M34.225 81.834 A17.196 1.518 0 1 0 68.617 81.834 A17.196 1.518 0 1 0 34.225 81.834 Z" fill="#45413c" opacity=".15"></path><path d="M70.78,56.237a1.322,1.322,0,0,1,1.312,1.468C71.077,66.773,60.828,73.9,51.555,73.9A17.666,17.666,0,0,1,33.894,56.237V46.588a11.88,11.88,0,1,1,23.76,0V53.6a2.64,2.64,0,0,0,2.64,2.64Z" fill="#ffe500"></path><path d="M33.894,51.4v4.842A17.666,17.666,0,0,0,51.555,73.9c9.273,0,19.522-7.125,20.537-16.193a1.323,1.323,0,0,0-.859-1.388c-2.825,7.362-11.616,12.744-19.681,12.744A17.67,17.67,0,0,1,33.9,51.4" fill="#ebcb00"></path><path d="M70.78,56.237a1.322,1.322,0,0,1,1.312,1.468C71.077,66.773,60.828,73.9,51.555,73.9A17.666,17.666,0,0,1,33.894,56.237V46.588a11.88,11.88,0,1,1,23.76,0V53.6a2.64,2.64,0,0,0,2.64,2.64Z" fill="none" stroke="#45413c" stroke-linecap="round" stroke-linejoin="round"></path><path d="M38.220 45.928 A5.940 5.940 0 1 0 50.100 45.928 A5.940 5.940 0 1 0 38.220 45.928 Z" fill="#ffffff" stroke="#45413c" stroke-linecap="round" stroke-linejoin="round"></path><path d="M39.090 43.828 A2.970 2.970 0 1 0 45.030 43.828 A2.970 2.970 0 1 0 39.090 43.828 Z" fill="#4acfff" stroke="#45413c" stroke-linecap="round" stroke-linejoin="round"></path><path d="M34.872,45.9a1.1,1.1,0,0,0-1.228-.384l-5.552,1.851a1.1,1.1,0,0,1-.522.043,1.441,1.441,0,0,0-1.518,2.067l.467.933a1.105,1.105,0,0,1,.1.662,1.909,1.909,0,0,0,2.349,2.15l.759-.19a1.117,1.117,0,0,1,.533,0l3.425.857a1.1,1.1,0,0,0,1.147-.408L37.2,50.328a1.1,1.1,0,0,0,0-1.32Z" fill="#ffaa54" stroke="#45413c" stroke-linecap="round" stroke-linejoin="round"></path><path d="M63.3,56.237a8.8,8.8,0,0,1-8.8,8.831" fill="none" stroke="#45413c" stroke-linecap="round" stroke-linejoin="round"></path><path d="M46.349,69.468a15.646,15.646,0,0,0,5.951,1.1c2.781,0,6.157-.706,8.305-2.508" fill="none" stroke="#45413c" stroke-linecap="round" stroke-linejoin="round"></path><path d="M64.52,73.829a2,2,0,0,0-2.8-.133.546.546,0,0,1-.824-.1l-2.714-4.111a15.042,15.042,0,0,1-4.093.989l3.681,5.576a1.1,1.1,0,0,1-.176,1.418l-1.176,1.075a1.978,1.978,0,0,0-.119,2.794,1.976,1.976,0,0,0,2.79.129l5.3-4.845A1.989,1.989,0,0,0,64.52,73.829Z" fill="#ffcc99"></path><path d="M58.182,69.483a15.042,15.042,0,0,1-4.093.989l2.489,3.77a22.606,22.606,0,0,0,3.958-1.194Z" fill="#ffaa54"></path><path d="M64.52,73.829a2,2,0,0,0-2.8-.133.546.546,0,0,1-.824-.1l-2.714-4.111a15.042,15.042,0,0,1-4.093.989l3.681,5.576a1.1,1.1,0,0,1-.176,1.418l-1.176,1.075a1.978,1.978,0,0,0-.119,2.794,1.976,1.976,0,0,0,2.79.129l5.3-4.845A1.989,1.989,0,0,0,64.52,73.829Z" fill="none" stroke="#45413c" stroke-linecap="round" stroke-linejoin="round"></path></g></svg>