<svg xmlns="http://www.w3.org/2000/svg" version="1.1" xmlns:xlink="http://www.w3.org/1999/xlink" xmlns:svgjs="http://svgjs.com/svgjs" viewBox="0 0 200 200" width="200" height="200"><g transform="matrix(2,0,0,2,0,0)"><path d="M90,51.886a40,40,0,1,0-76.436,16.5H86.436A39.844,39.844,0,0,0,90,51.886Z" fill="#c7f0ff"></path><path d="M13.564,68.386a40,40,0,0,0,72.872,0Z" fill="#e8f4fa"></path><path d="M11 68.386L89 68.386" fill="none" stroke="#45413c" stroke-linecap="round" stroke-linejoin="round"></path><path d="M6.5 68.386L9 68.386" fill="none" stroke="#45413c" stroke-linecap="round" stroke-linejoin="round"></path><path d="M91 68.386L93.5 68.386" fill="none" stroke="#45413c" stroke-linecap="round" stroke-linejoin="round"></path><path d="M76.313,88.5c0,1.317-11.575,2.384-27.813,2.384S23.866,89.815,23.866,88.5s8.4-2.384,24.634-2.384S76.313,87.181,76.313,88.5Z" fill="#45413c" opacity=".15"></path><path d="M47.308 37.591H52.692V42.043H47.308z" fill="#daedf7"></path><path d="M47.308 37.591H52.692V39.351H47.308z" fill="#c0dceb"></path><path d="M47.308 37.591H52.692V42.043H47.308z" fill="none" stroke="#45413c" stroke-linecap="round" stroke-linejoin="round"></path><path d="M39.233 42.043 L60.768 42.043 L60.768 62.232 L39.233 62.232 Z" fill="#ffffff" stroke="#45413c" stroke-linecap="round" stroke-linejoin="round"></path><path d="M45.963 62.232H54.039V69.087H45.963z" fill="#daedf7"></path><path d="M45.963 62.232H54.039V65.049H45.963z" fill="#c0dceb"></path><path d="M45.963 62.232H54.039V69.087H45.963z" fill="none" stroke="#45413c" stroke-linecap="round" stroke-linejoin="round"></path><path d="M55.384,51.465a2.692,2.692,0,0,1-2.692,2.692H47.308a2.692,2.692,0,0,1-2.691-2.692V42.043H55.384Z" fill="#656769"></path><path d="M55.384,51.465a2.692,2.692,0,0,1-2.692,2.692H47.308a2.692,2.692,0,0,1-2.691-2.692V42.043H55.384Z" fill="#e8f4fa" stroke="#45413c" stroke-linecap="round" stroke-linejoin="round"></path><path d="M57.706,69.087a2.692,2.692,0,0,1,2.538,3.59,10.772,10.772,0,0,1-20.31,0,2.694,2.694,0,0,1,2.539-3.59Z" fill="#f0f0f0" stroke="#45413c" stroke-linecap="round" stroke-linejoin="round"></path><path d="M19.617 49.205H39.806V54.589H19.617z" fill="#ffffff" stroke="#45413c" stroke-linecap="round" stroke-linejoin="round" transform="translate(-28.723 39.191) rotate(-47.941)"></path><path d="M39.233,51.465H33.849a4.038,4.038,0,0,1-4.038-4.038V46.081a4.038,4.038,0,0,1,4.038-4.038h2.692a2.692,2.692,0,0,1,2.692,2.692Z" fill="#ffffff" stroke="#45413c" stroke-linecap="round" stroke-linejoin="round"></path><path d="M25.334 59.058H30.718V73.911H25.334z" fill="#f0f0f0" stroke="#45413c" stroke-linecap="round" stroke-linejoin="round" transform="translate(-38.544 38.661) rotate(-44.459)"></path><path d="M40.521,83.289a.672.672,0,0,1-.661.751,7.066,7.066,0,1,1,6.813-8.624.675.675,0,0,1-.578.817l-2.022.237a.673.673,0,0,1-.727-.487,3.7,3.7,0,1,0-3.7,4.69.673.673,0,0,1,.643.594Z" fill="#656769"></path><path d="M40.521,83.289a.672.672,0,0,1-.661.751,7.066,7.066,0,1,1,6.813-8.624.675.675,0,0,1-.578.817l-2.022.237a.673.673,0,0,1-.727-.487,3.7,3.7,0,1,0-3.7,4.69.673.673,0,0,1,.643.594Z" fill="none" stroke="#45413c" stroke-linecap="round" stroke-linejoin="round"></path><path d="M30.227 73.434 A4.038 4.038 0 1 0 38.303 73.434 A4.038 4.038 0 1 0 30.227 73.434 Z" fill="#f0f0f0" stroke="#45413c" stroke-linecap="round" stroke-linejoin="round"></path><path d="M17.992 61.628 A4.886 4.886 0 1 0 27.764 61.628 A4.886 4.886 0 1 0 17.992 61.628 Z" fill="#ffffff" stroke="#45413c" stroke-linecap="round" stroke-linejoin="round"></path><path d="M67.597 41.803H72.981V61.992H67.597z" fill="#ffffff" stroke="#45413c" stroke-linecap="round" stroke-linejoin="round" transform="translate(-16.663 60.452) rotate(-42.059)"></path><path d="M60.768,51.465h5.384a4.038,4.038,0,0,0,4.038-4.038V46.081a4.038,4.038,0,0,0-4.038-4.038H63.46a2.692,2.692,0,0,0-2.692,2.692Z" fill="#ffffff" stroke="#45413c" stroke-linecap="round" stroke-linejoin="round"></path><path d="M64.549 63.793H79.402V69.17699999999999H64.549z" fill="#f0f0f0" stroke="#45413c" stroke-linecap="round" stroke-linejoin="round" transform="translate(-25.89 71.291) rotate(-45.541)"></path><path d="M59.48,83.289a.672.672,0,0,0,.661.751,7.066,7.066,0,1,0-6.813-8.624.673.673,0,0,0,.578.817l2.022.237a.671.671,0,0,0,.726-.487,3.7,3.7,0,1,1,3.706,4.69.673.673,0,0,0-.643.594Z" fill="#656769"></path><path d="M59.48,83.289a.672.672,0,0,0,.661.751,7.066,7.066,0,1,0-6.813-8.624.673.673,0,0,0,.578.817l2.022.237a.671.671,0,0,0,.726-.487,3.7,3.7,0,1,1,3.706,4.69.673.673,0,0,0-.643.594Z" fill="none" stroke="#45413c" stroke-linecap="round" stroke-linejoin="round"></path><path d="M61.698 73.434 A4.038 4.038 0 1 0 69.774 73.434 A4.038 4.038 0 1 0 61.698 73.434 Z" fill="#f0f0f0" stroke="#45413c" stroke-linecap="round" stroke-linejoin="round"></path><path d="M72.237 61.628 A4.886 4.886 0 1 0 82.009 61.628 A4.886 4.886 0 1 0 72.237 61.628 Z" fill="#ffffff" stroke="#45413c" stroke-linecap="round" stroke-linejoin="round"></path><path d="M31.243 8.115 L68.758 8.115 L68.758 37.591 L31.243 37.591 Z" fill="#009fd9"></path><path d="M35.759,37.589,65.131,8.219a4.561,4.561,0,0,0-.97-.1H35.843a4.6,4.6,0,0,0-4.6,4.6V32.99A4.6,4.6,0,0,0,35.759,37.589Z" fill="#00b8f0"></path><path d="M31.243 8.115 L68.758 8.115 L68.758 37.591 L31.243 37.591 Z" fill="none" stroke="#45413c" stroke-linecap="round" stroke-linejoin="round"></path><path d="M50,34.047A11.195,11.195,0,1,1,61.2,22.853,11.207,11.207,0,0,1,50,34.047Zm0-19.514a8.32,8.32,0,1,0,8.32,8.32A8.328,8.328,0,0,0,50,14.533Z" fill="#e5fff9" stroke="#00658a" stroke-linecap="round" stroke-linejoin="round"></path><path d="M52.169,27.83a1.725,1.725,0,0,1-1.22-2.944l2.033-2.033L50.949,20.82a1.725,1.725,0,0,1,2.439-2.439l3.253,3.252a1.726,1.726,0,0,1,0,2.44l-3.253,3.252A1.711,1.711,0,0,1,52.169,27.83Z" fill="#e5fff9" stroke="#00658a" stroke-linecap="round" stroke-linejoin="round"></path><path d="M47.833,27.83a1.713,1.713,0,0,1-1.22-.5L43.36,24.073a1.724,1.724,0,0,1,0-2.44l3.253-3.252a1.725,1.725,0,1,1,2.439,2.44l-2.034,2.032,2.034,2.033a1.725,1.725,0,0,1-1.219,2.944Z" fill="#e5fff9" stroke="#00658a" stroke-linecap="round" stroke-linejoin="round"></path><path d="M71.134,86.909H29.022a2,2,0,0,1-2-2V82.936H73.134v1.973A2,2,0,0,1,71.134,86.909Z" fill="#adc4d9" stroke="#45413c" stroke-linecap="round" stroke-linejoin="round"></path><path d="M73.134,82.936H27.022L24.684,61.863A3.177,3.177,0,0,1,27.839,58.3h44.5A3.179,3.179,0,0,1,75.5,61.863Z" fill="#c0dceb"></path><path d="M25.027,64.954a2.91,2.91,0,0,1,.433-.814,3.181,3.181,0,0,1,2.379-1.071h44.5a3.177,3.177,0,0,1,2.379,1.071,2.937,2.937,0,0,1,.431.808l.346-3.085A3.179,3.179,0,0,0,72.339,58.3h-44.5a3.177,3.177,0,0,0-3.155,3.561Z" fill="#daedf7"></path><path d="M73.134,82.936H27.022L24.684,61.863A3.177,3.177,0,0,1,27.839,58.3h44.5A3.179,3.179,0,0,1,75.5,61.863Z" fill="none" stroke="#45413c" stroke-linecap="round" stroke-linejoin="round"></path><path d="M52.643,70.8a2.449,2.449,0,0,1,1.168-2.059,2.53,2.53,0,0,0-1.977-1.071c-.842-.085-1.643.5-2.071.5s-1.085-.483-1.783-.471a2.648,2.648,0,0,0-2.238,1.356c-.953,1.654-.243,4.106.686,5.448.454.657,1,1.394,1.706,1.367.686-.027.944-.442,1.772-.442s1.06.442,1.785.429,1.2-.669,1.654-1.328a5.97,5.97,0,0,0,.749-1.538A2.388,2.388,0,0,1,52.643,70.8Z" fill="#f0f0f0" stroke="#45413c" stroke-linecap="round" stroke-linejoin="round"></path><path d="M50.793 64.856L51.785 63.864" fill="none" stroke="#45413c" stroke-linecap="round" stroke-linejoin="round"></path></g></svg>