<svg xmlns="http://www.w3.org/2000/svg" version="1.1" xmlns:xlink="http://www.w3.org/1999/xlink" xmlns:svgjs="http://svgjs.com/svgjs" viewBox="0 0 200 200" width="200" height="200"><g transform="matrix(2,0,0,2,0,0)"><path d="M11.754 55.094 A40.000 40.000 0 1 0 91.754 55.094 A40.000 40.000 0 1 0 11.754 55.094 Z" fill="#e8f4fa" stroke="#daedf7" stroke-miterlimit="10"></path><path d="M41.278,39.128,30.366,44.082a2.625,2.625,0,1,0,2.185,4.774l10.312-3.141Z" fill="#daedf7" stroke="#45413c" stroke-linecap="round" stroke-linejoin="round"></path><path d="M67.041,39.128l10.912,4.954a2.625,2.625,0,0,1-2.184,4.774L65.457,45.715Z" fill="#daedf7" stroke="#45413c" stroke-linecap="round" stroke-linejoin="round"></path><path d="M50.401 81.906 A3.759 3.759 0 1 0 57.919 81.906 A3.759 3.759 0 1 0 50.401 81.906 Z" fill="#525252" stroke="#45413c" stroke-linecap="round" stroke-linejoin="round"></path><path d="M56.812,76.1a2.1,2.1,0,0,1-1.228-1.91V68.963H52.735v5.224a2.1,2.1,0,0,1-1.227,1.91A6.4,6.4,0,0,0,47.9,80.651a1.05,1.05,0,0,0,1.031,1.255H59.39a1.051,1.051,0,0,0,1.031-1.255A6.4,6.4,0,0,0,56.812,76.1Z" fill="#adc4d9" stroke="#45413c" stroke-linecap="round" stroke-linejoin="round"></path><path d="M69.6,57.408s.016-17.954-5.131-22.551H43.848c-5.147,4.6-5.131,22.551-5.131,22.551Z" fill="#daedf7" stroke="#45413c" stroke-linecap="round" stroke-linejoin="round"></path><path d="M52.763 45.856 A1.397 1.397 0 1 0 55.557 45.856 A1.397 1.397 0 1 0 52.763 45.856 Z" fill="#ff6242" stroke="#45413c" stroke-miterlimit="10"></path><path d="M52.763 51.456 A1.397 1.397 0 1 0 55.557 51.456 A1.397 1.397 0 1 0 52.763 51.456 Z" fill="#ff6242" stroke="#45413c" stroke-miterlimit="10"></path><path d="M68.976,71.889a1.05,1.05,0,0,1-1.049,1.005H40.393a1.049,1.049,0,0,1-1.049-1.005l-.627-14.481H69.6Z" fill="#525252" stroke="#45413c" stroke-linecap="round" stroke-linejoin="round"></path><path d="M46.163,34.238c-4.91.507-8.646,1.732-8.343,2.736.267.887,3.6,1.305,7.755,1.041-2.081,1.811-2.894,3.473-1.8,4.009,1.208.593,4.338-.4,7.3-2.256.288,2.424,1.562,4.251,3.092,4.251s2.8-1.827,3.091-4.251c2.961,1.854,6.091,2.849,7.3,2.256,1.089-.536.276-2.2-1.8-4.009,4.158.264,7.488-.154,7.755-1.041.3-1-3.433-2.229-8.344-2.736Z" fill="#ffffff" stroke="#45413c" stroke-linecap="round" stroke-linejoin="round"></path><path d="M65.250 25.326 A3.597 3.597 0 1 0 72.444 25.326 A3.597 3.597 0 1 0 65.250 25.326 Z" fill="#adc4d9" stroke="#45413c" stroke-linecap="round" stroke-linejoin="round"></path><path d="M35.876 25.326 A3.597 3.597 0 1 0 43.070 25.326 A3.597 3.597 0 1 0 35.876 25.326 Z" fill="#adc4d9" stroke="#45413c" stroke-linecap="round" stroke-linejoin="round"></path><path d="M39.473 15.796H68.847V34.857H39.473z" fill="#daedf7" stroke="#45413c" stroke-linecap="round" stroke-linejoin="round"></path><path d="M42.863 21.659 A3.196 3.196 0 1 0 49.255 21.659 A3.196 3.196 0 1 0 42.863 21.659 Z" fill="#ff6242" stroke="#45413c" stroke-linecap="round" stroke-linejoin="round"></path><path d="M59.065 21.659 A3.196 3.196 0 1 0 65.457 21.659 A3.196 3.196 0 1 0 59.065 21.659 Z" fill="#ff6242" stroke="#45413c" stroke-linecap="round" stroke-linejoin="round"></path><path d="M50.312 26.665H58.007999999999996V32.994H50.312z" fill="#daedf7" stroke="#45413c" stroke-linecap="round" stroke-linejoin="round"></path><path d="M50.312 29.829L58.008 29.829" fill="none" stroke="#45413c" stroke-linecap="round" stroke-linejoin="round"></path><path d="M46.059 19.822L46.059 17.575" fill="none" stroke="#45413c" stroke-linecap="round" stroke-linejoin="round"></path><path d="M62.261 19.822L62.261 17.575" fill="none" stroke="#45413c" stroke-linecap="round" stroke-linejoin="round"></path><path d="M72.444 25.326L76.032 25.326" fill="none" stroke="#45413c" stroke-linecap="round" stroke-linejoin="round"></path><path d="M76.031 25.326 A2.084 2.084 0 1 0 80.199 25.326 A2.084 2.084 0 1 0 76.031 25.326 Z" fill="#ff6242" stroke="#45413c" stroke-linecap="round" stroke-linejoin="round"></path><path d="M35.876 25.326L32.288 25.326" fill="none" stroke="#45413c" stroke-linecap="round" stroke-linejoin="round"></path><path d="M28.120 25.326 A2.084 2.084 0 1 0 32.288 25.326 A2.084 2.084 0 1 0 28.120 25.326 Z" fill="#ff6242" stroke="#45413c" stroke-linecap="round" stroke-linejoin="round"></path><path d="M64.1,15.8c1.97-1.193,3.09-2.839,2.582-3.979-.482-1.085-2.29-1.38-4.361-.834.657-1.79.552-3.408-.4-4.024-1.274-.827-3.586.475-5.166,2.906L56.672,10c-.039-2.828-1.149-5.095-2.512-5.095S51.687,7.173,51.648,10l-.087-.136C49.982,7.434,47.67,6.132,46.4,6.959c-.947.616-1.052,2.234-.4,4.024-2.072-.546-3.879-.251-4.362.834-.507,1.14.613,2.786,2.583,3.979Z" fill="#ffffff" stroke="#45413c" stroke-linecap="round" stroke-linejoin="round"></path><path d="M64.1,57.408c1.97,1.193,3.09,2.838,2.582,3.979-.482,1.084-2.29,1.38-4.361.834.657,1.789.552,3.408-.4,4.023-1.274.827-3.586-.474-5.166-2.906-.029-.045-.058-.09-.086-.135C56.633,66.03,55.523,68.3,54.16,68.3S51.687,66.03,51.648,63.2c-.029.045-.057.09-.087.135-1.579,2.432-3.891,3.733-5.165,2.906-.947-.615-1.052-2.234-.4-4.023-2.072.546-3.879.25-4.362-.834-.507-1.141.613-2.786,2.583-3.979Z" fill="#ffffff" stroke="#45413c" stroke-linecap="round" stroke-linejoin="round"></path><path d="M75.167,45.131l-4.192,8.231a2.484,2.484,0,0,0,1.009,3.18A2.1,2.1,0,0,0,75,55.781l4.191-8.231a2.483,2.483,0,0,0-1.009-3.18A2.1,2.1,0,0,0,75.167,45.131Z" fill="#daedf7" stroke="#45413c" stroke-linecap="round" stroke-linejoin="round"></path><path d="M75.173,55.339c1.559-.194,2.727-1.121,2.608-2.071-.107-.861-1.232-1.445-2.6-1.4a1.792,1.792,0,0,0-.323-2.007c-.755-.588-2.15-.06-3.115,1.179l-.032.042a1.72,1.72,0,0,0-1.576-1.057c-.95.118-1.563,1.477-1.37,3.036s1.122,2.726,2.072,2.608Z" fill="#ffffff" stroke="#45413c" stroke-linecap="round" stroke-linejoin="round"></path><path d="M78.709,61.6a.54.54,0,0,0,.684-.421A5.674,5.674,0,1,0,71.642,65.4a.542.542,0,0,0,.726-.347l.462-1.567a.54.54,0,0,0-.287-.642,2.972,2.972,0,1,1,4.216-2.294.54.54,0,0,0,.382.59Z" fill="#daedf7" stroke="#45413c" stroke-linecap="round" stroke-linejoin="round"></path><path d="M33.153,45.131l4.192,8.231a2.484,2.484,0,0,1-1.01,3.18,2.1,2.1,0,0,1-3.017-.761L29.126,47.55a2.484,2.484,0,0,1,1.01-3.18A2.1,2.1,0,0,1,33.153,45.131Z" fill="#daedf7" stroke="#45413c" stroke-linecap="round" stroke-linejoin="round"></path><path d="M33.146,55.339c-1.558-.194-2.726-1.121-2.608-2.071.107-.861,1.233-1.445,2.6-1.4a1.794,1.794,0,0,1,.324-2.007c.755-.588,2.15-.06,3.115,1.179l.032.042a1.719,1.719,0,0,1,1.576-1.057c.95.118,1.563,1.477,1.369,3.036s-1.121,2.726-2.071,2.608Z" fill="#ffffff" stroke="#45413c" stroke-linecap="round" stroke-linejoin="round"></path><path d="M29.611,61.6a.541.541,0,0,1-.685-.421A5.674,5.674,0,1,1,36.677,65.4a.541.541,0,0,1-.725-.347l-.463-1.567a.542.542,0,0,1,.288-.642,2.972,2.972,0,1,0-4.216-2.294.54.54,0,0,1-.383.59Z" fill="#daedf7" stroke="#45413c" stroke-linecap="round" stroke-linejoin="round"></path><path d="M27.177,59.087l10.368,2.859a1.523,1.523,0,1,0,.81-2.936L27.986,56.151Z" fill="#656769" stroke="#45413c" stroke-linecap="round" stroke-linejoin="round"></path><path d="M27.986 56.151L24.278 52.167 21.95 60.606 27.177 59.087 27.986 56.151z" fill="#87898c" stroke="#45413c" stroke-linecap="round" stroke-linejoin="round"></path><path d="M21.95,60.606s-4.3-.452-8.495,3.886a4.973,4.973,0,0,1,4.484-5.66s-5.233-1.349-8.327,1.745c0,0,1.688-5.43,7.137-4.7a42.969,42.969,0,0,1-8.5-3.591,42.985,42.985,0,0,1,9.142,1.275c-5.053-2.166-3.719-7.694-3.719-7.694,1.07,4.243,6.256,5.767,6.256,5.767a4.972,4.972,0,0,1-.949-7.158c1.374,5.873,5.3,7.691,5.3,7.691Z" fill="#f0f0f0" stroke="#45413c" stroke-linecap="round" stroke-linejoin="round"></path><path d="M33.666,57.308a2.976,2.976,0,0,0-2.1,3.243.54.54,0,0,1-.383.59l-1.567.462a.541.541,0,0,1-.685-.421A5.681,5.681,0,0,1,32.9,54.717" fill="#daedf7" stroke="#45413c" stroke-linecap="round" stroke-linejoin="round"></path><path d="M41.647 87.243 A12.04 1.651 0 1 0 65.727 87.243 A12.04 1.651 0 1 0 41.647 87.243 Z" fill="#45413c" opacity=".15"></path></g></svg>