<svg xmlns="http://www.w3.org/2000/svg" version="1.1" xmlns:xlink="http://www.w3.org/1999/xlink" xmlns:svgjs="http://svgjs.com/svgjs" viewBox="0 0 200 200" width="200" height="200"><g transform="matrix(2,0,0,2,0,0)"><path d="M9.924 50.000 A40.000 40.000 0 1 0 89.924 50.000 A40.000 40.000 0 1 0 9.924 50.000 Z" fill="#e8f4fa" stroke="#daedf7" stroke-miterlimit="10"></path><path d="M25.762 74.587 A20.125 1.984 0 1 0 66.012 74.587 A20.125 1.984 0 1 0 25.762 74.587 Z" fill="#45413c" opacity=".15"></path><path d="M66.587 79.389 A9.2 1.984 0 1 0 84.987 79.389 A9.2 1.984 0 1 0 66.587 79.389 Z" fill="#45413c" opacity=".15"></path><path d="M81.035,31.8a6.9,6.9,0,0,1-2.1-12.575,1.725,1.725,0,1,1,1.827,2.926,3.45,3.45,0,0,0-1.1,4.753A3.534,3.534,0,0,0,84.415,28a3.449,3.449,0,0,0,1.1-4.753,1.725,1.725,0,1,1,2.926-1.827A6.9,6.9,0,0,1,81.035,31.8Z" fill="#656769" stroke="#45413c" stroke-linecap="round" stroke-linejoin="round"></path><path d="M67.325,45.153a2.876,2.876,0,0,1,.447-5.671c.438-.034,9.714-.915,11.323-12.021a2.875,2.875,0,0,1,5.691.824C82.951,40.95,73.107,44.9,68.158,45.22A2.874,2.874,0,0,1,67.325,45.153Z" fill="#adc4d9" stroke="#45413c" stroke-linecap="round" stroke-linejoin="round"></path><path d="M72.817,37.733a4.744,4.744,0,0,1,1.994,5.017,4.8,4.8,0,0,1-.165.558" fill="none" stroke="#45413c" stroke-linecap="round" stroke-linejoin="round"></path><path d="M76.7,34.039a4.742,4.742,0,0,1,4.154,4.076" fill="none" stroke="#45413c" stroke-linecap="round" stroke-linejoin="round"></path><path d="M78.577,29.91a4.744,4.744,0,0,1,5.494,1.9" fill="none" stroke="#45413c" stroke-linecap="round" stroke-linejoin="round"></path><path d="M12.362,31.8a6.9,6.9,0,0,0,2.1-12.575,1.725,1.725,0,1,0-1.827,2.926,3.45,3.45,0,0,1,1.1,4.753A3.534,3.534,0,0,1,8.981,28a3.449,3.449,0,0,1-1.1-4.753,1.724,1.724,0,1,0-2.925-1.827A6.9,6.9,0,0,0,12.362,31.8Z" fill="#656769" stroke="#45413c" stroke-linecap="round" stroke-linejoin="round"></path><path d="M26.071,45.153a2.876,2.876,0,0,0-.447-5.671c-.438-.034-9.713-.915-11.323-12.021a2.875,2.875,0,0,0-5.691.824C10.445,40.95,20.289,44.9,25.238,45.22A2.874,2.874,0,0,0,26.071,45.153Z" fill="#adc4d9" stroke="#45413c" stroke-linecap="round" stroke-linejoin="round"></path><path d="M20.579,37.733a4.744,4.744,0,0,0-1.994,5.017,4.8,4.8,0,0,0,.166.558" fill="none" stroke="#45413c" stroke-linecap="round" stroke-linejoin="round"></path><path d="M16.7,34.039a4.745,4.745,0,0,0-4.154,4.076" fill="none" stroke="#45413c" stroke-linecap="round" stroke-linejoin="round"></path><path d="M14.819,29.91a4.744,4.744,0,0,0-5.494,1.9" fill="none" stroke="#45413c" stroke-linecap="round" stroke-linejoin="round"></path><path d="M25.187 25.453 L66.587 25.453 L66.587 73.753 L25.187 73.753 Z" fill="#ffffff" stroke="#ffffff" stroke-miterlimit="10"></path><path d="M30.937 55.353 A14.950 14.950 0 1 0 60.837 55.353 A14.950 14.950 0 1 0 30.937 55.353 Z" fill="#e8f4fa"></path><path d="M34.387,55.353a3.45,3.45,0,0,1-3.45,3.45h-5.75V42.7h5.75a3.45,3.45,0,0,1,3.45,3.45Z" fill="#c0dceb"></path><path d="M66.369,28.65H51.292a3.468,3.468,0,0,0-2.438,1.012l-2.806,2.806A3.42,3.42,0,0,1,43.61,33.48H25.187V30.053a4.6,4.6,0,0,1,4.6-4.6h32.2A4.613,4.613,0,0,1,66.369,28.65Z" fill="#fffacf"></path><path d="M29.787,28.65H66.369a4.613,4.613,0,0,0-4.382-3.2h-32.2a4.6,4.6,0,0,0-4.6,4.6v3.2A4.6,4.6,0,0,1,29.787,28.65Z" fill="#fffef2"></path><path d="M94.187,43.853A1.9,1.9,0,0,0,96.062,41.6c-4.443-22.081-3.921-25.346-8.775-25.346a4.6,4.6,0,0,0-4.6,4.6v20.7a2.307,2.307,0,0,0,2.3,2.3h.575a2.307,2.307,0,0,0,2.3,2.3h3.45a2.307,2.307,0,0,0,2.3-2.3Z" fill="#f0f0f0"></path><path d="M85.562 43.853L85.562 31.203" fill="#ffffff" stroke="#45413c" stroke-linecap="round" stroke-linejoin="round"></path><path d="M93.612 43.853L91.312 32.353" fill="#ffffff" stroke="#45413c" stroke-linecap="round" stroke-linejoin="round"></path><path d="M92.991,25.729c-1.506-3.99-3-4.876-6.543-4.876a8.311,8.311,0,0,0-3.761.863v-.863a4.6,4.6,0,0,1,4.6-4.6c3.308,0,4.119,1.517,5.707,9.476" fill="#ffffff"></path><path d="M94.187,43.853A1.9,1.9,0,0,0,96.062,41.6c-4.443-22.081-3.921-25.346-8.775-25.346a4.6,4.6,0,0,0-4.6,4.6v20.7a2.307,2.307,0,0,0,2.3,2.3h.575a2.307,2.307,0,0,0,2.3,2.3h3.45a2.307,2.307,0,0,0,2.3-2.3Z" fill="none" stroke="#45413c" stroke-linecap="round" stroke-linejoin="round"></path><path d="M66.369,28.65H51.292a3.468,3.468,0,0,0-2.438,1.012l-2.806,2.806A3.42,3.42,0,0,1,43.61,33.48H25.187V30.053a4.6,4.6,0,0,1,4.6-4.6h32.2A4.613,4.613,0,0,1,66.369,28.65Z" fill="none" stroke="#45413c" stroke-linecap="round" stroke-linejoin="round"></path><path d="M28.637 30.053 A1.150 1.150 0 1 0 30.937 30.053 A1.150 1.150 0 1 0 28.637 30.053 Z" fill="#45413c"></path><path d="M33.237 30.053 A1.150 1.150 0 1 0 35.537 30.053 A1.150 1.150 0 1 0 33.237 30.053 Z" fill="#45413c"></path><path d="M37.837 30.053 A1.150 1.150 0 1 0 40.137 30.053 A1.150 1.150 0 1 0 37.837 30.053 Z" fill="#45413c"></path><path d="M25.187 25.453 L66.587 25.453 L66.587 73.753 L25.187 73.753 Z" fill="none" stroke="#45413c" stroke-linecap="round" stroke-linejoin="round"></path><path d="M69.713 56.490 A8.050 8.050 0 1 0 85.813 56.490 A8.050 8.050 0 1 0 69.713 56.490 Z" fill="#dabff5"></path><path d="M70.049,58.8a8.052,8.052,0,0,1,15.429,0,8.05,8.05,0,1,0-15.429,0Z" fill="#eddbff"></path><path d="M69.713 56.490 A8.050 8.050 0 1 0 85.813 56.490 A8.050 8.050 0 1 0 69.713 56.490 Z" fill="none" stroke="#45413c" stroke-linecap="round" stroke-linejoin="round"></path><path d="M86.963,56.49l-2.473,16.5-.54,3.565a3.214,3.214,0,0,1-.253.874,3.457,3.457,0,0,1-3.151,2.058H71.53a3.449,3.449,0,0,1-3.4-2.932l-1.564-10.4L65.113,56.49Z" fill="#8cffe4"></path><path d="M84.031,76l-.08.563a3.2,3.2,0,0,1-.253.874,3.458,3.458,0,0,1-3.151,2.059H71.531a3.45,3.45,0,0,1-3.4-2.933L68.046,76a6.087,6.087,0,0,0,.92.057H83.1A8.21,8.21,0,0,0,84.031,76Z" fill="#00f5bc"></path><path d="M86.963,56.49l-2.473,16.5-.54,3.565a3.214,3.214,0,0,1-.253.874c-5.473-4.449-12.48-15.89-7.843-21.517C77.533,53.96,80.833,52.408,86.963,56.49Z" fill="#ffe500"></path><path d="M86.458,59.884c-5.808-3.668-8.97-2.139-10.6-.241a5.34,5.34,0,0,0-1.27,3.236c-.52-2.646-.252-5.118,1.269-6.964,1.679-1.955,4.979-3.507,11.109.575l-.509,3.394" fill="#fff48c"></path><path d="M86.963,56.49l-2.473,16.5-.54,3.565a3.214,3.214,0,0,1-.253.874c-5.473-4.449-12.48-15.89-7.843-21.517C77.533,53.96,80.833,52.408,86.963,56.49Z" fill="none" stroke="#45413c" stroke-linecap="round" stroke-linejoin="round"></path><path d="M76.613,57.64A8.206,8.206,0,0,1,74.5,60.78a27.516,27.516,0,0,1-7.935,5.382L65.113,56.49s1.15-3.45,5.75-3.45a5.624,5.624,0,0,1,4.991,2.875c.115.2.218.391.31.575A6.676,6.676,0,0,1,76.613,57.64Z" fill="#f0f0f0"></path><path d="M65.516,59.148A5.994,5.994,0,0,1,70.864,56.5a5.579,5.579,0,0,1,4.9,2.742,5.674,5.674,0,0,0,.847-1.6,6.676,6.676,0,0,0-.449-1.15c-.092-.184-.2-.379-.31-.575a5.624,5.624,0,0,0-4.991-2.875c-4.6,0-5.75,3.45-5.75,3.45l.4,2.659" fill="#ffffff"></path><path d="M86.963,56.49l-2.473,16.5-.54,3.565a3.214,3.214,0,0,1-.253.874,3.457,3.457,0,0,1-3.151,2.058H71.53a3.449,3.449,0,0,1-3.4-2.932l-1.564-10.4L65.113,56.49Z" fill="none" stroke="#45413c" stroke-linecap="round" stroke-linejoin="round"></path><path d="M76.613,57.64A8.206,8.206,0,0,1,74.5,60.78a27.516,27.516,0,0,1-7.935,5.382L65.113,56.49s1.15-3.45,5.75-3.45a5.624,5.624,0,0,1,4.991,2.875c.115.2.218.391.31.575A6.676,6.676,0,0,1,76.613,57.64Z" fill="none" stroke="#45413c" stroke-linecap="round" stroke-linejoin="round"></path><path d="M83.954,76.552a3.451,3.451,0,0,1-3.412,2.938H71.534a3.449,3.449,0,0,1-3.412-2.938L65.113,56.49h21.85Z" fill="none" stroke="#45413c" stroke-linecap="round" stroke-linejoin="round"></path><path d="M62.813,56.49h26.45" fill="none" stroke="#45413c" stroke-linecap="round" stroke-linejoin="round"></path><path d="M66.737 67.314L78.913 79.49" fill="none" stroke="#45413c" stroke-linecap="round" stroke-linejoin="round"></path><path d="M66.263 56.49L84.263 74.49" fill="none" stroke="#45413c" stroke-linecap="round" stroke-linejoin="round"></path><path d="M76.613 56.49L85.613 65.49" fill="none" stroke="#45413c" stroke-linecap="round" stroke-linejoin="round"></path><path d="M85.542 65.961L72.013 79.49" fill="none" stroke="#45413c" stroke-linecap="round" stroke-linejoin="round"></path><path d="M84.663 56.49L67.663 73.49" fill="none" stroke="#45413c" stroke-linecap="round" stroke-linejoin="round"></path><path d="M74.313 56.49L66.313 64.49" fill="none" stroke="#45413c" stroke-linecap="round" stroke-linejoin="round"></path><path d="M25.187,45.5h5.75a3.445,3.445,0,0,1,3.45,3.45v-2.8a3.45,3.45,0,0,0-3.45-3.45h-5.75Z" fill="#daedf7"></path><path d="M34.387,55.353a3.45,3.45,0,0,1-3.45,3.45h-5.75V42.7h5.75a3.45,3.45,0,0,1,3.45,3.45Z" fill="none" stroke="#45413c" stroke-miterlimit="10"></path><path d="M30.937 50.753 A14.950 14.950 0 1 0 60.837 50.753 A14.950 14.950 0 1 0 30.937 50.753 Z" fill="#adc4d9"></path><path d="M31.038,52.5a14.947,14.947,0,0,1,29.7,0,15.229,15.229,0,0,0,.1-1.745,14.95,14.95,0,0,0-29.9,0A15.25,15.25,0,0,0,31.038,52.5Z" fill="#c0dceb"></path><path d="M30.937 50.753 A14.950 14.950 0 1 0 60.837 50.753 A14.950 14.950 0 1 0 30.937 50.753 Z" fill="none" stroke="#45413c" stroke-miterlimit="10"></path><path d="M34.387 50.753 A11.500 11.500 0 1 0 57.387 50.753 A11.500 11.500 0 1 0 34.387 50.753 Z" fill="#00b8f0"></path><path d="M37.7,58.827A11.5,11.5,0,0,1,54.077,42.68Z" fill="#4acfff"></path><path d="M38.987 50.753 A1.725 3.45 0 1 0 42.437 50.753 A1.725 3.45 0 1 0 38.987 50.753 Z" fill="#ffffff" stroke="#009fd9" stroke-linecap="round" stroke-linejoin="round"></path><path d="M49.337 50.753 A1.725 3.45 0 1 0 52.787 50.753 A1.725 3.45 0 1 0 49.337 50.753 Z" fill="#ffffff" stroke="#009fd9" stroke-linecap="round" stroke-linejoin="round"></path><path d="M34.387 50.753 A11.500 11.500 0 1 0 57.387 50.753 A11.500 11.500 0 1 0 34.387 50.753 Z" fill="none" stroke="#45413c" stroke-miterlimit="10"></path><path d="M56.237 46.153 L61.987 46.153 L61.987 55.353 L56.237 55.353 Z" fill="#c0dceb"></path><path d="M56.237,49.925a1.154,1.154,0,0,1,1.15-1.15h3.45a1.153,1.153,0,0,1,1.15,1.15V47.3a1.15,1.15,0,0,0-1.15-1.15h-3.45a1.15,1.15,0,0,0-1.15,1.15Z" fill="#daedf7"></path><path d="M56.237 46.153 L61.987 46.153 L61.987 55.353 L56.237 55.353 Z" fill="none" stroke="#45413c" stroke-miterlimit="10"></path></g></svg>