<svg xmlns="http://www.w3.org/2000/svg" version="1.1" xmlns:xlink="http://www.w3.org/1999/xlink" xmlns:svgjs="http://svgjs.com/svgjs" viewBox="0 0 200 200" width="200" height="200"><g transform="matrix(2,0,0,2,0,0)"><path d="M90,56.17a40,40,0,1,0-76.436,16.5H86.436A39.829,39.829,0,0,0,90,56.17Z" fill="#c7f0ff"></path><path d="M13.564,72.67a40,40,0,0,0,72.872,0Z" fill="#e8f4fa"></path><path d="M11 72.67L89 72.67" fill="none" stroke="#45413c" stroke-linecap="round" stroke-linejoin="round"></path><path d="M6.5 72.67L9 72.67" fill="none" stroke="#45413c" stroke-linecap="round" stroke-linejoin="round"></path><path d="M91 72.67L93.5 72.67" fill="none" stroke="#45413c" stroke-linecap="round" stroke-linejoin="round"></path><path d="M32.380 81.380 A27.046 2.43 0 1 0 86.472 81.380 A27.046 2.43 0 1 0 32.380 81.380 Z" fill="#45413c" opacity=".15"></path><path d="M27.19,72.685H41.861a10.781,10.781,0,0,0,2.819-4.292,2.692,2.692,0,0,0-2.538-3.59H26.909a2.693,2.693,0,0,0-2.539,3.589A10.78,10.78,0,0,0,27.19,72.685Z" fill="#ffffff" stroke="#45413c" stroke-linecap="round" stroke-linejoin="round"></path><path d="M36.807 48.006H56.996V53.39H36.807z" fill="#ffffff" stroke="#45413c" stroke-linecap="round" stroke-linejoin="round" transform="translate(-14.91 81.509) rotate(-73.723)"></path><path d="M45.2,47.18h5.384a4.037,4.037,0,0,0,4.038-4.037V41.8a4.038,4.038,0,0,0-4.038-4.038H47.9A2.692,2.692,0,0,0,45.2,40.451Z" fill="#ffffff" stroke="#45413c" stroke-linecap="round" stroke-linejoin="round"></path><path d="M48.835 57.592H54.219V72.445H48.835z" fill="#ffffff" stroke="#45413c" stroke-linecap="round" stroke-linejoin="round" transform="translate(-28.631 86.403) rotate(-66.54)"></path><path d="M69.423,75.894a.673.673,0,0,1-.33.944,7.066,7.066,0,1,1,3.071-10.552.675.675,0,0,1-.228.974l-1.784.98a.673.673,0,0,1-.857-.179A3.7,3.7,0,1,0,67.624,73.8a.672.672,0,0,1,.819.309Z" fill="#656769"></path><path d="M69.423,75.894a.673.673,0,0,1-.33.944,7.066,7.066,0,1,1,3.071-10.552.675.675,0,0,1-.228.974l-1.784.98a.673.673,0,0,1-.857-.179A3.7,3.7,0,1,0,67.624,73.8a.672.672,0,0,1,.819.309Z" fill="none" stroke="#45413c" stroke-linecap="round" stroke-linejoin="round"></path><path d="M55.883 69.113 A4.038 4.038 0 1 0 63.959 69.113 A4.038 4.038 0 1 0 55.883 69.113 Z" fill="#f0f0f0" stroke="#45413c" stroke-linecap="round" stroke-linejoin="round"></path><path d="M40.582 61.687 A4.038 4.038 0 1 0 48.658 61.687 A4.038 4.038 0 1 0 40.582 61.687 Z" fill="#ffffff" stroke="#45413c" stroke-linecap="round" stroke-linejoin="round"></path><path d="M31.744 33.306H37.128V37.757999999999996H31.744z" fill="#daedf7"></path><path d="M31.744 33.306H37.128V35.065999999999995H31.744z" fill="#c0dceb"></path><path d="M31.744 33.306H37.128V37.757999999999996H31.744z" fill="none" stroke="#45413c" stroke-linecap="round" stroke-linejoin="round"></path><path d="M23.669 37.759 L45.204 37.759 L45.204 57.948 L23.669 57.948 Z" fill="#ffffff" stroke="#45413c" stroke-linecap="round" stroke-linejoin="round"></path><path d="M30.399 57.948H38.475V64.803H30.399z" fill="#daedf7"></path><path d="M30.399 57.948H38.475V60.765H30.399z" fill="#c0dceb"></path><path d="M30.399 57.948H38.475V64.803H30.399z" fill="none" stroke="#45413c" stroke-linecap="round" stroke-linejoin="round"></path><path d="M39.82,47.18a2.692,2.692,0,0,1-2.692,2.692H31.744a2.691,2.691,0,0,1-2.691-2.692V37.759H39.82Z" fill="#656769"></path><path d="M39.82,47.18a2.692,2.692,0,0,1-2.692,2.692H31.744a2.691,2.691,0,0,1-2.691-2.692V37.759H39.82Z" fill="#e8f4fa" stroke="#45413c" stroke-linecap="round" stroke-linejoin="round"></path><path d="M7.724 46.925H27.913V52.309H7.724z" fill="#ffffff" stroke="#45413c" stroke-linecap="round" stroke-linejoin="round" transform="translate(-34.17 58.362) rotate(-79.795)"></path><path d="M23.669,47.18H18.285a4.037,4.037,0,0,1-4.038-4.037V41.8a4.038,4.038,0,0,1,4.038-4.038h2.692a2.692,2.692,0,0,1,2.692,2.692Z" fill="#ffffff" stroke="#45413c" stroke-linecap="round" stroke-linejoin="round"></path><path d="M21.11 56.284H26.494V71.137H21.11z" fill="#ffffff" stroke="#45413c" stroke-linecap="round" stroke-linejoin="round" transform="translate(-44.209 64.134) rotate(-69.871)"></path><path d="M42.3,73.527a.673.673,0,0,1-.275.963,7.067,7.067,0,1,1,2.453-10.714.673.673,0,0,1-.171.986l-1.724,1.082a.673.673,0,0,1-.866-.129,3.7,3.7,0,1,0-1.334,5.827.672.672,0,0,1,.835.261Z" fill="#656769"></path><path d="M42.3,73.527a.673.673,0,0,1-.275.963,7.067,7.067,0,1,1,2.453-10.714.673.673,0,0,1-.171.986l-1.724,1.082a.673.673,0,0,1-.866-.129,3.7,3.7,0,1,0-1.334,5.827.672.672,0,0,1,.835.261Z" fill="#c0dceb" stroke="#45413c" stroke-linecap="round" stroke-linejoin="round"></path><path d="M28.381 67.311 A4.038 4.038 0 1 0 36.457 67.311 A4.038 4.038 0 1 0 28.381 67.311 Z" fill="#ffffff" stroke="#45413c" stroke-linecap="round" stroke-linejoin="round"></path><path d="M12.674 60.785 A4.038 4.038 0 1 0 20.750 60.785 A4.038 4.038 0 1 0 12.674 60.785 Z" fill="#ffffff" stroke="#45413c" stroke-linecap="round" stroke-linejoin="round"></path><path d="M27.241,33.307H20.254a4,4,0,0,1-4-4V7.83a4,4,0,0,1,4-4h6.987Z" fill="#f0f0f0" stroke="#45413c" stroke-linecap="round" stroke-linejoin="round"></path><path d="M21.429 3.831 L54.344 3.831 L54.344 33.307 L21.429 33.307 Z" fill="#009fd9"></path><path d="M53.215,5.412a4.59,4.59,0,0,0-3.471-1.581H26.029a4.6,4.6,0,0,0-4.6,4.6V28.706a4.6,4.6,0,0,0,3.939,4.552Z" fill="#00b8f0"></path><path d="M21.429 3.831 L54.344 3.831 L54.344 33.307 L21.429 33.307 Z" fill="none" stroke="#45413c" stroke-linecap="round" stroke-linejoin="round"></path><path d="M38.174,29.763A11.2,11.2,0,1,1,49.368,18.568,11.208,11.208,0,0,1,38.174,29.763Zm0-19.515a8.32,8.32,0,1,0,8.319,8.32A8.33,8.33,0,0,0,38.174,10.248Z" fill="#e5fff9" stroke="#00658a" stroke-linecap="round" stroke-linejoin="round"></path><path d="M40.342,23.546A1.725,1.725,0,0,1,39.123,20.6l2.032-2.033-2.032-2.032a1.725,1.725,0,1,1,2.439-2.44l3.252,3.253a1.723,1.723,0,0,1,0,2.439L41.562,23.04A1.714,1.714,0,0,1,40.342,23.546Z" fill="#e5fff9" stroke="#00658a" stroke-linecap="round" stroke-linejoin="round"></path><path d="M36.006,23.546a1.716,1.716,0,0,1-1.22-.506l-3.253-3.252a1.725,1.725,0,0,1,0-2.439L34.786,14.1a1.725,1.725,0,0,1,2.44,2.44l-2.034,2.032L37.226,20.6a1.726,1.726,0,0,1-1.22,2.945Z" fill="#e5fff9" stroke="#00658a" stroke-linecap="round" stroke-linejoin="round"></path><path d="M51.651,76.359h-3.72l7.945-24.63a1.662,1.662,0,0,1,1.582-1.152h2.51Z" fill="#e8f4fa" stroke="#45413c" stroke-linecap="round" stroke-linejoin="round"></path><path d="M84.087,76.359H51.651l8.317-25.782h30.15A1.663,1.663,0,0,1,91.7,52.75Z" fill="#c0dceb"></path><path d="M59.968,50.577h30.15A1.663,1.663,0,0,1,91.7,52.75l-1,3.1H58.267Z" fill="#daedf7"></path><path d="M84.087,76.359h-34.1v4.158H80.76a3.327,3.327,0,0,0,3.327-3.326Z" fill="#adc4d9" stroke="#45413c" stroke-linecap="round" stroke-linejoin="round"></path><path d="M49.988,76.359H34.936a.832.832,0,0,0-.832.832,3.325,3.325,0,0,0,3.327,3.326H49.988Z" fill="#e8f4fa" stroke="#45413c" stroke-linecap="round" stroke-linejoin="round"></path><path d="M74.675,62.55a1.844,1.844,0,0,1,.882-1.556,1.91,1.91,0,0,0-1.5-.809c-.637-.065-1.241.374-1.564.374s-.82-.365-1.348-.356a2,2,0,0,0-1.691,1.025c-.722,1.25-.184,3.1.518,4.117.343.5.752,1.054,1.29,1.034.518-.021.713-.335,1.338-.335s.8.335,1.348.324.91-.5,1.251-1a4.438,4.438,0,0,0,.565-1.163A1.8,1.8,0,0,1,74.675,62.55Z" fill="#f0f0f0" stroke="#45413c" stroke-linecap="round" stroke-linejoin="round"></path><path d="M73.274 58.062L74.025 57.312" fill="none" stroke="#45413c" stroke-linecap="round" stroke-linejoin="round"></path><path d="M84.087,76.359H51.651l8.317-25.782h30.15A1.663,1.663,0,0,1,91.7,52.75Z" fill="none" stroke="#45413c" stroke-linecap="round" stroke-linejoin="round"></path></g></svg>