<svg xmlns="http://www.w3.org/2000/svg" version="1.1" xmlns:xlink="http://www.w3.org/1999/xlink" xmlns:svgjs="http://svgjs.com/svgjs" viewBox="0 0 200 200" width="200" height="200"><g transform="matrix(2,0,0,2,0,0)"><path d="M13.551,66.5a40.017,40.017,0,0,0,72.9,0Z" fill="#e8f4fa"></path><path d="M86.449,66.5a40,40,0,1,0-72.9,0Z" fill="#c7f0ff"></path><path d="M11 66.5L89 66.5" fill="none" stroke="#45413c" stroke-linecap="round" stroke-linejoin="round"></path><path d="M6.5 66.5L9 66.5" fill="none" stroke="#45413c" stroke-linecap="round" stroke-linejoin="round"></path><path d="M91 66.5L93.5 66.5" fill="none" stroke="#45413c" stroke-linecap="round" stroke-linejoin="round"></path><path d="M76.873 46.009H81.27300000000001V62.509H76.873z" fill="#ffffff" transform="translate(-16.475 62.463) rotate(-39.365)"></path><path d="M72.856,48.688l2.685-2.2,4.447,5.421a3.294,3.294,0,0,1-2.732,1.45H75.487L72.856,50.15Z" fill="#e0e0e0"></path><path d="M76.873 46.009H81.27300000000001V62.509H76.873z" fill="none" stroke="#45413c" stroke-linecap="round" stroke-linejoin="round" transform="translate(-16.475 62.463) rotate(-39.365)"></path><path d="M60.467 39.057H64.867V43.457H60.467z" fill="#daedf7"></path><path d="M60.467 39.057H64.867V41.532000000000004H60.467z" fill="#c0dceb"></path><path d="M60.467 39.057H64.867V43.457H60.467z" fill="none" stroke="#45413c" stroke-linecap="round" stroke-linejoin="round"></path><path d="M53.867 43.457 L71.467 43.457 L71.467 59.957 L53.867 59.957 Z" fill="#ffffff" stroke="#45413c" stroke-linecap="round" stroke-linejoin="round"></path><path d="M59.367 59.957H65.967V66.557H59.367z" fill="#daedf7"></path><path d="M59.367 59.957H65.972V63.257H59.367z" fill="#c0dceb"></path><path d="M59.367 59.957H65.967V66.557H59.367z" fill="none" stroke="#45413c" stroke-linecap="round" stroke-linejoin="round"></path><path d="M67.067,51.157a2.2,2.2,0,0,1-2.2,2.2h-4.4a2.2,2.2,0,0,1-2.2-2.2v-7.7h8.8Z" fill="#00b8f0"></path><path d="M65.599 43.457L58.267 50.783 58.267 43.457 65.599 43.457z" fill="#4acfff"></path><path d="M67.067,51.157a2.2,2.2,0,0,1-2.2,2.2h-4.4a2.2,2.2,0,0,1-2.2-2.2v-7.7h8.8Z" fill="none" stroke="#45413c" stroke-linecap="round" stroke-linejoin="round"></path><path d="M38.012 52.059H54.512V56.458999999999996H38.012z" fill="#ffffff" transform="translate(-25.029 55.611) rotate(-50.635)"></path><path d="M52.479,48.688l-2.685-2.2-4.448,5.421a3.3,3.3,0,0,0,2.733,1.45h1.769l2.631-3.207Z" fill="#e0e0e0"></path><path d="M38.012 52.059H54.512V56.458999999999996H38.012z" fill="none" stroke="#45413c" stroke-linecap="round" stroke-linejoin="round" transform="translate(-25.029 55.611) rotate(-50.635)"></path><path d="M53.862,51.157h-4.4a3.3,3.3,0,0,1-3.3-3.3v-1.1a3.3,3.3,0,0,1,3.3-3.3h2.2a2.2,2.2,0,0,1,2.2,2.2Z" fill="#ffffff" stroke="#45413c" stroke-linecap="round" stroke-linejoin="round"></path><path d="M37.725 61.790 A3.300 3.300 0 1 0 44.325 61.790 A3.300 3.300 0 1 0 37.725 61.790 Z" fill="#f0f0f0" stroke="#45413c" stroke-linecap="round" stroke-linejoin="round"></path><path d="M39.978,65.218A2.2,2.2,0,1,1,43.8,63.044l3.333,6.068-3.825,2.174Z" fill="#ffffff" stroke="#45413c" stroke-linecap="round" stroke-linejoin="round"></path><path d="M54.743,75.428a.549.549,0,0,0,.595-.561,5.775,5.775,0,1,0-6.852,5.807.552.552,0,0,0,.651-.5l.137-1.658a.551.551,0,0,0-.419-.58,3.025,3.025,0,1,1,3.727-3.158.548.548,0,0,0,.5.508Z" fill="#656769"></path><path d="M54.743,75.428a.549.549,0,0,0,.595-.561,5.775,5.775,0,1,0-6.852,5.807.552.552,0,0,0,.651-.5l.137-1.658a.551.551,0,0,0-.419-.58,3.025,3.025,0,1,1,3.727-3.158.548.548,0,0,0,.5.508Z" fill="none" stroke="#45413c" stroke-linecap="round" stroke-linejoin="round"></path><path d="M42.989 71.254 A3.300 3.300 0 1 0 49.589 71.254 A3.300 3.300 0 1 0 42.989 71.254 Z" fill="#ffffff" stroke="#45413c" stroke-linecap="round" stroke-linejoin="round"></path><path d="M71.473,51.157h4.4a3.3,3.3,0,0,0,3.3-3.3v-1.1a3.3,3.3,0,0,0-3.3-3.3h-2.2a2.2,2.2,0,0,0-2.2,2.2Z" fill="#ffffff" stroke="#45413c" stroke-linecap="round" stroke-linejoin="round"></path><path d="M81.010 61.790 A3.300 3.300 0 1 0 87.610 61.790 A3.300 3.300 0 1 0 81.010 61.790 Z" fill="#f0f0f0" stroke="#45413c" stroke-linecap="round" stroke-linejoin="round"></path><path d="M85.046,65.413a2.2,2.2,0,0,0-3.61-2.516l-3.875,5.737,3.61,2.516Z" fill="#ffffff" stroke="#45413c" stroke-linecap="round" stroke-linejoin="round"></path><path d="M69.407,74.227a.55.55,0,0,1-.541-.614,5.775,5.775,0,1,1,6.292,6.411.551.551,0,0,1-.6-.553l.015-1.663a.55.55,0,0,1,.47-.539,3.025,3.025,0,1,0-3.421-3.487.55.55,0,0,1-.548.46Z" fill="#656769"></path><path d="M69.407,74.227a.55.55,0,0,1-.541-.614,5.775,5.775,0,1,1,6.292,6.411.551.551,0,0,1-.6-.553l.015-1.663a.55.55,0,0,1,.47-.539,3.025,3.025,0,1,0-3.421-3.487.55.55,0,0,1-.548.46Z" fill="none" stroke="#45413c" stroke-linecap="round" stroke-linejoin="round"></path><path d="M74.908 70.845 A3.300 3.300 0 1 0 81.508 70.845 A3.300 3.300 0 1 0 74.908 70.845 Z" fill="#ffffff" stroke="#45413c" stroke-linecap="round" stroke-linejoin="round"></path><path d="M46.828 15.573 L77.628 15.573 L77.628 39.773 L46.828 39.773 Z" fill="#00b8f0"></path><path d="M46.828 15.573 L77.628 15.573 L77.628 39.773 L46.828 39.773 Z" fill="none" stroke="#45413c" stroke-linecap="round" stroke-linejoin="round"></path><path d="M74.714,15.6,50.535,39.772h-.407a3.3,3.3,0,0,1-3.3-3.3v-17.6a3.3,3.3,0,0,1,3.3-3.3h24.2C74.461,15.573,74.581,15.584,74.714,15.6Z" fill="#4acfff"></path><path d="M77.628,18.873v17.6a3.3,3.3,0,0,1-3.3,3.3h-24.2a3.3,3.3,0,0,1-3.3-3.3v-17.6a3.3,3.3,0,0,1,3.3-3.3h24.2c.133,0,.253.011.386.022A3.3,3.3,0,0,1,77.628,18.873Z" fill="none" stroke="#45413c" stroke-linecap="round" stroke-linejoin="round"></path><path d="M6.817 76.666 A14.3 1.65 0 1 0 35.417 76.666 A14.3 1.65 0 1 0 6.817 76.666 Z" fill="#45413c" opacity=".15"></path><path d="M6.817 72.266 L35.967 72.266 L35.967 76.116 L6.817 76.116 Z" fill="#00dba8"></path><path d="M34.867,74.466H7.917a1.1,1.1,0,0,1-1.1-1.1v1.65a1.1,1.1,0,0,0,1.1,1.1h26.95a1.1,1.1,0,0,0,1.1-1.1v-1.65A1.1,1.1,0,0,1,34.867,74.466Z" fill="#00ad85"></path><path d="M6.817 72.266 L35.967 72.266 L35.967 76.116 L6.817 76.116 Z" fill="none" stroke="#45413c" stroke-linecap="round" stroke-linejoin="round"></path><path d="M9.017 65.666 L33.767 65.666 L33.767 69.516 L9.017 69.516 Z" fill="#debb7e"></path><path d="M32.667,65.666H10.117a1.1,1.1,0,0,0-1.1,1.1v1.65a1.1,1.1,0,0,1,1.1-1.1h22.55a1.1,1.1,0,0,1,1.1,1.1v-1.65A1.1,1.1,0,0,0,32.667,65.666Z" fill="#f0d5a8"></path><path d="M9.017 65.666 L33.767 65.666 L33.767 69.516 L9.017 69.516 Z" fill="none" stroke="#45413c" stroke-linecap="round" stroke-linejoin="round"></path><path d="M9.017 69.516 L33.767 69.516 L33.767 72.266 L9.017 72.266 Z" fill="#915e3a" stroke="#45413c" stroke-linecap="round" stroke-linejoin="round"></path><path d="M9.017 62.916 L32.667 62.916 L32.667 65.666 L9.017 65.666 Z" fill="#ff8a14" stroke="#45413c" stroke-linecap="round" stroke-linejoin="round"></path><path d="M9.017 54.666 L31.567 54.666 L31.567 57.416 L9.017 57.416 Z" fill="#00dfeb" stroke="#45413c" stroke-linecap="round" stroke-linejoin="round"></path><path d="M7.367 46.416 L29.917 46.416 L29.917 49.166 L7.367 49.166 Z" fill="#ff6242" stroke="#45413c" stroke-linecap="round" stroke-linejoin="round"></path><path d="M10.117 57.416 L33.767 57.416 L33.767 62.916 L10.117 62.916 Z" fill="#ff6242"></path><path d="M32.667,57.416H11.217a1.1,1.1,0,0,0-1.1,1.1v2.2a1.1,1.1,0,0,1,1.1-1.1h21.45a1.1,1.1,0,0,1,1.1,1.1v-2.2A1.1,1.1,0,0,0,32.667,57.416Z" fill="#ff866e"></path><path d="M10.117 57.416 L33.767 57.416 L33.767 62.916 L10.117 62.916 Z" fill="none" stroke="#45413c" stroke-linecap="round" stroke-linejoin="round"></path><path d="M13.967 57.416L13.967 62.916" fill="none" stroke="#45413c" stroke-linecap="round" stroke-linejoin="round"></path><path d="M10.117 49.166 L33.767 49.166 L33.767 54.666 L10.117 54.666 Z" fill="#00b8f0"></path><path d="M32.667,49.166H11.217a1.1,1.1,0,0,0-1.1,1.1v2.2a1.1,1.1,0,0,1,1.1-1.1h21.45a1.1,1.1,0,0,1,1.1,1.1v-2.2A1.1,1.1,0,0,0,32.667,49.166Z" fill="#4acfff"></path><path d="M10.117 49.166 L33.767 49.166 L33.767 54.666 L10.117 54.666 Z" fill="none" stroke="#45413c" stroke-linecap="round" stroke-linejoin="round"></path><path d="M13.417 49.166H15.617V54.666H13.417z" fill="#e0e0e0" stroke="#45413c" stroke-linecap="round" stroke-linejoin="round"></path><path d="M18.917 49.166H21.117V54.666H18.917z" fill="#e0e0e0" stroke="#45413c" stroke-linecap="round" stroke-linejoin="round"></path><path d="M48.373 86.611 A14.3 2.2 0 1 0 76.973 86.611 A14.3 2.2 0 1 0 48.373 86.611 Z" fill="#45413c" opacity=".15"></path><path d="M76.281,81.3l-3.491-6.12a.665.665,0,0,0-.394-.457c-1.5-.613-7.93-3.016-10.3-.12-2.37-2.9-8.8-.493-10.3.12a.665.665,0,0,0-.394.457L47.911,81.3" fill="#fffef2" stroke="#45413c" stroke-linecap="round" stroke-linejoin="round"></path><path d="M56.155,82.413a5.8,5.8,0,0,1,5.51,1.78.586.586,0,0,0,.862,0,5.8,5.8,0,0,1,5.511-1.779l8.986,1.925L76.281,81.3a.883.883,0,0,0-.522-.606c-1.987-.813-10.52-4-13.663-.16-3.144-3.842-11.676-.653-13.663.16a.881.881,0,0,0-.522.606l-.743,3.043Z" fill="#f0d5a8" stroke="#45413c" stroke-linecap="round" stroke-linejoin="round"></path><path d="M46.95,86.611a1.1,1.1,0,0,1-.229-2.176l9.434-2.021a5.8,5.8,0,0,1,5.51,1.779.586.586,0,0,0,.862,0,5.8,5.8,0,0,1,5.511-1.779l9.433,2.021a1.1,1.1,0,1,1-.461,2.151l-9.434-2.021a3.6,3.6,0,0,0-3.416,1.1,2.859,2.859,0,0,1-4.128,0,3.594,3.594,0,0,0-3.415-1.1l-9.435,2.021A1.084,1.084,0,0,1,46.95,86.611Z" fill="#00b8f0" stroke="#45413c" stroke-linecap="round" stroke-linejoin="round"></path><path d="M62.096 74.599L62.096 84.382" fill="none" stroke="#45413c" stroke-linecap="round" stroke-linejoin="round"></path><path d="M57.932,31.688a1.377,1.377,0,0,1-1.375-1.375c0-1.25-.586-1.925-.825-1.925s-.825.675-.825,1.925a1.375,1.375,0,1,1-2.75,0c0-2.621,1.57-4.675,3.575-4.675s3.575,2.054,3.575,4.675A1.377,1.377,0,0,1,57.932,31.688Z" fill="#ffffff" stroke="#009fd9" stroke-miterlimit="10"></path><path d="M71.132,31.688a1.377,1.377,0,0,1-1.375-1.375c0-1.25-.586-1.925-.825-1.925s-.825.675-.825,1.925a1.375,1.375,0,1,1-2.75,0c0-2.621,1.57-4.675,3.575-4.675s3.575,2.054,3.575,4.675A1.377,1.377,0,0,1,71.132,31.688Z" fill="#ffffff" stroke="#009fd9" stroke-miterlimit="10"></path></g></svg>