<svg xmlns="http://www.w3.org/2000/svg" version="1.1" xmlns:xlink="http://www.w3.org/1999/xlink" xmlns:svgjs="http://svgjs.com/svgjs" viewBox="0 0 200 200" width="200" height="200"><g transform="matrix(2,0,0,2,0,0)"><path d="M7.842 41.815 A40.000 40.000 0 1 0 87.842 41.815 A40.000 40.000 0 1 0 7.842 41.815 Z" fill="#e8f4fa" stroke="#daedf7" stroke-miterlimit="10"></path><path d="M64.737 44.714H69.458V62.418H64.737z" fill="#ffffff" transform="translate(-5.856 98.835) rotate(-70.421)"></path><path d="M66.229,51.759V50.752l-6.68-2.376-1.582,4.448L64.1,55.005A3.54,3.54,0,0,0,66.229,51.759Z" fill="#e0e0e0"></path><path d="M64.737 44.714H69.458V62.418H64.737z" fill="none" stroke="#45413c" stroke-linecap="round" stroke-linejoin="round" transform="translate(-5.856 98.835) rotate(-70.421)"></path><path d="M44.314 41.063H49.035V45.784000000000006H44.314z" fill="#daedf7"></path><path d="M44.314 41.063H49.035V43.719H44.314z" fill="#c0dceb"></path><path d="M44.314 41.063H49.035V45.784000000000006H44.314z" fill="none" stroke="#45413c" stroke-linecap="round" stroke-linejoin="round"></path><path d="M37.233 45.784 L56.117 45.784 L56.117 63.488 L37.233 63.488 Z" fill="#ffffff" stroke="#45413c" stroke-linecap="round" stroke-linejoin="round"></path><path d="M43.134 63.488H50.215V70.569H43.134z" fill="#daedf7"></path><path d="M43.14 63.488H50.221000000000004V67.029H43.14z" fill="#c0dceb"></path><path d="M43.134 63.488H50.215V70.569H43.134z" fill="none" stroke="#45413c" stroke-linecap="round" stroke-linejoin="round"></path><path d="M51.4,54.046a2.361,2.361,0,0,1-2.361,2.36H44.314a2.36,2.36,0,0,1-2.36-2.36V45.784H51.4Z" fill="#00b8f0"></path><path d="M49.82 45.784L41.959 53.644 41.959 45.784 49.82 45.784z" fill="#4acfff"></path><path d="M51.4,54.046a2.361,2.361,0,0,1-2.361,2.36H44.314a2.36,2.36,0,0,1-2.36-2.36V45.784H51.4Z" fill="none" stroke="#45413c" stroke-linecap="round" stroke-linejoin="round"></path><path d="M53.432,70.569a2.361,2.361,0,0,1,2.225,3.148,9.446,9.446,0,0,1-17.809,0,2.36,2.36,0,0,1,2.226-3.147Z" fill="#ffffff" stroke="#45413c" stroke-linecap="round" stroke-linejoin="round"></path><path d="M56.135,54.046h4.721A3.542,3.542,0,0,0,64.4,50.505v-1.18a3.541,3.541,0,0,0-3.541-3.541H58.5a2.361,2.361,0,0,0-2.36,2.36Z" fill="#ffffff" stroke="#45413c" stroke-linecap="round" stroke-linejoin="round"></path><path d="M71.846 48.378H84.87100000000001V53.099000000000004H71.846z" fill="#f0f0f0" transform="translate(8.096 112.201) rotate(-74.102)"></path><path d="M77.873,43.829l-.918,3.222q.058.13.129.258a3.541,3.541,0,0,0,4.243,1.626l1.086-3.813Z" fill="#e0e0e0"></path><path d="M71.846 48.378H84.87100000000001V53.099000000000004H71.846z" fill="#ffffff" stroke="#45413c" stroke-linecap="round" stroke-linejoin="round" transform="translate(8.096 112.201) rotate(-74.102)"></path><path d="M85.746,33.928a.59.59,0,0,1,.86.178,6.2,6.2,0,1,1-9.528-1.452.592.592,0,0,1,.874.086l1.057,1.438a.588.588,0,0,1-.056.765,3.246,3.246,0,1,0,5.182.79.589.589,0,0,1,.174-.748Z" fill="#656769"></path><path d="M85.746,33.928a.59.59,0,0,1,.86.178,6.2,6.2,0,1,1-9.528-1.452.592.592,0,0,1,.874.086l1.057,1.438a.588.588,0,0,1-.056.765,3.246,3.246,0,1,0,5.182.79.589.589,0,0,1,.174-.748Z" fill="none" stroke="#45413c" stroke-linecap="round" stroke-linejoin="round"></path><path d="M77.408 42.970 A3.541 3.541 0 1 0 84.490 42.970 A3.541 3.541 0 1 0 77.408 42.970 Z" fill="#ffffff" stroke="#45413c" stroke-linecap="round" stroke-linejoin="round"></path><path d="M72.539 57.589 A3.541 3.541 0 1 0 79.621 57.589 A3.541 3.541 0 1 0 72.539 57.589 Z" fill="#ffffff" stroke="#45413c" stroke-linecap="round" stroke-linejoin="round"></path><path d="M59.657,15.347H33.692c0-6.515,5.807-11.8,12.983-11.8S59.657,8.832,59.657,15.347Z" fill="#ffe500"></path><path d="M46.675,6.637c6,0,11.037,3.693,12.531,8.71h.451c0-6.515-5.806-11.8-12.982-11.8s-12.983,5.288-12.983,11.8h.451C35.637,10.33,40.677,6.637,46.675,6.637Z" fill="#fff48c"></path><path d="M59.657,15.347H33.692c0-6.515,5.807-11.8,12.983-11.8S59.657,8.832,59.657,15.347Z" fill="none" stroke="#45413c" stroke-linecap="round" stroke-linejoin="round"></path><path d="M49.035,12.986H44.314l-1.05-10.5a1.179,1.179,0,0,1,1.174-1.3h4.473a1.181,1.181,0,0,1,1.175,1.3Z" fill="#ffe500"></path><path d="M43.467,4.512a1.224,1.224,0,0,1,.1-.122A1.18,1.18,0,0,1,44.438,4h4.473a1.18,1.18,0,0,1,.875.388,1.224,1.224,0,0,1,.1.122l.2-2.031a1.179,1.179,0,0,0-1.174-1.3H44.438a1.179,1.179,0,0,0-1.174,1.3Z" fill="#fff48c"></path><path d="M49.035,12.986H44.314l-1.05-10.5a1.179,1.179,0,0,1,1.174-1.3h4.473a1.181,1.181,0,0,1,1.175,1.3Z" fill="none" stroke="#45413c" stroke-linecap="round" stroke-linejoin="round"></path><path d="M38.281 6.341L37.233 3.544" fill="#ffffff" stroke="#45413c" stroke-linecap="round" stroke-linejoin="round"></path><path d="M55.067 6.342L56.117 3.544" fill="#ffffff" stroke="#45413c" stroke-linecap="round" stroke-linejoin="round"></path><path d="M59.657,15.347H33.692c0-2.609,5.807-4.721,12.983-4.721S59.657,12.738,59.657,15.347Z" fill="#ffe500" stroke="#45413c" stroke-linecap="round" stroke-linejoin="round"></path><path d="M30.151 15.346 L63.198 15.346 L63.198 41.311 L30.151 41.311 Z" fill="#00b8f0"></path><path d="M34.128,41.311h-.436a3.541,3.541,0,0,1-3.541-3.541V18.887a3.541,3.541,0,0,1,3.541-3.541H59.658Z" fill="#4acfff"></path><path d="M30.151 15.346 L63.198 15.346 L63.198 41.311 L30.151 41.311 Z" fill="none" stroke="#45413c" stroke-linecap="round" stroke-linejoin="round"></path><path d="M41.954,31.588a1.477,1.477,0,0,1-1.476-1.475c0-1.342-.628-2.065-.885-2.065s-.885.723-.885,2.065a1.476,1.476,0,0,1-2.951,0c0-2.813,1.685-5.016,3.836-5.016s3.836,2.2,3.836,5.016A1.477,1.477,0,0,1,41.954,31.588Z" fill="#ffffff" stroke="#009fd9" stroke-miterlimit="10"></path><path d="M56.117,31.588a1.477,1.477,0,0,1-1.476-1.475c0-1.342-.628-2.065-.885-2.065s-.885.723-.885,2.065a1.476,1.476,0,0,1-2.951,0c0-2.813,1.685-5.016,3.836-5.016s3.836,2.2,3.836,5.016A1.477,1.477,0,0,1,56.117,31.588Z" fill="#ffffff" stroke="#009fd9" stroke-miterlimit="10"></path><path d="M18.012 51.899H35.716V56.620000000000005H18.012z" fill="#f0f0f0" transform="translate(-22.236 18.835) rotate(-27.85)"></path><path d="M35.421,51.507l-1.833-3.469-6.429,3.4v.289a3.541,3.541,0,0,0,2.952,3.491l5.31-2.806Z" fill="#e0e0e0"></path><path d="M18.012 51.899H35.716V56.620000000000005H18.012z" fill="#ffffff" stroke="#45413c" stroke-linecap="round" stroke-linejoin="round" transform="translate(-22.236 18.835) rotate(-27.85)"></path><path d="M18.088 58.151L22.747 57.39 22.627 67.775 17.968 68.537 18.088 58.151z" fill="#f0f0f0"></path><path d="M18.038,62.452a3.491,3.491,0,0,0,.347.265,3.541,3.541,0,0,0,4.3-.274l.058-5.053-4.659.761Z" fill="#e0e0e0"></path><path d="M18.088 58.151L22.747 57.39 22.627 67.775 17.968 68.537 18.088 58.151z" fill="#ffffff" stroke="#45413c" stroke-linecap="round" stroke-linejoin="round"></path><path d="M29.4,70.188a.59.59,0,0,0,.07-.875,6.2,6.2,0,1,0-1.28,9.552A.591.591,0,0,0,28.353,78l-1.084-1.419a.589.589,0,0,0-.75-.16,3.246,3.246,0,1,1,.7-5.2.588.588,0,0,0,.766.043Z" fill="#656769"></path><path d="M29.4,70.188a.59.59,0,0,0,.07-.875,6.2,6.2,0,1,0-1.28,9.552A.591.591,0,0,0,28.353,78l-1.084-1.419a.589.589,0,0,0-.75-.16,3.246,3.246,0,1,1,.7-5.2.588.588,0,0,0,.766.043Z" fill="none" stroke="#45413c" stroke-linecap="round" stroke-linejoin="round"></path><path d="M37.233,54.046H32.512a3.541,3.541,0,0,1-3.541-3.541v-1.18a3.541,3.541,0,0,1,3.541-3.541h2.36a2.361,2.361,0,0,1,2.361,2.36Z" fill="#ffffff" stroke="#45413c" stroke-linecap="round" stroke-linejoin="round"></path><path d="M17.102 57.587 A3.541 3.541 0 1 0 24.184 57.587 A3.541 3.541 0 1 0 17.102 57.587 Z" fill="#f0f0f0" stroke="#45413c" stroke-linecap="round" stroke-linejoin="round"></path><path d="M17.485 69.459 A3.541 3.541 0 1 0 24.567 69.459 A3.541 3.541 0 1 0 17.485 69.459 Z" fill="#ffffff" stroke="#45413c" stroke-linecap="round" stroke-linejoin="round"></path><path d="M34.075,96.924a2.359,2.359,0,0,1-2.313,1.892H21.024a2.361,2.361,0,0,1-2.314-1.892L16.944,85.578a1.181,1.181,0,0,1,1.167-1.362H34.675a1.18,1.18,0,0,1,1.166,1.362Z" fill="#daedf7"></path><path d="M17.127,86.75l-.183-1.172a1.181,1.181,0,0,1,1.167-1.362H34.675a1.18,1.18,0,0,1,1.166,1.362l-.182,1.174Z" fill="#e8f4fa"></path><path d="M19.093,84.216V80.261a7.181,7.181,0,0,1,14.362,0v3.955" fill="none" stroke="#45413c" stroke-linecap="round" stroke-linejoin="round"></path><path d="M34.075,96.924a2.359,2.359,0,0,1-2.313,1.892H21.024a2.361,2.361,0,0,1-2.314-1.892L16.944,85.578a1.181,1.181,0,0,1,1.167-1.362H34.675a1.18,1.18,0,0,1,1.166,1.362Z" fill="none" stroke="#45413c" stroke-linecap="round" stroke-linejoin="round"></path><path d="M32.673,91.472a2.361,2.361,0,1,1-4.721,0v-2.36a1.18,1.18,0,0,1-2.36,0V84.391a1.18,1.18,0,0,1,1.18-1.18h4.721a1.18,1.18,0,0,1,1.18,1.18Z" fill="#fffacf"></path><path d="M32.673,84.391v2.36c0-.649-.531-1.18-1.18-.737H26.772c-.649-.443-1.18.088-1.18.737v-2.36a1.183,1.183,0,0,1,1.18-1.18h4.721A1.183,1.183,0,0,1,32.673,84.391Z" fill="#fffef2"></path><path d="M32.673,91.472a2.361,2.361,0,1,1-4.721,0v-2.36a1.18,1.18,0,0,1-2.36,0V84.391a1.18,1.18,0,0,1,1.18-1.18h4.721a1.18,1.18,0,0,1,1.18,1.18Z" fill="none" stroke="#45413c" stroke-linecap="round" stroke-linejoin="round"></path><path d="M81.653,29.193V24.585a3.5,3.5,0,0,1,2.536-3.361,3.5,3.5,0,0,0,2.535-3.361V14.7" fill="none" stroke="#45413c" stroke-linecap="round" stroke-linejoin="round"></path><path d="M92.158,13.255a5.8,5.8,0,1,1-11.591,0c0-2.229,2.81-7.852,4.516-11.062a1.449,1.449,0,0,1,2.559,0C89.348,5.405,92.158,11.027,92.158,13.255Z" fill="#daedf7"></path><path d="M84.551,34.988a2.9,2.9,0,1,1-5.8,0V27.744A1.448,1.448,0,0,1,80.2,26.3h2.9a1.449,1.449,0,0,1,1.449,1.449Z" fill="#ff6242"></path><path d="M84.551,27.744V31.67A1.453,1.453,0,0,0,83.1,30.221H80.2a1.452,1.452,0,0,0-1.448,1.449V27.744A1.452,1.452,0,0,1,80.2,26.3h2.9A1.453,1.453,0,0,1,84.551,27.744Z" fill="#ff866e"></path><path d="M84.551,34.988a2.9,2.9,0,1,1-5.8,0V27.744A1.448,1.448,0,0,1,80.2,26.3h2.9a1.449,1.449,0,0,1,1.449,1.449Z" fill="none" stroke="#45413c" stroke-linecap="round" stroke-linejoin="round"></path><path d="M81.448,16.328a5.759,5.759,0,0,1-.881-3.073c0-2.229,2.81-7.852,4.516-11.062a1.449,1.449,0,0,1,2.559,0c.773,1.454,1.772,3.4,2.634,5.308Z" fill="#ffffff"></path><path d="M92.158,13.255a5.8,5.8,0,1,1-11.591,0c0-2.229,2.81-7.852,4.516-11.062a1.449,1.449,0,0,1,2.559,0C89.348,5.405,92.158,11.027,92.158,13.255Z" fill="none" stroke="#45413c" stroke-linecap="round" stroke-linejoin="round"></path></g></svg>