<svg xmlns="http://www.w3.org/2000/svg" version="1.1" xmlns:xlink="http://www.w3.org/1999/xlink" xmlns:svgjs="http://svgjs.com/svgjs" viewBox="0 0 200 200" width="200" height="200"><g transform="matrix(2,0,0,2,0,0)"><path d="M8.424 49.750 A40.000 40.000 0 1 0 88.424 49.750 A40.000 40.000 0 1 0 8.424 49.750 Z" fill="#e8f4fa" stroke="#daedf7" stroke-miterlimit="10"></path><path d="M73.924,60.3H23.012V13.614a3,3,0,0,1,3-3H70.924a3,3,0,0,1,3,3Z" fill="#e5fff9" stroke="#45413c" stroke-linecap="round" stroke-linejoin="round"></path><path d="M70.424,17.8a3,3,0,0,0-2.493-2.957,118.819,118.819,0,0,0-20.007-1.5A106.081,106.081,0,0,0,28.881,14.8a3,3,0,0,0-2.457,2.951V41.887a3,3,0,0,0,2.457,2.951A106.05,106.05,0,0,0,47.924,46.3a118.929,118.929,0,0,0,20.007-1.5,3,3,0,0,0,2.493-2.957Z" fill="#ccfff3"></path><path d="M47.924,17.3a13,13,0,0,0-13,13l.884,15.471c3.2.3,7.23.529,12.116.529,4.758,0,8.809-.216,12.115-.506L60.924,30.3A13,13,0,0,0,47.924,17.3Z" fill="#8cffe4"></path><path d="M70.424,17.8a3,3,0,0,0-2.493-2.957,118.819,118.819,0,0,0-20.007-1.5A106.081,106.081,0,0,0,28.881,14.8a3,3,0,0,0-2.457,2.951V41.887a3,3,0,0,0,2.457,2.951A106.05,106.05,0,0,0,47.924,46.3a118.929,118.929,0,0,0,20.007-1.5,3,3,0,0,0,2.493-2.957Z" fill="none" stroke="#45413c" stroke-linecap="round" stroke-linejoin="round"></path><path d="M33.424,77.3v2a2.5,2.5,0,1,0,5,0v-2Z" fill="#ffcebf" stroke="#45413c" stroke-linecap="round" stroke-linejoin="round"></path><path d="M57.424,77.3v2a2.5,2.5,0,1,0,5,0v-2Z" fill="#ffcebf" stroke="#45413c" stroke-linecap="round" stroke-linejoin="round"></path><path d="M63.424,60.8a15.5,15.5,0,0,0-16.25-15.483,15.788,15.788,0,0,0-14.75,15.92V76.3a1,1,0,0,0,1,1h5v-17h19v17h5a1,1,0,0,0,1-1Z" fill="#ffb0ca"></path><path d="M63.424,60.8a15.5,15.5,0,0,0-16.25-15.483,15.788,15.788,0,0,0-14.75,15.92V76.3a1,1,0,0,0,1,1h5v-17h19v17h5a1,1,0,0,0,1-1Z" fill="#ffa694"></path><path d="M63.424,60.8a15.5,15.5,0,0,0-16.25-15.483,15.788,15.788,0,0,0-14.75,15.92V76.3a1,1,0,0,0,1,1h5v-17h19v17h5a1,1,0,0,0,1-1Z" fill="none" stroke="#45413c" stroke-linecap="round" stroke-linejoin="round"></path><path d="M44.424,45.8a3.5,3.5,0,0,0,7,0V42.3h-7Z" fill="#ffcebf"></path><path d="M44.424,45.786a12.173,12.173,0,0,0,7,0V42.3h-7Z" fill="#ffb59e"></path><path d="M47.924,49.3a3.5,3.5,0,0,1-3.5-3.5V42.3h7v3.5A3.5,3.5,0,0,1,47.924,49.3Z" fill="none" stroke="#45413c" stroke-linecap="round" stroke-linejoin="round"></path><path d="M38.424 60.3L38.424 59.3" fill="none" stroke="#45413c" stroke-linecap="round" stroke-linejoin="round"></path><path d="M57.424 60.3L57.424 59.3" fill="none" stroke="#45413c" stroke-linecap="round" stroke-linejoin="round"></path><path d="M58.428,35.735a2,2,0,0,1-.5.065c-.042,0-.081-.01-.123-.013a10,10,0,0,1-3.3,6.039,3.324,3.324,0,0,0,2.112.516.3.3,0,0,0,.26-.347c-.064-.374-.171-1.029-.248-1.585a.3.3,0,0,1,.406-.313,3.31,3.31,0,0,0,1.585.245A.3.3,0,0,0,58.879,40C58.76,39.188,58.449,36.961,58.428,35.735Z" fill="#ffdf3d" stroke="#45413c" stroke-linecap="round" stroke-linejoin="round"></path><path d="M38.046,35.787c-.041,0-.08.013-.122.013a2.022,2.022,0,0,1-.495-.062c-.021,1.226-.332,3.453-.45,4.26a.3.3,0,0,0,.262.343,3.307,3.307,0,0,0,1.587-.244.3.3,0,0,1,.406.313c-.077.554-.184,1.207-.248,1.582a.3.3,0,0,0,.263.35,3.324,3.324,0,0,0,2.1-.513A10,10,0,0,1,38.046,35.787Z" fill="#ffdf3d" stroke="#45413c" stroke-linecap="round" stroke-linejoin="round"></path><path d="M37.924,31.8V29.3a10,10,0,0,1,20,0v2.5a2,2,0,1,1,0,4c-.042,0-.081-.01-.123-.013a9.987,9.987,0,0,1-19.755,0c-.041,0-.08.013-.122.013a2,2,0,1,1,0-4Z" fill="#ffcebf"></path><path d="M37.924,31.8V29.3a10,10,0,0,1,20,0v2.5a2,2,0,1,1,0,4c-.042,0-.081-.01-.123-.013a9.987,9.987,0,0,1-19.755,0c-.041,0-.08.013-.122.013a2,2,0,1,1,0-4Z" fill="none" stroke="#45413c" stroke-linecap="round" stroke-linejoin="round"></path><path d="M52.424 36.050 A1.250 1.250 0 1 0 54.924 36.050 A1.250 1.250 0 1 0 52.424 36.050 Z" fill="#ffb59e"></path><path d="M40.924 36.050 A1.250 1.250 0 1 0 43.424 36.050 A1.250 1.250 0 1 0 40.924 36.050 Z" fill="#ffb59e"></path><path d="M42.425,32.8h3.008" fill="none" stroke="#45413c" stroke-linecap="round" stroke-linejoin="round"></path><path d="M50.433,32.8h3.009" fill="none" stroke="#45413c" stroke-linecap="round" stroke-linejoin="round"></path><path d="M57.924,31.8h0a1,1,0,0,1-1-1v-.608a.99.99,0,0,0-.807-.98A5.328,5.328,0,0,1,52.424,26.8h0v1.5a1,1,0,0,1-1,1h-.5c-2.849,0-4.43-2.79-5.1-4.4a.493.493,0,0,0-.845-.105,12.127,12.127,0,0,1-5.38,4.307,1,1,0,0,0-.672.944v.75a1,1,0,0,1-1,1h0a1,1,0,0,1-1-1v-2a11,11,0,0,1,11-11h0a11,11,0,0,1,11,11.005v2A1,1,0,0,1,57.924,31.8Z" fill="#ffdf3d"></path><path d="M47.924,17.8a11,11,0,0,0-11,11v2a.98.98,0,0,0,.027.231,11,11,0,0,1,21.946.006,1.029,1.029,0,0,0,.027-.231v-2A11,11,0,0,0,47.924,17.8Z" fill="#ffef9e"></path><path d="M57.924,31.8h0a1,1,0,0,1-1-1v-.608a.99.99,0,0,0-.807-.98A5.328,5.328,0,0,1,52.424,26.8h0v1.5a1,1,0,0,1-1,1h-.5c-2.849,0-4.43-2.79-5.1-4.4a.493.493,0,0,0-.845-.105,12.127,12.127,0,0,1-5.38,4.307,1,1,0,0,0-.672.944v.75a1,1,0,0,1-1,1h0a1,1,0,0,1-1-1v-2a11,11,0,0,1,11-11h0a11,11,0,0,1,11,11.005v2A1,1,0,0,1,57.924,31.8Z" fill="none" stroke="#45413c" stroke-linecap="round" stroke-linejoin="round"></path><path d="M52.686,39.328a4.832,4.832,0,0,1-1.9-2.473,3,3,0,0,0-5.673-.168,5.47,5.47,0,0,1-1.933,2.628,2.987,2.987,0,0,0-1.118,3.362,3.078,3.078,0,0,0,2.973,2.073h5.646a3.422,3.422,0,0,0,1.842-.49A2.969,2.969,0,0,0,52.686,39.328Z" fill="#80ddff"></path><path d="M42.208,43.043a2.931,2.931,0,0,1,.976-1.173,5.4,5.4,0,0,0,1.93-2.62,3.008,3.008,0,0,1,5.68.16,4.8,4.8,0,0,0,1.89,2.48,2.805,2.805,0,0,1,.95,1.14,2.981,2.981,0,0,0-.948-3.7,4.832,4.832,0,0,1-1.9-2.473,3,3,0,0,0-5.673-.168,5.47,5.47,0,0,1-1.933,2.628,2.987,2.987,0,0,0-1.118,3.362A2.7,2.7,0,0,0,42.208,43.043Z" fill="#b8ecff"></path><path d="M52.686,39.328a4.832,4.832,0,0,1-1.9-2.473,3,3,0,0,0-5.673-.168,5.47,5.47,0,0,1-1.933,2.628,2.987,2.987,0,0,0-1.118,3.362,3.078,3.078,0,0,0,2.973,2.073h5.646a3.422,3.422,0,0,0,1.842-.49A2.969,2.969,0,0,0,52.686,39.328Z" fill="none" stroke="#45413c" stroke-linecap="round" stroke-linejoin="round"></path><path d="M33.424,77.3v2a2.5,2.5,0,1,0,5,0v-2Z" fill="#ffcebf" stroke="#45413c" stroke-linecap="round" stroke-linejoin="round"></path><path d="M57.424,77.3v2a2.5,2.5,0,1,0,5,0v-2Z" fill="#ffcebf" stroke="#45413c" stroke-linecap="round" stroke-linejoin="round"></path><path d="M38.424 60.3L38.424 59.3" fill="none" stroke="#45413c" stroke-linecap="round" stroke-linejoin="round"></path><path d="M57.424 60.3L57.424 59.3" fill="none" stroke="#45413c" stroke-linecap="round" stroke-linejoin="round"></path><path d="M75.424,90.25V49.572a2,2,0,0,0-2-2h-50.3a2,2,0,0,0-2,2V89.977" fill="#ccfff3" stroke="#45413c" stroke-linecap="round" stroke-linejoin="round"></path><path d="M35.424 65.750 L61.424 65.750 L61.424 89.750 L35.424 89.750 Z" fill="#8cffe4" stroke="#45413c" stroke-linecap="round" stroke-linejoin="round"></path><path d="M41.424 77.750 A7.000 7.000 0 1 0 55.424 77.750 A7.000 7.000 0 1 0 41.424 77.750 Z" fill="#ffcebf"></path><path d="M44.923 41.750 A3.000 3.000 0 1 0 50.923 41.750 A3.000 3.000 0 1 0 44.923 41.750 Z" fill="#87898c"></path><path d="M45.1,42.77a2.988,2.988,0,0,1,5.646,0,3,3,0,1,0-5.646,0Z" fill="#bdbec0"></path><path d="M44.923 41.750 A3.000 3.000 0 1 0 50.923 41.750 A3.000 3.000 0 1 0 44.923 41.750 Z" fill="none" stroke="#45413c" stroke-linecap="round" stroke-linejoin="round"></path><path d="M78.462,25.98V47.455a3.776,3.776,0,0,1-1.121,2.675A3.831,3.831,0,0,1,74.633,51.2l-21.775-.127a3.767,3.767,0,0,1-3.685-3.749v-4.58a1.25,1.25,0,1,0-2.5,0v4.58a6.282,6.282,0,0,0,6.156,6.249L74.6,53.7h.107a6.249,6.249,0,0,0,6.252-6.25V25.98" fill="#b8ecff" stroke="#45413c" stroke-linecap="round" stroke-linejoin="round"></path><path d="M41.584,79.248a7,7,0,0,1,13.679,0,7,7,0,1,0-13.714-.174" fill="#ffb59e"></path><path d="M41.424 77.750 A7.000 7.000 0 1 0 55.424 77.750 A7.000 7.000 0 1 0 41.424 77.750 Z" fill="none" stroke="#45413c" stroke-linecap="round" stroke-linejoin="round"></path><path d="M48.424,71.75s-5,5,0,12C53.424,76.75,48.424,71.75,48.424,71.75Z" fill="#e04122" stroke="#45413c" stroke-linecap="round" stroke-linejoin="round"></path><path d="M38.281,67.535,36.16,69.656l2.121,2.121a1,1,0,0,0,1.414,0l.707-.707a1,1,0,0,0,0-1.414Z" fill="#ffffff" stroke="#45413c" stroke-miterlimit="10"></path><path d="M40.048,71.425l2.311,2.31.129,2.919a1,1,0,0,0,.8.936l3.027.618a.2.2,0,0,0,.182-.337l-4.233-4.233" fill="#e8f4fa" stroke="#45413c" stroke-linecap="round" stroke-linejoin="round"></path><path d="M32.624,60.464,29.089,64l5.656,5.657a1,1,0,0,0,1.415,0l2.121-2.121a1,1,0,0,0,0-1.415Z" fill="#ffffff"></path><path d="M32.624,60.464,29.089,64l5.656,5.657a1,1,0,0,0,1.415,0l2.121-2.121a1,1,0,0,0,0-1.415Z" fill="none" stroke="#45413c" stroke-miterlimit="10"></path><path d="M34.891,62.674a4,4,0,0,1-3.53,3.6l-1.48-1.48a4,4,0,0,0,3.737-3.334Z" fill="#daedf7"></path><path d="M32.624,60.464,29.089,64l5.656,5.657a1,1,0,0,0,1.415,0l2.121-2.121a1,1,0,0,0,0-1.415Z" fill="none" stroke="#45413c" stroke-miterlimit="10"></path><path d="M13.672,64.8h16a4,4,0,0,0,4-4h0a4,4,0,0,0-4-4h-16Z" fill="#ffffff" stroke="#45413c" stroke-linecap="round" stroke-linejoin="round"></path><path d="M28.172 60.797 A1.500 1.500 0 1 0 31.172 60.797 A1.500 1.500 0 1 0 28.172 60.797 Z" fill="#ffffff" stroke="#45413c" stroke-linecap="round" stroke-linejoin="round"></path><path d="M6.172,65.8h9a1,1,0,0,0,1-1v-8a1,1,0,0,0-1-1h-9a5,5,0,0,0-5,5h0A5,5,0,0,0,6.172,65.8Z" fill="#e0e0e0" stroke="#45413c" stroke-linecap="round" stroke-linejoin="round"></path><path d="M55.355,60.9l2.122,2.121-2.122,2.121a1,1,0,0,1-1.414,0l-.707-.707a1,1,0,0,1,0-1.414Z" fill="#e8f4fa" stroke="#45413c" stroke-miterlimit="10"></path><path d="M54.3,65.491l-1.414-1.414-1.72,1.72a3.465,3.465,0,0,0-1.652-.433,3.5,3.5,0,0,0-3.5,3.5,1,1,0,0,0,2,0,1.5,1.5,0,1,1,1.5,1.5,1,1,0,1,0,0,2,3.5,3.5,0,0,0,3.5-3.5,3.452,3.452,0,0,0-.434-1.653Z" fill="#ffffff" stroke="#45413c" stroke-linecap="round" stroke-linejoin="round"></path><path d="M61.012,53.824l3.536,3.535-5.657,5.657a1,1,0,0,1-1.414,0L55.355,60.9a1,1,0,0,1,0-1.414Z" fill="#e8f4fa"></path><path d="M61.012,53.824l3.536,3.535-5.657,5.657a1,1,0,0,1-1.414,0L55.355,60.9a1,1,0,0,1,0-1.414Z" fill="none" stroke="#45413c" stroke-miterlimit="10"></path><path d="M58.745,56.034a4,4,0,0,0,3.53,3.6l1.48-1.48a4,4,0,0,1-3.737-3.334Z" fill="#b8ecff"></path><path d="M61.012,53.824l3.536,3.535-5.657,5.657a1,1,0,0,1-1.414,0L55.355,60.9a1,1,0,0,1,0-1.414Z" fill="#ffffff" stroke="#45413c" stroke-miterlimit="10"></path><path d="M79.964,58.157h-16a4,4,0,0,1-4-4h0a4,4,0,0,1,4-4h16Z" fill="#ffffff" stroke="#45413c" stroke-linecap="round" stroke-linejoin="round"></path><path d="M62.464 54.157 A1.500 1.500 0 1 0 65.464 54.157 A1.500 1.500 0 1 0 62.464 54.157 Z" fill="#ffffff" stroke="#45413c" stroke-linecap="round" stroke-linejoin="round"></path><path d="M87.732,59.254h-9a1,1,0,0,1-1-1v-8a1,1,0,0,1,1-1h9a5,5,0,0,1,5,5h0A5,5,0,0,1,87.732,59.254Z" fill="#e0e0e0" stroke="#45413c" stroke-linecap="round" stroke-linejoin="round"></path><path d="M61.583,74.2,62.7,76.982,59.917,78.1a1,1,0,0,1-1.3-.555l-.373-.928a1,1,0,0,1,.555-1.3Z" fill="#e8f4fa" stroke="#45413c" stroke-miterlimit="10"></path><path d="M58.8,78.01l-.746-1.856L55.8,77.06a3.453,3.453,0,0,0-1.348-1.047,3.505,3.505,0,0,0-4.593,1.845,1,1,0,1,0,1.839.786,1.5,1.5,0,1,1,.791,1.968,1,1,0,1,0-.785,1.839A3.5,3.5,0,0,0,56.3,80.606a3.453,3.453,0,0,0,.249-1.69Z" fill="#ffffff" stroke="#45413c" stroke-linecap="round" stroke-linejoin="round"></path><path d="M69.561,69.915l1.864,4.639L64,77.537a1,1,0,0,1-1.3-.555L61.583,74.2a1,1,0,0,1,.555-1.3Z" fill="#ffffff"></path><path d="M69.561,69.915l1.864,4.639L64,77.537a1,1,0,0,1-1.3-.555L61.583,74.2a1,1,0,0,1,.555-1.3Z" fill="none" stroke="#45413c" stroke-miterlimit="10"></path><path d="M66.608,71.058a4,4,0,0,0,1.835,4.695l1.942-.781a4,4,0,0,1-2.128-4.533Z" fill="#daedf7"></path><path d="M69.561,69.915l1.864,4.639L64,77.537a1,1,0,0,1-1.3-.555L61.583,74.2a1,1,0,0,1,.555-1.3Z" fill="none" stroke="#45413c" stroke-miterlimit="10"></path><path d="M85.291,81.34,70.575,75.059a4,4,0,0,1-2.109-5.249h0a4,4,0,0,1,5.25-2.109l14.715,6.281Z" fill="#ffffff" stroke="#45413c" stroke-linecap="round" stroke-linejoin="round"></path><path d="M70.645 71.380 A1.500 1.500 0 1 0 73.645 71.380 A1.500 1.500 0 1 0 70.645 71.380 Z" fill="#ffffff" stroke="#45413c" stroke-linecap="round" stroke-linejoin="round"></path><path d="M91.864,85.285l-8.278-3.532a1,1,0,0,1-.527-1.313l3.14-7.358a1,1,0,0,1,1.313-.527l8.277,3.533a5,5,0,0,1,2.636,6.561h0A5,5,0,0,1,91.864,85.285Z" fill="#e0e0e0" stroke="#45413c" stroke-linecap="round" stroke-linejoin="round"></path></g></svg>