<svg xmlns="http://www.w3.org/2000/svg" version="1.1" xmlns:xlink="http://www.w3.org/1999/xlink" xmlns:svgjs="http://svgjs.com/svgjs" viewBox="0 0 200 200" width="200" height="200"><g transform="matrix(2,0,0,2,0,0)"><path d="M8.424 49.750 A40.000 40.000 0 1 0 88.424 49.750 A40.000 40.000 0 1 0 8.424 49.750 Z" fill="#e8f4fa" stroke="#daedf7" stroke-miterlimit="10"></path><path d="M73.924,60.544H23.012V13.858a3,3,0,0,1,3-3H70.924a3,3,0,0,1,3,3Z" fill="#e5fff9" stroke="#45413c" stroke-linecap="round" stroke-linejoin="round"></path><path d="M70.424,18.044a3,3,0,0,0-2.493-2.957,118.819,118.819,0,0,0-20.007-1.5,106.081,106.081,0,0,0-19.043,1.461A3,3,0,0,0,26.424,18V42.131a3,3,0,0,0,2.457,2.951,106.05,106.05,0,0,0,19.043,1.462,118.929,118.929,0,0,0,20.007-1.5,3,3,0,0,0,2.493-2.957Z" fill="#ccfff3"></path><path d="M58.5,21.742a8.659,8.659,0,0,0-1.142-2.021,8.137,8.137,0,0,0-9.116-2.78,1.113,1.113,0,0,1-.734,0,8.137,8.137,0,0,0-9.116,2.78,8.7,8.7,0,0,0-1.142,2.021l-.377.9a50.49,50.49,0,0,0-3.881,19.413v.605a5.893,5.893,0,0,0,.923,3.155,124.357,124.357,0,0,0,14.013.725,135.47,135.47,0,0,0,13.87-.673,5.887,5.887,0,0,0,.96-3.207v-.605a50.49,50.49,0,0,0-3.881-19.413Z" fill="#8cffe4"></path><path d="M70.424,18.044a3,3,0,0,0-2.493-2.957,118.819,118.819,0,0,0-20.007-1.5,106.081,106.081,0,0,0-19.043,1.461A3,3,0,0,0,26.424,18V42.131a3,3,0,0,0,2.457,2.951,106.05,106.05,0,0,0,19.043,1.462,118.929,118.929,0,0,0,20.007-1.5,3,3,0,0,0,2.493-2.957Z" fill="none" stroke="#45413c" stroke-linecap="round" stroke-linejoin="round"></path><path d="M33.424,77.544v2a2.5,2.5,0,1,0,5,0v-2Z" fill="#ffcebf" stroke="#45413c" stroke-linecap="round" stroke-linejoin="round"></path><path d="M57.424,77.544v2a2.5,2.5,0,1,0,5,0v-2Z" fill="#ffcebf" stroke="#45413c" stroke-linecap="round" stroke-linejoin="round"></path><path d="M63.424,61.044a15.5,15.5,0,0,0-16.25-15.483,15.788,15.788,0,0,0-14.75,15.92V76.544a1,1,0,0,0,1,1h5v-17h19v17h5a1,1,0,0,0,1-1Z" fill="#ffb0ca"></path><path d="M63.424,61.044a15.5,15.5,0,0,0-16.25-15.483,15.788,15.788,0,0,0-14.75,15.92V76.544a1,1,0,0,0,1,1h5v-17h19v17h5a1,1,0,0,0,1-1Z" fill="#ffa694"></path><path d="M63.424,61.044a15.5,15.5,0,0,0-16.25-15.483,15.788,15.788,0,0,0-14.75,15.92V76.544a1,1,0,0,0,1,1h5v-17h19v17h5a1,1,0,0,0,1-1Z" fill="none" stroke="#45413c" stroke-linecap="round" stroke-linejoin="round"></path><path d="M44.424,46.044a3.5,3.5,0,0,0,7,0v-3.5h-7Z" fill="#ffda8f"></path><path d="M44.424,46.03a12.173,12.173,0,0,0,7,0V42.544h-7Z" fill="#ffbe3d"></path><path d="M47.924,49.544a3.5,3.5,0,0,1-3.5-3.5v-3.5h7v3.5A3.5,3.5,0,0,1,47.924,49.544Z" fill="none" stroke="#45413c" stroke-linecap="round" stroke-linejoin="round"></path><path d="M38.424 60.544L38.424 59.544" fill="none" stroke="#45413c" stroke-linecap="round" stroke-linejoin="round"></path><path d="M57.424 60.544L57.424 59.544" fill="none" stroke="#45413c" stroke-linecap="round" stroke-linejoin="round"></path><path d="M37.924,32.044v-2.5a10,10,0,0,1,20,0v2.5a2,2,0,0,1,0,4c-.042,0-.081-.01-.123-.013a9.987,9.987,0,0,1-19.755,0c-.041,0-.08.013-.122.013a2,2,0,1,1,0-4Z" fill="#ffda8f"></path><path d="M37.924,32.044v-2.5a10,10,0,0,1,20,0v2.5a2,2,0,0,1,0,4c-.042,0-.081-.01-.123-.013a9.987,9.987,0,0,1-19.755,0c-.041,0-.08.013-.122.013a2,2,0,1,1,0-4Z" fill="none" stroke="#45413c" stroke-linecap="round" stroke-linejoin="round"></path><path d="M52.424 36.294 A1.250 1.250 0 1 0 54.924 36.294 A1.250 1.250 0 1 0 52.424 36.294 Z" fill="#ffbe3d"></path><path d="M40.924 36.294 A1.250 1.250 0 1 0 43.424 36.294 A1.250 1.250 0 1 0 40.924 36.294 Z" fill="#ffbe3d"></path><path d="M42.425,33.043h3.008" fill="none" stroke="#45413c" stroke-linecap="round" stroke-linejoin="round"></path><path d="M50.433,33.043h3.009" fill="none" stroke="#45413c" stroke-linecap="round" stroke-linejoin="round"></path><path d="M52.686,39.572a4.832,4.832,0,0,1-1.9-2.473,3,3,0,0,0-5.673-.168,5.47,5.47,0,0,1-1.933,2.628,2.987,2.987,0,0,0-1.118,3.362,3.078,3.078,0,0,0,2.973,2.073h5.646a3.422,3.422,0,0,0,1.842-.49A2.969,2.969,0,0,0,52.686,39.572Z" fill="#80ddff"></path><path d="M42.208,43.287a2.931,2.931,0,0,1,.976-1.173,5.4,5.4,0,0,0,1.93-2.62,3.008,3.008,0,0,1,5.68.16,4.8,4.8,0,0,0,1.89,2.48,2.805,2.805,0,0,1,.95,1.14,2.981,2.981,0,0,0-.948-3.7,4.832,4.832,0,0,1-1.9-2.473,3,3,0,0,0-5.673-.168,5.47,5.47,0,0,1-1.933,2.628,2.987,2.987,0,0,0-1.118,3.362A2.7,2.7,0,0,0,42.208,43.287Z" fill="#b8ecff"></path><path d="M52.686,39.572a4.832,4.832,0,0,1-1.9-2.473,3,3,0,0,0-5.673-.168,5.47,5.47,0,0,1-1.933,2.628,2.987,2.987,0,0,0-1.118,3.362,3.078,3.078,0,0,0,2.973,2.073h5.646a3.422,3.422,0,0,0,1.842-.49A2.969,2.969,0,0,0,52.686,39.572Z" fill="none" stroke="#45413c" stroke-linecap="round" stroke-linejoin="round"></path><path d="M57.481,23.9l-.329-.789a7.562,7.562,0,0,0-1-1.765,7.109,7.109,0,0,0-7.963-2.429.981.981,0,0,1-.642,0,7.109,7.109,0,0,0-7.963,2.429,7.635,7.635,0,0,0-1,1.765l-.329.789a44.108,44.108,0,0,0-3.39,16.957v.529a5.173,5.173,0,0,0,2.894,4.637,5.281,5.281,0,0,0,2.362.513h.945a.538.538,0,0,0,.372-.926,7.217,7.217,0,0,1-1.566-4.613A45.706,45.706,0,0,1,42.436,26.7l.157-.28a2.717,2.717,0,0,1,4-.848l.675.506a1,1,0,0,0,1.2,0l.675-.506a2.717,2.717,0,0,1,4,.848l.157.28a45.682,45.682,0,0,1,2.558,14.285A7.223,7.223,0,0,1,54.3,45.606a.538.538,0,0,0,.372.926h.945a5.281,5.281,0,0,0,2.362-.513,5.171,5.171,0,0,0,2.894-4.637v-.529A44.108,44.108,0,0,0,57.481,23.9Z" fill="#614b44"></path><path d="M57.481,23.9l-.329-.79a7.556,7.556,0,0,0-1-1.764,7.109,7.109,0,0,0-7.963-2.429.981.981,0,0,1-.642,0,7.109,7.109,0,0,0-7.963,2.429,7.628,7.628,0,0,0-1,1.764l-.329.79a44.108,44.108,0,0,0-3.39,16.957v.529a5.271,5.271,0,0,0,.039.629A44.115,44.115,0,0,1,38.261,26.9l.329-.79a7.628,7.628,0,0,1,1-1.764,7.109,7.109,0,0,1,7.963-2.429.981.981,0,0,0,.642,0,7.109,7.109,0,0,1,7.963,2.429,7.556,7.556,0,0,1,1,1.764l.329.79a44.115,44.115,0,0,1,3.351,15.115,5.271,5.271,0,0,0,.039-.629v-.529A44.108,44.108,0,0,0,57.481,23.9Z" fill="#947063"></path><path d="M57.481,23.9l-.329-.789a7.562,7.562,0,0,0-1-1.765,7.109,7.109,0,0,0-7.963-2.429.981.981,0,0,1-.642,0,7.109,7.109,0,0,0-7.963,2.429,7.635,7.635,0,0,0-1,1.765l-.329.789a44.108,44.108,0,0,0-3.39,16.957v.529a5.173,5.173,0,0,0,2.894,4.637,5.281,5.281,0,0,0,2.362.513h.945a.538.538,0,0,0,.372-.926,7.217,7.217,0,0,1-1.566-4.613A45.706,45.706,0,0,1,42.436,26.7l.157-.28a2.717,2.717,0,0,1,4-.848l.675.506a1,1,0,0,0,1.2,0l.675-.506a2.717,2.717,0,0,1,4,.848l.157.28a45.682,45.682,0,0,1,2.558,14.285A7.223,7.223,0,0,1,54.3,45.606a.538.538,0,0,0,.372.926h.945a5.281,5.281,0,0,0,2.362-.513,5.171,5.171,0,0,0,2.894-4.637v-.529A44.108,44.108,0,0,0,57.481,23.9Z" fill="none" stroke="#45413c" stroke-linecap="round" stroke-linejoin="round"></path><path d="M33.424,77.544v2a2.5,2.5,0,1,0,5,0v-2Z" fill="#ffcebf" stroke="#45413c" stroke-linecap="round" stroke-linejoin="round"></path><path d="M57.424,77.544v2a2.5,2.5,0,1,0,5,0v-2Z" fill="#ffcebf" stroke="#45413c" stroke-linecap="round" stroke-linejoin="round"></path><path d="M38.424 60.544L38.424 59.544" fill="none" stroke="#45413c" stroke-linecap="round" stroke-linejoin="round"></path><path d="M57.424 60.544L57.424 59.544" fill="none" stroke="#45413c" stroke-linecap="round" stroke-linejoin="round"></path><path d="M75.424,90.25V49.816a2,2,0,0,0-2-2h-50.3a2,2,0,0,0-2,2V90.25" fill="#ccfff3" stroke="#45413c" stroke-linecap="round" stroke-linejoin="round"></path><path d="M35.424 65.994 L61.424 65.994 L61.424 89.994 L35.424 89.994 Z" fill="#8cffe4" stroke="#45413c" stroke-linecap="round" stroke-linejoin="round"></path><path d="M41.424 77.994 A7.000 7.000 0 1 0 55.424 77.994 A7.000 7.000 0 1 0 41.424 77.994 Z" fill="#ffda8f"></path><path d="M44.923 41.994 A3.000 3.000 0 1 0 50.923 41.994 A3.000 3.000 0 1 0 44.923 41.994 Z" fill="#87898c"></path><path d="M45.1,43.014a2.988,2.988,0,0,1,5.646,0,3,3,0,1,0-5.646,0Z" fill="#bdbec0"></path><path d="M44.923 41.994 A3.000 3.000 0 1 0 50.923 41.994 A3.000 3.000 0 1 0 44.923 41.994 Z" fill="none" stroke="#45413c" stroke-linecap="round" stroke-linejoin="round"></path><path d="M78.462,21.284V47.7a3.776,3.776,0,0,1-1.121,2.675,3.831,3.831,0,0,1-2.708,1.074l-21.775-.127a3.767,3.767,0,0,1-3.685-3.749v-4.58a1.25,1.25,0,1,0-2.5,0v4.58a6.282,6.282,0,0,0,6.156,6.249l21.775.127h.107a6.249,6.249,0,0,0,6.251-6.25V21.284" fill="#b8ecff" stroke="#45413c" stroke-linecap="round" stroke-linejoin="round"></path><path d="M41.584,79.492a7,7,0,0,1,13.679,0,7,7,0,1,0-13.714-.174" fill="#ffbe3d"></path><path d="M41.424 77.994 A7.000 7.000 0 1 0 55.424 77.994 A7.000 7.000 0 1 0 41.424 77.994 Z" fill="none" stroke="#45413c" stroke-linecap="round" stroke-linejoin="round"></path><path d="M48.424,71.994s-5,5,0,12C53.424,76.994,48.424,71.994,48.424,71.994Z" fill="#e04122" stroke="#45413c" stroke-linecap="round" stroke-linejoin="round"></path><path d="M38.281,67.779,36.16,69.9l2.121,2.121a1,1,0,0,0,1.414,0l.707-.707a1,1,0,0,0,0-1.414Z" fill="#ffffff" stroke="#45413c" stroke-miterlimit="10"></path><path d="M40.048,71.669l2.311,2.31.129,2.919a1,1,0,0,0,.8.936l3.027.618a.2.2,0,0,0,.182-.337l-4.233-4.233" fill="#e8f4fa" stroke="#45413c" stroke-linecap="round" stroke-linejoin="round"></path><path d="M32.624,60.708l-3.535,3.535L34.745,69.9a1,1,0,0,0,1.415,0l2.121-2.121a1,1,0,0,0,0-1.414Z" fill="#ffffff"></path><path d="M32.624,60.708l-3.535,3.535L34.745,69.9a1,1,0,0,0,1.415,0l2.121-2.121a1,1,0,0,0,0-1.414Z" fill="none" stroke="#45413c" stroke-miterlimit="10"></path><path d="M34.891,62.918a4,4,0,0,1-3.53,3.6l-1.48-1.48A4,4,0,0,0,33.618,61.7Z" fill="#daedf7"></path><path d="M32.624,60.708l-3.535,3.535L34.745,69.9a1,1,0,0,0,1.415,0l2.121-2.121a1,1,0,0,0,0-1.414Z" fill="none" stroke="#45413c" stroke-miterlimit="10"></path><path d="M13.672,65.041h16a4,4,0,0,0,4-4h0a4,4,0,0,0-4-4h-16Z" fill="#ffffff" stroke="#45413c" stroke-linecap="round" stroke-linejoin="round"></path><path d="M28.172 61.041 A1.500 1.500 0 1 0 31.172 61.041 A1.500 1.500 0 1 0 28.172 61.041 Z" fill="#ffffff" stroke="#45413c" stroke-linecap="round" stroke-linejoin="round"></path><path d="M6.172,66.041h9a1,1,0,0,0,1-1v-8a1,1,0,0,0-1-1h-9a5,5,0,0,0-5,5h0A5,5,0,0,0,6.172,66.041Z" fill="#e0e0e0" stroke="#45413c" stroke-linecap="round" stroke-linejoin="round"></path><path d="M55.355,61.139l2.122,2.121-2.122,2.121a1,1,0,0,1-1.414,0l-.707-.707a1,1,0,0,1,0-1.414Z" fill="#e8f4fa" stroke="#45413c" stroke-miterlimit="10"></path><path d="M54.3,65.735l-1.414-1.414-1.72,1.72a3.465,3.465,0,0,0-1.652-.433,3.5,3.5,0,0,0-3.5,3.5,1,1,0,0,0,2,0,1.5,1.5,0,1,1,1.5,1.5,1,1,0,1,0,0,2,3.5,3.5,0,0,0,3.5-3.5,3.452,3.452,0,0,0-.434-1.653Z" fill="#ffffff" stroke="#45413c" stroke-linecap="round" stroke-linejoin="round"></path><path d="M61.012,54.068,64.548,57.6,58.891,63.26a1,1,0,0,1-1.414,0l-2.122-2.121a1,1,0,0,1,0-1.414Z" fill="#e8f4fa"></path><path d="M61.012,54.068,64.548,57.6,58.891,63.26a1,1,0,0,1-1.414,0l-2.122-2.121a1,1,0,0,1,0-1.414Z" fill="none" stroke="#45413c" stroke-miterlimit="10"></path><path d="M58.745,56.278a4,4,0,0,0,3.53,3.6l1.48-1.48a4,4,0,0,1-3.737-3.334Z" fill="#b8ecff"></path><path d="M61.012,54.068,64.548,57.6,58.891,63.26a1,1,0,0,1-1.414,0l-2.122-2.121a1,1,0,0,1,0-1.414Z" fill="#ffffff" stroke="#45413c" stroke-miterlimit="10"></path><path d="M79.964,58.4h-16a4,4,0,0,1-4-4h0a4,4,0,0,1,4-4h16Z" fill="#ffffff" stroke="#45413c" stroke-linecap="round" stroke-linejoin="round"></path><path d="M62.464 54.401 A1.500 1.500 0 1 0 65.464 54.401 A1.500 1.500 0 1 0 62.464 54.401 Z" fill="#ffffff" stroke="#45413c" stroke-linecap="round" stroke-linejoin="round"></path><path d="M87.732,59.5h-9a1,1,0,0,1-1-1v-8a1,1,0,0,1,1-1h9a5,5,0,0,1,5,5h0A5,5,0,0,1,87.732,59.5Z" fill="#e0e0e0" stroke="#45413c" stroke-linecap="round" stroke-linejoin="round"></path><path d="M61.583,74.442,62.7,77.226l-2.784,1.118a1,1,0,0,1-1.3-.555l-.373-.928a1,1,0,0,1,.555-1.3Z" fill="#e8f4fa" stroke="#45413c" stroke-miterlimit="10"></path><path d="M58.8,78.254,58.058,76.4,55.8,77.3a3.453,3.453,0,0,0-1.348-1.047A3.5,3.5,0,0,0,49.86,78.1a1,1,0,0,0,1.839.785,1.5,1.5,0,1,1,.791,1.968,1,1,0,1,0-.785,1.839A3.5,3.5,0,0,0,56.3,80.85a3.453,3.453,0,0,0,.249-1.69Z" fill="#ffffff" stroke="#45413c" stroke-linecap="round" stroke-linejoin="round"></path><path d="M69.561,70.159,71.425,74.8,64,77.781a1,1,0,0,1-1.3-.555l-1.118-2.784a1,1,0,0,1,.555-1.3Z" fill="#ffffff"></path><path d="M69.561,70.159,71.425,74.8,64,77.781a1,1,0,0,1-1.3-.555l-1.118-2.784a1,1,0,0,1,.555-1.3Z" fill="none" stroke="#45413c" stroke-miterlimit="10"></path><path d="M66.608,71.3A4,4,0,0,0,68.443,76l1.942-.781a4,4,0,0,1-2.128-4.533Z" fill="#daedf7"></path><path d="M69.561,70.159,71.425,74.8,64,77.781a1,1,0,0,1-1.3-.555l-1.118-2.784a1,1,0,0,1,.555-1.3Z" fill="none" stroke="#45413c" stroke-miterlimit="10"></path><path d="M85.291,81.584,70.575,75.3a4,4,0,0,1-2.109-5.249h0a4,4,0,0,1,5.25-2.109l14.715,6.281Z" fill="#ffffff" stroke="#45413c" stroke-linecap="round" stroke-linejoin="round"></path><path d="M70.645 71.624 A1.500 1.500 0 1 0 73.645 71.624 A1.500 1.500 0 1 0 70.645 71.624 Z" fill="#ffffff" stroke="#45413c" stroke-linecap="round" stroke-linejoin="round"></path><path d="M91.864,85.53,83.586,82a1,1,0,0,1-.527-1.313l3.14-7.358a1,1,0,0,1,1.313-.527l8.277,3.533a5,5,0,0,1,2.636,6.562h0A5,5,0,0,1,91.864,85.53Z" fill="#e0e0e0" stroke="#45413c" stroke-linecap="round" stroke-linejoin="round"></path></g></svg>