<svg xmlns="http://www.w3.org/2000/svg" version="1.1" xmlns:xlink="http://www.w3.org/1999/xlink" xmlns:svgjs="http://svgjs.com/svgjs" viewBox="0 0 200 200" width="200" height="200"><g transform="matrix(2,0,0,2,0,0)"><path d="M10.000 50.000 A40.000 40.000 0 1 0 90.000 50.000 A40.000 40.000 0 1 0 10.000 50.000 Z" fill="#e8f4fa" stroke="#daedf7" stroke-linecap="round" stroke-linejoin="round"></path><path d="M16.981 75.845 A32.543 3.797 0 1 0 82.067 75.845 A32.543 3.797 0 1 0 16.981 75.845 Z" fill="#45413c" opacity=".15"></path><path d="M71.662,15.76a26.826,26.826,0,0,1,1.713,4.207,31.113,31.113,0,0,1,1.067,4.412,30.289,30.289,0,0,1,.437,4.594,31.91,31.91,0,0,1-.245,4.7,2.971,2.971,0,1,1-5.905-.663,3,3,0,0,1,.135-.612l.026-.076a26.464,26.464,0,0,0,1.044-3.739,25.669,25.669,0,0,0,.5-3.941,27.4,27.4,0,0,0-.072-4.048,24.673,24.673,0,0,0-.664-3.989,1.074,1.074,0,0,1,1.969-.844Z" fill="#656769" stroke="#45413c" stroke-linecap="round" stroke-linejoin="round"></path><path d="M51.576,30.655c4.259.547,5.44-1.967,9.738-2.575S68.793,28,72.847,31.515c0,0-16.571,4.836-16.532,4.93S51.576,30.655,51.576,30.655Z" fill="#656769"></path><path d="M63.016,28.894c5.221-.881,9.831,2.621,9.831,2.621C68.793,28,65.612,27.471,61.314,28.08s-5.479,3.122-9.738,2.575l1.153,1.418C56.741,32.465,58.84,29.6,63.016,28.894Z" fill="#87898c"></path><path d="M51.576,30.655c4.259.547,5.44-1.967,9.738-2.575S68.793,28,72.847,31.515c0,0-16.571,4.836-16.532,4.93S51.576,30.655,51.576,30.655Z" fill="none" stroke="#45413c" stroke-linecap="round" stroke-linejoin="round"></path><path d="M52.779,62.653c-1.628,1.085-2.17,4.339-2.17,4.339L55.3,68.557a4.617,4.617,0,0,0,3.525-.251l2.514-1.257a2.168,2.168,0,0,0,1.2-1.94V62.653Z" fill="#525252" stroke="#45413c" stroke-linecap="round" stroke-linejoin="round"></path><path d="M59.287,65.365l-6.508-2.712a13.533,13.533,0,0,1-3.2-8.168A1.084,1.084,0,0,1,51,53.382l3.406,1.135Z" fill="#e0e0e0" stroke="#45413c" stroke-linecap="round" stroke-linejoin="round"></path><path d="M58.2,53.432V52.348a2.712,2.712,0,1,0-5.423,0v1.084c0,7.051,6.508,11.933,6.508,11.933l3.254-1.085L64.9,59.563a1.084,1.084,0,0,0-.22-1.268A29.806,29.806,0,0,0,58.2,53.432Z" fill="#bdbec0" stroke="#45413c" stroke-linecap="round" stroke-linejoin="round"></path><path d="M24.574,69.879a6.107,6.107,0,0,0-3.8,5.423l2.547.319a11.149,11.149,0,0,0,3.562-.13l2.613-.523a2.166,2.166,0,0,0,1.515-1.157l.61-1.221-1.084-2.711Z" fill="#525252" stroke="#45413c" stroke-linecap="round" stroke-linejoin="round"></path><path d="M21.32,68.251a6.11,6.11,0,0,0-3.8,5.424L20.778,75.3a6.107,6.107,0,0,1,3.8-5.423l1.085-1.085Z" fill="#656769" stroke="#45413c" stroke-linecap="round" stroke-linejoin="round"></path><path d="M30,53.607a3.254,3.254,0,0,0-3.254,3.254v1.085l4.339,1.627Z" fill="#87898c" stroke="#45413c" stroke-linecap="round" stroke-linejoin="round"></path><path d="M28.913 50.353L28.913 59.573 34.88 61.743 34.88 50.353 28.913 50.353z" fill="#525252" stroke="#45413c" stroke-linecap="round" stroke-linejoin="round"></path><path d="M31.083,59.573l-7.051,9.763-3.009-1.128a1.085,1.085,0,0,1-.5-1.651l6.219-8.611Z" fill="#e0e0e0" stroke="#45413c" stroke-linecap="round" stroke-linejoin="round"></path><path d="M31.083,59.573V56.861a2.712,2.712,0,0,1,5.424,0v2.712c0,3.254-.542,4.882-4.882,13.017l-2.722.389a2.168,2.168,0,0,1-1.841-.613l-3.03-3.03Z" fill="#bdbec0" stroke="#45413c" stroke-linecap="round" stroke-linejoin="round"></path><path d="M33.253 56.861 A0.542 0.542 0 1 0 34.337 56.861 A0.542 0.542 0 1 0 33.253 56.861 Z" fill="#45413c" stroke="#45413c" stroke-linecap="round" stroke-linejoin="round"></path><path d="M27.829,42.759v7.354a1.083,1.083,0,0,0,.741,1.029l2.17.723a1.074,1.074,0,0,0,.686,0l2.911-.97V42.759Z" fill="#f0f0f0" stroke="#45413c" stroke-linecap="round" stroke-linejoin="round"></path><path d="M39.761,41.674H26.744c0,5.39,6.379,11.391,13.017,11.391A13.018,13.018,0,0,0,52.779,40.047Z" fill="#e0e0e0" stroke="#45413c" stroke-linecap="round" stroke-linejoin="round"></path><path d="M39.761,30.717V27.03A13.017,13.017,0,0,0,26.744,40.047v1.627a3.255,3.255,0,1,0,6.509,0A12.472,12.472,0,0,1,39.761,30.717Z" fill="#656769"></path><path d="M29.1,44.787a3.226,3.226,0,0,1-.727-2.028V41.132A8.426,8.426,0,0,1,32.3,34.009a16.488,16.488,0,0,0,5.335-5.324,13.048,13.048,0,0,1,2.13-.458v-1.2a13.176,13.176,0,0,0-1.384.075A13.018,13.018,0,0,0,26.744,40.047v1.627A3.246,3.246,0,0,0,29.1,44.787Z" fill="#525252"></path><path d="M39.761,30.717V27.03A13.017,13.017,0,0,0,26.744,40.047v1.627a3.255,3.255,0,1,0,6.509,0A12.472,12.472,0,0,1,39.761,30.717Z" fill="none" stroke="#45413c" stroke-linecap="round" stroke-linejoin="round"></path><path d="M76.644,39.505a10.306,10.306,0,0,0-16.969-7.862,5.035,5.035,0,0,1-6.339.145,12.475,12.475,0,1,0,.624,19.259A9.186,9.186,0,0,1,63,49.256a10.314,10.314,0,0,0,13.649-9.751Z" fill="#f0f0f0"></path><path d="M66.338,47.1A10.3,10.3,0,0,1,63,46.544a9.186,9.186,0,0,0-9.035,1.791,12.475,12.475,0,0,1-20.634-8.017,12.663,12.663,0,0,0-.073,1.356A12.475,12.475,0,0,0,53.96,51.047,9.186,9.186,0,0,1,63,49.256a10.314,10.314,0,0,0,13.649-9.751,10.457,10.457,0,0,0-.089-1.356A10.308,10.308,0,0,1,66.338,47.1Z" fill="#e0e0e0"></path><path d="M76.644,39.505a10.306,10.306,0,0,0-16.969-7.862,5.035,5.035,0,0,1-6.339.145,12.484,12.484,0,0,0-13.575-1.071v2.712A12.479,12.479,0,0,1,53.336,34.5a5.035,5.035,0,0,0,6.339-.145,10.306,10.306,0,0,1,16.88,6.506A10.457,10.457,0,0,0,76.644,39.505Z" fill="#ffffff"></path><path d="M76.644,39.505a10.306,10.306,0,0,0-16.969-7.862,5.035,5.035,0,0,1-6.339.145,12.475,12.475,0,1,0,.624,19.259A9.186,9.186,0,0,1,63,49.256a10.314,10.314,0,0,0,13.649-9.751Z" fill="none" stroke="#45413c" stroke-linecap="round" stroke-linejoin="round"></path><path d="M51.758,52.6a12.527,12.527,0,0,0,2.2-1.55A9.194,9.194,0,0,1,60.872,48.8a18.107,18.107,0,0,1-2.4-5.373,1.655,1.655,0,0,0-3.216.113A27.012,27.012,0,0,1,51.758,52.6Z" fill="#656769"></path><path d="M58.472,43.428a1.655,1.655,0,0,0-3.216.113c-.084.412-.193.905-.332,1.454a1.657,1.657,0,0,1,.8-.208A1.641,1.641,0,0,1,57.323,46a19.046,19.046,0,0,0,1.038,2.916,9.216,9.216,0,0,1,2.511-.113A18.107,18.107,0,0,1,58.472,43.428Z" fill="#525252"></path><path d="M51.758,52.6a12.527,12.527,0,0,0,2.2-1.55A9.194,9.194,0,0,1,60.872,48.8a18.107,18.107,0,0,1-2.4-5.373,1.655,1.655,0,0,0-3.216.113A27.012,27.012,0,0,1,51.758,52.6Z" fill="none" stroke="#45413c" stroke-linecap="round" stroke-linejoin="round"></path><path d="M62.542 39.505 A5.966 5.966 0 1 0 74.474 39.505 A5.966 5.966 0 1 0 62.542 39.505 Z" fill="#ffffff"></path><path d="M68.508,43.3A5.968,5.968,0,0,1,62.64,38.42a5.967,5.967,0,1,0,11.735,0A5.968,5.968,0,0,1,68.508,43.3Z" fill="#e0e0e0"></path><path d="M62.542 39.505 A5.966 5.966 0 1 0 74.474 39.505 A5.966 5.966 0 1 0 62.542 39.505 Z" fill="none" stroke="#45413c" stroke-linecap="round" stroke-linejoin="round"></path><path d="M70.677,69.336c-1.627,1.085-2.169,4.339-2.169,4.339L73.2,75.24a4.617,4.617,0,0,0,3.525-.251l2.514-1.257a2.168,2.168,0,0,0,1.2-1.94V69.336Z" fill="#525252" stroke="#45413c" stroke-linecap="round" stroke-linejoin="round"></path><path d="M73.932 53.607L73.932 62.827 68.508 60.658 68.508 53.607 73.932 53.607z" fill="#525252" stroke="#45413c" stroke-linecap="round" stroke-linejoin="round"></path><path d="M40.846,74.76a6.109,6.109,0,0,0-3.8,5.424L39.6,80.5a11.094,11.094,0,0,0,3.562-.13l2.613-.522a2.174,2.174,0,0,0,1.515-1.158l.61-1.22L46.812,74.76Z" fill="#525252" stroke="#45413c" stroke-linecap="round" stroke-linejoin="round"></path><path d="M37.592,73.133a6.109,6.109,0,0,0-3.8,5.424l3.254,1.627a6.109,6.109,0,0,1,3.8-5.424l1.085-1.085Z" fill="#656769" stroke="#45413c" stroke-linecap="round" stroke-linejoin="round"></path><path d="M38.134 41.674 A7.593 7.593 0 1 0 53.320 41.674 A7.593 7.593 0 1 0 38.134 41.674 Z" fill="#ffffff"></path><path d="M45.727,47.1a7.594,7.594,0,0,1-7.515-6.508,7.594,7.594,0,1,0,15.031,0A7.594,7.594,0,0,1,45.727,47.1Z" fill="#e0e0e0"></path><path d="M38.134 41.674 A7.593 7.593 0 1 0 53.320 41.674 A7.593 7.593 0 1 0 38.134 41.674 Z" fill="none" stroke="#45413c" stroke-linecap="round" stroke-linejoin="round"></path><path d="M46.27,58.488a3.254,3.254,0,0,0-3.254,3.255v1.084l4.339,1.628Z" fill="#bdbec0" stroke="#45413c" stroke-linecap="round" stroke-linejoin="round"></path><path d="M45.185 55.234L45.185 64.455 51.151 66.624 51.151 55.234 45.185 55.234z" fill="#525252" stroke="#45413c" stroke-linecap="round" stroke-linejoin="round"></path><path d="M47.355,64.455,40.3,74.218,37.3,73.089a1.084,1.084,0,0,1-.5-1.65l6.22-8.612Z" fill="#f0f0f0" stroke="#45413c" stroke-linecap="round" stroke-linejoin="round"></path><path d="M47.355,64.455V61.743a2.712,2.712,0,0,1,5.424,0v2.712c0,3.254-.543,4.881-4.882,13.017l-2.723.389a2.171,2.171,0,0,1-1.841-.614L40.3,74.218Z" fill="#f0f0f0" stroke="#45413c" stroke-linecap="round" stroke-linejoin="round"></path><path d="M49.525 61.743 A0.542 0.542 0 1 0 50.609 61.743 A0.542 0.542 0 1 0 49.525 61.743 Z" fill="#45413c" stroke="#45413c" stroke-linecap="round" stroke-linejoin="round"></path><path d="M52.643,45.064a16.088,16.088,0,0,0-1.453-4.4,3.9,3.9,0,0,0-3.872-2.134l-2.349.235a2.169,2.169,0,0,0-1.953,2.159V54.273A2.169,2.169,0,0,0,44.423,56.3l2.3.862a2.171,2.171,0,0,0,1.288.074L52.185,56.2a2.169,2.169,0,0,0,1.642-2.191,43.241,43.241,0,0,0-.624-5.764Z" fill="#f0f0f0"></path><path d="M51.588,41.527q-.186-.435-.4-.861a3.9,3.9,0,0,0-3.872-2.134l-2.349.235a2.169,2.169,0,0,0-1.953,2.159v2.519C44.923,41.467,48.088,39.821,51.588,41.527Z" fill="#ffffff"></path><path d="M52.643,45.064a16.088,16.088,0,0,0-1.453-4.4,3.9,3.9,0,0,0-3.872-2.134l-2.349.235a2.169,2.169,0,0,0-1.953,2.159V54.273A2.169,2.169,0,0,0,44.423,56.3l2.3.862a2.171,2.171,0,0,0,1.288.074L52.185,56.2a2.169,2.169,0,0,0,1.642-2.191,43.241,43.241,0,0,0-.624-5.764Z" fill="none" stroke="#45413c" stroke-linecap="round" stroke-linejoin="round"></path><path d="M43.784,39.27a2.166,2.166,0,0,0-.768,1.656V54.273A2.168,2.168,0,0,0,44.423,56.3l2.3.862a2.157,2.157,0,0,0,.633.135V45.881a9.92,9.92,0,0,0-.8-3.91A5.055,5.055,0,0,0,43.784,39.27Z" fill="#bdbec0" stroke="#45413c" stroke-linecap="round" stroke-linejoin="round"></path><path d="M77.186,72.048l-6.509-2.712a13.537,13.537,0,0,1-3.2-8.168,1.086,1.086,0,0,1,1.425-1.1L72.3,61.2Z" fill="#e0e0e0" stroke="#45413c" stroke-linecap="round" stroke-linejoin="round"></path><path d="M76.1,60.116V59.031a2.712,2.712,0,0,0-5.424,0v1.085c0,7.051,6.509,11.932,6.509,11.932l3.254-1.085L82.8,66.246a1.084,1.084,0,0,0-.22-1.268A29.8,29.8,0,0,0,76.1,60.116Z" fill="#f0f0f0" stroke="#45413c" stroke-linecap="round" stroke-linejoin="round"></path><path d="M72.847 58.488 A0.542 0.542 0 1 0 73.931 58.488 A0.542 0.542 0 1 0 72.847 58.488 Z" fill="#45413c" stroke="#45413c" stroke-linecap="round" stroke-linejoin="round"></path><path d="M15.9,28.657c0,2.3,2.712,5.966,6.509,5.966,6.076,0,10.54-3.3,14.644-8.678V19.979L19.693,24.86Z" fill="#f0f0f0"></path><path d="M36.473,24.25c-4.1,5.381-7.856,9.085-13.933,9.085-2.726,0-5.6-2.3-6.61-4.216a6.952,6.952,0,0,0,6.475,5.5c6.076,0,10.54-3.3,14.644-8.678Z" fill="#e0e0e0"></path><path d="M15.9,28.657c0,2.3,2.712,5.966,6.509,5.966,6.076,0,10.54-3.3,14.644-8.678V19.979L19.693,24.86Z" fill="none" stroke="#45413c" stroke-linecap="round" stroke-linejoin="round"></path><path d="M39.761,17.267a4.881,4.881,0,0,0-8.7-3.038C27.609,18.218,24.5,18.772,20.1,20.4h0a6.509,6.509,0,0,0-4.2,6.087v2.169c2.8-.724,3.355,1.86,5.085,2.661,1.552.72,3.691.665,6.27-.486a24.4,24.4,0,0,0,6.167-5.815A16.119,16.119,0,0,1,37.471,21.4,4.876,4.876,0,0,0,39.761,17.267Z" fill="#45413c"></path><path d="M16.588,28.318a6.512,6.512,0,0,1,4.2-6.087h0c4.4-1.629,7.513-2.182,10.963-6.171a4.882,4.882,0,0,1,7.949.431,4.882,4.882,0,0,0-8.641-2.262C27.609,18.218,24.5,18.772,20.1,20.4h0a6.509,6.509,0,0,0-4.2,6.087v2.169a3.836,3.836,0,0,1,.692-.117Z" fill="#525252"></path><path d="M39.761,17.267a4.881,4.881,0,0,0-8.7-3.038C27.609,18.218,24.5,18.772,20.1,20.4h0a6.509,6.509,0,0,0-4.2,6.087v2.169c2.8-.724,3.355,1.86,5.085,2.661,1.552.72,3.691.665,6.27-.486a24.4,24.4,0,0,0,6.167-5.815A16.119,16.119,0,0,1,37.471,21.4,4.876,4.876,0,0,0,39.761,17.267Z" fill="none" stroke="#45413c" stroke-linecap="round" stroke-linejoin="round"></path><path d="M43.494,19.955a3.786,3.786,0,0,0-4.229-3.2,3.915,3.915,0,0,0-3.3,3.943V36.773a2.19,2.19,0,0,0,3.911,1.353l4.444-5.655a3.258,3.258,0,0,0,.66-2.488Z" fill="#f0f0f0"></path><path d="M39.761,18.894a5.406,5.406,0,0,1,3.807,1.561l-.074-.5a3.786,3.786,0,0,0-4.229-3.2,3.9,3.9,0,0,0-3.291,3.681A5.4,5.4,0,0,1,39.761,18.894Z" fill="#ffffff"></path><path d="M43.494,19.955a3.786,3.786,0,0,0-4.229-3.2,3.915,3.915,0,0,0-3.3,3.943V36.773a2.19,2.19,0,0,0,3.911,1.353l4.444-5.655a3.258,3.258,0,0,0,.66-2.488Z" fill="none" stroke="#45413c" stroke-linecap="round" stroke-linejoin="round"></path><path d="M38.134 20.521 A1.627 1.627 0 1 0 41.388 20.521 A1.627 1.627 0 1 0 38.134 20.521 Z" fill="#656769" stroke="#45413c" stroke-linecap="round" stroke-linejoin="round"></path><path d="M76.1,47.85a26.558,26.558,0,0,0-.634-5.773c-.34-1.533-1.308-3.686-2.6-4.55a3.687,3.687,0,0,0-2.417-.6l-2.154.215A2.17,2.17,0,0,0,66.338,39.3V51.428a2.169,2.169,0,0,0,1.574,2.086l1.834.524a2.162,2.162,0,0,0,.792.075l3.59-.327a2.169,2.169,0,0,0,1.973-2.16Z" fill="#f0f0f0"></path><path d="M67.253,41.451a2.169,2.169,0,0,1,1.954-2.158l2.154-.216a3.7,3.7,0,0,1,2.417.6,5.3,5.3,0,0,1,1.53,1.789,7.634,7.634,0,0,0-2.445-3.941,3.687,3.687,0,0,0-2.417-.6l-2.154.215A2.17,2.17,0,0,0,66.338,39.3Z" fill="#ffffff"></path><path d="M76.1,47.85a26.558,26.558,0,0,0-.634-5.773c-.34-1.533-1.308-3.686-2.6-4.55a3.687,3.687,0,0,0-2.417-.6l-2.154.215A2.17,2.17,0,0,0,66.338,39.3V51.428a2.169,2.169,0,0,0,1.574,2.086l1.834.524a2.162,2.162,0,0,0,.792.075l3.59-.327a2.169,2.169,0,0,0,1.973-2.16Z" fill="none" stroke="#45413c" stroke-linecap="round" stroke-linejoin="round"></path><path d="M67.1,37.652a2.165,2.165,0,0,0-.758,1.647V51.428a2.169,2.169,0,0,0,1.574,2.086l1.834.524a2.135,2.135,0,0,0,.389.073V48.357a44.081,44.081,0,0,0-.71-7.877A3.78,3.78,0,0,0,67.1,37.652Z" fill="#bdbec0" stroke="#45413c" stroke-linecap="round" stroke-linejoin="round"></path><path d="M32.710 19.165 A0.271 0.271 0 1 0 33.252 19.165 A0.271 0.271 0 1 0 32.710 19.165 Z" fill="#ffffff" stroke="#ffffff" stroke-linecap="round" stroke-linejoin="round"></path><path d="M30.541 20.793 A0.271 0.271 0 1 0 31.083 20.793 A0.271 0.271 0 1 0 30.541 20.793 Z" fill="#ffffff" stroke="#ffffff" stroke-linecap="round" stroke-linejoin="round"></path><path d="M25.459 20.651 A0.271 0.271 0 1 0 26.001 20.651 A0.271 0.271 0 1 0 25.459 20.651 Z" fill="#ffffff" stroke="#ffffff" stroke-linecap="round" stroke-linejoin="round"></path><path d="M28.079 19.437 A0.271 0.271 0 1 0 28.621 19.437 A0.271 0.271 0 1 0 28.079 19.437 Z" fill="#ffffff" stroke="#ffffff" stroke-linecap="round" stroke-linejoin="round"></path><path d="M30.359 17.780 A0.271 0.271 0 1 0 30.901 17.780 A0.271 0.271 0 1 0 30.359 17.780 Z" fill="#ffffff" stroke="#ffffff" stroke-linecap="round" stroke-linejoin="round"></path><path d="M27.979 22.263 A0.271 0.271 0 1 0 28.521 22.263 A0.271 0.271 0 1 0 27.979 22.263 Z" fill="#ffffff" stroke="#ffffff" stroke-linecap="round" stroke-linejoin="round"></path><path d="M30.630 23.488 A0.271 0.271 0 1 0 31.172 23.488 A0.271 0.271 0 1 0 30.630 23.488 Z" fill="#ffffff" stroke="#ffffff" stroke-linecap="round" stroke-linejoin="round"></path><path d="M33.168 21.335 A0.271 0.271 0 1 0 33.710 21.335 A0.271 0.271 0 1 0 33.168 21.335 Z" fill="#ffffff" stroke="#ffffff" stroke-linecap="round" stroke-linejoin="round"></path></g></svg>