<svg xmlns="http://www.w3.org/2000/svg" version="1.1" xmlns:xlink="http://www.w3.org/1999/xlink" xmlns:svgjs="http://svgjs.com/svgjs" viewBox="0 0 200 200" width="200" height="200"><g transform="matrix(2,0,0,2,0,0)"><path d="M90,54.676a40,40,0,1,0-76.436,16.5H86.436A39.829,39.829,0,0,0,90,54.676Z" fill="#c7f0ff"></path><path d="M13.564,71.176a40,40,0,0,0,72.872,0Z" fill="#e8f4fa"></path><path d="M11 71.176L89 71.176" fill="none" stroke="#45413c" stroke-linecap="round" stroke-linejoin="round"></path><path d="M6.5 71.176L9 71.176" fill="none" stroke="#45413c" stroke-linecap="round" stroke-linejoin="round"></path><path d="M91 71.176L93.5 71.176" fill="none" stroke="#45413c" stroke-linecap="round" stroke-linejoin="round"></path><path d="M30.743 79.503 A25.87 2.324 0 1 0 82.483 79.503 A25.87 2.324 0 1 0 30.743 79.503 Z" fill="#45413c" opacity=".15"></path><path d="M25.778,71.186H39.812a10.318,10.318,0,0,0,2.7-4.105,2.575,2.575,0,0,0-2.427-3.434H25.51a2.574,2.574,0,0,0-2.428,3.433A10.3,10.3,0,0,0,25.778,71.186Z" fill="#f0f0f0" stroke="#45413c" stroke-linecap="round" stroke-linejoin="round"></path><path d="M34.977 47.579H54.289V52.729H34.977z" fill="#ffffff" stroke="#45413c" stroke-linecap="round" stroke-linejoin="round" transform="translate(-16.021 78.941) rotate(-73.723)"></path><path d="M43.009,46.79h5.15a3.862,3.862,0,0,0,3.862-3.862V41.64a3.862,3.862,0,0,0-3.862-3.862H45.584a2.575,2.575,0,0,0-2.575,2.575Z" fill="#ffffff" stroke="#45413c" stroke-linecap="round" stroke-linejoin="round"></path><path d="M46.483 56.749H51.632999999999996V70.95700000000001H46.483z" fill="#ffffff" stroke="#45413c" stroke-linecap="round" stroke-linejoin="round" transform="translate(-29.047 83.436) rotate(-66.54)"></path><path d="M66.175,74.255a.642.642,0,0,1-.315.9A6.759,6.759,0,1,1,68.8,65.065a.645.645,0,0,1-.218.932l-1.707.937a.644.644,0,0,1-.819-.171,3.541,3.541,0,1,0-1.6,5.49.642.642,0,0,1,.783.3Z" fill="#656769"></path><path d="M66.175,74.255a.642.642,0,0,1-.315.9A6.759,6.759,0,1,1,68.8,65.065a.645.645,0,0,1-.218.932l-1.707.937a.644.644,0,0,1-.819-.171,3.541,3.541,0,1,0-1.6,5.49.642.642,0,0,1,.783.3Z" fill="none" stroke="#45413c" stroke-linecap="round" stroke-linejoin="round"></path><path d="M53.225 67.769 A3.862 3.862 0 1 0 60.949 67.769 A3.862 3.862 0 1 0 53.225 67.769 Z" fill="#f0f0f0" stroke="#45413c" stroke-linecap="round" stroke-linejoin="round"></path><path d="M38.589 60.665 A3.862 3.862 0 1 0 46.313 60.665 A3.862 3.862 0 1 0 38.589 60.665 Z" fill="#ffffff" stroke="#45413c" stroke-linecap="round" stroke-linejoin="round"></path><path d="M30.135 33.519H35.285000000000004V37.778H30.135z" fill="#daedf7"></path><path d="M30.135 33.519H35.285000000000004V35.202999999999996H30.135z" fill="#c0dceb"></path><path d="M30.135 33.519H35.285000000000004V37.778H30.135z" fill="none" stroke="#45413c" stroke-linecap="round" stroke-linejoin="round"></path><path d="M22.410 37.778 L43.009 37.778 L43.009 57.090 L22.410 57.090 Z" fill="#ffffff" stroke="#45413c" stroke-linecap="round" stroke-linejoin="round"></path><path d="M28.848 57.09H36.573V63.647000000000006H28.848z" fill="#daedf7"></path><path d="M28.848 57.09H36.573V59.785000000000004H28.848z" fill="#c0dceb"></path><path d="M28.848 57.09H36.573V63.647000000000006H28.848z" fill="none" stroke="#45413c" stroke-linecap="round" stroke-linejoin="round"></path><path d="M37.86,46.79a2.575,2.575,0,0,1-2.575,2.575h-5.15A2.575,2.575,0,0,1,27.56,46.79V37.778h10.3Z" fill="#c0dceb"></path><path d="M37.86,46.79a2.575,2.575,0,0,1-2.575,2.575h-5.15A2.575,2.575,0,0,1,27.56,46.79V37.778h10.3Z" fill="#e8f4fa" stroke="#45413c" stroke-linecap="round" stroke-linejoin="round"></path><path d="M7.159 46.545H26.471V51.695H7.159z" fill="#ffffff" stroke="#45413c" stroke-linecap="round" stroke-linejoin="round" transform="translate(-34.507 56.966) rotate(-79.795)"></path><path d="M22.41,46.79H17.261A3.863,3.863,0,0,1,13.4,42.928V41.64a3.863,3.863,0,0,1,3.863-3.862h2.575a2.574,2.574,0,0,1,2.574,2.575Z" fill="#ffffff" stroke="#45413c" stroke-linecap="round" stroke-linejoin="round"></path><path d="M19.963 55.498H25.113V69.706H19.963z" fill="#f0f0f0" stroke="#45413c" stroke-linecap="round" stroke-linejoin="round" transform="translate(-43.997 62.219) rotate(-69.871)"></path><path d="M40.231,71.991a.645.645,0,0,1-.263.921,6.759,6.759,0,1,1,2.346-10.248.645.645,0,0,1-.164.944L40.5,64.642a.642.642,0,0,1-.828-.123A3.541,3.541,0,1,0,38.4,70.093a.642.642,0,0,1,.8.249Z" fill="#656769"></path><path d="M40.231,71.991a.645.645,0,0,1-.263.921,6.759,6.759,0,1,1,2.346-10.248.645.645,0,0,1-.164.944L40.5,64.642a.642.642,0,0,1-.828-.123A3.541,3.541,0,1,0,38.4,70.093a.642.642,0,0,1,.8.249Z" fill="#c0dceb" stroke="#45413c" stroke-linecap="round" stroke-linejoin="round"></path><path d="M26.919 66.045 A3.862 3.862 0 1 0 34.643 66.045 A3.862 3.862 0 1 0 26.919 66.045 Z" fill="#ffffff" stroke="#45413c" stroke-linecap="round" stroke-linejoin="round"></path><path d="M11.895 59.803 A3.862 3.862 0 1 0 19.619 59.803 A3.862 3.862 0 1 0 11.895 59.803 Z" fill="#ffffff" stroke="#45413c" stroke-linecap="round" stroke-linejoin="round"></path><path d="M25.827,33.519H19.318a4,4,0,0,1-4-4V9.324a4,4,0,0,1,4-4h6.509Z" fill="#ffffff" stroke="#45413c" stroke-linecap="round" stroke-linejoin="round"></path><path d="M20.268 5.325 L51.751 5.325 L51.751 33.519 L20.268 33.519 Z" fill="#00c798"></path><path d="M20.268 5.325 L51.751 5.325 L51.751 33.519 L20.268 33.519 Z" fill="#009fd9"></path><path d="M50.672,6.837a4.392,4.392,0,0,0-3.32-1.512H24.669a4.4,4.4,0,0,0-4.4,4.4v19.4a4.4,4.4,0,0,0,3.768,4.354Z" fill="#00b8f0"></path><path d="M20.268 5.325 L51.751 5.325 L51.751 33.519 L20.268 33.519 Z" fill="none" stroke="#45413c" stroke-linecap="round" stroke-linejoin="round"></path><path d="M24.668,30.768a1.652,1.652,0,0,1-1.65-1.65V9.724a1.652,1.652,0,0,1,1.65-1.65H47.352A1.652,1.652,0,0,1,49,9.725V29.119a1.652,1.652,0,0,1-1.65,1.65H24.668Z" fill="none" stroke="#4acfff" stroke-linecap="round" stroke-linejoin="round"></path><path d="M33.08,22.731a1.377,1.377,0,0,1-1.375-1.375c0-.929-.312-1.92-1.188-1.92s-1.188.991-1.188,1.92a1.375,1.375,0,0,1-2.75,0c0-3.209,2.041-4.67,3.938-4.67s3.938,1.461,3.938,4.67A1.376,1.376,0,0,1,33.08,22.731Z" fill="#e5fff9" stroke="#00658a" stroke-linecap="round" stroke-linejoin="round"></path><path d="M44.334,22.731a1.376,1.376,0,0,1-1.375-1.375c0-.929-.313-1.92-1.188-1.92s-1.188.991-1.188,1.92a1.375,1.375,0,0,1-2.75,0c0-3.209,2.041-4.67,3.938-4.67s3.938,1.461,3.938,4.67A1.377,1.377,0,0,1,44.334,22.731Z" fill="#e5fff9" stroke="#00658a" stroke-linecap="round" stroke-linejoin="round"></path><path d="M49.176,74.7H45.618l7.6-23.559a1.59,1.59,0,0,1,1.513-1.1h2.4Z" fill="#e8f4fa" stroke="#45413c" stroke-linecap="round" stroke-linejoin="round"></path><path d="M80.2,74.7H49.176l7.955-24.662h28.84a1.592,1.592,0,0,1,1.515,2.079Z" fill="#c0dceb"></path><path d="M57.131,50.038h28.84a1.592,1.592,0,0,1,1.515,2.079l-.956,2.965H55.505Z" fill="#daedf7"></path><path d="M80.2,74.7H47.585v3.978H77.02A3.183,3.183,0,0,0,80.2,75.5Z" fill="#adc4d9" stroke="#45413c" stroke-linecap="round" stroke-linejoin="round"></path><path d="M47.585,74.7h-14.4a.8.8,0,0,0-.8.8,3.182,3.182,0,0,0,3.182,3.183H47.585Z" fill="#e8f4fa" stroke="#45413c" stroke-linecap="round" stroke-linejoin="round"></path><path d="M71.2,61.491A1.765,1.765,0,0,1,72.042,60a1.829,1.829,0,0,0-1.429-.774c-.609-.062-1.187.358-1.5.358s-.785-.349-1.29-.341a1.916,1.916,0,0,0-1.618.981,4.07,4.07,0,0,0,.5,3.938c.328.474.72,1.008,1.234.989.5-.021.682-.321,1.28-.321s.766.321,1.29.31.87-.483,1.2-.959a4.264,4.264,0,0,0,.541-1.112A1.723,1.723,0,0,1,71.2,61.491Z" fill="#f0f0f0" stroke="#45413c" stroke-linecap="round" stroke-linejoin="round"></path><path d="M69.859 57.198L70.577 56.481" fill="none" stroke="#45413c" stroke-linecap="round" stroke-linejoin="round"></path><path d="M80.2,74.7H49.176l7.955-24.662h28.84a1.592,1.592,0,0,1,1.515,2.079Z" fill="none" stroke="#45413c" stroke-linecap="round" stroke-linejoin="round"></path></g></svg>