<svg xmlns="http://www.w3.org/2000/svg" version="1.1" xmlns:xlink="http://www.w3.org/1999/xlink" xmlns:svgjs="http://svgjs.com/svgjs" viewBox="0 0 200 200" width="200" height="200"><g transform="matrix(2,0,0,2,0,0)"><path d="M10.000 50.000 A40.000 40.000 0 1 0 90.000 50.000 A40.000 40.000 0 1 0 10.000 50.000 Z" fill="#e8f4fa" stroke="#daedf7" stroke-linecap="round" stroke-linejoin="round"></path><path d="M68.214,42.051h3.938V27.3a1,1,0,0,0-1-1H69.214a1,1,0,0,0-1,1Z" fill="#656769"></path><path d="M69.2,26.3h1.969a.984.984,0,0,1,.984.984v1.969a.984.984,0,0,0-.984-.984H69.2a.985.985,0,0,0-.985.984V27.282A.985.985,0,0,1,69.2,26.3Z" fill="#87898c"></path><path d="M68.214,42.051h3.938V27.3a1,1,0,0,0-1-1H69.214a1,1,0,0,0-1,1Z" fill="none" stroke="#45413c" stroke-linecap="round" stroke-linejoin="round"></path><path d="M75.6,27.282a.492.492,0,0,0,.492-.492V23.344a.985.985,0,1,1,1.969,0v3.938a1.969,1.969,0,0,1-1.969,1.969H72.152V27.282Z" fill="#656769"></path><path d="M77.075,24.329a.983.983,0,0,0-.984.984V23.344a.985.985,0,1,1,1.969,0v1.969A.984.984,0,0,0,77.075,24.329Z" fill="#87898c"></path><path d="M75.6,27.282a.492.492,0,0,0,.492-.492V23.344a.985.985,0,1,1,1.969,0v3.938a1.969,1.969,0,0,1-1.969,1.969H72.152V27.282Z" fill="none" stroke="#45413c" stroke-linecap="round" stroke-linejoin="round"></path><path d="M76.091,23.344H74.208a1.969,1.969,0,0,1-1.065-.313l-5.578-3.586" fill="none" stroke="#45413c" stroke-linecap="round" stroke-linejoin="round"></path><path d="M31.786,42.051H27.848V27.3a1,1,0,0,1,1-1h1.938a1,1,0,0,1,1,1Z" fill="#656769"></path><path d="M30.8,26.3H28.832a.984.984,0,0,0-.984.984v1.969a.984.984,0,0,1,.984-.984H30.8a.985.985,0,0,1,.985.984V27.282A.985.985,0,0,0,30.8,26.3Z" fill="#87898c"></path><path d="M31.786,42.051H27.848V27.3a1,1,0,0,1,1-1h1.938a1,1,0,0,1,1,1Z" fill="none" stroke="#45413c" stroke-linecap="round" stroke-linejoin="round"></path><path d="M24.4,27.282a.492.492,0,0,1-.492-.492V23.344a.985.985,0,1,0-1.969,0v3.938a1.969,1.969,0,0,0,1.969,1.969h3.939V27.282Z" fill="#656769"></path><path d="M22.925,24.329a.983.983,0,0,1,.984.984V23.344a.985.985,0,1,0-1.969,0v1.969A.984.984,0,0,1,22.925,24.329Z" fill="#87898c"></path><path d="M24.4,27.282a.492.492,0,0,1-.492-.492V23.344a.985.985,0,1,0-1.969,0v3.938a1.969,1.969,0,0,0,1.969,1.969h3.939V27.282Z" fill="none" stroke="#45413c" stroke-linecap="round" stroke-linejoin="round"></path><path d="M23.909,23.344h1.883a1.969,1.969,0,0,0,1.065-.313l5.58-3.587" fill="none" stroke="#45413c" stroke-linecap="round" stroke-linejoin="round"></path><path d="M50,15.96C61.868,15.96,66.9,17.916,67.1,18a.985.985,0,0,1-.368,1.9,1,1,0,0,1-.361-.069c-.048-.019-4.955-1.9-16.374-1.9s-16.326,1.881-16.374,1.9a1,1,0,0,1-.361.069A.985.985,0,0,1,32.9,18C33.1,17.916,38.132,15.96,50,15.96Z" fill="#ff6242" stroke="#45413c" stroke-miterlimit="10"></path><path d="M76.091,74.541H74.208a1.96,1.96,0,0,0-1.065.313l-6.406,4.117" fill="none" stroke="#45413c" stroke-linecap="round" stroke-linejoin="round"></path><path d="M31.786,55.834H27.848V70.587a1,1,0,0,0,1,1h1.938a1,1,0,0,0,1-1Z" fill="#656769"></path><path d="M27.848,62.733a26.206,26.206,0,0,0,3.938,4.89V55.834H27.848Z" fill="#525252"></path><path d="M31.786,55.834H27.848V70.587a1,1,0,0,0,1,1h1.938a1,1,0,0,0,1-1Z" fill="none" stroke="#45413c" stroke-linecap="round" stroke-linejoin="round"></path><path d="M24.4,70.6a.491.491,0,0,0-.492.491v3.447a.985.985,0,0,1-1.969,0V70.6a1.969,1.969,0,0,1,1.969-1.969h3.939V70.6Z" fill="#656769"></path><path d="M22.925,73.556a.984.984,0,0,0,.984-.984v1.969a.985.985,0,0,1-1.969,0V72.572A.985.985,0,0,0,22.925,73.556Z" fill="#525252"></path><path d="M24.4,70.6a.491.491,0,0,0-.492.491v3.447a.985.985,0,0,1-1.969,0V70.6a1.969,1.969,0,0,1,1.969-1.969h3.939V70.6Z" fill="none" stroke="#45413c" stroke-linecap="round" stroke-linejoin="round"></path><path d="M68.214,55.834h3.938V70.587a1,1,0,0,1-1,1H69.214a1,1,0,0,1-1-1Z" fill="#656769"></path><path d="M72.152,62.733a26.206,26.206,0,0,1-3.938,4.89V55.834h3.938Z" fill="#525252"></path><path d="M68.214,55.834h3.938V70.587a1,1,0,0,1-1,1H69.214a1,1,0,0,1-1-1Z" fill="none" stroke="#45413c" stroke-linecap="round" stroke-linejoin="round"></path><path d="M75.6,70.6a.491.491,0,0,1,.492.491v3.447a.985.985,0,0,0,1.969,0V70.6a1.969,1.969,0,0,0-1.969-1.969H72.152V70.6Z" fill="#656769"></path><path d="M77.075,73.556a.984.984,0,0,1-.984-.984v1.969a.985.985,0,0,0,1.969,0V72.572A.985.985,0,0,1,77.075,73.556Z" fill="#525252"></path><path d="M75.6,70.6a.491.491,0,0,1,.492.491v3.447a.985.985,0,0,0,1.969,0V70.6a1.969,1.969,0,0,0-1.969-1.969H72.152V70.6Z" fill="none" stroke="#45413c" stroke-linecap="round" stroke-linejoin="round"></path><path d="M23.909,74.541h1.883a1.96,1.96,0,0,1,1.065.313l6.406,4.117" fill="none" stroke="#45413c" stroke-linecap="round" stroke-linejoin="round"></path><path d="M50,81.925c11.868,0,16.895-1.956,17.1-2.039a.985.985,0,0,0-.729-1.83c-.048.019-4.955,1.9-16.374,1.9s-16.326-1.881-16.374-1.9a.985.985,0,0,0-.729,1.83C33.1,79.969,38.132,81.925,50,81.925Z" fill="#ff6242" stroke="#45413c" stroke-miterlimit="10"></path><path d="M26.371 48.942 A23.629 23.629 0 1 0 73.629 48.942 A23.629 23.629 0 1 0 26.371 48.942 Z" fill="#f0f0f0"></path><path d="M50,29.744A23.63,23.63,0,0,1,73.526,51.158q.1-1.1.1-2.216a23.629,23.629,0,0,0-47.258,0q0,1.12.1,2.216A23.63,23.63,0,0,1,50,29.744Z" fill="#ffffff"></path><path d="M50,68.141A23.631,23.631,0,0,0,73.526,46.727q.1,1.094.1,2.215a23.629,23.629,0,1,1-47.258,0q0-1.12.1-2.215A23.631,23.631,0,0,0,50,68.141Z" fill="#e0e0e0"></path><path d="M26.371 48.942 A23.629 23.629 0 1 0 73.629 48.942 A23.629 23.629 0 1 0 26.371 48.942 Z" fill="none" stroke="#45413c" stroke-miterlimit="10"></path><path d="M41.631 48.942 A8.369 8.369 0 1 0 58.369 48.942 A8.369 8.369 0 1 0 41.631 48.942 Z" fill="#ff6242" stroke="#45413c" stroke-miterlimit="10"></path><path d="M45.570 48.942 A4.430 4.430 0 1 0 54.430 48.942 A4.430 4.430 0 1 0 45.570 48.942 Z" fill="#ff6242"></path><path d="M50 25.313L50 40.574" fill="none" stroke="#45413c" stroke-miterlimit="10"></path><path d="M50 72.572L50 57.311" fill="none" stroke="#45413c" stroke-miterlimit="10"></path><path d="M48.523 48.942 A1.477 1.477 0 1 0 51.477 48.942 A1.477 1.477 0 1 0 48.523 48.942 Z" fill="#45413c" stroke="#45413c" stroke-linecap="round" stroke-linejoin="round"></path><path d="M26.371,48.942a23.557,23.557,0,0,0,6.957,16.745l2.888-1.976V60.082a17.724,17.724,0,0,1,0-22.279V34.174L33.328,32.2A23.557,23.557,0,0,0,26.371,48.942Z" fill="none" stroke="#45413c" stroke-linecap="round" stroke-linejoin="round"></path><path d="M34.740 50.912 A0.492 0.492 0 1 0 35.724 50.912 A0.492 0.492 0 1 0 34.740 50.912 Z" fill="#45413c" stroke="#45413c" stroke-linecap="round" stroke-linejoin="round"></path><path d="M36.217 54.850 A0.492 0.492 0 1 0 37.201 54.850 A0.492 0.492 0 1 0 36.217 54.850 Z" fill="#45413c" stroke="#45413c" stroke-linecap="round" stroke-linejoin="round"></path><path d="M34.740 46.973 A0.492 0.492 0 1 0 35.724 46.973 A0.492 0.492 0 1 0 34.740 46.973 Z" fill="#45413c" stroke="#45413c" stroke-linecap="round" stroke-linejoin="round"></path><path d="M36.217 43.035 A0.492 0.492 0 1 0 37.201 43.035 A0.492 0.492 0 1 0 36.217 43.035 Z" fill="#45413c" stroke="#45413c" stroke-linecap="round" stroke-linejoin="round"></path><path d="M73.629,48.942a23.557,23.557,0,0,1-6.957,16.745l-2.888-1.976V60.082a17.724,17.724,0,0,0,0-22.279V34.174L66.672,32.2A23.557,23.557,0,0,1,73.629,48.942Z" fill="none" stroke="#45413c" stroke-linecap="round" stroke-linejoin="round"></path><path d="M64.276 50.912 A0.492 0.492 0 1 0 65.260 50.912 A0.492 0.492 0 1 0 64.276 50.912 Z" fill="#45413c" stroke="#45413c" stroke-linecap="round" stroke-linejoin="round"></path><path d="M62.799 54.850 A0.492 0.492 0 1 0 63.783 54.850 A0.492 0.492 0 1 0 62.799 54.850 Z" fill="#45413c" stroke="#45413c" stroke-linecap="round" stroke-linejoin="round"></path><path d="M64.276 46.973 A0.492 0.492 0 1 0 65.260 46.973 A0.492 0.492 0 1 0 64.276 46.973 Z" fill="#45413c" stroke="#45413c" stroke-linecap="round" stroke-linejoin="round"></path><path d="M62.799 43.035 A0.492 0.492 0 1 0 63.783 43.035 A0.492 0.492 0 1 0 62.799 43.035 Z" fill="#45413c" stroke="#45413c" stroke-linecap="round" stroke-linejoin="round"></path></g></svg>