<svg xmlns="http://www.w3.org/2000/svg" version="1.1" xmlns:xlink="http://www.w3.org/1999/xlink" xmlns:svgjs="http://svgjs.com/svgjs" viewBox="0 0 200 200" width="200" height="200"><g transform="matrix(2,0,0,2,0,0)"><path d="M13.924,68.12a40.016,40.016,0,0,0,72.9,0Z" fill="#fcf5bb"></path><path d="M86.821,68.12a40,40,0,1,0-72.9,0Z" fill="#c7f0ff"></path><path d="M11.373 68.12L89.373 68.12" fill="none" stroke="#45413c" stroke-linecap="round" stroke-linejoin="round"></path><path d="M6.873 68.12L9.373 68.12" fill="none" stroke="#45413c" stroke-linecap="round" stroke-linejoin="round"></path><path d="M91.373 68.12L93.873 68.12" fill="none" stroke="#45413c" stroke-linecap="round" stroke-linejoin="round"></path><path d="M53.765,14.98h.347a3.3,3.3,0,0,1,3.279,2.936l.774,6.964h3.3l-.689-10.339A6.6,6.6,0,0,0,54.191,8.38h-.426Z" fill="#ff6242"></path><path d="M53.765,11.68V8.38h.426a6.6,6.6,0,0,1,6.585,6.161l.689,10.339-.69-7.04a6.6,6.6,0,0,0-6.589-6.16h-.418" fill="#ff866e"></path><path d="M53.765,14.98h.347a3.3,3.3,0,0,1,3.279,2.936l.774,6.964h3.3l-.689-10.339A6.6,6.6,0,0,0,54.191,8.38h-.426Z" fill="none" stroke="#45413c" stroke-linecap="round" stroke-linejoin="round"></path><path d="M51.565 11.680 A2.2 3.3 0 1 0 55.965 11.680 A2.2 3.3 0 1 0 51.565 11.680 Z" fill="#00b8f0"></path><path d="M53.765,8.38c-1.215,0-2.2,1.477-2.2,3.3a3.854,3.854,0,0,0,1.063,2.825L54.9,8.855A1.692,1.692,0,0,0,53.765,8.38Z" fill="#4acfff"></path><path d="M51.565 11.680 A2.2 3.3 0 1 0 55.965 11.680 A2.2 3.3 0 1 0 51.565 11.680 Z" fill="none" stroke="#45413c" stroke-linecap="round" stroke-linejoin="round"></path><path d="M17.959,75.883a1.147,1.147,0,0,1-.161-.032L17.546,73.2c1.3-3.018,1.888-7.425-.414-10.878-1.4-2.1-.361-5.958.159-7.273a1.65,1.65,0,1,0-3.064-1.224c-.259.644-2.447,6.418.159,10.327,1.817,2.727.727,6.586-.1,8.247a4.946,4.946,0,0,0,.046,4.831,4.156,4.156,0,0,0,3.63,1.957,1.65,1.65,0,0,0,0-3.3Z" fill="#9ceb60" stroke="#45413c" stroke-linecap="round" stroke-linejoin="round"></path><path d="M15.389,77.759a9.764,9.764,0,0,0-1.557-5.542c-1.4-2.1-.361-5.957.159-7.272a1.65,1.65,0,0,0-3.064-1.225c-.259.645-2.447,6.419.159,10.328a6.437,6.437,0,0,1,.987,3.661Z" fill="#9ceb60" stroke="#45413c" stroke-linecap="round" stroke-linejoin="round"></path><path d="M11.673 80.590 A8.866 1.518 0 1 0 29.405 80.590 A8.866 1.518 0 1 0 11.673 80.590 Z" fill="#45413c" opacity=".15"></path><path d="M35.746,75.955a2.5,2.5,0,0,1-1.78,1.425L30,78.632l-7.982,2.529a5.124,5.124,0,0,1-3.1-.04l-8.193-2.865-3.447-1.2a2.274,2.274,0,0,1-1.657-1.466c-.124-.6.265-1.2,1.045-1.622A5.576,5.576,0,0,1,9.61,73.4a5.471,5.471,0,0,1,1.422.274,1.159,1.159,0,0,1,.125-.83,3.187,3.187,0,0,1,2.127-1.265,6.262,6.262,0,0,1,3.111.132,3.336,3.336,0,0,1,.981.479A2.209,2.209,0,0,1,18,71.552a5.248,5.248,0,0,1,2.845-.718,5.063,5.063,0,0,1,2.793.782,1.771,1.771,0,0,1,.623.752,4.148,4.148,0,0,1,1.166-.525A6.3,6.3,0,0,1,28.55,71.8a2.933,2.933,0,0,1,2,1.326,1.086,1.086,0,0,1,.049.753,6.463,6.463,0,0,1,1.317-.2,5.388,5.388,0,0,1,2.9.635C35.574,74.749,35.908,75.359,35.746,75.955Z" fill="#ffe5ee"></path><path d="M30,78.632l-7.982,2.529a5.124,5.124,0,0,1-3.1-.04l-8.193-2.865a3.373,3.373,0,0,1,2.039-1.134,6.251,6.251,0,0,1,3.111.132,3.323,3.323,0,0,1,.981.479,2.236,2.236,0,0,1,.619-.641,5.252,5.252,0,0,1,2.846-.718,5.049,5.049,0,0,1,2.792.782,1.764,1.764,0,0,1,.623.752,4.155,4.155,0,0,1,1.167-.525,6.379,6.379,0,0,1,3.128-.042A2.9,2.9,0,0,1,30,78.632Z" fill="#ffb0ca"></path><path d="M35.746,75.955a2.5,2.5,0,0,1-1.78,1.425L30,78.632l-7.982,2.529a5.124,5.124,0,0,1-3.1-.04l-8.193-2.865-3.447-1.2a2.274,2.274,0,0,1-1.657-1.466c-.124-.6.265-1.2,1.045-1.622A5.576,5.576,0,0,1,9.61,73.4a5.471,5.471,0,0,1,1.422.274,1.159,1.159,0,0,1,.125-.83,3.187,3.187,0,0,1,2.127-1.265,6.262,6.262,0,0,1,3.111.132,3.336,3.336,0,0,1,.981.479A2.209,2.209,0,0,1,18,71.552a5.248,5.248,0,0,1,2.845-.718,5.063,5.063,0,0,1,2.793.782,1.771,1.771,0,0,1,.623.752,4.148,4.148,0,0,1,1.166-.525A6.3,6.3,0,0,1,28.55,71.8a2.933,2.933,0,0,1,2,1.326,1.086,1.086,0,0,1,.049.753,6.463,6.463,0,0,1,1.317-.2,5.388,5.388,0,0,1,2.9.635C35.574,74.749,35.908,75.359,35.746,75.955Z" fill="none" stroke="#45413c" stroke-linecap="round" stroke-linejoin="round"></path><path d="M68.279,35.88s2.83-7.549,9.366-9.537a1.1,1.1,0,0,1,1.409,1.207L77.079,41.38Z" fill="#ff6242" stroke="#45413c" stroke-linecap="round" stroke-linejoin="round"></path><path d="M64.979,32.58l-15.4-4.4V23.1a4.4,4.4,0,0,1,4.8-4.382l4.189.381a4.4,4.4,0,0,1,3.87,3.315Z" fill="#f0f0f0"></path><path d="M63.4,26.288a5.088,5.088,0,0,0-4.048-2.728l-4.862-.44a5.058,5.058,0,0,0-4.917,2.618V23.1a4.4,4.4,0,0,1,4.8-4.378l4.191.374a4.409,4.409,0,0,1,3.872,3.322Z" fill="#ffffff"></path><path d="M64.979,32.58l-15.4-4.4V23.1a4.4,4.4,0,0,1,4.8-4.382l4.189.381a4.4,4.4,0,0,1,3.87,3.315Z" fill="none" stroke="#45413c" stroke-linecap="round" stroke-linejoin="round"></path><path d="M72.465,49.08h-3.3v6.6h3.3a3.3,3.3,0,0,0,0-6.6Z" fill="#f0f0f0" stroke="#45413c" stroke-linecap="round" stroke-linejoin="round"></path><path d="M65.865 52.380 A3.300 3.300 0 1 0 72.465 52.380 A3.300 3.300 0 1 0 65.865 52.380 Z" fill="#f0f0f0"></path><path d="M72.465,52.38a3.3,3.3,0,0,1-1.32,2.64,2.75,2.75,0,0,1,0-5.28A3.3,3.3,0,0,1,72.465,52.38Z" fill="#bdbec0"></path><path d="M65.865 52.380 A3.300 3.300 0 1 0 72.465 52.380 A3.300 3.300 0 1 0 65.865 52.380 Z" fill="none" stroke="#45413c" stroke-linecap="round" stroke-linejoin="round"></path><path d="M77.079,41.123a7.684,7.684,0,0,1-4.129,6.811L58.605,55.418A31.4,31.4,0,0,1,44.079,58.98a16.5,16.5,0,0,1,0-33,40.81,40.81,0,0,1,14.87,2.806L72.2,33.969A7.683,7.683,0,0,1,77.079,41.123Z" fill="#f0f0f0"></path><path d="M76.569,43.874A7.681,7.681,0,0,0,72.2,33.969L58.949,28.786a40.81,40.81,0,0,0-14.87-2.806A16.51,16.51,0,0,0,27.808,45.23,16.508,16.508,0,0,1,44.077,31.48a40.937,40.937,0,0,1,14.872,2.8l13.244,5.181A7.68,7.68,0,0,1,76.569,43.874Z" fill="#ffffff"></path><path d="M74.912 77.391 A8.866 1.518 0 1 0 92.644 77.391 A8.866 1.518 0 1 0 74.912 77.391 Z" fill="#45413c" opacity=".15"></path><path d="M83.354,76.983h-5.3a4.847,4.847,0,0,1-.066-4.258,2.172,2.172,0,0,1,.143-.329c.825-1.661,1.914-5.522.1-8.25-2.607-3.905-.418-9.68-.154-10.329a1.648,1.648,0,1,1,3.058,1.232c-.517,1.309-1.551,5.17-.154,7.271,2.143,3.22,1.782,7.262.662,10.245a2.937,2.937,0,0,0-.19,1.314h0a3.568,3.568,0,0,0,1.438,2.393A1.5,1.5,0,0,1,83.354,76.983Z" fill="#9ceb60" stroke="#45413c" stroke-linecap="round" stroke-linejoin="round"></path><path d="M79.207,76.983H75.885a6.107,6.107,0,0,0-.957-2.937c-2.607-3.905-.418-9.68-.154-10.329a1.648,1.648,0,1,1,3.058,1.232c-.517,1.309-1.551,5.17-.154,7.271.11.165.209.33.308.5A9.48,9.48,0,0,1,79.207,76.983Z" fill="#9ceb60" stroke="#45413c" stroke-linecap="round" stroke-linejoin="round"></path><path d="M93.144,73.43a6.462,6.462,0,0,0-.99,3.553H88.843c0-.165.011-.33.022-.5A9.452,9.452,0,0,1,90.394,71.6c1.408-2.1.363-5.961-.154-7.27A1.646,1.646,0,1,1,93.3,63.112C93.562,63.75,95.751,69.525,93.144,73.43Z" fill="#9ceb60" stroke="#45413c" stroke-linecap="round" stroke-linejoin="round"></path><path d="M89.129,76.983H85.345c-1.837-3.839.077-8.877.308-9.471a1.651,1.651,0,1,1,3.069,1.221c-.517,1.309-1.562,5.17-.154,7.27.11.166.209.319.3.485A5.407,5.407,0,0,1,89.129,76.983Z" fill="#9ceb60" stroke="#45413c" stroke-linecap="round" stroke-linejoin="round"></path><path d="M27.605,54.154a5.44,5.44,0,0,0-4.162.668,1.116,1.116,0,0,0-.369,1.526,1.093,1.093,0,0,0,1.512.365,3.358,3.358,0,0,1,4.536,1.1,3.353,3.353,0,0,1-1.106,4.578,3.358,3.358,0,0,1-4.536-1.1,1.092,1.092,0,0,0-1.512-.365,1.116,1.116,0,0,0-.369,1.526,5.463,5.463,0,0,0,7.56,1.827A5.587,5.587,0,0,0,31,56.649,5.442,5.442,0,0,0,27.605,54.154Z" fill="#656769" stroke="#45413c" stroke-linecap="round" stroke-linejoin="round"></path><path d="M29.3,60.056a2.106,2.106,0,0,0-.055.228,2.19,2.19,0,0,0,1.717,2.566A9.4,9.4,0,0,0,38.3,60.97c2.518-2.108,3.749-5.6,3.656-10.382a2.2,2.2,0,0,0-4.4.087c.067,3.311-.643,5.694-2.048,6.893a4.941,4.941,0,0,1-3.711.963A2.214,2.214,0,0,0,29.3,60.056Z" fill="#daedf7" stroke="#45413c" stroke-linecap="round" stroke-linejoin="round"></path><path d="M35.588,62.481a4.772,4.772,0,0,0-1.347-4.187" fill="none" stroke="#45413c" stroke-linecap="round" stroke-linejoin="round"></path><path d="M40.631,57.939a4.773,4.773,0,0,0-3.862-2.145" fill="none" stroke="#45413c" stroke-linecap="round" stroke-linejoin="round"></path><path d="M41.855,53.325a4.781,4.781,0,0,0-4.336-.925" fill="none" stroke="#45413c" stroke-linecap="round" stroke-linejoin="round"></path><path d="M39.556 80.965 A12.1 1.65 0 1 0 63.756 80.965 A12.1 1.65 0 1 0 39.556 80.965 Z" fill="#45413c" opacity=".15"></path><path d="M77.079,41.123a7.684,7.684,0,0,1-4.129,6.811L58.605,55.418A31.4,31.4,0,0,1,44.079,58.98a16.5,16.5,0,0,1,0-33,40.81,40.81,0,0,1,14.87,2.806L72.2,33.969A7.683,7.683,0,0,1,77.079,41.123Z" fill="none" stroke="#45413c" stroke-linecap="round" stroke-linejoin="round"></path><path d="M52.879,42.48c0,7.15-3.542,13.354-8.734,16.5h-.066a16.5,16.5,0,0,1,0-33h.066C49.337,29.126,52.879,35.33,52.879,42.48Z" fill="#009fd9"></path><path d="M31.806,47.131c0-8.687,4.938-12.793,9.422-14.739a10.347,10.347,0,0,1,9.351.564,17.7,17.7,0,0,0-6.434-6.976h-.067A16.5,16.5,0,0,0,34.2,55.7,16.408,16.408,0,0,1,31.806,47.131Z" fill="#4acfff"></path><path d="M48.3,61.169a5.438,5.438,0,0,0-3.26,2.672,1.117,1.117,0,0,0,.45,1.5,1.092,1.092,0,0,0,1.49-.445,3.358,3.358,0,0,1,4.472-1.338A3.353,3.353,0,0,1,52.8,68.074a3.358,3.358,0,0,1-4.471,1.338,1.091,1.091,0,0,0-1.49.446,1.118,1.118,0,0,0,.45,1.5,5.464,5.464,0,0,0,7.452-2.23,5.588,5.588,0,0,0-2.25-7.52A5.442,5.442,0,0,0,48.3,61.169Z" fill="#656769" stroke="#45413c" stroke-linecap="round" stroke-linejoin="round"></path><path d="M52.729,65.416a2.124,2.124,0,0,0,.066.225,2.19,2.19,0,0,0,2.776,1.351,9.4,9.4,0,0,0,5.4-5.323c1.113-3.09.418-6.727-2.071-10.81a2.2,2.2,0,0,0-3.757,2.29c1.725,2.827,2.313,5.243,1.7,6.987a4.938,4.938,0,0,1-2.721,2.7A2.215,2.215,0,0,0,52.729,65.416Z" fill="#daedf7" stroke="#45413c" stroke-linecap="round" stroke-linejoin="round"></path><path d="M59.385,64.342A4.771,4.771,0,0,0,56.112,61.4" fill="none" stroke="#45413c" stroke-linecap="round" stroke-linejoin="round"></path><path d="M61.455,57.878a4.771,4.771,0,0,0-4.417.092" fill="none" stroke="#45413c" stroke-linecap="round" stroke-linejoin="round"></path><path d="M60.188,53.276a4.775,4.775,0,0,0-4.211,1.385" fill="none" stroke="#45413c" stroke-linecap="round" stroke-linejoin="round"></path><path d="M16.112 74.354 A4.521 4.521 0 1 0 25.154 74.354 A4.521 4.521 0 1 0 16.112 74.354 Z" fill="#ffffff"></path><path d="M30.054 42.480 A1.65 3.85 0 1 0 33.354 42.480 A1.65 3.85 0 1 0 30.054 42.480 Z" fill="#ffffff" stroke="#00658a" stroke-linecap="round" stroke-linejoin="round"></path><path d="M38.579 42.480 A1.65 3.85 0 1 0 41.879 42.480 A1.65 3.85 0 1 0 38.579 42.480 Z" fill="#ffffff" stroke="#00658a" stroke-linecap="round" stroke-linejoin="round"></path><path d="M52.879,42.48c0,7.15-3.542,13.354-8.734,16.5h-.066a16.5,16.5,0,0,1,0-33h.066C49.337,29.126,52.879,35.33,52.879,42.48Z" fill="none" stroke="#45413c" stroke-linecap="round" stroke-linejoin="round"></path><path d="M65.865 41.380 A4.400 4.400 0 1 0 74.665 41.380 A4.400 4.400 0 1 0 65.865 41.380 Z" fill="#ffe500" stroke="#45413c" stroke-linecap="round" stroke-linejoin="round"></path><path d="M68.065 41.380 A2.200 2.200 0 1 0 72.465 41.380 A2.200 2.200 0 1 0 68.065 41.380 Z" fill="#009fd9"></path><path d="M68.71,42.936a2.2,2.2,0,0,1,3.111-3.112Z" fill="#4acfff"></path><path d="M68.065 41.380 A2.200 2.200 0 1 0 72.465 41.380 A2.200 2.200 0 1 0 68.065 41.380 Z" fill="none" stroke="#45413c" stroke-linecap="round" stroke-linejoin="round"></path><path d="M54.876 41.380 A4.400 4.400 0 1 0 63.676 41.380 A4.400 4.400 0 1 0 54.876 41.380 Z" fill="#ffe500" stroke="#45413c" stroke-linecap="round" stroke-linejoin="round"></path><path d="M57.076 41.380 A2.200 2.200 0 1 0 61.476 41.380 A2.200 2.200 0 1 0 57.076 41.380 Z" fill="#009fd9"></path><path d="M57.72,42.936a2.2,2.2,0,1,1,3.112-3.112Z" fill="#4acfff"></path><path d="M57.076 41.380 A2.200 2.200 0 1 0 61.476 41.380 A2.200 2.200 0 1 0 57.076 41.380 Z" fill="none" stroke="#45413c" stroke-linecap="round" stroke-linejoin="round"></path><path d="M16.462,72.608a4.521,4.521,0,1,0,8.5.444,4.5,4.5,0,0,1-8.5-.444" fill="#fffacf"></path><path d="M16.112 74.354 A4.521 4.521 0 1 0 25.154 74.354 A4.521 4.521 0 1 0 16.112 74.354 Z" fill="none" stroke="#45413c" stroke-linecap="round" stroke-linejoin="round"></path></g></svg>