<svg xmlns="http://www.w3.org/2000/svg" version="1.1" xmlns:xlink="http://www.w3.org/1999/xlink" xmlns:svgjs="http://svgjs.com/svgjs" viewBox="0 0 200 200" width="200" height="200"><g transform="matrix(2,0,0,2,0,0)"><path d="M8.424 49.750 A40.000 40.000 0 1 0 88.424 49.750 A40.000 40.000 0 1 0 8.424 49.750 Z" fill="#e8f4fa" stroke="#daedf7" stroke-miterlimit="10"></path><path d="M73.924,60.544H23.012V13.858a3,3,0,0,1,3-3H70.924a3,3,0,0,1,3,3Z" fill="#e5fff9" stroke="#45413c" stroke-linecap="round" stroke-linejoin="round"></path><path d="M70.424,18.044a3,3,0,0,0-2.493-2.957,118.819,118.819,0,0,0-20.007-1.5,106.081,106.081,0,0,0-19.043,1.461A3,3,0,0,0,26.424,18V42.131a3,3,0,0,0,2.457,2.951,106.05,106.05,0,0,0,19.043,1.462,118.929,118.929,0,0,0,20.007-1.5,3,3,0,0,0,2.493-2.957Z" fill="#ccfff3"></path><path d="M58.5,21.742a8.659,8.659,0,0,0-1.142-2.021,8.137,8.137,0,0,0-9.116-2.78,1.113,1.113,0,0,1-.734,0,8.137,8.137,0,0,0-9.116,2.78,8.7,8.7,0,0,0-1.142,2.021l-.377.9a50.49,50.49,0,0,0-3.881,19.413v.605a5.893,5.893,0,0,0,.923,3.155,124.357,124.357,0,0,0,14.013.725,135.47,135.47,0,0,0,13.87-.673,5.887,5.887,0,0,0,.96-3.207v-.605a50.49,50.49,0,0,0-3.881-19.413Z" fill="#8cffe4"></path><path d="M70.424,18.044a3,3,0,0,0-2.493-2.957,118.819,118.819,0,0,0-20.007-1.5,106.081,106.081,0,0,0-19.043,1.461A3,3,0,0,0,26.424,18V42.131a3,3,0,0,0,2.457,2.951,106.05,106.05,0,0,0,19.043,1.462,118.929,118.929,0,0,0,20.007-1.5,3,3,0,0,0,2.493-2.957Z" fill="none" stroke="#45413c" stroke-linecap="round" stroke-linejoin="round"></path><path d="M33.424,77.544v2a2.5,2.5,0,1,0,5,0v-2Z" fill="#ffcebf" stroke="#45413c" stroke-linecap="round" stroke-linejoin="round"></path><path d="M57.424,77.544v2a2.5,2.5,0,1,0,5,0v-2Z" fill="#ffcebf" stroke="#45413c" stroke-linecap="round" stroke-linejoin="round"></path><path d="M63.424,61.044a15.5,15.5,0,0,0-16.25-15.483,15.788,15.788,0,0,0-14.75,15.92V76.544a1,1,0,0,0,1,1h5v-17h19v17h5a1,1,0,0,0,1-1Z" fill="#ffb0ca"></path><path d="M63.424,61.044a15.5,15.5,0,0,0-16.25-15.483,15.788,15.788,0,0,0-14.75,15.92V76.544a1,1,0,0,0,1,1h5v-17h19v17h5a1,1,0,0,0,1-1Z" fill="#ffa694"></path><path d="M63.424,61.044a15.5,15.5,0,0,0-16.25-15.483,15.788,15.788,0,0,0-14.75,15.92V76.544a1,1,0,0,0,1,1h5v-17h19v17h5a1,1,0,0,0,1-1Z" fill="none" stroke="#45413c" stroke-linecap="round" stroke-linejoin="round"></path><path d="M44.424,46.044a3.5,3.5,0,0,0,7,0v-3.5h-7Z" fill="#d18660"></path><path d="M44.424,46.03a12.173,12.173,0,0,0,7,0V42.544h-7Z" fill="#bd704a"></path><path d="M47.924,49.544a3.5,3.5,0,0,1-3.5-3.5v-3.5h7v3.5A3.5,3.5,0,0,1,47.924,49.544Z" fill="none" stroke="#45413c" stroke-linecap="round" stroke-linejoin="round"></path><path d="M38.424 60.544L38.424 59.544" fill="none" stroke="#45413c" stroke-linecap="round" stroke-linejoin="round"></path><path d="M57.424 60.544L57.424 59.544" fill="none" stroke="#45413c" stroke-linecap="round" stroke-linejoin="round"></path><path d="M37.924,32.044v-2.5a10,10,0,0,1,20,0v2.5a2,2,0,0,1,0,4c-.042,0-.081-.01-.123-.013a9.987,9.987,0,0,1-19.755,0c-.041,0-.08.013-.122.013a2,2,0,1,1,0-4Z" fill="#d18660"></path><path d="M37.924,32.044v-2.5a10,10,0,0,1,20,0v2.5a2,2,0,0,1,0,4c-.042,0-.081-.01-.123-.013a9.987,9.987,0,0,1-19.755,0c-.041,0-.08.013-.122.013a2,2,0,1,1,0-4Z" fill="none" stroke="#45413c" stroke-linecap="round" stroke-linejoin="round"></path><path d="M52.424 36.294 A1.250 1.250 0 1 0 54.924 36.294 A1.250 1.250 0 1 0 52.424 36.294 Z" fill="#bd704a"></path><path d="M40.924 36.294 A1.250 1.250 0 1 0 43.424 36.294 A1.250 1.250 0 1 0 40.924 36.294 Z" fill="#bd704a"></path><path d="M42.425,33.043h3.008" fill="none" stroke="#45413c" stroke-linecap="round" stroke-linejoin="round"></path><path d="M50.433,33.043h3.009" fill="none" stroke="#45413c" stroke-linecap="round" stroke-linejoin="round"></path><path d="M52.686,39.572a4.832,4.832,0,0,1-1.9-2.473,3,3,0,0,0-5.673-.168,5.47,5.47,0,0,1-1.933,2.628,2.987,2.987,0,0,0-1.118,3.362,3.078,3.078,0,0,0,2.973,2.073h5.646a3.422,3.422,0,0,0,1.842-.49A2.969,2.969,0,0,0,52.686,39.572Z" fill="#80ddff"></path><path d="M42.208,43.287a2.931,2.931,0,0,1,.976-1.173,5.4,5.4,0,0,0,1.93-2.62,3.008,3.008,0,0,1,5.68.16,4.8,4.8,0,0,0,1.89,2.48,2.805,2.805,0,0,1,.95,1.14,2.981,2.981,0,0,0-.948-3.7,4.832,4.832,0,0,1-1.9-2.473,3,3,0,0,0-5.673-.168,5.47,5.47,0,0,1-1.933,2.628,2.987,2.987,0,0,0-1.118,3.362A2.7,2.7,0,0,0,42.208,43.287Z" fill="#b8ecff"></path><path d="M52.686,39.572a4.832,4.832,0,0,1-1.9-2.473,3,3,0,0,0-5.673-.168,5.47,5.47,0,0,1-1.933,2.628,2.987,2.987,0,0,0-1.118,3.362,3.078,3.078,0,0,0,2.973,2.073h5.646a3.422,3.422,0,0,0,1.842-.49A2.969,2.969,0,0,0,52.686,39.572Z" fill="none" stroke="#45413c" stroke-linecap="round" stroke-linejoin="round"></path><path d="M62.215,41.242a2.629,2.629,0,0,0-.808-1.716c-.374-.361-.486-.36-.358-.876a1.976,1.976,0,0,0,.025-1.271,2.359,2.359,0,0,1-.2-.561,1.86,1.86,0,0,1,.164-.746,2.654,2.654,0,0,0-.046-1.7c-.139-.41-.592-.786-.48-1.251.21-.866,1.152-1.459.219-2.356a8.826,8.826,0,0,0-.826-.57,2.373,2.373,0,0,1-.685-2.365c.09-.677.562-1.462-.059-2.03a5.532,5.532,0,0,0-.625-.435,4.447,4.447,0,0,1-1.426-2.26,7.614,7.614,0,0,0-1-1.765,7.109,7.109,0,0,0-7.963-2.429.914.914,0,0,1-.6,0,7.109,7.109,0,0,0-7.963,2.429,7.614,7.614,0,0,0-1,1.765,4.447,4.447,0,0,1-1.426,2.26,5.532,5.532,0,0,0-.625.435c-.621.568-.149,1.353-.059,2.03A2.373,2.373,0,0,1,35.8,30.2a8.826,8.826,0,0,0-.826.57c-.933.9.009,1.49.219,2.356.112.465-.341.841-.48,1.251a2.654,2.654,0,0,0-.046,1.7,1.86,1.86,0,0,1,.164.746,2.359,2.359,0,0,1-.2.561,1.97,1.97,0,0,0,.026,1.271c.127.516.015.515-.359.876a2.629,2.629,0,0,0-.808,1.716,2.745,2.745,0,0,0,2.034,2.864c0,.013,0,.026,0,.039,0,.934.835,1.551,1.578,1.951,1.329.716,3.075,1.58,4.343.288.387-.394.041-1.811-.037-2.314-.054-.348-.339-.667-.31-1.026s.4-.431.592-.691a1.95,1.95,0,0,0,.412-1.182,2,2,0,0,0-.388-1.2c-.262-.36-.664-.475-.969-.776s-.188-.69-.265-1.067c-.086-.421-.352-.748-.16-1.2a1.9,1.9,0,0,0,.068-1.423.833.833,0,0,1-.03-.227c.019-.384.613-.712.815-1.036a2.731,2.731,0,0,0,.416-1.444c0-.51-.54-1.047-.2-1.537.157-.226.565-.4.779-.591a2.879,2.879,0,0,0,.966-1.467c.112-.471-.2-1.426.109-1.746a3.761,3.761,0,0,0,.818-1.175c.153-.366.11-1.024.508-1.253.529-.3,1.61.227,2.032.544l.675.506a.952.952,0,0,0,1.16,0l.675-.506c.422-.317,1.5-.849,2.032-.544.4.229.355.887.508,1.253a3.761,3.761,0,0,0,.818,1.175c.312.32,0,1.275.109,1.746a2.879,2.879,0,0,0,.966,1.467c.214.188.622.365.779.591.341.49-.2,1.027-.2,1.537a2.731,2.731,0,0,0,.416,1.444c.2.324.8.652.815,1.036a.873.873,0,0,1-.029.227,1.891,1.891,0,0,0,.067,1.423c.192.451-.074.778-.16,1.2-.077.377.044.764-.265,1.067s-.707.416-.969.776a2,2,0,0,0-.388,1.2,1.95,1.95,0,0,0,.412,1.182c.192.26.565.339.592.691s-.256.678-.31,1.026c-.078.5-.424,1.92-.037,2.314,1.268,1.292,3.014.428,4.343-.288.743-.4,1.579-1.017,1.579-1.951,0-.013,0-.026,0-.039A2.745,2.745,0,0,0,62.215,41.242Z" fill="#724f3d"></path><path d="M54.318,33.675a.771.771,0,0,0-.069-.072,2.646,2.646,0,0,0,.175.393A.6.6,0,0,0,54.318,33.675Z" fill="#a86c4d"></path><path d="M41.384,33.675a.6.6,0,0,0-.106.321,2.646,2.646,0,0,0,.175-.393A.771.771,0,0,0,41.384,33.675Z" fill="#a86c4d"></path><path d="M36.518,28.238c.009-.008.012-.017.021-.025a5.532,5.532,0,0,1,.625-.435,4.452,4.452,0,0,0,1.426-2.26,7.614,7.614,0,0,1,1-1.765,7.109,7.109,0,0,1,7.963-2.429.931.931,0,0,0,.6,0,7.109,7.109,0,0,1,7.963,2.429,7.614,7.614,0,0,1,1,1.765,4.452,4.452,0,0,0,1.426,2.26,5.532,5.532,0,0,1,.625.435c.009.008.012.017.021.025.008-.136.02-.271.038-.406.09-.677.562-1.462-.059-2.03a5.532,5.532,0,0,0-.625-.435,4.447,4.447,0,0,1-1.426-2.26,7.614,7.614,0,0,0-1-1.765,7.109,7.109,0,0,0-7.963-2.429.914.914,0,0,1-.6,0,7.109,7.109,0,0,0-7.963,2.429,7.614,7.614,0,0,0-1,1.765,4.447,4.447,0,0,1-1.426,2.26,5.532,5.532,0,0,0-.625.435c-.621.568-.149,1.353-.059,2.03C36.5,27.967,36.51,28.1,36.518,28.238Z" fill="#a86c4d"></path><path d="M62.215,41.242a2.629,2.629,0,0,0-.808-1.716c-.374-.361-.486-.36-.358-.876a1.976,1.976,0,0,0,.025-1.271,2.359,2.359,0,0,1-.2-.561,1.86,1.86,0,0,1,.164-.746,2.654,2.654,0,0,0-.046-1.7c-.139-.41-.592-.786-.48-1.251.21-.866,1.152-1.459.219-2.356a8.826,8.826,0,0,0-.826-.57,2.373,2.373,0,0,1-.685-2.365c.09-.677.562-1.462-.059-2.03a5.532,5.532,0,0,0-.625-.435,4.447,4.447,0,0,1-1.426-2.26,7.614,7.614,0,0,0-1-1.765,7.109,7.109,0,0,0-7.963-2.429.914.914,0,0,1-.6,0,7.109,7.109,0,0,0-7.963,2.429,7.614,7.614,0,0,0-1,1.765,4.447,4.447,0,0,1-1.426,2.26,5.532,5.532,0,0,0-.625.435c-.621.568-.149,1.353-.059,2.03A2.373,2.373,0,0,1,35.8,30.2a8.826,8.826,0,0,0-.826.57c-.933.9.009,1.49.219,2.356.112.465-.341.841-.48,1.251a2.654,2.654,0,0,0-.046,1.7,1.86,1.86,0,0,1,.164.746,2.359,2.359,0,0,1-.2.561,1.97,1.97,0,0,0,.026,1.271c.127.516.015.515-.359.876a2.629,2.629,0,0,0-.808,1.716,2.745,2.745,0,0,0,2.034,2.864c0,.013,0,.026,0,.039,0,.934.835,1.551,1.578,1.951,1.329.716,3.075,1.58,4.343.288.387-.394.041-1.811-.037-2.314-.054-.348-.339-.667-.31-1.026s.4-.431.592-.691a1.95,1.95,0,0,0,.412-1.182,2,2,0,0,0-.388-1.2c-.262-.36-.664-.475-.969-.776s-.188-.69-.265-1.067c-.086-.421-.352-.748-.16-1.2a1.9,1.9,0,0,0,.068-1.423.833.833,0,0,1-.03-.227c.019-.384.613-.712.815-1.036a2.731,2.731,0,0,0,.416-1.444c0-.51-.54-1.047-.2-1.537.157-.226.565-.4.779-.591a2.879,2.879,0,0,0,.966-1.467c.112-.471-.2-1.426.109-1.746a3.761,3.761,0,0,0,.818-1.175c.153-.366.11-1.024.508-1.253.529-.3,1.61.227,2.032.544l.675.506a.952.952,0,0,0,1.16,0l.675-.506c.422-.317,1.5-.849,2.032-.544.4.229.355.887.508,1.253a3.761,3.761,0,0,0,.818,1.175c.312.32,0,1.275.109,1.746a2.879,2.879,0,0,0,.966,1.467c.214.188.622.365.779.591.341.49-.2,1.027-.2,1.537a2.731,2.731,0,0,0,.416,1.444c.2.324.8.652.815,1.036a.873.873,0,0,1-.029.227,1.891,1.891,0,0,0,.067,1.423c.192.451-.074.778-.16,1.2-.077.377.044.764-.265,1.067s-.707.416-.969.776a2,2,0,0,0-.388,1.2,1.95,1.95,0,0,0,.412,1.182c.192.26.565.339.592.691s-.256.678-.31,1.026c-.078.5-.424,1.92-.037,2.314,1.268,1.292,3.014.428,4.343-.288.743-.4,1.579-1.017,1.579-1.951,0-.013,0-.026,0-.039A2.745,2.745,0,0,0,62.215,41.242Z" fill="none" stroke="#45413c" stroke-linecap="round" stroke-linejoin="round"></path><path d="M33.424,77.544v2a2.5,2.5,0,1,0,5,0v-2Z" fill="#ffcebf" stroke="#45413c" stroke-linecap="round" stroke-linejoin="round"></path><path d="M57.424,77.544v2a2.5,2.5,0,1,0,5,0v-2Z" fill="#ffcebf" stroke="#45413c" stroke-linecap="round" stroke-linejoin="round"></path><path d="M38.424 60.544L38.424 59.544" fill="none" stroke="#45413c" stroke-linecap="round" stroke-linejoin="round"></path><path d="M57.424 60.544L57.424 59.544" fill="none" stroke="#45413c" stroke-linecap="round" stroke-linejoin="round"></path><path d="M75.424,90.25V49.816a2,2,0,0,0-2-2h-50.3a2,2,0,0,0-2,2V90.25" fill="#ccfff3" stroke="#45413c" stroke-linecap="round" stroke-linejoin="round"></path><path d="M35.424 65.994 L61.424 65.994 L61.424 89.994 L35.424 89.994 Z" fill="#8cffe4" stroke="#45413c" stroke-linecap="round" stroke-linejoin="round"></path><path d="M41.424 77.994 A7.000 7.000 0 1 0 55.424 77.994 A7.000 7.000 0 1 0 41.424 77.994 Z" fill="#d18660"></path><path d="M44.923 41.994 A3.000 3.000 0 1 0 50.923 41.994 A3.000 3.000 0 1 0 44.923 41.994 Z" fill="#87898c"></path><path d="M45.1,43.014a2.988,2.988,0,0,1,5.646,0,3,3,0,1,0-5.646,0Z" fill="#bdbec0"></path><path d="M44.923 41.994 A3.000 3.000 0 1 0 50.923 41.994 A3.000 3.000 0 1 0 44.923 41.994 Z" fill="none" stroke="#45413c" stroke-linecap="round" stroke-linejoin="round"></path><path d="M78.462,21.284V47.7a3.776,3.776,0,0,1-1.121,2.675,3.831,3.831,0,0,1-2.708,1.074l-21.775-.127a3.767,3.767,0,0,1-3.685-3.749v-4.58a1.25,1.25,0,1,0-2.5,0v4.58a6.282,6.282,0,0,0,6.156,6.249l21.774.127h.107a6.249,6.249,0,0,0,6.252-6.25V21.284" fill="#b8ecff" stroke="#45413c" stroke-linecap="round" stroke-linejoin="round"></path><path d="M41.584,79.492a7,7,0,0,1,13.679,0,7,7,0,1,0-13.714-.174" fill="#bd704a"></path><path d="M41.424 77.994 A7.000 7.000 0 1 0 55.424 77.994 A7.000 7.000 0 1 0 41.424 77.994 Z" fill="none" stroke="#45413c" stroke-linecap="round" stroke-linejoin="round"></path><path d="M48.424,71.994s-5,5,0,12C53.424,76.994,48.424,71.994,48.424,71.994Z" fill="#e04122" stroke="#45413c" stroke-linecap="round" stroke-linejoin="round"></path><path d="M38.281,67.779,36.16,69.9l2.121,2.121a1,1,0,0,0,1.414,0l.707-.707a1,1,0,0,0,0-1.414Z" fill="#ffffff" stroke="#45413c" stroke-miterlimit="10"></path><path d="M40.048,71.669l2.311,2.31.129,2.919a1,1,0,0,0,.8.936l3.027.618a.2.2,0,0,0,.182-.337l-4.233-4.233" fill="#e8f4fa" stroke="#45413c" stroke-linecap="round" stroke-linejoin="round"></path><path d="M32.624,60.708l-3.535,3.535L34.745,69.9a1,1,0,0,0,1.415,0l2.121-2.121a1,1,0,0,0,0-1.414Z" fill="#ffffff"></path><path d="M32.624,60.708l-3.535,3.535L34.745,69.9a1,1,0,0,0,1.415,0l2.121-2.121a1,1,0,0,0,0-1.414Z" fill="none" stroke="#45413c" stroke-miterlimit="10"></path><path d="M34.891,62.918a4,4,0,0,1-3.53,3.6l-1.48-1.48A4,4,0,0,0,33.618,61.7Z" fill="#daedf7"></path><path d="M32.624,60.708l-3.535,3.535L34.745,69.9a1,1,0,0,0,1.415,0l2.121-2.121a1,1,0,0,0,0-1.414Z" fill="none" stroke="#45413c" stroke-miterlimit="10"></path><path d="M13.672,65.041h16a4,4,0,0,0,4-4h0a4,4,0,0,0-4-4h-16Z" fill="#ffffff" stroke="#45413c" stroke-linecap="round" stroke-linejoin="round"></path><path d="M28.172 61.041 A1.500 1.500 0 1 0 31.172 61.041 A1.500 1.500 0 1 0 28.172 61.041 Z" fill="#ffffff" stroke="#45413c" stroke-linecap="round" stroke-linejoin="round"></path><path d="M6.172,66.041h9a1,1,0,0,0,1-1v-8a1,1,0,0,0-1-1h-9a5,5,0,0,0-5,5h0A5,5,0,0,0,6.172,66.041Z" fill="#e0e0e0" stroke="#45413c" stroke-linecap="round" stroke-linejoin="round"></path><path d="M55.355,61.139l2.122,2.121-2.122,2.121a1,1,0,0,1-1.414,0l-.707-.707a1,1,0,0,1,0-1.414Z" fill="#e8f4fa" stroke="#45413c" stroke-miterlimit="10"></path><path d="M54.3,65.735l-1.414-1.414-1.72,1.72a3.465,3.465,0,0,0-1.652-.433,3.5,3.5,0,0,0-3.5,3.5,1,1,0,0,0,2,0,1.5,1.5,0,1,1,1.5,1.5,1,1,0,1,0,0,2,3.5,3.5,0,0,0,3.5-3.5,3.452,3.452,0,0,0-.434-1.653Z" fill="#ffffff" stroke="#45413c" stroke-linecap="round" stroke-linejoin="round"></path><path d="M61.012,54.068,64.548,57.6,58.891,63.26a1,1,0,0,1-1.414,0l-2.122-2.121a1,1,0,0,1,0-1.414Z" fill="#e8f4fa"></path><path d="M61.012,54.068,64.548,57.6,58.891,63.26a1,1,0,0,1-1.414,0l-2.122-2.121a1,1,0,0,1,0-1.414Z" fill="none" stroke="#45413c" stroke-miterlimit="10"></path><path d="M58.745,56.278a4,4,0,0,0,3.53,3.6l1.48-1.48a4,4,0,0,1-3.737-3.334Z" fill="#b8ecff"></path><path d="M61.012,54.068,64.548,57.6,58.891,63.26a1,1,0,0,1-1.414,0l-2.122-2.121a1,1,0,0,1,0-1.414Z" fill="#ffffff" stroke="#45413c" stroke-miterlimit="10"></path><path d="M79.964,58.4h-16a4,4,0,0,1-4-4h0a4,4,0,0,1,4-4h16Z" fill="#ffffff" stroke="#45413c" stroke-linecap="round" stroke-linejoin="round"></path><path d="M62.464 54.401 A1.500 1.500 0 1 0 65.464 54.401 A1.500 1.500 0 1 0 62.464 54.401 Z" fill="#ffffff" stroke="#45413c" stroke-linecap="round" stroke-linejoin="round"></path><path d="M87.732,59.5h-9a1,1,0,0,1-1-1v-8a1,1,0,0,1,1-1h9a5,5,0,0,1,5,5h0A5,5,0,0,1,87.732,59.5Z" fill="#e0e0e0" stroke="#45413c" stroke-linecap="round" stroke-linejoin="round"></path><path d="M61.583,74.442,62.7,77.226l-2.784,1.118a1,1,0,0,1-1.3-.555l-.373-.928a1,1,0,0,1,.555-1.3Z" fill="#e8f4fa" stroke="#45413c" stroke-miterlimit="10"></path><path d="M58.8,78.254,58.058,76.4,55.8,77.3a3.453,3.453,0,0,0-1.348-1.047A3.5,3.5,0,0,0,49.86,78.1a1,1,0,0,0,1.839.785,1.5,1.5,0,1,1,.791,1.968,1,1,0,1,0-.785,1.839A3.5,3.5,0,0,0,56.3,80.85a3.453,3.453,0,0,0,.249-1.69Z" fill="#ffffff" stroke="#45413c" stroke-linecap="round" stroke-linejoin="round"></path><path d="M69.561,70.159,71.425,74.8,64,77.781a1,1,0,0,1-1.3-.555l-1.118-2.784a1,1,0,0,1,.555-1.3Z" fill="#ffffff"></path><path d="M69.561,70.159,71.425,74.8,64,77.781a1,1,0,0,1-1.3-.555l-1.118-2.784a1,1,0,0,1,.555-1.3Z" fill="none" stroke="#45413c" stroke-miterlimit="10"></path><path d="M66.608,71.3A4,4,0,0,0,68.443,76l1.942-.781a4,4,0,0,1-2.128-4.533Z" fill="#daedf7"></path><path d="M69.561,70.159,71.425,74.8,64,77.781a1,1,0,0,1-1.3-.555l-1.118-2.784a1,1,0,0,1,.555-1.3Z" fill="none" stroke="#45413c" stroke-miterlimit="10"></path><path d="M85.291,81.584,70.575,75.3a4,4,0,0,1-2.109-5.249h0a4,4,0,0,1,5.25-2.109l14.715,6.281Z" fill="#ffffff" stroke="#45413c" stroke-linecap="round" stroke-linejoin="round"></path><path d="M70.645 71.624 A1.500 1.500 0 1 0 73.645 71.624 A1.500 1.500 0 1 0 70.645 71.624 Z" fill="#ffffff" stroke="#45413c" stroke-linecap="round" stroke-linejoin="round"></path><path d="M91.864,85.53,83.586,82a1,1,0,0,1-.527-1.313l3.14-7.358a1,1,0,0,1,1.313-.527l8.277,3.533a5,5,0,0,1,2.636,6.562h0A5,5,0,0,1,91.864,85.53Z" fill="#e0e0e0" stroke="#45413c" stroke-linecap="round" stroke-linejoin="round"></path></g></svg>