<svg xmlns="http://www.w3.org/2000/svg" version="1.1" xmlns:xlink="http://www.w3.org/1999/xlink" xmlns:svgjs="http://svgjs.com/svgjs" viewBox="0 0 200 200" width="200" height="200"><g transform="matrix(2,0,0,2,0,0)"><path d="M8.954 50.000 A40.000 40.000 0 1 0 88.954 50.000 A40.000 40.000 0 1 0 8.954 50.000 Z" fill="#e8f4fa" stroke="#daedf7" stroke-miterlimit="10"></path><path d="M12.461,47.644a2.628,2.628,0,1,1-5.15,1.047l-2.095-10.3a1.314,1.314,0,0,1,1.026-1.549l2.575-.524a1.314,1.314,0,0,1,1.549,1.026Z" fill="#daedf7"></path><path d="M11.676,43.781a2.628,2.628,0,0,1-5.15,1.048l.785,3.862a2.628,2.628,0,1,0,5.15-1.047l-.733-3.6" fill="#c0dceb"></path><path d="M5.831 21.108 A5.255 5.255 0 1 0 16.341 21.108 A5.255 5.255 0 1 0 5.831 21.108 Z" fill="#4acfff"></path><path d="M8.011,25.37a5.255,5.255,0,0,1,6.151-8.523Z" fill="#80ddff"></path><path d="M7.53,36.58,6.175,29.922a2.625,2.625,0,0,1,.384-1.974l1.627-2.457" fill="none" stroke="#45413c" stroke-linecap="round" stroke-linejoin="round"></path><path d="M12.461,47.644a2.628,2.628,0,1,1-5.15,1.047l-2.095-10.3a1.314,1.314,0,0,1,1.026-1.549l2.575-.524a1.314,1.314,0,0,1,1.549,1.026Z" fill="none" stroke="#45413c" stroke-linecap="round" stroke-linejoin="round"></path><path d="M17.07 54.947H22.034V68.643H17.07z" fill="#ffffff" stroke="#45413c" stroke-linecap="round" stroke-linejoin="round" transform="translate(-33.51 24.576) rotate(-37.396)"></path><path d="M15.757,60.917A3.724,3.724,0,0,0,19.7,57.9l-2.33-3.048-3.944,3.015Z" fill="#e0e0e0"></path><path d="M17.07 54.947H22.034V68.643H17.07z" fill="none" stroke="#45413c" stroke-linecap="round" stroke-linejoin="round" transform="translate(-33.51 24.576) rotate(-37.396)"></path><path d="M20.756 59.662H39.373000000000005V64.626H20.756z" fill="#ffffff" stroke="#45413c" stroke-linecap="round" stroke-linejoin="round" transform="translate(-36.465 43.714) rotate(-48.699)"></path><path d="M28.656,59.987a3.722,3.722,0,0,0,3.163,1.757h1.9l4.353-4.954-3.73-3.277Z" fill="#e0e0e0"></path><path d="M20.756 59.662H39.373000000000005V64.626H20.756z" fill="none" stroke="#45413c" stroke-linecap="round" stroke-linejoin="round" transform="translate(-36.465 43.714) rotate(-48.699)"></path><path d="M5.846,48.194a.619.619,0,0,0-.772.5,6.516,6.516,0,1,0,8.762-5.092.621.621,0,0,0-.821.421l-.481,1.814a.62.62,0,0,0,.351.727,3.413,3.413,0,1,1-4.766,2.77.62.62,0,0,0-.459-.665Z" fill="#656769"></path><path d="M5.846,48.194a.619.619,0,0,0-.772.5,6.516,6.516,0,1,0,8.762-5.092.621.621,0,0,0-.821.421l-.481,1.814a.62.62,0,0,0,.351.727,3.413,3.413,0,1,1-4.766,2.77.62.62,0,0,0-.459-.665Z" fill="none" stroke="#45413c" stroke-linecap="round" stroke-linejoin="round"></path><path d="M10.301 55.192 A3.723 3.723 0 1 0 17.747 55.192 A3.723 3.723 0 1 0 10.301 55.192 Z" fill="#ffffff" stroke="#45413c" stroke-linecap="round" stroke-linejoin="round"></path><path d="M20.699 67.619 A3.723 3.723 0 1 0 28.145 67.619 A3.723 3.723 0 1 0 20.699 67.619 Z" fill="#ffffff" stroke="#45413c" stroke-linecap="round" stroke-linejoin="round"></path><path d="M75.402 53.625H89.098V58.589H75.402z" fill="#f0f0f0" stroke="#45413c" stroke-linecap="round" stroke-linejoin="round" transform="translate(11 125.653) rotate(-78.607)"></path><path d="M85.276,53.655a3.725,3.725,0,0,1-4.865-.99l.758-3.761,4.867.981Z" fill="#e0e0e0"></path><path d="M75.402 53.625H89.098V58.589H75.402z" fill="none" stroke="#45413c" stroke-linecap="round" stroke-linejoin="round" transform="translate(11 125.653) rotate(-78.607)"></path><path d="M70.473 51.722H75.437V70.339H70.473z" fill="#f0f0f0" stroke="#45413c" stroke-linecap="round" stroke-linejoin="round" transform="translate(-11.499 104.787) rotate(-67.303)"></path><path d="M73.275,58.474A3.72,3.72,0,0,1,71.2,61.44l-1.709.833L63.41,59.729l1.916-4.58Z" fill="#e0e0e0"></path><path d="M70.473 51.722H75.437V70.339H70.473z" fill="none" stroke="#45413c" stroke-linecap="round" stroke-linejoin="round" transform="translate(-11.499 104.787) rotate(-67.303)"></path><path d="M88.606,37.874a.621.621,0,0,1,.916.116,6.516,6.516,0,1,1-10.108-.735.622.622,0,0,1,.923.018l1.227,1.42a.62.62,0,0,1,0,.807,3.413,3.413,0,1,0,5.5.4.62.62,0,0,1,.121-.8Z" fill="#656769"></path><path d="M88.606,37.874a.621.621,0,0,1,.916.116,6.516,6.516,0,1,1-10.108-.735.622.622,0,0,1,.923.018l1.227,1.42a.62.62,0,0,1,0,.807,3.413,3.413,0,1,0,5.5.4.62.62,0,0,1,.121-.8Z" fill="none" stroke="#45413c" stroke-linecap="round" stroke-linejoin="round"></path><path d="M80.601 47.749 A3.723 3.723 0 1 0 88.047 47.749 A3.723 3.723 0 1 0 80.601 47.749 Z" fill="#ffffff" stroke="#45413c" stroke-linecap="round" stroke-linejoin="round"></path><path d="M76.704 63.477 A3.723 3.723 0 1 0 84.150 63.477 A3.723 3.723 0 1 0 76.704 63.477 Z" fill="#ffffff" stroke="#45413c" stroke-linecap="round" stroke-linejoin="round"></path><path d="M46.414 45.937H51.378V50.873H46.414z" fill="#daedf7"></path><path d="M46.414 45.937H51.378V48.391H46.414z" fill="#c0dceb"></path><path d="M46.414 45.937H51.378V50.873H46.414z" fill="none" stroke="#45413c" stroke-linecap="round" stroke-linejoin="round"></path><path d="M38.967 50.873 L58.825 50.873 L58.825 69.490 L38.967 69.490 Z" fill="#ffffff" stroke="#45413c" stroke-linecap="round" stroke-linejoin="round"></path><path d="M45.173 69.49H52.620000000000005V76.937H45.173z" fill="#daedf7"></path><path d="M45.179 69.49H52.626000000000005V73.213H45.179z" fill="#c0dceb"></path><path d="M45.173 69.49H52.620000000000005V76.937H45.173z" fill="none" stroke="#45413c" stroke-linecap="round" stroke-linejoin="round"></path><path d="M53.861,59.561a2.483,2.483,0,0,1-2.483,2.482H46.414a2.482,2.482,0,0,1-2.482-2.482V50.873h9.929Z" fill="#00b8f0"></path><path d="M52.204 50.873L43.932 59.139 43.932 50.873 52.204 50.873z" fill="#4acfff"></path><path d="M53.861,59.561a2.483,2.483,0,0,1-2.483,2.482H46.414a2.482,2.482,0,0,1-2.482-2.482V50.873h9.929Z" fill="none" stroke="#45413c" stroke-linecap="round" stroke-linejoin="round"></path><path d="M56,76.937a2.483,2.483,0,0,1,2.34,3.31,9.933,9.933,0,0,1-18.728,0,2.482,2.482,0,0,1,2.341-3.309Z" fill="#ffffff" stroke="#45413c" stroke-linecap="round" stroke-linejoin="round"></path><path d="M58.825,59.561h4.984a3.723,3.723,0,0,0,3.723-3.723V54.6a3.723,3.723,0,0,0-3.723-3.723H61.327a2.511,2.511,0,0,0-2.5,2.482Z" fill="#ffffff" stroke="#45413c" stroke-linecap="round" stroke-linejoin="round"></path><path d="M38.967,59.561H34a3.723,3.723,0,0,1-3.724-3.723V54.6A3.723,3.723,0,0,1,34,50.873h2.482a2.482,2.482,0,0,1,2.482,2.482Z" fill="#ffffff" stroke="#45413c" stroke-linecap="round" stroke-linejoin="round"></path><path d="M31.817 19.098 L65.976 19.098 L65.976 45.937 L31.817 45.937 Z" fill="#00b8f0"></path><path d="M35.928,45.936h-.452a3.66,3.66,0,0,1-3.66-3.66V22.757a3.66,3.66,0,0,1,3.66-3.66H62.316Z" fill="#4acfff"></path><path d="M38.87,36.163a1.8,1.8,0,0,0,1.8-1.8,2.2,2.2,0,0,1,.677-1.862,2.612,2.612,0,0,1,.6,1.862,1.8,1.8,0,1,0,3.6,0c0-3.062-1.863-5.461-4.241-5.461s-4.242,2.4-4.242,5.461A1.8,1.8,0,0,0,38.87,36.163Z" fill="#ffffff" stroke="#009fd9" stroke-linecap="round" stroke-linejoin="round"></path><path d="M58.922,36.163a1.8,1.8,0,0,1-1.8-1.8,2.2,2.2,0,0,0-.677-1.862,2.612,2.612,0,0,0-.6,1.862,1.8,1.8,0,1,1-3.6,0c0-3.062,1.863-5.461,4.241-5.461s4.242,2.4,4.242,5.461A1.8,1.8,0,0,1,58.922,36.163Z" fill="#ffffff" stroke="#009fd9" stroke-linecap="round" stroke-linejoin="round"></path><path d="M31.817 19.098 L65.976 19.098 L65.976 45.937 L31.817 45.937 Z" fill="none" stroke="#45413c" stroke-linecap="round" stroke-linejoin="round"></path><path d="M73.981 22.560 L95.003 22.560 L95.003 38.326 L73.981 38.326 Z" fill="#ffb0ca" stroke="#45413c" stroke-linecap="round" stroke-linejoin="round"></path><path d="M84.492,31.757a2.628,2.628,0,1,1-5.255,0V29.129a2.628,2.628,0,0,1,5.255,0Z" fill="#ffffff" stroke="#45413c" stroke-linecap="round" stroke-linejoin="round"></path><path d="M79.237,31.757a2.628,2.628,0,0,1-5.256,0V29.129a2.628,2.628,0,0,1,5.256,0Z" fill="#ffffff" stroke="#45413c" stroke-linecap="round" stroke-linejoin="round"></path><path d="M89.748,31.757a2.628,2.628,0,1,1-5.256,0V29.129a2.628,2.628,0,0,1,5.256,0Z" fill="#ffffff" stroke="#45413c" stroke-linecap="round" stroke-linejoin="round"></path><path d="M95,31.757a2.628,2.628,0,1,1-5.255,0V29.129a2.628,2.628,0,0,1,5.255,0Z" fill="#ffffff" stroke="#45413c" stroke-linecap="round" stroke-linejoin="round"></path><path d="M73.981 30.443L95.003 30.443" fill="none" stroke="#45413c" stroke-linecap="round" stroke-linejoin="round"></path><path d="M5.831 21.108 A5.255 5.255 0 1 0 16.341 21.108 A5.255 5.255 0 1 0 5.831 21.108 Z" fill="none" stroke="#45413c" stroke-linecap="round" stroke-linejoin="round"></path></g></svg>