<svg xmlns="http://www.w3.org/2000/svg" version="1.1" xmlns:xlink="http://www.w3.org/1999/xlink" xmlns:svgjs="http://svgjs.com/svgjs" viewBox="0 0 200 200" width="200" height="200"><g transform="matrix(2,0,0,2,0,0)"><path d="M9.405 57.546 A40.000 40.000 0 1 0 89.405 57.546 A40.000 40.000 0 1 0 9.405 57.546 Z" fill="#e8f4fa" stroke="#daedf7" stroke-miterlimit="10"></path><path d="M69.422 24.918 L91.202 24.918 L91.202 46.698 L69.422 46.698 Z" fill="#b8ecff" stroke="#45413c" stroke-linecap="round" stroke-linejoin="round"></path><path d="M90.794,46.126l-4.182-5.855a2.723,2.723,0,0,0-4.431,0L77.59,46.7H89.539A1.657,1.657,0,0,0,90.794,46.126Z" fill="#46b000" stroke="#45413c" stroke-linecap="round" stroke-linejoin="round"></path><path d="M75.412,38.712l-5.57,7.427a1.663,1.663,0,0,0,1.244.559H85.757l-5.989-7.986A2.723,2.723,0,0,0,75.412,38.712Z" fill="#6dd627" stroke="#45413c" stroke-linecap="round" stroke-linejoin="round"></path><path d="M80.312 31.724 A2.723 2.723 0 1 0 85.758 31.724 A2.723 2.723 0 1 0 80.312 31.724 Z" fill="#ffe500" stroke="#45413c" stroke-linecap="round" stroke-linejoin="round"></path><path d="M28.158,32.877c0,4.367-6.46,12.365-8.826,15.148a1.122,1.122,0,0,1-1.71,0C15.256,45.241,8.8,37.243,8.8,32.877a9.68,9.68,0,1,1,19.36,0Z" fill="#ff6242" stroke="#45413c" stroke-linecap="round" stroke-linejoin="round"></path><path d="M18.478,28.962A9.648,9.648,0,0,1,27.59,35.5a7.952,7.952,0,0,0,.568-2.621,9.68,9.68,0,1,0-19.36,0A7.949,7.949,0,0,0,9.365,35.5,9.65,9.65,0,0,1,18.478,28.962Z" fill="#ff866e"></path><path d="M28.158,32.877c0,4.367-6.46,12.365-8.826,15.148a1.122,1.122,0,0,1-1.71,0C15.256,45.241,8.8,37.243,8.8,32.877a9.68,9.68,0,1,1,19.36,0Z" fill="none" stroke="#45413c" stroke-linecap="round" stroke-linejoin="round"></path><path d="M61.092,26.057a1.6,1.6,0,0,1-1.565,1.909H38.52a1.6,1.6,0,0,1-1.566-1.909l3.193-15.963a1.6,1.6,0,0,1,1.566-1.283H56.335A1.6,1.6,0,0,1,57.9,10.094Z" fill="#ffe500"></path><path d="M58.6,13.6l-.7-3.506a1.6,1.6,0,0,0-1.565-1.283H41.713a1.6,1.6,0,0,0-1.566,1.283l-.7,3.506Z" fill="#fff48c"></path><path d="M61.092,26.057a1.595,1.595,0,0,1-1.565,1.909H38.52a1.6,1.6,0,0,1-1.566-1.909l3.194-15.963a1.6,1.6,0,0,1,1.565-1.283H56.335A1.6,1.6,0,0,1,57.9,10.094Z" fill="none" stroke="#45413c" stroke-linecap="round" stroke-linejoin="round"></path><path d="M45.193,10.726V5.938a3.831,3.831,0,1,1,7.662,0v4.788" fill="none" stroke="#45413c" stroke-linecap="round" stroke-linejoin="round"></path><path d="M14.842 31.310 A3.344 3.344 0 1 0 21.530 31.310 A3.344 3.344 0 1 0 14.842 31.310 Z" fill="#ffffff" stroke="#45413c" stroke-linecap="round" stroke-linejoin="round"></path><path d="M47.248 64.244H51.442V68.438H47.248z" fill="#daedf7"></path><path d="M47.248 64.244H51.442V66.659H47.248z" fill="#c0dceb"></path><path d="M47.248 64.244H51.442V68.438H47.248z" fill="none" stroke="#45413c" stroke-linecap="round" stroke-linejoin="round"></path><path d="M65.177 67.785H69.37100000000001V83.512H65.177z" fill="#ffffff" transform="translate(-28.165 109.414) rotate(-67.837)"></path><path d="M60.133,72.335l.649-1.595,6.706,2.732v.439A3.145,3.145,0,0,1,65,76.987l-4.867-1.982Z" fill="#e0e0e0"></path><path d="M65.177 67.785H69.37100000000001V83.512H65.177z" fill="none" stroke="#45413c" stroke-linecap="round" stroke-linejoin="round" transform="translate(-28.165 109.414) rotate(-67.837)"></path><path d="M71.707 70.742H83.27799999999999V74.936H71.707z" fill="#f0f0f0" transform="translate(-16.102 123.344) rotate(-71.579)"></path><path d="M76.213,70.046l1.118-3.358,3.979,1.325L80.215,71.3A3.144,3.144,0,0,1,76.213,70.046Z" fill="#e0e0e0"></path><path d="M71.707 70.742H83.27799999999999V74.936H71.707z" fill="#ffffff" stroke="#45413c" stroke-linecap="round" stroke-linejoin="round" transform="translate(-16.102 123.344) rotate(-71.579)"></path><path d="M84.055,57.905a.525.525,0,0,1,.764.158,5.5,5.5,0,1,1-8.464-1.29.525.525,0,0,1,.776.077l.939,1.277a.524.524,0,0,1-.05.68,2.884,2.884,0,1,0,4.6.7.524.524,0,0,1,.155-.664Z" fill="#656769"></path><path d="M84.055,57.905a.525.525,0,0,1,.764.158,5.5,5.5,0,1,1-8.464-1.29.525.525,0,0,1,.776.077l.939,1.277a.524.524,0,0,1-.05.68,2.884,2.884,0,1,0,4.6.7.524.524,0,0,1,.155-.664Z" fill="none" stroke="#45413c" stroke-linecap="round" stroke-linejoin="round"></path><path d="M76.649 65.938 A3.145 3.145 0 1 0 82.939 65.938 A3.145 3.145 0 1 0 76.649 65.938 Z" fill="#ffffff" stroke="#45413c" stroke-linecap="round" stroke-linejoin="round"></path><path d="M72.323 78.925 A3.145 3.145 0 1 0 78.613 78.925 A3.145 3.145 0 1 0 72.323 78.925 Z" fill="#ffffff" stroke="#45413c" stroke-linecap="round" stroke-linejoin="round"></path><path d="M40.957 68.438 L57.733 68.438 L57.733 84.165 L40.957 84.165 Z" fill="#ffffff" stroke="#45413c" stroke-linecap="round" stroke-linejoin="round"></path><path d="M46.2 84.165H52.491V89.50500000000001H46.2z" fill="#daedf7"></path><path d="M46.205 84.165H52.495999999999995V86.36H46.205z" fill="#c0dceb"></path><path d="M46.2 84.165H52.491V89.50500000000001H46.2z" fill="none" stroke="#45413c" stroke-linecap="round" stroke-linejoin="round"></path><path d="M53.539,75.777a2.1,2.1,0,0,1-2.1,2.1H47.248a2.1,2.1,0,0,1-2.1-2.1V68.438h8.388Z" fill="#00b8f0"></path><path d="M52.14 68.438L45.151 75.421 45.151 68.438 52.14 68.438z" fill="#4acfff"></path><path d="M53.539,75.777a2.1,2.1,0,0,1-2.1,2.1H47.248a2.1,2.1,0,0,1-2.1-2.1V68.438h8.388Z" fill="none" stroke="#45413c" stroke-linecap="round" stroke-linejoin="round"></path><path d="M55.348,89.505a2.1,2.1,0,0,1,1.977,2.8,8.391,8.391,0,0,1-15.821,0,2.1,2.1,0,0,1,1.977-2.8Z" fill="#ffffff" stroke="#45413c" stroke-linecap="round" stroke-linejoin="round"></path><path d="M57.733,75.777h4.21a3.145,3.145,0,0,0,3.146-3.145V71.583a3.145,3.145,0,0,0-3.146-3.145h-2.1a2.121,2.121,0,0,0-2.113,2.1Z" fill="#ffffff" stroke="#45413c" stroke-linecap="round" stroke-linejoin="round"></path><path d="M23.553 73.552H39.28V77.74600000000001H23.553z" fill="#ffffff" transform="translate(-26.217 17.442) rotate(-22.163)"></path><path d="M38.558,72.335l-.65-1.595L31.2,73.472v.439a3.145,3.145,0,0,0,2.488,3.076l4.868-1.982Z" fill="#e0e0e0"></path><path d="M23.553 73.552H39.28V77.74600000000001H23.553z" fill="none" stroke="#45413c" stroke-linecap="round" stroke-linejoin="round" transform="translate(-26.217 17.442) rotate(-22.163)"></path><path d="M40.957,75.777h-4.21A3.146,3.146,0,0,1,33.6,72.632V71.583a3.146,3.146,0,0,1,3.146-3.145h2.1a2.121,2.121,0,0,1,2.113,2.1Z" fill="#ffffff" stroke="#45413c" stroke-linecap="round" stroke-linejoin="round"></path><path d="M19.101 67.054H23.294999999999998V78.625H19.101z" fill="#f0f0f0" transform="translate(-21.931 10.431) rotate(-18.421)"></path><path d="M22.478,70.046l-1.119-3.358L17.38,68.013l1.1,3.288A3.144,3.144,0,0,0,22.478,70.046Z" fill="#e0e0e0"></path><path d="M19.101 67.054H23.294999999999998V78.625H19.101z" fill="none" stroke="#45413c" stroke-linecap="round" stroke-linejoin="round" transform="translate(-21.931 10.431) rotate(-18.421)"></path><path d="M14.635,57.905a.524.524,0,0,0-.763.158,5.5,5.5,0,1,0,8.463-1.29.524.524,0,0,0-.775.077l-.94,1.277a.524.524,0,0,0,.05.68,2.883,2.883,0,1,1-4.6.7.522.522,0,0,0-.155-.664Z" fill="#656769"></path><path d="M14.635,57.905a.524.524,0,0,0-.763.158,5.5,5.5,0,1,0,8.463-1.29.524.524,0,0,0-.775.077l-.94,1.277a.524.524,0,0,0,.05.68,2.883,2.883,0,1,1-4.6.7.522.522,0,0,0-.155-.664Z" fill="none" stroke="#45413c" stroke-linecap="round" stroke-linejoin="round"></path><path d="M15.752 65.938 A3.145 3.145 0 1 0 22.042 65.938 A3.145 3.145 0 1 0 15.752 65.938 Z" fill="#ffffff" stroke="#45413c" stroke-linecap="round" stroke-linejoin="round"></path><path d="M20.078 78.925 A3.145 3.145 0 1 0 26.368 78.925 A3.145 3.145 0 1 0 20.078 78.925 Z" fill="#ffffff" stroke="#45413c" stroke-linecap="round" stroke-linejoin="round"></path><path d="M34.733 42.029 L63.957 42.029 L63.957 64.990 L34.733 64.990 Z" fill="#00b8f0"></path><path d="M38.25,64.99h-.386a3.131,3.131,0,0,1-3.131-3.131V45.16a3.131,3.131,0,0,1,3.131-3.131H60.826Z" fill="#4acfff"></path><path d="M44.828,56.651A1.448,1.448,0,0,1,43.381,55.2c0-1.274-.6-1.941-.812-1.941s-.811.667-.811,1.941a1.447,1.447,0,0,1-2.894,0c0-2.711,1.627-4.835,3.705-4.835s3.706,2.124,3.706,4.835A1.448,1.448,0,0,1,44.828,56.651Z" fill="#ffffff" stroke="#009fd9" stroke-miterlimit="10"></path><path d="M58.38,56.651A1.448,1.448,0,0,1,56.933,55.2c0-1.274-.6-1.941-.812-1.941s-.812.667-.812,1.941a1.447,1.447,0,1,1-2.893,0c0-2.711,1.627-4.835,3.705-4.835s3.706,2.124,3.706,4.835A1.448,1.448,0,0,1,58.38,56.651Z" fill="#ffffff" stroke="#009fd9" stroke-miterlimit="10"></path><path d="M34.733 42.029 L63.957 42.029 L63.957 64.990 L34.733 64.990 Z" fill="none" stroke="#45413c" stroke-linecap="round" stroke-linejoin="round"></path></g></svg>