<svg xmlns="http://www.w3.org/2000/svg" version="1.1" xmlns:xlink="http://www.w3.org/1999/xlink" xmlns:svgjs="http://svgjs.com/svgjs" viewBox="0 0 200 200" width="200" height="200"><g transform="matrix(2,0,0,2,0,0)"><path d="M10.987 46.633 A40.000 40.000 0 1 0 90.987 46.633 A40.000 40.000 0 1 0 10.987 46.633 Z" fill="#e8f4fa" stroke="#daedf7" stroke-miterlimit="10"></path><path d="M46.320 10.261 L95.655 10.261 L95.655 54.536 L46.320 54.536 Z" fill="#e4ffd1" stroke="#6dd627" stroke-miterlimit="10"></path><path d="M55.175 34.593L64.03 30.798 74.15 24.473" fill="none" stroke="#6dd627" stroke-linecap="round" stroke-linejoin="round"></path><path d="M74.15 24.473L86.8 30.798" fill="none" stroke="#6dd627" stroke-linecap="round" stroke-linejoin="round"></path><path d="M58.86,46.567H52.645v-3.7A1.265,1.265,0,0,1,53.91,41.6H57.6a1.265,1.265,0,0,1,1.265,1.265Z" fill="#c8ffa1" stroke="#6dd627" stroke-miterlimit="10"></path><path d="M67.825,46.567H62.17V39.558a1.265,1.265,0,0,1,1.265-1.265H66.56a1.265,1.265,0,0,1,1.265,1.265Z" fill="#c8ffa1" stroke="#6dd627" stroke-miterlimit="10"></path><path d="M77.855,46.567H71.62V34.593a1.265,1.265,0,0,1,1.265-1.265h3.7a1.265,1.265,0,0,1,1.265,1.265Z" fill="#c8ffa1" stroke="#6dd627" stroke-miterlimit="10"></path><path d="M87.975,46.567H81.74V37.123a1.265,1.265,0,0,1,1.265-1.265h3.7a1.265,1.265,0,0,1,1.265,1.265Z" fill="#c8ffa1" stroke="#6dd627" stroke-miterlimit="10"></path><path d="M70.355 19.413L57.705 19.413" fill="none" stroke="#6dd627" stroke-linecap="round" stroke-linejoin="round"></path><path d="M70.355 15.618L57.705 15.618" fill="none" stroke="#6dd627" stroke-linecap="round" stroke-linejoin="round"></path><path d="M62.765 23.208L57.705 23.208" fill="none" stroke="#6dd627" stroke-linecap="round" stroke-linejoin="round"></path><path d="M53.910 34.593 A1.265 1.265 0 1 0 56.440 34.593 A1.265 1.265 0 1 0 53.910 34.593 Z" fill="#c8ffa1" stroke="#6dd627" stroke-miterlimit="10"></path><path d="M62.765 30.798 A1.265 1.265 0 1 0 65.295 30.798 A1.265 1.265 0 1 0 62.765 30.798 Z" fill="#c8ffa1" stroke="#6dd627" stroke-miterlimit="10"></path><path d="M72.885 24.473 A1.265 1.265 0 1 0 75.415 24.473 A1.265 1.265 0 1 0 72.885 24.473 Z" fill="#c8ffa1" stroke="#6dd627" stroke-miterlimit="10"></path><path d="M85.535 30.798 A1.265 1.265 0 1 0 88.065 30.798 A1.265 1.265 0 1 0 85.535 30.798 Z" fill="#c8ffa1" stroke="#6dd627" stroke-miterlimit="10"></path><path d="M58.86,46.567H52.645V49.1a1.265,1.265,0,0,0,1.265,1.265H57.6A1.265,1.265,0,0,0,58.86,49.1Z" fill="#6dd627" stroke="#6dd627" stroke-miterlimit="10"></path><path d="M67.825,46.567H62.17v1.265A1.265,1.265,0,0,0,63.435,49.1H66.56a1.265,1.265,0,0,0,1.265-1.265Z" fill="#6dd627" stroke="#6dd627" stroke-miterlimit="10"></path><path d="M77.855,46.567H71.62V49.1a1.265,1.265,0,0,0,1.265,1.265h3.7A1.265,1.265,0,0,0,77.855,49.1Z" fill="#6dd627" stroke="#6dd627" stroke-miterlimit="10"></path><path d="M87.975,46.567H81.74v.676a1.265,1.265,0,0,0,1.265,1.265h3.7a1.265,1.265,0,0,0,1.265-1.265Z" fill="#6dd627" stroke="#6dd627" stroke-miterlimit="10"></path><path d="M76.832,54.021a.553.553,0,0,1,.612.551,5.816,5.816,0,1,1-7.033-5.689.554.554,0,0,1,.667.483l.176,1.666a.553.553,0,0,1-.408.594,3.046,3.046,0,1,0,3.825,3.094.552.552,0,0,1,.495-.523Z" fill="#656769"></path><path d="M76.832,54.021a.553.553,0,0,1,.612.551,5.816,5.816,0,1,1-7.033-5.689.554.554,0,0,1,.667.483l.176,1.666a.553.553,0,0,1-.408.594,3.046,3.046,0,1,0,3.825,3.094.552.552,0,0,1,.495-.523Z" fill="none" stroke="#45413c" stroke-linecap="round" stroke-linejoin="round"></path><path d="M48.853 53.848H53.284V70.465H48.853z" fill="#ffffff" transform="translate(-29.092 55.394) rotate(-45.771)"></path><path d="M45.392,56.076l1.268-1.3,5.483,5.337-.174.43a3.324,3.324,0,0,1-3.658,2.024l-3.979-3.873Z" fill="#e0e0e0"></path><path d="M48.853 53.848H53.284V70.465H48.853z" fill="none" stroke="#45413c" stroke-linecap="round" stroke-linejoin="round" transform="translate(-29.092 55.394) rotate(-45.771)"></path><path d="M56.771 61.929H68.996V66.36H56.771z" fill="#ffffff" transform="translate(-26.691 57.417) rotate(-41.274)"></path><path d="M63.205,60.914l2.811-2.467,2.923,3.331-2.752,2.415A3.323,3.323,0,0,1,63.205,60.914Z" fill="#e0e0e0"></path><path d="M56.771 61.929H68.996V66.36H56.771z" fill="none" stroke="#45413c" stroke-linecap="round" stroke-linejoin="round" transform="translate(-26.691 57.417) rotate(-41.274)"></path><path d="M65.339 59.076 A3.323 3.323 0 1 0 71.985 59.076 A3.323 3.323 0 1 0 65.339 59.076 Z" fill="#ffffff" stroke="#45413c" stroke-linecap="round" stroke-linejoin="round"></path><path d="M54.469 68.617 A3.323 3.323 0 1 0 61.115 68.617 A3.323 3.323 0 1 0 54.469 68.617 Z" fill="#ffffff" stroke="#45413c" stroke-linecap="round" stroke-linejoin="round"></path><path d="M30.617 46.846H35.048V51.276999999999994H30.617z" fill="#daedf7"></path><path d="M30.617 46.846H35.048V49.062H30.617z" fill="#c0dceb"></path><path d="M30.617 46.846H35.048V51.276999999999994H30.617z" fill="none" stroke="#45413c" stroke-linecap="round" stroke-linejoin="round"></path><path d="M23.970 51.277 L41.695 51.277 L41.695 67.894 L23.970 67.894 Z" fill="#ffffff" stroke="#45413c" stroke-linecap="round" stroke-linejoin="round"></path><path d="M29.51 67.894H36.157000000000004V73.536H29.51z" fill="#daedf7"></path><path d="M29.515 67.894H36.162V70.21300000000001H29.515z" fill="#c0dceb"></path><path d="M29.51 67.894H36.157000000000004V73.536H29.51z" fill="none" stroke="#45413c" stroke-linecap="round" stroke-linejoin="round"></path><path d="M37.264,59.032a2.215,2.215,0,0,1-2.215,2.215H30.617A2.215,2.215,0,0,1,28.4,59.032V51.277h8.862Z" fill="#00b8f0"></path><path d="M35.785 51.277L28.402 58.655 28.402 51.277 35.785 51.277z" fill="#4acfff"></path><path d="M37.264,59.032a2.215,2.215,0,0,1-2.215,2.215H30.617A2.215,2.215,0,0,1,28.4,59.032V51.277h8.862Z" fill="none" stroke="#45413c" stroke-linecap="round" stroke-linejoin="round"></path><path d="M39.175,73.537a2.215,2.215,0,0,1,2.089,2.954,8.866,8.866,0,0,1-16.716,0,2.215,2.215,0,0,1,2.089-2.954Z" fill="#ffffff" stroke="#45413c" stroke-linecap="round" stroke-linejoin="round"></path><path d="M5.01 60.649H21.627000000000002V65.08H5.01z" fill="#f0f0f0" transform="translate(-42.961 31.85) rotate(-49.179)"></path><path d="M19.051,56.836l1.376,1.189-5,5.79-.439-.148a3.324,3.324,0,0,1-2.238-3.531l3.63-4.2Z" fill="#e0e0e0"></path><path d="M5.01 60.649H21.627000000000002V65.08H5.01z" fill="none" stroke="#45413c" stroke-linecap="round" stroke-linejoin="round" transform="translate(-42.961 31.85) rotate(-49.179)"></path><path d="M23.97,59.032H19.522A3.323,3.323,0,0,1,16.2,55.708V54.6a3.323,3.323,0,0,1,3.323-3.324h2.216a2.241,2.241,0,0,1,2.232,2.216Z" fill="#ffffff" stroke="#45413c" stroke-linecap="round" stroke-linejoin="round"></path><path d="M7.408 69.983H11.839V82.208H7.408z" fill="#f0f0f0" transform="translate(-21.512 5.997) rotate(-16.742)"></path><path d="M12.429,77.73l1.077,3.581L9.262,82.587,8.208,79.081A3.322,3.322,0,0,1,12.429,77.73Z" fill="#e0e0e0"></path><path d="M7.408 69.983H11.839V82.208H7.408z" fill="none" stroke="#45413c" stroke-linecap="round" stroke-linejoin="round" transform="translate(-21.512 5.997) rotate(-16.742)"></path><path d="M13.042,92.989a.555.555,0,0,1-.756.328,5.816,5.816,0,1,1,8.1-4.036.555.555,0,0,1-.717.406l-1.589-.532a.554.554,0,0,1-.37-.618,3.047,3.047,0,1,0-4.4,2.195.553.553,0,0,1,.27.668Z" fill="#656769"></path><path d="M13.042,92.989a.555.555,0,0,1-.756.328,5.816,5.816,0,1,1,8.1-4.036.555.555,0,0,1-.717.406l-1.589-.532a.554.554,0,0,1-.37-.618,3.047,3.047,0,1,0-4.4,2.195.553.553,0,0,1,.27.668Z" fill="none" stroke="#45413c" stroke-linecap="round" stroke-linejoin="round"></path><path d="M8.512 83.457 A3.323 3.323 0 1 0 15.158 83.457 A3.323 3.323 0 1 0 8.512 83.457 Z" fill="#f0f0f0" stroke="#45413c" stroke-linecap="round" stroke-linejoin="round"></path><path d="M4.346 69.607 A3.323 3.323 0 1 0 10.992 69.607 A3.323 3.323 0 1 0 4.346 69.607 Z" fill="#f0f0f0" stroke="#45413c" stroke-linecap="round" stroke-linejoin="round"></path><path d="M41.7,59.032h4.449a3.324,3.324,0,0,0,3.323-3.324V54.6a3.324,3.324,0,0,0-3.323-3.324H43.928A2.243,2.243,0,0,0,41.7,53.493Z" fill="#ffffff" stroke="#45413c" stroke-linecap="round" stroke-linejoin="round"></path><path d="M17.394 23.374 L48.271 23.374 L48.271 47.634 L17.394 47.634 Z" fill="#00b8f0"></path><path d="M21.111,47.634H20.7a3.308,3.308,0,0,1-3.308-3.308V26.682A3.308,3.308,0,0,1,20.7,23.374H44.964Z" fill="#4acfff"></path><path d="M23.77,38.8A1.631,1.631,0,0,0,25.4,37.171a1.985,1.985,0,0,1,.612-1.683,2.36,2.36,0,0,1,.542,1.683,1.629,1.629,0,1,0,3.257,0c0-2.768-1.685-4.936-3.834-4.936s-3.834,2.168-3.834,4.936A1.63,1.63,0,0,0,23.77,38.8Z" fill="#ffffff" stroke="#009fd9" stroke-linecap="round" stroke-linejoin="round"></path><path d="M41.9,38.8a1.631,1.631,0,0,1-1.629-1.629,1.988,1.988,0,0,0-.612-1.683,2.36,2.36,0,0,0-.542,1.683,1.629,1.629,0,1,1-3.257,0c0-2.768,1.684-4.936,3.834-4.936s3.834,2.168,3.834,4.936A1.63,1.63,0,0,1,41.9,38.8Z" fill="#ffffff" stroke="#009fd9" stroke-linecap="round" stroke-linejoin="round"></path><path d="M17.394 23.374 L48.271 23.374 L48.271 47.634 L17.394 47.634 Z" fill="none" stroke="#45413c" stroke-linecap="round" stroke-linejoin="round"></path></g></svg>