<svg xmlns="http://www.w3.org/2000/svg" version="1.1" xmlns:xlink="http://www.w3.org/1999/xlink" xmlns:svgjs="http://svgjs.com/svgjs" viewBox="0 0 200 200" width="200" height="200"><g transform="matrix(2,0,0,2,0,0)"><path d="M11.996 50.000 A40.000 40.000 0 1 0 91.996 50.000 A40.000 40.000 0 1 0 11.996 50.000 Z" fill="#e8f4fa" stroke="#daedf7" stroke-miterlimit="10"></path><path d="M24.253,46.817a.658.658,0,0,0-1.007.572,8.954,8.954,0,0,1-1.725,5.637.655.655,0,0,1-.872.159c-1.069-.667-3.544-2.761-4.78-8.327a22.265,22.265,0,0,1-.318-8.54.657.657,0,0,0-.981-.678A27.1,27.1,0,0,0,1.328,58.669,14.8,14.8,0,0,0,15.916,73.957a14.55,14.55,0,0,0,14.5-14.549C30.418,53.422,27.709,49.061,24.253,46.817Z" fill="#ff6242"></path><path d="M30.228,56.732a18.553,18.553,0,0,1,.19,2.676,14.55,14.55,0,0,1-14.5,14.549A14.8,14.8,0,0,1,1.328,58.669c.019-.859.073-1.691.156-2.5A14.719,14.719,0,0,0,15.916,69.033a14.54,14.54,0,0,0,14.311-12.3" fill="#e04122"></path><path d="M24.253,46.817a.658.658,0,0,0-1.007.572,8.954,8.954,0,0,1-1.725,5.637.655.655,0,0,1-.872.159c-1.069-.667-3.544-2.761-4.78-8.327a22.265,22.265,0,0,1-.318-8.54.657.657,0,0,0-.981-.678A27.1,27.1,0,0,0,1.328,58.669,14.8,14.8,0,0,0,15.916,73.957a14.55,14.55,0,0,0,14.5-14.549C30.418,53.422,27.709,49.061,24.253,46.817Z" fill="none" stroke="#45413c" stroke-linecap="round" stroke-linejoin="round"></path><path d="M11.294,56.716a.662.662,0,0,1,.914.693,8.27,8.27,0,0,0-.085,1.507c.114,3.3,2.172,5.31,4.479,5.231a3.623,3.623,0,0,0,3.246-2.167.664.664,0,0,1,1.258.16,7.367,7.367,0,0,1,.022,2.585,7.276,7.276,0,1,1-9.834-8.009Z" fill="#ffe500"></path><path d="M21.165,62.505a7.4,7.4,0,0,1-.037,2.22,7.277,7.277,0,0,1-14.375-2.26,7.271,7.271,0,0,0,14.41.041" fill="#ebcb00"></path><path d="M11.294,56.716a.662.662,0,0,1,.914.693,8.27,8.27,0,0,0-.085,1.507c.114,3.3,2.172,5.31,4.479,5.231a3.623,3.623,0,0,0,3.246-2.167.664.664,0,0,1,1.258.16,7.367,7.367,0,0,1,.022,2.585,7.276,7.276,0,1,1-9.834-8.009Z" fill="none" stroke="#e04122" stroke-linecap="round" stroke-linejoin="round"></path><path d="M5.137 75.353 A10.885 1.449 0 1 0 26.907 75.353 A10.885 1.449 0 1 0 5.137 75.353 Z" fill="#45413c" opacity=".15"></path><path d="M15.633 23.788 A1.575 1.575 0 1 0 18.783 23.788 A1.575 1.575 0 1 0 15.633 23.788 Z" fill="#ffffff" stroke="#45413c" stroke-linecap="round" stroke-linejoin="round"></path><path d="M8.974,26.977a2.436,2.436,0,0,1,2.961,3.408.524.524,0,0,0,.123.633,1.462,1.462,0,1,1-2.429,1.135.525.525,0,0,0-.409-.5,2.434,2.434,0,0,1-.246-4.679Z" fill="#ffffff" stroke="#45413c" stroke-linecap="round" stroke-linejoin="round"></path><path d="M38.378,65.1h0a2.4,2.4,0,0,1-3.343-.614h0A2.4,2.4,0,0,1,35,61.81l2.458-3.784a.525.525,0,0,1,.953.175l.954,4.411A2.4,2.4,0,0,1,38.378,65.1Z" fill="#b8ecff"></path><path d="M39.335,62.483a2.428,2.428,0,0,1-.407.355,2.4,2.4,0,0,1-3.695-1.39L35,61.81a2.4,2.4,0,1,0,4.365.8Z" fill="#80ddff"></path><path d="M38.378,65.1h0a2.4,2.4,0,0,1-3.343-.614h0A2.4,2.4,0,0,1,35,61.81l2.458-3.784a.525.525,0,0,1,.953.175l.954,4.411A2.4,2.4,0,0,1,38.378,65.1Z" fill="none" stroke="#45413c" stroke-linecap="round" stroke-linejoin="round"></path><path d="M19.816,41.508h0a2.4,2.4,0,0,1,.81-3.3h0a2.407,2.407,0,0,1,2.672.121L26.931,41a.526.526,0,0,1-.231.942l-4.46.691A2.4,2.4,0,0,1,19.816,41.508Z" fill="#b8ecff"></path><path d="M22.37,42.617a2.4,2.4,0,0,1,1.275-4.034l-.347-.256a2.4,2.4,0,1,0-1.057,4.31Z" fill="#e5f8ff"></path><path d="M19.816,41.508h0a2.4,2.4,0,0,1,.81-3.3h0a2.407,2.407,0,0,1,2.672.121L26.931,41a.526.526,0,0,1-.231.942l-4.46.691A2.4,2.4,0,0,1,19.816,41.508Z" fill="none" stroke="#45413c" stroke-linecap="round" stroke-linejoin="round"></path><path d="M51.448,40.3a2.621,2.621,0,0,0-3.471-1.315c-1.869.842-8.143,4.262-11.095,5.927a4.2,4.2,0,0,1-2.361.531,10.866,10.866,0,0,1-2.685-.53,2.1,2.1,0,0,0-2.686,2.716,2.1,2.1,0,0,1-.815,2.506c-.78.508-1.269.836-1.352.892a2.625,2.625,0,0,0,2.927,4.359.913.913,0,0,1,1.33.35,2.094,2.094,0,0,0,1.319,1.089,2.143,2.143,0,0,0,.562.077,2.1,2.1,0,0,0,2.022-1.539,25.013,25.013,0,0,1,1.163-3.145,4.178,4.178,0,0,1,1.724-1.9c3.3-1.908,9.96-5.579,12.1-6.545A2.623,2.623,0,0,0,51.448,40.3Z" fill="#4acfff" stroke="#45413c" stroke-linecap="round" stroke-linejoin="round"></path><path d="M48.656,41.553a1.05,1.05,0,0,0-1.391-.521c-1.32.6-7.23,3.9-10.088,5.573a4.194,4.194,0,0,1-2.7.539,5.832,5.832,0,0,1-.846-.172,1.05,1.05,0,0,0-.648,2,.128.128,0,0,1,.029.228c-2,1.283-3.507,2.3-3.653,2.4a1.05,1.05,0,1,0,1.173,1.741c.02-.013.507-.34,1.279-.849a.3.3,0,0,1,.46.3,1.051,1.051,0,0,0,.876,1.2,1,1,0,0,0,.163.013,1.052,1.052,0,0,0,1.037-.888c0-.008.059-.368.173-.887a4.2,4.2,0,0,1,1.933-2.694c3.493-2.107,10.015-5.823,11.682-6.582A1.05,1.05,0,0,0,48.656,41.553Z" fill="#b8ecff"></path><path d="M57.149,32.076a4.888,4.888,0,0,1,6.84,2.1h0a4.888,4.888,0,0,1-2.581,6.674L47.419,45.723l-1.454-3-1.3-2.671Z" fill="#e8f4fa"></path><path d="M64.071,34.353a4.888,4.888,0,0,1-2.663,6.5L47.419,45.723l-1.454-3Z" fill="#c0dceb"></path><path d="M97.46,45.316a6.3,6.3,0,0,1-12.6,0v-12.6a6.3,6.3,0,0,1,12.6,0Z" fill="#ff6242"></path><path d="M91.16,26.416a6.3,6.3,0,0,0-6.3,6.3v3.342a6.3,6.3,0,0,1,12.6,0V32.716A6.3,6.3,0,0,0,91.16,26.416Z" fill="#ff866e"></path><path d="M43.455,52.426a5.192,5.192,0,0,0-.755,3.952,1.066,1.066,0,0,0,1.249.827,1.042,1.042,0,0,0,.82-1.238,3.206,3.206,0,0,1,2.46-3.714,3.2,3.2,0,0,1,3.748,2.482,3.2,3.2,0,0,1-2.459,3.714,1.043,1.043,0,0,0-.82,1.238,1.067,1.067,0,0,0,1.249.828,5.214,5.214,0,0,0,4.1-6.191A5.333,5.333,0,0,0,46.8,50.188,5.187,5.187,0,0,0,43.455,52.426Z" fill="#656769" stroke="#45413c" stroke-linecap="round" stroke-linejoin="round"></path><path d="M47.007,51.379a2.651,2.651,0,0,0,4.177,3.235c1.668-1.837,3.354-2.767,5.012-2.763a6.986,6.986,0,0,1,4.494,2.131,2.662,2.662,0,0,0,3.726.207,2.613,2.613,0,0,0,.2-3.694,12.169,12.169,0,0,0-8.381-3.909c-3.237-.032-6.261,1.475-8.987,4.478A2.425,2.425,0,0,0,47.007,51.379Z" fill="#daedf7" stroke="#45413c" stroke-linecap="round" stroke-linejoin="round"></path><path d="M97.46,45.316a6.3,6.3,0,0,1-12.6,0v-12.6a6.3,6.3,0,0,1,12.6,0Z" fill="none" stroke="#45413c" stroke-linecap="round" stroke-linejoin="round"></path><path d="M84.86 33.766H97.46V40.065999999999995H84.86z" fill="#ffffff" stroke="#45413c" stroke-linecap="round" stroke-linejoin="round"></path><path d="M61.756,74.716a2.633,2.633,0,0,1-2.6-2.319c-.121-.977-1.075-9.684,2.6-14.636a2.611,2.611,0,0,1,3.675-.53,2.665,2.665,0,0,1,.525,3.709c-2.049,2.757-1.846,8.733-1.595,10.8a2.644,2.644,0,0,1-2.283,2.952A2.56,2.56,0,0,1,61.756,74.716Z" fill="#daedf7" stroke="#45413c" stroke-linecap="round" stroke-linejoin="round"></path><path d="M86.96,44.266v5.25a15.75,15.75,0,0,1-31.5,0v-5.25Z" fill="#ff6242"></path><path d="M86.96,45.316v4.2a15.75,15.75,0,0,1-31.5,0v-4.2a15.75,15.75,0,0,0,31.5,0Z" fill="#e04122"></path><path d="M55.46 48.466L86.96 48.466" fill="none" stroke="#ffffff" stroke-linecap="round" stroke-linejoin="round"></path><path d="M86.96,44.266v5.25a15.75,15.75,0,0,1-31.5,0v-5.25Z" fill="none" stroke="#45413c" stroke-linecap="round" stroke-linejoin="round"></path><path d="M78.972,59.211a2.1,2.1,0,0,1,2.7,1.46,47.142,47.142,0,0,1,1.611,11.4,2.625,2.625,0,1,1-5.25,0,41.933,41.933,0,0,0-1.429-10,2.1,2.1,0,0,1,1.361-2.519Z" fill="#daedf7" stroke="#45413c" stroke-linecap="round" stroke-linejoin="round"></path><path d="M57.149,32.076a4.888,4.888,0,0,1,6.84,2.1h0a4.888,4.888,0,0,1-2.581,6.674L47.419,45.723l-1.454-3-1.3-2.671Z" fill="none" stroke="#45413c" stroke-linecap="round" stroke-linejoin="round"></path><path d="M47.878 46.667L44.209 39.111" fill="none" stroke="#45413c" stroke-linecap="round" stroke-linejoin="round"></path><path d="M53.185 43.714L49.811 36.767" fill="none" stroke="#45413c" stroke-linecap="round" stroke-linejoin="round"></path><path d="M56.125 75.367 A13.65 1.575 0 1 0 83.425 75.367 A13.65 1.575 0 1 0 56.125 75.367 Z" fill="#45413c" opacity=".15"></path><path d="M71.21,27.466a15.756,15.756,0,0,1,15.75,15.75v1.05H55.46v-1.05A15.756,15.756,0,0,1,71.21,27.466Z" fill="#e5f8ff"></path><path d="M71.21,27.466a15.756,15.756,0,0,1,15.75,15.75v1.05H55.46v-1.05A15.756,15.756,0,0,1,71.21,27.466Z" fill="none" stroke="#45413c" stroke-linecap="round" stroke-linejoin="round"></path><path d="M63.86,73.666a1.05,1.05,0,0,1-1.05,1.05h-6.3a1.05,1.05,0,0,1,0-2.1h6.3A1.05,1.05,0,0,1,63.86,73.666Z" fill="#656769" stroke="#45413c" stroke-linecap="round" stroke-linejoin="round"></path><path d="M82.76,73.666a1.05,1.05,0,0,1-1.05,1.05h-6.3a1.05,1.05,0,0,1,0-2.1h6.3A1.05,1.05,0,0,1,82.76,73.666Z" fill="#656769" stroke="#45413c" stroke-linecap="round" stroke-linejoin="round"></path><path d="M97.159,62.145a1.061,1.061,0,0,1-1.354-1.6,3.189,3.189,0,0,0-.324-4.475,3.147,3.147,0,0,0-2.294-.783,3.108,3.108,0,0,0-2.16,1.07,3.189,3.189,0,0,0,.323,4.476,1.06,1.06,0,0,1,.108,1.491,1.045,1.045,0,0,1-1.484.1,5.312,5.312,0,0,1-.54-7.458,5.167,5.167,0,0,1,3.6-1.786,5.249,5.249,0,0,1,3.825,1.3,5.315,5.315,0,0,1,.54,7.459A1.07,1.07,0,0,1,97.159,62.145Z" fill="#656769" stroke="#45413c" stroke-linecap="round" stroke-linejoin="round"></path><path d="M94.423,58.085a2.588,2.588,0,0,1-.931.351,2.656,2.656,0,0,1-3.054-2.16c-.439-2.463-1.371-4.164-2.769-5.057A6.874,6.874,0,0,0,82.76,50.6a2.661,2.661,0,0,1-3.247-1.839,2.613,2.613,0,0,1,1.772-3.246A11.97,11.97,0,0,1,90.4,46.725c2.744,1.723,4.5,4.636,5.216,8.661A2.628,2.628,0,0,1,94.423,58.085Z" fill="#daedf7" stroke="#45413c" stroke-linecap="round" stroke-linejoin="round"></path><path d="M87.281,51a3.675,3.675,0,0,1,4.137-3.547" fill="none" stroke="#45413c" stroke-linecap="round" stroke-linejoin="round"></path><path d="M89.774,53.916a3.678,3.678,0,0,1,5.08-1.431" fill="none" stroke="#45413c" stroke-linecap="round" stroke-linejoin="round"></path><path d="M52.89,53.058A3.681,3.681,0,0,0,49.346,49.1" fill="none" stroke="#45413c" stroke-linecap="round" stroke-linejoin="round"></path><path d="M84.107,50.408a3.677,3.677,0,0,1,.157-5.053c.086-.084.174-.164.265-.238" fill="none" stroke="#45413c" stroke-linecap="round" stroke-linejoin="round"></path><path d="M59.258 64.503L64.325 66.329" fill="none" stroke="#45413c" stroke-linecap="round" stroke-linejoin="round"></path><path d="M58.956 68.968L64.212 68.968" fill="none" stroke="#45413c" stroke-linecap="round" stroke-linejoin="round"></path><path d="M77.473 66.071L82.514 64.68" fill="none" stroke="#45413c" stroke-linecap="round" stroke-linejoin="round"></path><path d="M77.871 68.968L83.145 68.968" fill="none" stroke="#45413c" stroke-linecap="round" stroke-linejoin="round"></path><path d="M58.707 54.283 A5.775 5.775 0 1 0 70.257 54.283 A5.775 5.775 0 1 0 58.707 54.283 Z" fill="#e04122"></path><path d="M58.707 52.183 A5.775 5.775 0 1 0 70.257 52.183 A5.775 5.775 0 1 0 58.707 52.183 Z" fill="#f0f0f0"></path><path d="M70.154,53.275a5.775,5.775,0,1,0-11.344,0,5.772,5.772,0,0,1,11.344,0Z" fill="#ffffff"></path><path d="M58.707 52.183 A5.775 5.775 0 1 0 70.257 52.183 A5.775 5.775 0 1 0 58.707 52.183 Z" fill="none" stroke="#45413c" stroke-linecap="round" stroke-linejoin="round"></path><path d="M63.024,50.727a1.77,1.77,0,0,0,.341,1.115.129.129,0,0,0,.172.031,2.448,2.448,0,0,0,.945-1.646,4.389,4.389,0,0,0,.063-1.689.13.13,0,0,1,.194-.134,5.358,5.358,0,0,1,2.619,4.554,2.928,2.928,0,0,1-2.885,3.023,2.969,2.969,0,0,1-1.648-5.367A.13.13,0,0,1,63.024,50.727Z" fill="#ff6242" stroke="#45413c" stroke-linecap="round" stroke-linejoin="round"></path><path d="M86.96,43.216a15.678,15.678,0,0,0-3.512-9.911,3.418,3.418,0,0,0-1.685,1.01,3.125,3.125,0,0,1-2.1,1.05,2.885,2.885,0,0,1-2.1-1.05,2.88,2.88,0,0,0-2.1-1.05,3.13,3.13,0,0,0-2.1,1.05,3.125,3.125,0,0,1-2.1,1.05,2.885,2.885,0,0,1-2.1-1.05,2.88,2.88,0,0,0-2.1-1.05,3.13,3.13,0,0,0-2.1,1.05,3.125,3.125,0,0,1-2.1,1.05,2.885,2.885,0,0,1-2.1-1.05,3.019,3.019,0,0,0-1.776-1.029,15.684,15.684,0,0,0-3.527,9.93v1.05h31.5Z" fill="#80ddff"></path><path d="M58.661,35.492a2.882,2.882,0,0,1,2.1,1.05,2.88,2.88,0,0,0,2.1,1.05,3.135,3.135,0,0,0,2.1-1.05,3.125,3.125,0,0,1,2.1-1.05,2.882,2.882,0,0,1,2.1,1.05,2.88,2.88,0,0,0,2.1,1.05,3.135,3.135,0,0,0,2.1-1.05,3.125,3.125,0,0,1,2.1-1.05,2.882,2.882,0,0,1,2.1,1.05,2.88,2.88,0,0,0,2.1,1.05,3.135,3.135,0,0,0,2.1-1.05,3.125,3.125,0,0,1,2.1-1.05,2.462,2.462,0,0,1,1.265.346,15.776,15.776,0,0,0-1.678-2.533,3.418,3.418,0,0,0-1.685,1.01,3.125,3.125,0,0,1-2.1,1.05,2.885,2.885,0,0,1-2.1-1.05,2.88,2.88,0,0,0-2.1-1.05,3.13,3.13,0,0,0-2.1,1.05,3.125,3.125,0,0,1-2.1,1.05,2.885,2.885,0,0,1-2.1-1.05,2.88,2.88,0,0,0-2.1-1.05,3.13,3.13,0,0,0-2.1,1.05,3.125,3.125,0,0,1-2.1,1.05,2.885,2.885,0,0,1-2.1-1.05,3.019,3.019,0,0,0-1.776-1.029,15.811,15.811,0,0,0-1.764,2.688A2.545,2.545,0,0,1,58.661,35.492Z" fill="#b8ecff"></path><path d="M86.96,43.216a15.678,15.678,0,0,0-3.512-9.911,3.418,3.418,0,0,0-1.685,1.01,3.125,3.125,0,0,1-2.1,1.05,2.885,2.885,0,0,1-2.1-1.05,2.88,2.88,0,0,0-2.1-1.05,3.13,3.13,0,0,0-2.1,1.05,3.125,3.125,0,0,1-2.1,1.05,2.885,2.885,0,0,1-2.1-1.05,2.88,2.88,0,0,0-2.1-1.05,3.13,3.13,0,0,0-2.1,1.05,3.125,3.125,0,0,1-2.1,1.05,2.885,2.885,0,0,1-2.1-1.05,3.019,3.019,0,0,0-1.776-1.029,15.684,15.684,0,0,0-3.527,9.93v1.05h31.5Z" fill="none" stroke="#45413c" stroke-linecap="round" stroke-linejoin="round"></path><path d="M60.185 39.541 A1.575 1.575 0 1 0 63.335 39.541 A1.575 1.575 0 1 0 60.185 39.541 Z" fill="#ffffff" stroke="#45413c" stroke-miterlimit="10"></path><path d="M69.635 39.541 A1.575 1.575 0 1 0 72.785 39.541 A1.575 1.575 0 1 0 69.635 39.541 Z" fill="#ffffff" stroke="#45413c" stroke-miterlimit="10"></path></g></svg>