<svg xmlns="http://www.w3.org/2000/svg" version="1.1" xmlns:xlink="http://www.w3.org/1999/xlink" xmlns:svgjs="http://svgjs.com/svgjs" viewBox="0 0 200 200" width="200" height="200"><g transform="matrix(2,0,0,2,0,0)"><path d="M12.637,66.5a40.016,40.016,0,0,0,72.9,0Z" fill="#e8f4fa"></path><path d="M85.534,66.5a40,40,0,1,0-72.9,0Z" fill="#c7f0ff"></path><path d="M10.086 66.5L88.086 66.5" fill="none" stroke="#45413c" stroke-linecap="round" stroke-linejoin="round"></path><path d="M5.586 66.5L8.086 66.5" fill="none" stroke="#45413c" stroke-linecap="round" stroke-linejoin="round"></path><path d="M90.086 66.5L92.586 66.5" fill="none" stroke="#45413c" stroke-linecap="round" stroke-linejoin="round"></path><path d="M26.589,35.569a1.377,1.377,0,0,1-1-1.323v-4.7h-5.5v4.7a1.375,1.375,0,0,1-1,1.323,13.761,13.761,0,1,0,7.507,0Z" fill="#e5f8ff"></path><path d="M20.083 29.546H25.586999999999996V33.674H20.083z" fill="#b8ecff"></path><path d="M9.075,48.81a13.761,13.761,0,0,0,27.521,0Z" fill="#ffe500"></path><path d="M36.32,51.562A13.781,13.781,0,0,0,36.6,48.81H9.075a13.855,13.855,0,0,0,.275,2.752Z" fill="#fff48c"></path><path d="M9.075,48.81a13.761,13.761,0,0,0,27.521,0Z" fill="none" stroke="#45413c" stroke-linecap="round" stroke-linejoin="round"></path><path d="M18.019 53.626 A2.064 2.064 0 1 0 22.147 53.626 A2.064 2.064 0 1 0 18.019 53.626 Z" fill="#ffffff" stroke="#ebcb00" stroke-linecap="round" stroke-linejoin="round"></path><path d="M25.129 12.937 A2.064 2.064 0 1 0 29.257 12.937 A2.064 2.064 0 1 0 25.129 12.937 Z" fill="#ffe500" stroke="#45413c" stroke-linecap="round" stroke-linejoin="round"></path><path d="M23.572,18.363a2.005,2.005,0,0,0-1.453.62,1.376,1.376,0,0,1-1.175.413,3.024,3.024,0,1,0,2.523,3.788,1.38,1.38,0,0,1,.832-.925,2.016,2.016,0,0,0-.727-3.9Z" fill="#ffe500" stroke="#45413c" stroke-linecap="round" stroke-linejoin="round"></path><path d="M24.211 58.442 A1.376 1.376 0 1 0 26.963 58.442 A1.376 1.376 0 1 0 24.211 58.442 Z" fill="#ffffff" stroke="#ebcb00" stroke-linecap="round" stroke-linejoin="round"></path><path d="M26.589,35.569a1.377,1.377,0,0,1-1-1.323v-4.7h-5.5v4.7a1.375,1.375,0,0,1-1,1.323,13.761,13.761,0,1,0,7.507,0Z" fill="none" stroke="#45413c" stroke-linecap="round" stroke-linejoin="round"></path><path d="M18.707 29.546L26.963 29.546" fill="none" stroke="#45413c" stroke-linecap="round" stroke-linejoin="round"></path><path d="M19.939,65.292a3.26,3.26,0,0,0,.628,2.05.238.238,0,0,0,.317.058,4.5,4.5,0,0,0,1.738-3.028,8.08,8.08,0,0,0,.116-3.106.238.238,0,0,1,.357-.246,9.854,9.854,0,0,1,4.816,8.374,5.384,5.384,0,0,1-5.306,5.56,5.46,5.46,0,0,1-3.032-9.87A.239.239,0,0,1,19.939,65.292Z" fill="#ff8a14"></path><path d="M27.778,67.912A5.275,5.275,0,0,1,17.5,68.17a6.531,6.531,0,0,0-.168,1.493,5.291,5.291,0,0,0,5.274,5.291,5.384,5.384,0,0,0,5.306-5.56A11.29,11.29,0,0,0,27.778,67.912Z" fill="#eb6d00"></path><path d="M19.939,65.292a3.26,3.26,0,0,0,.628,2.05.238.238,0,0,0,.317.058,4.5,4.5,0,0,0,1.738-3.028,8.08,8.08,0,0,0,.116-3.106.238.238,0,0,1,.357-.246,9.854,9.854,0,0,1,4.816,8.374,5.384,5.384,0,0,1-5.306,5.56,5.46,5.46,0,0,1-3.032-9.87A.239.239,0,0,1,19.939,65.292Z" fill="none" stroke="#45413c" stroke-linecap="round" stroke-linejoin="round"></path><path d="M37.972,70.826,34.4,57.718a2.753,2.753,0,0,0-2.656-2.028H13.929a2.753,2.753,0,0,0-2.655,2.028L7.7,70.826" fill="none" stroke="#45413c" stroke-linecap="round" stroke-linejoin="round"></path><path d="M59.512 39.026H63.912V43.426H59.512z" fill="#c0dceb" stroke="#45413c" stroke-linecap="round" stroke-linejoin="round"></path><path d="M52.912 43.426 L70.512 43.426 L70.512 59.926 L52.912 59.926 Z" fill="#ffffff" stroke="#45413c" stroke-linecap="round" stroke-linejoin="round"></path><path d="M58.412 59.926H65.012V66.526H58.412z" fill="#daedf7"></path><path d="M58.417 59.926H65.017V63.226H58.417z" fill="#c0dceb"></path><path d="M58.412 59.926H65.012V66.526H58.412z" fill="none" stroke="#45413c" stroke-linecap="round" stroke-linejoin="round"></path><path d="M66.112,51.126a2.2,2.2,0,0,1-2.2,2.2h-4.4a2.2,2.2,0,0,1-2.2-2.2v-7.7h8.8Z" fill="#00b8f0"></path><path d="M64.643 43.426L57.312 50.752 57.312 43.426 64.643 43.426z" fill="#4acfff"></path><path d="M66.112,51.126a2.2,2.2,0,0,1-2.2,2.2h-4.4a2.2,2.2,0,0,1-2.2-2.2v-7.7h8.8Z" fill="none" stroke="#45413c" stroke-linecap="round" stroke-linejoin="round"></path><path d="M38.868 53.219H55.368V57.619H38.868z" fill="#ffffff" transform="translate(-22.771 75.59) rotate(-65.728)"></path><path d="M52.192,48.657,48.5,46.994l-2.665,5.911a3.29,3.29,0,0,0,1.948.636h2.592l1.814-4.022Z" fill="#bdbec0"></path><path d="M38.868 53.219H55.368V57.619H38.868z" fill="none" stroke="#45413c" stroke-linecap="round" stroke-linejoin="round" transform="translate(-22.771 75.59) rotate(-65.728)"></path><path d="M52.912,51.126H48.506a3.3,3.3,0,0,1-3.3-3.3v-1.1a3.3,3.3,0,0,1,3.3-3.3h2.2a2.209,2.209,0,0,1,2.206,2.2Z" fill="#ffffff" stroke="#45413c" stroke-linecap="round" stroke-linejoin="round"></path><path d="M46.2,66.526H41.835a3,3,0,0,1-.55-.627,3.3,3.3,0,1,1,4.917.627Z" fill="#f0f0f0" stroke="#45413c" stroke-linecap="round" stroke-linejoin="round"></path><path d="M74.154 47.026H78.554V63.526H74.154z" fill="#ffffff" transform="translate(-16.234 37.587) rotate(-25.086)"></path><path d="M74.848,46.872l-3.985,1.865,2.249,4.8h2.051a3.288,3.288,0,0,0,2.348-.981Z" fill="#bdbec0"></path><path d="M74.154 47.026H78.554V63.526H74.154z" fill="none" stroke="#45413c" stroke-linecap="round" stroke-linejoin="round" transform="translate(-16.234 37.587) rotate(-25.086)"></path><path d="M70.512,51.126h4.405a3.3,3.3,0,0,0,3.3-3.3v-1.1a3.3,3.3,0,0,0-3.3-3.3h-2.2a2.208,2.208,0,0,0-2.2,2.2Z" fill="#ffffff" stroke="#45413c" stroke-linecap="round" stroke-linejoin="round"></path><path d="M76.272 63.866 A3.300 3.300 0 1 0 82.872 63.866 A3.300 3.300 0 1 0 76.272 63.866 Z" fill="#ffffff" stroke="#45413c" stroke-linecap="round" stroke-linejoin="round"></path><path d="M79.2,60.987a2.2,2.2,0,1,0,3.417,2.772L86.9,58.318l-3.417-2.771Z" fill="#f0f0f0"></path><path d="M83.483,55.547l-2.135,2.712a3.3,3.3,0,0,0,3.624,2.509l1.928-2.45Z" fill="#bdbec0"></path><path d="M79.2,60.987a2.2,2.2,0,1,0,3.417,2.772L86.9,58.318l-3.417-2.771Z" fill="#ffffff" stroke="#45413c" stroke-linecap="round" stroke-linejoin="round"></path><path d="M92.605,46.14a.549.549,0,0,1,.81.11,5.775,5.775,0,1,1-8.952-.735.552.552,0,0,1,.818.023l1.076,1.269a.55.55,0,0,1,0,.715,3.025,3.025,0,1,0,4.868.4.55.55,0,0,1,.114-.706Z" fill="#656769"></path><path d="M92.605,46.14a.549.549,0,0,1,.81.11,5.775,5.775,0,1,1-8.952-.735.552.552,0,0,1,.818.023l1.076,1.269a.55.55,0,0,1,0,.715,3.025,3.025,0,1,0,4.868.4.55.55,0,0,1,.114-.706Z" fill="none" stroke="#45413c" stroke-linecap="round" stroke-linejoin="round"></path><path d="M82.736 55.759 A3.300 3.300 0 1 0 89.336 55.759 A3.300 3.300 0 1 0 82.736 55.759 Z" fill="#ffffff" stroke="#45413c" stroke-linecap="round" stroke-linejoin="round"></path><path d="M84.433 24.475 A1.650 1.650 0 1 0 87.733 24.475 A1.650 1.650 0 1 0 84.433 24.475 Z" fill="#ff6242" stroke="#45413c" stroke-linecap="round" stroke-linejoin="round"></path><path d="M86.799 14.807 A1.375 1.375 0 1 0 89.549 14.807 A1.375 1.375 0 1 0 86.799 14.807 Z" fill="#ff6242" stroke="#45413c" stroke-linecap="round" stroke-linejoin="round"></path><path d="M89.274 20.625 A2.200 2.200 0 1 0 93.674 20.625 A2.200 2.200 0 1 0 89.274 20.625 Z" fill="#ff6242" stroke="#45413c" stroke-linecap="round" stroke-linejoin="round"></path><path d="M90.942,47.025a2.2,2.2,0,0,1-4.4,0V29.975a1.1,1.1,0,0,1,1.1-1.1h2.2a1.1,1.1,0,0,1,1.1,1.1Z" fill="#a6fbff" stroke="#45413c" stroke-linecap="round" stroke-linejoin="round"></path><path d="M90.942,40.425v6.6a2.2,2.2,0,0,1-4.4,0v-6.6Z" fill="#ff6242"></path><path d="M86.543 40.425H90.94300000000001V42.751999999999995H86.543z" fill="#ff866e"></path><path d="M90.942,47.025a2.2,2.2,0,0,1-4.4,0v-6.6h4.4Z" fill="none" stroke="#45413c" stroke-linecap="round" stroke-linejoin="round"></path><path d="M32.834,52.834v7.571a4.124,4.124,0,0,1-.588,2.124L24.969,74.658a3.761,3.761,0,0,0,3.225,5.7H45a3.761,3.761,0,0,0,3.225-5.7L40.945,62.529a4.124,4.124,0,0,1-.588-2.124V52.834Z" fill="#e5f8ff"></path><path d="M32.834 52.834H40.356V58.338H32.834z" fill="#b8ecff"></path><path d="M24.059 80.756 A12.537 2.351 0 1 0 49.133 80.756 A12.537 2.351 0 1 0 24.059 80.756 Z" fill="#45413c" opacity=".15"></path><path d="M27.193,70.952l-2.224,3.706a3.761,3.761,0,0,0,3.225,5.7H45a3.761,3.761,0,0,0,3.225-5.7L46,70.952Z" fill="#6dd627"></path><path d="M47.892 74.108L45.998 70.951 27.193 70.951 25.299 74.108 47.892 74.108z" fill="#9ceb60"></path><path d="M32.834,52.834v7.571a4.124,4.124,0,0,1-.588,2.124L24.969,74.658a3.761,3.761,0,0,0,3.225,5.7H45a3.761,3.761,0,0,0,3.225-5.7L40.945,62.529a4.124,4.124,0,0,1-.588-2.124V52.834Z" fill="none" stroke="#45413c" stroke-linecap="round" stroke-linejoin="round"></path><path d="M31.244 52.834L42.252 52.834" fill="none" stroke="#45413c" stroke-linecap="round" stroke-linejoin="round"></path><path d="M27.193,70.952l-2.224,3.706a3.761,3.761,0,0,0,3.225,5.7H45a3.761,3.761,0,0,0,3.225-5.7L46,70.952Z" fill="none" stroke="#45413c" stroke-linecap="round" stroke-linejoin="round"></path><path d="M46.317 15.675 L77.117 15.675 L77.117 39.875 L46.317 39.875 Z" fill="#00b8f0"></path><path d="M50.024,39.874h-.407a3.3,3.3,0,0,1-3.3-3.3v-17.6a3.3,3.3,0,0,1,3.3-3.3h24.2Z" fill="#4acfff"></path><path d="M57.557,31.05a1.615,1.615,0,0,1-1.612-1.613c0-1.117-.486-1.648-.617-1.691a2.257,2.257,0,0,0-.558,1.691,1.613,1.613,0,1,1-3.225,0c0-2.754,1.675-4.912,3.812-4.912s3.812,2.158,3.812,4.912A1.615,1.615,0,0,1,57.557,31.05Z" fill="#ffffff" stroke="#009fd9" stroke-linecap="round" stroke-linejoin="round"></path><path d="M65.877,31.05a1.615,1.615,0,0,0,1.612-1.613c0-1.117.486-1.648.617-1.691a2.257,2.257,0,0,1,.558,1.691,1.613,1.613,0,1,0,3.225,0c0-2.754-1.675-4.912-3.812-4.912s-3.812,2.158-3.812,4.912A1.615,1.615,0,0,0,65.877,31.05Z" fill="#ffffff" stroke="#009fd9" stroke-linecap="round" stroke-linejoin="round"></path><path d="M46.317 15.675 L77.117 15.675 L77.117 39.875 L46.317 39.875 Z" fill="none" stroke="#45413c" stroke-linecap="round" stroke-linejoin="round"></path></g></svg>