<svg xmlns="http://www.w3.org/2000/svg" version="1.1" xmlns:xlink="http://www.w3.org/1999/xlink" xmlns:svgjs="http://svgjs.com/svgjs" viewBox="0 0 200 200" width="200" height="200"><g transform="matrix(2,0,0,2,0,0)"><path d="M10.000 49.633 A40.000 40.000 0 1 0 90.000 49.633 A40.000 40.000 0 1 0 10.000 49.633 Z" fill="#e8f4fa" stroke="#daedf7" stroke-miterlimit="10"></path><path d="M49.792,7.249a12.093,12.093,0,0,1,12.1,12.1v5.5h-24.2v-5.5A12.093,12.093,0,0,1,49.792,7.249Z" fill="#4acfff"></path><path d="M61.892,19.349v4.4a12.1,12.1,0,0,0-24.2,0v-4.4a12.1,12.1,0,1,1,24.2,0Z" fill="#b8ecff"></path><path d="M49.792,7.249a12.093,12.093,0,0,1,12.1,12.1v5.5h-24.2v-5.5A12.093,12.093,0,0,1,49.792,7.249Z" fill="none" stroke="#45413c" stroke-linecap="round" stroke-linejoin="round"></path><path d="M58.08,22.4c-.143-1.994-1.482-3.558-3.116-3.558a2.588,2.588,0,0,0-.33.022,5.134,5.134,0,0,0-4.366-2.815,4.986,4.986,0,0,0-4.055,2.322A1.888,1.888,0,0,0,45.125,18,2.352,2.352,0,0,0,43,19.965c-1.8.074-3.243,1.916-3.243,4.183A5.086,5.086,0,0,0,40,25.7a2.683,2.683,0,0,0,2.509,1.942h2.451V29.91a2.308,2.308,0,0,0,2.306-2.267H57.48a2.285,2.285,0,0,0,2.18-2.378A3.128,3.128,0,0,0,58.08,22.4Z" fill="#ffcabf"></path><path d="M44.964,27.643a2.755,2.755,0,0,0,.832-2.1" fill="none" stroke="#00b8f0" stroke-linecap="round" stroke-linejoin="round"></path><path d="M44.678,24.986a2.18,2.18,0,0,0,1.565.559c.932,0,1.565-1,2.013-2.235a3.353,3.353,0,0,1,.669-1.117" fill="none" stroke="#ff866e" stroke-linecap="round" stroke-linejoin="round"></path><path d="M54.634,18.863a4.323,4.323,0,0,0-3.248,2.212" fill="none" stroke="#ff866e" stroke-linecap="round" stroke-linejoin="round"></path><path d="M58.08,22.4a2.653,2.653,0,0,0-3.116.352" fill="none" stroke="#ff866e" stroke-linecap="round" stroke-linejoin="round"></path><path d="M43,19.965a1.977,1.977,0,0,1,1.453.273" fill="none" stroke="#ff866e" stroke-linecap="round" stroke-linejoin="round"></path><path d="M46.213,18.37a2.533,2.533,0,0,1,.254,3.823c-1.561,1.436-2.851-.489-4.025,1.4" fill="none" stroke="#ff866e" stroke-linecap="round" stroke-linejoin="round"></path><path d="M51.163,23.031a3.485,3.485,0,0,0,0-2.235,1.938,1.938,0,0,0-1.94-1.414" fill="none" stroke="#ff866e" stroke-linecap="round" stroke-linejoin="round"></path><path d="M58.08,22.4c-.143-1.994-1.482-3.558-3.116-3.558a2.588,2.588,0,0,0-.33.022,5.134,5.134,0,0,0-4.366-2.815,4.986,4.986,0,0,0-4.055,2.322A1.888,1.888,0,0,0,45.125,18,2.352,2.352,0,0,0,43,19.965c-1.8.074-3.243,1.916-3.243,4.183A5.086,5.086,0,0,0,40,25.7a2.683,2.683,0,0,0,2.509,1.942h2.451V29.91a2.308,2.308,0,0,0,2.306-2.267H57.48a2.285,2.285,0,0,0,2.18-2.378A3.128,3.128,0,0,0,58.08,22.4Z" fill="none" stroke="#45413c" stroke-linecap="round" stroke-linejoin="round"></path><path d="M40.048,90.824a2.31,2.31,0,0,1-1.984-2.38,72.11,72.11,0,0,1,4.643-23.265A2.31,2.31,0,0,1,47.035,66.8,68.338,68.338,0,0,0,42.68,88.629a2.309,2.309,0,0,1-2.4,2.215C40.2,90.841,40.124,90.834,40.048,90.824Z" fill="#ffffff"></path><path d="M45.68,63.826a2.307,2.307,0,0,0-2.973,1.352,57.612,57.612,0,0,0-2.31,7.233,9.93,9.93,0,0,0,4.068,2.879,56.357,56.357,0,0,1,2.57-8.492A2.311,2.311,0,0,0,45.68,63.826Z" fill="#e0e0e0"></path><path d="M40.048,90.824a2.31,2.31,0,0,1-1.984-2.38,72.11,72.11,0,0,1,4.643-23.265A2.31,2.31,0,0,1,47.035,66.8,68.338,68.338,0,0,0,42.68,88.629a2.309,2.309,0,0,1-2.4,2.215C40.2,90.841,40.124,90.834,40.048,90.824Z" fill="none" stroke="#45413c" stroke-linecap="round" stroke-linejoin="round"></path><path d="M44.158,76.695a9.712,9.712,0,0,1-2.464-.219,9.934,9.934,0,0,1-2.078-.685" fill="none" stroke="#45413c" stroke-linecap="round" stroke-linejoin="round"></path><path d="M43.219,82.266a9.259,9.259,0,0,1-3.083-.165,10.221,10.221,0,0,1-1.5-.442" fill="none" stroke="#45413c" stroke-linecap="round" stroke-linejoin="round"></path><path d="M71.224,38.713a6.6,6.6,0,0,1-2.011-12.027,1.65,1.65,0,1,1,1.748,2.8,3.3,3.3,0,0,0-1.05,4.547,3.38,3.38,0,0,0,4.547,1.05,3.3,3.3,0,0,0,1.051-4.546,1.65,1.65,0,0,1,2.8-1.749,6.6,6.6,0,0,1-7.084,9.927Z" fill="#adc4d9" stroke="#45413c" stroke-linecap="round" stroke-linejoin="round"></path><path d="M30.409,72.6a1.651,1.651,0,0,1-.6-2.989,3.3,3.3,0,1,0-4.579-.9,1.65,1.65,0,0,1-2.74,1.84,6.6,6.6,0,1,1,9.16,1.8A1.649,1.649,0,0,1,30.409,72.6Z" fill="#adc4d9" stroke="#45413c" stroke-linecap="round" stroke-linejoin="round"></path><path d="M27.933,65.379c-.078-.009-.154-.021-.229-.035a2.75,2.75,0,0,1-2.2-3c1.4-12.635,11.97-17.668,18.133-16.619l.5,5.094-2.719.281c-.418.048-9.257,1.183-10.444,11.851A2.75,2.75,0,0,1,27.933,65.379Z" fill="#ffffff"></path><path d="M40.324,45.7c-.034.037-.069.073-.1.111a9.826,9.826,0,0,0-2.529,6.509A11.576,11.576,0,0,1,41.414,51.1l2.719-.282-.5-5.094A11.03,11.03,0,0,0,40.324,45.7Z" fill="#e0e0e0"></path><path d="M27.933,65.379c-.078-.009-.154-.021-.229-.035a2.75,2.75,0,0,1-2.2-3c1.4-12.635,11.97-17.668,18.133-16.619l.5,5.094-2.719.281c-.418.048-9.257,1.183-10.444,11.851A2.75,2.75,0,0,1,27.933,65.379Z" fill="none" stroke="#45413c" stroke-linecap="round" stroke-linejoin="round"></path><path d="M58.111,51.49c-2.319-.535-2.6-3.217-1.553-5.284l1.981-.139c.419-.034,9.291-.876,10.831-11.5a2.75,2.75,0,0,1,5.443.788c-1.756,12.115-11.171,15.893-15.9,16.2A2.7,2.7,0,0,1,58.111,51.49Z" fill="#ffffff"></path><path d="M59.461,45.925a8.175,8.175,0,0,1-.922.142l-1.981.139c-1.052,2.067-.766,4.749,1.553,5.285a2.772,2.772,0,0,0,.8.064,14.228,14.228,0,0,0,2.889-.518A9.835,9.835,0,0,0,59.461,45.925Z" fill="#e0e0e0"></path><path d="M58.111,51.49c-2.319-.535-2.6-3.217-1.553-5.284l1.981-.139c.419-.034,9.291-.876,10.831-11.5a2.75,2.75,0,0,1,5.443.788c-1.756,12.115-11.171,15.893-15.9,16.2A2.7,2.7,0,0,1,58.111,51.49Z" fill="none" stroke="#45413c" stroke-linecap="round" stroke-linejoin="round"></path><path d="M36.562 91.528 A13.327 1.518 0 1 0 63.216 91.528 A13.327 1.518 0 1 0 36.562 91.528 Z" fill="#45413c" opacity=".15"></path><path d="M34.851,89.984c0,1.954,1.98,1.769,4.423,1.769s4.422.185,4.422-1.769-1.98-3.538-4.422-3.538S34.851,88.03,34.851,89.984Z" fill="#adc4d9" stroke="#45413c" stroke-linecap="round" stroke-linejoin="round"></path><path d="M59.536,90.824a2.31,2.31,0,0,0,1.984-2.38,72.11,72.11,0,0,0-4.643-23.265A2.31,2.31,0,0,0,52.549,66.8,68.371,68.371,0,0,1,56.9,88.629a2.309,2.309,0,0,0,2.4,2.215C59.383,90.841,59.46,90.834,59.536,90.824Z" fill="#ffffff"></path><path d="M53.9,63.826a2.307,2.307,0,0,1,2.973,1.352,57.809,57.809,0,0,1,2.31,7.233,9.93,9.93,0,0,1-4.068,2.879,56.357,56.357,0,0,0-2.57-8.492A2.311,2.311,0,0,1,53.9,63.826Z" fill="#e0e0e0"></path><path d="M59.536,90.824a2.31,2.31,0,0,0,1.984-2.38,72.11,72.11,0,0,0-4.643-23.265A2.31,2.31,0,0,0,52.549,66.8,68.371,68.371,0,0,1,56.9,88.629a2.309,2.309,0,0,0,2.4,2.215C59.383,90.841,59.46,90.834,59.536,90.824Z" fill="none" stroke="#45413c" stroke-linecap="round" stroke-linejoin="round"></path><path d="M55.426,76.695a9.716,9.716,0,0,0,2.464-.219,9.934,9.934,0,0,0,2.078-.685" fill="none" stroke="#45413c" stroke-linecap="round" stroke-linejoin="round"></path><path d="M56.365,82.266a9.26,9.26,0,0,0,3.083-.165,10.257,10.257,0,0,0,1.5-.442" fill="none" stroke="#45413c" stroke-linecap="round" stroke-linejoin="round"></path><path d="M64.733,89.984c0,1.954-1.98,1.769-4.423,1.769s-4.422.185-4.422-1.769,1.98-3.538,4.422-3.538S64.733,88.03,64.733,89.984Z" fill="#adc4d9" stroke="#45413c" stroke-linecap="round" stroke-linejoin="round"></path><path d="M80.174,24.411a5.5,5.5,0,0,1-6.6,4.12h0a5.5,5.5,0,0,1-4.121-6.6l1.238-5.359,10.718,2.476Z" fill="#ffffff" stroke="#45413c" stroke-linecap="round" stroke-linejoin="round"></path><path d="M82.65,13.693a5.5,5.5,0,0,0-4.121-6.6h0a5.5,5.5,0,0,0-6.6,4.121l-1.238,5.359,10.718,2.476Z" fill="#ff6242"></path><path d="M78.529,7.1a5.5,5.5,0,0,1,4.121,6.6l-.855,3.7a5.5,5.5,0,0,0-10.717-2.476l.854-3.7A5.5,5.5,0,0,1,78.529,7.1Z" fill="#ff866e"></path><path d="M82.65,13.693a5.5,5.5,0,0,0-4.121-6.6h0a5.5,5.5,0,0,0-6.6,4.121l-1.238,5.359,10.718,2.476Z" fill="none" stroke="#45413c" stroke-linecap="round" stroke-linejoin="round"></path><path d="M63.364,44.393a4.535,4.535,0,0,1,1.907,4.8,4.45,4.45,0,0,1-.185.607" fill="none" stroke="#45413c" stroke-linecap="round" stroke-linejoin="round"></path><path d="M34.543,47.759a4.538,4.538,0,0,1,3.1,4.588" fill="none" stroke="#45413c" stroke-linecap="round" stroke-linejoin="round"></path><path d="M29.849,51.666a4.586,4.586,0,0,1,.61.078,4.538,4.538,0,0,1,3.564,3.508" fill="none" stroke="#45413c" stroke-linecap="round" stroke-linejoin="round"></path><path d="M26.56,57.53a4.538,4.538,0,0,1,5.343,1.4" fill="none" stroke="#45413c" stroke-linecap="round" stroke-linejoin="round"></path><path d="M67.074,40.86a4.382,4.382,0,0,1,.5.087,4.537,4.537,0,0,1,3.475,3.812" fill="none" stroke="#45413c" stroke-linecap="round" stroke-linejoin="round"></path><path d="M68.874,36.911a4.538,4.538,0,0,1,5.255,1.819" fill="none" stroke="#45413c" stroke-linecap="round" stroke-linejoin="round"></path><path d="M61.892,24.849v3.3a12.1,12.1,0,0,1-24.2,0v-3.3Z" fill="#ffffff"></path><path d="M49.792,37.61a12.093,12.093,0,0,1-12.1-12.1v2.639a12.1,12.1,0,0,0,24.2,0V25.51A12.093,12.093,0,0,1,49.792,37.61Z" fill="#e0e0e0"></path><path d="M61.892,24.849v3.3a12.1,12.1,0,0,1-24.2,0v-3.3Z" fill="none" stroke="#45413c" stroke-linecap="round" stroke-linejoin="round"></path><path d="M59.692,52.9v11a9.9,9.9,0,0,1-19.8,0v-11a9.927,9.927,0,0,1,4.447-8.257,3.287,3.287,0,0,1,1.814-.543h7.278a3.3,3.3,0,0,1,1.814.543A9.927,9.927,0,0,1,59.692,52.9Z" fill="#ffffff"></path><path d="M49.792,70.357a9.9,9.9,0,0,1-9.9-9.9V63.9a9.9,9.9,0,0,0,19.8,0V60.457A9.9,9.9,0,0,1,49.792,70.357Z" fill="#e0e0e0"></path><path d="M59.692,52.9v11a9.9,9.9,0,0,1-19.8,0v-11a9.927,9.927,0,0,1,4.447-8.257,3.287,3.287,0,0,1,1.814-.543h7.278a3.3,3.3,0,0,1,1.814.543A9.927,9.927,0,0,1,59.692,52.9Z" fill="none" stroke="#45413c" stroke-linecap="round" stroke-linejoin="round"></path><path d="M55.292,58.259a1.375,1.375,0,0,0-1.375-1.375H51.854V54.821a1.375,1.375,0,0,0-1.375-1.375H49.1a1.376,1.376,0,0,0-1.375,1.375v2.063H45.667a1.375,1.375,0,0,0-1.375,1.375v1.375a1.376,1.376,0,0,0,1.375,1.375h2.062v2.062A1.375,1.375,0,0,0,49.1,64.446h1.375a1.374,1.374,0,0,0,1.375-1.375V61.009h2.063a1.376,1.376,0,0,0,1.375-1.375Z" fill="#ff6242" stroke="#e04122" stroke-linecap="round" stroke-linejoin="round"></path><path d="M43.192 29.796 A1.650 1.650 0 1 0 46.492 29.796 A1.650 1.650 0 1 0 43.192 29.796 Z" fill="#45413c"></path><path d="M53.092 29.796 A1.650 1.650 0 1 0 56.392 29.796 A1.650 1.650 0 1 0 53.092 29.796 Z" fill="#45413c"></path><path d="M53.292,34.394a4.95,4.95,0,0,1-7,0" fill="none" stroke="#45413c" stroke-linecap="round" stroke-linejoin="round"></path></g></svg>