<svg xmlns="http://www.w3.org/2000/svg" version="1.1" xmlns:xlink="http://www.w3.org/1999/xlink" xmlns:svgjs="http://svgjs.com/svgjs" viewBox="0 0 200 200" width="200" height="200"><g transform="matrix(2,0,0,2,0,0)"><path d="M10.191 54.765 A40.000 40.000 0 1 0 90.191 54.765 A40.000 40.000 0 1 0 10.191 54.765 Z" fill="#e8f4fa" stroke="#daedf7" stroke-miterlimit="10"></path><path d="M38.116 67.558 L43.326 67.558 L43.326 75.032 L38.116 75.032 Z" fill="#525252" stroke="#45413c" stroke-linecap="round" stroke-linejoin="round"></path><path d="M37.543,69.924a1.031,1.031,0,0,1-1.031-1.03V56.482a1.031,1.031,0,0,1,1.031-1.031H34.966a1.03,1.03,0,0,0-1.031,1.031V68.894a1.03,1.03,0,0,0,1.031,1.03Z" fill="#f0f0f0" stroke="#45413c" stroke-linecap="round" stroke-linejoin="round"></path><path d="M44.629,63.85a1.03,1.03,0,0,0,.884-1.019V56.482a1.03,1.03,0,0,0-1.031-1.031H37.543a1.031,1.031,0,0,0-1.031,1.031V68.894a1.031,1.031,0,0,0,1.031,1.03h.875a1.031,1.031,0,0,0,1.021-.882A6.141,6.141,0,0,1,44.629,63.85Z" fill="#656769" stroke="#45413c" stroke-linecap="round" stroke-linejoin="round"></path><path d="M36.512,88.776V73.227a1.031,1.031,0,0,1,1.031-1.03H34.966a1.03,1.03,0,0,0-1.031,1.03V88.776a1.031,1.031,0,0,0,1.031,1.031h2.577A1.032,1.032,0,0,1,36.512,88.776Z" fill="#f0f0f0" stroke="#45413c" stroke-linecap="round" stroke-linejoin="round"></path><path d="M40.059,73.141a1.03,1.03,0,0,0-1.026-.944h-1.49a1.031,1.031,0,0,0-1.031,1.03V88.776a1.032,1.032,0,0,0,1.031,1.031H48.582a1.031,1.031,0,0,0,1.031-1.031V84.323a1.028,1.028,0,0,0-.944-1.026C43.27,82.843,40.513,78.54,40.059,73.141Z" fill="#656769" stroke="#45413c" stroke-linecap="round" stroke-linejoin="round"></path><path d="M47.484,90.66a1.03,1.03,0,0,1-1.015,1.208H38.581a1.03,1.03,0,0,1-1.015-1.208l.293-1.677a2.061,2.061,0,0,1,2.031-1.707h5.27a2.061,2.061,0,0,1,2.031,1.707Z" fill="#525252" stroke="#45413c" stroke-linecap="round" stroke-linejoin="round"></path><path d="M64.137 67.558 L69.347 67.558 L69.347 75.032 L64.137 75.032 Z" fill="#525252" stroke="#45413c" stroke-linecap="round" stroke-linejoin="round"></path><path d="M69.921,69.924a1.031,1.031,0,0,0,1.031-1.03V56.482a1.031,1.031,0,0,0-1.031-1.031H72.5a1.03,1.03,0,0,1,1.031,1.031V68.894a1.03,1.03,0,0,1-1.031,1.03Z" fill="#f0f0f0" stroke="#45413c" stroke-linecap="round" stroke-linejoin="round"></path><path d="M62.835,63.85a1.03,1.03,0,0,1-.884-1.019V56.482a1.03,1.03,0,0,1,1.031-1.031h6.939a1.031,1.031,0,0,1,1.031,1.031V68.894a1.031,1.031,0,0,1-1.031,1.03h-.875a1.031,1.031,0,0,1-1.021-.882A6.141,6.141,0,0,0,62.835,63.85Z" fill="#656769" stroke="#45413c" stroke-linecap="round" stroke-linejoin="round"></path><path d="M70.952,88.776V73.227a1.031,1.031,0,0,0-1.031-1.03H72.5a1.03,1.03,0,0,1,1.031,1.03V88.776A1.031,1.031,0,0,1,72.5,89.807H69.921A1.032,1.032,0,0,0,70.952,88.776Z" fill="#f0f0f0" stroke="#45413c" stroke-linecap="round" stroke-linejoin="round"></path><path d="M67.405,73.141a1.03,1.03,0,0,1,1.026-.944h1.49a1.031,1.031,0,0,1,1.031,1.03V88.776a1.032,1.032,0,0,1-1.031,1.031H58.882a1.031,1.031,0,0,1-1.031-1.031V84.323A1.029,1.029,0,0,1,58.8,83.3C64.194,82.843,66.951,78.54,67.405,73.141Z" fill="#656769" stroke="#45413c" stroke-linecap="round" stroke-linejoin="round"></path><path d="M59.98,90.66A1.03,1.03,0,0,0,61,91.868h7.888A1.03,1.03,0,0,0,69.9,90.66l-.293-1.677a2.061,2.061,0,0,0-2.031-1.707H62.3a2.061,2.061,0,0,0-2.031,1.707Z" fill="#525252" stroke="#45413c" stroke-linecap="round" stroke-linejoin="round"></path><path d="M75.711 40.556 A2.692 2.692 0 1 0 81.095 40.556 A2.692 2.692 0 1 0 75.711 40.556 Z" fill="#525252" stroke="#45413c" stroke-linecap="round" stroke-linejoin="round"></path><path d="M66.340 31.635 A3.751 3.751 0 1 0 73.842 31.635 A3.751 3.751 0 1 0 66.340 31.635 Z" fill="#525252" stroke="#45413c" stroke-linecap="round" stroke-linejoin="round"></path><path d="M79.122,39.8a1.032,1.032,0,0,0,.664-1.345L74.944,25.784a1.031,1.031,0,0,0-1.269-.626l2.218-.681a1.03,1.03,0,0,1,1.268.626L82,37.77a1.032,1.032,0,0,1-.664,1.345Z" fill="#f0f0f0" stroke="#45413c" stroke-linecap="round" stroke-linejoin="round"></path><path d="M74.225,40.221a1.031,1.031,0,0,0,1.288.683L79.122,39.8a1.032,1.032,0,0,0,.664-1.345L74.944,25.784a1.031,1.031,0,0,0-1.269-.626L70.936,26a1.03,1.03,0,0,0-.682,1.288Z" fill="#656769" stroke="#45413c" stroke-linecap="round" stroke-linejoin="round"></path><path d="M74.235 42.637 L82.424 42.637 L82.424 51.116 L74.235 51.116 Z" fill="#656769" stroke="#45413c" stroke-linecap="round" stroke-linejoin="round" transform="translate(-3.936 7.313) rotate(-5.215)"></path><path d="M72.693 46.876 A5.637 5.637 0 1 0 83.967 46.876 A5.637 5.637 0 1 0 72.693 46.876 Z" fill="#525252" stroke="#45413c" stroke-linecap="round" stroke-linejoin="round"></path><path d="M77.993,43.19a2.663,2.663,0,0,1,1.61.366l1.663-2.792a5.919,5.919,0,0,0-6.93.632l2.141,2.445A2.662,2.662,0,0,1,77.993,43.19Z" fill="#c0dceb" stroke="#45413c" stroke-linecap="round" stroke-linejoin="round"></path><path d="M82.016,46.54a2.688,2.688,0,0,1-.055.834l3.17.719a5.926,5.926,0,0,0-2.745-6.4l-1.663,2.792A2.663,2.663,0,0,1,82.016,46.54Z" fill="#c0dceb" stroke="#45413c" stroke-linecap="round" stroke-linejoin="round"></path><path d="M75.223,49.283l-2.988,1.281a5.921,5.921,0,0,0,5.98,3.561l-.3-3.236A2.669,2.669,0,0,1,75.223,49.283Z" fill="#c0dceb" stroke="#45413c" stroke-linecap="round" stroke-linejoin="round"></path><path d="M81.821,48.68a2.67,2.67,0,0,1-2.361,2.069l.3,3.236A5.922,5.922,0,0,0,84.991,49.4Z" fill="#c0dceb" stroke="#45413c" stroke-linecap="round" stroke-linejoin="round"></path><path d="M74.644,47.213a2.664,2.664,0,0,1,.9-2.251L73.4,42.517A5.924,5.924,0,0,0,71.862,49.3l2.987-1.281A2.651,2.651,0,0,1,74.644,47.213Z" fill="#c0dceb" stroke="#45413c" stroke-linecap="round" stroke-linejoin="round"></path><path d="M24.892 38.905 A2.692 2.692 0 1 0 30.276 38.905 A2.692 2.692 0 1 0 24.892 38.905 Z" fill="#525252" stroke="#45413c" stroke-linecap="round" stroke-linejoin="round"></path><path d="M33.622 31.635 A3.751 3.751 0 1 0 41.124 31.635 A3.751 3.751 0 1 0 33.622 31.635 Z" fill="#525252" stroke="#45413c" stroke-linecap="round" stroke-linejoin="round"></path><path d="M27.015,38.027a1.031,1.031,0,0,1-.41-1.442L33.658,25a1.032,1.032,0,0,1,1.362-.386l-2.058-1.071a1.031,1.031,0,0,0-1.361.386L24.548,35.514a1.031,1.031,0,0,0,.409,1.443Z" fill="#f0f0f0" stroke="#45413c" stroke-linecap="round" stroke-linejoin="round"></path><path d="M31.754,39.332a1.03,1.03,0,0,1-1.39.438l-3.349-1.743a1.031,1.031,0,0,1-.41-1.442L33.659,25a1.029,1.029,0,0,1,1.361-.386l2.541,1.322A1.031,1.031,0,0,1,38,27.329Z" fill="#656769" stroke="#45413c" stroke-linecap="round" stroke-linejoin="round"></path><path d="M15.845 38.614L20.226 38.614 23.491 40.934 30.793 40.934 30.793 44.149 25.314 44.149 23.577 46.726 15.845 46.726 15.845 38.614z" fill="#656769" stroke="#45413c" stroke-linecap="round" stroke-linejoin="round"></path><path d="M70.131,45.611A1.031,1.031,0,0,1,69.1,46.726H38.36a1.031,1.031,0,0,1-1.027-1.115l1.424-17.4a3.092,3.092,0,0,1,3.084-2.871H65.623a3.092,3.092,0,0,1,3.084,2.871Z" fill="#f0f0f0" stroke="#45413c" stroke-linecap="round" stroke-linejoin="round"></path><path d="M67.554,45.611a1.031,1.031,0,0,1-1.027,1.115H40.937a1.031,1.031,0,0,1-1.027-1.115l1.424-17.4a3.093,3.093,0,0,1,3.085-2.871H63.046a3.092,3.092,0,0,1,3.084,2.871Z" fill="#656769" stroke="#45413c" stroke-linecap="round" stroke-linejoin="round"></path><path d="M45.399 25.336H62.066V46.726H45.399z" fill="#525252" stroke="#45413c" stroke-linecap="round" stroke-linejoin="round"></path><path d="M39.211 46.726H68.253V52.266999999999996H39.211z" fill="#525252" stroke="#45413c" stroke-linecap="round" stroke-linejoin="round"></path><path d="M68.389,60.6a1.031,1.031,0,0,1-1.009.819h-27.3a1.031,1.031,0,0,1-1.009-.819L37.59,53.509A1.03,1.03,0,0,1,38.6,52.267H68.866a1.03,1.03,0,0,1,1.008,1.242Z" fill="#f0f0f0" stroke="#45413c" stroke-linecap="round" stroke-linejoin="round"></path><path d="M66.069,60.6a1.031,1.031,0,0,1-1.009.819H42.4A1.031,1.031,0,0,1,41.4,60.6l-1.486-7.087a1.031,1.031,0,0,1,1.009-1.242H66.546a1.031,1.031,0,0,1,1.009,1.242Z" fill="#656769" stroke="#45413c" stroke-linecap="round" stroke-linejoin="round"></path><path d="M40.864,58.065,41.4,60.6a1.03,1.03,0,0,0,1.009.819H65.061a1.03,1.03,0,0,0,1.008-.819l.531-2.531Z" fill="#525252" stroke="#45413c" stroke-linecap="round" stroke-linejoin="round"></path><path d="M55.386,34.342a1.03,1.03,0,0,1-1.025.914H53.1a1.031,1.031,0,0,1-1.025-.914l-.536-4.724h4.38Z" fill="#adc4d9" stroke="#45413c" stroke-linecap="round" stroke-linejoin="round"></path><path d="M40.613 18.354 A13.119 13.119 0 1 0 66.851 18.354 A13.119 13.119 0 1 0 40.613 18.354 Z" fill="#f0f0f0" stroke="#45413c" stroke-linecap="round" stroke-linejoin="round"></path><path d="M66.69,16.3a13.121,13.121,0,0,0-25.916,0l3.275,1.718a2.259,2.259,0,0,1,1.187,1.706,8.57,8.57,0,0,0,16.992,0,2.259,2.259,0,0,1,1.187-1.706Z" fill="#525252" stroke="#45413c" stroke-linecap="round" stroke-linejoin="round"></path><path d="M46.922 17.159 A1.861 1.861 0 1 0 50.644 17.159 A1.861 1.861 0 1 0 46.922 17.159 Z" fill="#4aeff7"></path><path d="M56.820 17.159 A1.861 1.861 0 1 0 60.542 17.159 A1.861 1.861 0 1 0 56.820 17.159 Z" fill="#4aeff7"></path><path d="M18.638,17.891a2.776,2.776,0,0,1,3.368,2.018c.955,3.815-3.451,3-2.353,7.744-.993-.847-3.048-4.825-3.033-6.395C16.636,19.725,17.151,18.264,18.638,17.891Z" fill="#ffffff" stroke="#45413c" stroke-linecap="round" stroke-linejoin="round"></path><path d="M26.311,44.292a4.124,4.124,0,0,1-4.1,3.7H16.83a4.123,4.123,0,0,1-4.1-3.7L11.607,33.431a1.03,1.03,0,0,1,1.026-1.137H26.406a1.03,1.03,0,0,1,1.026,1.137Z" fill="#ff6242" stroke="#45413c" stroke-linecap="round" stroke-linejoin="round"></path><path d="M23.319 39.857 L28.612 39.857 L28.612 44.137 L23.319 44.137 Z" fill="#525252" stroke="#45413c" stroke-linecap="round" stroke-linejoin="round"></path><path d="M14.971,40.414a1.032,1.032,0,0,1-1.031,1.031h-3.1a1.031,1.031,0,0,1-1.023-1.154l.267-2.219a1.031,1.031,0,0,1,1.023-.908H13.94A1.032,1.032,0,0,1,14.971,38.2Z" fill="#525252" stroke="#45413c" stroke-linecap="round" stroke-linejoin="round"></path><path d="M16.361,46.229A1.032,1.032,0,0,1,15.33,47.26H12.7a1.032,1.032,0,0,1-1.015-.848l-.4-2.219A1.03,1.03,0,0,1,12.3,42.979H15.33a1.032,1.032,0,0,1,1.031,1.031Z" fill="#525252" stroke="#45413c" stroke-linecap="round" stroke-linejoin="round"></path><path d="M31.003 86.909 A19.845 2 0 1 0 70.693 86.909 A19.845 2 0 1 0 31.003 86.909 Z" fill="#45413c" opacity=".15"></path></g></svg>