<svg xmlns="http://www.w3.org/2000/svg" version="1.1" xmlns:xlink="http://www.w3.org/1999/xlink" xmlns:svgjs="http://svgjs.com/svgjs" viewBox="0 0 200 200" width="200" height="200"><g transform="matrix(2,0,0,2,0,0)"><path d="M10.786 51.499 A40.000 40.000 0 1 0 90.786 51.499 A40.000 40.000 0 1 0 10.786 51.499 Z" fill="#e8f4fa" stroke="#daedf7" stroke-miterlimit="10"></path><path d="M13.214 58.184 A10.757 1.432 0 1 0 34.728 58.184 A10.757 1.432 0 1 0 13.214 58.184 Z" fill="#45413c" opacity=".15"></path><path d="M24.763 10.057 A1.556 1.556 0 1 0 27.875 10.057 A1.556 1.556 0 1 0 24.763 10.057 Z" fill="#ffffff" stroke="#45413c" stroke-linecap="round" stroke-linejoin="round"></path><path d="M14.847,13.088a2.407,2.407,0,0,1,2.926,3.367.52.52,0,0,0,.122.626,1.445,1.445,0,1,1-2.4,1.122.517.517,0,0,0-.4-.491,2.4,2.4,0,0,1-.243-4.624Z" fill="#ffffff" stroke="#45413c" stroke-linecap="round" stroke-linejoin="round"></path><path d="M50.375 83.665 A14.407 1.801 0 1 0 79.189 83.665 A14.407 1.801 0 1 0 50.375 83.665 Z" fill="#45413c" opacity=".15"></path><path d="M60.739,79.607h-3.6a1.2,1.2,0,0,1-1.2-1.2V65.2h4.8Z" fill="#ff6242" stroke="#45413c" stroke-linecap="round" stroke-linejoin="round"></path><path d="M60.739 65.2H67.943V79.607H60.739z" fill="#e04122" stroke="#45413c" stroke-linecap="round" stroke-linejoin="round"></path><path d="M55.937 72.403L67.943 72.403" fill="none" stroke="#45413c" stroke-linecap="round" stroke-linejoin="round"></path><path d="M63.141 65.2H67.943V79.607H63.141z" fill="#ff6242" stroke="#45413c" stroke-linecap="round" stroke-linejoin="round"></path><path d="M75.147,78.406a1.2,1.2,0,0,1-1.2,1.2h-6V65.2h7.2Z" fill="#e04122" stroke="#45413c" stroke-linecap="round" stroke-linejoin="round"></path><path d="M63.141 72.403L75.147 72.403" fill="none" stroke="#45413c" stroke-linecap="round" stroke-linejoin="round"></path><path d="M69.144 72.403 A2.401 2.401 0 1 0 73.946 72.403 A2.401 2.401 0 1 0 69.144 72.403 Z" fill="#c0dceb" stroke="#45413c" stroke-linecap="round" stroke-linejoin="round"></path><path d="M53.2,66.34A2.4,2.4,0,0,1,50.805,64c-.134-5.012,1.123-8.814,3.736-11.3a10.416,10.416,0,0,1,7.582-2.816,2.4,2.4,0,0,1-.343,4.79,5.7,5.7,0,0,0-3.973,1.547c-1.556,1.516-2.3,4.09-2.2,7.651a2.4,2.4,0,0,1-2.336,2.464Z" fill="#e0e0e0" stroke="#45413c" stroke-linecap="round" stroke-linejoin="round"></path><path d="M82.35,57.084a4.8,4.8,0,0,1-9.6,0v-6a4.8,4.8,0,1,1,9.6,0Z" fill="#ff6242"></path><path d="M82.35,51.081v3.313a4.8,4.8,0,0,0-9.6,0V51.081a4.8,4.8,0,1,1,9.6,0Z" fill="#ff866e"></path><path d="M82.35,57.084a4.8,4.8,0,0,1-9.6,0v-6a4.8,4.8,0,1,1,9.6,0Z" fill="none" stroke="#45413c" stroke-linecap="round" stroke-linejoin="round"></path><path d="M72.745 51.081H82.35000000000001V54.683H72.745z" fill="#ffe500" stroke="#45413c" stroke-linecap="round" stroke-linejoin="round"></path><path d="M77.548 51.081L81.15 54.683" fill="none" stroke="#45413c" stroke-linecap="round" stroke-linejoin="round"></path><path d="M64.341 39.075 A7.204 7.204 0 1 0 78.749 39.075 A7.204 7.204 0 1 0 64.341 39.075 Z" fill="#ff6242" stroke="#45413c" stroke-linecap="round" stroke-linejoin="round"></path><path d="M54.737 31.871 L73.946 31.871 L73.946 46.278 L54.737 46.278 Z" fill="#4acfff"></path><path d="M55.937,31.871A11.337,11.337,0,0,1,78.531,30.53a1.2,1.2,0,0,1-1.194,1.341Z" fill="#ffe500"></path><path d="M78.531,30.53a11.347,11.347,0,0,0-6.407-8.907,1.5,1.5,0,0,1-.169.136A14.853,14.853,0,0,0,70.3,23.082a11.346,11.346,0,0,1,6.206,8.789h.828a1.2,1.2,0,0,0,1.194-1.341Z" fill="#fff48c"></path><path d="M55.937,31.871A11.337,11.337,0,0,1,78.531,30.53a1.2,1.2,0,0,1-1.194,1.341Z" fill="none" stroke="#45413c" stroke-linecap="round" stroke-linejoin="round"></path><path d="M60.188,31.871s-1.081-6.485,2.422-10.96a5.791,5.791,0,0,1,4.065-2.2,12.744,12.744,0,0,1,4.907.528,1.416,1.416,0,0,1,.373,2.519c-2.04,1.4-5.022,4.293-7.516,10.112Z" fill="#ffe500"></path><path d="M66.418,21.052a11.3,11.3,0,0,1,4.948,1.134c.2-.155.4-.3.589-.427a1.416,1.416,0,0,0-.373-2.519,12.743,12.743,0,0,0-4.907-.528,5.787,5.787,0,0,0-4.065,2.2A10.2,10.2,0,0,0,61.864,22,11.3,11.3,0,0,1,66.418,21.052Z" fill="#fff48c"></path><path d="M60.188,31.871s-1.081-6.485,2.422-10.96a5.791,5.791,0,0,1,4.065-2.2,12.744,12.744,0,0,1,4.907.528,1.416,1.416,0,0,1,.373,2.519c-2.04,1.4-5.022,4.293-7.516,10.112Z" fill="none" stroke="#45413c" stroke-linecap="round" stroke-linejoin="round"></path><path d="M55.137,31.871a1.6,1.6,0,0,1-.752-3.015,19.443,19.443,0,0,1,8.722-1.787,19.451,19.451,0,0,1,8.723,1.787,1.6,1.6,0,0,1-.752,3.015Z" fill="#ffe500" stroke="#45413c" stroke-linecap="round" stroke-linejoin="round"></path><path d="M63.141 46.278H69.144V48.679H63.141z" fill="#bdbec0" stroke="#45413c" stroke-linecap="round" stroke-linejoin="round"></path><path d="M71.545,65.488H55.937V53.482a4.8,4.8,0,0,1,4.8-4.8H71.545Z" fill="#ff6242"></path><path d="M56.58,51.081H71.545v-2.4H60.739A4.8,4.8,0,0,0,56.58,51.081Z" fill="#ff866e"></path><path d="M71.545,65.488H55.937V53.482a4.8,4.8,0,0,1,4.8-4.8H71.545Z" fill="none" stroke="#45413c" stroke-linecap="round" stroke-linejoin="round"></path><path d="M75.147,65.488h-7.2V52.281a3.6,3.6,0,0,1,7.2,0Z" fill="#e04122" stroke="#45413c" stroke-linecap="round" stroke-linejoin="round"></path><path d="M55.937 54.394H67.943V57.995999999999995H55.937z" fill="#ffe500" stroke="#45413c" stroke-linecap="round" stroke-linejoin="round"></path><path d="M56.657,63.964a3.866,3.866,0,0,1-5.427,1.71L43.3,61.114a1.2,1.2,0,0,1-.489-1.551l1.611-3.434a1.2,1.2,0,0,1,1.505-.616L54.5,58.7a3.866,3.866,0,0,1,2.155,5.267Z" fill="#c0dceb" stroke="#45413c" stroke-linecap="round" stroke-linejoin="round"></path><path d="M40.54 53.089L37.991 58.524" fill="#e8f4fa" stroke="#45413c" stroke-linecap="round" stroke-linejoin="round"></path><path d="M39.639 54.425H43.241V59.227H39.639z" fill="#c0dceb" stroke="#45413c" stroke-linecap="round" stroke-linejoin="round" transform="translate(-27.606 70.214) rotate(-64.872)"></path><path d="M56.47,67.191a2.4,2.4,0,1,1,2.039-4.348,8.4,8.4,0,0,0,11.7-9.738,2.4,2.4,0,1,1,4.645-1.22A13.207,13.207,0,0,1,56.47,67.191Z" fill="#e0e0e0" stroke="#45413c" stroke-linecap="round" stroke-linejoin="round"></path><path d="M70.435,56.115a4.156,4.156,0,0,1,4.7,1.088" fill="none" stroke="#45413c" stroke-linecap="round" stroke-linejoin="round"></path><path d="M68.675,60.443a4.109,4.109,0,0,1,2.863,3.915" fill="none" stroke="#45413c" stroke-linecap="round" stroke-linejoin="round"></path><path d="M64.622,63.24a4.107,4.107,0,0,1,.3,4.885" fill="none" stroke="#45413c" stroke-linecap="round" stroke-linejoin="round"></path><path d="M48.136,64.658a.54.54,0,0,0-.219.773,5.673,5.673,0,1,0,2.858-8.347.54.54,0,0,0-.3.745l.718,1.467a.541.541,0,0,0,.646.279,2.971,2.971,0,1,1-1.555,4.54.539.539,0,0,0-.68-.176Z" fill="#656769" stroke="#45413c" stroke-linecap="round" stroke-linejoin="round"></path><path d="M67.943,81.408a1.8,1.8,0,0,1-1.8,1.8h-10.8a1.8,1.8,0,0,1,0-3.6h10.8A1.8,1.8,0,0,1,67.943,81.408Z" fill="#87898c" stroke="#45413c" stroke-linecap="round" stroke-linejoin="round"></path><path d="M75.147,81.408a1.8,1.8,0,0,1-1.8,1.8H62.54a1.8,1.8,0,0,1,0-3.6H73.346A1.8,1.8,0,0,1,75.147,81.408Z" fill="#87898c" stroke="#45413c" stroke-linecap="round" stroke-linejoin="round"></path><path d="M30.879,30.848a8.857,8.857,0,0,1-1.705,5.571.647.647,0,0,1-.862.157c-1.056-.659-3.5-2.729-4.724-8.229a22,22,0,0,1-.313-8.439.649.649,0,0,0-.97-.671A26.779,26.779,0,0,0,9.218,42,14.629,14.629,0,0,0,23.635,57.1,14.379,14.379,0,0,0,37.967,42.726c0-5.916-2.677-10.225-6.093-12.443A.65.65,0,0,0,30.879,30.848Z" fill="#ff6242"></path><path d="M37.779,40.081a18.286,18.286,0,0,1,.188,2.645A14.379,14.379,0,0,1,23.635,57.1,14.629,14.629,0,0,1,9.218,42q.029-1.273.155-2.467a14.546,14.546,0,0,0,14.262,12.71A14.37,14.37,0,0,0,37.778,40.081" fill="#e04122"></path><path d="M30.879,30.848a8.857,8.857,0,0,1-1.705,5.571.647.647,0,0,1-.862.157c-1.056-.659-3.5-2.729-4.724-8.229a22,22,0,0,1-.313-8.439.649.649,0,0,0-.97-.671A26.779,26.779,0,0,0,9.218,42,14.629,14.629,0,0,0,23.635,57.1,14.379,14.379,0,0,0,37.967,42.726c0-5.916-2.677-10.225-6.093-12.443A.65.65,0,0,0,30.879,30.848Z" fill="none" stroke="#45413c" stroke-linecap="round" stroke-linejoin="round"></path><path d="M19.067,40.066a.654.654,0,0,1,.9.684,8.18,8.18,0,0,0-.083,1.49c.113,3.257,2.146,5.248,4.426,5.169a3.584,3.584,0,0,0,3.208-2.141.656.656,0,0,1,1.243.158,7.287,7.287,0,0,1,.022,2.554,7.19,7.19,0,1,1-9.719-7.914Z" fill="#ffe500"></path><path d="M19.946,40.983q-.039-.307-.054-.633a.606.606,0,0,1,.078.4C19.959,40.826,19.956,40.906,19.946,40.983Z" fill="#ebcb00"></path><path d="M28.823,45.787a7.324,7.324,0,0,1-.037,2.193A7.191,7.191,0,0,1,14.51,46.755a7.282,7.282,0,0,1,.07-1.008,7.186,7.186,0,0,0,14.241.04" fill="#ebcb00"></path><path d="M19.067,40.066a.654.654,0,0,1,.9.684,8.18,8.18,0,0,0-.083,1.49c.113,3.257,2.146,5.248,4.426,5.169a3.584,3.584,0,0,0,3.208-2.141.656.656,0,0,1,1.243.158,7.287,7.287,0,0,1,.022,2.554,7.19,7.19,0,1,1-9.719-7.914Z" fill="none" stroke="#e04122" stroke-linecap="round" stroke-linejoin="round"></path><path d="M54.737,41.476v1.2a3.6,3.6,0,0,0,3.6,3.6H70.344a3.6,3.6,0,0,0,3.6-3.6v-7.2a3.594,3.594,0,0,0-1.2-2.685v2.685a1.97,1.97,0,0,1-.672,1.489c-.768.672-1.381,2.473-1.621,4.766a2.4,2.4,0,0,1-2.389,2.149H57.138A2.407,2.407,0,0,1,54.737,41.476Z" fill="#00b8f0"></path><path d="M70.344,31.871a1.2,1.2,0,0,1,1.2,1.2,1.986,1.986,0,0,1-.673,1.489c-.768.676-1.38,2.477-1.619,4.766a2.4,2.4,0,0,1-2.388,2.149H55.937a2.4,2.4,0,0,1-2.4-2.4v-6a1.2,1.2,0,0,1,1.2-1.2Z" fill="#ffaa54"></path><path d="M54.737 31.871 L73.946 31.871 L73.946 46.278 L54.737 46.278 Z" fill="none" stroke="#45413c" stroke-linecap="round" stroke-linejoin="round"></path><path d="M66.382,31.871l-9.605,9.605h-.84a2.408,2.408,0,0,1-2.4-2.4v-6a1.2,1.2,0,0,1,1.2-1.2Z" fill="#ffcc99"></path><path d="M70.344,31.871a1.2,1.2,0,0,1,1.2,1.2,1.986,1.986,0,0,1-.673,1.489c-.768.676-1.38,2.477-1.619,4.766a2.4,2.4,0,0,1-2.388,2.149H55.937a2.4,2.4,0,0,1-2.4-2.4v-6a1.2,1.2,0,0,1,1.2-1.2Z" fill="none" stroke="#45413c" stroke-linecap="round" stroke-linejoin="round"></path><path d="M40.448,67.493h0a2.748,2.748,0,0,1-3.881.221h0a2.749,2.749,0,0,1-.763-2.961l2.187-6.229,2.879,5.941A2.747,2.747,0,0,1,40.448,67.493Z" fill="#b8ecff"></path><path d="M40.805,64.33a2.777,2.777,0,0,1-.357.5,2.746,2.746,0,0,1-4.48-.546l-.164.465a2.748,2.748,0,1,0,5.066-.288Z" fill="#80ddff"></path><path d="M40.448,67.493h0a2.748,2.748,0,0,1-3.881.221h0a2.749,2.749,0,0,1-.763-2.961l2.187-6.229,2.879,5.941A2.747,2.747,0,0,1,40.448,67.493Z" fill="none" stroke="#45413c" stroke-linecap="round" stroke-linejoin="round"></path></g></svg>