<svg xmlns="http://www.w3.org/2000/svg" version="1.1" xmlns:xlink="http://www.w3.org/1999/xlink" xmlns:svgjs="http://svgjs.com/svgjs" viewBox="0 0 200 200" width="200" height="200"><g transform="matrix(2,0,0,2,0,0)"><path d="M10.000 48.497 A40.000 40.000 0 1 0 90.000 48.497 A40.000 40.000 0 1 0 10.000 48.497 Z" fill="#e8f4fa" stroke="#daedf7" stroke-miterlimit="10"></path><path d="M63.943 68.452L67.251 67.363 61.294 51.975 57.987 53.064 63.943 68.452z" fill="#f0f0f0" stroke="#45413c" stroke-linecap="round" stroke-linejoin="round"></path><path d="M39.717 48.666 L56.217 48.666 L56.217 66.266 L39.717 66.266 Z" fill="#ffffff" stroke="#45413c" stroke-linecap="round" stroke-linejoin="round" transform="translate(-9.567 105.352) rotate(-89.919)"></path><path d="M44.651 65.716H51.251000000000005V72.31599999999999H44.651z" fill="#daedf7" transform="translate(-21.133 116.869) rotate(-89.919)"></path><path d="M46.309 64.066H49.608999999999995V70.666H46.309z" fill="#c0dceb" transform="translate(-19.476 115.229) rotate(-89.919)"></path><path d="M44.651 65.716H51.251000000000005V72.31599999999999H44.651z" fill="none" stroke="#45413c" stroke-linecap="round" stroke-linejoin="round" transform="translate(-21.133 116.869) rotate(-89.919)"></path><path d="M44.624,88.127A40.39,40.39,0,0,0,50,88.5c.41,0,.816-.019,1.223-.031l.012-8.213-6.6-.009Z" fill="#daedf7"></path><path d="M46.288 78.598H49.587999999999994V85.198H46.288z" fill="#c0dceb" transform="translate(-34.028 129.72) rotate(-89.919)"></path><path d="M44.624,88.127A40.39,40.39,0,0,0,50,88.5c.41,0,.816-.019,1.223-.031l.012-8.213-6.6-.009Z" fill="none" stroke="#45413c" stroke-linecap="round" stroke-linejoin="round"></path><path d="M52.368,56.923a2.2,2.2,0,0,1-2.2,2.2l-4.4-.006a2.2,2.2,0,0,1-2.2-2.2l.011-7.7,8.8.013Z" fill="#00b8f0"></path><path d="M50.911 49.22L43.574 56.536 43.585 49.21 50.911 49.22z" fill="#4acfff"></path><path d="M52.368,56.923a2.2,2.2,0,0,1-2.2,2.2l-4.4-.006a2.2,2.2,0,0,1-2.2-2.2l.011-7.7,8.8.013Z" fill="none" stroke="#45413c" stroke-linecap="round" stroke-linejoin="round"></path><path d="M54.244,72.325a2.2,2.2,0,0,1,2.07,2.937,8.8,8.8,0,0,1-16.6-.024A2.2,2.2,0,0,1,41.8,72.307Z" fill="#f0f0f0" stroke="#45413c" stroke-linecap="round" stroke-linejoin="round"></path><path d="M56.785,56.929l4.4.006a3.3,3.3,0,0,0,3.3-3.3l0-1.1a3.3,3.3,0,0,0-3.3-3.3l-2.2,0a2.2,2.2,0,0,0-2.2,2.2Z" fill="#ffffff" stroke="#45413c" stroke-linecap="round" stroke-linejoin="round"></path><path d="M52.982 61.932 A1.100 1.100 0 1 0 55.182 61.932 A1.100 1.100 0 1 0 52.982 61.932 Z" fill="#bf8df2"></path><path d="M29.174,9.946A2.523,2.523,0,1,0,29,14.974a2.606,2.606,0,0,0,2.43-2.642V2.155a1.011,1.011,0,0,0-1.289-.972L20.8,4.008a1.01,1.01,0,0,0-.734.972v6.989A2.523,2.523,0,1,0,19.893,17a2.606,2.606,0,0,0,2.43-2.642V7.028l6.851-1.806Z" fill="#80ddff" stroke="#009fd9" stroke-linecap="round" stroke-linejoin="round"></path><path d="M83.372,17.017a3.011,3.011,0,1,0-.211,6,3.109,3.109,0,0,0,2.9-3.153V7.723a1.207,1.207,0,0,0-1.538-1.161L73.386,9.932a1.208,1.208,0,0,0-.876,1.161v8.338a3.01,3.01,0,1,0-.212,6,3.108,3.108,0,0,0,2.9-3.152V13.536l8.173-2.155Z" fill="#80ddff" stroke="#009fd9" stroke-linecap="round" stroke-linejoin="round"></path><path d="M45.776 44.832H50.176V49.232H45.776z" fill="#daedf7" transform="translate(0.876 94.941) rotate(-89.919)"></path><path d="M46.878 43.732H49.078V48.132H46.878z" fill="#c0dceb" transform="translate(1.978 93.844) rotate(-89.919)"></path><path d="M45.776 44.832H50.176V49.232H45.776z" fill="none" stroke="#45413c" stroke-linecap="round" stroke-linejoin="round" transform="translate(0.876 94.941) rotate(-89.919)"></path><path d="M36.047 17.564 L60.247 17.564 L60.247 48.364 L36.047 48.364 Z" fill="#00b8f0" transform="translate(15.113 81.063) rotate(-89.917)"></path><path d="M36.047 17.564 L60.247 17.564 L60.247 48.364 L36.047 48.364 Z" fill="none" stroke="#45413c" stroke-linecap="round" stroke-linejoin="round" transform="translate(15.113 81.063) rotate(-89.917)"></path><path d="M60.649,20.9,36.436,45.047h-.407a3.3,3.3,0,0,1-3.3-3.3l.025-17.6a3.3,3.3,0,0,1,3.305-3.3l24.2.035C60.4,20.882,60.517,20.893,60.649,20.9Z" fill="#4acfff"></path><path d="M43.984,36.271a1.652,1.652,0,0,1-1.65-1.653,2.006,2.006,0,0,0-.589-1.656,2.48,2.48,0,0,0-.511,1.655,1.652,1.652,0,0,1-1.65,1.647h0a1.666,1.666,0,0,1-1.65-1.652c.005-2.773,1.7-4.945,3.853-4.945s3.852,2.181,3.847,4.956a1.652,1.652,0,0,1-1.65,1.648Z" fill="#ffffff" stroke="#009fd9" stroke-miterlimit="10"></path><path d="M57.184,36.271a1.652,1.652,0,0,1-1.65-1.653,2.006,2.006,0,0,0-.589-1.656,2.48,2.48,0,0,0-.511,1.655,1.652,1.652,0,0,1-1.65,1.647h0a1.666,1.666,0,0,1-1.65-1.652c.005-2.773,1.7-4.945,3.853-4.945s3.852,2.181,3.847,4.956a1.652,1.652,0,0,1-1.65,1.648Z" fill="#ffffff" stroke="#009fd9" stroke-miterlimit="10"></path><path d="M57.185,36.239a1.6,1.6,0,0,1-1.6-1.6,2.013,2.013,0,0,0-.623-1.7,2.251,2.251,0,0,0-.576,1.7,1.6,1.6,0,1,1-3.2,0c0-2.744,1.674-4.894,3.8-4.894a3.421,3.421,0,0,1,2.746,1.479,5.721,5.721,0,0,1,1.051,3.427,1.6,1.6,0,0,1-1.6,1.6Z" fill="#ffffff"></path><path d="M54.991,30.236c1.851,0,3.3,1.938,3.293,4.4a1.1,1.1,0,0,1-1.1,1.1h0a1.1,1.1,0,0,1-1.1-1.1c0-1.343-.648-2.2-1.1-2.2h0c-.448,0-1.1.856-1.1,2.2a1.1,1.1,0,0,1-1.1,1.1h0a1.1,1.1,0,0,1-1.1-1.1c0-2.465,1.455-4.395,3.3-4.395h0m0-1h0c-2.408,0-4.3,2.369-4.3,5.394a2.1,2.1,0,0,0,4.2.006,2.662,2.662,0,0,1,.1-.745,2.6,2.6,0,0,1,.1.746,2.1,2.1,0,0,0,4.2.005c.005-3.027-1.88-5.4-4.292-5.406Z" fill="#009fd9"></path><path d="M63.559,24.186l-.025,17.6a3.3,3.3,0,0,1-3.3,3.3l-24.2-.035a3.3,3.3,0,0,1-3.3-3.3l.025-17.6a3.3,3.3,0,0,1,3.305-3.3l24.2.035c.132,0,.253.012.385.023A3.3,3.3,0,0,1,63.559,24.186Z" fill="none" stroke="#45413c" stroke-linecap="round" stroke-linejoin="round"></path><path d="M63.031 60.848H75.17V65.248H63.031z" fill="#ffffff" stroke="#45413c" stroke-linecap="round" stroke-linejoin="round" transform="translate(-24.436 62.157) rotate(-41.832)"></path><path d="M60.552 67.342 A3.300 3.300 0 1 0 67.152 67.342 A3.300 3.300 0 1 0 60.552 67.342 Z" fill="#ffffff" stroke="#45413c" stroke-linecap="round" stroke-linejoin="round"></path><path d="M76.945 36.054L85.542 44.568" fill="none" stroke="#45413c" stroke-linecap="round" stroke-linejoin="round"></path><path d="M73.067 38.406L83.228 48.468" fill="none" stroke="#45413c" stroke-linecap="round" stroke-linejoin="round"></path><path d="M40.445,97.029a2.2,2.2,0,0,0,4.084.709l13.125-25.01a4.4,4.4,0,0,0-.688-5.371l-3.313-3.281a4.4,4.4,0,0,0-5.378-.636L23.394,76.808a2.2,2.2,0,0,0,.749,4.076l13.141,2.125a1.1,1.1,0,0,1,.909.9Z" fill="#00b8f0" stroke="#45413c" stroke-miterlimit="10"></path><path d="M42.151,79a2.2,2.2,0,0,1,.016,3.111h0a2.2,2.2,0,0,0-.614,1.87l.515,3.484a2.2,2.2,0,0,0,4.089.767L54.5,71.848a2.2,2.2,0,0,0-.363-2.651L51.907,66.99a2.2,2.2,0,0,0-2.752-.278L39.739,72.87a2.2,2.2,0,0,0-.344,3.4Z" fill="#ffffff"></path><path d="M38.259 78.244L42.948 82.888" fill="none" stroke="#45413c" stroke-linecap="round" stroke-linejoin="round"></path><path d="M40.581 75.9L45.27 80.544" fill="none" stroke="#45413c" stroke-linecap="round" stroke-linejoin="round"></path><path d="M47.979,77.808a1.648,1.648,0,0,1-2.333.011L43.3,75.5a1.65,1.65,0,0,1,2.322-2.344l2.345,2.322A1.649,1.649,0,0,1,47.979,77.808Z" fill="#656769" stroke="#45413c" stroke-miterlimit="10"></path><path d="M51.849,73.9a1.648,1.648,0,0,1-2.333.011l-2.345-2.322a1.65,1.65,0,0,1,2.322-2.344l2.345,2.322A1.648,1.648,0,0,1,51.849,73.9Z" fill="#656769" stroke="#45413c" stroke-miterlimit="10"></path><path d="M85.6,38.534a1.4,1.4,0,0,0-1.78-2.062L73.028,41.934a1.65,1.65,0,0,0-.874,1.157l-.6,3.1,3.127,3.1,3.246-.666a1.653,1.653,0,0,0,1.016-.664Z" fill="#ff6242"></path><path d="M40.445,97.029a2.2,2.2,0,0,0,4.084.709l13.125-25.01a4.4,4.4,0,0,0-.688-5.371l-3.313-3.281a4.4,4.4,0,0,0-5.378-.636L23.394,76.808a2.2,2.2,0,0,0,.749,4.076l13.141,2.125a1.1,1.1,0,0,1,.909.9Z" fill="#ff6242"></path><path d="M54.3,64.721a4.311,4.311,0,0,0-2.593.618L26.839,78.7a2.2,2.2,0,0,0-1.067,2.3.787.787,0,0,0,.045.143l-1.673-.267a2.2,2.2,0,0,1-.746-4.077L48.27,63.442a4.392,4.392,0,0,1,5.382.634Z" fill="#ff866e"></path><path d="M40.445,97.029a2.2,2.2,0,0,0,4.084.709l13.125-25.01a4.4,4.4,0,0,0-.688-5.371l-3.313-3.281a4.4,4.4,0,0,0-5.378-.636L23.394,76.808a2.2,2.2,0,0,0,.749,4.076l13.141,2.125a1.1,1.1,0,0,1,.909.9Z" fill="none" stroke="#45413c" stroke-miterlimit="10"></path><path d="M42.151,79a2.2,2.2,0,0,1,.016,3.111h0a2.2,2.2,0,0,0-.614,1.87l.515,3.484a2.2,2.2,0,0,0,4.089.767L54.5,71.848a2.2,2.2,0,0,0-.363-2.651L51.907,66.99a2.2,2.2,0,0,0-2.752-.278L39.739,72.87a2.2,2.2,0,0,0-.344,3.4Z" fill="#ffffff"></path><path d="M38.259 78.244L42.948 82.888" fill="none" stroke="#45413c" stroke-linecap="round" stroke-linejoin="round"></path><path d="M40.581 75.9L45.27 80.544" fill="none" stroke="#45413c" stroke-linecap="round" stroke-linejoin="round"></path><path d="M47.979,77.808a1.648,1.648,0,0,1-2.333.011L43.3,75.5a1.65,1.65,0,0,1,2.322-2.344l2.345,2.322A1.649,1.649,0,0,1,47.979,77.808Z" fill="#bdbec0" stroke="#45413c" stroke-miterlimit="10"></path><path d="M51.849,73.9a1.648,1.648,0,0,1-2.333.011l-2.345-2.322a1.65,1.65,0,0,1,2.322-2.344l2.345,2.322A1.648,1.648,0,0,1,51.849,73.9Z" fill="#bdbec0" stroke="#45413c" stroke-miterlimit="10"></path><path d="M56.106,69.56a1.1,1.1,0,0,1-1.576.028l-3.085-3.055a1.1,1.1,0,0,1,.013-1.575L71.549,46.192l3.127,3.1Z" fill="#87898c"></path><path d="M44.334 86.807 A1.100 1.100 0 1 0 46.534 86.807 A1.100 1.100 0 1 0 44.334 86.807 Z" fill="#45413c"></path><path d="M45.968 83.499 A1.100 1.100 0 1 0 48.168 83.499 A1.100 1.100 0 1 0 45.968 83.499 Z" fill="#45413c"></path><path d="M52.164,67.245l-.719-.712a1.1,1.1,0,0,1,.013-1.575L71.549,46.192l1.535,1.519Z" fill="#bdbec0"></path><path d="M56.106,69.56a1.1,1.1,0,0,1-1.576.028l-3.085-3.055a1.1,1.1,0,0,1,.013-1.575L71.549,46.192l3.127,3.1Z" fill="none" stroke="#45413c" stroke-miterlimit="10"></path><path d="M73.215,47.841l-1.666-1.649.6-3.1a1.65,1.65,0,0,1,.874-1.157L83.82,36.472a1.4,1.4,0,0,1,1.78,2.062l-.455.644-10.4,5.259a1.9,1.9,0,0,0-.995,1.314l-.429,2.191" fill="#ff866e"></path><path d="M85.6,38.534a1.4,1.4,0,0,0-1.78-2.062L73.028,41.934a1.65,1.65,0,0,0-.874,1.157l-.6,3.1,3.127,3.1,3.246-.666a1.653,1.653,0,0,0,1.016-.664Z" fill="none" stroke="#45413c" stroke-miterlimit="10"></path><path d="M22.612 57.098H39.111999999999995V61.498H22.612z" fill="#ffffff" stroke="#45413c" stroke-linecap="round" stroke-linejoin="round" transform="translate(-32.502 37.996) rotate(-43.923)"></path><path d="M39.162,56.919l-4.4-.006a3.3,3.3,0,0,1-3.3-3.3v-1.1a3.3,3.3,0,0,1,3.305-3.3l2.2,0a2.2,2.2,0,0,1,2.2,2.2Z" fill="#ffffff" stroke="#45413c" stroke-linecap="round" stroke-linejoin="round"></path><path d="M27.582 63.594L25.048 67.192 33.806 71.316 36.34 67.719 27.582 63.594z" fill="#ffffff" stroke="#45413c" stroke-linecap="round" stroke-linejoin="round"></path><path d="M44.319,76.46a.55.55,0,0,1-.242.781,5.775,5.775,0,1,1,2.2-8.71.55.55,0,0,1-.158.8l-1.428.853a.549.549,0,0,1-.7-.121A3.025,3.025,0,1,0,42.788,74.8a.548.548,0,0,1,.678.228Z" fill="#656769" stroke="#45413c" stroke-linecap="round" stroke-linejoin="round"></path><path d="M22.182 64.846 A3.300 3.300 0 1 0 28.782 64.846 A3.300 3.300 0 1 0 22.182 64.846 Z" fill="#ffffff" stroke="#45413c" stroke-linecap="round" stroke-linejoin="round"></path><path d="M33.058 70.288 A3.300 3.300 0 1 0 39.658 70.288 A3.300 3.300 0 1 0 33.058 70.288 Z" fill="#ffffff" stroke="#45413c" stroke-linecap="round" stroke-linejoin="round"></path><path d="M76.629,55.218a5.754,5.754,0,0,1-2.5,5.456,5.6,5.6,0,0,1-2.559.953,5.768,5.768,0,0,1-6.3-4.46.525.525,0,0,1,.079-.434.592.592,0,0,1,.394-.234l1.643-.192a.553.553,0,0,1,.6.4,3.026,3.026,0,0,0,3,2.213c.089,0,.178,0,.271-.012a3.026,3.026,0,0,0-.24-6.029.551.551,0,0,1-.52-.491l-.2-1.649a.57.57,0,0,1,.138-.427.555.555,0,0,1,.407-.189A5.781,5.781,0,0,1,76.629,55.218Z" fill="#656769" stroke="#45413c" stroke-linecap="round" stroke-linejoin="round"></path><path d="M69.695 58.966 A3.300 3.300 0 1 0 76.295 58.966 A3.300 3.300 0 1 0 69.695 58.966 Z" fill="#ffffff" stroke="#45413c" stroke-linecap="round" stroke-linejoin="round"></path></g></svg>