<svg xmlns="http://www.w3.org/2000/svg" version="1.1" xmlns:xlink="http://www.w3.org/1999/xlink" xmlns:svgjs="http://svgjs.com/svgjs" viewBox="0 0 200 200" width="200" height="200"><g transform="matrix(2,0,0,2,0,0)"><path d="M90,54.2A40,40,0,1,0,13.564,70.7H86.436A39.829,39.829,0,0,0,90,54.2Z" fill="#c7f0ff"></path><path d="M13.564,70.7a40,40,0,0,0,72.872,0Z" fill="#e8f4fa"></path><path d="M11 70.697L89 70.697" fill="none" stroke="#45413c" stroke-linecap="round" stroke-linejoin="round"></path><path d="M6.5 70.697L9 70.697" fill="none" stroke="#45413c" stroke-linecap="round" stroke-linejoin="round"></path><path d="M91 70.697L93.5 70.697" fill="none" stroke="#45413c" stroke-linecap="round" stroke-linejoin="round"></path><path d="M87.52,78.774c0,1.24-17.435,2.245-41.895,2.245S8.518,80.014,8.518,78.774,21.165,76.53,45.625,76.53,87.52,77.535,87.52,78.774Z" fill="#45413c" opacity=".15"></path><path d="M29.678,70.627H43.49a10.142,10.142,0,0,0,2.654-4.04,2.534,2.534,0,0,0-2.389-3.38H29.414a2.534,2.534,0,0,0-2.39,3.379A10.138,10.138,0,0,0,29.678,70.627Z" fill="#ffffff" stroke="#45413c" stroke-linecap="round" stroke-linejoin="round"></path><path d="M38.732 47.392H57.739000000000004V52.461000000000006H38.732z" fill="#ffffff" stroke="#45413c" stroke-linecap="round" stroke-linejoin="round" transform="translate(-13.209 82.235) rotate(-73.723)"></path><path d="M46.638,46.616h5.068a3.8,3.8,0,0,0,3.8-3.8V41.547a3.8,3.8,0,0,0-3.8-3.8H49.172a2.533,2.533,0,0,0-2.534,2.534Z" fill="#ffffff" stroke="#45413c" stroke-linecap="round" stroke-linejoin="round"></path><path d="M50.057 56.418H55.126000000000005V70.402H50.057z" fill="#ffffff" stroke="#45413c" stroke-linecap="round" stroke-linejoin="round" transform="translate(-26.514 86.41) rotate(-66.54)"></path><path d="M69.439,73.648a.632.632,0,0,1-.311.889A6.653,6.653,0,1,1,72.019,64.6a.634.634,0,0,1-.215.918l-1.679.922a.634.634,0,0,1-.807-.168,3.485,3.485,0,1,0-1.573,5.4.632.632,0,0,1,.771.291Z" fill="#656769"></path><path d="M69.439,73.648a.632.632,0,0,1-.311.889A6.653,6.653,0,1,1,72.019,64.6a.634.634,0,0,1-.215.918l-1.679.922a.634.634,0,0,1-.807-.168,3.485,3.485,0,1,0-1.573,5.4.632.632,0,0,1,.771.291Z" fill="none" stroke="#45413c" stroke-linecap="round" stroke-linejoin="round"></path><path d="M56.692 67.264 A3.801 3.801 0 1 0 64.294 67.264 A3.801 3.801 0 1 0 56.692 67.264 Z" fill="#f0f0f0" stroke="#45413c" stroke-linecap="round" stroke-linejoin="round"></path><path d="M42.287 60.273 A3.801 3.801 0 1 0 49.889 60.273 A3.801 3.801 0 1 0 42.287 60.273 Z" fill="#ffffff" stroke="#45413c" stroke-linecap="round" stroke-linejoin="round"></path><path d="M33.966 33.554H39.035000000000004V37.746H33.966z" fill="#daedf7"></path><path d="M33.966 33.554H39.035000000000004V35.211H33.966z" fill="#c0dceb"></path><path d="M33.966 33.554H39.035000000000004V37.746H33.966z" fill="none" stroke="#45413c" stroke-linecap="round" stroke-linejoin="round"></path><path d="M26.363 37.746 L46.638 37.746 L46.638 56.753 L26.363 56.753 Z" fill="#ffffff" stroke="#45413c" stroke-linecap="round" stroke-linejoin="round"></path><path d="M32.699 56.753H40.302V63.207H32.699z" fill="#daedf7"></path><path d="M32.699 56.753H40.302V59.405H32.699z" fill="#c0dceb"></path><path d="M32.699 56.753H40.302V63.207H32.699z" fill="none" stroke="#45413c" stroke-linecap="round" stroke-linejoin="round"></path><path d="M41.569,46.616a2.535,2.535,0,0,1-2.534,2.534H33.966a2.535,2.535,0,0,1-2.534-2.534v-8.87H41.569Z" fill="#00b8f0"></path><path d="M41.569,46.616a2.535,2.535,0,0,1-2.534,2.534H33.966a2.535,2.535,0,0,1-2.534-2.534v-8.87H41.569Z" fill="#e8f4fa" stroke="#45413c" stroke-linecap="round" stroke-linejoin="round"></path><path d="M8.157 43.983H27.164V49.052H8.157z" fill="#ffffff" stroke="#45413c" stroke-linecap="round" stroke-linejoin="round" transform="translate(-27.119 24.827) rotate(-43.366)"></path><path d="M26.363,46.616H21.3a3.8,3.8,0,0,1-3.8-3.8V41.547a3.8,3.8,0,0,1,3.8-3.8h2.534a2.533,2.533,0,0,1,2.534,2.534Z" fill="#ffffff" stroke="#45413c" stroke-linecap="round" stroke-linejoin="round"></path><path d="M13.99 51.464H19.059V65.448H13.99z" fill="#ffffff" stroke="#45413c" stroke-linecap="round" stroke-linejoin="round" transform="translate(-41.723 41.208) rotate(-57.721)"></path><path d="M24.705,67.027a3.491,3.491,0,0,0,3.617,2.734.633.633,0,0,1,.657.5l.409,1.872a.633.633,0,0,1-.55.765A6.662,6.662,0,0,1,21.61,67.7" fill="#c0dceb" stroke="#45413c" stroke-linecap="round" stroke-linejoin="round"></path><path d="M33.223,69.8l-.23,5.062-3.347-3.805L24.58,56.65a1.079,1.079,0,0,1,.505-1.422l1.788-.629a1.08,1.08,0,0,1,1.284.794Z" fill="#656769" stroke="#45413c" stroke-linecap="round" stroke-linejoin="round"></path><path d="M24.705,67.027a3.485,3.485,0,0,1,6.654-2,.632.632,0,0,0,.726.39L33.957,65a.635.635,0,0,0,.466-.819A6.653,6.653,0,0,0,21.61,67.7" fill="#c0dceb" stroke="#45413c" stroke-linecap="round" stroke-linejoin="round"></path><path d="M18.814 63.477 A3.801 3.801 0 1 0 26.416 63.477 A3.801 3.801 0 1 0 18.814 63.477 Z" fill="#ffffff" stroke="#45413c" stroke-linecap="round" stroke-linejoin="round"></path><path d="M6.778 54.359 A3.801 3.801 0 1 0 14.380 54.359 A3.801 3.801 0 1 0 6.778 54.359 Z" fill="#ffffff" stroke="#45413c" stroke-linecap="round" stroke-linejoin="round"></path><path d="M52.707,74.086h-3.5L56.685,50.9a1.565,1.565,0,0,1,1.49-1.085h2.362Z" fill="#e8f4fa" stroke="#45413c" stroke-linecap="round" stroke-linejoin="round"></path><path d="M83.244,74.086H52.707l7.83-24.273H88.923a1.566,1.566,0,0,1,1.491,2.046Z" fill="#c0dceb"></path><path d="M60.537,49.813H88.923a1.566,1.566,0,0,1,1.491,2.046l-.941,2.918H58.936Z" fill="#daedf7"></path><path d="M83.244,74.086h-32.1V78H80.112a3.132,3.132,0,0,0,3.132-3.132Z" fill="#adc4d9" stroke="#45413c" stroke-linecap="round" stroke-linejoin="round"></path><path d="M51.141,74.086H36.971a.783.783,0,0,0-.783.783A3.131,3.131,0,0,0,39.32,78H51.141Z" fill="#e8f4fa" stroke="#45413c" stroke-linecap="round" stroke-linejoin="round"></path><path d="M74.383,61.085a1.74,1.74,0,0,1,.83-1.465,1.8,1.8,0,0,0-1.407-.761c-.6-.061-1.168.352-1.472.352s-.773-.344-1.27-.335a1.886,1.886,0,0,0-1.592.964,4,4,0,0,0,.488,3.876c.323.468.708.993,1.214.974.488-.02.672-.315,1.261-.315s.754.315,1.269.305.856-.476,1.177-.944a4.218,4.218,0,0,0,.533-1.095A1.7,1.7,0,0,1,74.383,61.085Z" fill="#f0f0f0" stroke="#45413c" stroke-linecap="round" stroke-linejoin="round"></path><path d="M73.065 56.86L73.771 56.154" fill="none" stroke="#45413c" stroke-linecap="round" stroke-linejoin="round"></path><path d="M83.244,74.086H52.707l7.83-24.273H88.923a1.566,1.566,0,0,1,1.491,2.046Z" fill="none" stroke="#45413c" stroke-linecap="round" stroke-linejoin="round"></path><path d="M33.535,73.616H14.319a2.193,2.193,0,0,0-2.192,2.193V78h23.6V75.809A2.192,2.192,0,0,0,33.535,73.616Z" fill="#656769" stroke="#45413c" stroke-linecap="round" stroke-linejoin="round"></path><path d="M42.4,73.616H23.184a2.193,2.193,0,0,0-2.193,2.193V78h23.6V75.809A2.193,2.193,0,0,0,42.4,73.616Z" fill="#87898c" stroke="#45413c" stroke-linecap="round" stroke-linejoin="round"></path><path d="M29.726,33.554H22.841a4,4,0,0,1-4-4V9.8a4,4,0,0,1,4-4h6.885Z" fill="#f0f0f0" stroke="#45413c" stroke-linecap="round" stroke-linejoin="round"></path><path d="M24.255 5.804 L55.243 5.804 L55.243 33.554 L24.255 33.554 Z" fill="#009fd9"></path><path d="M54.179,7.292A4.319,4.319,0,0,0,50.912,5.8H28.586a4.331,4.331,0,0,0-4.331,4.331V29.222a4.331,4.331,0,0,0,3.709,4.286Z" fill="#00b8f0"></path><path d="M24.255 5.804 L55.243 5.804 L55.243 33.554 L24.255 33.554 Z" fill="none" stroke="#45413c" stroke-linecap="round" stroke-linejoin="round"></path><path d="M43.628,10.313a10.131,10.131,0,0,0-7.758,0l3.878,9.365Z" fill="#009fd9"></path><path d="M35.869,10.313A10.13,10.13,0,0,0,30.383,15.8l9.365,3.879Z" fill="#00dfeb"></path><path d="M30.383,15.8a10.129,10.129,0,0,0,0,7.757l9.365-3.879Z" fill="#6dd627"></path><path d="M30.383,23.558a10.124,10.124,0,0,0,5.486,5.485l3.879-9.365Z" fill="#ffe500"></path><path d="M35.87,29.044a10.131,10.131,0,0,0,7.758,0l-3.88-9.366Z" fill="#ff8a14"></path><path d="M43.628,29.043a10.124,10.124,0,0,0,5.486-5.485l-9.366-3.88Z" fill="#ff6242"></path><path d="M49.114,23.557a10.129,10.129,0,0,0,0-7.757l-9.366,3.878Z" fill="#ff6196"></path><path d="M49.114,15.8a10.13,10.13,0,0,0-5.486-5.486l-3.88,9.365Z" fill="#9f5ae5"></path><path d="M36.632 19.678 A3.117 3.117 0 1 0 42.866 19.678 A3.117 3.117 0 1 0 36.632 19.678 Z" fill="#b8ecff" stroke="#00658a" stroke-linecap="round" stroke-linejoin="round"></path><path d="M49.114,23.558a10.131,10.131,0,1,1,.772-3.88A10.114,10.114,0,0,1,49.114,23.558Z" fill="none" stroke="#00658a" stroke-linecap="round" stroke-linejoin="round"></path></g></svg>