<svg xmlns="http://www.w3.org/2000/svg" version="1.1" xmlns:xlink="http://www.w3.org/1999/xlink" xmlns:svgjs="http://svgjs.com/svgjs" viewBox="0 0 200 200" width="200" height="200"><g transform="matrix(2,0,0,2,0,0)"><path d="M10.000 57.766 A40.000 40.000 0 1 0 90.000 57.766 A40.000 40.000 0 1 0 10.000 57.766 Z" fill="#e8f4fa" stroke="#daedf7" stroke-miterlimit="10"></path><path d="M34.342 89.009 A12.723 1.817 0 1 0 59.788 89.009 A12.723 1.817 0 1 0 34.342 89.009 Z" fill="#45413c" opacity=".15"></path><path d="M30.757,80.227a.568.568,0,0,0,.725-.428,5.944,5.944,0,1,0-8.2,4.267.567.567,0,0,0,.766-.348l.515-1.633a.566.566,0,0,0-.288-.678,3.114,3.114,0,1,1,4.461-2.32.563.563,0,0,0,.389.624Z" fill="#656769"></path><path d="M30.757,80.227a.568.568,0,0,0,.725-.428,5.944,5.944,0,1,0-8.2,4.267.567.567,0,0,0,.766-.348l.515-1.633a.566.566,0,0,0-.288-.678,3.114,3.114,0,1,1,4.461-2.32.563.563,0,0,0,.389.624Z" fill="none" stroke="#45413c" stroke-linecap="round" stroke-linejoin="round"></path><path d="M27.26,47.84c-.056.037-.111.076-.165.118-5.042,3.967-12.721,14.871-5.684,27.747a2.4,2.4,0,1,0,4.214-2.3c-6.827-12.49,3.982-21.3,4.444-21.674A2.4,2.4,0,0,0,27.26,47.84Z" fill="#c0dceb" stroke="#45413c" stroke-linecap="round" stroke-linejoin="round"></path><path d="M19.482,71.158a4.533,4.533,0,0,0,4.489-1.752" fill="none" stroke="#45413c" stroke-linecap="round" stroke-linejoin="round"></path><path d="M18.712,62.893a4.531,4.531,0,0,0,4.68,1.443" fill="none" stroke="#45413c" stroke-linecap="round" stroke-linejoin="round"></path><path d="M20.926,55.659a4.537,4.537,0,0,0,4.127,2.487" fill="none" stroke="#45413c" stroke-linecap="round" stroke-linejoin="round"></path><path d="M32.7,55.429l-2.8.243a2,2,0,0,1-2.166-1.818L27.2,47.7a2,2,0,0,1,1.819-2.166l2.8-.244Z" fill="#525252" stroke="#45413c" stroke-linecap="round" stroke-linejoin="round"></path><path d="M63.012,53.9c.067,0,.134,0,.2-.006,6.4-.479,18.854-5.244,20.2-19.856a2.4,2.4,0,0,0-4.782-.44c-1.3,14.174-15.191,15.46-15.781,15.508a2.4,2.4,0,0,0,.163,4.794Z" fill="#c0dceb" stroke="#45413c" stroke-linecap="round" stroke-linejoin="round"></path><path d="M82.476,38.885a4.537,4.537,0,0,0-4.7-1.05" fill="none" stroke="#45413c" stroke-linecap="round" stroke-linejoin="round"></path><path d="M78.5,46.173a4.532,4.532,0,0,0-3.08-3.808" fill="none" stroke="#45413c" stroke-linecap="round" stroke-linejoin="round"></path><path d="M72.63,50.943a4.538,4.538,0,0,0-2.037-4.368" fill="none" stroke="#45413c" stroke-linecap="round" stroke-linejoin="round"></path><path d="M61.428,55.429l2.8.243a2,2,0,0,0,2.166-1.818l.536-6.155a2,2,0,0,0-1.819-2.166l-2.8-.244Z" fill="#525252" stroke="#45413c" stroke-linecap="round" stroke-linejoin="round"></path><path d="M62.513,64.949a15.53,15.53,0,0,1-30.9,0l-1.57-15.233a17.109,17.109,0,1,1,34.037,0Z" fill="#87898c" stroke="#45413c" stroke-linecap="round" stroke-linejoin="round"></path><path d="M40.465 68.244H42.81400000000001V80.865H40.465z" fill="#adc4d9" stroke="#45413c" stroke-linecap="round" stroke-linejoin="round"></path><path d="M51.315 68.244H53.664V80.865H51.315z" fill="#adc4d9" stroke="#45413c" stroke-linecap="round" stroke-linejoin="round"></path><path d="M38.815 77.660 L55.315 77.660 L55.315 83.562 L38.815 83.562 Z" fill="#adc4d9" stroke="#45413c" stroke-linecap="round" stroke-linejoin="round"></path><path d="M51.315,84.228a4.251,4.251,0,1,1-8.5,0V76.994a4.251,4.251,0,1,1,8.5,0Z" fill="#525252" stroke="#45413c" stroke-linecap="round" stroke-linejoin="round"></path><path d="M64.083,49.717a17.109,17.109,0,1,0-34.037,0l1.57,15.232A15.471,15.471,0,0,0,34.8,72.882a2.2,2.2,0,0,0,3.233.263,13.349,13.349,0,0,1,9.035-3.259A13.351,13.351,0,0,1,56.1,73.145a2.2,2.2,0,0,0,3.232-.263,15.471,15.471,0,0,0,3.181-7.933Z" fill="#ffffff" stroke="#45413c" stroke-linecap="round" stroke-linejoin="round"></path><path d="M58.989,35.694a17.108,17.108,0,0,0-23.848,0V54.871a2.2,2.2,0,0,0,2.2,2.2H56.789a2.2,2.2,0,0,0,2.2-2.2Z" fill="#00b8f0"></path><path d="M57.383,34.316a17.108,17.108,0,0,0-22.242,1.378V54.871a2.191,2.191,0,0,0,.409,1.277Z" fill="#4acfff"></path><path d="M58.989,35.694a17.108,17.108,0,0,0-23.848,0V54.871a2.2,2.2,0,0,0,2.2,2.2H56.789a2.2,2.2,0,0,0,2.2-2.2Z" fill="none" stroke="#45413c" stroke-linecap="round" stroke-linejoin="round"></path><path d="M76.412,32.149a5.944,5.944,0,0,0,10.674-5.194.567.567,0,0,0-.8-.275l-1.5.829a.566.566,0,0,0-.258.69,3.113,3.113,0,0,1-5.647,2.579" fill="#656769" stroke="#45413c" stroke-linecap="round" stroke-linejoin="round"></path><path d="M59.22,16.535a.8.8,0,0,0,.907.148,2.135,2.135,0,0,1,1.159-.224,3.14,3.14,0,0,1,2.131,1.69c2.52,4,9.172,3.565,9.454,3.545A.907.907,0,0,0,73.7,20.8a.76.76,0,0,0-.821-.778c-.061,0-6.013.385-8.052-2.849a4.506,4.506,0,0,0-3.269-2.383,4.136,4.136,0,0,0-2.921.953.95.95,0,0,0-.108.112Z" fill="#f0f0f0" stroke="#45413c" stroke-linecap="round" stroke-linejoin="round"></path><path d="M59.524,12.013a.55.55,0,0,1,.66-.4c1.52.361,5.824,1.611,7.02,4.448.9,2.135,4.866,3.306,6.319,3.578a.845.845,0,0,1,.652,1.067.994.994,0,0,1-1.114.737c-.249-.047-6.119-1.17-7.548-4.562-.8-1.906-4.053-3.045-5.774-3.46a.551.551,0,0,1-.4-.671Z" fill="#f0f0f0" stroke="#45413c" stroke-linecap="round" stroke-linejoin="round"></path><path d="M67.289,6.263a.55.55,0,0,0-.49.577c.083,1.512.543,5.835,3.092,7.377,1.917,1.159,2.36,5.143,2.369,6.58a.8.8,0,0,0,.922.775,1.018,1.018,0,0,0,.912-.973c0-.247-.064-6.058-3.109-7.9-1.7-1.029-2.242-4.279-2.348-6a.55.55,0,0,0-.609-.513Z" fill="#f0f0f0" stroke="#45413c" stroke-linecap="round" stroke-linejoin="round"></path><path d="M64.954,8.232a.549.549,0,0,1,.235.619,2.438,2.438,0,0,0,.007,1.486,3.454,3.454,0,0,0,2.351,1.854c4.923,1.684,6.148,8.919,6.2,9.226A1,1,0,0,1,73,22.53a.836.836,0,0,1-1.041-.683c-.011-.066-1.116-6.538-5.1-7.9a4.963,4.963,0,0,1-3.384-2.9,4.558,4.558,0,0,1,.28-3.371l.024-.043a.122.122,0,0,1,.074-.055.124.124,0,0,1,.092.015Z" fill="#f0f0f0" stroke="#45413c" stroke-linecap="round" stroke-linejoin="round"></path><path d="M72.308,23.037l2.649-2.6L86.463,32.172a1.856,1.856,0,1,1-2.65,2.6Z" fill="#dea47a" stroke="#45413c" stroke-linecap="round" stroke-linejoin="round"></path><path d="M73.291 21.12H77.002V25.444000000000003H73.291z" fill="#ff6242" stroke="#45413c" stroke-linecap="round" stroke-linejoin="round" transform="translate(5.19 59.271) rotate(-44.438)"></path><path d="M75.15,20.251c2.549-4.158-3.707-6.714-1.207-13.462a.55.55,0,0,0-.388-.727L71.747,5.63a.55.55,0,0,0-.606.263c-3.017,5.315,2.617,7.036,2.492,15.845Z" fill="#f0f0f0" stroke="#45413c" stroke-linecap="round" stroke-linejoin="round"></path><path d="M72.191,23.152c-3.87,2.359-5.882-3.087-11.933-1a.8.8,0,0,1-1.045-.611L59,20.354a.8.8,0,0,1,.279-.761c3.387-2.777,6.387,2.4,14.357,2.145Z" fill="#f0f0f0" stroke="#45413c" stroke-linecap="round" stroke-linejoin="round"></path><path d="M78.888,30.778a3.117,3.117,0,0,1,.815-3.967.566.566,0,0,0,.148-.722l-.83-1.5a.566.566,0,0,0-.82-.189,5.952,5.952,0,0,0-1.789,7.747" fill="#656769" stroke="#45413c" stroke-linecap="round" stroke-linejoin="round"></path><path d="M42.123,10.857a3.076,3.076,0,0,1,5.484,1.465,3.69,3.69,0,0,1,.687.42,3.772,3.772,0,0,1,.414.371,3.2,3.2,0,1,1-.822,5.932,3.2,3.2,0,1,1-5.72-1.671,3.258,3.258,0,0,1,.42-.448,3.707,3.707,0,0,1-.157-1.972A3.075,3.075,0,0,1,42.123,10.857Z" fill="#ffffff" stroke="#45413c" stroke-linecap="round" stroke-linejoin="round"></path><path d="M80.691,10A2.981,2.981,0,0,1,79.75,5.9c.039-.063.081-.122.124-.181a2.265,2.265,0,1,1,4.111-.677,2.969,2.969,0,0,1,1.175,1.7,2.264,2.264,0,1,1-1.778,3.512A2.975,2.975,0,0,1,80.691,10Z" fill="#ffffff" stroke="#45413c" stroke-linecap="round" stroke-linejoin="round"></path></g></svg>