<svg xmlns="http://www.w3.org/2000/svg" version="1.1" xmlns:xlink="http://www.w3.org/1999/xlink" xmlns:svgjs="http://svgjs.com/svgjs" viewBox="0 0 200 200" width="200" height="200"><g transform="matrix(2,0,0,2,0,0)"><path d="M10.000 50.000 A40.000 40.000 0 1 0 90.000 50.000 A40.000 40.000 0 1 0 10.000 50.000 Z" fill="#e8f4fa" stroke="#daedf7" stroke-miterlimit="10"></path><path d="M43.5,33.661h0A5.557,5.557,0,0,1,35.769,36.2L21.407,27.4l1.587-3.436L24.41,20.9l16.008,5.233A5.556,5.556,0,0,1,43.5,33.661Z" fill="#e8f4fa"></path><path d="M43.5,33.661h0A5.557,5.557,0,0,1,35.769,36.2L21.407,27.4l1.587-3.436.1-.207Z" fill="#c0dceb"></path><path d="M43.5,33.661h0A5.557,5.557,0,0,1,35.769,36.2L21.407,27.4l1.587-3.436L24.41,20.9l16.008,5.233A5.556,5.556,0,0,1,43.5,33.661Z" fill="none" stroke="#45413c" stroke-linecap="round" stroke-linejoin="round"></path><path d="M20.906 28.486L24.911 19.817" fill="none" stroke="#45413c" stroke-linecap="round" stroke-linejoin="round"></path><path d="M27.326 31.027L31.008 23.057" fill="none" stroke="#45413c" stroke-linecap="round" stroke-linejoin="round"></path><path d="M23.349,37.4h0a2.733,2.733,0,0,1-3.858.219h0a2.732,2.732,0,0,1-.759-2.944l2.174-6.193,2.863,5.907A2.732,2.732,0,0,1,23.349,37.4Z" fill="#80ddff"></path><path d="M23.769,34.392l-.015-.03a2.732,2.732,0,0,1-5.021.315v0a2.732,2.732,0,1,0,5.037-.287Z" fill="#4acfff"></path><path d="M23.349,37.4h0a2.733,2.733,0,0,1-3.858.219h0a2.732,2.732,0,0,1-.759-2.944l2.174-6.193,2.863,5.907A2.732,2.732,0,0,1,23.349,37.4Z" fill="none" stroke="#45413c" stroke-linecap="round" stroke-linejoin="round"></path><path d="M80.716,45.861a7.163,7.163,0,0,1-14.325,0V31.537a7.163,7.163,0,0,1,14.325,0Z" fill="#ff6242"></path><path d="M73.554,24.374a7.162,7.162,0,0,0-7.162,7.162v3.8a7.162,7.162,0,1,1,14.324,0v-3.8A7.163,7.163,0,0,0,73.554,24.374Z" fill="#ff866e"></path><path d="M19.321,56.523a5.9,5.9,0,0,1-.858-4.493,1.212,1.212,0,0,1,1.42-.94,1.185,1.185,0,0,1,.932,1.407,3.644,3.644,0,0,0,2.8,4.223A3.639,3.639,0,0,0,27.872,53.9a3.643,3.643,0,0,0-2.8-4.222,1.186,1.186,0,0,1-.932-1.408,1.213,1.213,0,0,1,1.421-.94,5.927,5.927,0,0,1,4.659,7.037,6.063,6.063,0,0,1-7.1,4.7A5.9,5.9,0,0,1,19.321,56.523Z" fill="#656769" stroke="#45413c" stroke-linecap="round" stroke-linejoin="round"></path><path d="M23.359,57.714a3.014,3.014,0,0,1,4.748-3.678c1.9,2.088,3.813,3.145,5.7,3.141a7.941,7.941,0,0,0,5.109-2.423,3.027,3.027,0,0,1,4.236-.235,2.97,2.97,0,0,1,.232,4.2,13.838,13.838,0,0,1-9.528,4.444c-3.68.037-7.117-1.676-10.217-5.09A2.917,2.917,0,0,1,23.359,57.714Z" fill="#daedf7" stroke="#45413c" stroke-linecap="round" stroke-linejoin="round"></path><path d="M80.716,45.861a7.163,7.163,0,0,1-14.325,0V31.537a7.163,7.163,0,0,1,14.325,0Z" fill="none" stroke="#45413c" stroke-linecap="round" stroke-linejoin="round"></path><path d="M66.391 32.73H80.715V39.891999999999996H66.391z" fill="#ffffff" stroke="#45413c" stroke-linecap="round" stroke-linejoin="round"></path><path d="M40.126,79.284a2.992,2.992,0,0,1-2.956-2.637c-.138-1.11-1.223-11.008,2.961-16.638a2.966,2.966,0,0,1,4.177-.6,3.029,3.029,0,0,1,.6,4.216c-2.329,3.135-2.1,9.928-1.813,12.281A3.006,3.006,0,0,1,40.5,79.26,2.924,2.924,0,0,1,40.126,79.284Z" fill="#daedf7" stroke="#45413c" stroke-linecap="round" stroke-linejoin="round"></path><path d="M68.779,44.667v5.968a17.905,17.905,0,1,1-35.81,0V44.667Z" fill="#ff6242"></path><path d="M68.779,45.861v4.774a17.905,17.905,0,1,1-35.81,0V45.861a17.9,17.9,0,1,0,35.81,0Z" fill="#e04122"></path><path d="M32.969 49.442L68.779 49.442" fill="none" stroke="#ffffff" stroke-linecap="round" stroke-linejoin="round"></path><path d="M68.779,44.667v5.968a17.905,17.905,0,1,1-35.81,0V44.667Z" fill="none" stroke="#45413c" stroke-linecap="round" stroke-linejoin="round"></path><path d="M59.7,61.657a2.388,2.388,0,0,1,3.071,1.66A53.575,53.575,0,0,1,64.6,76.273a2.984,2.984,0,1,1-5.968,0,47.7,47.7,0,0,0-1.625-11.368,2.385,2.385,0,0,1,1.547-2.863Z" fill="#daedf7" stroke="#45413c" stroke-linecap="round" stroke-linejoin="round"></path><path d="M33.724 80.024 A15.518 1.791 0 1 0 64.760 80.024 A15.518 1.791 0 1 0 33.724 80.024 Z" fill="#45413c" opacity=".15"></path><path d="M50.874,25.568a17.912,17.912,0,0,1,17.9,17.9v1.194H32.969V43.473A17.912,17.912,0,0,1,50.874,25.568Z" fill="#e5f8ff"></path><path d="M50.874,25.568a17.912,17.912,0,0,1,17.9,17.9v1.194H32.969V43.473A17.912,17.912,0,0,1,50.874,25.568Z" fill="none" stroke="#45413c" stroke-linecap="round" stroke-linejoin="round"></path><path d="M42.518,78.09a1.194,1.194,0,0,1-1.194,1.194H34.162a1.194,1.194,0,0,1,0-2.388h7.162A1.194,1.194,0,0,1,42.518,78.09Z" fill="#656769" stroke="#45413c" stroke-linecap="round" stroke-linejoin="round"></path><path d="M64,78.09a1.194,1.194,0,0,1-1.194,1.194H55.648a1.194,1.194,0,0,1,0-2.388H62.81A1.194,1.194,0,0,1,64,78.09Z" fill="#656769" stroke="#45413c" stroke-linecap="round" stroke-linejoin="round"></path><path d="M80.374,64.992a1.206,1.206,0,0,1-1.54-1.817,3.626,3.626,0,0,0-.368-5.088,3.583,3.583,0,0,0-2.609-.89A3.536,3.536,0,0,0,73.4,58.414,3.624,3.624,0,0,0,73.77,63.5a1.206,1.206,0,0,1,.123,1.7,1.189,1.189,0,0,1-1.688.11,6.04,6.04,0,0,1-.614-8.479A5.883,5.883,0,0,1,75.683,54.8a5.972,5.972,0,0,1,4.348,1.484,6.041,6.041,0,0,1,.614,8.479A1.2,1.2,0,0,1,80.374,64.992Z" fill="#656769" stroke="#45413c" stroke-linecap="round" stroke-linejoin="round"></path><path d="M77.263,60.377a2.957,2.957,0,0,1-1.058.4,3.023,3.023,0,0,1-3.473-2.456c-.5-2.8-1.558-4.734-3.147-5.749A7.813,7.813,0,0,0,64,51.865a3.026,3.026,0,0,1-3.691-2.09,2.971,2.971,0,0,1,2.014-3.691,13.613,13.613,0,0,1,10.366,1.378c3.12,1.959,5.114,5.272,5.929,9.847A2.986,2.986,0,0,1,77.263,60.377Z" fill="#daedf7" stroke="#45413c" stroke-linecap="round" stroke-linejoin="round"></path><path d="M69.143,52.319a4.18,4.18,0,0,1,4.7-4.032" fill="none" stroke="#45413c" stroke-linecap="round" stroke-linejoin="round"></path><path d="M71.978,55.637a4.183,4.183,0,0,1,5.775-1.627" fill="none" stroke="#45413c" stroke-linecap="round" stroke-linejoin="round"></path><path d="M30.047,55.805a4.183,4.183,0,0,1-4.028,4.5" fill="none" stroke="#45413c" stroke-linecap="round" stroke-linejoin="round"></path><path d="M65.535,51.649a4.178,4.178,0,0,1,.179-5.743c.1-.1.2-.187.3-.271" fill="none" stroke="#45413c" stroke-linecap="round" stroke-linejoin="round"></path><path d="M37.286 67.673L43.046 69.75" fill="none" stroke="#45413c" stroke-linecap="round" stroke-linejoin="round"></path><path d="M36.943 72.749L42.918 72.749" fill="none" stroke="#45413c" stroke-linecap="round" stroke-linejoin="round"></path><path d="M57.993 69.457L63.725 67.875" fill="none" stroke="#45413c" stroke-linecap="round" stroke-linejoin="round"></path><path d="M58.446 72.749L64.441 72.749" fill="none" stroke="#45413c" stroke-linecap="round" stroke-linejoin="round"></path><path d="M36.660 56.055 A6.565 6.565 0 1 0 49.790 56.055 A6.565 6.565 0 1 0 36.660 56.055 Z" fill="#e04122"></path><path d="M36.660 53.668 A6.565 6.565 0 1 0 49.790 53.668 A6.565 6.565 0 1 0 36.660 53.668 Z" fill="#f0f0f0"></path><path d="M49.673,54.91a6.565,6.565,0,1,0-12.9,0,6.562,6.562,0,0,1,12.9,0Z" fill="#ffffff"></path><path d="M36.660 53.668 A6.565 6.565 0 1 0 49.790 53.668 A6.565 6.565 0 1 0 36.660 53.668 Z" fill="none" stroke="#45413c" stroke-linecap="round" stroke-linejoin="round"></path><path d="M41.567,52.013a2.011,2.011,0,0,0,.388,1.267.148.148,0,0,0,.2.036,2.79,2.79,0,0,0,1.075-1.872,5.007,5.007,0,0,0,.071-1.92.147.147,0,0,1,.221-.152,6.09,6.09,0,0,1,2.976,5.176,3.327,3.327,0,0,1-3.279,3.437,3.375,3.375,0,0,1-1.874-6.1A.148.148,0,0,1,41.567,52.013Z" fill="#ff6242" stroke="#45413c" stroke-linecap="round" stroke-linejoin="round"></path><path d="M68.779,43.473a17.824,17.824,0,0,0-3.993-11.267,3.892,3.892,0,0,0-1.915,1.149,3.553,3.553,0,0,1-2.387,1.194A3.273,3.273,0,0,1,58.1,33.355a3.278,3.278,0,0,0-2.388-1.194,3.557,3.557,0,0,0-2.387,1.194,3.556,3.556,0,0,1-2.388,1.194,3.277,3.277,0,0,1-2.387-1.194,3.277,3.277,0,0,0-2.387-1.194,3.56,3.56,0,0,0-2.388,1.194,3.553,3.553,0,0,1-2.387,1.194A3.275,3.275,0,0,1,39,33.355a3.432,3.432,0,0,0-2.02-1.17,17.829,17.829,0,0,0-4.009,11.288v1.194h35.81Z" fill="#80ddff"></path><path d="M36.607,34.693a3.278,3.278,0,0,1,2.388,1.193,3.271,3.271,0,0,0,2.387,1.194,3.557,3.557,0,0,0,2.387-1.194,3.564,3.564,0,0,1,2.388-1.193,3.278,3.278,0,0,1,2.387,1.193,3.274,3.274,0,0,0,2.388,1.194,3.56,3.56,0,0,0,2.387-1.194,3.558,3.558,0,0,1,2.387-1.193,3.278,3.278,0,0,1,2.388,1.193,3.269,3.269,0,0,0,2.387,1.194,3.557,3.557,0,0,0,2.387-1.194,3.561,3.561,0,0,1,2.388-1.193,2.8,2.8,0,0,1,1.438.393,17.951,17.951,0,0,0-1.908-2.88,3.892,3.892,0,0,0-1.915,1.149,3.553,3.553,0,0,1-2.387,1.194A3.273,3.273,0,0,1,58.1,33.355a3.278,3.278,0,0,0-2.388-1.194,3.557,3.557,0,0,0-2.387,1.194,3.556,3.556,0,0,1-2.388,1.194,3.277,3.277,0,0,1-2.387-1.194,3.277,3.277,0,0,0-2.387-1.194,3.56,3.56,0,0,0-2.388,1.194,3.553,3.553,0,0,1-2.387,1.194A3.275,3.275,0,0,1,39,33.355a3.432,3.432,0,0,0-2.02-1.17,18.01,18.01,0,0,0-2.005,3.056A2.892,2.892,0,0,1,36.607,34.693Z" fill="#b8ecff"></path><path d="M68.779,43.473a17.824,17.824,0,0,0-3.993-11.267,3.892,3.892,0,0,0-1.915,1.149,3.553,3.553,0,0,1-2.387,1.194A3.273,3.273,0,0,1,58.1,33.355a3.278,3.278,0,0,0-2.388-1.194,3.557,3.557,0,0,0-2.387,1.194,3.556,3.556,0,0,1-2.388,1.194,3.277,3.277,0,0,1-2.387-1.194,3.277,3.277,0,0,0-2.387-1.194,3.56,3.56,0,0,0-2.388,1.194,3.553,3.553,0,0,1-2.387,1.194A3.275,3.275,0,0,1,39,33.355a3.432,3.432,0,0,0-2.02-1.17,17.829,17.829,0,0,0-4.009,11.288v1.194h35.81Z" fill="none" stroke="#45413c" stroke-linecap="round" stroke-linejoin="round"></path><path d="M38.340 39.296 A1.791 1.791 0 1 0 41.922 39.296 A1.791 1.791 0 1 0 38.340 39.296 Z" fill="#ffffff" stroke="#45413c" stroke-miterlimit="10"></path><path d="M49.083 39.296 A1.791 1.791 0 1 0 52.665 39.296 A1.791 1.791 0 1 0 49.083 39.296 Z" fill="#ffffff" stroke="#45413c" stroke-miterlimit="10"></path></g></svg>