<svg xmlns="http://www.w3.org/2000/svg" version="1.1" xmlns:xlink="http://www.w3.org/1999/xlink" xmlns:svgjs="http://svgjs.com/svgjs" viewBox="0 0 200 200" width="200" height="200"><g transform="matrix(2,0,0,2,0,0)"><path d="M10.000 55.919 A40.000 40.000 0 1 0 90.000 55.919 A40.000 40.000 0 1 0 10.000 55.919 Z" fill="#e8f4fa" stroke="#daedf7" stroke-miterlimit="10"></path><path d="M72.733,23.444a.63.63,0,0,0-.367-1.177l-9.3,2.274a.63.63,0,0,0-.38,1.082l2.485,2.391a.631.631,0,0,1-.131,1.006L60.572,31.5a.631.631,0,0,0,.441,1.168l10.61-2.337a.63.63,0,0,0,.3-1.07l-2.9-2.792a.629.629,0,0,1,.127-1Z" fill="#ffe500" stroke="#b58b00" stroke-linejoin="round"></path><path d="M27.51,23.444a.63.63,0,0,1,.367-1.177l9.3,2.274a.631.631,0,0,1,.38,1.082l-2.485,2.391A.631.631,0,0,0,35.2,29.02L39.671,31.5a.631.631,0,0,1-.441,1.168L28.62,30.329a.63.63,0,0,1-.3-1.07l2.9-2.792a.629.629,0,0,0-.127-1Z" fill="#ffe500" stroke="#b58b00" stroke-linejoin="round"></path><path d="M47.458 71.335H52.832V76.70899999999999H47.458z" fill="#daedf7"></path><path d="M47.458 71.335H52.832V74.02199999999999H47.458z" fill="#c0dceb"></path><path d="M47.458 71.335H52.832V76.70899999999999H47.458z" fill="none" stroke="#45413c" stroke-linecap="round" stroke-linejoin="round"></path><path d="M56.863,76.709H43.428A4.03,4.03,0,0,0,39.4,80.74V93.987a39.953,39.953,0,0,0,21.495-.082V80.74A4.03,4.03,0,0,0,56.863,76.709Z" fill="#ffffff"></path><path d="M60.893,93.905V80.74a4.03,4.03,0,0,0-4.03-4.031H43.428A4.03,4.03,0,0,0,39.4,80.74V93.987" fill="none" stroke="#45413c" stroke-linecap="round" stroke-linejoin="round"></path><path d="M44.771,86.114A2.687,2.687,0,0,0,47.458,88.8h5.374a2.687,2.687,0,0,0,2.687-2.687V76.709H44.771Z" fill="#00b8f0"></path><path d="M44.771,76.709v9.405a2.608,2.608,0,0,0,.033.32l9.724-9.725Z" fill="#4acfff"></path><path d="M44.771,86.114A2.687,2.687,0,0,0,47.458,88.8h5.374a2.687,2.687,0,0,0,2.687-2.687V76.709H44.771Z" fill="none" stroke="#45413c" stroke-linecap="round" stroke-linejoin="round"></path><path d="M31.508,90.885A39.739,39.739,0,0,0,36.875,93.2L36.9,81.05l-5.374-.019Z" fill="#e0e0e0"></path><path d="M36.847 93.195L36.896 81.05 31.523 81.031 31.49 90.876" fill="none" stroke="#45413c" stroke-linecap="round" stroke-linejoin="round"></path><path d="M39.4,86.114H34.024a4.031,4.031,0,0,1-4.031-4.031V80.74a4.031,4.031,0,0,1,4.031-4.031h2.687A2.687,2.687,0,0,1,39.4,79.4Z" fill="#ffffff" stroke="#45413c" stroke-linecap="round" stroke-linejoin="round"></path><path d="M68.768,81.031l-5.374.019.022,12.056a39.809,39.809,0,0,0,5.367-2.37Z" fill="#e0e0e0"></path><path d="M68.8 90.727L68.768 81.031 63.394 81.05 63.443 93.097" fill="none" stroke="#45413c" stroke-linecap="round" stroke-linejoin="round"></path><path d="M60.893,86.114h5.374A4.031,4.031,0,0,0,70.3,82.083V80.74a4.031,4.031,0,0,0-4.031-4.031H63.58A2.687,2.687,0,0,0,60.893,79.4Z" fill="#ffffff" stroke="#45413c" stroke-linecap="round" stroke-linejoin="round"></path><path d="M51.825 43.083L48.466 43.083 49.586 31.887 50.705 31.887 51.825 43.083z" fill="#e8f4fa"></path><path d="M49.006,37.686a3.362,3.362,0,0,0,2.279,0l-.58-5.8h-1.12Z" fill="#c0dceb"></path><path d="M51.825 43.083L48.466 43.083 49.586 31.887 50.705 31.887 51.825 43.083z" fill="none" stroke="#45413c" stroke-linecap="round" stroke-linejoin="round"></path><path d="M46.786 31.887 A3.359 3.359 0 1 0 53.504 31.887 A3.359 3.359 0 1 0 46.786 31.887 Z" fill="#ff6242"></path><path d="M50.145,31.109a3.36,3.36,0,0,1,3.1,2.068,3.358,3.358,0,1,0-6.2,0A3.361,3.361,0,0,1,50.145,31.109Z" fill="#ff866e"></path><path d="M46.786 31.887 A3.359 3.359 0 1 0 53.504 31.887 A3.359 3.359 0 1 0 46.786 31.887 Z" fill="none" stroke="#45413c" stroke-linecap="round" stroke-linejoin="round"></path><path d="M31.337 42.062 L68.955 42.062 L68.955 71.619 L31.337 71.619 Z" fill="#00b8f0"></path><path d="M35.864,71.618h-.5a4.025,4.025,0,0,1-4.031-4.03v-21.5a4.025,4.025,0,0,1,4.03-4.031H64.924c.161,0,.309.014.47.027Z" fill="#4acfff"></path><path d="M31.337 42.062 L68.955 42.062 L68.955 71.619 L31.337 71.619 Z" fill="none" stroke="#45413c" stroke-linecap="round" stroke-linejoin="round"></path><path d="M40.368,51.2a.728.728,0,0,1,1.3.013l1.292,2.679a.727.727,0,0,0,.544.4l2.94.455A.728.728,0,0,1,46.841,56l-2.149,2.057a.726.726,0,0,0-.215.642l.476,2.937a.727.727,0,0,1-1.063.757l-2.621-1.408a.727.727,0,0,0-.677-.006l-2.646,1.36a.728.728,0,0,1-1.049-.777l.53-2.928a.725.725,0,0,0-.2-.645l-2.111-2.1a.727.727,0,0,1,.415-1.237l2.948-.4a.726.726,0,0,0,.551-.393Z" fill="#ffe500"></path><path d="M36.991,61.036l.436-2.405a.725.725,0,0,0-.2-.645l-2.111-2.1a.727.727,0,0,1,.415-1.237l2.948-.4a.726.726,0,0,0,.551-.393L40.368,51.2a.728.728,0,0,1,1.3.013l1.292,2.679a.727.727,0,0,0,.544.4Z" fill="#fff48c"></path><path d="M40.368,51.2a.728.728,0,0,1,1.3.013l1.292,2.679a.727.727,0,0,0,.544.4l2.94.455A.728.728,0,0,1,46.841,56l-2.149,2.057a.726.726,0,0,0-.215.642l.476,2.937a.727.727,0,0,1-1.063.757l-2.621-1.408a.727.727,0,0,0-.677-.006l-2.646,1.36a.728.728,0,0,1-1.049-.777l.53-2.928a.725.725,0,0,0-.2-.645l-2.111-2.1a.727.727,0,0,1,.415-1.237l2.948-.4a.726.726,0,0,0,.551-.393Z" fill="none" stroke="#45413c" stroke-linecap="round" stroke-linejoin="round"></path><path d="M60,51.215l1.292,2.679a.727.727,0,0,0,.544.4l2.94.455A.728.728,0,0,1,65.169,56L63.02,58.054a.73.73,0,0,0-.216.642l.477,2.937a.727.727,0,0,1-1.063.757L59.6,60.982a.727.727,0,0,0-.677-.006l-2.646,1.36a.728.728,0,0,1-1.049-.777l.53-2.928a.725.725,0,0,0-.2-.645l-2.111-2.1a.727.727,0,0,1,.415-1.237l2.948-.4a.726.726,0,0,0,.551-.393L58.7,51.2A.728.728,0,0,1,60,51.215Z" fill="#ffe500"></path><path d="M55.319,61.036l.436-2.405a.725.725,0,0,0-.2-.645l-2.111-2.1a.727.727,0,0,1,.415-1.237l2.948-.4a.726.726,0,0,0,.551-.393L58.7,51.2A.728.728,0,0,1,60,51.215l1.292,2.679a.727.727,0,0,0,.544.4Z" fill="#fff48c"></path><path d="M60,51.215l1.292,2.679a.727.727,0,0,0,.544.4l2.94.455A.728.728,0,0,1,65.169,56L63.02,58.054a.73.73,0,0,0-.216.642l.477,2.937a.727.727,0,0,1-1.063.757L59.6,60.982a.727.727,0,0,0-.677-.006l-2.646,1.36a.728.728,0,0,1-1.049-.777l.53-2.928a.725.725,0,0,0-.2-.645l-2.111-2.1a.727.727,0,0,1,.415-1.237l2.948-.4a.726.726,0,0,0,.551-.393L58.7,51.2A.728.728,0,0,1,60,51.215Z" fill="none" stroke="#45413c" stroke-linecap="round" stroke-linejoin="round"></path><path d="M55.81,5.406a1.261,1.261,0,0,0-1.128-1.825h-4.47a1.26,1.26,0,0,0-1.11.664l-5,9.28a1.26,1.26,0,0,0,1.11,1.859h5.152l-2.022,8.762a.631.631,0,0,0,1.126.511L58,12.844a1.261,1.261,0,0,0-1.022-2H53.091Z" fill="#ffe500"></path><path d="M48.236,5.853h5.538a1.26,1.26,0,0,1,1.253,1.119l.783-1.566a1.261,1.261,0,0,0-1.128-1.825h-4.47a1.261,1.261,0,0,0-1.11.664l-5,9.28h0Z" fill="#fff48c"></path><path d="M58.1,11.531a1.261,1.261,0,0,0-1.122-.687H53.318l-.373.748a1.053,1.053,0,0,0,.942,1.524h2.185A1.264,1.264,0,0,1,57.2,13.8c.016.032.031.064.044.1L58,12.844A1.262,1.262,0,0,0,58.1,11.531Z" fill="#fff48c"></path><path d="M55.81,5.406a1.261,1.261,0,0,0-1.128-1.825h-4.47a1.26,1.26,0,0,0-1.11.664l-5,9.28a1.26,1.26,0,0,0,1.11,1.859h5.152l-2.022,8.762a.631.631,0,0,0,1.126.511L58,12.844a1.261,1.261,0,0,0-1.022-2H53.091Z" fill="none" stroke="#b58b00" stroke-linecap="round" stroke-linejoin="round"></path></g></svg>