<svg xmlns="http://www.w3.org/2000/svg" version="1.1" xmlns:xlink="http://www.w3.org/1999/xlink" xmlns:svgjs="http://svgjs.com/svgjs" viewBox="0 0 200 200" width="200" height="200"><g transform="matrix(2,0,0,2,0,0)"><path d="M10.000 50.000 A40.000 40.000 0 1 0 90.000 50.000 A40.000 40.000 0 1 0 10.000 50.000 Z" fill="#e8f4fa" stroke="#daedf7" stroke-miterlimit="10"></path><path d="M44.151,70.72a1.625,1.625,0,0,0,.806-.474,14.712,14.712,0,0,0-.129-20.19,1.634,1.634,0,0,0-2.36,2.261,11.443,11.443,0,0,1,.1,15.7,1.633,1.633,0,0,0,1.586,2.7Z" fill="#daedf7" stroke="#45413c" stroke-linecap="round" stroke-linejoin="round"></path><path d="M41.64,54.339a5.257,5.257,0,0,0,.689-9.992,1.225,1.225,0,0,0-.906,2.277,2.807,2.807,0,1,1-2.273,5.128,1.225,1.225,0,1,0-1.082,2.2A5.269,5.269,0,0,0,41.64,54.339Z" fill="#daedf7" stroke="#45413c" stroke-linecap="round" stroke-linejoin="round"></path><path d="M42.116 51.149 A1.634 1.634 0 1 0 45.384 51.149 A1.634 1.634 0 1 0 42.116 51.149 Z" fill="#f0f0f0" stroke="#45413c" stroke-linecap="round" stroke-linejoin="round"></path><path d="M18.846 28.844 L46.294 28.844 L46.294 56.292 L18.846 56.292 Z" fill="#6dd627" transform="translate(-6.74 6.132) rotate(-9.752)"></path><path d="M45.436,36.406l-.953-5.548a4.2,4.2,0,0,0-4.853-3.429L20.86,30.655a4.2,4.2,0,0,0-3.429,4.852l.954,5.548h0A4.205,4.205,0,0,1,21.819,36.2L40.59,32.976a4.214,4.214,0,0,1,4.852,3.429" fill="#9ceb60"></path><path d="M44.09,65.965a2.453,2.453,0,0,0,2.758,1.247A2.4,2.4,0,0,0,47.2,67.1" fill="none" stroke="#45413c" stroke-linecap="round" stroke-linejoin="round"></path><path d="M17.848 79.956 A16.338 2.334 0 1 0 50.524 79.956 A16.338 2.334 0 1 0 17.848 79.956 Z" fill="#45413c" opacity=".15"></path><path d="M47.686,63.877a2.447,2.447,0,0,1,2.451,2.451V76.947H18.278V66.328a2.447,2.447,0,0,1,2.451-2.451Z" fill="#ffaa54"></path><path d="M18.278 66.328H37.884V76.94800000000001H18.278z" fill="#ff8a14"></path><path d="M47.686,63.877a2.447,2.447,0,0,1,2.451,2.451v2.45a2.447,2.447,0,0,0-2.451-2.45h-9.8a2.447,2.447,0,0,0-2.451-2.451Z" fill="#ffcc99"></path><path d="M47.686,63.877a2.447,2.447,0,0,1,2.451,2.451V76.947H18.278V66.328a2.447,2.447,0,0,1,2.451-2.451Z" fill="none" stroke="#45413c" stroke-linecap="round" stroke-linejoin="round"></path><path d="M18.278,66.328h13.07a2.453,2.453,0,0,0,1.733-.718l1.733-1.733" fill="none" stroke="#45413c" stroke-linecap="round" stroke-linejoin="round"></path><path d="M50.137,76.947v1.634a.82.82,0,0,1-.817.817H19.1a.819.819,0,0,1-.817-.817V76.947Z" fill="#656769"></path><path d="M37.884,76.947V79.4H19.1a.819.819,0,0,1-.817-.817V76.947Z" fill="#525252"></path><path d="M50.137,76.947v1.634a.82.82,0,0,1-.817.817H19.1a.819.819,0,0,1-.817-.817V76.947Z" fill="none" stroke="#45413c" stroke-linecap="round" stroke-linejoin="round"></path><path d="M34.606,37.055a1.166,1.166,0,0,1-.952,1.348l-3.5.6a1.167,1.167,0,0,1-1.348-.953L27.347,29.54l5.8-1Z" fill="#ffffff" stroke="#45413c" stroke-linecap="round" stroke-linejoin="round"></path><path d="M18.846 28.844 L46.294 28.844 L46.294 56.292 L18.846 56.292 Z" fill="none" stroke="#45413c" stroke-linecap="round" stroke-linejoin="round" transform="translate(-6.74 6.132) rotate(-9.752)"></path><path d="M36.657 46.201 L44.499 46.201 L44.499 51.102 L36.657 51.102 Z" fill="#ffffff" transform="translate(-7.654 7.576) rotate(-9.752)"></path><path d="M27.568,71.54a1.624,1.624,0,0,1-.91-.21,14.711,14.711,0,0,1-5.944-19.3,1.634,1.634,0,0,1,2.93,1.448A11.444,11.444,0,0,0,28.27,68.489a1.633,1.633,0,0,1-.7,3.051Z" fill="#daedf7" stroke="#45413c" stroke-linecap="round" stroke-linejoin="round"></path><path d="M25.041,55.161a5.258,5.258,0,0,1-3.66-9.323,1.226,1.226,0,0,1,1.549,1.9,2.806,2.806,0,1,0,3.709,4.207,1.225,1.225,0,0,1,1.692,1.772A5.265,5.265,0,0,1,25.041,55.161Z" fill="#daedf7" stroke="#45413c" stroke-linecap="round" stroke-linejoin="round"></path><path d="M20.436 52.753 A1.634 1.634 0 1 0 23.704 52.753 A1.634 1.634 0 1 0 20.436 52.753 Z" fill="#f0f0f0" stroke="#45413c" stroke-linecap="round" stroke-linejoin="round"></path><path d="M20.611 72.863 A1.751 1.751 0 1 0 24.113 72.863 A1.751 1.751 0 1 0 20.611 72.863 Z" fill="#6dd627" stroke="#45413c" stroke-linecap="round" stroke-linejoin="round"></path><path d="M40.334 68.778 L47.686 68.778 L47.686 73.679 L40.334 73.679 Z" fill="#525252" stroke="#45413c" stroke-linecap="round" stroke-linejoin="round"></path><path d="M45.177 70.937L45.177 71.521" fill="none" stroke="#4acfff" stroke-linecap="round" stroke-linejoin="round"></path><path d="M42.843 70.937L42.843 71.521" fill="none" stroke="#4acfff" stroke-linecap="round" stroke-linejoin="round"></path><path d="M35.433,63.877a2.447,2.447,0,0,1,2.451,2.451V79.4" fill="none" stroke="#45413c" stroke-linecap="round" stroke-linejoin="round"></path><path d="M58.5,55.256a1.629,1.629,0,0,1-.806-.474,14.712,14.712,0,0,1,.129-20.19,1.634,1.634,0,0,1,2.36,2.261,11.445,11.445,0,0,0-.1,15.7,1.634,1.634,0,0,1-1.587,2.7Z" fill="#daedf7" stroke="#45413c" stroke-linecap="round" stroke-linejoin="round"></path><path d="M61.007,38.875a5.257,5.257,0,0,1-.689-9.992,1.225,1.225,0,0,1,.906,2.277A2.807,2.807,0,1,0,63.5,36.288a1.225,1.225,0,1,1,1.082,2.2A5.269,5.269,0,0,1,61.007,38.875Z" fill="#daedf7" stroke="#45413c" stroke-linecap="round" stroke-linejoin="round"></path><path d="M57.263 35.685 A1.634 1.634 0 1 0 60.531 35.685 A1.634 1.634 0 1 0 57.263 35.685 Z" fill="#f0f0f0" stroke="#45413c" stroke-linecap="round" stroke-linejoin="round"></path><path d="M56.353 13.380 L83.801 13.380 L83.801 40.828 L56.353 40.828 Z" fill="#ff6242" transform="translate(31.495 91.578) rotate(-80.248)"></path><path d="M57.211,20.942l.954-5.548a4.2,4.2,0,0,1,4.852-3.429l18.77,3.226a4.2,4.2,0,0,1,3.429,4.852l-.954,5.548h0a4.205,4.205,0,0,0-3.429-4.852L62.057,17.512a4.214,4.214,0,0,0-4.852,3.429" fill="#ff866e"></path><path d="M58.557,50.5A2.453,2.453,0,0,1,55.8,51.748a2.376,2.376,0,0,1-.352-.115" fill="none" stroke="#45413c" stroke-linecap="round" stroke-linejoin="round"></path><path d="M52.415 64.492 A16.338 2.334 0 1 0 85.091 64.492 A16.338 2.334 0 1 0 52.415 64.492 Z" fill="#45413c" opacity=".15"></path><path d="M54.961,48.413a2.447,2.447,0,0,0-2.451,2.451V61.483H84.369V50.864a2.447,2.447,0,0,0-2.45-2.451Z" fill="#ffaa54"></path><path d="M64.764 50.864H84.37V61.483999999999995H64.764z" fill="#ff8a14"></path><path d="M54.961,48.413a2.447,2.447,0,0,0-2.451,2.451v2.45a2.447,2.447,0,0,1,2.451-2.45h9.8a2.447,2.447,0,0,1,2.45-2.451Z" fill="#ffcc99"></path><path d="M54.961,48.413a2.447,2.447,0,0,0-2.451,2.451V61.483H84.369V50.864a2.447,2.447,0,0,0-2.45-2.451Z" fill="none" stroke="#45413c" stroke-linecap="round" stroke-linejoin="round"></path><path d="M84.369,50.864H71.3a2.454,2.454,0,0,1-1.733-.718l-1.733-1.733" fill="none" stroke="#45413c" stroke-linecap="round" stroke-linejoin="round"></path><path d="M52.51,61.483v1.634a.82.82,0,0,0,.817.817H83.552a.819.819,0,0,0,.817-.817V61.483Z" fill="#656769"></path><path d="M64.764,61.483v2.451H83.552a.819.819,0,0,0,.817-.817V61.483Z" fill="#525252"></path><path d="M52.51,61.483v1.634a.82.82,0,0,0,.817.817H83.552a.819.819,0,0,0,.817-.817V61.483Z" fill="none" stroke="#45413c" stroke-linecap="round" stroke-linejoin="round"></path><path d="M68.041,21.591a1.167,1.167,0,0,0,.952,1.348l3.5.6a1.167,1.167,0,0,0,1.347-.953L75.3,14.076l-5.8-1Z" fill="#ffffff" stroke="#45413c" stroke-linecap="round" stroke-linejoin="round"></path><path d="M56.353 13.380 L83.801 13.380 L83.801 40.828 L56.353 40.828 Z" fill="none" stroke="#45413c" stroke-linecap="round" stroke-linejoin="round" transform="translate(31.495 91.578) rotate(-80.248)"></path><path d="M59.618 29.266 L64.519 29.266 L64.519 37.108 L59.618 37.108 Z" fill="#ffffff" transform="translate(18.848 88.738) rotate(-80.248)"></path><path d="M75.079,56.076a1.629,1.629,0,0,0,.911-.21,14.711,14.711,0,0,0,5.943-19.3A1.634,1.634,0,0,0,79,38.018a11.444,11.444,0,0,1-4.626,15.007,1.633,1.633,0,0,0,.7,3.051Z" fill="#daedf7" stroke="#45413c" stroke-linecap="round" stroke-linejoin="round"></path><path d="M77.606,39.7a5.258,5.258,0,0,0,3.66-9.323,1.226,1.226,0,0,0-1.549,1.9,2.806,2.806,0,1,1-3.708,4.207,1.225,1.225,0,1,0-1.693,1.772A5.265,5.265,0,0,0,77.606,39.7Z" fill="#daedf7" stroke="#45413c" stroke-linecap="round" stroke-linejoin="round"></path><path d="M78.943 37.289 A1.634 1.634 0 1 0 82.211 37.289 A1.634 1.634 0 1 0 78.943 37.289 Z" fill="#f0f0f0" stroke="#45413c" stroke-linecap="round" stroke-linejoin="round"></path><path d="M78.534 57.399 A1.751 1.751 0 1 0 82.036 57.399 A1.751 1.751 0 1 0 78.534 57.399 Z" fill="#ff6242" stroke="#45413c" stroke-linecap="round" stroke-linejoin="round"></path><path d="M54.961 53.314 L62.313 53.314 L62.313 58.215 L54.961 58.215 Z" fill="#525252" stroke="#45413c" stroke-linecap="round" stroke-linejoin="round"></path><path d="M57.47 55.473L57.47 56.057" fill="none" stroke="#4acfff" stroke-linecap="round" stroke-linejoin="round"></path><path d="M59.804 55.473L59.804 56.057" fill="none" stroke="#4acfff" stroke-linecap="round" stroke-linejoin="round"></path><path d="M67.214,48.413a2.447,2.447,0,0,0-2.45,2.451v13.07" fill="none" stroke="#45413c" stroke-linecap="round" stroke-linejoin="round"></path></g></svg>