<svg xmlns="http://www.w3.org/2000/svg" version="1.1" xmlns:xlink="http://www.w3.org/1999/xlink" xmlns:svgjs="http://svgjs.com/svgjs" viewBox="0 0 200 200" width="200" height="200"><g transform="matrix(2,0,0,2,0,0)"><path d="M12.588 58.337 A40.000 40.000 0 1 0 92.588 58.337 A40.000 40.000 0 1 0 12.588 58.337 Z" fill="#e8f4fa" stroke="#daedf7" stroke-miterlimit="10"></path><path d="M32.729 90.998 A20.821 2.332 0 1 0 74.371 90.998 A20.821 2.332 0 1 0 32.729 90.998 Z" fill="#45413c" opacity=".15"></path><path d="M22.683,26.249a.688.688,0,0,1,1.018.084A7.208,7.208,0,1,1,12.5,26.007a.689.689,0,0,1,1.021-.025l1.424,1.51a.686.686,0,0,1,.043.892,3.776,3.776,0,1,0,6.095.178.686.686,0,0,1,.095-.888Z" fill="#adc4d9" stroke="#45413c" stroke-linecap="round" stroke-linejoin="round"></path><path d="M51.077,36.281c-.054.061-.111.119-.171.176-5.667,5.332-20.127,12.572-34.3,1.81a2.912,2.912,0,1,1,3.521-4.638C33.875,44.07,46.4,32.7,46.922,32.211a2.911,2.911,0,0,1,4.155,4.07Z" fill="#ffffff" stroke="#45413c" stroke-linecap="round" stroke-linejoin="round"></path><path d="M21.712,41.4a5.5,5.5,0,0,1,2.912-5.067" fill="none" stroke="#45413c" stroke-linecap="round" stroke-linejoin="round"></path><path d="M31.484,43.816a5.5,5.5,0,0,1-.885-5.873" fill="none" stroke="#45413c" stroke-linecap="round" stroke-linejoin="round"></path><path d="M40.559,42.466a5.5,5.5,0,0,1-2.239-5.4" fill="none" stroke="#45413c" stroke-linecap="round" stroke-linejoin="round"></path><path d="M69.765,69.582a.687.687,0,0,1-1.012-.135,7.208,7.208,0,1,1,11.174.9.689.689,0,0,1-1.02-.028l-1.346-1.581a.688.688,0,0,1,0-.893,3.775,3.775,0,1,0-6.077-.488.686.686,0,0,1-.14.882Z" fill="#adc4d9" stroke="#45413c" stroke-linecap="round" stroke-linejoin="round"></path><path d="M58.392,31.753c.08.015.159.033.239.054,7.5,2.053,21.227,10.611,19.44,28.315a2.911,2.911,0,1,1-5.793-.584c1.734-17.174-14.5-21.922-15.191-22.117a2.911,2.911,0,0,1,1.3-5.668Z" fill="#ffffff" stroke="#45413c" stroke-linecap="round" stroke-linejoin="round"></path><path d="M78.082,54.133a5.5,5.5,0,0,1-5.842.16" fill="none" stroke="#45413c" stroke-linecap="round" stroke-linejoin="round"></path><path d="M75.043,44.537A5.5,5.5,0,0,1,70.5,48.356" fill="none" stroke="#45413c" stroke-linecap="round" stroke-linejoin="round"></path><path d="M69.157,37.5a5.5,5.5,0,0,1-3.438,4.727" fill="none" stroke="#45413c" stroke-linecap="round" stroke-linejoin="round"></path><path d="M66.418,90.359c.108,0,.213-.014.316-.029a3.146,3.146,0,0,0,2.7-3.241A98.24,98.24,0,0,0,63.112,55.4a3.147,3.147,0,0,0-5.9,2.2A93.146,93.146,0,0,1,63.15,87.341,3.145,3.145,0,0,0,66.418,90.359Z" fill="#ffffff" stroke="#45413c" stroke-linecap="round" stroke-linejoin="round"></path><path d="M73.839,88.1c0,3.194-3.236,2.891-7.228,2.891s-7.229.3-7.229-2.891,3.236-5.783,7.229-5.783S73.839,84.905,73.839,88.1Z" fill="#adc4d9" stroke="#45413c" stroke-linecap="round" stroke-linejoin="round"></path><path d="M60.091,66.6a13.9,13.9,0,0,0,6.03-1.879" fill="none" stroke="#45413c" stroke-linecap="round" stroke-linejoin="round"></path><path d="M61.578,73.336a13.89,13.89,0,0,0,6.18-1.262" fill="none" stroke="#45413c" stroke-linecap="round" stroke-linejoin="round"></path><path d="M62.526,79.437a12.689,12.689,0,0,0,4.088-.239,13.96,13.96,0,0,0,2.136-.636" fill="none" stroke="#45413c" stroke-linecap="round" stroke-linejoin="round"></path><path d="M41,90.33a3.146,3.146,0,0,1-2.7-3.241A98.24,98.24,0,0,1,44.624,55.4a3.146,3.146,0,0,1,5.894,2.2,93.2,93.2,0,0,0-5.932,29.737,3.146,3.146,0,0,1-3.269,3.018C41.21,90.354,41.105,90.345,41,90.33Z" fill="#ffffff" stroke="#45413c" stroke-linecap="round" stroke-linejoin="round"></path><path d="M51.752 26.998H55.348V30.594H51.752z" fill="#adc4d9" stroke="#45413c" stroke-linecap="round" stroke-linejoin="round"></path><path d="M63.571,52.938H43.529V34.6a4,4,0,0,1,4-4H59.569a4,4,0,0,1,4,4Z" fill="#ffffff" stroke="#45413c" stroke-linecap="round" stroke-linejoin="round"></path><path d="M63.571,52.938a10.021,10.021,0,0,1-20.042,0Z" fill="#f0f0f0" stroke="#45413c" stroke-linecap="round" stroke-linejoin="round"></path><path d="M33.9,88.1c0,3.194,3.237,2.891,7.229,2.891s7.229.3,7.229-2.891-3.237-5.783-7.229-5.783S33.9,84.905,33.9,88.1Z" fill="#adc4d9" stroke="#45413c" stroke-linecap="round" stroke-linejoin="round"></path><path d="M47.644,66.6a13.9,13.9,0,0,1-6.029-1.879" fill="none" stroke="#45413c" stroke-linecap="round" stroke-linejoin="round"></path><path d="M46.158,73.336a13.89,13.89,0,0,1-6.18-1.262" fill="none" stroke="#45413c" stroke-linecap="round" stroke-linejoin="round"></path><path d="M45.21,79.437a12.7,12.7,0,0,1-4.089-.239,13.914,13.914,0,0,1-2.135-.636" fill="none" stroke="#45413c" stroke-linecap="round" stroke-linejoin="round"></path><path d="M43.529,42.225A2.023,2.023,0,0,1,44.561,40.6a2.224,2.224,0,0,0,1.2-1.973V30.505a.549.549,0,0,1,.381-.523,3.74,3.74,0,0,1,1.15-.18h1.43a.551.551,0,0,1,.548.5l.747,8.346a2.426,2.426,0,0,0,2.416,2.209h2.245a2.426,2.426,0,0,0,2.416-2.209l.747-8.346a.549.549,0,0,1,.548-.5h1.429a3.736,3.736,0,0,1,1.15.18.549.549,0,0,1,.382.523v8.126A2.225,2.225,0,0,0,62.539,40.6a1.846,1.846,0,0,1,1.032,1.621l0,20.14a5.648,5.648,0,0,1-5.648,5.647H49.178a5.649,5.649,0,0,1-5.649-5.648Z" fill="#6dd627" stroke="#45413c" stroke-linecap="round" stroke-linejoin="round"></path><path d="M47.719 52.521 L59.382 52.521 L59.382 60.688 L47.719 60.688 Z" fill="#9ceb60" stroke="#45413c" stroke-linecap="round" stroke-linejoin="round"></path><path d="M40.964 6.547 L66.136 6.547 L66.136 26.998 L40.964 26.998 Z" fill="#00b8f0"></path><path d="M42.382,26.264A3.592,3.592,0,0,1,40.964,23.4V10.143a3.6,3.6,0,0,1,3.6-3.6H59.646Z" fill="#4acfff"></path><path d="M40.964 6.547 L66.136 6.547 L66.136 26.998 L40.964 26.998 Z" fill="none" stroke="#45413c" stroke-linecap="round" stroke-linejoin="round"></path><path d="M50.039,17.72a1.116,1.116,0,0,1-1.115-1.115c0-1-.476-1.519-.64-1.519s-.642.523-.642,1.519a1.115,1.115,0,1,1-2.23,0c0-2.1,1.261-3.749,2.872-3.749s2.87,1.647,2.87,3.749A1.117,1.117,0,0,1,50.039,17.72Z" fill="#ffffff" stroke="#00658a" stroke-linecap="round" stroke-linejoin="round"></path><path d="M60.573,17.72a1.116,1.116,0,0,1-1.115-1.115c0-1-.476-1.519-.641-1.519s-.64.523-.64,1.519a1.115,1.115,0,0,1-2.23,0c0-2.1,1.261-3.749,2.87-3.749s2.871,1.647,2.871,3.749A1.117,1.117,0,0,1,60.573,17.72Z" fill="#ffffff" stroke="#00658a" stroke-linecap="round" stroke-linejoin="round"></path><path d="M8.47,22.777a1.065,1.065,0,0,0-.9,1.624,5.332,5.332,0,0,0,4.59,2.589H24.8a5.329,5.329,0,0,0,4.59-2.589,1.065,1.065,0,0,0-.9-1.624Z" fill="#ffffff" stroke="#45413c" stroke-linecap="round" stroke-linejoin="round"></path><path d="M25.015,15.47a7.307,7.307,0,0,1-14.614,0Z" fill="#ff6242" stroke="#45413c" stroke-linecap="round" stroke-linejoin="round"></path><path d="M25.015,15.47a3.653,3.653,0,0,1,3.654,3.653" fill="none" stroke="#45413c" stroke-linecap="round" stroke-linejoin="round"></path><path d="M18.933,1.738a2.482,2.482,0,0,0-3.011,1.805c-.642,2.563,1.688,2.862,2.272,4.6a.55.55,0,0,0,1.012.072,24.057,24.057,0,0,0,1.532-3.46A2.483,2.483,0,0,0,18.933,1.738Z" fill="#ffffff" stroke="#45413c" stroke-linecap="round" stroke-linejoin="round"></path></g></svg>