<svg xmlns="http://www.w3.org/2000/svg" version="1.1" xmlns:xlink="http://www.w3.org/1999/xlink" xmlns:svgjs="http://svgjs.com/svgjs" viewBox="0 0 200 200" width="200" height="200"><g transform="matrix(2,0,0,2,0,0)"><path d="M3.575 56.840 A40.000 40.000 0 1 0 83.575 56.840 A40.000 40.000 0 1 0 3.575 56.840 Z" fill="#e8f4fa" stroke="#daedf7" stroke-miterlimit="10"></path><path d="M5.259 80.785 A13.225 2.108 0 1 0 31.709 80.785 A13.225 2.108 0 1 0 5.259 80.785 Z" fill="#45413c" opacity=".15"></path><path d="M29.9,60.494H7.067a1.2,1.2,0,0,0-1.2,1.2V80.21H31.1V61.7A1.2,1.2,0,0,0,29.9,60.494Z" fill="#adc4d9"></path><path d="M29.9,60.494H7.067a1.2,1.2,0,0,0-1.2,1.2v2.4a1.2,1.2,0,0,1,1.2-1.2H29.9a1.2,1.2,0,0,1,1.2,1.2V61.7A1.2,1.2,0,0,0,29.9,60.494Z" fill="#daedf7"></path><path d="M29.9,60.494H7.067a1.2,1.2,0,0,0-1.2,1.2V80.21H31.1V61.7A1.2,1.2,0,0,0,29.9,60.494Z" fill="none" stroke="#45413c" stroke-linecap="round" stroke-linejoin="round"></path><path d="M16.681,49.678H7.067v4.807a1.2,1.2,0,0,0,1.2,1.2h7.21a1.2,1.2,0,0,0,1.2-1.2Z" fill="#e0e0e0"></path><path d="M7.067 49.678H16.681V51.48H7.067z" fill="#f0f0f0"></path><path d="M7.067 50.88L5.866 50.88" fill="none" stroke="#45413c" stroke-linecap="round" stroke-linejoin="round"></path><path d="M17.883 50.88L16.681 50.88" fill="none" stroke="#45413c" stroke-linecap="round" stroke-linejoin="round"></path><path d="M16.843,49.1c.269-.959-1.585-2.317-4.141-3.034s-4.846-.522-5.115.437l-.162.578,9.256,2.6Z" fill="#ff6242" stroke="#45413c" stroke-linecap="round" stroke-linejoin="round"></path><path d="M14.184,45.233a1.2,1.2,0,1,1-.833-1.481A1.2,1.2,0,0,1,14.184,45.233Z" fill="#525252" stroke="#45413c" stroke-linecap="round" stroke-linejoin="round"></path><path d="M16.681,49.678H7.067v4.807a1.2,1.2,0,0,0,1.2,1.2h7.21a1.2,1.2,0,0,0,1.2-1.2Z" fill="#ff6242" stroke="#45413c" stroke-linecap="round" stroke-linejoin="round"></path><path d="M4.946,46.77a.6.6,0,0,0,.77.216.33.33,0,0,0,.143-.459c-.384-.69-1.23-2.353-.724-2.807a1.924,1.924,0,0,0,.548-2.49,1.781,1.781,0,0,0-.617-.581,2.4,2.4,0,1,0-4.038-.009Z" fill="#ffffff" stroke="#45413c" stroke-linecap="round" stroke-linejoin="round"></path><path d="M20.286 42.468 L29.900 42.468 L29.900 55.687 L20.286 55.687 Z" fill="#daedf7"></path><path d="M20.286,44.871a2.4,2.4,0,0,1-2.4-2.4" fill="none" stroke="#45413c" stroke-linecap="round" stroke-linejoin="round"></path><path d="M32.3,42.468a2.4,2.4,0,0,1-2.4,2.4" fill="none" stroke="#45413c" stroke-linecap="round" stroke-linejoin="round"></path><path d="M20.286 42.468 L29.900 42.468 L29.900 55.687 L20.286 55.687 Z" fill="none" stroke="#45413c" stroke-linecap="round" stroke-linejoin="round"></path><path d="M30.5,33.455a2.4,2.4,0,0,0-2.4,2.4,2.344,2.344,0,0,0,.272,1.094.6.6,0,0,1-.048.635,1.132,1.132,0,0,0-.224.674,1.2,1.2,0,0,0,2.345.372.6.6,0,0,1,.47-.407,2.4,2.4,0,0,0-.411-4.772Z" fill="#ffffff" stroke="#45413c" stroke-linecap="round" stroke-linejoin="round"></path><path d="M21.028,34.661a.6.6,0,0,1-.051-.738,2.972,2.972,0,0,0,.511-1.67,3,3,0,1,0-4,2.826.6.6,0,0,1,.4.622c0,.052-.007.1-.007.158a1.8,1.8,0,1,0,3.145-1.2Z" fill="#ffffff" stroke="#45413c" stroke-linecap="round" stroke-linejoin="round"></path><path d="M8.269,60.494v-1.2a1.2,1.2,0,0,1,1.2-1.2h.6" fill="none" stroke="#45413c" stroke-linecap="round" stroke-linejoin="round"></path><path d="M15.479,60.494v-1.2a1.2,1.2,0,0,0-1.2-1.2h-.6" fill="none" stroke="#45413c" stroke-linecap="round" stroke-linejoin="round"></path><path d="M21.488,60.494v-1.2a1.2,1.2,0,0,1,1.2-1.2h.6" fill="none" stroke="#45413c" stroke-linecap="round" stroke-linejoin="round"></path><path d="M28.7,60.494v-1.2a1.2,1.2,0,0,0-1.2-1.2h-.6" fill="none" stroke="#45413c" stroke-linecap="round" stroke-linejoin="round"></path><path d="M52.662 68.775H55.721V87.129H52.662z" fill="#daedf7"></path><path d="M52.662,73.355a8.195,8.195,0,0,0,3.059,0V68.774H52.662Z" fill="#bdbec0"></path><path d="M52.662 68.775H55.721V87.129H52.662z" fill="none" stroke="#45413c" stroke-linecap="round" stroke-linejoin="round"></path><path d="M43.486 92.099 A10.706 2.294 0 1 0 64.898 92.099 A10.706 2.294 0 1 0 43.486 92.099 Z" fill="#45413c" opacity=".15"></path><path d="M74.013,52.475c-.179,0-.36-.006-.54-.021a6.956,6.956,0,0,1-5.65-3.806l-2.05-4.1a1.593,1.593,0,0,0-1.429-.883H60.585a2.664,2.664,0,1,1,0-5.327h3.759a6.889,6.889,0,0,1,6.2,3.829l2.05,4.1a1.6,1.6,0,0,0,1.3.876,1.583,1.583,0,0,0,1.425-.664l4.538-6.428a2.664,2.664,0,1,1,4.335,3.1l-4.537,6.429A6.96,6.96,0,0,1,74.013,52.475Z" fill="#daedf7" stroke="#45413c" stroke-linecap="round" stroke-linejoin="round"></path><path d="M64.9,9.278a4.59,4.59,0,0,0-4.589-4.589,4.429,4.429,0,0,0-1.714.35.763.763,0,0,1-.883-.218,4.561,4.561,0,0,0-7.041,0,.765.765,0,0,1-.883.218,4.429,4.429,0,0,0-1.714-.35,4.589,4.589,0,0,0-1.149,9.032,1.529,1.529,0,0,1,1.149,1.48v4.783H60.309V15.2a1.528,1.528,0,0,1,1.149-1.48A4.59,4.59,0,0,0,64.9,9.278Z" fill="#ffffff" stroke="#45413c" stroke-linecap="round" stroke-linejoin="round"></path><path d="M43.485 19.984 L64.898 19.984 L64.898 35.279 L43.485 35.279 Z" fill="#00b8f0"></path><path d="M52.662 35.279H55.721V38.338H52.662z" fill="#87898c" stroke="#45413c" stroke-linecap="round" stroke-linejoin="round"></path><path d="M48.074 15.396L60.309 15.396" fill="none" stroke="#45413c" stroke-linecap="round" stroke-linejoin="round"></path><path d="M45.667 38.338H62.716V61.78H45.667z" fill="#ffffff" stroke="#45413c" stroke-linecap="round" stroke-linejoin="round"></path><path d="M62.716,61.78a8.525,8.525,0,0,1-17.049,0Z" fill="#ffffff" stroke="#45413c" stroke-linecap="round" stroke-linejoin="round"></path><path d="M62.958,90.385a.7.7,0,0,1-.286,1.332H45.711a.7.7,0,0,1-.286-1.332l7.237-3.257h3.059Z" fill="#656769" stroke="#45413c" stroke-linecap="round" stroke-linejoin="round"></path><path d="M58.454,45.333a1.53,1.53,0,0,1-1.53,1.529H51.459a1.53,1.53,0,0,1-1.53-1.529V38.338h8.525Z" fill="#4acfff"></path><path d="M49.929 38.338H58.453V41.534H49.929z" fill="#80ddff"></path><path d="M58.454,45.333a1.53,1.53,0,0,1-1.53,1.529H51.459a1.53,1.53,0,0,1-1.53-1.529V38.338h8.525Z" fill="none" stroke="#45413c" stroke-linecap="round" stroke-linejoin="round"></path><path d="M88.792,56.71a5.329,5.329,0,0,0,10.425.3,1.529,1.529,0,0,0-1.76-1.862l-4.471.808L89.953,39.175l-4.194.758Z" fill="#c0dceb" stroke="#45413c" stroke-linecap="round" stroke-linejoin="round"></path><path d="M84.621,33.642a2.131,2.131,0,0,1,4.194-.758l1.138,6.291-4.194.758Z" fill="#656769" stroke="#45413c" stroke-linecap="round" stroke-linejoin="round"></path><path d="M91.633,38.133a2.131,2.131,0,0,1-1.529,2.6L83.658,42.4a2.131,2.131,0,0,1-1.068-4.127L89.036,36.6A2.13,2.13,0,0,1,91.633,38.133Z" fill="#e8f4fa" stroke="#45413c" stroke-linecap="round" stroke-linejoin="round"></path><path d="M66.421 45.844L69.189 40.309" fill="none" stroke="#45413c" stroke-linecap="round" stroke-linejoin="round"></path><path d="M69.392 50.7L72.485 46.06" fill="none" stroke="#45413c" stroke-linecap="round" stroke-linejoin="round"></path><path d="M76.012 45.495L79.149 50.201" fill="none" stroke="#45413c" stroke-linecap="round" stroke-linejoin="round"></path><path d="M45.667,62.045a11.854,11.854,0,0,1,0-23.707v5.353a6.5,6.5,0,0,0,0,13Z" fill="#daedf7" stroke="#45413c" stroke-linecap="round" stroke-linejoin="round"></path><path d="M42.8 44.358L40.447 39.563" fill="none" stroke="#45413c" stroke-linecap="round" stroke-linejoin="round"></path><path d="M40.267 46.577L35.827 43.598" fill="none" stroke="#45413c" stroke-linecap="round" stroke-linejoin="round"></path><path d="M39.181 49.763L33.844 49.403" fill="none" stroke="#45413c" stroke-linecap="round" stroke-linejoin="round"></path><path d="M39.836 53.062L35.029 55.421" fill="none" stroke="#45413c" stroke-linecap="round" stroke-linejoin="round"></path><path d="M42.051 55.59L39.065 60.041" fill="none" stroke="#45413c" stroke-linecap="round" stroke-linejoin="round"></path><path d="M92.986 55.951L88.808 56.795" fill="#f0f0f0" stroke="#45413c" stroke-linecap="round" stroke-linejoin="round"></path><path d="M44.692,34.654a3.052,3.052,0,0,1-1.207-2.434V23.043a3.06,3.06,0,0,1,3.059-3.059H59.377Z" fill="#4acfff"></path><path d="M43.485 19.984 L64.898 19.984 L64.898 35.279 L43.485 35.279 Z" fill="none" stroke="#45413c" stroke-linecap="round" stroke-linejoin="round"></path><path d="M48.313 26.800 A1.625 2.581 0 1 0 51.563 26.800 A1.625 2.581 0 1 0 48.313 26.800 Z" fill="#ffffff" stroke="#009fd9" stroke-miterlimit="10"></path><path d="M56.820 26.800 A1.625 2.581 0 1 0 60.070 26.800 A1.625 2.581 0 1 0 56.820 26.800 Z" fill="#ffffff" stroke="#009fd9" stroke-miterlimit="10"></path></g></svg>