<svg xmlns="http://www.w3.org/2000/svg" version="1.1" xmlns:xlink="http://www.w3.org/1999/xlink" xmlns:svgjs="http://svgjs.com/svgjs" viewBox="0 0 200 200" width="200" height="200"><g transform="matrix(2,0,0,2,0,0)"><path d="M10.107 53.407 A40.000 40.000 0 1 0 90.107 53.407 A40.000 40.000 0 1 0 10.107 53.407 Z" fill="#e8f4fa" stroke="#daedf7" stroke-miterlimit="10"></path><path d="M42.206 44.768 A16.918 16.918 0 1 0 76.042 44.768 A16.918 16.918 0 1 0 42.206 44.768 Z" fill="none" stroke="#adc4d9" stroke-linecap="round" stroke-linejoin="round"></path><path d="M48.675 44.768 A10.448 10.448 0 1 0 69.571 44.768 A10.448 10.448 0 1 0 48.675 44.768 Z" fill="#ffe500"></path><path d="M51.736,52.156A10.448,10.448,0,0,1,66.511,37.381Z" fill="#fff48c"></path><path d="M51.463 44.768 A7.661 7.661 0 1 0 66.785 44.768 A7.661 7.661 0 1 0 51.463 44.768 Z" fill="none" stroke="#ebcb00" stroke-miterlimit="10"></path><path d="M48.675 44.768 A10.448 10.448 0 1 0 69.571 44.768 A10.448 10.448 0 1 0 48.675 44.768 Z" fill="none" stroke="#45413c" stroke-linecap="round" stroke-linejoin="round"></path><path d="M61.987,41.905a2.863,2.863,0,0,0-2.864-2.862h-.208a2.653,2.653,0,0,0-1.187,5.027l2.791,1.4a2.654,2.654,0,0,1-1.187,5.028h-.209a2.863,2.863,0,0,1-2.863-2.863" fill="none" stroke="#45413c" stroke-linecap="round" stroke-linejoin="round"></path><path d="M59.123 39.043L59.123 37.611" fill="none" stroke="#45413c" stroke-linecap="round" stroke-linejoin="round"></path><path d="M59.123 51.926L59.123 50.494" fill="none" stroke="#45413c" stroke-linecap="round" stroke-linejoin="round"></path><path d="M50.1,25.8c-.022.066.673,1.577,1.687,3.721" fill="none" stroke="#adc4d9" stroke-linecap="round" stroke-linejoin="round"></path><path d="M74.863,30.857c.06,0-.774.821-2.937,2.852" fill="none" stroke="#adc4d9" stroke-linecap="round" stroke-linejoin="round"></path><path d="M77.679,54.615c.019.057-1.04-.436-3.7-1.746" fill="none" stroke="#adc4d9" stroke-linecap="round" stroke-linejoin="round"></path><path d="M55.219,10.275a5.856,5.856,0,1,0-10.335,3.77A5.2,5.2,0,0,1,46.11,17.4v.686h6.507V17.4a5.2,5.2,0,0,1,1.226-3.353A5.824,5.824,0,0,0,55.219,10.275Z" fill="#ffe500"></path><path d="M49.363,7.022a5.859,5.859,0,0,1,5.711,4.555,5.857,5.857,0,1,0-11.421,0A5.858,5.858,0,0,1,49.363,7.022Z" fill="#fff48c"></path><path d="M55.219,10.275a5.856,5.856,0,1,0-10.335,3.77A5.2,5.2,0,0,1,46.11,17.4v.686h6.507V17.4a5.2,5.2,0,0,1,1.226-3.353A5.824,5.824,0,0,0,55.219,10.275Z" fill="none" stroke="#45413c" stroke-linejoin="round"></path><path d="M51.315,20.686h-3.9a1.3,1.3,0,0,1-1.3-1.3v-1.3h6.507v1.3A1.3,1.3,0,0,1,51.315,20.686Z" fill="#c0dceb" stroke="#45413c" stroke-linejoin="round"></path><path d="M51.315,21.337a1.952,1.952,0,1,1-3.9,0v-.651h3.9Z" fill="#8ca4b8" stroke="#45413c" stroke-linejoin="round"></path><path d="M49.363 1.817L49.363 0.515" fill="none" stroke="#45413c" stroke-linecap="round" stroke-linejoin="round"></path><path d="M55.345 4.294L56.265 3.374" fill="none" stroke="#45413c" stroke-linecap="round" stroke-linejoin="round"></path><path d="M57.822 10.275L59.124 10.275" fill="none" stroke="#45413c" stroke-linecap="round" stroke-linejoin="round"></path><path d="M43.382 4.294L42.462 3.374" fill="none" stroke="#45413c" stroke-linecap="round" stroke-linejoin="round"></path><path d="M40.905 10.275L39.603 10.275" fill="none" stroke="#45413c" stroke-linecap="round" stroke-linejoin="round"></path><path d="M78.386 13.866 A4.490 4.490 0 1 0 87.366 13.866 A4.490 4.490 0 1 0 78.386 13.866 Z" fill="#ffe500"></path><path d="M82.876,9.377A4.49,4.49,0,0,0,79.7,17.041l6.35-6.349A4.475,4.475,0,0,0,82.876,9.377Z" fill="#fffacf"></path><path d="M78.386 13.866 A4.490 4.490 0 1 0 87.366 13.866 A4.490 4.490 0 1 0 78.386 13.866 Z" fill="none" stroke="#45413c" stroke-linejoin="round"></path><path d="M82.711,17.131a9.857,9.857,0,0,0-2.315.276,3.1,3.1,0,0,0-2.659-1.519,2.882,2.882,0,0,0-.408.028.621.621,0,0,0-.377,1.03,3.073,3.073,0,0,1,.751,1.6,6.721,6.721,0,0,0-2.69,3.146A1.629,1.629,0,0,1,73.5,22.726a.621.621,0,0,0-.613.724l.414,2.487a.622.622,0,0,0,.613.519h1.5a7.038,7.038,0,0,0,2.32,2.338v2.014a1.244,1.244,0,0,0,1.244,1.243h1.243a1.243,1.243,0,0,0,1.243-1.243v-.7a10.17,10.17,0,0,0,1.244.078,9.952,9.952,0,0,0,1.243-.085v.707A1.244,1.244,0,0,0,85.2,32.051h1.244a1.244,1.244,0,0,0,1.243-1.243V28.8a6.169,6.169,0,0,0,3.108-5.138C90.792,20.054,87.174,17.131,82.711,17.131Z" fill="#ffa694"></path><path d="M72.93,23.1a13.2,13.2,0,0,0,9.781,4.285,13.716,13.716,0,0,0,7.954-2.573,5.286,5.286,0,0,0,.127-1.157c0-3.605-3.618-6.528-8.081-6.528a9.857,9.857,0,0,0-2.315.276,3.1,3.1,0,0,0-2.659-1.519,2.882,2.882,0,0,0-.408.028.621.621,0,0,0-.377,1.03,3.073,3.073,0,0,1,.751,1.6,6.721,6.721,0,0,0-2.69,3.146A1.629,1.629,0,0,1,73.5,22.726a.623.623,0,0,0-.572.376" fill="#ffcabf"></path><path d="M90.792,23.659s2.821-.6,1.526-3.194" fill="none" stroke="#45413c" stroke-linecap="round" stroke-linejoin="round"></path><path d="M82.711,17.131a9.857,9.857,0,0,0-2.315.276,3.1,3.1,0,0,0-2.659-1.519,2.882,2.882,0,0,0-.408.028.621.621,0,0,0-.377,1.03,3.073,3.073,0,0,1,.751,1.6,6.721,6.721,0,0,0-2.69,3.146A1.629,1.629,0,0,1,73.5,22.726a.621.621,0,0,0-.613.724l.414,2.487a.622.622,0,0,0,.613.519h1.5a7.038,7.038,0,0,0,2.32,2.338v2.014a1.244,1.244,0,0,0,1.244,1.243h1.243a1.243,1.243,0,0,0,1.243-1.243v-.7a10.17,10.17,0,0,0,1.244.078,9.952,9.952,0,0,0,1.243-.085v.707A1.244,1.244,0,0,0,85.2,32.051h1.244a1.244,1.244,0,0,0,1.243-1.243V28.8a6.169,6.169,0,0,0,3.108-5.138C90.792,20.054,87.174,17.131,82.711,17.131Z" fill="none" stroke="#45413c" stroke-linecap="round" stroke-linejoin="round"></path><path d="M77.287 22.396 A1.100 1.100 0 1 0 79.487 22.396 A1.100 1.100 0 1 0 77.287 22.396 Z" fill="#45413c"></path><path d="M83.718,52.944a1.72,1.72,0,0,1-1.389-2.735c1.423-1.951,4.323-3.288,7.668-3.288s6.246,1.337,7.669,3.29a1.72,1.72,0,0,1-1.391,2.733Z" fill="#ffcc99"></path><path d="M97.021,52.772a10.978,10.978,0,0,0-14.049,0,1.735,1.735,0,0,0,.746.169H96.275a1.726,1.726,0,0,0,.747-.17" fill="#ffaa54"></path><path d="M83.718,52.944a1.72,1.72,0,0,1-1.389-2.735c1.423-1.951,4.323-3.288,7.668-3.288s6.246,1.337,7.669,3.29a1.72,1.72,0,0,1-1.391,2.733Z" fill="none" stroke="#45413c" stroke-linecap="round" stroke-linejoin="round"></path><path d="M96.567,59.827H83.682a1.3,1.3,0,0,1-1.3-1.3v-1.49a.651.651,0,0,1,.651-.651H97.218a.652.652,0,0,1,.651.651v1.49A1.3,1.3,0,0,1,96.567,59.827Z" fill="#ffaa54" stroke="#45413c" stroke-linecap="round" stroke-linejoin="round"></path><path d="M98.729,54.665a1.72,1.72,0,0,1-1.721,1.72H83.241a1.721,1.721,0,1,1,0-3.441H97.008A1.72,1.72,0,0,1,98.729,54.665Z" fill="#bf8256" stroke="#45413c" stroke-linecap="round" stroke-linejoin="round"></path><path d="M83.241,52.944l6.247,3.5a1.3,1.3,0,0,0,1.273,0l6.247-3.5Z" fill="#fff48c" stroke="#45413c" stroke-linecap="round" stroke-linejoin="round"></path><path d="M74.186,59.906a.557.557,0,0,1,.615.555,5.85,5.85,0,1,1-7.074-5.723.559.559,0,0,1,.671.486l.177,1.676a.557.557,0,0,1-.411.6,3.065,3.065,0,1,0,3.848,3.113.556.556,0,0,1,.5-.527Z" fill="#656769"></path><path d="M74.186,59.906a.557.557,0,0,1,.615.555,5.85,5.85,0,1,1-7.074-5.723.559.559,0,0,1,.671.486l.177,1.676a.557.557,0,0,1-.411.6,3.065,3.065,0,1,0,3.848,3.113.556.556,0,0,1,.5-.527Z" fill="none" stroke="#45413c" stroke-linecap="round" stroke-linejoin="round"></path><path d="M46.041 59.732H50.498V76.447H46.041z" fill="#ffffff" transform="translate(-34.19 55.183) rotate(-45.771)"></path><path d="M42.56,61.974l1.276-1.311,5.515,5.369-.175.432A3.344,3.344,0,0,1,45.5,68.5l-4-3.9Z" fill="#e0e0e0"></path><path d="M46.041 59.732H50.498V76.447H46.041z" fill="none" stroke="#45413c" stroke-linecap="round" stroke-linejoin="round" transform="translate(-34.19 55.183) rotate(-45.771)"></path><path d="M54.006 67.861H66.303V72.318H54.006z" fill="#ffffff" transform="translate(-31.291 57.094) rotate(-41.274)"></path><path d="M60.478,66.84l2.828-2.481,2.94,3.35-2.769,2.43A3.343,3.343,0,0,1,60.478,66.84Z" fill="#e0e0e0"></path><path d="M54.006 67.861H66.303V72.318H54.006z" fill="none" stroke="#45413c" stroke-linecap="round" stroke-linejoin="round" transform="translate(-31.291 57.094) rotate(-41.274)"></path><path d="M62.624 64.991 A3.343 3.343 0 1 0 69.310 64.991 A3.343 3.343 0 1 0 62.624 64.991 Z" fill="#ffffff" stroke="#45413c" stroke-linecap="round" stroke-linejoin="round"></path><path d="M51.690 74.588 A3.343 3.343 0 1 0 58.376 74.588 A3.343 3.343 0 1 0 51.690 74.588 Z" fill="#ffffff" stroke="#45413c" stroke-linecap="round" stroke-linejoin="round"></path><path d="M27.698 52.689H32.155V57.146H27.698z" fill="#daedf7"></path><path d="M27.698 52.689H32.155V54.918H27.698z" fill="#c0dceb"></path><path d="M27.698 52.689H32.155V57.146H27.698z" fill="none" stroke="#45413c" stroke-linecap="round" stroke-linejoin="round"></path><path d="M21.012 57.146 L38.842 57.146 L38.842 73.861 L21.012 73.861 Z" fill="#ffffff" stroke="#45413c" stroke-linecap="round" stroke-linejoin="round"></path><path d="M26.584 73.862H33.269999999999996V79.538H26.584z" fill="#daedf7"></path><path d="M26.589 73.862H33.275V76.195H26.589z" fill="#c0dceb"></path><path d="M26.584 73.862H33.269999999999996V79.538H26.584z" fill="none" stroke="#45413c" stroke-linecap="round" stroke-linejoin="round"></path><path d="M34.384,64.947a2.229,2.229,0,0,1-2.228,2.229H27.7a2.229,2.229,0,0,1-2.229-2.229v-7.8h8.915Z" fill="#00b8f0"></path><path d="M32.897 57.146L25.469 64.568 25.469 57.146 32.897 57.146z" fill="#4acfff"></path><path d="M34.384,64.947a2.229,2.229,0,0,1-2.228,2.229H27.7a2.229,2.229,0,0,1-2.229-2.229v-7.8h8.915Z" fill="none" stroke="#45413c" stroke-linecap="round" stroke-linejoin="round"></path><path d="M36.307,79.537a2.23,2.23,0,0,1,2.1,2.972,8.919,8.919,0,0,1-16.815,0,2.229,2.229,0,0,1,2.1-2.972Z" fill="#ffffff" stroke="#45413c" stroke-linecap="round" stroke-linejoin="round"></path><path d="M1.94 66.574H18.655V71.03099999999999H1.94z" fill="#f0f0f0" transform="translate(-48.501 31.62) rotate(-49.179)"></path><path d="M16.063,62.738l1.385,1.2-5.032,5.824-.441-.149a3.343,3.343,0,0,1-2.252-3.551l3.651-4.227Z" fill="#e0e0e0"></path><path d="M1.94 66.574H18.655V71.03099999999999H1.94z" fill="none" stroke="#45413c" stroke-linecap="round" stroke-linejoin="round" transform="translate(-48.501 31.62) rotate(-49.179)"></path><path d="M21.012,64.947H16.537A3.343,3.343,0,0,1,13.194,61.6V60.49a3.344,3.344,0,0,1,3.343-3.344h2.229a2.255,2.255,0,0,1,2.246,2.229Z" fill="#ffffff" stroke="#45413c" stroke-linecap="round" stroke-linejoin="round"></path><path d="M4.352 75.963H8.809000000000001V88.25999999999999H4.352z" fill="#f0f0f0" transform="translate(-23.374 5.376) rotate(-16.742)"></path><path d="M9.4,83.756l1.084,3.6L6.217,88.641,5.156,85.114A3.342,3.342,0,0,1,9.4,83.756Z" fill="#e0e0e0"></path><path d="M4.352 75.963H8.809000000000001V88.25999999999999H4.352z" fill="none" stroke="#45413c" stroke-linecap="round" stroke-linejoin="round" transform="translate(-23.374 5.376) rotate(-16.742)"></path><path d="M10.019,99.1a.556.556,0,0,1-.76.33,5.851,5.851,0,1,1,8.143-4.06.557.557,0,0,1-.721.409l-1.6-.535a.556.556,0,0,1-.372-.621,3.065,3.065,0,1,0-4.43,2.208.554.554,0,0,1,.272.671Z" fill="#656769"></path><path d="M10.019,99.1a.556.556,0,0,1-.76.33,5.851,5.851,0,1,1,8.143-4.06.557.557,0,0,1-.721.409l-1.6-.535a.556.556,0,0,1-.372-.621,3.065,3.065,0,1,0-4.43,2.208.554.554,0,0,1,.272.671Z" fill="none" stroke="#45413c" stroke-linecap="round" stroke-linejoin="round"></path><path d="M5.462 89.517 A3.343 3.343 0 1 0 12.148 89.517 A3.343 3.343 0 1 0 5.462 89.517 Z" fill="#f0f0f0" stroke="#45413c" stroke-linecap="round" stroke-linejoin="round"></path><path d="M1.271 75.585 A3.343 3.343 0 1 0 7.957 75.585 A3.343 3.343 0 1 0 1.271 75.585 Z" fill="#f0f0f0" stroke="#45413c" stroke-linecap="round" stroke-linejoin="round"></path><path d="M38.842,64.947h4.474A3.343,3.343,0,0,0,46.659,61.6V60.49a3.343,3.343,0,0,0-3.343-3.344H41.088a2.255,2.255,0,0,0-2.246,2.229Z" fill="#ffffff" stroke="#45413c" stroke-linecap="round" stroke-linejoin="round"></path><path d="M14.397 29.079 L45.456 29.079 L45.456 53.483 L14.397 53.483 Z" fill="#00b8f0"></path><path d="M18.135,53.482h-.41A3.328,3.328,0,0,1,14.4,50.155V32.406a3.328,3.328,0,0,1,3.328-3.327h24.4Z" fill="#4acfff"></path><path d="M20.811,44.6a1.64,1.64,0,0,0,1.638-1.639,2,2,0,0,1,.616-1.693,2.379,2.379,0,0,1,.544,1.693,1.639,1.639,0,1,0,3.277,0c0-2.784-1.694-4.965-3.857-4.965s-3.857,2.181-3.857,4.965A1.641,1.641,0,0,0,20.811,44.6Z" fill="#ffffff" stroke="#009fd9" stroke-linecap="round" stroke-linejoin="round"></path><path d="M39.043,44.6a1.64,1.64,0,0,1-1.638-1.639,2,2,0,0,0-.616-1.693,2.377,2.377,0,0,0-.545,1.693,1.638,1.638,0,1,1-3.276,0c0-2.784,1.694-4.965,3.857-4.965s3.856,2.181,3.856,4.965A1.64,1.64,0,0,1,39.043,44.6Z" fill="#ffffff" stroke="#009fd9" stroke-linecap="round" stroke-linejoin="round"></path><path d="M14.397 29.079 L45.456 29.079 L45.456 53.483 L14.397 53.483 Z" fill="none" stroke="#45413c" stroke-linecap="round" stroke-linejoin="round"></path></g></svg>