<svg xmlns="http://www.w3.org/2000/svg" version="1.1" xmlns:xlink="http://www.w3.org/1999/xlink" xmlns:svgjs="http://svgjs.com/svgjs" viewBox="0 0 200 200" width="200" height="200"><g transform="matrix(2,0,0,2,0,0)"><path d="M10.000 50.000 A40.000 40.000 0 1 0 90.000 50.000 A40.000 40.000 0 1 0 10.000 50.000 Z" fill="#e8f4fa" stroke="#daedf7" stroke-linecap="round" stroke-linejoin="round"></path><path d="M25.96,72.353a25.511,25.511,0,0,0-1.508,8.422,39.955,39.955,0,0,0,9.573,5.9v-5.2a2.556,2.556,0,0,0-.749-1.807Z" fill="#627b8c"></path><path d="M34.025,81.476a2.556,2.556,0,0,0-.749-1.807L25.96,72.353a25.4,25.4,0,0,0-.827,2.765l8.143,8.143a2.556,2.556,0,0,1,.749,1.807Z" fill="#8ca4b8"></path><path d="M25.96,72.353a25.511,25.511,0,0,0-1.508,8.422,39.955,39.955,0,0,0,9.573,5.9v-5.2a2.556,2.556,0,0,0-.749-1.807Z" fill="none" stroke="#45413c" stroke-linecap="round" stroke-linejoin="round"></path><path d="M30.83 82.973L30.83 84.891" fill="none" stroke="#45413c" stroke-linecap="round" stroke-linejoin="round"></path><path d="M27.634 78.5L27.634 80.417" fill="none" stroke="#45413c" stroke-linecap="round" stroke-linejoin="round"></path><path d="M65.975,86.673a39.955,39.955,0,0,0,9.573-5.9,25.511,25.511,0,0,0-1.508-8.422l-7.316,7.316a2.556,2.556,0,0,0-.749,1.807Z" fill="#627b8c"></path><path d="M65.975,81.476a2.556,2.556,0,0,1,.749-1.807l7.316-7.316a25.4,25.4,0,0,1,.827,2.765l-8.143,8.143a2.556,2.556,0,0,0-.749,1.807Z" fill="#8ca4b8"></path><path d="M65.975,86.673a39.955,39.955,0,0,0,9.573-5.9,25.511,25.511,0,0,0-1.508-8.422l-7.316,7.316a2.556,2.556,0,0,0-.749,1.807Z" fill="none" stroke="#45413c" stroke-linecap="round" stroke-linejoin="round"></path><path d="M69.17 82.973L69.17 84.891" fill="none" stroke="#45413c" stroke-linecap="round" stroke-linejoin="round"></path><path d="M72.366 78.5L72.366 80.417" fill="none" stroke="#45413c" stroke-linecap="round" stroke-linejoin="round"></path><path d="M55.751,56.145V51.023h-11.5v5.122A25.61,25.61,0,0,0,25.96,72.353l7.316,7.316a2.556,2.556,0,0,1,.749,1.807v5.2a40.016,40.016,0,0,0,31.95,0v-5.2a2.556,2.556,0,0,1,.749-1.807l7.316-7.316A25.61,25.61,0,0,0,55.751,56.145Z" fill="#ffffff"></path><path d="M71.5,74.894l2.541-2.541A25.61,25.61,0,0,0,55.751,56.145V51.023h-11.5v5.122A25.612,25.612,0,0,0,25.96,72.353L28.5,74.894a25.567,25.567,0,0,1,43,0Z" fill="#e8f4fa"></path><path d="M55.751,56.145V51.023h-11.5v5.122A25.61,25.61,0,0,0,25.96,72.353l7.316,7.316a2.556,2.556,0,0,1,.749,1.807v5.2a40.016,40.016,0,0,0,31.95,0v-5.2a2.556,2.556,0,0,1,.749-1.807l7.316-7.316A25.61,25.61,0,0,0,55.751,56.145Z" fill="none" stroke="#45413c" stroke-linecap="round" stroke-linejoin="round"></path><path d="M55.751,56.145S54.473,60.608,50,60.608s-5.751-4.463-5.751-4.463V51.023h11.5Z" fill="#627b8c" stroke="#45413c" stroke-linecap="round" stroke-linejoin="round"></path><path d="M50,13.96A15.975,15.975,0,0,0,34.025,29.935V37.6a15.975,15.975,0,1,0,31.95,0V29.935A15.975,15.975,0,0,0,50,13.96Z" fill="#ffffff"></path><path d="M34.025,37.6a15.965,15.965,0,0,0,7.668,13.648V43.958a5.111,5.111,0,0,0-2.826-4.572l-4.842-2.422Z" fill="#daedf7"></path><path d="M65.975,37.6a15.965,15.965,0,0,1-7.668,13.648V43.958a5.111,5.111,0,0,1,2.826-4.572l4.842-2.422Z" fill="#daedf7"></path><path d="M55.112,43.994a7.774,7.774,0,0,1-10.224,0" fill="none" stroke="#45413c" stroke-linecap="round" stroke-linejoin="round"></path><path d="M50,13.96A15.975,15.975,0,0,0,34.025,29.935V37.6a15.975,15.975,0,1,0,31.95,0V29.935A15.975,15.975,0,0,0,50,13.96Z" fill="none" stroke="#45413c" stroke-linecap="round" stroke-linejoin="round"></path><path d="M34.025,33.769V37.6a16.1,16.1,0,0,0,.2,2.549c-.067,0-.135.007-.2.007a3.2,3.2,0,1,1,0-6.39Z" fill="#627b8c"></path><path d="M34.025,36.325V33.769A3.2,3.2,0,0,0,31.1,38.242,3.2,3.2,0,0,1,34.025,36.325Z" fill="#8ca4b8"></path><path d="M34.025,33.769V37.6a16.1,16.1,0,0,0,.2,2.549c-.067,0-.135.007-.2.007a3.2,3.2,0,1,1,0-6.39Z" fill="none" stroke="#45413c" stroke-linecap="round" stroke-linejoin="round"></path><path d="M65.975,33.769V37.6a16.1,16.1,0,0,1-.2,2.549c.067,0,.135.007.2.007a3.195,3.195,0,1,0,0-6.39Z" fill="#627b8c"></path><path d="M65.975,36.325V33.769A3.2,3.2,0,0,1,68.9,38.242,3.2,3.2,0,0,0,65.975,36.325Z" fill="#8ca4b8"></path><path d="M65.975,33.769V37.6a16.1,16.1,0,0,1-.2,2.549c.067,0,.135.007.2.007a3.195,3.195,0,1,0,0-6.39Z" fill="none" stroke="#45413c" stroke-linecap="round" stroke-linejoin="round"></path><path d="M41.746 33.769 A1.864 1.864 0 1 0 45.474 33.769 A1.864 1.864 0 1 0 41.746 33.769 Z" fill="#00aed9" stroke="#45413c" stroke-miterlimit="10"></path><path d="M54.526 33.769 A1.864 1.864 0 1 0 58.254 33.769 A1.864 1.864 0 1 0 54.526 33.769 Z" fill="#00aed9" stroke="#45413c" stroke-miterlimit="10"></path><path d="M50,13.96a15.986,15.986,0,0,0-3.834.464v2.092a3.834,3.834,0,0,0,7.668,0V14.424A15.986,15.986,0,0,0,50,13.96Z" fill="#00aed9"></path><path d="M50,13.96a15.986,15.986,0,0,0-3.834.464v1.917a16.072,16.072,0,0,1,7.668,0V14.424A15.986,15.986,0,0,0,50,13.96Z" fill="#4acfff"></path><path d="M50,13.96a15.986,15.986,0,0,0-3.834.464v2.092a3.834,3.834,0,0,0,7.668,0V14.424A15.986,15.986,0,0,0,50,13.96Z" fill="none" stroke="#45413c" stroke-linecap="round" stroke-linejoin="round"></path><path d="M46.805 53.259L46.805 56.135" fill="none" stroke="#45413c" stroke-linecap="round" stroke-linejoin="round"></path><path d="M53.195 53.259L53.195 56.135" fill="none" stroke="#45413c" stroke-linecap="round" stroke-linejoin="round"></path><path d="M48.722 60.477L48.722 58.052" fill="none" stroke="#45413c" stroke-linecap="round" stroke-linejoin="round"></path><path d="M51.278 60.477L51.278 58.052" fill="none" stroke="#45413c" stroke-linecap="round" stroke-linejoin="round"></path><path d="M50,65.72a1.917,1.917,0,0,0-1.917,1.917v1.278a1.917,1.917,0,0,0,3.834,0V67.637A1.917,1.917,0,0,0,50,65.72Z" fill="#00b8f0"></path><path d="M50,65.72a1.917,1.917,0,0,0-1.917,1.917v1.278a1.9,1.9,0,0,0,.28,1l3.274-3.274A1.917,1.917,0,0,0,50,65.72Z" fill="#4acfff"></path><path d="M50,65.72a1.917,1.917,0,0,0-1.917,1.917v1.278a1.917,1.917,0,0,0,3.834,0V67.637A1.917,1.917,0,0,0,50,65.72Z" fill="none" stroke="#45413c" stroke-linecap="round" stroke-linejoin="round"></path><path d="M90,50a40,40,0,0,1-80,0" fill="none" stroke="#daedf7" stroke-linecap="round" stroke-linejoin="round"></path></g></svg>