<svg xmlns="http://www.w3.org/2000/svg" version="1.1" xmlns:xlink="http://www.w3.org/1999/xlink" xmlns:svgjs="http://svgjs.com/svgjs" viewBox="0 0 200 200" width="200" height="200"><g transform="matrix(2,0,0,2,0,0)"><path d="M10.000 55.188 A40.000 40.000 0 1 0 90.000 55.188 A40.000 40.000 0 1 0 10.000 55.188 Z" fill="#e8f4fa" stroke="#daedf7" stroke-linecap="round" stroke-linejoin="round"></path><path d="M33.559 87.627 A16.441 2.436 0 1 0 66.441 87.627 A16.441 2.436 0 1 0 33.559 87.627 Z" fill="#45413c" opacity=".15"></path><path d="M64.005 34.041 A2.436 2.436 0 1 0 68.877 34.041 A2.436 2.436 0 1 0 64.005 34.041 Z" fill="#ffe500"></path><path d="M66.441,33.432a2.436,2.436,0,0,0-2.258,1.522,2.436,2.436,0,1,1,4.516,0A2.436,2.436,0,0,0,66.441,33.432Z" fill="#ebcb00"></path><path d="M64.005 34.041 A2.436 2.436 0 1 0 68.877 34.041 A2.436 2.436 0 1 0 64.005 34.041 Z" fill="none" stroke="#45413c" stroke-linecap="round" stroke-linejoin="round"></path><path d="M68.268 34.041H70.70400000000001V46.22H68.268z" fill="#ff6242"></path><path d="M68.268 34.041H70.70400000000001V40.739H68.268z" fill="#e04122"></path><path d="M68.268 34.041H70.70400000000001V46.22H68.268z" fill="none" stroke="#45413c" stroke-linecap="round" stroke-linejoin="round"></path><path d="M68.268 34.041H70.70400000000001V46.22H68.268z" fill="none" stroke="#45413c" stroke-linecap="round" stroke-linejoin="round"></path><path d="M72.833 44.16H75.269V56.339H72.833z" fill="#ff6242" stroke="#45413c" stroke-linecap="round" stroke-linejoin="round" transform="translate(-12.625 72.516) rotate(-48.567)"></path><path d="M68.268,36.832a1.219,1.219,0,0,0,1.7,1.117,4.264,4.264,0,0,0,0-7.815,1.218,1.218,0,0,0-1.706,1.115Z" fill="#00b8f0"></path><path d="M68.82,30.23a1.215,1.215,0,0,1,1.154-.1A4.268,4.268,0,0,1,72.4,35.081a4.269,4.269,0,0,0-2.428-2.867,1.218,1.218,0,0,0-1.706,1.115v-2.08A1.218,1.218,0,0,1,68.82,30.23Z" fill="#4acfff"></path><path d="M68.268,36.832a1.219,1.219,0,0,0,1.7,1.117,4.264,4.264,0,0,0,0-7.815,1.218,1.218,0,0,0-1.706,1.115Z" fill="none" stroke="#45413c" stroke-linecap="round" stroke-linejoin="round"></path><path d="M67.659 46.220 A1.827 1.827 0 1 0 71.313 46.220 A1.827 1.827 0 1 0 67.659 46.220 Z" fill="#ffe500" stroke="#45413c" stroke-linecap="round" stroke-linejoin="round"></path><path d="M77.675,59.946a4.857,4.857,0,0,0,3.333,1.217,1.218,1.218,0,0,0-.055-2.435,2.436,2.436,0,1,1,2.369-2.684,1.218,1.218,0,0,0,2.423-.247,4.871,4.871,0,1,0-8.07,4.149Z" fill="#00b8f0" stroke="#45413c" stroke-linecap="round" stroke-linejoin="round"></path><path d="M31.123 34.041 A2.436 2.436 0 1 0 35.995 34.041 A2.436 2.436 0 1 0 31.123 34.041 Z" fill="#ffe500"></path><path d="M33.559,33.432a2.436,2.436,0,0,1,2.258,1.522,2.436,2.436,0,1,0-4.516,0A2.436,2.436,0,0,1,33.559,33.432Z" fill="#ebcb00"></path><path d="M31.123 34.041 A2.436 2.436 0 1 0 35.995 34.041 A2.436 2.436 0 1 0 31.123 34.041 Z" fill="none" stroke="#45413c" stroke-linecap="round" stroke-linejoin="round"></path><path d="M29.296 34.041H31.732V46.22H29.296z" fill="#ff6242"></path><path d="M29.296 34.041H31.732V40.739H29.296z" fill="#e04122"></path><path d="M29.296 34.041H31.732V46.22H29.296z" fill="none" stroke="#45413c" stroke-linecap="round" stroke-linejoin="round"></path><path d="M29.296 34.041H31.732V46.22H29.296z" fill="none" stroke="#45413c" stroke-linecap="round" stroke-linejoin="round"></path><path d="M19.86 49.031H32.039V51.467H19.86z" fill="#ff6242" stroke="#45413c" stroke-linecap="round" stroke-linejoin="round" transform="translate(-26.758 29.747) rotate(-41.433)"></path><path d="M62.283,29.274a2.434,2.434,0,0,0-1.722-.713H39.439a2.434,2.434,0,0,0-1.722.713L36.1,30.892a2.434,2.434,0,0,0-.713,1.722V54.136H64.614V32.614a2.434,2.434,0,0,0-.713-1.722Z" fill="#00b8f0"></path><path d="M63.9,30.892l-1.618-1.618a2.432,2.432,0,0,0-1.722-.713H39.439a2.434,2.434,0,0,0-1.722.713L36.1,30.892a2.434,2.434,0,0,0-.713,1.722V35.05a2.432,2.432,0,0,1,.713-1.722l1.618-1.618A2.435,2.435,0,0,1,39.439,31H60.561a2.433,2.433,0,0,1,1.722.714L63.9,33.328a2.432,2.432,0,0,1,.713,1.722V32.614A2.434,2.434,0,0,0,63.9,30.892Z" fill="#4acfff"></path><path d="M62.283,29.274a2.434,2.434,0,0,0-1.722-.713H39.439a2.434,2.434,0,0,0-1.722.713L36.1,30.892a2.434,2.434,0,0,0-.713,1.722V54.136H64.614V32.614a2.434,2.434,0,0,0-.713-1.722Z" fill="none" stroke="#45413c" stroke-linecap="round" stroke-linejoin="round"></path><path d="M66.659,83.364H33.341a1,1,0,0,1-1-1V79.711H67.659v2.653A1,1,0,0,1,66.659,83.364Z" fill="#ff6242"></path><path d="M66.441,81.538H33.559a1.218,1.218,0,0,1-1.218-1.218v1.826a1.218,1.218,0,0,0,1.218,1.218H66.441a1.218,1.218,0,0,0,1.218-1.218V80.32A1.218,1.218,0,0,1,66.441,81.538Z" fill="#e04122"></path><path d="M66.659,83.364H33.341a1,1,0,0,1-1-1V79.711H67.659v2.653A1,1,0,0,1,66.659,83.364Z" fill="none" stroke="#45413c" stroke-linecap="round" stroke-linejoin="round"></path><path d="M59.743,28.561H40.257V13.511a2,2,0,0,1,2-2H57.743a2,2,0,0,1,2,2Z" fill="#00b8f0"></path><path d="M59.743,13.946a2.436,2.436,0,0,0-2.436-2.435H42.693a2.436,2.436,0,0,0-2.436,2.435v1.827a2.436,2.436,0,0,1,2.436-2.436H57.307a2.436,2.436,0,0,1,2.436,2.436Z" fill="#4acfff"></path><path d="M59.743,28.561H40.257V13.511a2,2,0,0,1,2-2H57.743a2,2,0,0,1,2,2Z" fill="none" stroke="#45413c" stroke-linecap="round" stroke-linejoin="round"></path><path d="M31.732,36.832a1.219,1.219,0,0,1-1.7,1.117,4.264,4.264,0,0,1,0-7.815,1.218,1.218,0,0,1,1.706,1.115Z" fill="#00b8f0"></path><path d="M31.18,30.23a1.215,1.215,0,0,0-1.154-.1A4.268,4.268,0,0,0,27.6,35.081a4.269,4.269,0,0,1,2.428-2.867,1.218,1.218,0,0,1,1.706,1.115v-2.08A1.218,1.218,0,0,0,31.18,30.23Z" fill="#4acfff"></path><path d="M31.732,36.832a1.219,1.219,0,0,1-1.7,1.117,4.264,4.264,0,0,1,0-7.815,1.218,1.218,0,0,1,1.706,1.115Z" fill="none" stroke="#45413c" stroke-linecap="round" stroke-linejoin="round"></path><path d="M39.648,85.191a1.827,1.827,0,1,1-3.653,0V83.364h3.653Z" fill="#525252" stroke="#45413c" stroke-linecap="round" stroke-linejoin="round"></path><path d="M60.352,85.191a1.827,1.827,0,1,0,3.653,0V83.364H60.352Z" fill="#525252" stroke="#45413c" stroke-linecap="round" stroke-linejoin="round"></path><path d="M33.559 57.789L66.441 57.789 64.614 54.136 35.386 54.136 33.559 57.789z" fill="#ff6242"></path><path d="M65.528 55.962L64.614 54.136 35.386 54.136 34.472 55.962 65.528 55.962z" fill="#ff866e"></path><path d="M33.559 57.789L66.441 57.789 64.614 54.136 35.386 54.136 33.559 57.789z" fill="none" stroke="#45413c" stroke-linecap="round" stroke-linejoin="round"></path><path d="M45.129 57.789H54.872V79.71000000000001H45.129z" fill="#ffe500"></path><path d="M45.129 57.789H54.872V60.225H45.129z" fill="#ebcb00"></path><path d="M45.129 57.789H54.872V79.71000000000001H45.129z" fill="none" stroke="#45413c" stroke-linecap="round" stroke-linejoin="round"></path><path d="M28.687 46.220 A1.827 1.827 0 1 0 32.341 46.220 A1.827 1.827 0 1 0 28.687 46.220 Z" fill="#ffe500" stroke="#45413c" stroke-linecap="round" stroke-linejoin="round"></path><path d="M39.648 31.605 L60.352 31.605 L60.352 46.219 L39.648 46.219 Z" fill="#ffe500"></path><path d="M59.134,31.605H40.866a1.219,1.219,0,0,0-1.218,1.218v2.436a1.218,1.218,0,0,1,1.218-1.218H59.134a1.218,1.218,0,0,1,1.218,1.218V32.823A1.218,1.218,0,0,0,59.134,31.605Z" fill="#fff48c"></path><path d="M39.648 31.605 L60.352 31.605 L60.352 46.219 L39.648 46.219 Z" fill="none" stroke="#45413c" stroke-linecap="round" stroke-linejoin="round"></path><path d="M45.129 34.65H54.872V43.175H45.129z" fill="#80ddff"></path><path d="M45.129 43.175L45.129 34.65 54.871 34.65 45.129 43.175z" fill="#b8ecff"></path><path d="M45.129 34.65H54.872V43.175H45.129z" fill="none" stroke="#45413c" stroke-linecap="round" stroke-linejoin="round"></path><path d="M42.084 34.954 A0.304 0.304 0 1 0 42.692 34.954 A0.304 0.304 0 1 0 42.084 34.954 Z" fill="#45413c" stroke="#45413c" stroke-linecap="round" stroke-linejoin="round"></path><path d="M42.084 38.913 A0.304 0.304 0 1 0 42.692 38.913 A0.304 0.304 0 1 0 42.084 38.913 Z" fill="#45413c" stroke="#45413c" stroke-linecap="round" stroke-linejoin="round"></path><path d="M42.084 42.871 A0.304 0.304 0 1 0 42.692 42.871 A0.304 0.304 0 1 0 42.084 42.871 Z" fill="#45413c" stroke="#45413c" stroke-linecap="round" stroke-linejoin="round"></path><path d="M57.308 34.954 A0.304 0.304 0 1 0 57.916 34.954 A0.304 0.304 0 1 0 57.308 34.954 Z" fill="#45413c" stroke="#45413c" stroke-linecap="round" stroke-linejoin="round"></path><path d="M57.308 38.913 A0.304 0.304 0 1 0 57.916 38.913 A0.304 0.304 0 1 0 57.308 38.913 Z" fill="#45413c" stroke="#45413c" stroke-linecap="round" stroke-linejoin="round"></path><path d="M57.308 42.871 A0.304 0.304 0 1 0 57.916 42.871 A0.304 0.304 0 1 0 57.308 42.871 Z" fill="#45413c" stroke="#45413c" stroke-linecap="round" stroke-linejoin="round"></path><path d="M43.911,50.482A1.218,1.218,0,0,1,42.693,51.7H39.039a1.218,1.218,0,0,1,0-2.436h3.654A1.219,1.219,0,0,1,43.911,50.482Z" fill="#80ddff"></path><path d="M39.039,49.264a1.218,1.218,0,0,0,0,2.436h.609l2.436-2.436Z" fill="#b8ecff"></path><path d="M43.911,50.482A1.218,1.218,0,0,1,42.693,51.7H39.039a1.218,1.218,0,0,1,0-2.436h3.654A1.219,1.219,0,0,1,43.911,50.482Z" fill="none" stroke="#45413c" stroke-linecap="round" stroke-linejoin="round"></path><path d="M62.179,50.482A1.218,1.218,0,0,1,60.961,51.7H57.307a1.218,1.218,0,0,1,0-2.436h3.654A1.219,1.219,0,0,1,62.179,50.482Z" fill="#80ddff"></path><path d="M57.307,49.264a1.218,1.218,0,0,0,0,2.436h.609l2.436-2.436Z" fill="#b8ecff"></path><path d="M62.179,50.482A1.218,1.218,0,0,1,60.961,51.7H57.307a1.218,1.218,0,0,1,0-2.436h3.654A1.219,1.219,0,0,1,62.179,50.482Z" fill="none" stroke="#45413c" stroke-linecap="round" stroke-linejoin="round"></path><path d="M22.325,59.946a4.857,4.857,0,0,1-3.333,1.217,1.218,1.218,0,1,1,.055-2.435,2.436,2.436,0,1,0-2.369-2.684,1.218,1.218,0,1,1-2.423-.247,4.871,4.871,0,1,1,8.07,4.149Z" fill="#00b8f0" stroke="#45413c" stroke-linecap="round" stroke-linejoin="round"></path><path d="M42.693 22.471 L57.307 22.471 L57.307 26.125 L42.693 26.125 Z" fill="#00658a"></path><path d="M42.693 22.471 L57.307 22.471 L57.307 26.125 L42.693 26.125 Z" fill="#ff6242" stroke="#45413c" stroke-linecap="round" stroke-linejoin="round"></path><path d="M42.693 16.382 A2.436 2.436 0 1 0 47.565 16.382 A2.436 2.436 0 1 0 42.693 16.382 Z" fill="#ffe500"></path><path d="M43.406,18.1a2.436,2.436,0,0,1,3.445-3.444Z" fill="#fff48c"></path><path d="M42.693 16.382 A2.436 2.436 0 1 0 47.565 16.382 A2.436 2.436 0 1 0 42.693 16.382 Z" fill="none" stroke="#45413c" stroke-linecap="round" stroke-linejoin="round"></path><path d="M52.435 16.382 A2.436 2.436 0 1 0 57.307 16.382 A2.436 2.436 0 1 0 52.435 16.382 Z" fill="#ffe500"></path><path d="M53.149,18.1a2.436,2.436,0,1,1,3.445-3.444Z" fill="#fff48c"></path><path d="M52.435 16.382 A2.436 2.436 0 1 0 57.307 16.382 A2.436 2.436 0 1 0 52.435 16.382 Z" fill="none" stroke="#45413c" stroke-linecap="round" stroke-linejoin="round"></path><path d="M40.257,24.3a4.872,4.872,0,0,1,0-9.743Z" fill="#ff6242"></path><path d="M35.386,19.427a4.9,4.9,0,0,0,.153,1.218,4.874,4.874,0,0,1,4.718-3.654V14.555A4.871,4.871,0,0,0,35.386,19.427Z" fill="#ff866e"></path><path d="M40.257,24.3a4.872,4.872,0,0,1,0-9.743Z" fill="none" stroke="#45413c" stroke-linecap="round" stroke-linejoin="round"></path><path d="M59.743,24.3a4.872,4.872,0,0,0,0-9.743Z" fill="#ff6242"></path><path d="M64.614,19.427a4.9,4.9,0,0,1-.153,1.218,4.874,4.874,0,0,0-4.718-3.654V14.555A4.871,4.871,0,0,1,64.614,19.427Z" fill="#ff866e"></path><path d="M59.743,24.3a4.872,4.872,0,0,0,0-9.743Z" fill="none" stroke="#45413c" stroke-linecap="round" stroke-linejoin="round"></path><path d="M51.634,5.957a1.738,1.738,0,0,0-3.268,0l-2.02,5.554h7.308Z" fill="#ff6242"></path><path d="M50,7.248a5.2,5.2,0,0,1,2.3.54l-.666-1.831a1.738,1.738,0,0,0-3.268,0L47.7,7.788A5.2,5.2,0,0,1,50,7.248Z" fill="#ff866e"></path><path d="M51.634,5.957a1.738,1.738,0,0,0-3.268,0l-2.02,5.554h7.308Z" fill="none" stroke="#45413c" stroke-linecap="round" stroke-linejoin="round"></path><path d="M45.129 63.27L45.129 57.789 33.559 57.789 33.254 63.27 45.129 63.27z" fill="#adc4d9"></path><path d="M33.424 60.225L45.129 60.225 45.129 57.789 33.559 57.789 33.424 60.225z" fill="#c0dceb"></path><path d="M32.95 68.75L45.129 68.75 45.129 63.27 33.254 63.27 32.95 68.75z" fill="#adc4d9"></path><path d="M33.119 65.705L45.129 65.705 45.129 63.27 33.254 63.27 33.119 65.705z" fill="#c0dceb"></path><path d="M32.646 74.23L45.129 74.23 45.129 68.75 32.95 68.75 32.646 74.23z" fill="#adc4d9"></path><path d="M32.95 68.75L32.815 71.186 45.129 71.186 45.129 68.75 32.95 68.75z" fill="#c0dceb"></path><path d="M32.646 74.23L32.341 79.711 45.129 79.711 45.129 74.23 32.646 74.23z" fill="#adc4d9"></path><path d="M32.646 74.23L32.51 76.666 45.129 76.666 45.129 74.23 32.646 74.23z" fill="#c0dceb"></path><path d="M45.129 63.27L45.129 57.789 33.559 57.789 33.254 63.27 45.129 63.27z" fill="none" stroke="#45413c" stroke-linecap="round" stroke-linejoin="round"></path><path d="M32.95 68.75L45.129 68.75 45.129 63.27 33.254 63.27 32.95 68.75z" fill="none" stroke="#45413c" stroke-linecap="round" stroke-linejoin="round"></path><path d="M32.646 74.23L45.129 74.23 45.129 68.75 32.95 68.75 32.646 74.23z" fill="none" stroke="#45413c" stroke-linecap="round" stroke-linejoin="round"></path><path d="M32.646 74.23L32.341 79.711 45.129 79.711 45.129 74.23 32.646 74.23z" fill="none" stroke="#45413c" stroke-linecap="round" stroke-linejoin="round"></path><path d="M54.871 63.27L54.871 57.789 66.441 57.789 66.746 63.27 54.871 63.27z" fill="#adc4d9"></path><path d="M66.576 60.225L54.871 60.225 54.871 57.789 66.441 57.789 66.576 60.225z" fill="#c0dceb"></path><path d="M67.05 68.75L54.871 68.75 54.871 63.27 66.746 63.27 67.05 68.75z" fill="#adc4d9"></path><path d="M66.881 65.705L54.871 65.705 54.871 63.27 66.746 63.27 66.881 65.705z" fill="#c0dceb"></path><path d="M67.354 74.23L54.871 74.23 54.871 68.75 67.05 68.75 67.354 74.23z" fill="#adc4d9"></path><path d="M67.05 68.75L67.185 71.186 54.871 71.186 54.871 68.75 67.05 68.75z" fill="#c0dceb"></path><path d="M67.354 74.23L67.659 79.711 54.871 79.711 54.871 74.23 67.354 74.23z" fill="#adc4d9"></path><path d="M67.354 74.23L67.49 76.666 54.871 76.666 54.871 74.23 67.354 74.23z" fill="#c0dceb"></path><path d="M54.871 63.27L54.871 57.789 66.441 57.789 66.746 63.27 54.871 63.27z" fill="none" stroke="#45413c" stroke-linecap="round" stroke-linejoin="round"></path><path d="M67.05 68.75L54.871 68.75 54.871 63.27 66.746 63.27 67.05 68.75z" fill="none" stroke="#45413c" stroke-linecap="round" stroke-linejoin="round"></path><path d="M67.354 74.23L54.871 74.23 54.871 68.75 67.05 68.75 67.354 74.23z" fill="none" stroke="#45413c" stroke-linecap="round" stroke-linejoin="round"></path><path d="M67.354 74.23L67.659 79.711 54.871 79.711 54.871 74.23 67.354 74.23z" fill="none" stroke="#45413c" stroke-linecap="round" stroke-linejoin="round"></path></g></svg>