<svg xmlns="http://www.w3.org/2000/svg" version="1.1" xmlns:xlink="http://www.w3.org/1999/xlink" xmlns:svgjs="http://svgjs.com/svgjs" viewBox="0 0 200 200" width="200" height="200"><g transform="matrix(2,0,0,2,0,0)"><path d="M10.000 50.000 A40.000 40.000 0 1 0 90.000 50.000 A40.000 40.000 0 1 0 10.000 50.000 Z" fill="#e8f4fa" stroke="#daedf7" stroke-linecap="round" stroke-linejoin="round"></path><path d="M27.498 77.474 A25.516 3.062 0 1 0 78.530 77.474 A25.516 3.062 0 1 0 27.498 77.474 Z" fill="#45413c" opacity=".15"></path><path d="M28,71.841c-2.041.011-4.584,1.556-4.571,4.107l0,.511a1.021,1.021,0,0,0,1.026,1.015l3.062-.017a3.953,3.953,0,0,0,4.063-3.594l-.011-2.042Z" fill="#525252"></path><path d="M28,71.841c-2.041.011-4.584,1.556-4.571,4.107l0,.511a1.021,1.021,0,0,0,1.026,1.015l3.062-.017a3.953,3.953,0,0,0,4.063-3.594l-.011-2.042Z" fill="none" stroke="#45413c" stroke-linecap="round" stroke-linejoin="round"></path><path d="M41.838,57.654a2.04,2.04,0,0,1-2.23,1A8.121,8.121,0,0,1,35.922,56.6a2.04,2.04,0,0,1-.324-2.422l4.13-7.407a3.062,3.062,0,0,1,4.165-1.183l.892.5a3.063,3.063,0,0,1,1.183,4.166Z" fill="#bdbec0"></path><path d="M45.968,50.248a3.063,3.063,0,0,0-1.183-4.166l-.892-.5a3.062,3.062,0,0,0-4.165,1.183l-.5.892a2.041,2.041,0,0,1,2.777-.789l2.674,1.491a2.041,2.041,0,0,1,.789,2.777Z" fill="#ffffff"></path><path d="M41.838,57.654a2.04,2.04,0,0,1-2.23,1A8.121,8.121,0,0,1,35.922,56.6a2.04,2.04,0,0,1-.324-2.422l4.13-7.407a3.062,3.062,0,0,1,4.165-1.183l.892.5a3.063,3.063,0,0,1,1.183,4.166Z" fill="#daedf7" stroke="#45413c" stroke-linecap="round" stroke-linejoin="round"></path><path d="M39.188,60.271a3.062,3.062,0,0,0-6.1.543,3.906,3.906,0,0,1-.9,2.853l-5.823,6.96a1.019,1.019,0,0,0,.337,1.573l3.326,1.614a4.37,4.37,0,0,0,5.26-1.128A17,17,0,0,0,39.188,60.271Z" fill="#daedf7"></path><path d="M39.188,60.271a3.062,3.062,0,0,0-6.1.543,3.906,3.906,0,0,1-.9,2.853l-5.823,6.96a1.019,1.019,0,0,0,.337,1.573l3.326,1.614a4.37,4.37,0,0,0,5.26-1.128A17,17,0,0,0,39.188,60.271Z" fill="none" stroke="#45413c" stroke-linecap="round" stroke-linejoin="round"></path><path d="M35.117 60.543 A1.021 1.021 0 1 0 37.159 60.543 A1.021 1.021 0 1 0 35.117 60.543 Z" fill="#45413c" stroke="#45413c" stroke-linecap="round" stroke-linejoin="round"></path><path d="M74.194,39.206a3.935,3.935,0,0,0,1.44-.568,8.332,8.332,0,0,0,1.61-1.366,11.48,11.48,0,0,0,2.372-3.948,14.48,14.48,0,0,0,.812-4.817,19.944,19.944,0,0,0-.777-5.093l-.026-.1a1.531,1.531,0,0,1,2.888-.99,23.452,23.452,0,0,1,1.773,5.858,18.781,18.781,0,0,1-.15,6.359,16.58,16.58,0,0,1-2.56,6.1,11.515,11.515,0,0,1-5.854,4.672l-.329.114A3.2,3.2,0,1,1,73.3,39.378,3.293,3.293,0,0,1,74.194,39.206Z" fill="#656769"></path><path d="M84.286,28.182c-.042-.294-.093-.586-.15-.875a18.153,18.153,0,0,1-.342,4.115,16.6,16.6,0,0,1-2.56,6.1A11.526,11.526,0,0,1,75.38,42.2l-.329.114A3.2,3.2,0,0,1,71.4,41.151a3.2,3.2,0,0,0,3.994,4.28l.329-.114a11.515,11.515,0,0,0,5.854-4.672,16.58,16.58,0,0,0,2.56-6.1A18.781,18.781,0,0,0,84.286,28.182Z" fill="#525252"></path><path d="M74.194,39.206a3.935,3.935,0,0,0,1.44-.568,8.332,8.332,0,0,0,1.61-1.366,11.48,11.48,0,0,0,2.372-3.948,14.48,14.48,0,0,0,.812-4.817,19.944,19.944,0,0,0-.777-5.093l-.026-.1a1.531,1.531,0,0,1,2.888-.99,23.452,23.452,0,0,1,1.773,5.858,18.781,18.781,0,0,1-.15,6.359,16.58,16.58,0,0,1-2.56,6.1,11.515,11.515,0,0,1-5.854,4.672l-.329.114A3.2,3.2,0,1,1,73.3,39.378,3.293,3.293,0,0,1,74.194,39.206Z" fill="none" stroke="#45413c" stroke-linecap="round" stroke-linejoin="round"></path><path d="M75.814,72.415c-2.041-.059-4.635,1.4-4.709,3.949l-.014.51a1.02,1.02,0,0,0,.991,1.049l3.06.088a3.954,3.954,0,0,0,4.184-3.453l.058-2.041Z" fill="#525252"></path><path d="M75.814,72.415c-2.041-.059-4.635,1.4-4.709,3.949l-.014.51a1.02,1.02,0,0,0,.991,1.049l3.06.088a3.954,3.954,0,0,0,4.184-3.453l.058-2.041Z" fill="none" stroke="#45413c" stroke-linecap="round" stroke-linejoin="round"></path><path d="M69.691,60.732a3.062,3.062,0,0,1,6.06.885,3.907,3.907,0,0,0,.733,2.9L80.7,70.169a2.6,2.6,0,0,1-1.084,3.955,1.017,1.017,0,0,1-.955-.09,6.447,6.447,0,0,0-5.343-.812.642.642,0,0,1-.7-.248A17,17,0,0,1,69.691,60.732Z" fill="#daedf7"></path><path d="M69.691,60.732a3.062,3.062,0,0,1,6.06.885,3.907,3.907,0,0,0,.733,2.9L80.7,70.169a2.6,2.6,0,0,1-1.084,3.955,1.017,1.017,0,0,1-.955-.09,6.447,6.447,0,0,0-5.343-.812.642.642,0,0,1-.7-.248A17,17,0,0,1,69.691,60.732Z" fill="none" stroke="#45413c" stroke-linecap="round" stroke-linejoin="round"></path><path d="M71.700 61.175 A1.021 1.021 0 1 0 73.742 61.175 A1.021 1.021 0 1 0 71.700 61.175 Z" fill="#45413c" stroke="#45413c" stroke-linecap="round" stroke-linejoin="round"></path><path d="M73.789,54.873a2.042,2.042,0,0,1-.524,2.387A8.108,8.108,0,0,1,69.42,59a2.037,2.037,0,0,1-2.139-1.18l-3.5-7.724a3.062,3.062,0,0,1,1.526-4.053l.929-.421a3.063,3.063,0,0,1,4.053,1.526Z" fill="#bdbec0"></path><path d="M73.789,54.873a2.042,2.042,0,0,1-.524,2.387A8.108,8.108,0,0,1,69.42,59a2.037,2.037,0,0,1-2.139-1.18l-3.5-7.724a3.062,3.062,0,0,1,1.526-4.053l.929-.421a3.063,3.063,0,0,1,4.053,1.526Z" fill="#daedf7" stroke="#45413c" stroke-linecap="round" stroke-linejoin="round"></path><path d="M35.833 27.741H40.936V37.947H35.833z" fill="#525252" stroke="#45413c" stroke-linecap="round" stroke-linejoin="round" transform="translate(-10.194 18.981) rotate(-24.625)"></path><path d="M77.51,45.834a11.739,11.739,0,0,0-18.052-9.9,8.176,8.176,0,0,1-8.8,0,11.737,11.737,0,1,0,0,19.79,8.172,8.172,0,0,1,8.8,0,11.74,11.74,0,0,0,18.052-9.9Z" fill="#ffffff"></path><path d="M65.772,55.53a11.68,11.68,0,0,1-6.314-1.842,8.176,8.176,0,0,0-8.8,0,11.738,11.738,0,0,1-18.008-8.874c-.029.336-.045.677-.045,1.021a11.74,11.74,0,0,0,18.053,9.895,8.174,8.174,0,0,1,8.8,0A11.739,11.739,0,0,0,77.51,45.834c0-.344-.016-.685-.045-1.021A11.738,11.738,0,0,1,65.772,55.53Z" fill="#daedf7"></path><path d="M77.51,45.834a11.739,11.739,0,0,0-18.052-9.9,8.176,8.176,0,0,1-8.8,0,11.737,11.737,0,1,0,0,19.79,8.172,8.172,0,0,1,8.8,0,11.74,11.74,0,0,0,18.052-9.9Z" fill="none" stroke="#45413c" stroke-linecap="round" stroke-linejoin="round"></path><path d="M44.339,50.427a7.148,7.148,0,0,1-7.031-5.869,7.145,7.145,0,1,0,14.175,1.276,7.244,7.244,0,0,0-.113-1.276A7.148,7.148,0,0,1,44.339,50.427Z" fill="#e8f4fa"></path><path d="M44.339,41.241A7.147,7.147,0,0,1,51.37,47.11a7.261,7.261,0,0,0,.113-1.276A7.145,7.145,0,1,0,37.308,47.11,7.147,7.147,0,0,1,44.339,41.241Z" fill="#ffffff"></path><path d="M37.194 45.834 A7.145 7.145 0 1 0 51.484 45.834 A7.145 7.145 0 1 0 37.194 45.834 Z" fill="none" stroke="#45413c" stroke-linecap="round" stroke-linejoin="round"></path><path d="M65.772,50.427a7.146,7.146,0,0,1-7.03-5.869,7.145,7.145,0,1,0,14.061,0A7.146,7.146,0,0,1,65.772,50.427Z" fill="#e8f4fa"></path><path d="M65.772,41.241A7.145,7.145,0,0,1,72.8,47.11a7.145,7.145,0,1,0-14.061,0A7.145,7.145,0,0,1,65.772,41.241Z" fill="#ffffff"></path><path d="M58.627 45.834 A7.145 7.145 0 1 0 72.917 45.834 A7.145 7.145 0 1 0 58.627 45.834 Z" fill="none" stroke="#45413c" stroke-linecap="round" stroke-linejoin="round"></path><path d="M58.2,55.069l-.346-3.633a2.806,2.806,0,0,0-5.587,0l-.346,3.633A8.183,8.183,0,0,1,58.2,55.069Z" fill="#656769"></path><path d="M55.056,50.935a3.467,3.467,0,0,0-2.894,1.555l.1-1.054a2.806,2.806,0,0,1,5.587,0l.1,1.054A3.47,3.47,0,0,0,55.056,50.935Z" fill="#525252"></path><path d="M58.2,55.069l-.346-3.633a2.806,2.806,0,0,0-5.587,0l-.346,3.633A8.183,8.183,0,0,1,58.2,55.069Z" fill="none" stroke="#45413c" stroke-linecap="round" stroke-linejoin="round"></path><path d="M31.156 28.205 A5.103 5.103 0 1 0 41.362 28.205 A5.103 5.103 0 1 0 31.156 28.205 Z" fill="#656769"></path><path d="M34.132,23.566A5.1,5.1,0,0,0,34.522,33a2.621,2.621,0,0,0,.027-.426,2.614,2.614,0,0,1,.725-1.868l1.5-1.562a.879.879,0,0,1,1.252-.02l.964.944a1.332,1.332,0,0,0,2.223-.624,5.1,5.1,0,0,0-7.077-5.881Z" fill="#525252"></path><path d="M31.156 28.205 A5.103 5.103 0 1 0 41.362 28.205 A5.103 5.103 0 1 0 31.156 28.205 Z" fill="none" stroke="#45413c" stroke-linecap="round" stroke-linejoin="round"></path><path d="M40.183,12.205a8.872,8.872,0,0,0-12.041.865L14.434,27.384a8.873,8.873,0,0,0-.345,12.067A8.676,8.676,0,0,0,26.76,39.6l5.957-6.221a2.6,2.6,0,0,0,.726-1.86,2.616,2.616,0,0,1,.725-1.868l3.834-4a2.488,2.488,0,0,1,1.74-.766,2.433,2.433,0,0,0,1.937-.99A8.677,8.677,0,0,0,40.183,12.205Z" fill="#45413c"></path><path d="M33.975,12.432A13.422,13.422,0,0,1,42.656,15.6a8.673,8.673,0,0,0-2.473-3.395,8.872,8.872,0,0,0-12.041.865l-1.41,1.472A13.412,13.412,0,0,1,33.975,12.432Z" fill="#87898c"></path><path d="M40.183,12.205a8.872,8.872,0,0,0-12.041.865L14.434,27.384a8.873,8.873,0,0,0-.345,12.067A8.676,8.676,0,0,0,26.76,39.6l5.957-6.221a2.6,2.6,0,0,0,.726-1.86,2.616,2.616,0,0,1,.725-1.868l3.834-4a2.488,2.488,0,0,1,1.74-.766,2.433,2.433,0,0,0,1.937-.99A8.677,8.677,0,0,0,40.183,12.205Z" fill="none" stroke="#45413c" stroke-linecap="round" stroke-linejoin="round"></path><path d="M42.908,16.312a5.1,5.1,0,0,1-1.417,3.478,6.16,6.16,0,0,1-4.316,1.9l-.71.016a6.062,6.062,0,0,0-5.9,5.441L30.4,28.773a6.13,6.13,0,0,1-1.669,3.608l-4.68,4.886a9.431,9.431,0,0,1-8.251,2.8l-1.3-.2A8.675,8.675,0,0,0,26.76,39.6l5.957-6.221a2.6,2.6,0,0,0,.726-1.86,2.614,2.614,0,0,1,.725-1.868l3.834-4a2.488,2.488,0,0,1,1.74-.766,2.433,2.433,0,0,0,1.937-.99A8.683,8.683,0,0,0,42.908,16.312Z" fill="#ffffff"></path><path d="M40.573,22.832a2.442,2.442,0,0,1-1.937.99,2.479,2.479,0,0,0-1.74.765l-3.834,4a2.617,2.617,0,0,0-.725,1.869,2.6,2.6,0,0,1-.726,1.86L25.653,38.54a8.678,8.678,0,0,1-10.835,1.375l-.323-.05A8.675,8.675,0,0,0,26.76,39.6l5.957-6.221a2.6,2.6,0,0,0,.726-1.86,2.614,2.614,0,0,1,.725-1.868l3.834-4a2.488,2.488,0,0,1,1.74-.766,2.433,2.433,0,0,0,1.937-.99,8.683,8.683,0,0,0,1.229-7.579,5.106,5.106,0,0,1-.814,2.715A8.63,8.63,0,0,1,40.573,22.832Z" fill="#e8f4fa"></path><path d="M42.908,16.312a5.1,5.1,0,0,1-1.417,3.478,6.16,6.16,0,0,1-4.316,1.9l-.71.016a6.062,6.062,0,0,0-5.9,5.441L30.4,28.773a6.13,6.13,0,0,1-1.669,3.608l-4.68,4.886a9.431,9.431,0,0,1-8.251,2.8l-1.3-.2A8.675,8.675,0,0,0,26.76,39.6l5.957-6.221a2.6,2.6,0,0,0,.726-1.86,2.614,2.614,0,0,1,.725-1.868l3.834-4a2.488,2.488,0,0,1,1.74-.766,2.433,2.433,0,0,0,1.937-.99A8.683,8.683,0,0,0,42.908,16.312Z" fill="none" stroke="#45413c" stroke-linecap="round" stroke-linejoin="round"></path><path d="M32.172,15.079a3.756,3.756,0,0,1,4.812-.517l6.488,4.373A5.1,5.1,0,0,1,45.4,24.96l-.9,2.4a3.062,3.062,0,0,1-5.152.962l-7.264-8.146A3.755,3.755,0,0,1,32.172,15.079Z" fill="#ffffff"></path><path d="M36.893,25.571l2.453,2.751A3.062,3.062,0,0,0,44.5,27.36l.709-1.891C42.144,27.76,40.1,27.323,36.893,25.571Z" fill="#e8f4fa"></path><path d="M32.172,15.079a3.756,3.756,0,0,1,4.812-.517l6.488,4.373A5.1,5.1,0,0,1,45.4,24.96l-.9,2.4a3.062,3.062,0,0,1-5.152.962l-7.264-8.146A3.755,3.755,0,0,1,32.172,15.079Z" fill="none" stroke="#45413c" stroke-linecap="round" stroke-linejoin="round"></path><path d="M33.291 17.476 A1.531 1.531 0 1 0 36.353 17.476 A1.531 1.531 0 1 0 33.291 17.476 Z" fill="#87898c"></path><path d="M33.717,17.779a1.532,1.532,0,0,1,2.477.378,1.531,1.531,0,1,0-2.743,0A1.534,1.534,0,0,1,33.717,17.779Z" fill="#bdbec0"></path><path d="M33.291 17.476 A1.531 1.531 0 1 0 36.353 17.476 A1.531 1.531 0 1 0 33.291 17.476 Z" fill="none" stroke="#45413c" stroke-linecap="round" stroke-linejoin="round"></path><path d="M23.773 25.215 A0.510 0.510 0 1 0 24.793 25.215 A0.510 0.510 0 1 0 23.773 25.215 Z" fill="#ffffff" stroke="#ffffff" stroke-linecap="round" stroke-linejoin="round"></path><path d="M21.655 27.427 A0.510 0.510 0 1 0 22.675 27.427 A0.510 0.510 0 1 0 21.655 27.427 Z" fill="#ffffff" stroke="#ffffff" stroke-linecap="round" stroke-linejoin="round"></path><path d="M20.503 24.203 A0.510 0.510 0 1 0 21.523 24.203 A0.510 0.510 0 1 0 20.503 24.203 Z" fill="#ffffff" stroke="#ffffff" stroke-linecap="round" stroke-linejoin="round"></path><path d="M18.385 26.415 A0.510 0.510 0 1 0 19.405 26.415 A0.510 0.510 0 1 0 18.385 26.415 Z" fill="#ffffff" stroke="#ffffff" stroke-linecap="round" stroke-linejoin="round"></path><path d="M19.537 29.638 A0.510 0.510 0 1 0 20.557 29.638 A0.510 0.510 0 1 0 19.537 29.638 Z" fill="#ffffff" stroke="#ffffff" stroke-linecap="round" stroke-linejoin="round"></path><path d="M48.554,75.223c-2.041-.06-4.636,1.395-4.711,3.946l-.015.51a1.021,1.021,0,0,0,.991,1.05l3.06.09a3.955,3.955,0,0,0,4.186-3.451l.06-2.041Z" fill="#656769"></path><path d="M46.094,75.82a8.251,8.251,0,0,0,4.689,3.991,3.543,3.543,0,0,0,1.282-2.443l.06-2.041-3.571-.1A5.068,5.068,0,0,0,46.094,75.82Z" fill="#525252"></path><path d="M48.554,75.223c-2.041-.06-4.636,1.395-4.711,3.946l-.015.51a1.021,1.021,0,0,0,.991,1.05l3.06.09a3.955,3.955,0,0,0,4.186-3.451l.06-2.041Z" fill="none" stroke="#45413c" stroke-linecap="round" stroke-linejoin="round"></path><path d="M51.5,55.565a2.043,2.043,0,0,1-.739,2.329,8.108,8.108,0,0,1-3.987,1.384,2.038,2.038,0,0,1-2.023-1.37L41.969,49.9A3.062,3.062,0,0,1,43.857,46l.964-.335a3.063,3.063,0,0,1,3.9,1.888Z" fill="#f0f0f0"></path><path d="M48.718,47.554a3.063,3.063,0,0,0-3.9-1.888L43.857,46a3.062,3.062,0,0,0-1.888,3.9l.335.964a2.041,2.041,0,0,1,1.258-2.6l2.893-1a2.042,2.042,0,0,1,2.6,1.258Z" fill="#ffffff"></path><path d="M51.5,55.565a2.043,2.043,0,0,1-.739,2.329,8.108,8.108,0,0,1-3.987,1.384,2.038,2.038,0,0,1-2.023-1.37L41.969,49.9A3.062,3.062,0,0,1,43.857,46l.964-.335a3.063,3.063,0,0,1,3.9,1.888Z" fill="none" stroke="#45413c" stroke-linecap="round" stroke-linejoin="round"></path><path d="M52.485,60.16a3.062,3.062,0,1,0-5.243,3.165,3.9,3.9,0,0,1,.448,2.957l-2.177,8.809a1.02,1.02,0,0,0,.993,1.265l3.7-.009a4.37,4.37,0,0,0,4.231-3.322A17,17,0,0,0,52.485,60.16Z" fill="#ffffff"></path><path d="M46.864,62.358a3.062,3.062,0,0,1,5.621-2.2q.275.455.518.922C50.643,59.839,48.685,59.875,46.864,62.358Z" fill="#daedf7"></path><path d="M52.485,60.16a3.062,3.062,0,1,0-5.243,3.165,3.9,3.9,0,0,1,.448,2.957l-2.177,8.809a1.02,1.02,0,0,0,.993,1.265l3.7-.009a4.37,4.37,0,0,0,4.231-3.322A17,17,0,0,0,52.485,60.16Z" fill="none" stroke="#45413c" stroke-linecap="round" stroke-linejoin="round"></path><path d="M48.843 61.742 A1.021 1.021 0 1 0 50.885 61.742 A1.021 1.021 0 1 0 48.843 61.742 Z" fill="#45413c" stroke="#45413c" stroke-linecap="round" stroke-linejoin="round"></path><path d="M69.138,69.768c1.327,1.551,4.149,2.494,6.088.835l.388-.331a1.021,1.021,0,0,0,.112-1.439l-1.991-2.327a3.954,3.954,0,0,0-5.369-.779l-1.551,1.327Z" fill="#656769"></path><path d="M68.366,65.727a3.954,3.954,0,0,1,5.369.779l.542.634c-2.192.593-3.319.947-4.331,3.367a4.7,4.7,0,0,1-.808-.739l-2.323-2.714Z" fill="#525252"></path><path d="M69.138,69.768c1.327,1.551,4.149,2.494,6.088.835l.388-.331a1.021,1.021,0,0,0,.112-1.439l-1.991-2.327a3.954,3.954,0,0,0-5.369-.779l-1.551,1.327Z" fill="none" stroke="#45413c" stroke-linecap="round" stroke-linejoin="round"></path><path d="M57.011,63.36a3.062,3.062,0,0,1,4.724-3.9,3.905,3.905,0,0,0,2.641,1.4l7.017.673A2.6,2.6,0,0,1,73.6,65a1.018,1.018,0,0,1-.708.648A6.449,6.449,0,0,0,68.7,69.059a.639.639,0,0,1-.655.355A17,17,0,0,1,57.011,63.36Z" fill="#ffffff"></path><path d="M57.424,59.05a3.063,3.063,0,0,1,4.311.413,3.894,3.894,0,0,0,1.476,1.1c-2.2-.434-3.995-1.119-6.715-.2A3.05,3.05,0,0,1,57.424,59.05Z" fill="#daedf7"></path><path d="M57.011,63.36a3.062,3.062,0,0,1,4.724-3.9,3.905,3.905,0,0,0,2.641,1.4l7.017.673A2.6,2.6,0,0,1,73.6,65a1.018,1.018,0,0,1-.708.648A6.449,6.449,0,0,0,68.7,69.059a.639.639,0,0,1-.655.355A17,17,0,0,1,57.011,63.36Z" fill="none" stroke="#45413c" stroke-linecap="round" stroke-linejoin="round"></path><path d="M58.352 61.412 A1.021 1.021 0 1 0 60.394 61.412 A1.021 1.021 0 1 0 58.352 61.412 Z" fill="#45413c" stroke="#45413c" stroke-linecap="round" stroke-linejoin="round"></path><path d="M64.691,57.867a2.043,2.043,0,0,1-2.1,1.256,8.123,8.123,0,0,1-3.9-1.6,2.041,2.041,0,0,1-.609-2.367l3.223-7.843A3.06,3.06,0,0,1,65.3,45.64l.944.388a3.06,3.06,0,0,1,1.669,4Z" fill="#f0f0f0"></path><path d="M67.913,50.023a3.06,3.06,0,0,0-1.669-4L65.3,45.64a3.06,3.06,0,0,0-3.995,1.669l-.388.944a2.042,2.042,0,0,1,2.664-1.113L66.413,48.3a2.04,2.04,0,0,1,1.112,2.663Z" fill="#ffffff"></path><path d="M64.691,57.867a2.043,2.043,0,0,1-2.1,1.256,8.123,8.123,0,0,1-3.9-1.6,2.041,2.041,0,0,1-.609-2.367l3.223-7.843A3.06,3.06,0,0,1,65.3,45.64l.944.388a3.06,3.06,0,0,1,1.669,4Z" fill="none" stroke="#45413c" stroke-linecap="round" stroke-linejoin="round"></path></g></svg>