<svg xmlns="http://www.w3.org/2000/svg" version="1.1" xmlns:xlink="http://www.w3.org/1999/xlink" xmlns:svgjs="http://svgjs.com/svgjs" viewBox="0 0 200 200" width="200" height="200"><g transform="matrix(2,0,0,2,0,0)"><path d="M2.986 50.252 A40.000 40.000 0 1 0 82.986 50.252 A40.000 40.000 0 1 0 2.986 50.252 Z" fill="#e8f4fa" stroke="#daedf7" stroke-miterlimit="10"></path><path d="M43.265,74.337a2.1,2.1,0,0,1-.955-2.649,65.557,65.557,0,0,1,11.2-18.433A2.1,2.1,0,0,1,56.7,55.983,62.159,62.159,0,0,0,46.2,73.28a2.1,2.1,0,0,1-2.931,1.057Z" fill="#e0e0e0" stroke="#45413c" stroke-linecap="round" stroke-linejoin="round"></path><path d="M36.808,70.4c-.728,2,1.37,2.552,3.874,3.462s4.465,1.839,5.194-.164-.71-4.365-3.214-5.276S37.537,68.4,36.808,70.4Z" fill="#656769" stroke="#45413c" stroke-linecap="round" stroke-linejoin="round"></path><path d="M52.847,60.968a8.872,8.872,0,0,1-1.878-1.125,9.026,9.026,0,0,1-1.476-1.429" fill="none" stroke="#45413c" stroke-linecap="round" stroke-linejoin="round"></path><path d="M50.377,64.855a9.249,9.249,0,0,1-3.588-2.2" fill="none" stroke="#45413c" stroke-linecap="round" stroke-linejoin="round"></path><path d="M48.39,68.465a8.481,8.481,0,0,1-2.51-1.082,9.388,9.388,0,0,1-1.194-.886" fill="none" stroke="#45413c" stroke-linecap="round" stroke-linejoin="round"></path><path d="M43.5,58.536a.495.495,0,0,0,.685.27,5.2,5.2,0,1,0-7.359-3.351.5.5,0,0,0,.653.34l1.4-.525a.5.5,0,0,0,.312-.564,2.724,2.724,0,1,1,4,1.823.494.494,0,0,0-.221.6Z" fill="#656769"></path><path d="M43.5,58.536a.495.495,0,0,0,.685.27,5.2,5.2,0,1,0-7.359-3.351.5.5,0,0,0,.653.34l1.4-.525a.5.5,0,0,0,.312-.564,2.724,2.724,0,1,1,4,1.823.494.494,0,0,0-.221.6Z" fill="none" stroke="#45413c" stroke-linecap="round" stroke-linejoin="round"></path><path d="M89.251,26.794a.495.495,0,0,0-.728-.111,5.2,5.2,0,1,0,7.918,1.646.5.5,0,0,0-.712-.188l-1.253.821a.5.5,0,0,0-.179.619,2.724,2.724,0,1,1-4.306-.9.494.494,0,0,0,.082-.638Z" fill="#656769"></path><path d="M89.251,26.794a.495.495,0,0,0-.728-.111,5.2,5.2,0,1,0,7.918,1.646.5.5,0,0,0-.712-.188l-1.253.821a.5.5,0,0,0-.179.619,2.724,2.724,0,1,1-4.306-.9.494.494,0,0,0,.082-.638Z" fill="none" stroke="#45413c" stroke-linecap="round" stroke-linejoin="round"></path><path d="M41.579,49.662a2.1,2.1,0,1,0,3.865,1.662A13.935,13.935,0,0,1,57.1,42.466a17.888,17.888,0,0,1,5.659.239A2.119,2.119,0,0,0,65.3,41.161a2.014,2.014,0,0,0-.1-1.271L60.43,38.142c-.553-.031-1.145-.032-1.747-.017A18.46,18.46,0,0,0,41.579,49.662Z" fill="#c0dceb" stroke="#45413c" stroke-linecap="round" stroke-linejoin="round"></path><path d="M69.626,46.291c.055.02.111.038.169.054,5.415,1.473,17.077,1.181,22.451-10.475a2.1,2.1,0,0,0-3.814-1.759c-5.213,11.307-17.04,8.312-17.54,8.18a2.1,2.1,0,0,0-1.266,4Z" fill="#c0dceb" stroke="#45413c" stroke-linecap="round" stroke-linejoin="round"></path><path d="M59.405,80.208a2.1,2.1,0,0,0,2.435-1.416A65.553,65.553,0,0,0,65.1,57.473a2.1,2.1,0,0,0-4.2.038,62.187,62.187,0,0,1-3.064,20A2.1,2.1,0,0,0,59.2,80.154,2,2,0,0,0,59.405,80.208Z" fill="#c0dceb"></path><path d="M60.9,57.511a44.351,44.351,0,0,1-.128,4.867,6.7,6.7,0,0,0,4.293-1.319c.1-2.127.036-3.419.035-3.586a2.1,2.1,0,0,0-.026-.309L61.634,55.9A2.1,2.1,0,0,0,60.9,57.511Z" fill="#adc4d9"></path><path d="M59.405,80.208a2.1,2.1,0,0,0,2.435-1.416A65.553,65.553,0,0,0,65.1,57.473a2.1,2.1,0,0,0-4.2.038,62.187,62.187,0,0,1-3.064,20A2.1,2.1,0,0,0,59.2,80.154,2,2,0,0,0,59.405,80.208Z" fill="none" stroke="#45413c" stroke-linecap="round" stroke-linejoin="round"></path><path d="M64.354 37.544H66.754V39.943999999999996H64.354z" fill="#87898c" stroke="#45413c" stroke-linecap="round" stroke-linejoin="round" transform="translate(6.597 86.937) rotate(-69.847)"></path><path d="M66.282,56.174,53.725,51.566l4.793-13.06a1,1,0,0,1,1.283-.595l10.68,3.92a1,1,0,0,1,.594,1.283Z" fill="#ffffff" stroke="#45413c" stroke-linecap="round" stroke-linejoin="round"></path><path d="M66.282,56.174a6.688,6.688,0,0,1-12.557-4.608Z" fill="#e8f4fa" stroke="#45413c" stroke-linecap="round" stroke-linejoin="round"></path><path d="M66.389,46.175a1.2,1.2,0,0,1-1.54.713l-4.025-1.477a1.2,1.2,0,0,1-.713-1.54L62,38.719l6.278,2.3Z" fill="#4acfff"></path><path d="M62,38.719l-1.891,5.152a1.193,1.193,0,0,0-.021.764l8.19-3.612Z" fill="#80ddff"></path><path d="M66.389,46.175a1.2,1.2,0,0,1-1.54.713l-4.025-1.477a1.2,1.2,0,0,1-.713-1.54L62,38.719l6.278,2.3Z" fill="none" stroke="#45413c" stroke-linecap="round" stroke-linejoin="round"></path><path d="M67.408,79.622c-.026,2.131-2.184,1.9-4.848,1.871s-4.827.143-4.8-1.989,2.207-3.833,4.871-3.8S67.434,77.49,67.408,79.622Z" fill="#656769" stroke="#45413c" stroke-linecap="round" stroke-linejoin="round"></path><path d="M60.653,63.808a9.269,9.269,0,0,0,4.211.2" fill="none" stroke="#45413c" stroke-linecap="round" stroke-linejoin="round"></path><path d="M60.048,68.373a9.282,9.282,0,0,0,4.164.619" fill="none" stroke="#45413c" stroke-linecap="round" stroke-linejoin="round"></path><path d="M59.251,72.416a8.478,8.478,0,0,0,2.619.783,9.271,9.271,0,0,0,1.484.088" fill="none" stroke="#45413c" stroke-linecap="round" stroke-linejoin="round"></path><path d="M89.938,39.757A3.966,3.966,0,0,0,86.61,37.2" fill="none" stroke="#45413c" stroke-linecap="round" stroke-linejoin="round"></path><path d="M85.023,44.229a3.973,3.973,0,0,0-1.843-3.578" fill="none" stroke="#45413c" stroke-linecap="round" stroke-linejoin="round"></path><path d="M79.37,46.477A3.97,3.97,0,0,0,77.729,42.5" fill="none" stroke="#45413c" stroke-linecap="round" stroke-linejoin="round"></path><path d="M73,46.893a3.965,3.965,0,0,0,1-4.169" fill="none" stroke="#45413c" stroke-linecap="round" stroke-linejoin="round"></path><path d="M43.676,45.881A3.965,3.965,0,0,0,47.3,48.029" fill="none" stroke="#45413c" stroke-linecap="round" stroke-linejoin="round"></path><path d="M48.955,40.9a3.966,3.966,0,0,0,1.529,4" fill="none" stroke="#45413c" stroke-linecap="round" stroke-linejoin="round"></path><path d="M62.048 23.757 L73.895 23.757 L73.895 40.343 L62.048 40.343 Z" fill="#00b8f0" transform="translate(14.543 84.896) rotate(-69.93)"></path><path d="M59.194,34.634a2.365,2.365,0,0,1-.231-2.092L61.4,25.866a2.37,2.37,0,0,1,3.039-1.413l9.336,3.411Z" fill="#4acfff"></path><path d="M62.048 23.757 L73.895 23.757 L73.895 40.343 L62.048 40.343 Z" fill="none" stroke="#45413c" stroke-linecap="round" stroke-linejoin="round" transform="translate(14.543 84.896) rotate(-69.93)"></path><path d="M65.746,32.487a1.252,1.252,0,0,1-1.249-1.3,1.2,1.2,0,0,1-.976.487,1.252,1.252,0,0,1-1.134-.723,1.239,1.239,0,0,1-.04-.956,2.435,2.435,0,0,1,4.574,1.671A1.256,1.256,0,0,1,65.746,32.487Z" fill="#ffffff" stroke="#009fd9" stroke-linecap="round" stroke-linejoin="round"></path><path d="M72.423,34.927A1.252,1.252,0,0,1,71.29,34.2a1.255,1.255,0,0,1-.117-.575,1.2,1.2,0,0,1-.975.486,1.226,1.226,0,0,1-.431-.078,1.248,1.248,0,0,1-.743-1.6,2.437,2.437,0,0,1,3.122-1.452A2.439,2.439,0,0,1,73.6,34.1,1.254,1.254,0,0,1,72.423,34.927Z" fill="#ffffff" stroke="#009fd9" stroke-linecap="round" stroke-linejoin="round"></path><path d="M9.761 80.527 A21 1.725 0 1 0 51.761 80.527 A21 1.725 0 1 0 9.761 80.527 Z" fill="#45413c" opacity=".15"></path><path d="M40.986 82.527 A13 1.725 0 1 0 66.986 82.527 A13 1.725 0 1 0 40.986 82.527 Z" fill="#45413c" opacity=".15"></path><path d="M7.986 18.252 L53.986 18.252 L53.986 80.252 L7.986 80.252 Z" fill="#b8ecff"></path><path d="M53.986,22.252v5a4,4,0,0,0-4-4h-38a4,4,0,0,0-4,4v-5a4,4,0,0,1,4-4h38A4,4,0,0,1,53.986,22.252Z" fill="#e5f8ff"></path><path d="M7.986 18.252 L53.986 18.252 L53.986 80.252 L7.986 80.252 Z" fill="none" stroke="#45413c" stroke-miterlimit="10"></path><path d="M48.271,51.18a17.067,17.067,0,0,0-11.61-14.941,6.087,6.087,0,0,0-2.1-.373H32.894a.5.5,0,0,1-.5-.5l0-1.224a.5.5,0,0,1,.5-.5c3.619.012,3.911.2,4.787-.47l.005.005c1.133-.869.877-1.465.866-8.444a2.223,2.223,0,0,0-2.227-2.221H25.3a2.223,2.223,0,0,0-2.228,2.221c-.01,6.979-.267,7.575.867,8.444l0-.005c.876.67,1.169.482,4.788.47a.505.505,0,0,1,.355.146.5.5,0,0,1,.146.355v1.224a.5.5,0,0,1-.5.5H27.06a6.077,6.077,0,0,0-2.1.373A17.066,17.066,0,0,0,13.351,51.18c-5.012,1.777-2.917,8.407-1.683,7.35l1.054-.9a.457.457,0,0,0,.092-.589,2.508,2.508,0,0,1,1.105-3.615,1.89,1.89,0,0,0,2.4.173,2.508,2.508,0,0,1,.56,3.755.458.458,0,0,0,0,.6l.9,1.054a.46.46,0,0,0,.682.017,4.807,4.807,0,0,0-1.231-7.546,12.807,12.807,0,0,1,6.655-10.453.5.5,0,0,1,.745.435v8.379c.011.339.027.565.051.749a2.975,2.975,0,0,1-.153,1.4,61.745,61.745,0,0,0-3.423,15.969c-2.81-.462-5.384,1.263-5.38,3.509,0,1.976,2,1.787,4.474,1.783,2.333,0,4.227.137,4.43-1.511a1.955,1.955,0,0,0,.184-.754,61.174,61.174,0,0,1,2.437-14.869,1,1,0,0,1,1.324-.647,6.1,6.1,0,0,0,4.468,0,1,1,0,0,1,1.324.647,61.223,61.223,0,0,1,2.437,14.869,1.936,1.936,0,0,0,.183.754c.2,1.648,2.1,1.507,4.43,1.511,2.47,0,4.472.193,4.475-1.783,0-2.246-2.571-3.971-5.38-3.509A61.788,61.788,0,0,0,37.09,51.985a2.962,2.962,0,0,1-.152-1.4c.024-.184.04-.41.05-.749V41.454a.5.5,0,0,1,.745-.435,12.807,12.807,0,0,1,6.655,10.453,4.808,4.808,0,0,0-1.231,7.546A.46.46,0,0,0,43.839,59l.9-1.054a.459.459,0,0,0,0-.6A2.508,2.508,0,0,1,45.3,53.6a1.892,1.892,0,0,0,2.4-.173,2.508,2.508,0,0,1,1.1,3.615.457.457,0,0,0,.092.589l1.054.9C51.187,59.587,53.283,52.957,48.271,51.18Z" fill="#4acfff" stroke="#009fd9" stroke-linecap="round" stroke-linejoin="round"></path><path d="M53.986,66.252v10a4,4,0,0,1-4,4h-38a4,4,0,0,1-4-4v-10Z" fill="#ffffff"></path><path d="M53.986,73.252v3a4,4,0,0,1-4,4h-38a4,4,0,0,1-4-4v-3a4,4,0,0,0,4,4h38A4,4,0,0,0,53.986,73.252Z" fill="#e5f8ff"></path><path d="M53.986,66.252v10a4,4,0,0,1-4,4h-38a4,4,0,0,1-4-4v-10Z" fill="none" stroke="#45413c" stroke-miterlimit="10"></path><path d="M35.986,10.252h-10a4,4,0,0,0-4,4v4h18v-4A4,4,0,0,0,35.986,10.252Zm-1,6h-8a1,1,0,0,1,0-2h1.172a1,1,0,0,0,.942-.665,2,2,0,0,1,3.771,0,1,1,0,0,0,.943.665h1.172a1,1,0,0,1,0,2Z" fill="#f0f0f0" stroke="#45413c" stroke-linecap="round" stroke-linejoin="round"></path><path d="M18.174,69.855a.659.659,0,0,1-.647.664.675.675,0,0,1-.648-.664.648.648,0,0,1,1.295,0ZM16.951,71.59a.579.579,0,1,1,1.151,0v3.07a.579.579,0,1,1-1.151,0Z" fill="#009fd9"></path><path d="M21.462,72.43a.468.468,0,0,1,.455.512.463.463,0,0,1-.455.5h-1.7a.464.464,0,0,1-.456-.5.469.469,0,0,1,.456-.512Z" fill="#009fd9"></path><path d="M23.167,70.183a.566.566,0,0,1,.616-.624H25.19c1.231,0,1.99.552,1.99,1.807A1.551,1.551,0,0,1,25.7,72.877l1.36,1.455a.519.519,0,0,1,.159.353.606.606,0,0,1-1.063.407l-1.775-2.15h-.016v1.734a.6.6,0,1,1-1.2,0Zm1.2,1.895h.824a.68.68,0,0,0,.743-.712.67.67,0,0,0-.743-.7h-.824Z" fill="#009fd9"></path><path d="M32.18,73.133a2.068,2.068,0,1,1-4.125,0,2.069,2.069,0,1,1,4.125,0Zm-2.974,0c0,.552.288,1.16.911,1.16s.912-.608.912-1.16-.28-1.175-.912-1.175S29.206,72.581,29.206,73.133Z" fill="#009fd9"></path><path d="M33.31,69.736a.579.579,0,1,1,1.152,0V71.3a1.666,1.666,0,0,1,1.095-.4,2.255,2.255,0,0,1-.04,4.445,1.254,1.254,0,0,1-1.055-.527.551.551,0,0,1-.576.479.582.582,0,0,1-.576-.64Zm2.056,4.557c.6,0,.9-.624.9-1.16s-.3-1.175-.9-1.175c-.616,0-.9.575-.9,1.135S34.734,74.293,35.366,74.293Z" fill="#009fd9"></path><path d="M42.5,73.133a2.068,2.068,0,1,1-4.126,0,2.069,2.069,0,1,1,4.126,0Zm-2.974,0c0,.552.288,1.16.911,1.16s.912-.608.912-1.16-.28-1.175-.912-1.175S39.526,72.581,39.526,73.133Z" fill="#009fd9"></path><path d="M43.91,72.006h-.255a.467.467,0,0,1-.5-.5.492.492,0,0,1,.5-.5h.255v-.687a.579.579,0,1,1,1.152,0V71h.327a.506.506,0,1,1,0,1.008h-.327V74.66a.579.579,0,1,1-1.152,0Z" fill="#009fd9"></path><path d="M41.115 19.527 A9.779 9.779 0 1 0 60.673 19.527 A9.779 9.779 0 1 0 41.115 19.527 Z" fill="#525252"></path><path d="M43.9,26.365A9.78,9.78,0,0,1,57.885,12.689Z" fill="#656769"></path><path d="M49.684,14.954a1.387,1.387,0,0,0-1.267.9l-1.349,3.622L45.7,15.813a1.376,1.376,0,0,0-2.651.486,1.6,1.6,0,0,0,.115.613l2.573,6.542a1.389,1.389,0,0,0,2.664,0l2.57-6.537a1.6,1.6,0,0,0,.116-.613A1.377,1.377,0,0,0,49.684,14.954Z" fill="#ffffff" stroke="#45413c" stroke-linecap="round" stroke-linejoin="round"></path><path d="M57.74,22.185l-1.429-1.528a2.593,2.593,0,0,0,1.739-2.481c0-2.032-1.215-3.151-3.42-3.151H52.566a1.321,1.321,0,0,0-1.4,1.415v6.591a1.38,1.38,0,1,0,2.759,0V21.849l1.745,2.114a1.39,1.39,0,0,0,2.443-.919A1.25,1.25,0,0,0,57.74,22.185Zm-2.769-4.009c0,.361-.2.544-.591.544h-.459V17.643h.459C54.971,17.643,54.971,18.03,54.971,18.176Z" fill="#ffffff" stroke="#45413c" stroke-linecap="round" stroke-linejoin="round"></path><path d="M41.115 19.527 A9.779 9.779 0 1 0 60.673 19.527 A9.779 9.779 0 1 0 41.115 19.527 Z" fill="none" stroke="#45413c" stroke-linecap="round" stroke-linejoin="round"></path></g></svg>