<svg xmlns="http://www.w3.org/2000/svg" version="1.1" xmlns:xlink="http://www.w3.org/1999/xlink" xmlns:svgjs="http://svgjs.com/svgjs" viewBox="0 0 200 200" width="200" height="200"><g transform="matrix(2,0,0,2,0,0)"><path d="M10.000 50.000 A40.000 40.000 0 1 0 90.000 50.000 A40.000 40.000 0 1 0 10.000 50.000 Z" fill="#e8f4fa" stroke="#daedf7" stroke-linecap="round" stroke-linejoin="round"></path><path d="M37.510 83.062 A12.49 1.315 0 1 0 62.490 83.062 A12.49 1.315 0 1 0 37.510 83.062 Z" fill="#45413c" opacity=".15"></path><path d="M41.526,49.746c-3.03.366-8.307,4.213-10.122,9.445S35,69.38,35,69.38Z" fill="#ffffff"></path><path d="M33.6,55.186a11,11,0,0,1,6.357-.73l1.565-4.71C39.34,50.01,35.985,52.085,33.6,55.186Z" fill="#f0f0f0"></path><path d="M41.526,49.746c-3.03.366-8.307,4.213-10.122,9.445S35,69.38,35,69.38Z" fill="none" stroke="#45413c" stroke-linecap="round" stroke-linejoin="round"></path><path d="M58.474,49.746c3.03.366,8.307,4.213,10.122,9.445S65,69.38,65,69.38Z" fill="#ffffff"></path><path d="M66.4,55.186a11,11,0,0,0-6.357-.73l-1.565-4.71C60.66,50.01,64.015,52.085,66.4,55.186Z" fill="#f0f0f0"></path><path d="M58.474,49.746c3.03.366,8.307,4.213,10.122,9.445S65,69.38,65,69.38Z" fill="none" stroke="#45413c" stroke-linecap="round" stroke-linejoin="round"></path><path d="M28.965,35.075,25.919,34.06a1.317,1.317,0,0,1-.9-1.248V26.819a1.315,1.315,0,0,1,.9-1.247l3.046-1.015Z" fill="#8ca4b8" stroke="#45413c" stroke-linecap="round" stroke-linejoin="round"></path><path d="M71.035,35.075l3.046-1.015a1.317,1.317,0,0,0,.9-1.248V26.819a1.315,1.315,0,0,0-.9-1.247l-3.046-1.015Z" fill="#8ca4b8" stroke="#45413c" stroke-linecap="round" stroke-linejoin="round"></path><path d="M44.741 44.278H55.259V48.879999999999995H44.741z" fill="#e0e0e0" stroke="#45413c" stroke-linecap="round" stroke-linejoin="round"></path><path d="M72.02,21.724A6.665,6.665,0,0,0,65.578,15.6c-.814-.026-1.3-.049-1.666-.071a4.273,4.273,0,0,1-3.771-2.819A3.943,3.943,0,0,0,56.43,10.1H43.57a3.943,3.943,0,0,0-3.711,2.61,4.273,4.273,0,0,1-3.771,2.819c-.366.022-.852.045-1.666.071a6.665,6.665,0,0,0-6.442,6.129q-.33,4.04-.33,8.092t.33,8.092a6.665,6.665,0,0,0,6.442,6.129c5.143.161,10.361.241,15.578.241s10.435-.08,15.578-.241a6.665,6.665,0,0,0,6.442-6.129q.33-4.039.33-8.092T72.02,21.724Z" fill="#ffffff" stroke="#45413c" stroke-linecap="round" stroke-linejoin="round"></path><path d="M62.083,78.46a3.946,3.946,0,0,0,3.622-2.38,15.878,15.878,0,0,0,1.386-6.165c0-8.182-5.966-16.761-8.617-20.169a3.946,3.946,0,0,0-3.115-1.524H44.641a3.946,3.946,0,0,0-3.115,1.524c-2.651,3.408-8.617,11.987-8.617,20.169A15.878,15.878,0,0,0,34.3,76.08a3.946,3.946,0,0,0,3.622,2.38Z" fill="#ffffff"></path><path d="M50,50.851c4.336,0,8.089,1.168,12.357,4.6a54.732,54.732,0,0,0-3.883-5.708,3.946,3.946,0,0,0-3.115-1.524H44.641a3.946,3.946,0,0,0-3.115,1.524,54.732,54.732,0,0,0-3.883,5.708C41.912,52.019,45.664,50.851,50,50.851Z" fill="#f0f0f0"></path><path d="M62.083,78.46a3.946,3.946,0,0,0,3.622-2.38,15.878,15.878,0,0,0,1.386-6.165c0-8.182-5.966-16.761-8.617-20.169a3.946,3.946,0,0,0-3.115-1.524H44.641a3.946,3.946,0,0,0-3.115,1.524c-2.651,3.408-8.617,11.987-8.617,20.169A15.878,15.878,0,0,0,34.3,76.08a3.946,3.946,0,0,0,3.622,2.38Z" fill="none" stroke="#45413c" stroke-linecap="round" stroke-linejoin="round"></path><path d="M45.398 57.425 A4.602 4.602 0 1 0 54.602 57.425 A4.602 4.602 0 1 0 45.398 57.425 Z" fill="#4aeff7" stroke="#45413c" stroke-linecap="round" stroke-linejoin="round"></path><path d="M69.43,36.436q.291-3.3.291-6.62T69.43,23.2a5.709,5.709,0,0,0-5.685-5.015c-4.538-.131-9.141-.2-13.745-.2s-9.207.066-13.745.2A5.709,5.709,0,0,0,30.57,23.2q-.291,3.3-.291,6.621t.291,6.62a5.708,5.708,0,0,0,5.685,5.015c4.538.132,9.141.2,13.745.2s9.207-.065,13.745-.2A5.708,5.708,0,0,0,69.43,36.436Z" fill="#45413c"></path><path d="M50,17.983c-4.6,0-9.207.065-13.745.2A5.709,5.709,0,0,0,30.57,23.2q-.291,3.306-.291,6.621t.291,6.621a5.708,5.708,0,0,0,5.685,5.014q1.024.03,2.055.055l23.38-23.38C57.82,18.031,53.91,17.983,50,17.983Z" fill="#525252"></path><path d="M69.43,36.436q.291-3.3.291-6.62T69.43,23.2a5.709,5.709,0,0,0-5.685-5.015c-4.538-.131-9.141-.2-13.745-.2s-9.207.066-13.745.2A5.709,5.709,0,0,0,30.57,23.2q-.291,3.3-.291,6.621t.291,6.62a5.708,5.708,0,0,0,5.685,5.015c4.538.132,9.141.2,13.745.2s9.207-.065,13.745-.2A5.708,5.708,0,0,0,69.43,36.436Z" fill="none" stroke="#45413c" stroke-linecap="round" stroke-linejoin="round"></path><path d="M36.853 28.501 A3.287 3.287 0 1 0 43.427 28.501 A3.287 3.287 0 1 0 36.853 28.501 Z" fill="none" stroke="#ffffff" stroke-linecap="round" stroke-linejoin="round"></path><path d="M39.483 28.501 A0.657 0.657 0 1 0 40.797 28.501 A0.657 0.657 0 1 0 39.483 28.501 Z" fill="#ffffff" stroke="#ffffff" stroke-linecap="round" stroke-linejoin="round"></path><path d="M36.853,22.585c2.629-1.315,5.916-.658,7.231,1.315" fill="none" stroke="#ffffff" stroke-linecap="round" stroke-linejoin="round"></path><path d="M56.573 28.501 A3.287 3.287 0 1 0 63.147 28.501 A3.287 3.287 0 1 0 56.573 28.501 Z" fill="none" stroke="#ffffff" stroke-linecap="round" stroke-linejoin="round"></path><path d="M59.203 28.501 A0.657 0.657 0 1 0 60.517 28.501 A0.657 0.657 0 1 0 59.203 28.501 Z" fill="#ffffff" stroke="#ffffff" stroke-linecap="round" stroke-linejoin="round"></path><path d="M63.147,22.585c-2.629-1.315-5.916-.658-7.231,1.315" fill="none" stroke="#ffffff" stroke-linecap="round" stroke-linejoin="round"></path><path d="M56.574,35.732C54.6,37.7,50,37.7,50,37.7s-4.6,0-6.574-1.972" fill="none" stroke="#ffffff" stroke-linecap="round" stroke-linejoin="round"></path><path d="M56.115,37.449l.5-1A.725.725,0,0,0,55.94,35.4l-1.232.039C55.862,35.84,56.23,36.211,56.115,37.449Z" fill="#ffffff" stroke="#ffffff" stroke-linecap="round" stroke-linejoin="round"></path><path d="M46.967,12.724a1.314,1.314,0,0,0-1.231.854l-.666,1.776h9.86l-.666-1.776a1.314,1.314,0,0,0-1.231-.854Z" fill="#525252"></path><path d="M51.315,12.724H46.967a1.314,1.314,0,0,0-1.231.854l-.666,1.776h3.615Z" fill="#656769"></path><path d="M46.967,12.724a1.314,1.314,0,0,0-1.231.854l-.666,1.776h9.86l-.666-1.776a1.314,1.314,0,0,0-1.231-.854Z" fill="none" stroke="#45413c" stroke-linecap="round" stroke-linejoin="round"></path><path d="M48.028 57.425 A1.972 1.972 0 1 0 51.972 57.425 A1.972 1.972 0 1 0 48.028 57.425 Z" fill="#ffffff" stroke="#45413c" stroke-linecap="round" stroke-linejoin="round"></path><path d="M53.287,74.516a1.315,1.315,0,0,1-1.315,1.315H48.028a1.315,1.315,0,0,1,0-2.63h3.944A1.315,1.315,0,0,1,53.287,74.516Z" fill="#87898c"></path><path d="M42.769,80.761a1.644,1.644,0,0,1-3.287,0v-2.3h3.287Z" fill="#525252" stroke="#45413c" stroke-linecap="round" stroke-linejoin="round"></path><path d="M57.231,80.761a1.644,1.644,0,0,0,3.287,0v-2.3H57.231Z" fill="#525252" stroke="#45413c" stroke-linecap="round" stroke-linejoin="round"></path></g></svg>