<svg xmlns="http://www.w3.org/2000/svg" version="1.1" xmlns:xlink="http://www.w3.org/1999/xlink" xmlns:svgjs="http://svgjs.com/svgjs" viewBox="0 0 200 200" width="200" height="200"><g transform="matrix(2,0,0,2,0,0)"><path d="M10.867 56.080 A40.000 40.000 0 1 0 90.867 56.080 A40.000 40.000 0 1 0 10.867 56.080 Z" fill="#e8f4fa" stroke="#daedf7" stroke-miterlimit="10"></path><path d="M48.431 55.259H53.101V59.929H48.431z" fill="#daedf7"></path><path d="M48.431 55.259H53.101V57.594H48.431z" fill="#c0dceb"></path><path d="M48.431 55.259H53.101V59.929H48.431z" fill="none" stroke="#45413c" stroke-linecap="round" stroke-linejoin="round"></path><path d="M41.427 59.929 L60.105 59.929 L60.105 77.440 L41.427 77.440 Z" fill="#ffffff" stroke="#45413c" stroke-linecap="round" stroke-linejoin="round"></path><path d="M47.264 77.44H54.268V83.386H47.264z" fill="#daedf7"></path><path d="M47.27 77.44H54.274V79.884H47.27z" fill="#c0dceb"></path><path d="M47.264 77.44H54.268V83.386H47.264z" fill="none" stroke="#45413c" stroke-linecap="round" stroke-linejoin="round"></path><path d="M55.436,68.1A2.334,2.334,0,0,1,53.1,70.435h-4.67A2.334,2.334,0,0,1,46.1,68.1V59.929h9.339Z" fill="#00b8f0"></path><path d="M53.877 59.929L46.097 67.703 46.097 59.929 53.877 59.929z" fill="#4acfff"></path><path d="M55.436,68.1A2.334,2.334,0,0,1,53.1,70.435h-4.67A2.334,2.334,0,0,1,46.1,68.1V59.929h9.339Z" fill="none" stroke="#45413c" stroke-linecap="round" stroke-linejoin="round"></path><path d="M57.45,83.386a2.335,2.335,0,0,1,2.2,3.113,9.343,9.343,0,0,1-17.615,0,2.334,2.334,0,0,1,2.2-3.113Z" fill="#ffffff" stroke="#45413c" stroke-linecap="round" stroke-linejoin="round"></path><path d="M22.049 65.623H39.56V70.293H22.049z" fill="#ffffff" transform="translate(-23.361 16.642) rotate(-22.163)"></path><path d="M38.755,64.267l-.723-1.775-7.467,3.042v.489a3.5,3.5,0,0,0,2.771,3.425l5.419-2.208Z" fill="#e0e0e0"></path><path d="M22.049 65.623H39.56V70.293H22.049z" fill="none" stroke="#45413c" stroke-linecap="round" stroke-linejoin="round" transform="translate(-23.361 16.642) rotate(-22.163)"></path><path d="M41.427,68.1H36.739a3.5,3.5,0,0,1-3.5-3.5V63.431a3.5,3.5,0,0,1,3.5-3.5h2.335a2.361,2.361,0,0,1,2.353,2.334Z" fill="#ffffff" stroke="#45413c" stroke-linecap="round" stroke-linejoin="round"></path><path d="M16.144 58.781H20.814V71.664H16.144z" fill="#f0f0f0" transform="translate(-27.301 15.226) rotate(-26.66)"></path><path d="M19.444,61.94l-1.769-3.522L13.5,60.513l1.732,3.449A3.5,3.5,0,0,0,19.444,61.94Z" fill="#e0e0e0"></path><path d="M16.144 58.781H20.814V71.664H16.144z" fill="#ffffff" stroke="#45413c" stroke-linecap="round" stroke-linejoin="round" transform="translate(-27.301 15.226) rotate(-26.66)"></path><path d="M8.864,49.813a.585.585,0,0,0-.816.3,6.129,6.129,0,1,0,9.121-2.771.584.584,0,0,0-.843.208L15.5,49.1a.583.583,0,0,0,.164.741A3.211,3.211,0,1,1,10.7,51.352a.582.582,0,0,0-.276-.707Z" fill="#656769"></path><path d="M8.864,49.813a.585.585,0,0,0-.816.3,6.129,6.129,0,1,0,9.121-2.771.584.584,0,0,0-.843.208L15.5,49.1a.583.583,0,0,0,.164.741A3.211,3.211,0,1,1,10.7,51.352a.582.582,0,0,0-.276-.707Z" fill="none" stroke="#45413c" stroke-linecap="round" stroke-linejoin="round"></path><path d="M11.340 57.984 A3.502 3.502 0 1 0 18.344 57.984 A3.502 3.502 0 1 0 11.340 57.984 Z" fill="#ffffff" stroke="#45413c" stroke-linecap="round" stroke-linejoin="round"></path><path d="M18.179 71.605 A3.502 3.502 0 1 0 25.183 71.605 A3.502 3.502 0 1 0 18.179 71.605 Z" fill="#ffffff" stroke="#45413c" stroke-linecap="round" stroke-linejoin="round"></path><path d="M68.393 59.202H73.063V76.713H68.393z" fill="#ffffff" transform="translate(-18.891 107.823) rotate(-67.837)"></path><path d="M62.777,64.267l.723-1.775,7.467,3.042v.489a3.5,3.5,0,0,1-2.77,3.425l-5.42-2.208Z" fill="#e0e0e0"></path><path d="M68.393 59.202H73.063V76.713H68.393z" fill="none" stroke="#45413c" stroke-linecap="round" stroke-linejoin="round" transform="translate(-18.891 107.823) rotate(-67.837)"></path><path d="M60.105,68.1h4.688a3.5,3.5,0,0,0,3.5-3.5V63.431a3.5,3.5,0,0,0-3.5-3.5H62.458a2.363,2.363,0,0,0-2.353,2.334Z" fill="#ffffff" stroke="#45413c" stroke-linecap="round" stroke-linejoin="round"></path><path d="M76.612 62.888H89.49499999999999V67.55799999999999H76.612z" fill="#f0f0f0" transform="translate(-12.501 110.181) rotate(-63.34)"></path><path d="M82.089,61.94l1.768-3.522,4.173,2.095L86.3,63.962A3.5,3.5,0,0,1,82.089,61.94Z" fill="#e0e0e0"></path><path d="M76.612 62.888H89.49499999999999V67.55799999999999H76.612z" fill="#ffffff" stroke="#45413c" stroke-linecap="round" stroke-linejoin="round" transform="translate(-12.501 110.181) rotate(-63.34)"></path><path d="M92.668,49.813a.585.585,0,0,1,.816.3,6.129,6.129,0,1,1-9.121-2.771.583.583,0,0,1,.843.208l.832,1.557a.583.583,0,0,1-.164.741,3.21,3.21,0,1,0,4.96,1.508.582.582,0,0,1,.277-.707Z" fill="#656769"></path><path d="M92.668,49.813a.585.585,0,0,1,.816.3,6.129,6.129,0,1,1-9.121-2.771.583.583,0,0,1,.843.208l.832,1.557a.583.583,0,0,1-.164.741,3.21,3.21,0,1,0,4.96,1.508.582.582,0,0,1,.277-.707Z" fill="none" stroke="#45413c" stroke-linecap="round" stroke-linejoin="round"></path><path d="M83.188 57.984 A3.502 3.502 0 1 0 90.192 57.984 A3.502 3.502 0 1 0 83.188 57.984 Z" fill="#ffffff" stroke="#45413c" stroke-linecap="round" stroke-linejoin="round"></path><path d="M76.349 71.605 A3.502 3.502 0 1 0 83.353 71.605 A3.502 3.502 0 1 0 76.349 71.605 Z" fill="#ffffff" stroke="#45413c" stroke-linecap="round" stroke-linejoin="round"></path><path d="M34.534 30.525 L67.072 30.525 L67.072 56.090 L34.534 56.090 Z" fill="#00b8f0"></path><path d="M38.45,56.09h-.43A3.486,3.486,0,0,1,34.534,52.6V34.011a3.486,3.486,0,0,1,3.487-3.486H63.586Z" fill="#4acfff"></path><path d="M46.409,46.479a1.414,1.414,0,0,1-1.415-1.415c0-1.345-.646-2.071-.91-2.071s-.909.726-.909,2.071a1.415,1.415,0,1,1-2.829,0c0-2.748,1.642-4.9,3.738-4.9s3.739,2.153,3.739,4.9A1.414,1.414,0,0,1,46.409,46.479Z" fill="#ffffff" stroke="#009fd9" stroke-miterlimit="10"></path><path d="M60.353,46.479a1.414,1.414,0,0,1-1.414-1.415c0-1.345-.646-2.071-.91-2.071s-.909.726-.909,2.071a1.415,1.415,0,1,1-2.83,0c0-2.748,1.643-4.9,3.739-4.9s3.739,2.153,3.739,4.9A1.415,1.415,0,0,1,60.353,46.479Z" fill="#ffffff" stroke="#009fd9" stroke-miterlimit="10"></path><path d="M34.534 30.525 L67.072 30.525 L67.072 56.090 L34.534 56.090 Z" fill="none" stroke="#45413c" stroke-linecap="round" stroke-linejoin="round"></path><path d="M36.389,16.665a3.654,3.654,0,1,0-.256,7.281,3.773,3.773,0,0,0,3.519-3.826V5.386a1.465,1.465,0,0,0-1.867-1.409L24.27,8.067a1.465,1.465,0,0,0-1.062,1.408V19.6a3.653,3.653,0,1,0-.257,7.28,3.773,3.773,0,0,0,3.519-3.826V12.441l9.919-2.615Z" fill="#80ddff" stroke="#009fd9" stroke-linecap="round" stroke-linejoin="round"></path><path d="M86.556,25.506a3,3,0,1,0-.211,5.984,3.1,3.1,0,0,0,2.893-3.144V16.235A1.2,1.2,0,0,0,87.7,15.077L76.6,18.439a1.2,1.2,0,0,0-.873,1.157v8.318a3,3,0,1,0-.211,5.984A3.1,3.1,0,0,0,78.4,30.753V22.034l8.153-2.15Z" fill="#80ddff" stroke="#009fd9" stroke-linecap="round" stroke-linejoin="round"></path><path d="M15.308,49.8a2.062,2.062,0,1,1-4.019.918L6.1,25.193a1.441,1.441,0,0,1,2.81-.641Z" fill="#debb7e" stroke="#45413c" stroke-linecap="round" stroke-linejoin="round"></path></g></svg>