<svg xmlns="http://www.w3.org/2000/svg" version="1.1" xmlns:xlink="http://www.w3.org/1999/xlink" xmlns:svgjs="http://svgjs.com/svgjs" viewBox="0 0 200 200" width="200" height="200"><g transform="matrix(2,0,0,2,0,0)"><path d="M14.515,66.5a40.017,40.017,0,0,0,72.9,0Z" fill="#daf7c6"></path><path d="M87.413,66.5a40,40,0,1,0-72.9,0Z" fill="#c7f0ff"></path><path d="M11.964 66.5L89.964 66.5" fill="none" stroke="#45413c" stroke-linecap="round" stroke-linejoin="round"></path><path d="M7.464 66.5L9.964 66.5" fill="none" stroke="#45413c" stroke-linecap="round" stroke-linejoin="round"></path><path d="M91.964 66.5L94.464 66.5" fill="none" stroke="#45413c" stroke-linecap="round" stroke-linejoin="round"></path><path d="M94.2,33.523l-2.2.439A27.109,27.109,0,0,0,73.221,48.13L67.627,58.989A27.11,27.11,0,0,1,50.784,72.694a.931.931,0,0,0,.249,1.829H95.2Z" fill="#bf8256"></path><path d="M74.638,62.939,80.232,52.08A27.112,27.112,0,0,1,94.341,39.294L94.2,33.523l-2.2.439A27.109,27.109,0,0,0,73.221,48.13L67.627,58.989A27.11,27.11,0,0,1,50.783,72.694a.932.932,0,0,0,.25,1.829H63.147A27.113,27.113,0,0,0,74.638,62.939Z" fill="#dea47a"></path><path d="M73.123,48.321l.1-.191A27.113,27.113,0,0,1,86.065,35.882,10.974,10.974,0,0,1,73.123,48.321Z" fill="#bf8256"></path><path d="M94.2,33.523l-2.2.439A27.109,27.109,0,0,0,73.221,48.13L67.627,58.989A27.11,27.11,0,0,1,50.784,72.694a.931.931,0,0,0,.249,1.829H95.2" fill="none" stroke="#915e3a" stroke-linecap="round" stroke-linejoin="round"></path><path d="M79.328,23.338A11,11,0,1,1,67.089,41.624Z" fill="#f0f0f0"></path><path d="M67.089,41.624A11,11,0,1,0,79.328,23.338l-.389.582,0,0a11,11,0,0,1-11.777,17.6" fill="#e0e0e0"></path><path d="M79.328,23.338,67.089,41.624A11,11,0,0,1,79.328,23.338Z" fill="#4acfff"></path><path d="M68.76,39.128a8,8,0,1,1,8.9-13.3Z" fill="#00b8f0"></path><path d="M80.691 24.413L69.14 42.706" fill="none" stroke="#bdbec0" stroke-linecap="round" stroke-linejoin="round"></path><path d="M79.328,23.338A11,11,0,1,1,67.089,41.624Z" fill="none" stroke="#45413c" stroke-linecap="round" stroke-linejoin="round"></path><path d="M79.328,23.338,67.089,41.624A11,11,0,0,1,79.328,23.338Z" fill="none" stroke="#45413c" stroke-linecap="round" stroke-linejoin="round"></path><path d="M75.744,32.215a.339.339,0,0,1,.333-.116,1.124,1.124,0,0,1,.5.188c3.866,2.541,6.476,5.208,5.915,6.1-.549.869-3.937-.268-7.786-2.562a1.578,1.578,0,0,1-.545-.519.476.476,0,0,1-.057-.493Z" fill="none" stroke="#45413c" stroke-linecap="round" stroke-linejoin="round"></path><path d="M68.652,35.522a3.484,3.484,0,0,1-1.832-.639,3.751,3.751,0,0,1-1.171-1.2,1.335,1.335,0,0,1-.076-1.439,1.239,1.239,0,0,1,1.08-.5,3.484,3.484,0,0,1,1.832.639c1.185.791,1.722,1.924,1.247,2.635A1.239,1.239,0,0,1,68.652,35.522Z" fill="#ffffff" stroke="#00658a" stroke-linecap="round" stroke-linejoin="round"></path><path d="M72.535,29.7a3.481,3.481,0,0,1-1.831-.639c-1.186-.79-1.723-1.923-1.248-2.635a1.239,1.239,0,0,1,1.08-.5,3.484,3.484,0,0,1,1.832.639c1.186.791,1.722,1.924,1.248,2.635A1.241,1.241,0,0,1,72.535,29.7Z" fill="#ffffff" stroke="#00658a" stroke-linecap="round" stroke-linejoin="round"></path><path d="M69.14,42.706l1.1-1.74a1,1,0,0,1,1.21-.4c4.15,1.627,8.42,1.069,10.6-1.535" fill="none" stroke="#45413c" stroke-linecap="round" stroke-linejoin="round"></path><path d="M82.352,38.6a11,11,0,0,1-13.115,4.143" fill="none" stroke="#45413c" stroke-linecap="round" stroke-linejoin="round"></path><path d="M82.9,37.694A11,11,0,0,0,80.742,24.46l-.051-.047L79.55,26.221a1,1,0,0,0,.162,1.263c3.273,3.066,4.6,7.193,3.143,10.284" fill="none" stroke="#45413c" stroke-linecap="round" stroke-linejoin="round"></path><path d="M49.267,63.682a17.431,17.431,0,0,1-34.7-3.391Z" fill="#ffffff"></path><path d="M14.57,60.291a17.431,17.431,0,0,0,34.7,3.391l-1.1-.108v-.007a17.432,17.432,0,0,1-33.4-3.257" fill="#f0f0f0"></path><path d="M49.267,63.682l-34.7-3.391a17.431,17.431,0,1,1,34.7,3.391Z" fill="#4acfff"></path><path d="M19.307,60.754A12.674,12.674,0,1,1,44.535,63.22Z" fill="#00b8f0"></path><path d="M51.259 69.984L46.303 71.842" fill="none" stroke="#45413c" stroke-linecap="round" stroke-linejoin="round"></path><path d="M12.578 69.983L17.539 71.844" fill="none" stroke="#45413c" stroke-linecap="round" stroke-linejoin="round"></path><path d="M12.905 86.943 A19.013 2.377 0 1 0 50.931 86.943 A19.013 2.377 0 1 0 12.905 86.943 Z" fill="#45413c" opacity=".15"></path><path d="M48.481 67.437L14.621 64.128" fill="none" stroke="#bdbec0" stroke-miterlimit="10"></path><path d="M49.267,63.682a17.431,17.431,0,0,1-34.7-3.391Z" fill="none" stroke="#45413c" stroke-linecap="round" stroke-linejoin="round"></path><path d="M36.7,57.8a1.82,1.82,0,0,1-1.634-1.989,1.985,1.985,0,0,0-.219-1.175.547.547,0,0,0-.2-.221.573.573,0,0,0-.241.177,1.983,1.983,0,0,0-.442,1.111,1.815,1.815,0,0,1-1.813,1.644l-.175-.009a1.82,1.82,0,0,1-1.636-1.989,5.57,5.57,0,0,1,1.379-3.214,3.974,3.974,0,0,1,2.936-1.361c.115,0,.231.006.347.017a3.939,3.939,0,0,1,2.962,1.954,5.571,5.571,0,0,1,.73,3.42,1.813,1.813,0,0,1-1.81,1.644Z" fill="#ffffff" stroke="#00658a" stroke-linecap="round" stroke-linejoin="round"></path><path d="M25.67,57.007a1.822,1.822,0,0,1-1.635-1.989,1.978,1.978,0,0,0-.219-1.175.533.533,0,0,0-.2-.221.573.573,0,0,0-.24.177,1.988,1.988,0,0,0-.443,1.111,1.813,1.813,0,0,1-1.811,1.644l-.176-.009a1.822,1.822,0,0,1-1.636-1.989,5.57,5.57,0,0,1,1.379-3.214,3.973,3.973,0,0,1,2.935-1.361c.116,0,.232.006.348.017a3.939,3.939,0,0,1,2.962,1.954,5.572,5.572,0,0,1,.73,3.42,1.813,1.813,0,0,1-1.81,1.644Z" fill="#ffffff" stroke="#00658a" stroke-linecap="round" stroke-linejoin="round"></path><path d="M26.882,70.992A3.622,3.622,0,0,1,30.45,66.74h2.232a3.622,3.622,0,0,1,3.567,4.252l-2.9,16.432a1.811,1.811,0,0,1-3.567,0Z" fill="#ffffff" stroke="#45413c" stroke-linecap="round" stroke-linejoin="round"></path><path d="M4.865,68.951a1.678,1.678,0,0,1,1.151-2.076l4.361-1.25A1.68,1.68,0,0,1,12.518,67.2l.388,17.822a1.679,1.679,0,0,1-3.292.5Z" fill="#ffffff" stroke="#45413c" stroke-linecap="round" stroke-linejoin="round"></path><path d="M49.267,63.682l-34.7-3.391a17.431,17.431,0,1,1,34.7,3.391Z" fill="none" stroke="#45413c" stroke-linecap="round" stroke-linejoin="round"></path><path d="M58.972,68.951a1.679,1.679,0,0,0-1.151-2.076l-4.361-1.25A1.68,1.68,0,0,0,51.319,67.2l-.388,17.822a1.679,1.679,0,0,0,3.292.5Z" fill="#ffffff" stroke="#45413c" stroke-linecap="round" stroke-linejoin="round"></path></g></svg>