<svg xmlns="http://www.w3.org/2000/svg" version="1.1" xmlns:xlink="http://www.w3.org/1999/xlink" xmlns:svgjs="http://svgjs.com/svgjs" viewBox="0 0 200 200" width="200" height="200"><g transform="matrix(2,0,0,2,0,0)"><path d="M13.523 44.926 A40.000 40.000 0 1 0 93.523 44.926 A40.000 40.000 0 1 0 13.523 44.926 Z" fill="#e8f4fa" stroke="#daedf7" stroke-miterlimit="10"></path><path d="M80.833,94.663a.555.555,0,0,0,.734.374,5.816,5.816,0,1,0-7.831-4.527.554.554,0,0,0,.69.449l1.619-.433a.552.552,0,0,0,.407-.594,3.047,3.047,0,1,1,4.26,2.463.552.552,0,0,0-.311.649Z" fill="#656769"></path><path d="M80.833,94.663a.555.555,0,0,0,.734.374,5.816,5.816,0,1,0-7.831-4.527.554.554,0,0,0,.69.449l1.619-.433a.552.552,0,0,0,.407-.594,3.047,3.047,0,1,1,4.26,2.463.552.552,0,0,0-.311.649Z" fill="none" stroke="#45413c" stroke-linecap="round" stroke-linejoin="round"></path><path d="M79.174 75.797H91.399V80.228H79.174z" fill="#ffffff" transform="translate(-17.446 130.981) rotate(-69.725)"></path><path d="M82.385,79.471l-1.3,3.508,4.157,1.535,1.268-3.435A3.322,3.322,0,0,0,82.385,79.471Z" fill="#e0e0e0"></path><path d="M79.174 75.797H91.399V80.228H79.174z" fill="none" stroke="#45413c" stroke-linecap="round" stroke-linejoin="round" transform="translate(-17.446 130.981) rotate(-69.725)"></path><path d="M79.302 85.224 A3.323 3.323 0 1 0 85.948 85.224 A3.323 3.323 0 1 0 79.302 85.224 Z" fill="#ffffff" stroke="#45413c" stroke-linecap="round" stroke-linejoin="round"></path><path d="M37.425 60.814H56.528999999999996V65.909H37.425z" fill="#ffffff" transform="translate(-31.5 71.284) rotate(-59.211)"></path><path d="M45.914,60.169a3.808,3.808,0,0,0,3.08,1.579H50.9l3.151-5.289-4.376-2.608Z" fill="#e0e0e0"></path><path d="M37.425 60.814H56.528999999999996V65.909H37.425z" fill="none" stroke="#45413c" stroke-linecap="round" stroke-linejoin="round" transform="translate(-31.5 71.284) rotate(-59.211)"></path><path d="M80.072 53.809H85.167V72.913H80.072z" fill="#ffffff" transform="translate(-20.789 51.221) rotate(-30.789)"></path><path d="M83.682,60.169a3.808,3.808,0,0,1-3.08,1.579h-1.91l-3.151-5.289,4.376-2.608Z" fill="#e0e0e0"></path><path d="M80.072 53.809H85.167V72.913H80.072z" fill="none" stroke="#45413c" stroke-linecap="round" stroke-linejoin="round" transform="translate(-20.789 51.221) rotate(-30.789)"></path><path d="M30.011 61.826H35.106V75.881H30.011z" fill="#ffffff" transform="translate(-43.257 61.579) rotate(-59.211)"></path><path d="M27.825,63.069l-2.608,4.376L28.5,69.4a6.106,6.106,0,0,0,2.911-4.2Z" fill="#e0e0e0"></path><path d="M30.011 61.826H35.106V75.881H30.011z" fill="none" stroke="#45413c" stroke-linecap="round" stroke-linejoin="round" transform="translate(-43.257 61.579) rotate(-59.211)"></path><path d="M28.239,51.881a.637.637,0,0,1,.943.092,6.687,6.687,0,1,1-10.39-.454.638.638,0,0,1,.947-.009l1.3,1.42a.637.637,0,0,1,.028.828,3.5,3.5,0,1,0,5.651.247.634.634,0,0,1,.1-.822Z" fill="#656769"></path><path d="M28.239,51.881a.637.637,0,0,1,.943.092,6.687,6.687,0,1,1-10.39-.454.638.638,0,0,1,.947-.009l1.3,1.42a.637.637,0,0,1,.028.828,3.5,3.5,0,1,0,5.651.247.634.634,0,0,1,.1-.822Z" fill="none" stroke="#45413c" stroke-linecap="round" stroke-linejoin="round"></path><path d="M62.251 44.936H67.346V50.031H62.251z" fill="#daedf7"></path><path d="M62.251 44.936H67.346V47.483H62.251z" fill="#c0dceb"></path><path d="M62.251 44.936H67.346V50.031H62.251z" fill="none" stroke="#45413c" stroke-linecap="round" stroke-linejoin="round"></path><path d="M54.609 50.030 L74.987 50.030 L74.987 69.134 L54.609 69.134 Z" fill="#ffffff" stroke="#45413c" stroke-linecap="round" stroke-linejoin="round"></path><path d="M54.609,58.946H49.514a3.821,3.821,0,0,1-3.82-3.821V53.851a3.821,3.821,0,0,1,3.82-3.821h2.548a2.547,2.547,0,0,1,2.547,2.547Z" fill="#ffffff" stroke="#45413c" stroke-linecap="round" stroke-linejoin="round"></path><path d="M60.977 69.135H68.619V76.777H60.977z" fill="#daedf7"></path><path d="M60.977 69.135H68.619V72.956H60.977z" fill="#c0dceb"></path><path d="M60.977 69.135H68.619V76.777H60.977z" fill="none" stroke="#45413c" stroke-linecap="round" stroke-linejoin="round"></path><path d="M69.893,58.946a2.548,2.548,0,0,1-2.548,2.547H62.251A2.548,2.548,0,0,1,59.7,58.946V50.03h10.19Z" fill="#00b8f0"></path><path d="M68.192 50.03L59.703 58.512 59.703 50.03 68.192 50.03z" fill="#4acfff"></path><path d="M69.893,58.946a2.548,2.548,0,0,1-2.548,2.547H62.251A2.548,2.548,0,0,1,59.7,58.946V50.03h10.19Z" fill="none" stroke="#45413c" stroke-linecap="round" stroke-linejoin="round"></path><path d="M36.827 73.218 A3.821 3.821 0 1 0 44.469 73.218 A3.821 3.821 0 1 0 36.827 73.218 Z" fill="#ffffff" stroke="#45413c" stroke-linecap="round" stroke-linejoin="round"></path><path d="M83.552 71.917 A3.821 3.821 0 1 0 91.194 71.917 A3.821 3.821 0 1 0 83.552 71.917 Z" fill="#ffffff" stroke="#45413c" stroke-linecap="round" stroke-linejoin="round"></path><path d="M21.353 63.998 A3.821 3.821 0 1 0 28.995 63.998 A3.821 3.821 0 1 0 21.353 63.998 Z" fill="#ffffff" stroke="#45413c" stroke-linecap="round" stroke-linejoin="round"></path><path d="M72.09,76.776a2.547,2.547,0,0,1,2.4,3.4,10.193,10.193,0,0,1-19.218,0,2.548,2.548,0,0,1,2.4-3.4Z" fill="#ffffff" stroke="#45413c" stroke-linecap="round" stroke-linejoin="round"></path><path d="M74.987,58.946H80.1a3.821,3.821,0,0,0,3.821-3.821V53.851A3.821,3.821,0,0,0,80.1,50.03H77.554a2.577,2.577,0,0,0-2.567,2.547Z" fill="#ffffff" stroke="#45413c" stroke-linecap="round" stroke-linejoin="round"></path><path d="M46.967 16.916 L82.629 16.916 L82.629 44.936 L46.967 44.936 Z" fill="#00b8f0"></path><path d="M79.254,16.941l-28,28h-.471a3.816,3.816,0,0,1-3.821-3.821V20.737a3.816,3.816,0,0,1,3.821-3.821h28.02C78.961,16.916,79.1,16.929,79.254,16.941Z" fill="#4acfff"></path><path d="M46.967 16.916 L82.629 16.916 L82.629 44.936 L46.967 44.936 Z" fill="none" stroke="#45413c" stroke-linecap="round" stroke-linejoin="round"></path><path d="M59.7,33.791A1.594,1.594,0,0,1,58.111,32.2c0-1.447-.678-2.228-.955-2.228s-.955.781-.955,2.228a1.592,1.592,0,0,1-3.184,0c0-3.035,1.818-5.413,4.139-5.413S61.3,29.164,61.3,32.2A1.594,1.594,0,0,1,59.7,33.791Z" fill="#ffffff" stroke="#009fd9" stroke-miterlimit="10"></path><path d="M74.987,33.791A1.594,1.594,0,0,1,73.4,32.2c0-1.447-.678-2.228-.955-2.228s-.956.781-.956,2.228a1.592,1.592,0,1,1-3.184,0c0-3.035,1.818-5.413,4.14-5.413s4.139,2.378,4.139,5.413A1.594,1.594,0,0,1,74.987,33.791Z" fill="#ffffff" stroke="#009fd9" stroke-miterlimit="10"></path><path d="M20.926,27.9a10.073,10.073,0,0,1-1.453-4.6L19,15.946H15.972L15.5,23.3a10.083,10.083,0,0,1-1.452,4.6h0a10.082,10.082,0,0,0-1.474,5.249V49.219a1.512,1.512,0,0,0,1.512,1.512h6.806A1.512,1.512,0,0,0,22.4,49.219V33.145A10.081,10.081,0,0,0,20.926,27.9Z" fill="#6dd627"></path><path d="M17.484,30.314a7.894,7.894,0,0,0,4.1-1.147,10.17,10.17,0,0,0-.654-1.271,10.073,10.073,0,0,1-1.453-4.6L19,15.946H15.972L15.5,23.3a10.1,10.1,0,0,1-1.453,4.6,10.037,10.037,0,0,0-.654,1.271A7.893,7.893,0,0,0,17.484,30.314Z" fill="#9ceb60"></path><path d="M19.119 17.837L18.997 15.946 15.972 15.946 15.849 17.837 19.119 17.837z" fill="#6dd627"></path><path d="M20.926,27.9a10.073,10.073,0,0,1-1.453-4.6L19,15.946H15.972L15.5,23.3a10.083,10.083,0,0,1-1.452,4.6h0a10.082,10.082,0,0,0-1.474,5.249V49.219a1.512,1.512,0,0,0,1.512,1.512h6.806A1.512,1.512,0,0,0,22.4,49.219V33.145A10.081,10.081,0,0,0,20.926,27.9Z" fill="none" stroke="#45413c" stroke-linecap="round" stroke-linejoin="round"></path><path d="M15.216 12.833 L19.753 12.833 L19.753 15.946 L15.216 15.946 Z" fill="#6dd627" stroke="#45413c" stroke-linecap="round" stroke-linejoin="round"></path><path d="M12.569 46.83L22.399 42.173 22.399 34.055 12.569 38.712 12.569 46.83z" fill="#ffffff" stroke="#45413c" stroke-linecap="round" stroke-linejoin="round"></path><path d="M18.816,12.833H16.371l-.687-2.058a1.223,1.223,0,0,1,1.16-1.609h1.5a1.223,1.223,0,0,1,1.16,1.609Z" fill="#dea47a" stroke="#45413c" stroke-linecap="round" stroke-linejoin="round"></path><path d="M22.349,29.948a1.224,1.224,0,0,0-1.223,1.223v7.335a4.89,4.89,0,0,0,9.78,0V31.171a1.223,1.223,0,0,0-1.222-1.223Z" fill="#4acfff"></path><path d="M30.906,34.838v3.668a4.89,4.89,0,0,1-9.78,0V34.838a4.89,4.89,0,0,0,9.78,0Z" fill="#00b8f0"></path><path d="M22.349,29.948a1.224,1.224,0,0,0-1.223,1.223v7.335a4.89,4.89,0,0,0,9.78,0V31.171a1.223,1.223,0,0,0-1.222-1.223Z" fill="none" stroke="#45413c" stroke-linecap="round" stroke-linejoin="round"></path><path d="M26.016 43.396L26.016 50.731" fill="#ffffff" stroke="#45413c" stroke-linecap="round" stroke-linejoin="round"></path><path d="M24.181,37.283a1.223,1.223,0,0,0-1.222,1.223,3.056,3.056,0,1,0,6.112,0,1.223,1.223,0,0,0-1.222-1.223Z" fill="#fffef2"></path><path d="M28.461,29.948a1.223,1.223,0,0,0-1.222,1.223v7.335a4.89,4.89,0,0,0,9.78,0V31.171A1.223,1.223,0,0,0,35.8,29.948Z" fill="#4acfff"></path><path d="M37.019,34.838v3.668a4.89,4.89,0,0,1-9.78,0V34.838a4.89,4.89,0,0,0,9.78,0Z" fill="#00b8f0"></path><path d="M28.461,29.948a1.223,1.223,0,0,0-1.222,1.223v7.335a4.89,4.89,0,0,0,9.78,0V31.171A1.223,1.223,0,0,0,35.8,29.948Z" fill="none" stroke="#45413c" stroke-linecap="round" stroke-linejoin="round"></path><path d="M32.129 43.396L32.129 50.731" fill="#ffffff" stroke="#45413c" stroke-linecap="round" stroke-linejoin="round"></path><path d="M30.294,37.283a1.224,1.224,0,0,0-1.223,1.223,3.057,3.057,0,0,0,6.113,0,1.223,1.223,0,0,0-1.223-1.223Z" fill="#fffef2"></path><path d="M39.9,50.731a.611.611,0,0,1,.575.82,2.4,2.4,0,0,1-2.26,1.584H8.774a2.406,2.406,0,0,1-2.261-1.584.612.612,0,0,1,.575-.82Z" fill="#e8f4fa" stroke="#45413c" stroke-linecap="round" stroke-linejoin="round"></path></g></svg>