<svg xmlns="http://www.w3.org/2000/svg" version="1.1" xmlns:xlink="http://www.w3.org/1999/xlink" xmlns:svgjs="http://svgjs.com/svgjs" viewBox="0 0 200 200" width="200" height="200"><g transform="matrix(2,0,0,2,0,0)"><path d="M10.000 50.000 A40.000 40.000 0 1 0 90.000 50.000 A40.000 40.000 0 1 0 10.000 50.000 Z" fill="#e8f4fa" stroke="#daedf7" stroke-miterlimit="10"></path><path d="M74.311,34.443c-3.12,3.119-13.546,9.049-16.319,6.276s6.923-16.964,10.042-20.084,7.9-3.4,10.67-.628S77.43,31.323,74.311,34.443Z" fill="#f0f0f0"></path><path d="M75.949,32.429C78.612,28.577,81,22.307,78.7,20.007c-2.773-2.773-7.55-2.492-10.67.628-2.826,2.826-11.049,14.739-10.509,19.017a58.538,58.538,0,0,1,6.844-9.525c3.128-3.128,7.9-3.4,10.672-.632A3.849,3.849,0,0,1,75.949,32.429Z" fill="#ffffff"></path><path d="M57.7,40.287a25.147,25.147,0,0,1,4.21-5.412c4.041-4.042,8.41-6.226,9.758-4.879,1.277,1.277-.62,5.27-4.264,9.126" fill="none" stroke="#bdbec0" stroke-miterlimit="10"></path><path d="M65.699 31.675L68.953 19.842" fill="none" stroke="#bdbec0" stroke-miterlimit="10"></path><path d="M71.665 29.996L79.62 22.453" fill="none" stroke="#bdbec0" stroke-miterlimit="10"></path><path d="M74.311,34.443c-3.12,3.119-13.546,9.049-16.319,6.276s6.923-16.964,10.042-20.084,7.9-3.4,10.67-.628S77.43,31.323,74.311,34.443Z" fill="none" stroke="#45413c" stroke-miterlimit="10"></path><path d="M62.092,49.148A13.088,13.088,0,1,1,49.005,36.5,12.866,12.866,0,0,1,62.092,49.148Z" fill="#80ddff"></path><path d="M49.005,41.111a12.969,12.969,0,0,1,12.87,10.344,12.359,12.359,0,0,0,.217-2.307,13.089,13.089,0,0,0-26.163,0,12.359,12.359,0,0,0,.218,2.307A12.964,12.964,0,0,1,49.005,41.111Z" fill="#b8ecff"></path><path d="M62.092,49.148a13.088,13.088,0,0,1-26.162,0Z" fill="#ffffff"></path><path d="M61.414,49.148a13.027,13.027,0,0,1-12.409,8.637q-.587,0-1.16-.049a.575.575,0,0,1-.227-1.078,13.024,13.024,0,0,0,5.93-7.51H35.929a13.089,13.089,0,0,0,26.163,0Z" fill="#f0f0f0"></path><path d="M62.092,49.148A13.088,13.088,0,1,1,49.005,36.5,12.866,12.866,0,0,1,62.092,49.148Z" fill="none" stroke="#45413c" stroke-linecap="round" stroke-linejoin="round"></path><path d="M36.24,34.514c3.119,3.12,13.545,9.05,16.318,6.277S45.635,23.826,42.516,20.707s-7.9-3.4-10.67-.628S33.12,31.4,36.24,34.514Z" fill="#f0f0f0"></path><path d="M34.6,32.5c-2.663-3.852-5.055-10.122-2.755-12.422,2.773-2.773,7.55-2.492,10.67.628,2.826,2.826,11.049,14.739,10.509,19.017A58.538,58.538,0,0,0,46.181,30.2c-3.128-3.128-7.9-3.4-10.672-.633A3.853,3.853,0,0,0,34.6,32.5Z" fill="#ffffff"></path><path d="M52.853,40.359a25.171,25.171,0,0,0-4.209-5.412c-4.042-4.042-8.411-6.226-9.759-4.879-1.277,1.277.62,5.27,4.264,9.126" fill="none" stroke="#bdbec0" stroke-miterlimit="10"></path><path d="M44.851 31.747L41.598 19.914" fill="none" stroke="#bdbec0" stroke-miterlimit="10"></path><path d="M38.885 30.068L30.93 22.524" fill="none" stroke="#bdbec0" stroke-miterlimit="10"></path><path d="M36.24,34.514c3.119,3.12,13.545,9.05,16.318,6.277S45.635,23.826,42.516,20.707s-7.9-3.4-10.67-.628S33.12,31.4,36.24,34.514Z" fill="none" stroke="#45413c" stroke-miterlimit="10"></path><path d="M62.092,49.148a13.088,13.088,0,0,1-26.162,0Z" fill="none" stroke="#45413c" stroke-miterlimit="10"></path><path d="M26.225 75.023 A23.553 1.725 0 1 0 73.331 75.023 A23.553 1.725 0 1 0 26.225 75.023 Z" fill="#45413c" opacity=".15"></path><path d="M54.33,42.26a12.176,12.176,0,0,1-3.45,8.648,9.415,9.415,0,0,1-6.141,2.84H40.53v-23h3.691A9.4,9.4,0,0,1,50.88,33.6,12.2,12.2,0,0,1,54.33,42.26Z" fill="#627b8c" stroke="#45413c" stroke-linecap="round" stroke-linejoin="round"></path><path d="M30.179 42.261 A10.114 11.5 0 1 0 50.407 42.261 A10.114 11.5 0 1 0 30.179 42.261 Z" fill="#adc4d9"></path><path d="M32.202 42.261 A8.091 9.2 0 1 0 48.384 42.261 A8.091 9.2 0 1 0 32.202 42.261 Z" fill="#8ca4b8"></path><path d="M46.36,42.26a6.8,6.8,0,0,1-4.634,6.7,6.771,6.771,0,0,1-4.646-6.7,6.772,6.772,0,0,1,4.646-6.7A6.8,6.8,0,0,1,46.36,42.26Z" fill="#00b8f0" stroke="#45413c" stroke-miterlimit="10"></path><path d="M30.179 42.261 A10.114 11.5 0 1 0 50.407 42.261 A10.114 11.5 0 1 0 30.179 42.261 Z" fill="none" stroke="#45413c" stroke-miterlimit="10"></path><path d="M40.114 42.261 A3.034 3.45 0 1 0 46.182 42.261 A3.034 3.45 0 1 0 40.114 42.261 Z" fill="#009fd9"></path><path d="M40.114 40.536 A1.517 1.725 0 1 0 43.148 40.536 A1.517 1.725 0 1 0 40.114 40.536 Z" fill="#ffffff"></path><path d="M41.726,48.964a5.4,5.4,0,0,1-1.438.2c-3.346,0-6.06-3.094-6.06-6.9s2.714-6.9,6.06-6.9a5.442,5.442,0,0,1,1.438.2,6.772,6.772,0,0,0-4.646,6.7A6.771,6.771,0,0,0,41.726,48.964Z" fill="#627b8c" stroke="#45413c" stroke-linecap="round" stroke-linejoin="round"></path><path d="M46.36,42.26a6.8,6.8,0,0,1-4.634,6.7,6.771,6.771,0,0,1-4.646-6.7,6.772,6.772,0,0,1,4.646-6.7A6.8,6.8,0,0,1,46.36,42.26Z" fill="none" stroke="#45413c" stroke-miterlimit="10"></path><path d="M61.23 62.948L55.549 60.108" fill="#ffffff" stroke="#45413c" stroke-miterlimit="10"></path><path d="M67.804 56.374L61.23 62.948" fill="#ffffff" stroke="#45413c" stroke-miterlimit="10"></path><path d="M59.505 62.948 A1.725 1.725 0 1 0 62.955 62.948 A1.725 1.725 0 1 0 59.505 62.948 Z" fill="#ffffff" stroke="#45413c" stroke-miterlimit="10"></path><path d="M35.93 62.948L42.11 59.858" fill="#ffffff" stroke="#45413c" stroke-miterlimit="10"></path><path d="M29.679 56.698L35.93 62.948" fill="#ffffff" stroke="#45413c" stroke-miterlimit="10"></path><path d="M34.205 62.948 A1.725 1.725 0 1 0 37.655 62.948 A1.725 1.725 0 1 0 34.205 62.948 Z" fill="#ffffff" stroke="#45413c" stroke-miterlimit="10"></path><path d="M48.787 65.935 A3.45 12.075 0 1 0 55.687 65.935 A3.45 12.075 0 1 0 48.787 65.935 Z" fill="#f0f0f0"></path><path d="M55.359,60.791c-.552-4.1-1.742-6.931-3.122-6.931s-2.569,2.831-3.121,6.923c.538,4.124,1.737,6.981,3.121,6.981s2.581-2.853,3.12-6.973" fill="#ffffff"></path><path d="M48.787 65.935 A3.45 12.075 0 1 0 55.687 65.935 A3.45 12.075 0 1 0 48.787 65.935 Z" fill="none" stroke="#45413c" stroke-linecap="round" stroke-linejoin="round"></path><path d="M67.8,56.57a1.188,1.188,0,0,1,.734-1.334,1.137,1.137,0,0,1,1.4.53A32.251,32.251,0,0,1,72.859,64.8a32.453,32.453,0,0,1,.549,9.5,1.146,1.146,0,0,1-2.27.067Z" fill="#f0f0f0"></path><path d="M70.014,68.366,67.8,56.57a1.188,1.188,0,0,1,.734-1.334,1.137,1.137,0,0,1,1.4.53c.09.165.18.338.27.516.113.5.215,1.027.317,1.551a32.209,32.209,0,0,1,.552,9.5,1.166,1.166,0,0,1-1.058,1.029" fill="#ffffff"></path><path d="M67.8,56.57a1.188,1.188,0,0,1,.734-1.334,1.137,1.137,0,0,1,1.4.53A32.251,32.251,0,0,1,72.859,64.8a32.453,32.453,0,0,1,.549,9.5,1.146,1.146,0,0,1-2.27.067Z" fill="none" stroke="#45413c" stroke-linecap="round" stroke-linejoin="round"></path><path d="M29.764,56.276a1.187,1.187,0,0,0-.733-1.333,1.135,1.135,0,0,0-1.4.53,32.164,32.164,0,0,0-2.924,9.032,32.487,32.487,0,0,0-.55,9.5,1.146,1.146,0,0,0,2.27.068Z" fill="#f0f0f0"></path><path d="M27.554,68.073l2.21-11.8a1.187,1.187,0,0,0-.733-1.333,1.135,1.135,0,0,0-1.4.53q-.136.248-.27.516c-.113.5-.216,1.026-.318,1.55a32.217,32.217,0,0,0-.552,9.5,1.166,1.166,0,0,0,1.059,1.028" fill="#ffffff"></path><path d="M29.764,56.276a1.187,1.187,0,0,0-.733-1.333,1.135,1.135,0,0,0-1.4.53,32.164,32.164,0,0,0-2.924,9.032,32.487,32.487,0,0,0-.55,9.5,1.146,1.146,0,0,0,2.27.068Z" fill="none" stroke="#45413c" stroke-linecap="round" stroke-linejoin="round"></path></g></svg>