<svg xmlns="http://www.w3.org/2000/svg" version="1.1" xmlns:xlink="http://www.w3.org/1999/xlink" xmlns:svgjs="http://svgjs.com/svgjs" viewBox="0 0 200 200" width="200" height="200"><g transform="matrix(2,0,0,2,0,0)"><path d="M90,52.93a40,40,0,1,0-76.436,16.5H86.436A39.844,39.844,0,0,0,90,52.93Z" fill="#c7f0ff"></path><path d="M13.564,69.43a40,40,0,0,0,72.872,0Z" fill="#e8f4fa"></path><path d="M11 69.43L89 69.43" fill="none" stroke="#45413c" stroke-linecap="round" stroke-linejoin="round"></path><path d="M6.5 69.43L9 69.43" fill="none" stroke="#45413c" stroke-linecap="round" stroke-linejoin="round"></path><path d="M91 69.43L93.5 69.43" fill="none" stroke="#45413c" stroke-linecap="round" stroke-linejoin="round"></path><path d="M50.63,90.927c0,.952-7.037,1.725-15.718,1.725S19.2,91.879,19.2,90.927,26.233,89.2,34.912,89.2,50.63,89.973,50.63,90.927Z" fill="#45413c" opacity=".15"></path><path d="M75.2,61.43l1.674,7.434a.725.725,0,0,0,.708.566h.964a.726.726,0,0,0,.7-.92l-1.973-7.08Z" fill="#bf8256" stroke="#45413c" stroke-linecap="round" stroke-linejoin="round"></path><path d="M67.73,61.43l-1.974,7.079a.727.727,0,0,0,.7.921h.965a.725.725,0,0,0,.708-.566L69.8,61.43Z" fill="#bf8256" stroke="#45413c" stroke-linecap="round" stroke-linejoin="round"></path><path d="M71.5,61.43V68.7a.725.725,0,0,0,.725.726h.549A.726.726,0,0,0,73.5,68.7V61.43Z" fill="#bf8256" stroke="#45413c" stroke-linecap="round" stroke-linejoin="round"></path><path d="M72.5,33.93a1,1,0,0,0-1,1v2.5h2v-2.5A1,1,0,0,0,72.5,33.93Z" fill="#bf8256" stroke="#45413c" stroke-linecap="round" stroke-linejoin="round"></path><path d="M82.5,61.43h-20a1,1,0,0,1-1-1h0a1,1,0,0,1,1-1h20a1,1,0,0,1,1,1h0A1,1,0,0,1,82.5,61.43Z" fill="#bf8256" stroke="#45413c" stroke-linecap="round" stroke-linejoin="round"></path><path d="M80.5,37.43h-16a1,1,0,0,0-1,1v21h18v-21A1,1,0,0,0,80.5,37.43Z" fill="#ffffff" stroke="#45413c" stroke-linecap="round" stroke-linejoin="round"></path><path d="M66.501 40.411 L72.501 40.411 L72.501 46.417 L66.501 46.417 Z" fill="#9ceb60" stroke="#45413c" stroke-linecap="round" stroke-linejoin="round"></path><path d="M79.313,49.82a3,3,0,1,1-3-3A3,3,0,0,1,79.313,49.82Z" fill="#ff866e" stroke="#45413c" stroke-linecap="round" stroke-linejoin="round"></path><path d="M68.969,56.36a.5.5,0,0,1-.561-.4L67.7,52.425a.5.5,0,0,1,.714-.546l5.654,2.83a.5.5,0,0,1-.153.943Z" fill="#fff48c" stroke="#45413c" stroke-linecap="round" stroke-linejoin="round"></path><path d="M64.049,26.921a.59.59,0,0,1,.769.428,6.214,6.214,0,1,1-8.685-4.24.593.593,0,0,1,.81.344l.582,1.692a.591.591,0,0,1-.283.716,3.255,3.255,0,1,0,4.724,2.306.591.591,0,0,1,.39-.664Z" fill="#656769"></path><path d="M64.049,26.921a.59.59,0,0,1,.769.428,6.214,6.214,0,1,1-8.685-4.24.593.593,0,0,1,.81.344l.582,1.692a.591.591,0,0,1-.283.716,3.255,3.255,0,1,0,4.724,2.306.591.591,0,0,1,.39-.664Z" fill="#c0dceb" stroke="#45413c" stroke-linecap="round" stroke-linejoin="round"></path><path d="M53.912,52.031c-2.691,0-4.815-2.285-6.469-4.063-2.32-2.5-4.022-4.116-6.37-3.766a2.3,2.3,0,0,1-.662-4.552c4.91-.71,8.086,2.7,10.4,5.186,2.152,2.314,2.836,2.793,3.488,2.457.735-.384.559-1.686-.146-4.649-.782-3.283-1.753-7.368.712-10.763a2.3,2.3,0,0,1,3.722,2.7c-1.223,1.685-.581,4.385.04,7,.773,3.245,1.83,7.689-2.2,9.793A5.39,5.39,0,0,1,53.912,52.031Z" fill="#ffffff" stroke="#45413c" stroke-linecap="round" stroke-linejoin="round"></path><path d="M49.758,43.723c.173,2.127-.5,3.62-2.315,4.245" fill="none" stroke="#45413c" stroke-linecap="round" stroke-linejoin="round"></path><path d="M54.761,45.845c1.678-.65,4,.865,4.14,2.925" fill="none" stroke="#45413c" stroke-linecap="round" stroke-linejoin="round"></path><path d="M53.322,37.966a3.56,3.56,0,0,1,4.674.5" fill="none" stroke="#45413c" stroke-linecap="round" stroke-linejoin="round"></path><path d="M17.1,70.119a.591.591,0,0,0,.879.022,6.214,6.214,0,1,0-9.635-.757.592.592,0,0,0,.873.115l1.36-1.162a.593.593,0,0,0,.12-.761,3.255,3.255,0,1,1,5.241.412.59.59,0,0,0,0,.77Z" fill="#656769"></path><path d="M17.1,70.119a.591.591,0,0,0,.879.022,6.214,6.214,0,1,0-9.635-.757.592.592,0,0,0,.873.115l1.36-1.162a.593.593,0,0,0,.12-.761,3.255,3.255,0,1,1,5.241.412.59.59,0,0,0,0,.77Z" fill="#c0dceb" stroke="#45413c" stroke-linecap="round" stroke-linejoin="round"></path><path d="M31.933,39.462c-.07,0-.139.006-.211.013-6.668.726-19.514,6.145-20.4,21.46a2.51,2.51,0,0,0,5.012.291c.861-14.856,15.327-16.69,15.942-16.761a2.51,2.51,0,0,0-.34-5Z" fill="#ffffff" stroke="#45413c" stroke-linecap="round" stroke-linejoin="round"></path><path d="M12.126,55.834a4.739,4.739,0,0,0,4.951.931" fill="none" stroke="#45413c" stroke-linecap="round" stroke-linejoin="round"></path><path d="M16.019,48.078a4.738,4.738,0,0,0,3.352,3.871" fill="none" stroke="#45413c" stroke-linecap="round" stroke-linejoin="round"></path><path d="M21.988,42.888a4.743,4.743,0,0,0,2.283,4.492" fill="none" stroke="#45413c" stroke-linecap="round" stroke-linejoin="round"></path><path d="M47.081,89.963a2.711,2.711,0,0,0,2.33-2.794,84.681,84.681,0,0,0-5.453-27.321,2.713,2.713,0,0,0-5.082,1.9,80.287,80.287,0,0,1,5.115,25.637,2.708,2.708,0,0,0,3.09,2.577Z" fill="#ffffff" stroke="#45413c" stroke-linecap="round" stroke-linejoin="round"></path><path d="M53.207,88.039c0,2.754-2.791,2.493-6.232,2.493s-6.233.261-6.233-2.493,2.791-4.985,6.233-4.985S53.207,85.286,53.207,88.039Z" fill="#c0dceb" stroke="#45413c" stroke-linecap="round" stroke-linejoin="round"></path><path d="M41.354,69.5a11.485,11.485,0,0,0,2.776-.536,11.64,11.64,0,0,0,2.422-1.084" fill="none" stroke="#45413c" stroke-linecap="round" stroke-linejoin="round"></path><path d="M42.636,75.312a11.432,11.432,0,0,0,2.835-.26,11.55,11.55,0,0,0,2.492-.828" fill="none" stroke="#45413c" stroke-linecap="round" stroke-linejoin="round"></path><path d="M43.453,80.572a10.97,10.97,0,0,0,3.525-.206,12.039,12.039,0,0,0,1.841-.548" fill="none" stroke="#45413c" stroke-linecap="round" stroke-linejoin="round"></path><path d="M25.169,89.988a2.716,2.716,0,0,1-2.6-2.819,84.712,84.712,0,0,1,5.453-27.321,2.713,2.713,0,0,1,5.082,1.9,80.3,80.3,0,0,0-5.114,25.637A2.713,2.713,0,0,1,25.169,89.988Z" fill="#ffffff" stroke="#45413c" stroke-linecap="round" stroke-linejoin="round"></path><path d="M24.864 19.863 L46.565 19.863 L46.565 35.364 L24.864 35.364 Z" fill="#00b8f0"></path><path d="M40.97,19.863,26.089,34.728a3.1,3.1,0,0,1-1.225-2.464v-9.3a3.109,3.109,0,0,1,3.1-3.1Z" fill="#4acfff"></path><path d="M24.864 19.863 L46.565 19.863 L46.565 35.364 L24.864 35.364 Z" fill="none" stroke="#45413c" stroke-linecap="round" stroke-linejoin="round"></path><path d="M32.615,29.769a1.3,1.3,0,0,1-1.294-1.293.257.257,0,0,0-.513,0,1.294,1.294,0,0,1-2.587,0,2.844,2.844,0,1,1,5.688,0A1.3,1.3,0,0,1,32.615,29.769Z" fill="#ffffff" stroke="#00658a" stroke-linecap="round" stroke-linejoin="round"></path><path d="M41.915,29.769a1.3,1.3,0,0,1-1.294-1.293.256.256,0,0,0-.512,0,1.294,1.294,0,0,1-2.587,0,2.844,2.844,0,1,1,5.687,0A1.3,1.3,0,0,1,41.915,29.769Z" fill="#ffffff" stroke="#00658a" stroke-linecap="round" stroke-linejoin="round"></path><path d="M34.165 35.364H37.265V38.464H34.165z" fill="#87898c" stroke="#45413c" stroke-linecap="round" stroke-linejoin="round"></path><path d="M44.354,57.726H27.076V41.914a3.45,3.45,0,0,1,3.45-3.45H40.9a3.45,3.45,0,0,1,3.45,3.45Z" fill="#ffffff" stroke="#45413c" stroke-linecap="round" stroke-linejoin="round"></path><path d="M44.354,57.726a8.639,8.639,0,1,1-17.278,0Z" fill="#ffffff" stroke="#45413c" stroke-linecap="round" stroke-linejoin="round"></path><path d="M40.034,45.553a1.55,1.55,0,0,1-1.55,1.55H32.945a1.55,1.55,0,0,1-1.55-1.55V38.464h8.639Z" fill="#e8f4fa" stroke="#45413c" stroke-linecap="round" stroke-linejoin="round"></path><path d="M18.771,88.039c0,2.754,2.79,2.493,6.232,2.493s6.232.261,6.232-2.493S28.445,83.054,25,83.054,18.771,85.286,18.771,88.039Z" fill="#c0dceb" stroke="#45413c" stroke-linecap="round" stroke-linejoin="round"></path><path d="M30.623,69.5a11.478,11.478,0,0,1-2.775-.536,11.625,11.625,0,0,1-2.423-1.084" fill="none" stroke="#45413c" stroke-linecap="round" stroke-linejoin="round"></path><path d="M29.342,75.312a11.44,11.44,0,0,1-2.836-.26,11.569,11.569,0,0,1-2.492-.828" fill="none" stroke="#45413c" stroke-linecap="round" stroke-linejoin="round"></path><path d="M28.524,80.572A10.962,10.962,0,0,1,25,80.366a11.972,11.972,0,0,1-1.841-.548" fill="none" stroke="#45413c" stroke-linecap="round" stroke-linejoin="round"></path><path d="M66.8,17.11a2.38,2.38,0,0,1-4.345-1.946c.411-.916,2.063-1.232,3.228-2.222a.835.835,0,0,1,1.359.475A6.286,6.286,0,0,1,66.8,17.11Z" fill="#fff5e3" stroke="#45413c" stroke-linecap="round" stroke-linejoin="round"></path><path d="M58.459,29.9h0a1.724,1.724,0,0,1-.922-2.146l2.052-5.838c.691-1.962,1.9-2.751,3.336-3.927l1.449.648c.078,1.847.3,3.282-.71,5.105l-2.99,5.417A1.724,1.724,0,0,1,58.459,29.9Z" fill="#bf8256" stroke="#45413c" stroke-linecap="round" stroke-linejoin="round"></path><path d="M31.864 10.505 A3.434 3.434 0 1 0 38.732 10.505 A3.434 3.434 0 1 0 31.864 10.505 Z" fill="#ff6242" stroke="#45413c" stroke-linecap="round" stroke-linejoin="round"></path><path d="M24.543 20.154H46.244V23.356H24.543z" fill="#ff6242" stroke="#45413c" stroke-linecap="round" stroke-linejoin="round" transform="translate(-2.646 5.052) rotate(-7.872)"></path><path d="M49.188,14.139c-.455-3.295-16.865-4.264-22.615-3.469s-11.044,5.618-10.7,8.076,4.908,3.414,4.908,3.414l24.614-3.4S49.644,17.434,49.188,14.139Z" fill="#ff6242" stroke="#45413c" stroke-linecap="round" stroke-linejoin="round"></path></g></svg>