<svg xmlns="http://www.w3.org/2000/svg" version="1.1" xmlns:xlink="http://www.w3.org/1999/xlink" xmlns:svgjs="http://svgjs.com/svgjs" viewBox="0 0 200 200" width="200" height="200"><g transform="matrix(2,0,0,2,0,0)"><path d="M90,50.986a40,40,0,1,0-76.436,16.5H86.436A39.841,39.841,0,0,0,90,50.986Z" fill="#c7f0ff"></path><path d="M13.564,67.486a40,40,0,0,0,72.872,0Z" fill="#e8f4fa"></path><path d="M11 67.486L89 67.486" fill="none" stroke="#45413c" stroke-linecap="round" stroke-linejoin="round"></path><path d="M6.5 67.486L9 67.486" fill="none" stroke="#45413c" stroke-linecap="round" stroke-linejoin="round"></path><path d="M91 67.486L93.5 67.486" fill="none" stroke="#45413c" stroke-linecap="round" stroke-linejoin="round"></path><path d="M75.169,85.9c0,1.259-11.072,2.28-26.6,2.28S25,87.162,25,85.9s8.031-2.281,23.563-2.281S75.169,84.643,75.169,85.9Z" fill="#45413c" opacity=".15"></path><path d="M47.426 37.209H52.576V41.468H47.426z" fill="#daedf7"></path><path d="M47.426 37.209H52.576V38.893H47.426z" fill="#c0dceb"></path><path d="M47.426 37.209H52.576V41.468H47.426z" fill="none" stroke="#45413c" stroke-linecap="round" stroke-linejoin="round"></path><path d="M39.701 41.467 L60.300 41.467 L60.300 60.779 L39.701 60.779 Z" fill="#ffffff" stroke="#45413c" stroke-linecap="round" stroke-linejoin="round"></path><path d="M46.138 60.779H53.863V67.336H46.138z" fill="#daedf7"></path><path d="M46.138 60.779H53.863V63.474000000000004H46.138z" fill="#c0dceb"></path><path d="M46.138 60.779H53.863V67.336H46.138z" fill="none" stroke="#45413c" stroke-linecap="round" stroke-linejoin="round"></path><path d="M55.15,50.479a2.575,2.575,0,0,1-2.575,2.575H47.426a2.574,2.574,0,0,1-2.575-2.575V41.467h10.3Z" fill="#c0dceb"></path><path d="M55.15,50.479a2.575,2.575,0,0,1-2.575,2.575H47.426a2.574,2.574,0,0,1-2.575-2.575V41.467h10.3Z" fill="#e8f4fa" stroke="#45413c" stroke-linecap="round" stroke-linejoin="round"></path><path d="M57.371,67.336A2.576,2.576,0,0,1,59.8,70.77a10.3,10.3,0,0,1-19.427,0A2.575,2.575,0,0,1,42.8,67.336Z" fill="#f0f0f0" stroke="#45413c" stroke-linecap="round" stroke-linejoin="round"></path><path d="M20.938 48.318H40.25V53.467999999999996H20.938z" fill="#ffffff" stroke="#45413c" stroke-linecap="round" stroke-linejoin="round" transform="matrix(0.67, -0.742, 0.742, 0.67, -27.687, 39.515)"></path><path d="M39.7,50.479h-5.15a3.862,3.862,0,0,1-3.862-3.862V45.33a3.863,3.863,0,0,1,3.862-3.863h2.575A2.575,2.575,0,0,1,39.7,44.042Z" fill="#ffffff" stroke="#45413c" stroke-linecap="round" stroke-linejoin="round"></path><path d="M26.406 57.743H31.555999999999997V71.95100000000001H26.406z" fill="#f0f0f0" stroke="#45413c" stroke-linecap="round" stroke-linejoin="round" transform="translate(-37.123 38.861) rotate(-44.459)"></path><path d="M40.933,80.92a.644.644,0,0,1-.632.719,6.759,6.759,0,1,1,6.516-8.249.644.644,0,0,1-.553.781l-1.933.227a.643.643,0,0,1-.7-.466,3.541,3.541,0,1,0-3.545,4.486.643.643,0,0,1,.615.569Z" fill="#656769"></path><path d="M40.933,80.92a.644.644,0,0,1-.632.719,6.759,6.759,0,1,1,6.516-8.249.644.644,0,0,1-.553.781l-1.933.227a.643.643,0,0,1-.7-.466,3.541,3.541,0,1,0-3.545,4.486.643.643,0,0,1,.615.569Z" fill="none" stroke="#45413c" stroke-linecap="round" stroke-linejoin="round"></path><path d="M31.087 71.494 A3.862 3.862 0 1 0 38.811 71.494 A3.862 3.862 0 1 0 31.087 71.494 Z" fill="#f0f0f0" stroke="#45413c" stroke-linecap="round" stroke-linejoin="round"></path><path d="M19.383 60.201 A4.674 4.674 0 1 0 28.731 60.201 A4.674 4.674 0 1 0 19.383 60.201 Z" fill="#ffffff" stroke="#45413c" stroke-linecap="round" stroke-linejoin="round"></path><path d="M66.832 41.238H71.982V60.55H66.832z" fill="#ffffff" stroke="#45413c" stroke-linecap="round" stroke-linejoin="round" transform="translate(-16.218 59.602) rotate(-42.059)"></path><path d="M60.3,50.479h5.15a3.862,3.862,0,0,0,3.862-3.862V45.33a3.863,3.863,0,0,0-3.862-3.863H62.875A2.575,2.575,0,0,0,60.3,44.042Z" fill="#ffffff" stroke="#45413c" stroke-linecap="round" stroke-linejoin="round"></path><path d="M63.916 62.272H78.124V67.422H63.916z" fill="#f0f0f0" stroke="#45413c" stroke-linecap="round" stroke-linejoin="round" transform="translate(-25.007 70.118) rotate(-45.541)"></path><path d="M59.068,80.92a.644.644,0,0,0,.632.719,6.759,6.759,0,1,0-6.517-8.249.645.645,0,0,0,.553.781l1.934.227a.644.644,0,0,0,.7-.466,3.541,3.541,0,1,1,3.544,4.486.643.643,0,0,0-.614.569Z" fill="#656769"></path><path d="M59.068,80.92a.644.644,0,0,0,.632.719,6.759,6.759,0,1,0-6.517-8.249.645.645,0,0,0,.553.781l1.934.227a.644.644,0,0,0,.7-.466,3.541,3.541,0,1,1,3.544,4.486.643.643,0,0,0-.614.569Z" fill="none" stroke="#45413c" stroke-linecap="round" stroke-linejoin="round"></path><path d="M61.190 71.494 A3.862 3.862 0 1 0 68.914 71.494 A3.862 3.862 0 1 0 61.190 71.494 Z" fill="#f0f0f0" stroke="#45413c" stroke-linecap="round" stroke-linejoin="round"></path><path d="M71.270 60.201 A4.674 4.674 0 1 0 80.618 60.201 A4.674 4.674 0 1 0 71.270 60.201 Z" fill="#ffffff" stroke="#45413c" stroke-linecap="round" stroke-linejoin="round"></path><path d="M32.059 9.014 L67.942 9.014 L67.942 37.208 L32.059 37.208 Z" fill="#009fd9"></path><path d="M36.378,37.207l28.1-28.093a4.359,4.359,0,0,0-.927-.1H36.459a4.4,4.4,0,0,0-4.4,4.4V32.808A4.4,4.4,0,0,0,36.378,37.207Z" fill="#00b8f0"></path><path d="M32.059 9.014 L67.942 9.014 L67.942 37.208 L32.059 37.208 Z" fill="none" stroke="#45413c" stroke-linecap="round" stroke-linejoin="round"></path><path d="M32.059 9.014 L67.942 9.014 L67.942 37.208 L32.059 37.208 Z" fill="none" stroke="#45413c" stroke-linecap="round" stroke-linejoin="round"></path><path d="M36.459,34.458a1.652,1.652,0,0,1-1.65-1.65V13.414a1.652,1.652,0,0,1,1.65-1.65H63.543a1.652,1.652,0,0,1,1.65,1.65V32.809a1.652,1.652,0,0,1-1.65,1.65H36.459Z" fill="none" stroke="#4acfff" stroke-linecap="round" stroke-linejoin="round"></path><path d="M45.971,26.42A1.376,1.376,0,0,1,44.6,25.045c0-.928-.313-1.92-1.188-1.92s-1.188.992-1.188,1.92a1.375,1.375,0,0,1-2.75,0c0-3.208,2.041-4.67,3.938-4.67s3.938,1.462,3.938,4.67A1.377,1.377,0,0,1,45.971,26.42Z" fill="#e5fff9" stroke="#00658a" stroke-linecap="round" stroke-linejoin="round"></path><path d="M58.6,26.42a1.377,1.377,0,0,1-1.375-1.375c0-.928-.312-1.92-1.188-1.92s-1.188.992-1.188,1.92a1.375,1.375,0,0,1-2.75,0c0-3.208,2.041-4.67,3.938-4.67s3.938,1.462,3.938,4.67A1.376,1.376,0,0,1,58.6,26.42Z" fill="#e5fff9" stroke="#00658a" stroke-linecap="round" stroke-linejoin="round"></path><path d="M70.128,84.383H30.021a2,2,0,0,1-2-2v-1.8H72.128v1.8A2,2,0,0,1,70.128,84.383Z" fill="#adc4d9" stroke="#45413c" stroke-linecap="round" stroke-linejoin="round"></path><path d="M72.128,80.582H28.021L25.784,60.425A3.041,3.041,0,0,1,28.8,57.019H71.368a3.039,3.039,0,0,1,3.018,3.406Z" fill="#c0dceb"></path><path d="M26.113,63.382a2.786,2.786,0,0,1,.414-.778A3.039,3.039,0,0,1,28.8,61.58H71.368A3.037,3.037,0,0,1,73.643,62.6a2.778,2.778,0,0,1,.412.773l.331-2.952a3.041,3.041,0,0,0-3.018-3.406H28.8a3.039,3.039,0,0,0-3.018,3.406Z" fill="#daedf7"></path><path d="M72.128,80.582H28.021L25.784,60.425A3.041,3.041,0,0,1,28.8,57.019H71.368a3.039,3.039,0,0,1,3.018,3.406Z" fill="none" stroke="#45413c" stroke-linecap="round" stroke-linejoin="round"></path><path d="M52.529,68.97A2.339,2.339,0,0,1,53.646,67a2.419,2.419,0,0,0-1.892-1.024c-.8-.082-1.571.474-1.98.474s-1.039-.462-1.706-.451a2.536,2.536,0,0,0-2.141,1.3c-.912,1.583-.232,3.928.657,5.212.433.628.952,1.333,1.632,1.307.655-.025.9-.423,1.694-.423s1.014.423,1.707.411,1.152-.64,1.583-1.271a5.672,5.672,0,0,0,.716-1.471A2.281,2.281,0,0,1,52.529,68.97Z" fill="#f0f0f0" stroke="#45413c" stroke-linecap="round" stroke-linejoin="round"></path><path d="M50.758 63.289L51.707 62.34" fill="none" stroke="#45413c" stroke-linecap="round" stroke-linejoin="round"></path></g></svg>