<svg xmlns="http://www.w3.org/2000/svg" version="1.1" xmlns:xlink="http://www.w3.org/1999/xlink" xmlns:svgjs="http://svgjs.com/svgjs" viewBox="0 0 200 200" width="200" height="200"><g transform="matrix(2,0,0,2,0,0)"><path d="M10.000 54.400 A40.000 40.000 0 1 0 90.000 54.400 A40.000 40.000 0 1 0 10.000 54.400 Z" fill="#e8f4fa" stroke="#daedf7" stroke-linecap="round" stroke-linejoin="round"></path><path d="M35.364 86.273 A14.636 2.927 0 1 0 64.636 86.273 A14.636 2.927 0 1 0 35.364 86.273 Z" fill="#45413c" opacity=".15"></path><path d="M28.569 28.592H38.521V34.446H28.569z" fill="#ffffff" transform="translate(-10.598 44.564) rotate(-59.68)"></path><path d="M33.53,25.746l-2.153,3.682a5.666,5.666,0,0,0,2.691,2.846l1.878.939L38.584,28.7Z" fill="#e0e0e0"></path><path d="M28.569 28.592H38.521V34.446H28.569z" fill="none" stroke="#45413c" stroke-linecap="round" stroke-linejoin="round" transform="translate(-10.598 44.564) rotate(-59.68)"></path><path d="M33.264,37.8,30.63,43.549A10.722,10.722,0,0,1,27.649,47.4L22.6,44.444a10.709,10.709,0,0,1,1.895-4.486l3.721-5.115Z" fill="#ffffff" stroke="#45413c" stroke-linecap="round" stroke-linejoin="round"></path><path d="M33.35,36.492a1.171,1.171,0,0,1-1.182,2.021l-4.043-2.364a1.171,1.171,0,0,1,1.182-2.022Z" fill="#e0e0e0" stroke="#45413c" stroke-linecap="round" stroke-linejoin="round"></path><path d="M22.6,44.444l-2.4,4.109a4.69,4.69,0,0,0-.581,3.109l.591,3.665a1.166,1.166,0,0,0,2.316-.139l.154-3.917.322-.551a1.1,1.1,0,0,1,1.977.161l.185.483a1.053,1.053,0,0,0,2.028-.248l.465-3.716Z" fill="#ffffff" stroke="#45413c" stroke-linecap="round" stroke-linejoin="round"></path><path d="M43.56 43.536H56.440000000000005V53.488H43.56z" fill="#bdbec0"></path><path d="M43.56 43.536H56.440000000000005V47.049H43.56z" fill="#87898c"></path><path d="M43.56 43.536H56.440000000000005V53.488H43.56z" fill="none" stroke="#45413c" stroke-linecap="round" stroke-linejoin="round"></path><path d="M41.218,17.192a2.684,2.684,0,0,1-2.341-2.928,2.684,2.684,0,0,1,2.341-2.927Z" fill="#ffffff"></path><path d="M39.072,13.094a3.554,3.554,0,0,0-.2,1.17,2.684,2.684,0,0,0,2.341,2.928V14.85A2.392,2.392,0,0,1,39.072,13.094Z" fill="#e0e0e0"></path><path d="M41.218,17.192a2.684,2.684,0,0,1-2.341-2.928,2.684,2.684,0,0,1,2.341-2.927Z" fill="none" stroke="#45413c" stroke-linecap="round" stroke-linejoin="round"></path><path d="M58.782,17.192a2.684,2.684,0,0,0,2.341-2.928,2.684,2.684,0,0,0-2.341-2.927Z" fill="#ffffff"></path><path d="M60.928,13.094a3.554,3.554,0,0,1,.2,1.17,2.684,2.684,0,0,1-2.341,2.928V14.85A2.392,2.392,0,0,0,60.928,13.094Z" fill="#e0e0e0"></path><path d="M58.782,17.192a2.684,2.684,0,0,0,2.341-2.928,2.684,2.684,0,0,0-2.341-2.927Z" fill="none" stroke="#45413c" stroke-linecap="round" stroke-linejoin="round"></path><path d="M56.44,19.533a2.342,2.342,0,0,0,2.342-2.341V10.858a4.685,4.685,0,0,0-3.675-4.575A25.66,25.66,0,0,0,50,5.6a25.66,25.66,0,0,0-5.107.683,4.677,4.677,0,0,0-3.675,4.575v6.334a2.342,2.342,0,0,0,2.342,2.341Z" fill="#ffffff" stroke="#45413c" stroke-linecap="round" stroke-linejoin="round"></path><path d="M48.829 83.931L37.12 83.931 37.12 82.76 38.291 79.248 47.658 79.248 48.829 82.76 48.829 83.931z" fill="#ffffff" stroke="#45413c" stroke-linecap="round" stroke-linejoin="round"></path><path d="M47.658,55.83H38.291V52.147a1,1,0,0,1,1-1h7.367a1,1,0,0,1,1,1Z" fill="#656769" stroke="#45413c" stroke-linecap="round" stroke-linejoin="round"></path><path d="M37.706,31.242,35.2,29.99a3.941,3.941,0,0,1,1.2-7.427l4.812-.688Z" fill="#ffffff" stroke="#45413c" stroke-linecap="round" stroke-linejoin="round"></path><path d="M46.073,46.463h-6.2a1,1,0,0,1-1-1V43.536h8.2v1.927A1,1,0,0,1,46.073,46.463Z" fill="#f0f0f0" stroke="#45413c" stroke-linecap="round" stroke-linejoin="round"></path><path d="M45.902 46.463L45.317 51.147 40.633 51.147 40.048 46.463 45.902 46.463z" fill="#e0e0e0" stroke="#45413c" stroke-linecap="round" stroke-linejoin="round"></path><path d="M40.633 51.147 A2.342 2.342 0 1 0 45.317 51.147 A2.342 2.342 0 1 0 40.633 51.147 Z" fill="#f0f0f0" stroke="#45413c" stroke-linecap="round" stroke-linejoin="round"></path><path d="M42.975,51.732A2.341,2.341,0,0,1,40.8,50.269a2.342,2.342,0,1,0,4.342,0A2.343,2.343,0,0,1,42.975,51.732Z" fill="#bdbec0"></path><path d="M40.633 51.147 A2.342 2.342 0 1 0 45.317 51.147 A2.342 2.342 0 1 0 40.633 51.147 Z" fill="none" stroke="#45413c" stroke-linecap="round" stroke-linejoin="round"></path><path d="M46.658,65.2H39.291a1,1,0,0,1-1-1V55.83h9.367V64.2A1,1,0,0,1,46.658,65.2Z" fill="#ffffff" stroke="#45413c" stroke-linecap="round" stroke-linejoin="round"></path><path d="M47.658,79.248H38.291V68.539a1,1,0,0,1,1-1h7.367a1,1,0,0,1,1,1Z" fill="#ffffff" stroke="#45413c" stroke-linecap="round" stroke-linejoin="round"></path><path d="M40.633 79.248 A2.342 2.342 0 1 0 45.317 79.248 A2.342 2.342 0 1 0 40.633 79.248 Z" fill="#ffffff"></path><path d="M42.975,79.833A2.34,2.34,0,0,1,40.8,78.369a2.342,2.342,0,1,0,4.342,0A2.342,2.342,0,0,1,42.975,79.833Z" fill="#e0e0e0"></path><path d="M40.633 79.248 A2.342 2.342 0 1 0 45.317 79.248 A2.342 2.342 0 1 0 40.633 79.248 Z" fill="none" stroke="#45413c" stroke-linecap="round" stroke-linejoin="round"></path><path d="M39.462 65.197H42.975V67.539H39.462z" fill="#656769" stroke="#45413c" stroke-linecap="round" stroke-linejoin="round"></path><path d="M42.975 65.197H46.488V67.539H42.975z" fill="#bdbec0" stroke="#45413c" stroke-linecap="round" stroke-linejoin="round"></path><path d="M47.829,86.273H38.12a1,1,0,0,1-1-1V83.931H48.829v1.342A1,1,0,0,1,47.829,86.273Z" fill="#525252" stroke="#45413c" stroke-linecap="round" stroke-linejoin="round"></path><path d="M63.528 26.543H69.382V36.495H63.528z" fill="#ffffff" transform="translate(-6.822 37.86) rotate(-30.32)"></path><path d="M66.47,25.746l2.153,3.682a5.666,5.666,0,0,1-2.691,2.846l-1.878.939L61.416,28.7Z" fill="#e0e0e0"></path><path d="M63.528 26.543H69.382V36.495H63.528z" fill="none" stroke="#45413c" stroke-linecap="round" stroke-linejoin="round" transform="translate(-6.822 37.86) rotate(-30.32)"></path><path d="M66.736,37.8l2.634,5.751A10.722,10.722,0,0,0,72.351,47.4l5.054-2.956a10.709,10.709,0,0,0-1.895-4.486l-3.721-5.115Z" fill="#ffffff" stroke="#45413c" stroke-linecap="round" stroke-linejoin="round"></path><path d="M66.65,36.492a1.171,1.171,0,0,0,1.182,2.021l4.043-2.364a1.171,1.171,0,1,0-1.182-2.022Z" fill="#e0e0e0" stroke="#45413c" stroke-linecap="round" stroke-linejoin="round"></path><path d="M77.405,44.444l2.4,4.109a4.69,4.69,0,0,1,.581,3.109L79.8,55.327a1.166,1.166,0,0,1-2.316-.139l-.154-3.917-.322-.551a1.1,1.1,0,0,0-1.977.161l-.185.483a1.053,1.053,0,0,1-2.028-.248L72.351,47.4Z" fill="#ffffff" stroke="#45413c" stroke-linecap="round" stroke-linejoin="round"></path><path d="M51.171 83.931L62.88 83.931 62.88 82.76 61.709 79.248 52.342 79.248 51.171 82.76 51.171 83.931z" fill="#ffffff" stroke="#45413c" stroke-linecap="round" stroke-linejoin="round"></path><path d="M52.342,55.83h9.367V52.147a1,1,0,0,0-1-1H53.342a1,1,0,0,0-1,1Z" fill="#656769" stroke="#45413c" stroke-linecap="round" stroke-linejoin="round"></path><path d="M62.294,31.242,64.8,29.99a3.941,3.941,0,0,0-1.205-7.427l-4.812-.688Z" fill="#ffffff" stroke="#45413c" stroke-linecap="round" stroke-linejoin="round"></path><path d="M53.927,46.463h6.2a1,1,0,0,0,1-1V43.536h-8.2v1.927A1,1,0,0,0,53.927,46.463Z" fill="#f0f0f0" stroke="#45413c" stroke-linecap="round" stroke-linejoin="round"></path><path d="M54.098 46.463L54.683 51.147 59.367 51.147 59.952 46.463 54.098 46.463z" fill="#e0e0e0" stroke="#45413c" stroke-linecap="round" stroke-linejoin="round"></path><path d="M54.683 51.147 A2.342 2.342 0 1 0 59.367 51.147 A2.342 2.342 0 1 0 54.683 51.147 Z" fill="#f0f0f0" stroke="#45413c" stroke-linecap="round" stroke-linejoin="round"></path><path d="M57.025,51.732A2.341,2.341,0,0,0,59.2,50.269a2.342,2.342,0,1,1-4.342,0A2.343,2.343,0,0,0,57.025,51.732Z" fill="#bdbec0"></path><path d="M54.683 51.147 A2.342 2.342 0 1 0 59.367 51.147 A2.342 2.342 0 1 0 54.683 51.147 Z" fill="none" stroke="#45413c" stroke-linecap="round" stroke-linejoin="round"></path><path d="M53.342,65.2h7.367a1,1,0,0,0,1-1V55.83H52.342V64.2A1,1,0,0,0,53.342,65.2Z" fill="#ffffff" stroke="#45413c" stroke-linecap="round" stroke-linejoin="round"></path><path d="M52.342,79.248h9.367V68.539a1,1,0,0,0-1-1H53.342a1,1,0,0,0-1,1Z" fill="#ffffff" stroke="#45413c" stroke-linecap="round" stroke-linejoin="round"></path><path d="M54.683 79.248 A2.342 2.342 0 1 0 59.367 79.248 A2.342 2.342 0 1 0 54.683 79.248 Z" fill="#ffffff"></path><path d="M57.025,79.833A2.34,2.34,0,0,0,59.2,78.369a2.342,2.342,0,1,1-4.342,0A2.342,2.342,0,0,0,57.025,79.833Z" fill="#e0e0e0"></path><path d="M54.683 79.248 A2.342 2.342 0 1 0 59.367 79.248 A2.342 2.342 0 1 0 54.683 79.248 Z" fill="none" stroke="#45413c" stroke-linecap="round" stroke-linejoin="round"></path><path d="M57.025 65.197H60.538V67.539H57.025z" fill="#656769" stroke="#45413c" stroke-linecap="round" stroke-linejoin="round"></path><path d="M53.513 65.197H57.025999999999996V67.539H53.513z" fill="#bdbec0" stroke="#45413c" stroke-linecap="round" stroke-linejoin="round"></path><path d="M52.171,86.273H61.88a1,1,0,0,0,1-1V83.931H51.171v1.342A1,1,0,0,0,52.171,86.273Z" fill="#525252" stroke="#45413c" stroke-linecap="round" stroke-linejoin="round"></path><path d="M58.782,21.875H41.218l-3.512,9.367V42.365a1.171,1.171,0,0,0,1.171,1.171H61.123a1.171,1.171,0,0,0,1.171-1.171V31.242Z" fill="#ffffff" stroke="#45413c" stroke-linecap="round" stroke-linejoin="round"></path><path d="M55.854,19.533H44.146V9.581a15.218,15.218,0,0,1,11.708,0Z" fill="#45413c"></path><path d="M54.554,9.125a2.317,2.317,0,0,0-.414-.159,15.691,15.691,0,0,0-8.28,0,2.343,2.343,0,0,0-1.714,2.257v8.31Z" fill="#656769"></path><path d="M55.854,19.533H44.146v-8.31A2.342,2.342,0,0,1,45.86,8.966a15.691,15.691,0,0,1,8.28,0,2.339,2.339,0,0,1,1.714,2.257Z" fill="none" stroke="#45413c" stroke-linecap="round" stroke-linejoin="round"></path><path d="M45.902 19.533H54.098V21.875H45.902z" fill="#bdbec0" stroke="#45413c" stroke-linecap="round" stroke-linejoin="round"></path><path d="M50.756,26.559H49.244a1,1,0,0,1-1-1V21.875h3.512v3.684A1,1,0,0,1,50.756,26.559Z" fill="#525252"></path><path d="M48.244 21.875L48.244 25.388 51.756 21.875 48.244 21.875z" fill="#87898c"></path><path d="M50.756,26.559H49.244a1,1,0,0,1-1-1V21.875h3.512v3.684A1,1,0,0,1,50.756,26.559Z" fill="none" stroke="#45413c" stroke-linecap="round" stroke-linejoin="round"></path><path d="M55.269,31.242A1.171,1.171,0,0,1,54.1,32.413H45.9a1.171,1.171,0,0,1,0-2.342h8.2A1.171,1.171,0,0,1,55.269,31.242Z" fill="#bdbec0" stroke="#45413c" stroke-linecap="round" stroke-linejoin="round"></path></g></svg>