<svg xmlns="http://www.w3.org/2000/svg" version="1.1" xmlns:xlink="http://www.w3.org/1999/xlink" xmlns:svgjs="http://svgjs.com/svgjs" viewBox="0 0 200 200" width="200" height="200"><g transform="matrix(2,0,0,2,0,0)"><path d="M10.000 50.070 A40.000 40.000 0 1 0 90.000 50.070 A40.000 40.000 0 1 0 10.000 50.070 Z" fill="#e8f4fa" stroke="#daedf7" stroke-miterlimit="10"></path><path d="M65.806,37.765a4.064,4.064,0,0,0-2.957,3.907v1.41l25.906-7.333L87.7,32.017a.431.431,0,0,0-.532-.3Z" fill="#656769" stroke="#45413c" stroke-linecap="round" stroke-linejoin="round"></path><path d="M81.438 33.34L86.335 31.954 85.021 36.806 80.123 38.192 81.438 33.34z" fill="#ffffff" stroke="#45413c" stroke-linecap="round" stroke-linejoin="round"></path><path d="M71.368 36.191L76.266 34.804 74.952 39.656 70.054 41.043 71.368 36.191z" fill="#ffffff" stroke="#45413c" stroke-linecap="round" stroke-linejoin="round"></path><path d="M35.297 39.423H40.715999999999994V44.842H35.297z" fill="#daedf7" transform="translate(-4.179 80.079) rotate(-89.919)"></path><path d="M36.654 38.068H39.36300000000001V43.486999999999995H36.654z" fill="#c0dceb" transform="translate(-2.823 78.728) rotate(-89.919)"></path><path d="M35.297 39.423H40.715999999999994V44.842H35.297z" fill="none" stroke="#45413c" stroke-linecap="round" stroke-linejoin="round" transform="translate(-4.179 80.079) rotate(-89.919)"></path><path d="M51.783 50.671H57.202V70.991H51.783z" fill="#ffffff" stroke="#45413c" stroke-linecap="round" stroke-linejoin="round" transform="translate(-14.585 17.263) rotate(-15.906)"></path><path d="M27.828 44.164 L48.148 44.164 L48.148 65.839 L27.828 65.839 Z" fill="#ffffff" stroke="#45413c" stroke-linecap="round" stroke-linejoin="round" transform="translate(-17.067 92.911) rotate(-89.919)"></path><path d="M33.904 65.161H42.032000000000004V73.289H33.904z" fill="#daedf7" transform="translate(-31.311 107.095) rotate(-89.919)"></path><path d="M35.946 63.129H40.01V71.257H35.946z" fill="#c0dceb" transform="translate(-29.27 105.075) rotate(-89.919)"></path><path d="M33.904 65.161H42.032000000000004V73.289H33.904z" fill="none" stroke="#45413c" stroke-linecap="round" stroke-linejoin="round" transform="translate(-31.311 107.095) rotate(-89.919)"></path><path d="M43.408,54.332a2.709,2.709,0,0,1-2.713,2.7l-5.419-.008a2.709,2.709,0,0,1-2.705-2.713l.013-9.483,10.838.016Z" fill="#00b8f0"></path><path d="M41.613 44.846L32.578 53.856 32.591 44.834 41.613 44.846z" fill="#4acfff"></path><path d="M43.408,54.332a2.709,2.709,0,0,1-2.713,2.7l-5.419-.008a2.709,2.709,0,0,1-2.705-2.713l.013-9.483,10.838.016Z" fill="none" stroke="#45413c" stroke-linecap="round" stroke-linejoin="round"></path><path d="M45.718,73.3a2.709,2.709,0,0,1,2.549,3.617,10.841,10.841,0,0,1-20.441-.03,2.709,2.709,0,0,1,2.56-3.608Z" fill="#ffffff" stroke="#45413c" stroke-linecap="round" stroke-linejoin="round"></path><path d="M48.848,54.339l5.418.008a4.064,4.064,0,0,0,4.07-4.058l0-1.355a4.065,4.065,0,0,0-4.058-4.07l-2.709,0a2.711,2.711,0,0,0-2.714,2.706Z" fill="#ffffff" stroke="#45413c" stroke-linecap="round" stroke-linejoin="round"></path><path d="M55.034 64.834H69.984V70.253H55.034z" fill="#ffffff" stroke="#45413c" stroke-linecap="round" stroke-linejoin="round" transform="translate(-28.646 54.882) rotate(-39.309)"></path><path d="M79.163,64.288a7.085,7.085,0,0,1-7.37.582,6.9,6.9,0,0,1-2.56-2.181,7.1,7.1,0,0,1,1.016-9.455.648.648,0,0,1,.515-.176.729.729,0,0,1,.487.284l1.192,1.652a.68.68,0,0,1-.067.882,3.728,3.728,0,0,0-.583,4.551,3.216,3.216,0,0,0,.176.284,3.726,3.726,0,0,0,6.34-3.874.678.678,0,0,1,.217-.854l1.653-1.2a.7.7,0,0,1,.541-.108.684.684,0,0,1,.447.324A7.118,7.118,0,0,1,79.163,64.288Z" fill="#656769"></path><path d="M80.181,54.78a.677.677,0,0,1,.984.213,7.112,7.112,0,1,1-10.921-1.761.679.679,0,0,1,1,.107L72.445,55a.677.677,0,0,1-.072.878,3.726,3.726,0,1,0,5.94.958.675.675,0,0,1,.207-.856Z" fill="none" stroke="#45413c" stroke-linecap="round" stroke-linejoin="round"></path><path d="M65.467 62.065 A4.064 4.064 0 1 0 73.595 62.065 A4.064 4.064 0 1 0 65.467 62.065 Z" fill="#f0f0f0" stroke="#45413c" stroke-linecap="round" stroke-linejoin="round"></path><path d="M52.653 71.906 A4.064 4.064 0 1 0 60.781 71.906 A4.064 4.064 0 1 0 52.653 71.906 Z" fill="#ffffff" stroke="#45413c" stroke-linecap="round" stroke-linejoin="round"></path><path d="M22.39 43.48H42.71V48.898999999999994H22.39z" fill="#ffffff" stroke="#45413c" stroke-linecap="round" stroke-linejoin="round" transform="translate(-13.075 12.852) rotate(-18.672)"></path><path d="M44.387 45.175L43.021 39.932 54.903 38.964 56.269 44.207 44.387 45.175z" fill="#ffffff" stroke="#45413c" stroke-linecap="round" stroke-linejoin="round"></path><path d="M70.421,36.905a.678.678,0,0,0,.385-.931,7.112,7.112,0,1,0-4.758,9.986.678.678,0,0,0,.481-.885l-.685-1.931a.676.676,0,0,0-.763-.439,3.725,3.725,0,1,1,2.587-5.431.677.677,0,0,0,.823.316Z" fill="#656769" stroke="#45413c" stroke-linecap="round" stroke-linejoin="round"></path><path d="M27.152,54.309,21.733,54.3a4.065,4.065,0,0,1-4.058-4.07l0-1.355a4.064,4.064,0,0,1,4.07-4.058l2.709,0a2.71,2.71,0,0,1,2.706,2.713Z" fill="#ffffff" stroke="#45413c" stroke-linecap="round" stroke-linejoin="round"></path><path d="M37.116 43.424 A4.064 4.064 0 1 0 45.244 43.424 A4.064 4.064 0 1 0 37.116 43.424 Z" fill="#ffffff" stroke="#45413c" stroke-linecap="round" stroke-linejoin="round"></path><path d="M53.234 41.913 A4.064 4.064 0 1 0 61.362 41.913 A4.064 4.064 0 1 0 53.234 41.913 Z" fill="#ffffff" stroke="#45413c" stroke-linecap="round" stroke-linejoin="round"></path><path d="M86.736,61.974H63.707A2.709,2.709,0,0,1,61,59.265V47.319H89.446V59.265A2.709,2.709,0,0,1,86.736,61.974Z" fill="#e8f4fa"></path><path d="M60.998 58.86L72.538 47.319 60.998 47.319 60.998 58.86z" fill="#ffffff"></path><path d="M86.736,61.974H63.707A2.709,2.709,0,0,1,61,59.265V47.319H89.446V59.265A2.709,2.709,0,0,1,86.736,61.974Z" fill="none" stroke="#45413c" stroke-linecap="round" stroke-linejoin="round"></path><path d="M67.463,43.009l2.155,4.31H89.446V43.44a.432.432,0,0,0-.431-.431Z" fill="#656769" stroke="#45413c" stroke-linecap="round" stroke-linejoin="round"></path><path d="M69.618,47.319H61v-6.9A1.724,1.724,0,0,1,62.722,38.7h2.142a.717.717,0,0,1,.642.4Z" fill="#656769" stroke="#45413c" stroke-linecap="round" stroke-linejoin="round"></path><path d="M60.998 51.629L89.446 51.629" fill="none" stroke="#45413c" stroke-linecap="round" stroke-linejoin="round"></path><path d="M74.791 51.629L74.791 61.974" fill="none" stroke="#45413c" stroke-linecap="round" stroke-linejoin="round"></path><path d="M83.062 43.009L88.153 43.009 85.566 47.319 80.476 47.319 83.062 43.009z" fill="#ffffff" stroke="#45413c" stroke-linecap="round" stroke-linejoin="round"></path><path d="M72.598 43.009L77.688 43.009 75.102 47.319 70.011 47.319 72.598 43.009z" fill="#ffffff" stroke="#45413c" stroke-linecap="round" stroke-linejoin="round"></path><path d="M81.208,61.972a6.821,6.821,0,0,1-2.045,2.316,7.085,7.085,0,0,1-7.37.582v-2.9h1.788a3.664,3.664,0,0,0,2.8,0,3.24,3.24,0,0,0,.785-.42,3.734,3.734,0,0,0,1.138-4.715.678.678,0,0,1,.217-.854l1.653-1.2a.7.7,0,0,1,.541-.108.684.684,0,0,1,.447.324A7.113,7.113,0,0,1,81.208,61.972Z" fill="#656769" stroke="#45413c" stroke-linecap="round" stroke-linejoin="round"></path><path d="M19.181 9.930 L56.837 9.930 L56.837 39.517 L19.181 39.517 Z" fill="#00b8f0"></path><path d="M23.713,39.516h-.5a4.033,4.033,0,0,1-4.034-4.034V13.964A4.035,4.035,0,0,1,23.216,9.93H52.8Z" fill="#4acfff"></path><path d="M19.181 9.930 L56.837 9.930 L56.837 39.517 L19.181 39.517 Z" fill="none" stroke="#45413c" stroke-linecap="round" stroke-linejoin="round"></path><path d="M32.919,28.687a1.971,1.971,0,0,1-1.967-1.97,3.309,3.309,0,0,0-.455-1.762.87.87,0,0,0-.3-.308c.027.017-.092.1-.231.307a3.3,3.3,0,0,0-.46,1.761,1.968,1.968,0,0,1-3.936-.006A7.167,7.167,0,0,1,26.7,22.766a4.072,4.072,0,0,1,7.078.01,7.167,7.167,0,0,1,1.113,3.946,1.971,1.971,0,0,1-1.968,1.965Z" fill="#ffffff" stroke="#009fd9" stroke-linecap="round" stroke-linejoin="round"></path><path d="M49.057,28.687a1.971,1.971,0,0,1-1.967-1.97,3.309,3.309,0,0,0-.455-1.762.87.87,0,0,0-.3-.308c.028.017-.092.1-.231.307a3.3,3.3,0,0,0-.46,1.761,1.968,1.968,0,0,1-3.936-.006,7.167,7.167,0,0,1,1.124-3.943,4.073,4.073,0,0,1,7.079.01,7.174,7.174,0,0,1,1.112,3.946,1.971,1.971,0,0,1-1.968,1.965Z" fill="#ffffff" stroke="#009fd9" stroke-linecap="round" stroke-linejoin="round"></path></g></svg>