<svg xmlns="http://www.w3.org/2000/svg" version="1.1" xmlns:xlink="http://www.w3.org/1999/xlink" xmlns:svgjs="http://svgjs.com/svgjs" viewBox="0 0 200 200" width="200" height="200"><g transform="matrix(2,0,0,2,0,0)"><path d="M14.266,72.948a40.016,40.016,0,0,0,72.9,0Z" fill="#daf7c6"></path><path d="M87.163,72.948a40,40,0,1,0-72.9,0Z" fill="#c7f0ff" stroke="#daedf7" stroke-miterlimit="10"></path><path d="M11.715 72.948L89.715 72.948" fill="none" stroke="#45413c" stroke-linecap="round" stroke-linejoin="round"></path><path d="M7.215 72.948L9.715 72.948" fill="none" stroke="#45413c" stroke-linecap="round" stroke-linejoin="round"></path><path d="M91.715 72.948L94.215 72.948" fill="none" stroke="#45413c" stroke-linecap="round" stroke-linejoin="round"></path><path d="M41.011,25.164l-2.491.963a4.829,4.829,0,0,0-2.764,6.246l.7,1.8,7-2.7Z" fill="#daedf7"></path><path d="M41.011,25.164l-2.491.962-.062.025a8.73,8.73,0,0,0,2.2,6.4l2.789-1.078Z" fill="#adc4d9"></path><path d="M41.011,25.164l-2.491.963a4.829,4.829,0,0,0-2.764,6.246l.7,1.8,7-2.7Z" fill="none" stroke="#45413c" stroke-linecap="round" stroke-linejoin="round"></path><path d="M87.053,27.87l2.91,3.022a4.831,4.831,0,0,1-.13,6.83l-1.391,1.34-6.26-6.5Z" fill="#daedf7"></path><path d="M87.054,27.87l-4.872,4.69,6.26,6.5s-2.472-5.03-1.782-5.594a8.685,8.685,0,0,0,2.519-3.39Z" fill="#adc4d9"></path><path d="M87.053,27.87l2.91,3.022a4.831,4.831,0,0,1-.13,6.83l-1.391,1.34-6.26-6.5Z" fill="none" stroke="#45413c" stroke-linecap="round" stroke-linejoin="round"></path><path d="M74.879 26.736 A6.279 6.279 0 1 0 87.437 26.736 A6.279 6.279 0 1 0 74.879 26.736 Z" fill="#ffe500"></path><path d="M87.258,28.224a6.279,6.279,0,1,0-12.2-.01,6.28,6.28,0,0,1,11.8-1.169,6.063,6.063,0,0,1,.405,1.178" fill="#fff48c"></path><path d="M74.879 26.736 A6.279 6.279 0 1 0 87.437 26.736 A6.279 6.279 0 1 0 74.879 26.736 Z" fill="none" stroke="#45413c" stroke-linecap="round" stroke-linejoin="round"></path><path d="M40.851 26.736 A6.279 6.279 0 1 0 53.409 26.736 A6.279 6.279 0 1 0 40.851 26.736 Z" fill="#ffe500"></path><path d="M53.231,28.224a6.28,6.28,0,1,0-12.2-.01,6.279,6.279,0,0,1,11.8-1.169,6.067,6.067,0,0,1,.406,1.178" fill="#fff48c"></path><path d="M40.851 26.736 A6.279 6.279 0 1 0 53.409 26.736 A6.279 6.279 0 1 0 40.851 26.736 Z" fill="none" stroke="#45413c" stroke-linecap="round" stroke-linejoin="round"></path><path d="M19.981 91.373 A9.056 1.811 0 1 0 38.093 91.373 A9.056 1.811 0 1 0 19.981 91.373 Z" fill="#45413c" opacity=".15"></path><path d="M45.640 85.637 A18.113 1.811 0 1 0 81.866 85.637 A18.113 1.811 0 1 0 45.640 85.637 Z" fill="#45413c" opacity=".15"></path><path d="M3.980 90.468 A3.623 1.208 0 1 0 11.226 90.468 A3.623 1.208 0 1 0 3.980 90.468 Z" fill="#45413c" opacity=".15"></path><path d="M49.879 52.49H61.95399999999999V58.527H49.879z" fill="#adc4d9" stroke="#45413c" stroke-linecap="round" stroke-linejoin="round" transform="translate(-16.455 86.655) rotate(-68.076)"></path><path d="M44.028,75.423l14.214,2.813,1.8-14.569a2.415,2.415,0,0,0-1.925-2.689L50.72,59.514a2.416,2.416,0,0,0-2.8,1.754Z" fill="#ffe500" stroke="#45413c" stroke-linecap="round" stroke-linejoin="round"></path><path d="M45.2,78.251A2.415,2.415,0,0,0,46.961,79.7L53.9,81.07a2.418,2.418,0,0,0,2.18-.665l2.16-2.169L44.028,75.423Z" fill="#ffe500" stroke="#45413c" stroke-linecap="round" stroke-linejoin="round"></path><path d="M69.353 49.471H75.39V61.54599999999999H69.353z" fill="#adc4d9" stroke="#45413c" stroke-linecap="round" stroke-linejoin="round" transform="translate(-15.492 31.036) rotate(-21.924)"></path><path d="M24.131,55.954A1.449,1.449,0,0,0,26.268,54a3.7,3.7,0,1,1,5.226.228,1.449,1.449,0,1,0,1.958,2.137,6.6,6.6,0,1,0-9.321-.407Z" fill="#656769" stroke="#45413c" stroke-linecap="round" stroke-linejoin="round"></path><path d="M11.947,80.686a4.347,4.347,0,0,1-8.694,0c0-1.852,2.589-10.337,3.771-14.115a.6.6,0,0,1,1.153,0C9.359,70.348,11.947,78.833,11.947,80.686Z" fill="#6dd627"></path><path d="M11.947,80.686a4.347,4.347,0,0,1-8.694,0c0-1.852,2.589-10.337,3.771-14.115a.6.6,0,0,1,1.153,0C9.359,70.348,11.947,78.833,11.947,80.686Z" fill="none" stroke="#45413c" stroke-linecap="round" stroke-linejoin="round"></path><path d="M7.6 89.38L7.6 85.033" fill="none" stroke="#45413c" stroke-linecap="round" stroke-linejoin="round"></path><path d="M28.017 45.363 A3.928 3.928 0 1 0 35.873 45.363 A3.928 3.928 0 1 0 28.017 45.363 Z" fill="#daedf7" stroke="#45413c" stroke-linecap="round" stroke-linejoin="round"></path><path d="M27.506,38.8l11.92,3.952,1.285-9.1a1.933,1.933,0,0,0-1.3-2.1l-5.192-1.722a1.933,1.933,0,0,0-2.3.908Z" fill="#ffe500" stroke="#45413c" stroke-linecap="round" stroke-linejoin="round"></path><path d="M37.772,45.658a1.931,1.931,0,0,1-2.287.878l-7.079-2.347a1.933,1.933,0,0,1-1.31-2.07l.41-3.317,11.92,3.952Z" fill="#ffe500" stroke="#45413c" stroke-linecap="round" stroke-linejoin="round"></path><path d="M89.967,62.236a1.449,1.449,0,0,1-.012-2.9,3.7,3.7,0,1,0-3.713-3.684,1.449,1.449,0,0,1-2.9.011,6.6,6.6,0,1,1,6.623,6.571Z" fill="#656769" stroke="#45413c" stroke-linecap="round" stroke-linejoin="round"></path><path d="M86.558 49.016 A3.928 3.928 0 1 0 94.414 49.016 A3.928 3.928 0 1 0 86.558 49.016 Z" fill="#daedf7" stroke="#45413c" stroke-linecap="round" stroke-linejoin="round"></path><path d="M96.747,44.162l-12.558.048L85.8,35.164a1.932,1.932,0,0,1,1.895-1.593l5.469-.022a1.934,1.934,0,0,1,1.907,1.58Z" fill="#ffe500" stroke="#45413c" stroke-linecap="round" stroke-linejoin="round"></path><path d="M84.857,47.485a1.931,1.931,0,0,0,1.9,1.545L94.215,49A1.933,1.933,0,0,0,96.1,47.441l.643-3.279-12.558.048Z" fill="#ffe500" stroke="#45413c" stroke-linecap="round" stroke-linejoin="round"></path><path d="M74.3,35.071a2.9,2.9,0,0,1-2.834,2.291H56.827a2.9,2.9,0,0,1-2.834-2.291l-1.906-8.9a1.931,1.931,0,0,1,1.889-2.337H74.312A1.931,1.931,0,0,1,76.2,26.175Z" fill="#c0dceb" stroke="#45413c" stroke-linecap="round" stroke-linejoin="round"></path><path d="M76.2,26.175l-.9,4.183-.048.242H53.035l-.947-4.425a1.954,1.954,0,0,1,.367-1.6l.02-.019a1.925,1.925,0,0,1,1.5-.715H74.316A1.93,1.93,0,0,1,76.2,26.175Z" fill="#ffe500" stroke="#45413c" stroke-linecap="round" stroke-linejoin="round"></path><path d="M63.951,30.6H58.483l-6.028-6.028.02-.019a1.925,1.925,0,0,1,1.5-.715h3.217Z" fill="#656769" stroke="#45413c" stroke-linecap="round" stroke-linejoin="round"></path><path d="M75.301 30.358L75.253 30.6 70.075 30.6 63.313 23.838 68.781 23.838 75.301 30.358z" fill="#656769" stroke="#45413c" stroke-linecap="round" stroke-linejoin="round"></path><path d="M60.28 37.362H68.008V44.124H60.28z" fill="#daedf7"></path><path d="M60.28 37.362H68.008V40.814H60.28z" fill="#adc4d9"></path><path d="M60.28 37.362H68.008V44.124H60.28z" fill="none" stroke="#45413c" stroke-linecap="round" stroke-linejoin="round"></path><path d="M73.8,45.09a9.66,9.66,0,0,1-9.66,9.66h0a9.66,9.66,0,0,1-9.66-9.66.966.966,0,0,1,.966-.966H72.838A.965.965,0,0,1,73.8,45.09Z" fill="#daedf7" stroke="#45413c" stroke-linecap="round" stroke-linejoin="round"></path><path d="M45.758,85.179a1.209,1.209,0,0,1-1.171-1.509,6.039,6.039,0,0,1,11.695,0,1.208,1.208,0,0,1-1.17,1.509Z" fill="#87898c" stroke="#45413c" stroke-linecap="round" stroke-linejoin="round"></path><path d="M84.261,75.423,70.046,78.236l-1.8-14.569a2.415,2.415,0,0,1,1.925-2.689l7.394-1.464a2.416,2.416,0,0,1,2.8,1.754Z" fill="#ffe500" stroke="#45413c" stroke-linecap="round" stroke-linejoin="round"></path><path d="M83.089,78.251A2.415,2.415,0,0,1,81.327,79.7L74.386,81.07a2.418,2.418,0,0,1-2.18-.665l-2.16-2.169,14.215-2.813Z" fill="#ffe500" stroke="#45413c" stroke-linecap="round" stroke-linejoin="round"></path><path d="M82.53,85.179A1.209,1.209,0,0,0,83.7,83.67a6.039,6.039,0,0,0-11.695,0,1.208,1.208,0,0,0,1.17,1.509Z" fill="#87898c" stroke="#45413c" stroke-linecap="round" stroke-linejoin="round"></path><path d="M55.450 11.280 L72.838 11.280 L72.838 23.838 L55.450 23.838 Z" fill="#00b8f0"></path><path d="M71.872,11.28a5.13,5.13,0,0,1-.039.666v.039a2.894,2.894,0,0,0-1.893-.7H58.348a2.892,2.892,0,0,0-1.893.705v-.039a5.13,5.13,0,0,1-.039-.666c0-3.739,3.458-6.762,7.728-6.762S71.872,7.541,71.872,11.28Z" fill="#ffe500" stroke="#45413c" stroke-linecap="round" stroke-linejoin="round"></path><path d="M62.212 3.552 L66.076 3.552 L66.076 10.314 L62.212 10.314 Z" fill="#ffe500"></path><path d="M65.11,3.552H63.178a.966.966,0,0,0-.966.966v1.84a.966.966,0,0,1,.966-.967H65.11a.967.967,0,0,1,.966.967V4.518A.967.967,0,0,0,65.11,3.552Z" fill="#fff48c"></path><path d="M62.212 3.552 L66.076 3.552 L66.076 10.314 L62.212 10.314 Z" fill="none" stroke="#45413c" stroke-linecap="round" stroke-linejoin="round"></path><path d="M71.833,11.946v.039a2.894,2.894,0,0,0-1.893-.7H58.348a2.892,2.892,0,0,0-1.893.705v-.039c.4-1.458,3.69-3.5,7.689-3.5S71.437,10.488,71.833,11.946Z" fill="#ffe500" stroke="#45413c" stroke-linecap="round" stroke-linejoin="round"></path><path d="M59.958 6.933L58.582 4.869" fill="#00b8f0" stroke="#45413c" stroke-linecap="round" stroke-linejoin="round"></path><path d="M68.33 6.933L69.706 4.869" fill="#00b8f0" stroke="#45413c" stroke-linecap="round" stroke-linejoin="round"></path><path d="M57.025,23.519A2.9,2.9,0,0,1,55.45,20.94V14.178a2.9,2.9,0,0,1,2.9-2.9H69.264Z" fill="#4acfff"></path><path d="M55.450 11.280 L72.838 11.280 L72.838 23.838 L55.450 23.838 Z" fill="none" stroke="#45413c" stroke-linecap="round" stroke-linejoin="round"></path><path d="M58.408 17.559 A1.452 2.178 0 1 0 61.312 17.559 A1.452 2.178 0 1 0 58.408 17.559 Z" fill="#ffffff" stroke="#009fd9" stroke-miterlimit="10"></path><path d="M66.976 17.559 A1.452 2.178 0 1 0 69.880 17.559 A1.452 2.178 0 1 0 66.976 17.559 Z" fill="#ffffff" stroke="#009fd9" stroke-miterlimit="10"></path><path d="M54.927,47.988a9.635,9.635,0,0,1-.443-2.9.966.966,0,0,1,.966-.966H72.838a.965.965,0,0,1,.966.966,9.666,9.666,0,0,1-.442,2.9Z" fill="#ffe500" stroke="#45413c" stroke-linecap="round" stroke-linejoin="round"></path><path d="M63.081 47.988L59.314 47.988 55.45 44.124 59.217 44.124 63.081 47.988z" fill="#656769" stroke="#45413c" stroke-linecap="round" stroke-linejoin="round"></path><path d="M72.114 47.988L68.346 47.988 64.482 44.124 68.25 44.124 72.114 47.988z" fill="#656769" stroke="#45413c" stroke-linecap="round" stroke-linejoin="round"></path><path d="M29.727,72.825a1.207,1.207,0,0,0-1.266,0l-8.2,5.046V90.676H37.926V77.871Z" fill="#ffffff"></path><path d="M29.727,72.825a1.207,1.207,0,0,0-1.266,0l-8.2,5.046v3.821l8.2-5.046a1.207,1.207,0,0,1,1.266,0l8.2,5.046V77.871Z" fill="#f0f0f0"></path><path d="M29.727,72.825a1.207,1.207,0,0,0-1.266,0l-8.2,5.046V90.676H37.926V77.871Z" fill="none" stroke="#45413c" stroke-linecap="round" stroke-linejoin="round"></path><path d="M40.575,65.168a1.76,1.76,0,0,1-.925-.262L29.727,58.8a1.207,1.207,0,0,0-1.266,0l-9.923,6.107A1.767,1.767,0,1,1,16.685,61.9l11.483-7.066a1.773,1.773,0,0,1,1.852,0L41.5,61.9a1.767,1.767,0,0,1-.928,3.271Z" fill="#ff6242" stroke="#45413c" stroke-linejoin="round"></path><path d="M31.744,90.676h-5.3V84.494a2.65,2.65,0,1,1,5.3,0Z" fill="#bf8256" stroke="#45413c" stroke-linecap="round" stroke-linejoin="round"></path></g></svg>