<svg xmlns="http://www.w3.org/2000/svg" version="1.1" xmlns:xlink="http://www.w3.org/1999/xlink" xmlns:svgjs="http://svgjs.com/svgjs" viewBox="0 0 200 200" width="200" height="200"><g transform="matrix(2,0,0,2,0,0)"><path d="M10.000 50.000 A40.000 40.000 0 1 0 90.000 50.000 A40.000 40.000 0 1 0 10.000 50.000 Z" fill="#e8f4fa" stroke="#daedf7" stroke-linecap="round" stroke-linejoin="round"></path><path d="M30.133 80.181 A19.867 2.668 0 1 0 69.867 80.181 A19.867 2.668 0 1 0 30.133 80.181 Z" fill="#45413c" opacity=".15"></path><path d="M67.21,25.547a27.35,27.35,0,0,1,2.945,11.424c0,4.289-2.573,9.093-4.015,11.449a6.422,6.422,0,0,0,.565,7.51,19.218,19.218,0,0,1,3.679,18.586.993.993,0,0,1-.948.7H30.564a.993.993,0,0,1-.948-.7A19.218,19.218,0,0,1,33.3,55.93a6.422,6.422,0,0,0,.565-7.51c-1.442-2.356-4.015-7.16-4.015-11.449A27.35,27.35,0,0,1,32.79,25.547Z" fill="#f0f0f0"></path><path d="M67.21,25.547H32.79a27.35,27.35,0,0,0-2.945,11.424,20.827,20.827,0,0,0,2.521,8.767,22.353,22.353,0,0,0,35.268,0,20.822,20.822,0,0,0,2.521-8.766A27.35,27.35,0,0,0,67.21,25.547Z" fill="#e0e0e0"></path><path d="M67.21,25.547a27.35,27.35,0,0,1,2.945,11.424c0,4.289-2.573,9.093-4.015,11.449a6.422,6.422,0,0,0,.565,7.51,19.218,19.218,0,0,1,3.679,18.586.993.993,0,0,1-.948.7H30.564a.993.993,0,0,1-.948-.7A19.218,19.218,0,0,1,33.3,55.93a6.422,6.422,0,0,0,.565-7.51c-1.442-2.356-4.015-7.16-4.015-11.449A27.35,27.35,0,0,1,32.79,25.547Z" fill="none" stroke="#45413c" stroke-linecap="round" stroke-linejoin="round"></path><path d="M69.161,75.214a7.369,7.369,0,0,1-2.483,4.47H33.322a7.369,7.369,0,0,1-2.483-4.47Z" fill="#656769"></path><path d="M68.549,77.2a7.69,7.69,0,0,0,.612-1.987H30.839a7.69,7.69,0,0,0,.612,1.987Z" fill="#525252"></path><path d="M69.161,75.214a7.369,7.369,0,0,1-2.483,4.47H33.322a7.369,7.369,0,0,1-2.483-4.47Z" fill="none" stroke="#45413c" stroke-linecap="round" stroke-linejoin="round"></path><path d="M48.013 66.274 A1.987 1.987 0 1 0 51.987 66.274 A1.987 1.987 0 1 0 48.013 66.274 Z" fill="#ffa694"></path><path d="M61.423,57.334A10.819,10.819,0,0,1,65.4,64.287" fill="none" stroke="#ffffff" stroke-linecap="round" stroke-linejoin="round" stroke-width="3"></path><path d="M31.623 32.004 A18.377 18.377 0 1 0 68.377 32.004 A18.377 18.377 0 1 0 31.623 32.004 Z" fill="#bdbec0"></path><path d="M50,15.614A18.377,18.377,0,0,1,68.35,33c.018-.328.027-.66.027-.993a18.377,18.377,0,1,0-36.754,0c0,.333.009.665.027.993A18.377,18.377,0,0,1,50,15.614Z" fill="#e0e0e0"></path><path d="M31.623 32.004 A18.377 18.377 0 1 0 68.377 32.004 A18.377 18.377 0 1 0 31.623 32.004 Z" fill="none" stroke="#45413c" stroke-linecap="round" stroke-linejoin="round"></path><path d="M33.610 32.004 A16.390 16.390 0 1 0 66.390 32.004 A16.390 16.390 0 1 0 33.610 32.004 Z" fill="#45413c"></path><path d="M38.411,43.594A16.39,16.39,0,1,1,61.589,20.415Z" fill="#525252"></path><path d="M33.610 32.004 A16.390 16.390 0 1 0 66.390 32.004 A16.390 16.390 0 1 0 33.610 32.004 Z" fill="none" stroke="#45413c" stroke-linecap="round" stroke-linejoin="round"></path><path d="M52.483,44.917a.993.993,0,0,1-.993.994H48.51a.994.994,0,0,1,0-1.987h2.98A.993.993,0,0,1,52.483,44.917Z" fill="#87898c"></path><path d="M39.724 32.501 A2.49 3.202 0 1 0 44.704 32.501 A2.49 3.202 0 1 0 39.724 32.501 Z" fill="#00dfeb"></path><path d="M55.296 32.501 A2.49 3.202 0 1 0 60.276 32.501 A2.49 3.202 0 1 0 55.296 32.501 Z" fill="#00dfeb"></path></g></svg>