<svg xmlns="http://www.w3.org/2000/svg" version="1.1" xmlns:xlink="http://www.w3.org/1999/xlink" xmlns:svgjs="http://svgjs.com/svgjs" viewBox="0 0 200 200" width="200" height="200"><g transform="matrix(2,0,0,2,0,0)"><path d="M11.780 50.000 A40.000 40.000 0 1 0 91.780 50.000 A40.000 40.000 0 1 0 11.780 50.000 Z" fill="#e8f4fa" stroke="#daedf7" stroke-miterlimit="10"></path><path d="M46.095 40.723H51.202999999999996V45.830999999999996H46.095z" fill="#daedf7" transform="matrix(0.997, -0.073, 0.073, 0.997, -3.019, 3.653)"></path><path d="M46.002 40.727H51.11V43.281H46.002z" fill="#c0dceb" transform="translate(-2.926 3.643) rotate(-4.171)"></path><path d="M46.095 40.723H51.202999999999996V45.830999999999996H46.095z" fill="none" stroke="#45413c" stroke-linecap="round" stroke-linejoin="round" transform="matrix(0.997, -0.073, 0.073, 0.997, -3.019, 3.653)"></path><path d="M62.385,14.472l3.178,20.183a3.825,3.825,0,0,1-3.188,4.38l-27.752,4.37a3.825,3.825,0,0,1-4.38-3.188L27.064,20.034a3.828,3.828,0,0,1,3.189-4.381l27.752-4.37c.151-.024.292-.033.445-.044A3.829,3.829,0,0,1,62.385,14.472Z" fill="#00b8f0"></path><path d="M10.335,41.219A2.709,2.709,0,0,1,10,37.4l1.161-1.384L15.311,39.5l-1.16,1.383A2.709,2.709,0,0,1,10.335,41.219Z" fill="#ffa694"></path><path d="M10,37.4l1.161-1.384,1.512,1.27L9.831,40.66A2.7,2.7,0,0,1,10,37.4Z" fill="#ffcabf"></path><path d="M10.335,41.219A2.709,2.709,0,0,1,10,37.4l1.161-1.384L15.311,39.5l-1.16,1.383A2.709,2.709,0,0,1,10.335,41.219Z" fill="none" stroke="#45413c" stroke-linecap="round" stroke-linejoin="round"></path><path d="M22.19,22.88l4.729-2.049a.451.451,0,0,1,.618.519l-1.2,5.013Z" fill="#f7e5c6" stroke="#45413c" stroke-linecap="round" stroke-linejoin="round"></path><path d="M12.399 27.445H26.845V32.862H12.399z" fill="#ebcb00" transform="translate(-16.09 25.798) rotate(-49.993)"></path><path d="M11.08 28.06H25.526V30.034H11.08z" fill="#fff48c" transform="translate(-15.713 24.392) rotate(-49.993)"></path><path d="M12.399 27.445H26.845V32.862H12.399z" fill="none" stroke="#45413c" stroke-linecap="round" stroke-linejoin="round" transform="translate(-16.09 25.798) rotate(-49.993)"></path><path d="M12.753 34.015H15.462V39.432H12.753z" fill="#c0dceb" transform="translate(-23.091 23.921) rotate(-49.994)"></path><path d="M11.434 34.63H14.142V36.604H11.434z" fill="#daedf7" transform="translate(-22.715 22.517) rotate(-49.996)"></path><path d="M12.753 34.015H15.462V39.432H12.753z" fill="none" stroke="#45413c" stroke-linecap="round" stroke-linejoin="round" transform="translate(-23.091 23.921) rotate(-49.994)"></path><path d="M18.547 53.975H37.702V59.083H18.547z" fill="#ffffff" transform="matrix(0.848, -0.53, 0.53, 0.848, -25.695, 23.513)"></path><path d="M36.779,52.306l-1.889-3.02-6.976,4.363.048.648a3.817,3.817,0,0,0,3.028,3.452l5.916-3.7Z" fill="#e0e0e0"></path><path d="M18.547 53.975H37.702V59.083H18.547z" fill="none" stroke="#45413c" stroke-linecap="round" stroke-linejoin="round" transform="matrix(0.848, -0.53, 0.53, 0.848, -25.695, 23.513)"></path><path d="M11.829 48.263H16.937V62.355H11.829z" fill="#f0f0f0" transform="translate(-24.604 13.525) rotate(-28.44)"></path><path d="M15.314,51.665,13.273,47.9,8.782,50.33l1.757,3.245c.083.031.158.074.245.1A3.822,3.822,0,0,0,15.314,51.665Z" fill="#e0e0e0"></path><path d="M11.829 48.263H16.937V62.355H11.829z" fill="#ffffff" stroke="#45413c" stroke-linecap="round" stroke-linejoin="round" transform="translate(-24.604 13.525) rotate(-28.44)"></path><path d="M65.093 48.277H70.20100000000001V67.432H65.093z" fill="#ffffff" transform="translate(-20.944 49.201) rotate(-34.96)"></path><path d="M64.252,48.541l-3.6,2.516.1,1.4,3.1,4.435,2.333-.171a3.806,3.806,0,0,0,2.742-1.487Z" fill="#e0e0e0"></path><path d="M65.093 48.277H70.20100000000001V67.432H65.093z" fill="none" stroke="#45413c" stroke-linecap="round" stroke-linejoin="round" transform="translate(-20.944 49.201) rotate(-34.96)"></path><path d="M16.581,40.565a.639.639,0,0,1,.7.638,6.7,6.7,0,1,1-8.08-6.59.64.64,0,0,1,.766.56l.195,1.921a.639.639,0,0,1-.473.683,3.512,3.512,0,1,0,4.395,3.584.636.636,0,0,1,.573-.6Z" fill="#656769"></path><path d="M16.581,40.565a.639.639,0,0,1,.7.638,6.7,6.7,0,1,1-8.08-6.59.64.64,0,0,1,.766.56l.195,1.921a.639.639,0,0,1-.473.683,3.512,3.512,0,1,0,4.395,3.584.636.636,0,0,1,.573-.6Z" fill="none" stroke="#45413c" stroke-linecap="round" stroke-linejoin="round"></path><path d="M28.436 13.297 L64.192 13.297 L64.192 41.391 L28.436 41.391 Z" fill="none" stroke="#45413c" stroke-linecap="round" stroke-linejoin="round" transform="translate(-3.69 7.537) rotate(-8.949)"></path><path d="M58.45,11.239,35.09,43.332l-.467.073a3.825,3.825,0,0,1-4.38-3.188L27.064,20.034a3.828,3.828,0,0,1,3.189-4.381l27.752-4.37C58.156,11.259,58.3,11.25,58.45,11.239Z" fill="#4acfff"></path><path d="M62.385,14.472l3.178,20.183a3.825,3.825,0,0,1-3.188,4.38l-27.752,4.37a3.825,3.825,0,0,1-4.38-3.188L27.064,20.034a3.828,3.828,0,0,1,3.189-4.381l27.752-4.37c.151-.024.292-.033.445-.044A3.829,3.829,0,0,1,62.385,14.472Z" fill="none" stroke="#45413c" stroke-linecap="round" stroke-linejoin="round"></path><path d="M39.315 45.799 L59.747 45.799 L59.747 64.954 L39.315 64.954 Z" fill="#ffffff" stroke="#45413c" stroke-linecap="round" stroke-linejoin="round" transform="translate(-3.896 3.749) rotate(-4.171)"></path><path d="M39.3,55.483l-5.095.371a3.831,3.831,0,0,1-4.1-3.542l-.093-1.274a3.831,3.831,0,0,1,3.542-4.1l2.547-.186a2.554,2.554,0,0,1,2.733,2.362Z" fill="#ffffff" stroke="#45413c" stroke-linecap="round" stroke-linejoin="round"></path><path d="M54.747 74.947L47.105 75.504 46.407 65.207 54.048 64.65 54.747 74.947z" fill="#daedf7"></path><path d="M46.542 64.923H54.204V68.754H46.542z" fill="#c0dceb" transform="translate(-4.728 3.841) rotate(-4.171)"></path><path d="M54.747 74.947L47.105 75.504 46.407 65.207 54.048 64.65 54.747 74.947z" fill="none" stroke="#45413c" stroke-linecap="round" stroke-linejoin="round"></path><path d="M54.579,54.368A2.553,2.553,0,0,1,52.218,57.1l-5.1.372a2.555,2.555,0,0,1-2.733-2.362L43.74,46.2l10.189-.743Z" fill="#00b8f0"></path><path d="M52.229 45.577L44.365 54.678 43.746 46.196 52.229 45.577z" fill="#4acfff"></path><path d="M54.579,54.368A2.553,2.553,0,0,1,52.218,57.1l-5.1.372a2.555,2.555,0,0,1-2.733-2.362L43.74,46.2l10.189-.743Z" fill="none" stroke="#45413c" stroke-linecap="round" stroke-linejoin="round"></path><path d="M14.132 62.420 A3.831 3.831 0 1 0 21.794 62.420 A3.831 3.831 0 1 0 14.132 62.420 Z" fill="#ffffff" stroke="#45413c" stroke-linecap="round" stroke-linejoin="round"></path><path d="M6.682 47.338 A3.831 3.831 0 1 0 14.344 47.338 A3.831 3.831 0 1 0 6.682 47.338 Z" fill="#ffffff" stroke="#45413c" stroke-linecap="round" stroke-linejoin="round"></path><path d="M58.218,74.694a2.554,2.554,0,0,1,2.649,3.222,10.22,10.22,0,0,1-19.218,1.4A2.555,2.555,0,0,1,43.8,75.745Z" fill="#ffffff" stroke="#45413c" stroke-linecap="round" stroke-linejoin="round"></path><path d="M59.693,54l5.095-.371a3.831,3.831,0,0,0,3.542-4.1l-.093-1.273a3.831,3.831,0,0,0-4.1-3.542l-2.548.185a2.554,2.554,0,0,0-2.361,2.733Z" fill="#ffffff" stroke="#45413c" stroke-linecap="round" stroke-linejoin="round"></path><path d="M69.739 57.63H83.831V62.738H69.739z" fill="#f0f0f0" transform="translate(-11.096 102.552) rotate(-63.828)"></path><path d="M77.6,52.734,75.8,56.41a3.813,3.813,0,0,0,4.63,2.159l1.76-3.582Z" fill="#e0e0e0"></path><path d="M69.739 57.63H83.831V62.738H69.739z" fill="#ffffff" stroke="#45413c" stroke-linecap="round" stroke-linejoin="round" transform="translate(-11.096 102.552) rotate(-63.828)"></path><path d="M69.206 67.037 A3.831 3.831 0 1 0 76.868 67.037 A3.831 3.831 0 1 0 69.206 67.037 Z" fill="#ffffff" stroke="#45413c" stroke-linecap="round" stroke-linejoin="round"></path><path d="M36.913,32.389a1.6,1.6,0,0,1-1.691-1.344,6.532,6.532,0,0,1,.444-3.708,3.8,3.8,0,0,1,2.811-2.3c.093-.014.187-.025.281-.032,2.206-.161,4.211,1.88,4.663,4.748a1.6,1.6,0,0,1-1.329,1.825l-.133.015a1.606,1.606,0,0,1-1.692-1.343c-.221-1.405-1-2.08-1.288-2.059-.087.013-.262.151-.414.481a3.376,3.376,0,0,0-.19,1.876,1.6,1.6,0,0,1-1.328,1.825Z" fill="#ffffff" stroke="#009fd9" stroke-miterlimit="10"></path><path d="M52.05,30.005a1.6,1.6,0,0,1-1.691-1.344,6.532,6.532,0,0,1,.444-3.708,3.806,3.806,0,0,1,2.811-2.3c.094-.014.187-.025.28-.032,2.207-.161,4.212,1.88,4.664,4.748A1.6,1.6,0,0,1,57.23,29.2l-.133.015a1.6,1.6,0,0,1-1.692-1.343c-.222-1.405-1-2.08-1.288-2.06-.087.014-.263.152-.415.482a3.376,3.376,0,0,0-.19,1.876,1.6,1.6,0,0,1-1.328,1.825Z" fill="#ffffff" stroke="#009fd9" stroke-miterlimit="10"></path><path d="M93.737,31.889a2.65,2.65,0,0,0-2.835-2.45l-3.316.242a37.532,37.532,0,0,0-9,1.78l-.8.263-.826-.144a37.561,37.561,0,0,0-9.164-.456l-3.316.242A2.648,2.648,0,0,0,62.033,34.2L62.9,46.09a2.649,2.649,0,0,0,2.835,2.449l3.317-.242a37.553,37.553,0,0,1,9.163.456l.827.144.8-.262a37.59,37.59,0,0,1,9-1.781l3.316-.241A2.65,2.65,0,0,0,94.6,43.778Z" fill="#ffffff" stroke="#45413c" stroke-linecap="round" stroke-linejoin="round"></path><path d="M77.912,51.635l-.826-.143a37.561,37.561,0,0,0-9.164-.456l-3.316.242a2.651,2.651,0,0,1-2.835-2.45L60.9,36.939a2.65,2.65,0,0,1,2.45-2.835l3.316-.241a37.5,37.5,0,0,1,9.163.455l.827.144Z" fill="#ff6242" stroke="#45413c" stroke-linecap="round" stroke-linejoin="round"></path><path d="M80.554,51.443l.8-.262a37.485,37.485,0,0,1,9-1.781l3.316-.242a2.649,2.649,0,0,0,2.45-2.834l-.867-11.89a2.65,2.65,0,0,0-2.835-2.449l-3.316.242a37.54,37.54,0,0,0-9,1.78l-.8.262Z" fill="#ff6242" stroke="#45413c" stroke-linecap="round" stroke-linejoin="round"></path><path d="M77.283 34.343H79.932V51.562000000000005H77.283z" fill="#ff6242" stroke="#45413c" stroke-linecap="round" stroke-linejoin="round" transform="translate(-2.916 5.831) rotate(-4.171)"></path><path d="M91.577,38.687A1.325,1.325,0,0,1,90.352,40.1l-5.284.385a1.325,1.325,0,0,1-.193-2.642l5.284-.385A1.325,1.325,0,0,1,91.577,38.687Z" fill="#ffffff"></path><path d="M82.337,41.266a.659.659,0,0,1,.474-.256.667.667,0,0,1,.508.181,6.954,6.954,0,1,1-10.726,1.392.663.663,0,0,1,.969-.179l1.586,1.223a.662.662,0,0,1,.177.843,3.643,3.643,0,1,0,5.834-.757.661.661,0,0,1-.045-.86Z" fill="#656769"></path><path d="M82.337,41.266a.659.659,0,0,1,.474-.256.667.667,0,0,1,.508.181,6.954,6.954,0,1,1-10.726,1.392.663.663,0,0,1,.969-.179l1.586,1.223a.662.662,0,0,1,.177.843,3.643,3.643,0,1,0,5.834-.757.661.661,0,0,1-.045-.86Z" fill="none" stroke="#45413c" stroke-linecap="round" stroke-linejoin="round"></path><path d="M75.995 52.506 A3.974 3.974 0 1 0 83.943 52.506 A3.974 3.974 0 1 0 75.995 52.506 Z" fill="#ffffff" stroke="#45413c" stroke-linecap="round" stroke-linejoin="round"></path></g></svg>