<svg xmlns="http://www.w3.org/2000/svg" version="1.1" xmlns:xlink="http://www.w3.org/1999/xlink" xmlns:svgjs="http://svgjs.com/svgjs" viewBox="0 0 200 200" width="200" height="200"><g transform="matrix(2,0,0,2,0,0)"><path d="M10.000 53.750 A40.000 40.000 0 1 0 90.000 53.750 A40.000 40.000 0 1 0 10.000 53.750 Z" fill="#e8f4fa" stroke="#daedf7" stroke-miterlimit="10"></path><path d="M31.300 81.353 A18.7 1.897 0 1 0 68.700 81.353 A18.7 1.897 0 1 0 31.300 81.353 Z" fill="#45413c" opacity=".15"></path><path d="M82.844,49.022a6.6,6.6,0,0,1-2.012-12.028,1.65,1.65,0,1,1,1.748,2.8,3.3,3.3,0,0,0-1.05,4.547,3.38,3.38,0,0,0,4.547,1.05,3.3,3.3,0,0,0,1.051-4.546,1.65,1.65,0,0,1,2.8-1.748,6.6,6.6,0,0,1-7.083,9.927Z" fill="#656769" stroke="#45413c" stroke-linecap="round" stroke-linejoin="round"></path><path d="M69.73,61.8a2.751,2.751,0,0,1,.428-5.424c.419-.033,9.291-.875,10.831-11.5a2.75,2.75,0,1,1,5.443.787c-1.756,12.115-11.171,15.893-15.9,16.2A2.737,2.737,0,0,1,69.73,61.8Z" fill="#c0dceb" stroke="#45413c" stroke-linecap="round" stroke-linejoin="round"></path><path d="M74.983,54.7a4.544,4.544,0,0,1,1.749,5.334" fill="none" stroke="#45413c" stroke-linecap="round" stroke-linejoin="round"></path><path d="M78.693,51.168a4.615,4.615,0,0,1,.5.087,4.539,4.539,0,0,1,3.475,3.812" fill="none" stroke="#45413c" stroke-linecap="round" stroke-linejoin="round"></path><path d="M80.493,47.219a4.536,4.536,0,0,1,5.255,1.82" fill="none" stroke="#45413c" stroke-linecap="round" stroke-linejoin="round"></path><path d="M17.156,49.022a6.6,6.6,0,0,0,2.012-12.028,1.65,1.65,0,1,0-1.748,2.8,3.3,3.3,0,0,1,1.05,4.547,3.38,3.38,0,0,1-4.547,1.05,3.3,3.3,0,0,1-1.051-4.546,1.65,1.65,0,0,0-2.8-1.748,6.6,6.6,0,0,0,7.083,9.927Z" fill="#656769" stroke="#45413c" stroke-linecap="round" stroke-linejoin="round"></path><path d="M30.27,61.8a2.751,2.751,0,0,0-.428-5.424c-.419-.033-9.291-.875-10.831-11.5a2.75,2.75,0,1,0-5.443.787c1.756,12.115,11.171,15.893,15.905,16.2A2.737,2.737,0,0,0,30.27,61.8Z" fill="#c0dceb" stroke="#45413c" stroke-linecap="round" stroke-linejoin="round"></path><path d="M25.017,54.7A4.546,4.546,0,0,0,23.3,60.108" fill="none" stroke="#45413c" stroke-linecap="round" stroke-linejoin="round"></path><path d="M21.307,51.168a4.615,4.615,0,0,0-.5.087,4.539,4.539,0,0,0-3.475,3.812" fill="none" stroke="#45413c" stroke-linecap="round" stroke-linejoin="round"></path><path d="M19.507,47.219a4.536,4.536,0,0,0-5.255,1.82" fill="none" stroke="#45413c" stroke-linecap="round" stroke-linejoin="round"></path><path d="M28.000 19.450 L72.000 19.450 L72.000 81.050 L28.000 81.050 Z" fill="#ffffff" stroke="#45413c" stroke-linecap="round" stroke-linejoin="round"></path><path d="M67.6,19.45a4.4,4.4,0,0,1,4.4,4.4v39.6H28V23.85a4.4,4.4,0,0,1,4.4-4.4Z" fill="#00b8f0"></path><path d="M67.6,19.45a4.4,4.4,0,0,1,4.4,4.4v5.5a4.4,4.4,0,0,0-4.4-4.4H32.4a4.4,4.4,0,0,0-4.4,4.4v-5.5a4.4,4.4,0,0,1,4.4-4.4Z" fill="#4acfff"></path><path d="M35.7,63.45H31.3V59.707a1.128,1.128,0,0,1,.023-.224L32.506,53.8a1.014,1.014,0,0,1,1.986,0l1.185,5.682a1.128,1.128,0,0,1,.023.224Z" fill="#e8f4fa" stroke="#009fd9" stroke-linecap="round" stroke-linejoin="round"></path><path d="M43.4,63.45H39V59.707a1.128,1.128,0,0,1,.023-.224L40.206,53.8a1.014,1.014,0,0,1,1.986,0l1.185,5.682a1.128,1.128,0,0,1,.023.224Z" fill="#e8f4fa" stroke="#009fd9" stroke-linecap="round" stroke-linejoin="round"></path><path d="M51.1,63.45H46.7V59.707a1.128,1.128,0,0,1,.023-.224L47.906,53.8a1.014,1.014,0,0,1,1.986,0l1.185,5.682a1.128,1.128,0,0,1,.023.224Z" fill="#e8f4fa" stroke="#009fd9" stroke-linecap="round" stroke-linejoin="round"></path><path d="M58.8,63.45H54.4V59.707a1.128,1.128,0,0,1,.023-.224L55.606,53.8a1.014,1.014,0,0,1,1.986,0l1.185,5.682a1.128,1.128,0,0,1,.023.224Z" fill="#e8f4fa" stroke="#009fd9" stroke-linecap="round" stroke-linejoin="round"></path><path d="M35.7,48.05H31.3V44.307a1.128,1.128,0,0,1,.023-.224L32.506,38.4a1.014,1.014,0,0,1,1.986,0l1.185,5.682a1.128,1.128,0,0,1,.023.224Z" fill="#e8f4fa" stroke="#009fd9" stroke-linecap="round" stroke-linejoin="round"></path><path d="M43.4,48.05H39V44.307a1.128,1.128,0,0,1,.023-.224L40.206,38.4a1.014,1.014,0,0,1,1.986,0l1.185,5.682a1.128,1.128,0,0,1,.023.224Z" fill="#e8f4fa" stroke="#009fd9" stroke-linecap="round" stroke-linejoin="round"></path><path d="M51.1,48.05H46.7V44.307a1.128,1.128,0,0,1,.023-.224L47.906,38.4a1.014,1.014,0,0,1,1.986,0l1.185,5.682a1.128,1.128,0,0,1,.023.224Z" fill="#e8f4fa" stroke="#009fd9" stroke-linecap="round" stroke-linejoin="round"></path><path d="M58.8,48.05H54.4V44.307a1.128,1.128,0,0,1,.023-.224L55.606,38.4a1.014,1.014,0,0,1,1.986,0l1.185,5.682a1.128,1.128,0,0,1,.023.224Z" fill="#e8f4fa" stroke="#009fd9" stroke-linecap="round" stroke-linejoin="round"></path><path d="M35.7,32.65H31.3V28.907a1.128,1.128,0,0,1,.023-.224L32.506,23a1.014,1.014,0,0,1,1.986,0l1.185,5.682a1.128,1.128,0,0,1,.023.224Z" fill="#e8f4fa" stroke="#009fd9" stroke-linecap="round" stroke-linejoin="round"></path><path d="M43.4,32.65H39V28.907a1.128,1.128,0,0,1,.023-.224L40.206,23a1.014,1.014,0,0,1,1.986,0l1.185,5.682a1.128,1.128,0,0,1,.023.224Z" fill="#e8f4fa" stroke="#009fd9" stroke-linecap="round" stroke-linejoin="round"></path><path d="M51.1,32.65H46.7V28.907a1.128,1.128,0,0,1,.023-.224L47.906,23a1.014,1.014,0,0,1,1.986,0l1.185,5.682a1.128,1.128,0,0,1,.023.224Z" fill="#e8f4fa" stroke="#009fd9" stroke-linecap="round" stroke-linejoin="round"></path><path d="M58.8,32.65H54.4V28.907a1.128,1.128,0,0,1,.023-.224L55.606,23a1.014,1.014,0,0,1,1.986,0l1.185,5.682a1.128,1.128,0,0,1,.023.224Z" fill="#e8f4fa" stroke="#009fd9" stroke-linecap="round" stroke-linejoin="round"></path><path d="M28 48.05L62.1 48.05" fill="#e8f4fa" stroke="#009fd9" stroke-linecap="round" stroke-linejoin="round"></path><path d="M28 32.65L62.1 32.65" fill="#e8f4fa" stroke="#009fd9" stroke-linecap="round" stroke-linejoin="round"></path><path d="M67.6,19.45a4.4,4.4,0,0,1,4.4,4.4v39.6H62.1v-44Z" fill="#ffffff" stroke="#45413c" stroke-linecap="round" stroke-linejoin="round"></path><path d="M68.7 31.629L68.7 35.95" fill="none" stroke="#45413c" stroke-linecap="round" stroke-linejoin="round"></path><path d="M64.300 41.450 A1.100 1.100 0 1 0 66.500 41.450 A1.100 1.100 0 1 0 64.300 41.450 Z" fill="#45413c"></path><path d="M67.600 41.450 A1.100 1.100 0 1 0 69.800 41.450 A1.100 1.100 0 1 0 67.600 41.450 Z" fill="#45413c"></path><path d="M64.300 44.750 A1.100 1.100 0 1 0 66.500 44.750 A1.100 1.100 0 1 0 64.300 44.750 Z" fill="#45413c"></path><path d="M67.600 44.750 A1.100 1.100 0 1 0 69.800 44.750 A1.100 1.100 0 1 0 67.600 44.750 Z" fill="#45413c"></path><path d="M64.300 48.050 A1.100 1.100 0 1 0 66.500 48.050 A1.100 1.100 0 1 0 64.300 48.050 Z" fill="#45413c"></path><path d="M67.600 48.050 A1.100 1.100 0 1 0 69.800 48.050 A1.100 1.100 0 1 0 67.600 48.050 Z" fill="#45413c"></path><path d="M64.300 51.350 A1.100 1.100 0 1 0 66.500 51.350 A1.100 1.100 0 1 0 64.300 51.350 Z" fill="#45413c"></path><path d="M67.600 51.350 A1.100 1.100 0 1 0 69.800 51.350 A1.100 1.100 0 1 0 67.600 51.350 Z" fill="#45413c"></path><path d="M67.6,19.45a4.4,4.4,0,0,1,4.4,4.4v39.6H28V23.85a4.4,4.4,0,0,1,4.4-4.4Z" fill="none" stroke="#45413c" stroke-linecap="round" stroke-linejoin="round"></path><path d="M43.400 68.402 A1.650 1.650 0 1 0 46.700 68.402 A1.650 1.650 0 1 0 43.400 68.402 Z" fill="#45413c"></path><path d="M53.300 68.402 A1.650 1.650 0 1 0 56.600 68.402 A1.650 1.650 0 1 0 53.300 68.402 Z" fill="#45413c"></path><path d="M55.378,72.25A1.1,1.1,0,0,1,56.451,73.6C55.807,76.353,53.164,77.75,50,77.75s-5.807-1.4-6.451-4.149a1.1,1.1,0,0,1,1.073-1.351Z" fill="#ff6242"></path><path d="M87.012,15.667l-.428-6.616H83.862l-.429,6.616A9.072,9.072,0,0,1,82.126,19.8h0A9.072,9.072,0,0,0,80.8,24.526V38.989a1.361,1.361,0,0,0,1.361,1.361h6.124a1.36,1.36,0,0,0,1.36-1.361V24.526A9.062,9.062,0,0,0,88.319,19.8h0A9.084,9.084,0,0,1,87.012,15.667Z" fill="#00b8f0"></path><path d="M85.223,21.979a7.1,7.1,0,0,0,3.685-1.032,9.076,9.076,0,0,0-.589-1.143,9.084,9.084,0,0,1-1.307-4.137l-.428-6.616H83.862l-.429,6.616A9.072,9.072,0,0,1,82.126,19.8a8.939,8.939,0,0,0-.588,1.143A7.1,7.1,0,0,0,85.223,21.979Z" fill="#4acfff"></path><path d="M86.694 10.752L86.584 9.051 83.862 9.051 83.752 10.752 86.694 10.752z" fill="#00b8f0"></path><path d="M87.012,15.667l-.428-6.616H83.862l-.429,6.616A9.072,9.072,0,0,1,82.126,19.8h0A9.072,9.072,0,0,0,80.8,24.526V38.989a1.361,1.361,0,0,0,1.361,1.361h6.124a1.36,1.36,0,0,0,1.36-1.361V24.526A9.062,9.062,0,0,0,88.319,19.8h0A9.084,9.084,0,0,1,87.012,15.667Z" fill="none" stroke="#45413c" stroke-linecap="round" stroke-linejoin="round"></path><path d="M83.181 6.250 L87.263 6.250 L87.263 9.051 L83.181 9.051 Z" fill="#00b8f0" stroke="#45413c" stroke-linecap="round" stroke-linejoin="round"></path><path d="M80.8 36.84L89.645 32.65 89.645 25.345 80.8 29.535 80.8 36.84z" fill="#ffe500" stroke="#45413c" stroke-linecap="round" stroke-linejoin="round"></path><path d="M47.252,77.348a5.166,5.166,0,0,1-3.7-3.747,1.1,1.1,0,0,1,1.073-1.351h7.732Z" fill="#ff866e"></path><path d="M55.378,72.25A1.1,1.1,0,0,1,56.451,73.6C55.807,76.353,53.164,77.75,50,77.75s-5.807-1.4-6.451-4.149a1.1,1.1,0,0,1,1.073-1.351Z" fill="none" stroke="#45413c" stroke-linecap="round" stroke-linejoin="round"></path></g></svg>