<svg xmlns="http://www.w3.org/2000/svg" version="1.1" xmlns:xlink="http://www.w3.org/1999/xlink" xmlns:svgjs="http://svgjs.com/svgjs" viewBox="0 0 200 200" width="200" height="200"><g transform="matrix(2,0,0,2,0,0)"><path d="M10.000 50.020 A40.000 40.000 0 1 0 90.000 50.020 A40.000 40.000 0 1 0 10.000 50.020 Z" fill="#e8f4fa" stroke="#daedf7" stroke-linecap="round" stroke-linejoin="round"></path><path d="M37.646 85.072 A12.354 1.685 0 1 0 62.354 85.072 A12.354 1.685 0 1 0 37.646 85.072 Z" fill="#45413c" opacity=".15"></path><path d="M58.267,14.413a2.122,2.122,0,0,0-.991-1.287l-4.983-2.864a2.128,2.128,0,0,0-1.611-.209l-18.8,5.077a2.115,2.115,0,0,0-1.287.992L27.733,21.1a2.119,2.119,0,0,0-.209,1.611L41.733,75.331a2.121,2.121,0,0,0,.991,1.288l4.983,2.863a2.119,2.119,0,0,0,1.611.209l18.8-5.076a2.122,2.122,0,0,0,1.287-.992l2.864-4.982a2.122,2.122,0,0,0,.209-1.612Z" fill="#ffffff"></path><path d="M67.605,66.962a2.127,2.127,0,0,1-1.287.992L47.52,73.03a2.121,2.121,0,0,1-1.612-.209l-4.982-2.864a2.118,2.118,0,0,1-.992-1.287l1.8,6.661a2.121,2.121,0,0,0,.991,1.288l4.983,2.863a2.119,2.119,0,0,0,1.611.209l18.8-5.076a2.122,2.122,0,0,0,1.287-.992l2.864-4.982a2.122,2.122,0,0,0,.209-1.612l-1.8-6.661a2.123,2.123,0,0,1-.208,1.611Z" fill="#f0f0f0"></path><path d="M31.085,15.544a2.111,2.111,0,0,0-.488.578L27.733,21.1a2.119,2.119,0,0,0-.209,1.611L41.733,75.331a2.121,2.121,0,0,0,.991,1.288l4.983,2.863a2.123,2.123,0,0,0,.713.254Z" fill="#e0e0e0"></path><path d="M51.58,10.009a2.143,2.143,0,0,1,.713.253l4.983,2.864a2.122,2.122,0,0,1,.991,1.287L72.476,67.029a2.122,2.122,0,0,1-.209,1.612L69.4,73.623a2.126,2.126,0,0,1-.488.578Z" fill="#f0f0f0"></path><path d="M46.621,73.075a2.123,2.123,0,0,1-.713-.254l-4.982-2.864a2.118,2.118,0,0,1-.992-1.287l1.8,6.661a2.121,2.121,0,0,0,.991,1.288l4.983,2.863a2.123,2.123,0,0,0,.713.254Z" fill="#bdbec0"></path><path d="M67.605,66.962a2.111,2.111,0,0,1-.488.578l1.8,6.661a2.126,2.126,0,0,0,.488-.578l2.864-4.982a2.122,2.122,0,0,0,.209-1.612l-1.8-6.661a2.123,2.123,0,0,1-.208,1.611Z" fill="#e0e0e0"></path><path d="M58.267,14.413a2.122,2.122,0,0,0-.991-1.287l-4.983-2.864a2.128,2.128,0,0,0-1.611-.209l-18.8,5.077a2.115,2.115,0,0,0-1.287.992L27.733,21.1a2.119,2.119,0,0,0-.209,1.611L41.733,75.331a2.121,2.121,0,0,0,.991,1.288l4.983,2.863a2.119,2.119,0,0,0,1.611.209l18.8-5.076a2.122,2.122,0,0,0,1.287-.992l2.864-4.982a2.122,2.122,0,0,0,.209-1.612Z" fill="none" stroke="#45413c" stroke-linecap="round" stroke-linejoin="round"></path><path d="M43.384,28.517c-4.528,1.223-7.764,3.819-7.23,5.8l7.2,26.645c.535,1.981,4.639,2.595,9.167,1.373s7.764-3.82,7.229-5.8L52.551,29.89C52.016,27.909,47.912,27.294,43.384,28.517Z" fill="#656769"></path><path d="M43.384,28.517c-4.528,1.223-7.764,3.819-7.23,5.8l.554,2.05c-.535-1.981,2.7-4.578,7.23-5.8s8.632-.608,9.167,1.373l-.554-2.049C52.016,27.909,47.912,27.294,43.384,28.517Z" fill="#525252"></path><path d="M51.686,59.26c-4.527,1.223-8.631.609-9.166-1.372l.83,3.074c.535,1.981,4.639,2.595,9.167,1.373s7.764-3.82,7.229-5.8l-.83-3.074C59.451,55.441,56.214,58.038,51.686,59.26Z" fill="#525252"></path><path d="M43.384,28.517c-4.528,1.223-7.764,3.819-7.23,5.8l7.2,26.645c.535,1.981,4.639,2.595,9.167,1.373s7.764-3.82,7.229-5.8L52.551,29.89C52.016,27.909,47.912,27.294,43.384,28.517Z" fill="none" stroke="#45413c" stroke-linecap="round" stroke-linejoin="round"></path><path d="M52.326,45.344,47.613,27.89a17.5,17.5,0,0,0-4.229.627,16.338,16.338,0,0,0-4.911,2.171L43.1,47.834a4.777,4.777,0,0,0,9.223-2.49Z" fill="#87898c"></path><path d="M40.724 38.391 A4.777 4.777 0 1 0 50.278 38.391 A4.777 4.777 0 1 0 40.724 38.391 Z" fill="#656769" stroke="#656769" stroke-miterlimit="10"></path><path d="M43.384,28.517a16.338,16.338,0,0,0-4.911,2.171l.553,2.049a16.406,16.406,0,0,1,4.912-2.171,17.539,17.539,0,0,1,4.228-.627l-.553-2.049A17.5,17.5,0,0,0,43.384,28.517Z" fill="#656769"></path><path d="M52.326,45.344,47.613,27.89a17.5,17.5,0,0,0-4.229.627,16.338,16.338,0,0,0-4.911,2.171L43.1,47.834a4.777,4.777,0,0,0,9.223-2.49Z" fill="none" stroke="#45413c" stroke-linecap="round" stroke-linejoin="round"></path><path d="M31.085 15.543L48.42 79.736" fill="none" stroke="#45413c" stroke-linecap="round" stroke-linejoin="round"></path><path d="M51.58 10.009L68.916 74.202" fill="none" stroke="#45413c" stroke-linecap="round" stroke-linejoin="round"></path><path d="M40.447 37.366 A4.777 4.777 0 1 0 50.001 37.366 A4.777 4.777 0 1 0 40.447 37.366 Z" fill="#ffe500"></path><path d="M42.844,41.507a4.777,4.777,0,0,1,4.76-8.283Z" fill="#fff48c"></path><path d="M40.447 37.366 A4.777 4.777 0 1 0 50.001 37.366 A4.777 4.777 0 1 0 40.447 37.366 Z" fill="none" stroke="#45413c" stroke-linecap="round" stroke-linejoin="round"></path><path d="M44.581 45.093 A0.531 0.531 0 1 0 45.643 45.093 A0.531 0.531 0 1 0 44.581 45.093 Z" fill="#ff4064" stroke="#ff4064" stroke-linecap="round" stroke-linejoin="round"></path></g></svg>