<svg xmlns="http://www.w3.org/2000/svg" version="1.1" xmlns:xlink="http://www.w3.org/1999/xlink" xmlns:svgjs="http://svgjs.com/svgjs" viewBox="0 0 200 200" width="200" height="200"><g transform="matrix(2,0,0,2,0,0)"><path d="M12.739 50.000 A40.000 40.000 0 1 0 92.739 50.000 A40.000 40.000 0 1 0 12.739 50.000 Z" fill="#e8f4fa" stroke="#daedf7" stroke-linecap="round" stroke-linejoin="round"></path><path d="M31.573 74.596 A26.769 2.677 0 1 0 85.111 74.596 A26.769 2.677 0 1 0 31.573 74.596 Z" fill="#45413c" opacity=".15"></path><path d="M81.147,71.837a3.174,3.174,0,0,1-.7-4.353L92.228,50.575l-2.545-1.708L76.622,66.816A36.146,36.146,0,0,0,73.528,71.9a1.864,1.864,0,0,0-.2.832v.521A1.339,1.339,0,0,0,74.67,74.6h5.752a1.339,1.339,0,0,0,1.338-1.339v-.194A1.534,1.534,0,0,0,81.147,71.837Z" fill="#525252" stroke="#45413c" stroke-linecap="round" stroke-linejoin="round"></path><path d="M89.763 50.357 A0.766 0.766 0 1 0 91.295 50.357 A0.766 0.766 0 1 0 89.763 50.357 Z" fill="#45413c" stroke="#45413c" stroke-linecap="round" stroke-linejoin="round"></path><path d="M77.679,31.963a6.043,6.043,0,0,0-.465-.421A6.129,6.129,0,1,0,75.5,42.019a3.07,3.07,0,0,1,3.025.5l7.053,5.772A3.068,3.068,0,0,1,86.7,50.525a3.83,3.83,0,1,0,6.534-2.878Z" fill="#ffe500" stroke="#45413c" stroke-linecap="round" stroke-linejoin="round"></path><path d="M25.345,55.558a3.638,3.638,0,0,1,2.418-2.16l20.859-5.714-.81-2.956L25.157,50.489l-3.421.637A4.6,4.6,0,0,0,18.7,53.181L16.614,56.46a1.538,1.538,0,0,0,1.469,2.354l3.5-.392A4.594,4.594,0,0,0,25.345,55.558Z" fill="#525252" stroke="#45413c" stroke-linecap="round" stroke-linejoin="round"></path><path d="M51.417,48.313a3.832,3.832,0,0,0-.981-5.229L32.91,29.722c-.1-.075-.2-.146-.3-.215a5.363,5.363,0,0,0-5.9,8.959c.1.069.21.133.316.193l19.2,10.819A3.831,3.831,0,0,0,51.417,48.313Z" fill="#ffe500" stroke="#45413c" stroke-linecap="round" stroke-linejoin="round"></path><path d="M67.969 27.091H74.09899999999999V33.987H67.969z" fill="#525252" stroke="#45413c" stroke-linecap="round" stroke-linejoin="round"></path><path d="M80.228,39.35h-6.9V26.83A1.273,1.273,0,0,1,75.1,25.661l3.266,1.4a3.065,3.065,0,0,1,1.858,2.817Z" fill="#fff48c"></path><path d="M78.37,27.061l-3.266-1.4a1.273,1.273,0,0,0-1.772,1.169v2.3A1.271,1.271,0,0,1,75.1,27.96l3.266,1.4a3.065,3.065,0,0,1,1.858,2.817v-2.3A3.065,3.065,0,0,0,78.37,27.061Z" fill="#fffef2"></path><path d="M80.228,39.35h-6.9V26.83A1.273,1.273,0,0,1,75.1,25.661l3.266,1.4a3.065,3.065,0,0,1,1.858,2.817Z" fill="none" stroke="#45413c" stroke-linecap="round" stroke-linejoin="round"></path><path d="M68.735,37.052a3.064,3.064,0,0,1-3.065,3.064h-49.8L9.737,21.728l56.1,3.069a3.065,3.065,0,0,1,2.9,3.06Z" fill="#fff48c"></path><path d="M65.838,24.8l-56.1-3.069,1.041,3.121L68.735,28.02v-.163A3.065,3.065,0,0,0,65.838,24.8Z" fill="#fffef2"></path><path d="M68.735,37.052a3.064,3.064,0,0,1-3.065,3.064h-49.8L9.737,21.728l56.1,3.069a3.065,3.065,0,0,1,2.9,3.06Z" fill="none" stroke="#45413c" stroke-linecap="round" stroke-linejoin="round"></path><path d="M15.867,40.116l-3.413,1.138a1,1,0,0,1-1.265-.632L5.692,24.13a1,1,0,0,1,.632-1.265l3.413-1.138Z" fill="#fff48c"></path><path d="M5.86 24.635L6.486 26.513 10.778 24.849 9.737 21.728 6.83 22.696" fill="#fffef2"></path><path d="M15.867,40.116l-3.413,1.138a1,1,0,0,1-1.265-.632L5.692,24.13a1,1,0,0,1,.632-1.265l3.413-1.138Z" fill="none" stroke="#45413c" stroke-linecap="round" stroke-linejoin="round"></path><path d="M35.955,23.162a3.065,3.065,0,0,1,2.9,3.06v10.83a3.064,3.064,0,0,1-3.065,3.064H24.26a3.063,3.063,0,0,1-2.929-2.163L19.16,30.9a3.059,3.059,0,0,1-.076-1.5l.895-4.474a3.064,3.064,0,0,1,3.172-2.46Z" fill="#525252"></path><path d="M35.956,23.162l-12.805-.7a3.063,3.063,0,0,0-3.172,2.459L19.084,29.4a3.069,3.069,0,0,0-.037.97l2.74-4.11a3.065,3.065,0,0,1,2.73-1.359l8.867.521a3.065,3.065,0,0,1,2.835,2.511l2,10.991a3.05,3.05,0,0,0,.636-1.867V26.222A3.065,3.065,0,0,0,35.956,23.162Z" fill="#87898c"></path><path d="M35.955,23.162a3.065,3.065,0,0,1,2.9,3.06v10.83a3.064,3.064,0,0,1-3.065,3.064H24.26a3.063,3.063,0,0,1-2.929-2.163L19.16,30.9a3.059,3.059,0,0,1-.076-1.5l.895-4.474a3.064,3.064,0,0,1,3.172-2.46Z" fill="none" stroke="#45413c" stroke-linecap="round" stroke-linejoin="round"></path><path d="M38.853,29.39H52.687a3.065,3.065,0,0,0,1.371-.324l1.77-.885a3.065,3.065,0,0,1,1.371-.324h.809l-2.912,3.5a3.067,3.067,0,0,1-2.355,1.1H38.853Z" fill="#525252" stroke="#45413c" stroke-linecap="round" stroke-linejoin="round"></path><path d="M68.735,30.156l-3.1-1.862a3.067,3.067,0,0,0-1.577-.437H58.007" fill="none" stroke="#45413c" stroke-linecap="round" stroke-linejoin="round"></path><path d="M39.749,70.914A2.088,2.088,0,0,1,38.662,68.2L45.7,51.3l-2.829-1.179L34.1,70.127a7.313,7.313,0,0,0-.616,2.936v.194A1.34,1.34,0,0,0,34.828,74.6h4.985a1.339,1.339,0,0,0,1.338-1.339v-.194A2.348,2.348,0,0,0,39.749,70.914Z" fill="#87898c" stroke="#45413c" stroke-linecap="round" stroke-linejoin="round"></path><path d="M46.811,53.594a3.831,3.831,0,0,0,.448-5.3l-13.33-17.55q-.111-.147-.234-.288a5.363,5.363,0,0,0-8.073,7.063c.082.094.166.184.253.27L41.5,53.333A3.829,3.829,0,0,0,46.811,53.594Z" fill="#fff48c"></path><path d="M33.352,32.586q.188.138.363.287l5.142,4.358-4.928-6.488q-.111-.147-.234-.288a5.363,5.363,0,0,0-9.388,3.177A6.685,6.685,0,0,1,33.352,32.586Z" fill="#fffef2"></path><path d="M46.811,53.594a3.831,3.831,0,0,0,.448-5.3l-13.33-17.55q-.111-.147-.234-.288a5.363,5.363,0,0,0-8.073,7.063c.082.094.166.184.253.27L41.5,53.333A3.829,3.829,0,0,0,46.811,53.594Z" fill="none" stroke="#45413c" stroke-linecap="round" stroke-linejoin="round"></path><path d="M43.523 50.711 A0.766 0.766 0 1 0 45.055 50.711 A0.766 0.766 0 1 0 43.523 50.711 Z" fill="#45413c" stroke="#45413c" stroke-linecap="round" stroke-linejoin="round"></path><path d="M63.645,65.765a3.64,3.64,0,0,1,2.266-2.32l20.421-7.119-1.009-2.894L63.112,60.72l-3.369.868a4.6,4.6,0,0,0-2.893,2.257L55,67.259a1.539,1.539,0,0,0,1.626,2.248l3.469-.629A4.6,4.6,0,0,0,63.645,65.765Z" fill="#87898c" stroke="#45413c" stroke-linecap="round" stroke-linejoin="round"></path><path d="M82.082 57.486L68.492 40.048 75.444 36.773 86.404 54.319 82.082 57.486z" fill="#87898c" stroke="#45413c" stroke-linecap="round" stroke-linejoin="round"></path><path d="M84.338 55.131 A0.766 0.766 0 1 0 85.870 55.131 A0.766 0.766 0 1 0 84.338 55.131 Z" fill="#45413c" stroke="#45413c" stroke-linecap="round" stroke-linejoin="round"></path><path d="M78.836,33.587a6.13,6.13,0,1,0-5.289,8.825,3.069,3.069,0,0,1,2.706,1.442l4.828,7.729a3.063,3.063,0,0,1,.344,2.479,3.831,3.831,0,1,0,7.113-.629Z" fill="#fff48c"></path><path d="M68.56,34.959a6.754,6.754,0,0,1,9.554,0,6.582,6.582,0,0,1,.464.514l2.97,3.66-2.712-5.548q-.136-.277-.3-.548a6.131,6.131,0,0,0-11.3,3.81A6.732,6.732,0,0,1,68.56,34.959Z" fill="#fffef2"></path><path d="M78.836,33.587a6.13,6.13,0,1,0-5.289,8.825,3.069,3.069,0,0,1,2.706,1.442l4.828,7.729a3.063,3.063,0,0,1,.344,2.479,3.831,3.831,0,1,0,7.113-.629Z" fill="none" stroke="#45413c" stroke-linecap="round" stroke-linejoin="round"></path><path d="M84.338 55.131 A0.766 0.766 0 1 0 85.870 55.131 A0.766 0.766 0 1 0 84.338 55.131 Z" fill="#45413c" stroke="#45413c" stroke-linecap="round" stroke-linejoin="round"></path></g></svg>