<svg xmlns="http://www.w3.org/2000/svg" version="1.1" xmlns:xlink="http://www.w3.org/1999/xlink" xmlns:svgjs="http://svgjs.com/svgjs" viewBox="0 0 200 200" width="200" height="200"><g transform="matrix(2,0,0,2,0,0)"><path d="M12.380 53.462 A40.000 40.000 0 1 0 92.380 53.462 A40.000 40.000 0 1 0 12.380 53.462 Z" fill="#e8f4fa" stroke="#daedf7" stroke-miterlimit="10"></path><path d="M53.613 78.773 A20.963 1.497 0 1 0 95.539 78.773 A20.963 1.497 0 1 0 53.613 78.773 Z" fill="#45413c" opacity=".15"></path><path d="M83.555,52.167a1,1,0,0,1-1,.922H80.805a1,1,0,0,1-1-.922l-.53-6.886h4.8Z" fill="#ffaa54" stroke="#45413c" stroke-linecap="round" stroke-linejoin="round"></path><path d="M84.085,44.68a2.4,2.4,0,0,0-4.8,0v.6h4.8Z" fill="#fffce5" stroke="#45413c" stroke-linecap="round" stroke-linejoin="round"></path><path d="M81.682,42.278l.3-1.771a1.2,1.2,0,0,1,1.852-.8l.256.17" fill="none" stroke="#45413c" stroke-linecap="round" stroke-linejoin="round"></path><path d="M12.888 87.010 A20.428 2.028 0 1 0 53.744 87.010 A20.428 2.028 0 1 0 12.888 87.010 Z" fill="#45413c" opacity=".15"></path><path d="M44.407,86.363a3.051,3.051,0,0,0,2.62-3.143A95.2,95.2,0,0,0,40.9,52.5a3.05,3.05,0,0,0-5.714,2.138,90.285,90.285,0,0,1,5.751,28.827,3.056,3.056,0,0,0,3.475,2.9Z" fill="#ffffff" stroke="#45413c" stroke-linecap="round" stroke-linejoin="round"></path><path d="M53.881,84.2c0,3.1-3.137,2.8-7.008,2.8s-7.007.293-7.007-2.8S43,78.593,46.873,78.593,53.881,81.1,53.881,84.2Z" fill="#adc4d9" stroke="#45413c" stroke-linecap="round" stroke-linejoin="round"></path><path d="M37.967,63.356a13.432,13.432,0,0,0,5.845-1.822" fill="none" stroke="#45413c" stroke-linecap="round" stroke-linejoin="round"></path><path d="M39.409,69.888A12.906,12.906,0,0,0,42.6,69.6a13.051,13.051,0,0,0,2.8-.931" fill="none" stroke="#45413c" stroke-linecap="round" stroke-linejoin="round"></path><path d="M40.327,75.8a12.337,12.337,0,0,0,3.964-.232,13.392,13.392,0,0,0,2.07-.617" fill="none" stroke="#45413c" stroke-linecap="round" stroke-linejoin="round"></path><path d="M19.768,86.39a3.042,3.042,0,0,1-2.927-3.17A95.234,95.234,0,0,1,22.973,52.5a3.05,3.05,0,0,1,5.714,2.138,90.318,90.318,0,0,0-5.751,28.827A3.05,3.05,0,0,1,19.768,86.39Z" fill="#ffffff" stroke="#45413c" stroke-linecap="round" stroke-linejoin="round"></path><path d="M15.16,84.2c0,3.1,3.137,2.8,7.007,2.8s7.008.293,7.008-2.8-3.137-5.606-7.008-5.606S15.16,81.1,15.16,84.2Z" fill="#adc4d9" stroke="#45413c" stroke-linecap="round" stroke-linejoin="round"></path><path d="M25.9,63.356a13.432,13.432,0,0,1-5.845-1.822" fill="none" stroke="#45413c" stroke-linecap="round" stroke-linejoin="round"></path><path d="M24.46,69.888a12.9,12.9,0,0,1-3.188-.292,13.042,13.042,0,0,1-2.8-.931" fill="none" stroke="#45413c" stroke-linecap="round" stroke-linejoin="round"></path><path d="M23.541,75.8a12.337,12.337,0,0,1-3.964-.232,13.412,13.412,0,0,1-2.069-.617" fill="none" stroke="#45413c" stroke-linecap="round" stroke-linejoin="round"></path><path d="M60.177,37.267a.666.666,0,0,0-.987.075A6.987,6.987,0,1,0,70.055,37.1a.666.666,0,0,0-.989-.03l-1.391,1.455a.665.665,0,0,0-.047.864,3.66,3.66,0,1,1-5.91.133.664.664,0,0,0-.086-.861Z" fill="#adc4d9" stroke="#45413c" stroke-linecap="round" stroke-linejoin="round"></path><path d="M35.058,34.364c.025.075.054.148.085.222C38.161,41.5,48.287,53.467,65.021,49.28A2.822,2.822,0,1,0,63.652,43.8C47.419,47.866,40.6,32.956,40.313,32.321a2.822,2.822,0,0,0-5.255,2.043Z" fill="#ffffff" stroke="#45413c" stroke-linecap="round" stroke-linejoin="round"></path><path d="M59.277,50.126a5.328,5.328,0,0,0-.663-5.626" fill="none" stroke="#45413c" stroke-linecap="round" stroke-linejoin="round"></path><path d="M49.647,48.552a5.33,5.33,0,0,0,3.029-4.9" fill="none" stroke="#45413c" stroke-linecap="round" stroke-linejoin="round"></path><path d="M42.073,43.888a5.336,5.336,0,0,0,4.055-3.958" fill="none" stroke="#45413c" stroke-linecap="round" stroke-linejoin="round"></path><path d="M31.5 24.968H34.986V28.454H31.5z" fill="#87898c" stroke="#45413c" stroke-linecap="round" stroke-linejoin="round"></path><path d="M41.341,50.114H21.912V32.333a3.879,3.879,0,0,1,3.879-3.879h11.67a3.88,3.88,0,0,1,3.88,3.879Z" fill="#f0f0f0" stroke="#45413c" stroke-linecap="round" stroke-linejoin="round"></path><path d="M41.341,50.114a9.715,9.715,0,0,1-19.429,0Z" fill="#f0f0f0" stroke="#45413c" stroke-linecap="round" stroke-linejoin="round"></path><path d="M41.341,58.289a3.88,3.88,0,0,1-3.88,3.879H27.084A5.173,5.173,0,0,1,21.912,57V39.356A2.055,2.055,0,0,1,23.968,37.3a3.242,3.242,0,0,0,3.143-2.446,15.277,15.277,0,0,0-.175-6.4h3.415l.611,6.824A2.221,2.221,0,0,0,33.174,37.3h2.057a2.221,2.221,0,0,0,2.212-2.023l.607-6.78a3.881,3.881,0,0,1,3.291,3.835Z" fill="#6dd627" stroke="#45413c" stroke-linecap="round" stroke-linejoin="round"></path><path d="M30.923,56.682H37.4a2,2,0,0,0,2-2V48.055a1,1,0,0,0-1-1H29.923a1,1,0,0,0-1,1v6.627A2,2,0,0,0,30.923,56.682Z" fill="#9ceb60" stroke="#45413c" stroke-linecap="round" stroke-linejoin="round"></path><path d="M16.829,67.989a.665.665,0,0,0,.947-.288,6.987,6.987,0,1,0-10.55,2.608.668.668,0,0,0,.972-.187L9.238,68.4a.667.667,0,0,0-.142-.854,3.66,3.66,0,1,1,5.738-1.418.665.665,0,0,0,.272.822Z" fill="#656769"></path><path d="M16.829,67.989a.665.665,0,0,0,.947-.288,6.987,6.987,0,1,0-10.55,2.608.668.668,0,0,0,.972-.187L9.238,68.4a.667.667,0,0,0-.142-.854,3.66,3.66,0,1,1,5.738-1.418.665.665,0,0,0,.272.822Z" fill="#adc4d9" stroke="#45413c" stroke-linecap="round" stroke-linejoin="round"></path><path d="M21.788,30.017c-.074.027-.147.057-.221.09C14.709,33.245,2.921,43.58,7.4,60.238a2.823,2.823,0,0,0,5.452-1.465C8.506,42.614,23.293,35.53,23.923,35.236a2.822,2.822,0,0,0-2.135-5.219Z" fill="#ffffff" stroke="#45413c" stroke-linecap="round" stroke-linejoin="round"></path><path d="M6.454,54.51a5.331,5.331,0,0,0,5.614-.762" fill="none" stroke="#45413c" stroke-linecap="round" stroke-linejoin="round"></path><path d="M7.859,44.854A5.332,5.332,0,0,0,12.808,47.8" fill="none" stroke="#45413c" stroke-linecap="round" stroke-linejoin="round"></path><path d="M12.389,37.2a5.333,5.333,0,0,0,4.029,3.984" fill="none" stroke="#45413c" stroke-linecap="round" stroke-linejoin="round"></path><path d="M23.529 16.253 A9.714 9.714 0 1 0 42.957 16.253 A9.714 9.714 0 1 0 23.529 16.253 Z" fill="#ffffff" stroke="#45413c" stroke-linecap="round" stroke-linejoin="round"></path><path d="M42.635,13.853c0-.03,0-.06,0-.091A9.722,9.722,0,0,0,30.862,6.833a7.979,7.979,0,1,0,11.773,7.02Z" fill="#525252" stroke="#45413c" stroke-linecap="round" stroke-linejoin="round"></path><path d="M31.793 13.660 A0.789 1.972 0 1 0 33.371 13.660 A0.789 1.972 0 1 0 31.793 13.660 Z" fill="#4aeff7"></path><path d="M36.188 13.660 A0.789 1.972 0 1 0 37.766 13.660 A0.789 1.972 0 1 0 36.188 13.660 Z" fill="#4aeff7"></path><path d="M62.106 36.577L56.581 36.577 55.66 27.369 63.027 27.369 62.106 36.577z" fill="#ffe500" stroke="#45413c" stroke-linecap="round" stroke-linejoin="round"></path><path d="M63.027,26.448a3.684,3.684,0,0,0-7.367,0v.921h7.367Z" fill="#fffce5" stroke="#45413c" stroke-linecap="round" stroke-linejoin="round"></path><path d="M72.265 36.577L66.74 36.577 65.82 27.369 73.186 27.369 72.265 36.577z" fill="#bf8256" stroke="#45413c" stroke-linecap="round" stroke-linejoin="round"></path><path d="M73.186,26.448a3.683,3.683,0,0,0-7.366,0v.921h7.366Z" fill="#fffce5" stroke="#45413c" stroke-linecap="round" stroke-linejoin="round"></path><path d="M69.5,22.765l.452-2.715a1.842,1.842,0,0,1,2.838-1.23l.393.262" fill="none" stroke="#45413c" stroke-linecap="round" stroke-linejoin="round"></path><path d="M76.22,37.929a1.352,1.352,0,0,1-1.352,1.352H53.978a1.352,1.352,0,0,1,0-2.7h20.89A1.352,1.352,0,0,1,76.22,37.929Z" fill="#adc4d9" stroke="#45413c" stroke-linecap="round" stroke-linejoin="round"></path><path d="M57.312,78.274c-.035,0-.071,0-.106,0a1.2,1.2,0,0,1-1.092-1.3l1.2-12.878A1.214,1.214,0,0,1,58.616,63a1.2,1.2,0,0,1,1.092,1.3l-1.2,12.878A1.2,1.2,0,0,1,57.312,78.274Z" fill="#daedf7" stroke="#45413c" stroke-linecap="round" stroke-linejoin="round"></path><path d="M66.919,78.274c.036,0,.071,0,.106,0a1.2,1.2,0,0,0,1.092-1.3l-1.2-12.878A1.214,1.214,0,0,0,65.615,63a1.2,1.2,0,0,0-1.092,1.3l1.2,12.878A1.2,1.2,0,0,0,66.919,78.274Z" fill="#daedf7" stroke="#45413c" stroke-linecap="round" stroke-linejoin="round"></path><path d="M67.521,64.194H56.71v-1.4a1,1,0,0,1,1-1h8.811a1,1,0,0,1,1,1Z" fill="#bf8256"></path><path d="M66.523,61.792H57.708a1,1,0,0,0-1,1V64a1,1,0,0,1,1-1h8.815a1,1,0,0,1,1,1V62.79A1,1,0,0,0,66.523,61.792Z" fill="#dea47a"></path><path d="M67.521,64.194H56.71v-1.4a1,1,0,0,1,1-1h8.811a1,1,0,0,1,1,1Z" fill="none" stroke="#45413c" stroke-linecap="round" stroke-linejoin="round"></path><path d="M82.284,78.274c-.035,0-.071,0-.106,0a1.2,1.2,0,0,1-1.092-1.3l1.2-12.878A1.215,1.215,0,0,1,83.588,63a1.2,1.2,0,0,1,1.092,1.3l-1.2,12.878A1.2,1.2,0,0,1,82.284,78.274Z" fill="#daedf7" stroke="#45413c" stroke-linecap="round" stroke-linejoin="round"></path><path d="M91.891,78.274c.036,0,.071,0,.106,0a1.2,1.2,0,0,0,1.092-1.3l-1.2-12.878A1.214,1.214,0,0,0,90.587,63,1.2,1.2,0,0,0,89.5,64.3l1.2,12.878A1.2,1.2,0,0,0,91.891,78.274Z" fill="#daedf7" stroke="#45413c" stroke-linecap="round" stroke-linejoin="round"></path><path d="M92.493,64.194H81.682v-1.4a1,1,0,0,1,1-1h8.811a1,1,0,0,1,1,1Z" fill="#bf8256"></path><path d="M91.5,61.792H82.68a1,1,0,0,0-1,1V64a1,1,0,0,1,1-1H91.5a1,1,0,0,1,1,1V62.79A1,1,0,0,0,91.5,61.792Z" fill="#dea47a"></path><path d="M92.493,64.194H81.682v-1.4a1,1,0,0,1,1-1h8.811a1,1,0,0,1,1,1Z" fill="none" stroke="#45413c" stroke-linecap="round" stroke-linejoin="round"></path><path d="M76.478,78.274H72.472a1,1,0,0,1-1-1V55.451h6.006V77.274A1,1,0,0,1,76.478,78.274Z" fill="#daedf7"></path><path d="M71.472 55.451H77.478V58.454H71.472z" fill="#adc4d9"></path><path d="M76.478,78.274H72.472a1,1,0,0,1-1-1V55.451h6.006V77.274A1,1,0,0,1,76.478,78.274Z" fill="none" stroke="#45413c" stroke-linecap="round" stroke-linejoin="round"></path><path d="M87.088,54.25a1.2,1.2,0,0,1-1.2,1.2H63.064a1.2,1.2,0,1,1,0-2.4H85.887A1.2,1.2,0,0,1,87.088,54.25Z" fill="#bf8256"></path><path d="M86.915,54.87a1.185,1.185,0,0,0-1.028-.62H63.064a1.187,1.187,0,0,0-1.029.62,1.189,1.189,0,0,1-.173-.62,1.2,1.2,0,0,1,1.2-1.2H85.887a1.2,1.2,0,0,1,1.2,1.2A1.189,1.189,0,0,1,86.915,54.87Z" fill="#dea47a"></path><path d="M87.088,54.25a1.2,1.2,0,0,1-1.2,1.2H63.064a1.2,1.2,0,1,1,0-2.4H85.887A1.2,1.2,0,0,1,87.088,54.25Z" fill="none" stroke="#45413c" stroke-linecap="round" stroke-linejoin="round"></path></g></svg>