<svg xmlns="http://www.w3.org/2000/svg" version="1.1" xmlns:xlink="http://www.w3.org/1999/xlink" xmlns:svgjs="http://svgjs.com/svgjs" viewBox="0 0 200 200" width="200" height="200"><g transform="matrix(2,0,0,2,0,0)"><path d="M10.000 51.305 A40.000 40.000 0 1 0 90.000 51.305 A40.000 40.000 0 1 0 10.000 51.305 Z" fill="#e8f4fa" stroke="#daedf7" stroke-miterlimit="10"></path><path d="M50.207,20.153A12.945,12.945,0,0,1,63.152,33.1c0,7.149-5.8,15.18-12.945,15.18S37.262,40.247,37.262,33.1A12.945,12.945,0,0,1,50.207,20.153Z" fill="#ffe500"></path><path d="M62.928,35.588a14.344,14.344,0,0,0,.224-2.49,12.945,12.945,0,0,0-25.89,0,14.364,14.364,0,0,0,.226,2.5,12.951,12.951,0,0,1,25.44-.01Z" fill="#fff48c"></path><path d="M50.207,20.153A12.945,12.945,0,0,1,63.152,33.1c0,7.149-5.8,15.18-12.945,15.18S37.262,40.247,37.262,33.1A12.945,12.945,0,0,1,50.207,20.153Z" fill="none" stroke="#45413c" stroke-linecap="round" stroke-linejoin="round"></path><path d="M53.029,47.05,55.1,34.6A.565.565,0,0,0,54.3,34l-1.04.519a.564.564,0,0,1-.462.019l-2.168-.867a1.134,1.134,0,0,0-.838,0l-2.166.867a.562.562,0,0,1-.461-.019L46.121,34a.565.565,0,0,0-.808.6L47.387,47.05" fill="none" stroke="#45413c" stroke-linecap="round" stroke-linejoin="round"></path><path d="M54.361,64.494a2.253,2.253,0,0,0-.156,2.756c1.974,2.876,2.223,7.315,2.124,9.01a2.826,2.826,0,0,0,2.087,2.895,2.906,2.906,0,0,0,.556.09,2.819,2.819,0,0,0,2.988-2.632c.022-.352.437-7.671-3.3-12.838a2.258,2.258,0,0,0-3.533-.158Z" fill="#ff6242"></path><path d="M61.7,71.9a18.569,18.569,0,0,0-3.048-8.124,2.258,2.258,0,0,0-3.533-.158l-.762.877a2.253,2.253,0,0,0-.156,2.756A12.537,12.537,0,0,1,55.99,71.9Z" fill="#e04122"></path><path d="M54.361,64.494a2.253,2.253,0,0,0-.156,2.756c1.974,2.876,2.223,7.315,2.124,9.01a2.826,2.826,0,0,0,2.087,2.895,2.906,2.906,0,0,0,.556.09,2.819,2.819,0,0,0,2.988-2.632c.022-.352.437-7.671-3.3-12.838a2.258,2.258,0,0,0-3.533-.158Z" fill="none" stroke="#45413c" stroke-linecap="round" stroke-linejoin="round"></path><path d="M45.627,64.494a2.255,2.255,0,0,1,.155,2.756c-1.974,2.876-2.223,7.315-2.124,9.01a2.826,2.826,0,0,1-2.086,2.895,2.9,2.9,0,0,1-.557.09,2.817,2.817,0,0,1-2.987-2.632c-.023-.352-.437-7.671,3.3-12.838a2.259,2.259,0,0,1,3.534-.158Z" fill="#ffe500"></path><path d="M38.283,71.9a18.594,18.594,0,0,1,3.048-8.124,2.259,2.259,0,0,1,3.534-.158l.762.877a2.255,2.255,0,0,1,.155,2.756A12.518,12.518,0,0,0,44,71.9Z" fill="#ebcb00"></path><path d="M45.627,64.494a2.255,2.255,0,0,1,.155,2.756c-1.974,2.876-2.223,7.315-2.124,9.01a2.826,2.826,0,0,1-2.086,2.895,2.9,2.9,0,0,1-.557.09,2.817,2.817,0,0,1-2.987-2.632c-.023-.352-.437-7.671,3.3-12.838a2.259,2.259,0,0,1,3.534-.158Z" fill="none" stroke="#45413c" stroke-linecap="round" stroke-linejoin="round"></path><path d="M30.412 80.267 A19.174 1.693 0 1 0 68.760 80.267 A19.174 1.693 0 1 0 30.412 80.267 Z" fill="#45413c" opacity=".15"></path><path d="M56.974,50.435H43.441V48.178a1.128,1.128,0,0,1,1.128-1.128H55.845a1.129,1.129,0,0,1,1.129,1.128Z" fill="#adc4d9" stroke="#45413c" stroke-linecap="round" stroke-linejoin="round"></path><path d="M58.67,53.82H41.744V51.563a1.128,1.128,0,0,1,1.129-1.128H57.542a1.128,1.128,0,0,1,1.128,1.128Z" fill="#adc4d9" stroke="#45413c" stroke-linecap="round" stroke-linejoin="round"></path><path d="M67.706,19.54c-.944.944-3.844,2.314-4.787,1.371s.427-3.844,1.37-4.787a2.416,2.416,0,0,1,3.417,3.416Z" fill="#ffe500" stroke="#b58b00" stroke-miterlimit="10"></path><path d="M72.4,36.151c-1.334,0-4.355-1.082-4.355-2.416s3.021-2.416,4.355-2.416a2.416,2.416,0,0,1,0,4.832Z" fill="#ffe500" stroke="#b58b00" stroke-miterlimit="10"></path><path d="M52.644,11.111c0,1.334-1.082,4.354-2.416,4.354s-2.416-3.02-2.416-4.354a2.416,2.416,0,1,1,4.832,0Z" fill="#ffe500" stroke="#b58b00" stroke-miterlimit="10"></path><path d="M25.188,33.279A2.416,2.416,0,0,1,27.6,30.863c1.334,0,4.355,1.081,4.355,2.416s-3.021,2.415-4.355,2.415A2.416,2.416,0,0,1,25.188,33.279Z" fill="#ffe500" stroke="#b58b00" stroke-miterlimit="10"></path><path d="M36.033,15.8c.944.943,2.315,3.844,1.371,4.787s-3.844-.427-4.787-1.371A2.415,2.415,0,0,1,36.033,15.8Z" fill="#ffe500" stroke="#b58b00" stroke-miterlimit="10"></path><path d="M33.848 53.820 L66.571 53.820 L66.571 70.173 L33.848 70.173 Z" fill="#e8f4fa"></path><path d="M66.571,61.141V57.205a3.385,3.385,0,0,0-3.385-3.385H37.233a3.386,3.386,0,0,0-3.385,3.385v3.936h0a3.388,3.388,0,0,1,3.385-3.386H63.181a3.381,3.381,0,0,1,3.385,3.386" fill="#ffffff"></path><path d="M33.848 53.820 L66.571 53.820 L66.571 70.173 L33.848 70.173 Z" fill="none" stroke="#45413c" stroke-linecap="round" stroke-linejoin="round"></path><path d="M36.552,67.573a2.254,2.254,0,0,1-.56,2.7c-2.649,2.27-4.034,6.494-4.376,8.157a2.825,2.825,0,0,1-2.762,2.259,2.908,2.908,0,0,1-.561-.056,2.819,2.819,0,0,1-2.208-3.314c.069-.345,1.556-7.523,6.5-11.552a2.26,2.26,0,0,1,3.455.759Z" fill="#00b8f0" stroke="#45413c" stroke-linecap="round" stroke-linejoin="round"></path><path d="M63.435,67.573a2.255,2.255,0,0,0,.56,2.7c2.65,2.27,4.035,6.494,4.376,8.157a2.826,2.826,0,0,0,2.763,2.259,2.916,2.916,0,0,0,.561-.056A2.818,2.818,0,0,0,73.9,77.322c-.069-.345-1.556-7.523-6.5-11.552a2.26,2.26,0,0,0-3.455.759Z" fill="#6dd627" stroke="#45413c" stroke-linecap="round" stroke-linejoin="round"></path><path d="M38.586 61.840 A4.514 4.514 0 1 0 47.614 61.840 A4.514 4.514 0 1 0 38.586 61.840 Z" fill="#ffffff" stroke="#45413c" stroke-linecap="round" stroke-linejoin="round"></path><path d="M40.843 64.096 A2.257 2.257 0 1 0 45.357 64.096 A2.257 2.257 0 1 0 40.843 64.096 Z" fill="#525252" stroke="#45413c" stroke-linecap="round" stroke-linejoin="round"></path><path d="M52.801 61.840 A4.514 4.514 0 1 0 61.829 61.840 A4.514 4.514 0 1 0 52.801 61.840 Z" fill="#ffffff" stroke="#45413c" stroke-linecap="round" stroke-linejoin="round"></path><path d="M55.058 64.096 A2.257 2.257 0 1 0 59.572 64.096 A2.257 2.257 0 1 0 55.058 64.096 Z" fill="#525252" stroke="#45413c" stroke-linecap="round" stroke-linejoin="round"></path></g></svg>