<svg xmlns="http://www.w3.org/2000/svg" version="1.1" xmlns:xlink="http://www.w3.org/1999/xlink" xmlns:svgjs="http://svgjs.com/svgjs" viewBox="0 0 200 200" width="200" height="200"><g transform="matrix(2,0,0,2,0,0)"><path d="M7.693 49.098 A40.000 40.000 0 1 0 87.693 49.098 A40.000 40.000 0 1 0 7.693 49.098 Z" fill="#e8f4fa" stroke="#daedf7" stroke-miterlimit="10"></path><path d="M67.618 46.798H72.464V64.97H67.618z" fill="#ffffff" stroke="#45413c" stroke-linecap="round" stroke-linejoin="round" transform="translate(-6.083 103.149) rotate(-70.421)"></path><path d="M43.727 43.05H48.57299999999999V47.896H43.727z" fill="#daedf7"></path><path d="M43.727 43.05H48.57299999999999V45.473H43.727z" fill="#c0dceb"></path><path d="M43.727 43.05H48.57299999999999V47.896H43.727z" fill="none" stroke="#45413c" stroke-linecap="round" stroke-linejoin="round"></path><path d="M36.458 47.896 L55.842 47.896 L55.842 66.068 L36.458 66.068 Z" fill="#ffffff" stroke="#45413c" stroke-linecap="round" stroke-linejoin="round"></path><path d="M42.515 66.068H49.784V73.337H42.515z" fill="#daedf7"></path><path d="M42.515 66.068H49.784V69.702H42.515z" fill="#c0dceb"></path><path d="M42.515 66.068H49.784V73.337H42.515z" fill="none" stroke="#45413c" stroke-linecap="round" stroke-linejoin="round"></path><path d="M51,56.376A2.423,2.423,0,0,1,48.573,58.8H43.727A2.423,2.423,0,0,1,41.3,56.376V47.9H51Z" fill="#00b8f0"></path><path d="M49.378 47.896L41.304 55.964 41.304 47.896 49.378 47.896z" fill="#4acfff"></path><path d="M51,56.376A2.423,2.423,0,0,1,48.573,58.8H43.727A2.423,2.423,0,0,1,41.3,56.376V47.9H51Z" fill="none" stroke="#45413c" stroke-linecap="round" stroke-linejoin="round"></path><path d="M53.085,73.337a2.423,2.423,0,0,1,2.285,3.231,9.7,9.7,0,0,1-18.281,0,2.424,2.424,0,0,1,2.285-3.231Z" fill="#ffffff" stroke="#45413c" stroke-linecap="round" stroke-linejoin="round"></path><path d="M55.86,56.376h4.846a3.634,3.634,0,0,0,3.635-3.634V51.53A3.634,3.634,0,0,0,60.706,47.9H58.283a2.423,2.423,0,0,0-2.423,2.423Z" fill="#ffffff" stroke="#45413c" stroke-linecap="round" stroke-linejoin="round"></path><path d="M74.916 50.559H88.285V55.405H74.916z" fill="#ffffff" stroke="#45413c" stroke-linecap="round" stroke-linejoin="round" transform="matrix(0.274, -0.962, 0.962, 0.274, 8.292, 116.947)"></path><path d="M89.183,35.726a.607.607,0,0,1,.883.183,6.36,6.36,0,1,1-9.78-1.491.607.607,0,0,1,.9.088l1.086,1.476a.606.606,0,0,1-.058.786,3.332,3.332,0,1,0,5.319.811.606.606,0,0,1,.179-.768Z" fill="#656769"></path><path d="M89.183,35.726a.607.607,0,0,1,.883.183,6.36,6.36,0,1,1-9.78-1.491.607.607,0,0,1,.9.088l1.086,1.476a.606.606,0,0,1-.058.786,3.332,3.332,0,1,0,5.319.811.606.606,0,0,1,.179-.768Z" fill="none" stroke="#45413c" stroke-linecap="round" stroke-linejoin="round"></path><path d="M80.625 45.007 A3.634 3.634 0 1 0 87.893 45.007 A3.634 3.634 0 1 0 80.625 45.007 Z" fill="#ffffff" stroke="#45413c" stroke-linecap="round" stroke-linejoin="round"></path><path d="M75.627 60.014 A3.634 3.634 0 1 0 82.895 60.014 A3.634 3.634 0 1 0 75.627 60.014 Z" fill="#ffffff" stroke="#45413c" stroke-linecap="round" stroke-linejoin="round"></path><path d="M21.812 58.159H39.984V63.004999999999995H21.812z" fill="#ffffff" stroke="#45413c" stroke-linecap="round" stroke-linejoin="round" transform="translate(-36.678 68.218) rotate(-69.425)"></path><path d="M26.109 68.425L30.937 68.009 30.005 78.629 25.177 79.046 26.109 68.425z" fill="#ffffff" stroke="#45413c" stroke-linecap="round" stroke-linejoin="round"></path><path d="M36.458,56.376H31.612a3.634,3.634,0,0,1-3.635-3.634V51.53A3.634,3.634,0,0,1,31.612,47.9h2.423a2.423,2.423,0,0,1,2.423,2.423Z" fill="#ffffff" stroke="#45413c" stroke-linecap="round" stroke-linejoin="round"></path><path d="M25.020 66.767 A3.634 3.634 0 1 0 32.288 66.767 A3.634 3.634 0 1 0 25.020 66.767 Z" fill="#ffffff" stroke="#45413c" stroke-linecap="round" stroke-linejoin="round"></path><path d="M84.558,34.433V60.062c0,9.712-8.414,17.613-18.758,17.613s-18.758-7.9-18.758-17.613V57.441a1.276,1.276,0,0,1,1.23-1.238c6.265-.41,11.287-2.365,14.957-5.828,5.916-5.584,6.758-13.6,6.734-17.888A3.861,3.861,0,0,0,66,28.782H61.32v2.483H66A1.287,1.287,0,0,1,67.319,32.5c.022,3.9-.724,11.177-5.965,16.125-3.64,3.435-8.9,5.177-15.634,5.177s-11.994-1.742-15.634-5.177C24.845,43.676,24.1,36.4,24.121,32.5a1.287,1.287,0,0,1,1.322-1.234h4.676V28.782H25.443a3.862,3.862,0,0,0-3.967,3.705c-.024,4.283.819,12.3,6.735,17.888,3.665,3.459,8.7,5.394,14.957,5.8a1.276,1.276,0,0,1,1.23,1.237v2.646c0,11.081,9.6,20.1,21.4,20.1s21.4-9.015,21.4-20.1V34.433Z" fill="#adc4d9" stroke="#45413c" stroke-linecap="round" stroke-linejoin="round"></path><path d="M29.189 16.652 L63.111 16.652 L63.111 43.305 L29.189 43.305 Z" fill="#00b8f0"></path><path d="M32.823,43.305a3.631,3.631,0,0,1-3.635-3.635V20.286a3.63,3.63,0,0,1,3.634-3.634H59.476c.146,0,.279.012.424.024Z" fill="#4acfff"></path><path d="M41.568,33.324a1.515,1.515,0,0,1-1.514-1.514c0-1.377-.645-2.12-.909-2.12s-.908.743-.908,2.12a1.515,1.515,0,0,1-3.029,0c0-2.887,1.729-5.149,3.937-5.149s3.938,2.262,3.938,5.149A1.516,1.516,0,0,1,41.568,33.324Z" fill="#ffffff" stroke="#009fd9" stroke-miterlimit="10"></path><path d="M56.106,33.324a1.515,1.515,0,0,1-1.514-1.514c0-1.377-.645-2.12-.909-2.12s-.909.743-.909,2.12a1.514,1.514,0,0,1-3.028,0c0-2.887,1.729-5.149,3.937-5.149s3.937,2.262,3.937,5.149A1.515,1.515,0,0,1,56.106,33.324Z" fill="#ffffff" stroke="#009fd9" stroke-miterlimit="10"></path><path d="M29.189 16.652 L63.111 16.652 L63.111 43.305 L29.189 43.305 Z" fill="none" stroke="#45413c" stroke-linecap="round" stroke-linejoin="round"></path><path d="M78.980 31.022 A6.663 6.663 0 1 0 92.306 31.022 A6.663 6.663 0 1 0 78.980 31.022 Z" fill="#e8f4fa"></path><path d="M85.643,27.388a6.66,6.66,0,0,1,6.484,5.149,6.663,6.663,0,1,0-12.968,0A6.661,6.661,0,0,1,85.643,27.388Z" fill="#ffffff"></path><path d="M78.980 31.022 A6.663 6.663 0 1 0 92.306 31.022 A6.663 6.663 0 1 0 78.980 31.022 Z" fill="none" stroke="#45413c" stroke-linecap="round" stroke-linejoin="round"></path><path d="M82.009 31.022 A3.634 3.634 0 1 0 89.277 31.022 A3.634 3.634 0 1 0 82.009 31.022 Z" fill="#c0dceb"></path><path d="M85.643,29.811a3.624,3.624,0,0,1,3.412,2.423,3.634,3.634,0,1,0-6.824,0A3.624,3.624,0,0,1,85.643,29.811Z" fill="#adc4d9"></path><path d="M82.009 31.022 A3.634 3.634 0 1 0 89.277 31.022 A3.634 3.634 0 1 0 82.009 31.022 Z" fill="none" stroke="#45413c" stroke-linecap="round" stroke-linejoin="round"></path><path d="M36.452,81.894a.607.607,0,0,0,.224-.873,6.36,6.36,0,1,0-2.964,9.439.607.607,0,0,0,.315-.844l-.848-1.624a.6.6,0,0,0-.731-.294,3.332,3.332,0,1,1,1.612-5.133.606.606,0,0,0,.768.177Z" fill="#656769"></path><path d="M36.452,81.894a.607.607,0,0,0,.224-.873,6.36,6.36,0,1,0-2.964,9.439.607.607,0,0,0,.315-.844l-.848-1.624a.6.6,0,0,0-.731-.294,3.332,3.332,0,1,1,1.612-5.133.606.606,0,0,0,.768.177Z" fill="none" stroke="#45413c" stroke-linecap="round" stroke-linejoin="round"></path><path d="M23.668 79.865 A3.634 3.634 0 1 0 30.936 79.865 A3.634 3.634 0 1 0 23.668 79.865 Z" fill="#ffffff" stroke="#45413c" stroke-linecap="round" stroke-linejoin="round"></path></g></svg>