<svg xmlns="http://www.w3.org/2000/svg" version="1.1" xmlns:xlink="http://www.w3.org/1999/xlink" xmlns:svgjs="http://svgjs.com/svgjs" viewBox="0 0 200 200" width="200" height="200"><g transform="matrix(2,0,0,2,0,0)"><path d="M7.657 50.223 A40.000 40.000 0 1 0 87.657 50.223 A40.000 40.000 0 1 0 7.657 50.223 Z" fill="#e8f4fa" stroke="#daedf7" stroke-miterlimit="10"></path><path d="M57.9,49.568a6.559,6.559,0,0,1-2.762-.595c-2.533-1.17-3.945-3.758-4.732-6a3.1,3.1,0,0,0-2.921-2.07H46.8V38.613a2.293,2.293,0,0,1,2.294-2.294h.457a4.907,4.907,0,0,1,4.77,3.735c.609,2.465,1.634,4.242,2.742,4.754.263.121,1.06.489,2.8-.383a2.294,2.294,0,0,1,2.051,4.1A8.954,8.954,0,0,1,57.9,49.568Z" fill="#e0e0e0" stroke="#45413c" stroke-linecap="round" stroke-linejoin="round"></path><path d="M63.077,29.46a5.243,5.243,0,0,0-5.23,5.256l.045,18.35,5.243-.013,5.243-.013,3.932-.01-.058-23.592Z" fill="#e8f4fa"></path><path d="M57.851,36.489a5.676,5.676,0,0,1,4.98-2.974l9.431-.024-.01-4.053-9.175.022a5.243,5.243,0,0,0-5.23,5.256l0,1.628" fill="#ffffff"></path><path d="M65.967 62.34H69.899V76.75800000000001H65.967z" fill="#e8f4fa"></path><path d="M65.967 62.34H69.899V67.583H65.967z" fill="#c0dceb"></path><path d="M65.967 62.34H69.899V76.75800000000001H65.967z" fill="none" stroke="#45413c" stroke-linecap="round" stroke-linejoin="round"></path><path d="M77.553,53.02a9.831,9.831,0,0,1-19.661.046Z" fill="#e8f4fa" stroke="#45413c" stroke-linecap="round" stroke-linejoin="round"></path><path d="M80.087,17.622a7.865,7.865,0,0,1-7.845,7.884l-2.621.006L69.582,9.783,72.2,9.777A7.864,7.864,0,0,1,80.087,17.622Z" fill="#e8f4fa"></path><path d="M72.2,13.083a7.867,7.867,0,0,1,7.709,6.211A7.867,7.867,0,0,0,72.2,9.777l-2.621.006.008,3.307Z" fill="#ffffff"></path><path d="M80.087,17.622a7.865,7.865,0,0,1-7.845,7.884l-2.621.006L69.582,9.783,72.2,9.777A7.864,7.864,0,0,1,80.087,17.622Z" fill="none" stroke="#45413c" stroke-linecap="round" stroke-linejoin="round"></path><path d="M56.494 9.796 L72.223 9.796 L72.223 25.525 L56.494 25.525 Z" fill="#525252" transform="translate(-0.043 0.159) rotate(-0.141)"></path><path d="M59.1,13.116l10.486-.026a2.62,2.62,0,0,1,2.627,2.615l.019,7.377c0-.065.008-.131.008-.2L72.209,12.4a2.621,2.621,0,0,0-2.627-2.615L59.1,9.81a2.621,2.621,0,0,0-2.615,2.627l.008,3.109A2.62,2.62,0,0,1,59.1,13.116Z" fill="#656769"></path><path d="M56.494 9.796 L72.223 9.796 L72.223 25.525 L56.494 25.525 Z" fill="none" stroke="#45413c" stroke-linecap="round" stroke-linejoin="round" transform="translate(-0.043 0.159) rotate(-0.141)"></path><path d="M63.077,29.46a5.243,5.243,0,0,0-5.23,5.256l.045,18.35,5.243-.013,5.243-.013,3.932-.01-.058-23.592Z" fill="none" stroke="#45413c" stroke-linecap="round" stroke-linejoin="round"></path><path d="M77.553,53.017l-10.486.026-.045-18.35a5.243,5.243,0,0,1,10.485-.025Z" fill="#e8f4fa"></path><path d="M59.116,17.674a1.311,1.311,0,1,1,2.621-.007" fill="none" stroke="#4acfff" stroke-linecap="round" stroke-linejoin="round"></path><path d="M66.128,17.674a1.311,1.311,0,0,1,2.622-.007" fill="none" stroke="#4acfff" stroke-linecap="round" stroke-linejoin="round"></path><path d="M66.534 25.525H70.46600000000001V29.456999999999997H66.534z" fill="#bdbec0" stroke="#45413c" stroke-linecap="round" stroke-linejoin="round" transform="translate(-0.068 0.169) rotate(-0.141)"></path><path d="M56.473 80.398 A11.796 1.966 0 1 0 80.065 80.398 A11.796 1.966 0 1 0 56.473 80.398 Z" fill="#45413c" opacity=".15"></path><path d="M56.862,44.7a3.935,3.935,0,0,1-3.517,3.07" fill="none" stroke="#45413c" stroke-linecap="round" stroke-linejoin="round"></path><path d="M54.2,39.644a3.932,3.932,0,0,1-3.938,2.9" fill="none" stroke="#45413c" stroke-linecap="round" stroke-linejoin="round"></path><path d="M77.511,36.119a6.7,6.7,0,0,0-10.485.337l0-1.763a5.243,5.243,0,0,1,10.485-.025Z" fill="#ffffff"></path><path d="M77.553,53.017l-10.486.026-.045-18.35a5.243,5.243,0,0,1,10.485-.025Z" fill="none" stroke="#45413c" stroke-linecap="round" stroke-linejoin="round"></path><path d="M79.114,58.357a6.483,6.483,0,0,0,2,4.609,1.33,1.33,0,0,0,1.87-.024,1.3,1.3,0,0,0-.023-1.853,4,4,0,0,1-.071-5.561,4,4,0,0,1,5.612-.071,4,4,0,0,1,.07,5.561,1.3,1.3,0,0,0,.024,1.853,1.33,1.33,0,0,0,1.87-.024,6.509,6.509,0,0,0-.118-9.267,6.656,6.656,0,0,0-9.352.119A6.483,6.483,0,0,0,79.114,58.357Z" fill="#656769" stroke="#45413c" stroke-linecap="round" stroke-linejoin="round"></path><path d="M85.789,55.013A2.293,2.293,0,0,1,83.5,52.719c0-6.5-1.474-11.124-4.381-13.754a8.953,8.953,0,0,0-6.2-2.313,2.294,2.294,0,0,1-.457-4.565,13.519,13.519,0,0,1,9.74,3.477c3.908,3.536,5.89,9.309,5.89,17.155A2.294,2.294,0,0,1,85.789,55.013Z" fill="#e0e0e0" stroke="#45413c" stroke-linecap="round" stroke-linejoin="round"></path><path d="M76.614,37.368a3.935,3.935,0,0,1,2.7-3.8" fill="none" stroke="#45413c" stroke-linecap="round" stroke-linejoin="round"></path><path d="M80.849,41.028a3.933,3.933,0,0,1,3.629-2.415c.093,0,.186,0,.277.009" fill="none" stroke="#45413c" stroke-linecap="round" stroke-linejoin="round"></path><path d="M82.919,46.411a3.935,3.935,0,0,1,4.494-.9" fill="none" stroke="#45413c" stroke-linecap="round" stroke-linejoin="round"></path><path d="M58.8,57.184a9.792,9.792,0,0,1-.912-4.118l19.661-.046a9.8,9.8,0,0,1-.81,3.937Z" fill="#c0dceb"></path><path d="M77.553,53.02a9.831,9.831,0,0,1-19.661.046Z" fill="none" stroke="#45413c" stroke-linecap="round" stroke-linejoin="round"></path><path d="M77.206,78.584a.736.736,0,0,1-.178,1.45H58.839a.736.736,0,0,1-.178-1.45l7.306-1.827H69.9Z" fill="#656769" stroke="#45413c" stroke-linecap="round" stroke-linejoin="round"></path><path d="M9.802 82.703 A10.486 1.966 0 1 0 30.774 82.703 A10.486 1.966 0 1 0 9.802 82.703 Z" fill="#45413c" opacity=".15"></path><path d="M20.248 69.208L20.248 75.494" fill="none" stroke="#45413c" stroke-linecap="round" stroke-linejoin="round"></path><path d="M27.234,68.2c-1.88,1.085-3.992.949-4.716-.3s.214-3.15,2.095-4.236c1.2-.694,4.653-1.448,6.984-1.9a.779.779,0,0,1,.777,1.344C30.816,64.9,28.437,67.507,27.234,68.2Z" fill="#6dd627"></path><path d="M32.6,62.077a.908.908,0,0,1-.225,1.027c-1.558,1.792-3.937,4.4-5.14,5.1-1.88,1.085-3.992.949-4.716-.3Z" fill="#46b000"></path><path d="M27.234,68.2c-1.88,1.085-3.992.949-4.716-.3s.214-3.15,2.095-4.236c1.2-.694,4.653-1.448,6.984-1.9a.779.779,0,0,1,.777,1.344C30.816,64.9,28.437,67.507,27.234,68.2Z" fill="none" stroke="#45413c" stroke-linecap="round" stroke-linejoin="round"></path><path d="M22.518 67.897L20.248 69.208" fill="none" stroke="#45413c" stroke-linecap="round" stroke-linejoin="round"></path><path d="M13.262,68.2c1.881,1.085,3.992.949,4.716-.3s-.214-3.15-2.1-4.236c-1.2-.694-4.652-1.448-6.983-1.9a.911.911,0,0,0-1,.317A.91.91,0,0,0,8.122,63.1C9.681,64.9,12.059,67.507,13.262,68.2Z" fill="#6dd627"></path><path d="M7.9,62.077A.91.91,0,0,0,8.122,63.1c1.559,1.792,3.937,4.4,5.14,5.1,1.881,1.085,3.992.949,4.716-.3Z" fill="#46b000"></path><path d="M13.262,68.2c1.881,1.085,3.992.949,4.716-.3s-.214-3.15-2.1-4.236c-1.2-.694-4.652-1.448-6.983-1.9a.911.911,0,0,0-1,.317A.91.91,0,0,0,8.122,63.1C9.681,64.9,12.059,67.507,13.262,68.2Z" fill="none" stroke="#45413c" stroke-linecap="round" stroke-linejoin="round"></path><path d="M17.978 67.897L20.248 69.208" fill="none" stroke="#45413c" stroke-linecap="round" stroke-linejoin="round"></path><path d="M12.31,82.048a.657.657,0,0,1-.543-1.024c5.012-7.373,12.031-7.373,17.042,0a.655.655,0,0,1-.541,1.024Z" fill="#debb7e" stroke="#45413c" stroke-linecap="round" stroke-linejoin="round"></path><path d="M48.744,37.686a4.93,4.93,0,1,0-2.788,6.392A4.921,4.921,0,0,0,48.744,37.686Zm-3.885,3.93a2.242,2.242,0,1,1,1.424-2.832A2.242,2.242,0,0,1,44.859,41.616Z" fill="#e8f4fa" stroke="#45413c" stroke-linecap="round" stroke-linejoin="round"></path><path d="M43.329,42.6a2.691,2.691,0,0,1-1.709,3.4L31.4,49.373A2.691,2.691,0,0,1,28,47.664L24.624,37.446A3.587,3.587,0,0,1,26.9,32.914l3.864-1.278a1.311,1.311,0,0,1,1.656.833l.715,2.161A1.794,1.794,0,0,0,35.4,35.77l3.406-1.127a1.794,1.794,0,0,1,2.266,1.14Z" fill="#ffffff"></path><path d="M43.329,42.6a2.691,2.691,0,0,1-1.709,3.4L31.4,49.373A2.691,2.691,0,0,1,28,47.664L24.624,37.446A3.587,3.587,0,0,1,26.9,32.914l3.864-1.278a1.311,1.311,0,0,1,1.656.833l.715,2.161A1.794,1.794,0,0,0,35.4,35.77l3.406-1.127a1.794,1.794,0,0,1,2.266,1.14Z" fill="none" stroke="#45413c" stroke-linecap="round" stroke-linejoin="round"></path><path d="M28,47.664l-1.961-5.929-10.2-2.293L14.98,42.56,28.632,48.7A2.69,2.69,0,0,1,28,47.664Z" fill="#ffffff"></path><path d="M22.7,40.984l1.961,5.93L28.632,48.7A2.69,2.69,0,0,1,28,47.664l-1.961-5.929Z" fill="#daedf7"></path><path d="M28,47.664l-1.961-5.929-10.2-2.293L14.98,42.56,28.632,48.7A2.69,2.69,0,0,1,28,47.664Z" fill="none" stroke="#45413c" stroke-linecap="round" stroke-linejoin="round"></path><path d="M14.684 43.636L16.135 38.365" fill="none" stroke="#45413c" stroke-linecap="round" stroke-linejoin="round"></path><path d="M16.162,57.311h0a3,3,0,0,1-4.243.084h0a3,3,0,0,1-.713-3.261l2.637-6.708,2.9,6.6A3,3,0,0,1,16.162,57.311Z" fill="#80ddff"></path><path d="M16.405,53.252a.46.46,0,0,1-.1.128,2.99,2.99,0,0,1-4.239.079,2.477,2.477,0,0,1-.41-.478l-.453,1.153a3,3,0,0,0,.713,3.261h0a3,3,0,0,0,4.243-.084h0a3,3,0,0,0,.583-3.287Z" fill="#00b8f0"></path><path d="M16.162,57.311h0a3,3,0,0,1-4.243.084h0a3,3,0,0,1-.713-3.261l2.637-6.708,2.9,6.6A3,3,0,0,1,16.162,57.311Z" fill="none" stroke="#45413c" stroke-linecap="round" stroke-linejoin="round"></path></g></svg>