<svg xmlns="http://www.w3.org/2000/svg" version="1.1" xmlns:xlink="http://www.w3.org/1999/xlink" xmlns:svgjs="http://svgjs.com/svgjs" viewBox="0 0 200 200" width="200" height="200"><g transform="matrix(2,0,0,2,0,0)"><path d="M14.483,66.5a40.017,40.017,0,0,0,72.9,0Z" fill="#e8f4fa" stroke="#ffffff" stroke-miterlimit="10"></path><path d="M87.381,66.5a40,40,0,1,0-72.9,0Z" fill="#c7f0ff"></path><path d="M11.932 66.5L89.932 66.5" fill="none" stroke="#45413c" stroke-linecap="round" stroke-linejoin="round"></path><path d="M7.432 66.5L9.932 66.5" fill="none" stroke="#45413c" stroke-linecap="round" stroke-linejoin="round"></path><path d="M91.932 66.5L94.432 66.5" fill="none" stroke="#45413c" stroke-linecap="round" stroke-linejoin="round"></path><path d="M42.344,65.019a2.3,2.3,0,0,1-2.088,3.263H19.633a3.45,3.45,0,0,1-3.132-2l-10.616-23a3.451,3.451,0,0,1,3.133-4.9H28.579a2.3,2.3,0,0,1,2.088,1.337Z" fill="#87898c"></path><path d="M32.173,42.982l-1.506-3.263a2.3,2.3,0,0,0-2.088-1.337H9.018a3.451,3.451,0,0,0-3.133,4.9l.452.981a3.45,3.45,0,0,1,2.68-1.277Z" fill="#bdbec0"></path><path d="M7.050 79.069 A17.978 1.587 0 1 0 43.006 79.069 A17.978 1.587 0 1 0 7.050 79.069 Z" fill="#45413c" opacity=".15"></path><path d="M81.852 25.732 A4.600 4.600 0 1 0 91.052 25.732 A4.600 4.600 0 1 0 81.852 25.732 Z" fill="#656769" stroke="#45413c" stroke-linecap="round" stroke-linejoin="round"></path><path d="M68.011 37.796H72.61099999999999V42.396H68.011z" fill="#daedf7"></path><path d="M68.011 37.796H72.61099999999999V40.096H68.011z" fill="#c0dceb"></path><path d="M68.011 37.796H72.61099999999999V42.396H68.011z" fill="none" stroke="#45413c" stroke-linecap="round" stroke-linejoin="round"></path><path d="M61.111 42.396 L79.511 42.396 L79.511 59.646 L61.111 59.646 Z" fill="#ffffff" stroke="#45413c" stroke-linecap="round" stroke-linejoin="round"></path><path d="M66.861 59.646H73.76100000000001V66.546H66.861z" fill="#daedf7"></path><path d="M66.867 59.646H73.76700000000001V63.096000000000004H66.867z" fill="#c0dceb"></path><path d="M66.861 59.646H73.76100000000001V66.546H66.861z" fill="none" stroke="#45413c" stroke-linecap="round" stroke-linejoin="round"></path><path d="M74.911,50.446a2.3,2.3,0,0,1-2.3,2.3h-4.6a2.3,2.3,0,0,1-2.3-2.3V42.4h9.2Z" fill="#00b8f0"></path><path d="M73.376 42.396L65.717 50.055 65.717 42.396 73.376 42.396z" fill="#4acfff"></path><path d="M74.911,50.446a2.3,2.3,0,0,1-2.3,2.3h-4.6a2.3,2.3,0,0,1-2.3-2.3V42.4h9.2Z" fill="none" stroke="#45413c" stroke-linecap="round" stroke-linejoin="round"></path><path d="M54.211 13.244 L86.411 13.244 L86.411 38.544 L54.211 38.544 Z" fill="#00b8f0"></path><path d="M54.211 13.244 L86.411 13.244 L86.411 38.544 L54.211 38.544 Z" fill="none" stroke="#45413c" stroke-linecap="round" stroke-linejoin="round"></path><path d="M83.364,13.267,58.087,38.544h-.426a3.447,3.447,0,0,1-3.45-3.451v-18.4a3.444,3.444,0,0,1,3.45-3.449h25.3C83.1,13.244,83.226,13.256,83.364,13.267Z" fill="#4acfff"></path><path d="M66.225,29.47a1.439,1.439,0,0,1-1.438-1.437c0-1.308-.612-2.013-.862-2.013s-.863.705-.863,2.013a1.438,1.438,0,0,1-2.875,0c0-2.741,1.642-4.888,3.738-4.888s3.737,2.147,3.737,4.888A1.439,1.439,0,0,1,66.225,29.47Z" fill="#ffffff" stroke="#009fd9" stroke-miterlimit="10"></path><path d="M80.025,29.47a1.439,1.439,0,0,1-1.438-1.437c0-1.308-.612-2.013-.862-2.013s-.863.705-.863,2.013a1.438,1.438,0,0,1-2.875,0c0-2.741,1.642-4.888,3.738-4.888s3.737,2.147,3.737,4.888A1.439,1.439,0,0,1,80.025,29.47Z" fill="#ffffff" stroke="#009fd9" stroke-miterlimit="10"></path><path d="M86.412,16.694v18.4a3.445,3.445,0,0,1-3.45,3.45h-25.3a3.447,3.447,0,0,1-3.45-3.451v-18.4a3.444,3.444,0,0,1,3.45-3.449h25.3c.138,0,.264.012.4.023A3.449,3.449,0,0,1,86.412,16.694Z" fill="none" stroke="#45413c" stroke-linecap="round" stroke-linejoin="round"></path><path d="M44.175 50.882H61.425V55.482H44.175z" fill="#ffffff" transform="translate(-21.768 60.648) rotate(-50.924)"></path><path d="M55,53.086h.836L59.6,48.452V47.6l-3.153-2.56L51.77,50.8A3.439,3.439,0,0,0,55,53.086Z" fill="#e0e0e0"></path><path d="M44.175 50.882H61.425V55.482H44.175z" fill="none" stroke="#45413c" stroke-linecap="round" stroke-linejoin="round" transform="translate(-21.768 60.648) rotate(-50.924)"></path><path d="M61.105,50.446h-4.6A3.45,3.45,0,0,1,53.055,47v-1.15a3.45,3.45,0,0,1,3.45-3.45h2.3a2.3,2.3,0,0,1,2.3,2.3Z" fill="#ffffff" stroke="#45413c" stroke-linecap="round" stroke-linejoin="round"></path><path d="M42.699 59.932 A3.450 3.450 0 1 0 49.599 59.932 A3.450 3.450 0 1 0 42.699 59.932 Z" fill="#ffffff" stroke="#45413c" stroke-linecap="round" stroke-linejoin="round"></path><path d="M43.13,58.494a2.3,2.3,0,1,0,4.487-1.013l-1.7-7.036-4.487,1.013Z" fill="#ffffff" stroke="#45413c" stroke-linecap="round" stroke-linejoin="round"></path><path d="M47.351,40.208a.574.574,0,0,1,.855.014,6.038,6.038,0,1,1-9.385.338.577.577,0,0,1,.852-.076l1.273,1.185a.574.574,0,0,1,.085.743,3.163,3.163,0,1,0,5.1-.184.574.574,0,0,1,.031-.747Z" fill="#656769"></path><path d="M47.351,40.208a.574.574,0,0,1,.855.014,6.038,6.038,0,1,1-9.385.338.577.577,0,0,1,.852-.076l1.273,1.185a.574.574,0,0,1,.085.743,3.163,3.163,0,1,0,5.1-.184.574.574,0,0,1,.031-.747Z" fill="none" stroke="#45413c" stroke-linecap="round" stroke-linejoin="round"></path><path d="M40.307 49.386 A3.450 3.450 0 1 0 47.207 49.386 A3.450 3.450 0 1 0 40.307 49.386 Z" fill="#ffffff" stroke="#45413c" stroke-linecap="round" stroke-linejoin="round"></path><path d="M82.061 46.472H86.661V63.722H82.061z" fill="#ffffff" transform="translate(-10.719 21.748) rotate(-13.821)"></path><path d="M84.534,46.172l-4.466,1.1,1.43,5.815h2.611a3.424,3.424,0,0,0,1.974-.621Z" fill="#e0e0e0"></path><path d="M82.061 46.472H86.661V63.722H82.061z" fill="none" stroke="#45413c" stroke-linecap="round" stroke-linejoin="round" transform="translate(-10.719 21.748) rotate(-13.821)"></path><path d="M79.509,50.446h4.6A3.45,3.45,0,0,0,87.559,47v-1.15a3.449,3.449,0,0,0-3.45-3.45h-2.3a2.3,2.3,0,0,0-2.3,2.3Z" fill="#ffffff" stroke="#45413c" stroke-linecap="round" stroke-linejoin="round"></path><path d="M82.457 64.561 A3.450 3.450 0 1 0 89.357 64.561 A3.450 3.450 0 1 0 82.457 64.561 Z" fill="#ffffff" stroke="#45413c" stroke-linecap="round" stroke-linejoin="round"></path><path d="M85.683,68.307a2.3,2.3,0,0,0-2.972-3.51l-5.455,4.757,2.972,3.51Z" fill="#ffffff" stroke="#45413c" stroke-linecap="round" stroke-linejoin="round"></path><path d="M67.516,73.017a.575.575,0,0,1-.382-.765,6.038,6.038,0,1,1,4.638,8.166.576.576,0,0,1-.461-.72l.462-1.677a.575.575,0,0,1,.619-.419,3.162,3.162,0,1,0-2.522-4.441.573.573,0,0,1-.677.318Z" fill="#656769"></path><path d="M67.516,73.017a.575.575,0,0,1-.382-.765,6.038,6.038,0,1,1,4.638,8.166.576.576,0,0,1-.461-.72l.462-1.677a.575.575,0,0,1,.619-.419,3.162,3.162,0,1,0-2.522-4.441.573.573,0,0,1-.677.318Z" fill="none" stroke="#45413c" stroke-linecap="round" stroke-linejoin="round"></path><path d="M73.867 71.962 A3.450 3.450 0 1 0 80.767 71.962 A3.450 3.450 0 1 0 73.867 71.962 Z" fill="#ffffff" stroke="#45413c" stroke-linecap="round" stroke-linejoin="round"></path><path d="M78.347 35.071 A2.300 2.300 0 1 0 82.947 35.071 A2.300 2.300 0 1 0 78.347 35.071 Z" fill="#656769" stroke="#45413c" stroke-linecap="round" stroke-linejoin="round"></path><path d="M83,34.932h2.3a4.6,4.6,0,0,0,4.6-4.6V28.775" fill="none" stroke="#45413c" stroke-linecap="round" stroke-linejoin="round"></path><path d="M42.344,65.019a2.3,2.3,0,0,1-2.088,3.263H19.633a3.45,3.45,0,0,1-3.132-2l-10.616-23a3.451,3.451,0,0,1,3.133-4.9H28.579a2.3,2.3,0,0,1,2.088,1.337Z" fill="none" stroke="#45413c" stroke-linecap="round" stroke-linejoin="round"></path><path d="M43.658,65.319a2.088,2.088,0,0,1-3.792,1.75L27.994,41.346a2.088,2.088,0,1,1,3.792-1.75Z" fill="#656769" stroke="#45413c" stroke-linecap="round" stroke-linejoin="round"></path><path d="M26.6,75.182H19.7V62.532a2.3,2.3,0,0,1,2.3-2.3h4.6Z" fill="#656769"></path><path d="M26.6,60.232v3.45H22a2.307,2.307,0,0,0-2.3,2.3v-3.45a2.307,2.307,0,0,1,2.3-2.3Z" fill="#87898c"></path><path d="M26.6,75.182H19.7V62.532a2.3,2.3,0,0,1,2.3-2.3h4.6Z" fill="none" stroke="#45413c" stroke-linecap="round" stroke-linejoin="round"></path><path d="M28.9,75.182H24.3V62.532a2.3,2.3,0,1,1,4.6,0Z" fill="#525252" stroke="#45413c" stroke-linecap="round" stroke-linejoin="round"></path><path d="M28.9,78.632H13.433a.576.576,0,0,1-.564-.689,3.452,3.452,0,0,1,3.381-2.761h9.2A3.45,3.45,0,0,1,28.9,78.632Z" fill="#656769" stroke="#45413c" stroke-linecap="round" stroke-linejoin="round"></path><path d="M34.581,77.943a.573.573,0,0,1-.564.689H22a3.45,3.45,0,0,1,3.45-3.45H31.2A3.451,3.451,0,0,1,34.581,77.943Z" fill="#525252" stroke="#45413c" stroke-linecap="round" stroke-linejoin="round"></path><path d="M33.500 64.832 A1.150 1.150 0 1 0 35.800 64.832 A1.150 1.150 0 1 0 33.500 64.832 Z" fill="#656769" stroke="#45413c" stroke-linecap="round" stroke-linejoin="round"></path><path d="M33.5,64.832a2.3,2.3,0,0,0-2.3,2.3v8.05" fill="none" stroke="#45413c" stroke-linecap="round" stroke-linejoin="round"></path></g></svg>