<svg xmlns="http://www.w3.org/2000/svg" version="1.1" xmlns:xlink="http://www.w3.org/1999/xlink" xmlns:svgjs="http://svgjs.com/svgjs" viewBox="0 0 200 200" width="200" height="200"><g transform="matrix(2,0,0,2,0,0)"><path d="M10.000 51.245 A40.000 40.000 0 1 0 90.000 51.245 A40.000 40.000 0 1 0 10.000 51.245 Z" fill="#e8f4fa" stroke="#daedf7" stroke-miterlimit="10"></path><path d="M62.673,67.461a2.328,2.328,0,0,0,1.277-.382,20.984,20.984,0,0,0,6.679-28.012,2.331,2.331,0,1,0-4.037,2.33,16.321,16.321,0,0,1-5.2,21.786,2.33,2.33,0,0,0,1.281,4.278Z" fill="#daedf7" stroke="#45413c" stroke-linecap="round" stroke-linejoin="round"></path><path d="M72.733,44.185a3.5,3.5,0,0,0-4.415,1.552" fill="#daedf7" stroke="#45413c" stroke-linecap="round" stroke-linejoin="round"></path><path d="M73.233,52.385a3.5,3.5,0,0,0-4.569-1.03" fill="#daedf7" stroke="#45413c" stroke-linecap="round" stroke-linejoin="round"></path><path d="M64.758,43.916a7.5,7.5,0,0,0,4.349-13.607,1.748,1.748,0,0,0-2.029,2.847,4,4,0,1,1-4.89,6.33,1.748,1.748,0,0,0-2.246,2.679A7.511,7.511,0,0,0,64.758,43.916Z" fill="#daedf7" stroke="#45413c" stroke-linecap="round" stroke-linejoin="round"></path><path d="M66.435 40.215 A2.330 2.330 0 1 0 71.095 40.215 A2.330 2.330 0 1 0 66.435 40.215 Z" fill="#f0f0f0" stroke="#45413c" stroke-linecap="round" stroke-linejoin="round"></path><path d="M27.199 80.675 A23.303 2.33 0 1 0 73.805 80.675 A23.303 2.33 0 1 0 27.199 80.675 Z" fill="#45413c" opacity=".15"></path><path d="M69.727,57.692a3.49,3.49,0,0,1,3.5,3.495V76.334H27.782V61.187a3.49,3.49,0,0,1,3.5-3.495Z" fill="#ffaa54"></path><path d="M27.782 61.187H55.745999999999995V76.334H27.782z" fill="#ff8a14"></path><path d="M69.727,57.692a3.49,3.49,0,0,1,3.5,3.495v3.5a3.491,3.491,0,0,0-3.5-3.5H55.745a3.49,3.49,0,0,0-3.495-3.495Z" fill="#ffcc99"></path><path d="M69.727,57.692a3.49,3.49,0,0,1,3.5,3.495V76.334H27.782V61.187a3.49,3.49,0,0,1,3.5-3.495Z" fill="none" stroke="#45413c" stroke-linecap="round" stroke-linejoin="round"></path><path d="M27.782,61.187H46.424A3.5,3.5,0,0,0,48.9,60.164l2.471-2.472" fill="none" stroke="#45413c" stroke-linecap="round" stroke-linejoin="round"></path><path d="M73.223,76.334v2.331a1.17,1.17,0,0,1-1.166,1.165H28.947a1.169,1.169,0,0,1-1.165-1.165V76.334Z" fill="#656769"></path><path d="M55.745,76.334v3.5h-26.8a1.169,1.169,0,0,1-1.165-1.165V76.334Z" fill="#525252"></path><path d="M73.223,76.334v2.331a1.17,1.17,0,0,1-1.166,1.165H28.947a1.169,1.169,0,0,1-1.165-1.165V76.334Z" fill="none" stroke="#45413c" stroke-linecap="round" stroke-linejoin="round"></path><path d="M32.093 8.755 L67.980 8.755 L67.980 44.642 L32.093 44.642 Z" fill="#debb7e"></path><path d="M64.135,8.755A3.84,3.84,0,0,1,67.98,12.6v5.127a3.84,3.84,0,0,0-3.845-3.845h-28.2a3.84,3.84,0,0,0-3.845,3.845V12.6a3.84,3.84,0,0,1,3.845-3.845Z" fill="#f0d5a8"></path><path d="M53.881,19.008a2.563,2.563,0,0,1-2.563,2.564H48.755a2.564,2.564,0,0,1-2.564-2.564V8.755h7.69Z" fill="#ffffff" stroke="#45413c" stroke-linecap="round" stroke-linejoin="round"></path><path d="M32.093 8.755 L67.980 8.755 L67.980 44.642 L32.093 44.642 Z" fill="none" stroke="#45413c" stroke-linecap="round" stroke-linejoin="round"></path><path d="M53.881 33.107 L64.134 33.107 L64.134 39.515 L53.881 39.515 Z" fill="#f7e5c6"></path><path d="M59.241 64.683 L69.727 64.683 L69.727 71.674 L59.241 71.674 Z" fill="#525252" stroke="#45413c" stroke-linecap="round" stroke-linejoin="round"></path><path d="M60.989 68.178 A1.165 1.165 0 1 0 63.319 68.178 A1.165 1.165 0 1 0 60.989 68.178 Z" fill="#4acfff"></path><path d="M65.649 68.178 A1.165 1.165 0 1 0 67.979 68.178 A1.165 1.165 0 1 0 65.649 68.178 Z" fill="#4acfff"></path><path d="M38.269 66.723 A3.495 3.495 0 1 0 45.259 66.723 A3.495 3.495 0 1 0 38.269 66.723 Z" fill="#e8f4fa" stroke="#45413c" stroke-linecap="round" stroke-linejoin="round"></path><path d="M40.864,68.627a2.315,2.315,0,0,1-1.276-.383,20.981,20.981,0,0,1-6.679-28.012,2.33,2.33,0,1,1,4.036,2.33,16.323,16.323,0,0,0,5.2,21.786,2.331,2.331,0,0,1-1.282,4.279Z" fill="#daedf7" stroke="#45413c" stroke-linecap="round" stroke-linejoin="round"></path><path d="M30.805,45.35A3.5,3.5,0,0,1,35.22,46.9" fill="#daedf7" stroke="#45413c" stroke-linecap="round" stroke-linejoin="round"></path><path d="M30.305,53.55a3.5,3.5,0,0,1,4.568-1.029" fill="#daedf7" stroke="#45413c" stroke-linecap="round" stroke-linejoin="round"></path><path d="M36.176,57.334a3.5,3.5,0,0,1-4.464,1.416" fill="none" stroke="#45413c" stroke-linecap="round" stroke-linejoin="round"></path><path d="M39.334,62.019a3.5,3.5,0,0,1-3.4,2.664,3.638,3.638,0,0,1-.526-.039" fill="none" stroke="#45413c" stroke-linecap="round" stroke-linejoin="round"></path><path d="M38.779,45.081A7.5,7.5,0,0,1,34.43,31.474a1.748,1.748,0,1,1,2.029,2.847,4,4,0,1,0,4.89,6.331A1.748,1.748,0,1,1,43.6,43.33,7.509,7.509,0,0,1,38.779,45.081Z" fill="#daedf7" stroke="#45413c" stroke-linecap="round" stroke-linejoin="round"></path><path d="M32.443 41.380 A2.330 2.330 0 1 0 37.103 41.380 A2.330 2.330 0 1 0 32.443 41.380 Z" fill="#f0f0f0" stroke="#45413c" stroke-linecap="round" stroke-linejoin="round"></path><path d="M52.25,57.692a3.49,3.49,0,0,1,3.495,3.495V79.83" fill="none" stroke="#45413c" stroke-linecap="round" stroke-linejoin="round"></path></g></svg>